<?xml version="1.0" encoding="UTF-8" standalone="no"?><svg xmlns="http://www.w3.org/2000/svg" xmlns:xlink="http://www.w3.org/1999/xlink" contentScriptType="application/ecmascript" contentStyleType="text/css" height="678px" preserveAspectRatio="none" style="width:418px;height:678px;background:#FFFFFF;" version="1.1" viewBox="0 0 418 678" width="418px" zoomAndPan="magnify"><defs><filter height="300%" id="f6rsg8n5xtk5k" width="300%" x="-1" y="-1"><feGaussianBlur result="blurOut" stdDeviation="2.0"/><feColorMatrix in="blurOut" result="blurOut2" type="matrix" values="0 0 0 0 0 0 0 0 0 0 0 0 0 0 0 0 0 0 .4 0"/><feOffset dx="4.0" dy="4.0" in="blurOut2" result="blurOut3"/><feBlend in="SourceGraphic" in2="blurOut3" mode="normal"/></filter></defs><g><!--MD5=[271c2cf9e37bbfa9a95b2d21e7f07cef]
class CentralPortsController--><rect codeLine="4" fill="#FEFECE" filter="url(#f6rsg8n5xtk5k)" height="60.8047" id="CentralPortsController" style="stroke:#A80036;stroke-width:1.5;" width="163" x="204" y="7"/><ellipse cx="219" cy="23" fill="#ADD1B2" rx="11" ry="11" style="stroke:#A80036;stroke-width:1.0;"/><path d="M221.4688,28.875 Q220.8906,29.1875 220.25,29.3438 Q219.6094,29.5 218.9063,29.5 Q216.4063,29.5 215.0781,27.8281 Q213.7656,26.1563 213.7656,23 Q213.7656,19.8438 215.0781,18.1719 Q216.4063,16.5 218.9063,16.5 Q219.6094,16.5 220.25,16.6563 Q220.9063,16.8125 221.4688,17.125 L221.4688,19.9219 Q220.8438,19.3594 220.25,19.0938 Q219.6563,18.8125 219.0313,18.8125 Q217.6875,18.8125 217,19.875 Q216.3125,20.9375 216.3125,23 Q216.3125,25.0781 217,26.1406 Q217.6875,27.1875 219.0313,27.1875 Q219.6563,27.1875 220.25,26.9219 Q220.8438,26.6563 221.4688,26.0781 L221.4688,28.875 Z " fill="#000000"/><text fill="#000000" font-family="sans-serif" font-size="12" lengthAdjust="spacing" textLength="131" x="233" y="27.1543">CentralPortsController</text><line style="stroke:#A80036;stroke-width:1.5;" x1="205" x2="366" y1="39" y2="39"/><line style="stroke:#A80036;stroke-width:1.5;" x1="205" x2="366" y1="47" y2="47"/><text fill="#000000" font-family="sans-serif" font-size="11" lengthAdjust="spacing" textLength="131" x="210" y="61.2104">+getMostCentralPorts()</text><!--MD5=[02e4b9b7573f1156f41e60aa5b4e25a4]
class Company--><rect codeLine="8" fill="#FEFECE" filter="url(#f6rsg8n5xtk5k)" height="73.6094" id="Company" style="stroke:#A80036;stroke-width:1.5;" width="132" x="219.5" y="129"/><ellipse cx="253.85" cy="145" fill="#ADD1B2" rx="11" ry="11" style="stroke:#A80036;stroke-width:1.0;"/><path d="M256.3188,150.875 Q255.7406,151.1875 255.1,151.3438 Q254.4594,151.5 253.7563,151.5 Q251.2563,151.5 249.9281,149.8281 Q248.6156,148.1563 248.6156,145 Q248.6156,141.8438 249.9281,140.1719 Q251.2563,138.5 253.7563,138.5 Q254.4594,138.5 255.1,138.6563 Q255.7563,138.8125 256.3188,139.125 L256.3188,141.9219 Q255.6938,141.3594 255.1,141.0938 Q254.5063,140.8125 253.8813,140.8125 Q252.5375,140.8125 251.85,141.875 Q251.1625,142.9375 251.1625,145 Q251.1625,147.0781 251.85,148.1406 Q252.5375,149.1875 253.8813,149.1875 Q254.5063,149.1875 255.1,148.9219 Q255.6938,148.6563 256.3188,148.0781 L256.3188,150.875 Z " fill="#000000"/><text fill="#000000" font-family="sans-serif" font-size="12" lengthAdjust="spacing" textLength="57" x="272.15" y="149.1543">Company</text><line style="stroke:#A80036;stroke-width:1.5;" x1="220.5" x2="350.5" y1="161" y2="161"/><text fill="#000000" font-family="sans-serif" font-size="11" lengthAdjust="spacing" textLength="69" x="225.5" y="175.2104">-designation</text><line style="stroke:#A80036;stroke-width:1.5;" x1="220.5" x2="350.5" y1="181.8047" y2="181.8047"/><text fill="#000000" font-family="sans-serif" font-size="11" lengthAdjust="spacing" textLength="120" x="225.5" y="196.0151">+getFreightNetwork()</text><!--MD5=[074ba6ad47b234bd73d65012320c1634]
class FreightNetwork--><rect codeLine="13" fill="#FEFECE" filter="url(#f6rsg8n5xtk5k)" height="60.8047" id="FreightNetwork" style="stroke:#A80036;stroke-width:1.5;" width="143" x="214" y="280"/><ellipse cx="237.1" cy="296" fill="#ADD1B2" rx="11" ry="11" style="stroke:#A80036;stroke-width:1.0;"/><path d="M239.5688,301.875 Q238.9906,302.1875 238.35,302.3438 Q237.7094,302.5 237.0063,302.5 Q234.5063,302.5 233.1781,300.8281 Q231.8656,299.1563 231.8656,296 Q231.8656,292.8438 233.1781,291.1719 Q234.5063,289.5 237.0063,289.5 Q237.7094,289.5 238.35,289.6563 Q239.0063,289.8125 239.5688,290.125 L239.5688,292.9219 Q238.9438,292.3594 238.35,292.0938 Q237.7563,291.8125 237.1313,291.8125 Q235.7875,291.8125 235.1,292.875 Q234.4125,293.9375 234.4125,296 Q234.4125,298.0781 235.1,299.1406 Q235.7875,300.1875 237.1313,300.1875 Q237.7563,300.1875 238.35,299.9219 Q238.9438,299.6563 239.5688,299.0781 L239.5688,301.875 Z " fill="#000000"/><text fill="#000000" font-family="sans-serif" font-size="12" lengthAdjust="spacing" textLength="93" x="252.9" y="300.1543">FreightNetwork</text><line style="stroke:#A80036;stroke-width:1.5;" x1="215" x2="356" y1="312" y2="312"/><line style="stroke:#A80036;stroke-width:1.5;" x1="215" x2="356" y1="320" y2="320"/><text fill="#000000" font-family="sans-serif" font-size="11" lengthAdjust="spacing" textLength="131" x="220" y="334.2104">+getMostCentralPorts()</text><!--MD5=[4f1f3706c1a355a8488e154afcaed5df]
class Location--><rect codeLine="17" fill="#FEFECE" filter="url(#f6rsg8n5xtk5k)" height="86.4141" id="Location" style="stroke:#A80036;stroke-width:1.5;" width="92" x="306.5" y="418"/><ellipse cx="325.55" cy="434" fill="#A9DCDF" rx="11" ry="11" style="stroke:#A80036;stroke-width:1.0;"/><path d="M325.6594,429.2969 L324.5031,434.625 L326.8313,434.625 L325.6594,429.2969 Z M324.175,426.75 L327.1594,426.75 L330.5188,439.75 L328.0656,439.75 L327.3,436.75 L324.0188,436.75 L323.2688,439.75 L320.8313,439.75 L324.175,426.75 Z " fill="#000000"/><text fill="#000000" font-family="sans-serif" font-size="12" font-style="italic" lengthAdjust="spacing" textLength="51" x="340.45" y="438.1543">Location</text><line style="stroke:#A80036;stroke-width:1.5;" x1="307.5" x2="397.5" y1="450" y2="450"/><text fill="#000000" font-family="sans-serif" font-size="11" lengthAdjust="spacing" textLength="46" x="312.5" y="464.2104">-latitude</text><text fill="#000000" font-family="sans-serif" font-size="11" lengthAdjust="spacing" textLength="56" x="312.5" y="477.0151">-longitude</text><text fill="#000000" font-family="sans-serif" font-size="11" lengthAdjust="spacing" textLength="80" x="312.5" y="489.8198">-countryName</text><line style="stroke:#A80036;stroke-width:1.5;" x1="307.5" x2="397.5" y1="496.4141" y2="496.4141"/><!--MD5=[a0bfe97ac0a38e6e74cc1c7c7b744b71]
class Port--><rect codeLine="23" fill="#FEFECE" filter="url(#f6rsg8n5xtk5k)" height="99.2188" id="Port" style="stroke:#A80036;stroke-width:1.5;" width="104" x="300.5" y="565"/><ellipse cx="337.1" cy="581" fill="#ADD1B2" rx="11" ry="11" style="stroke:#A80036;stroke-width:1.0;"/><path d="M339.5688,586.875 Q338.9906,587.1875 338.35,587.3438 Q337.7094,587.5 337.0063,587.5 Q334.5063,587.5 333.1781,585.8281 Q331.8656,584.1563 331.8656,581 Q331.8656,577.8438 333.1781,576.1719 Q334.5063,574.5 337.0063,574.5 Q337.7094,574.5 338.35,574.6563 Q339.0063,574.8125 339.5688,575.125 L339.5688,577.9219 Q338.9438,577.3594 338.35,577.0938 Q337.7563,576.8125 337.1313,576.8125 Q335.7875,576.8125 335.1,577.875 Q334.4125,578.9375 334.4125,581 Q334.4125,583.0781 335.1,584.1406 Q335.7875,585.1875 337.1313,585.1875 Q337.7563,585.1875 338.35,584.9219 Q338.9438,584.6563 339.5688,584.0781 L339.5688,586.875 Z " fill="#000000"/><text fill="#000000" font-family="sans-serif" font-size="12" lengthAdjust="spacing" textLength="24" x="355.9" y="585.1543">Port</text><line style="stroke:#A80036;stroke-width:1.5;" x1="301.5" x2="403.5" y1="597" y2="597"/><text fill="#000000" font-family="sans-serif" font-size="11" lengthAdjust="spacing" textLength="76" x="306.5" y="611.2104">-identification</text><text fill="#000000" font-family="sans-serif" font-size="11" lengthAdjust="spacing" textLength="36" x="306.5" y="624.0151">-name</text><text fill="#000000" font-family="sans-serif" font-size="11" lengthAdjust="spacing" textLength="56" x="306.5" y="636.8198">-continent</text><text fill="#000000" font-family="sans-serif" font-size="11" lengthAdjust="spacing" textLength="92" x="306.5" y="649.6245">-toPortsDistance</text><line style="stroke:#A80036;stroke-width:1.5;" x1="301.5" x2="403.5" y1="656.2188" y2="656.2188"/><!--MD5=[b7b072196a724e538165319251b4d539]
class MatrixGraph--><rect codeLine="31" fill="#FEFECE" filter="url(#f6rsg8n5xtk5k)" height="48" id="MatrixGraph" style="stroke:#A80036;stroke-width:1.5;" width="106" x="165.5" y="437"/><ellipse cx="180.5" cy="453" fill="#ADD1B2" rx="11" ry="11" style="stroke:#A80036;stroke-width:1.0;"/><path d="M182.9688,458.875 Q182.3906,459.1875 181.75,459.3438 Q181.1094,459.5 180.4063,459.5 Q177.9063,459.5 176.5781,457.8281 Q175.2656,456.1563 175.2656,453 Q175.2656,449.8438 176.5781,448.1719 Q177.9063,446.5 180.4063,446.5 Q181.1094,446.5 181.75,446.6563 Q182.4063,446.8125 182.9688,447.125 L182.9688,449.9219 Q182.3438,449.3594 181.75,449.0938 Q181.1563,448.8125 180.5313,448.8125 Q179.1875,448.8125 178.5,449.875 Q177.8125,450.9375 177.8125,453 Q177.8125,455.0781 178.5,456.1406 Q179.1875,457.1875 180.5313,457.1875 Q181.1563,457.1875 181.75,456.9219 Q182.3438,456.6563 182.9688,456.0781 L182.9688,458.875 Z " fill="#000000"/><text fill="#000000" font-family="sans-serif" font-size="12" lengthAdjust="spacing" textLength="74" x="194.5" y="457.1543">MatrixGraph</text><line style="stroke:#A80036;stroke-width:1.5;" x1="166.5" x2="270.5" y1="469" y2="469"/><line style="stroke:#A80036;stroke-width:1.5;" x1="166.5" x2="270.5" y1="477" y2="477"/><!--MD5=[ef63e85e32976ed6c3ca2a05ce10893d]
class CommonGraph--><rect codeLine="33" fill="#FEFECE" filter="url(#f6rsg8n5xtk5k)" height="48" id="CommonGraph" style="stroke:#A80036;stroke-width:1.5;" width="123" x="7" y="437"/><ellipse cx="22" cy="453" fill="#A9DCDF" rx="11" ry="11" style="stroke:#A80036;stroke-width:1.0;"/><path d="M22.1094,448.2969 L20.9531,453.625 L23.2813,453.625 L22.1094,448.2969 Z M20.625,445.75 L23.6094,445.75 L26.9688,458.75 L24.5156,458.75 L23.75,455.75 L20.4688,455.75 L19.7188,458.75 L17.2813,458.75 L20.625,445.75 Z " fill="#000000"/><text fill="#000000" font-family="sans-serif" font-size="12" font-style="italic" lengthAdjust="spacing" textLength="91" x="36" y="457.1543">CommonGraph</text><line style="stroke:#A80036;stroke-width:1.5;" x1="8" x2="129" y1="469" y2="469"/><line style="stroke:#A80036;stroke-width:1.5;" x1="8" x2="129" y1="477" y2="477"/><!--MD5=[706e73df52f3df32f52be1ce9adb217e]
class Graph--><rect codeLine="35" fill="#FEFECE" filter="url(#f6rsg8n5xtk5k)" height="53.9375" id="Graph" style="stroke:#A80036;stroke-width:1.5;" width="95" x="21" y="587.5"/><ellipse cx="36" cy="606.4688" fill="#B4A7E5" rx="11" ry="11" style="stroke:#A80036;stroke-width:1.0;"/><path d="M32.4219,602.25 L32.4219,599.9688 L39.8125,599.9688 L39.8125,602.25 L37.3438,602.25 L37.3438,610.7031 L39.8125,610.7031 L39.8125,612.9688 L32.4219,612.9688 L32.4219,610.7031 L34.8906,610.7031 L34.8906,602.25 L32.4219,602.25 Z " fill="#000000"/><text fill="#000000" font-family="sans-serif" font-size="12" font-style="italic" lengthAdjust="spacing" textLength="67" x="48" y="603.6387">«interface»</text><text fill="#000000" font-family="sans-serif" font-size="12" font-style="italic" lengthAdjust="spacing" textLength="37" x="63" y="617.6074">Graph</text><line style="stroke:#A80036;stroke-width:1.5;" x1="22" x2="115" y1="625.4375" y2="625.4375"/><line style="stroke:#A80036;stroke-width:1.5;" x1="22" x2="115" y1="633.4375" y2="633.4375"/><!--MD5=[f17e72f7b796e75fb787b6a6e9935f8d]
link CentralPortsController to Company--><path codeLine="37" d="M285.5,68.16 C285.5,84.71 285.5,105.59 285.5,123.72 " fill="none" id="CentralPortsController-to-Company" style="stroke:#A80036;stroke-width:1.0;stroke-dasharray:7.0,7.0;"/><polygon fill="#A80036" points="285.5,128.76,289.5,119.76,285.5,123.76,281.5,119.76,285.5,128.76" style="stroke:#A80036;stroke-width:1.0;"/><!--MD5=[e359b474b5bea3d5e0a05d5f38acf6c5]
link Company to FreightNetwork--><path codeLine="38" d="M285.5,203.33 C285.5,227.08 285.5,257.7 285.5,279.95 " fill="none" id="Company-FreightNetwork" style="stroke:#A80036;stroke-width:1.0;"/><polygon fill="#000000" points="290.5,246.5664,293.4389,237.5213,287.5611,237.5213,290.5,246.5664" style="stroke:#000000;stroke-width:1.0;"/><text fill="#000000" font-family="sans-serif" font-size="13" lengthAdjust="spacing" textLength="42" x="299.5" y="246.0669">knows</text><text fill="#000000" font-family="sans-serif" font-size="13" lengthAdjust="spacing" textLength="8" x="276.8625" y="222.5834">1</text><text fill="#000000" font-family="sans-serif" font-size="13" lengthAdjust="spacing" textLength="8" x="276.625" y="268.7293">1</text><!--MD5=[e37e8e3161027a4df85a8c5d819b551a]
reverse link Location to Port--><path codeLine="39" d="M352.5,524.59 C352.5,538.02 352.5,552.02 352.5,564.84 " fill="none" id="Location-backto-Port" style="stroke:#A80036;stroke-width:1.0;"/><polygon fill="none" points="345.5,524.2,352.5,504.2,359.5,524.2,345.5,524.2" style="stroke:#A80036;stroke-width:1.0;"/><!--MD5=[bd392566c8a46ea25d805713a18e8e2e]
link FreightNetwork to Location--><path codeLine="40" d="M298.9,341.19 C308.83,363.2 322.49,393.49 333.54,417.98 " fill="none" id="FreightNetwork-Location" style="stroke:#A80036;stroke-width:1.0;"/><polygon fill="#000000" points="325.556,384.1241,324.5156,374.6706,319.1577,377.0876,325.556,384.1241" style="stroke:#000000;stroke-width:1.0;"/><text fill="#000000" font-family="sans-serif" font-size="13" lengthAdjust="spacing" textLength="13" x="332.5" y="384.0669">of</text><text fill="#000000" font-family="sans-serif" font-size="13" lengthAdjust="spacing" textLength="7" x="293.8491" y="360.8079">*</text><text fill="#000000" font-family="sans-serif" font-size="13" lengthAdjust="spacing" textLength="23" x="305.6854" y="406.9729">1..*</text><!--MD5=[cb484d98b05c96fc0a7b0f57795eae75]
link FreightNetwork to MatrixGraph--><path codeLine="41" d="M272.1,341.19 C260.17,367.65 242.83,406.08 231.13,432 " fill="none" id="FreightNetwork-to-MatrixGraph" style="stroke:#A80036;stroke-width:1.0;stroke-dasharray:7.0,7.0;"/><polygon fill="#A80036" points="229.02,436.69,236.3687,430.1328,231.0772,432.1328,229.0771,426.8413,229.02,436.69" style="stroke:#A80036;stroke-width:1.0;"/><!--MD5=[e9051ba8ebbd537393a9a6534acec112]
reverse link CommonGraph to MatrixGraph--><path codeLine="42" d="M150.13,461 C155.18,461 160.23,461 165.28,461 " fill="none" id="CommonGraph-backto-MatrixGraph" style="stroke:#A80036;stroke-width:1.0;"/><polygon fill="none" points="150.02,468,130.02,461,150.02,454,150.02,468" style="stroke:#A80036;stroke-width:1.0;"/><!--MD5=[73cb6a84480518af2d88af90c1d954ca]
link CommonGraph to Graph--><path codeLine="43" d="M68.5,485.01 C68.5,510.96 68.5,553.3 68.5,582.23 " fill="none" id="CommonGraph-to-Graph" style="stroke:#A80036;stroke-width:1.0;"/><polygon fill="#A80036" points="68.5,587.47,72.5,578.47,68.5,582.47,64.5,578.47,68.5,587.47" style="stroke:#A80036;stroke-width:1.0;"/><!--MD5=[fd1bcb647f3d1d4a15b0280b58ecccd4]
@startuml

skinparam classAttributeIconSize 0

class CentralPortsController {
    +getMostCentralPorts()
}

class Company {
    -designation
    +getFreightNetwork()
}

class FreightNetwork {
    +getMostCentralPorts()
}

abstract class Location{
    -latitude
    -longitude
    -countryName
}

class Port {
    -identification
    -name
    -continent
    -toPortsDistance
}


class MatrixGraph {}

abstract class CommonGraph {}

interface Graph <<interface>> {}

CentralPortsController ..> Company
Company "1" - - "1" FreightNetwork : knows >
Location <|- - Port
FreightNetwork "*" - - "1..*" Location : of >
FreightNetwork ..> MatrixGraph
CommonGraph <|- MatrixGraph
CommonGraph - -> Graph

@enduml

PlantUML version 1.2021.11(Sat Oct 02 14:26:11 WEST 2021)
(GPL source distribution)
Java Runtime: OpenJDK Runtime Environment
JVM: OpenJDK 64-Bit Server VM
Default Encoding: UTF-8
Language: en
Country: US
--></g></svg>