<?xml version="1.0" encoding="UTF-8" standalone="no"?><svg xmlns="http://www.w3.org/2000/svg" xmlns:xlink="http://www.w3.org/1999/xlink" contentScriptType="application/ecmascript" contentStyleType="text/css" height="619px" preserveAspectRatio="none" style="width:1304px;height:619px;background:#FFFFFF;" version="1.1" viewBox="0 0 1304 619" width="1304px" zoomAndPan="magnify"><defs><filter height="300%" id="f11slq4blpq0vw" width="300%" x="-1" y="-1"><feGaussianBlur result="blurOut" stdDeviation="2.0"/><feColorMatrix in="blurOut" result="blurOut2" type="matrix" values="0 0 0 0 0 0 0 0 0 0 0 0 0 0 0 0 0 0 .4 0"/><feOffset dx="4.0" dy="4.0" in="blurOut2" result="blurOut3"/><feBlend in="SourceGraphic" in2="blurOut3" mode="normal"/></filter></defs><g><rect fill="#FFFFFF" filter="url(#f11slq4blpq0vw)" height="415.8672" style="stroke:#A80036;stroke-width:1.0;" width="10" x="46" y="99.6094"/><rect fill="#FFFFFF" filter="url(#f11slq4blpq0vw)" height="402.5156" style="stroke:#A80036;stroke-width:1.0;" width="10" x="449" y="121.9609"/><rect fill="#FFFFFF" filter="url(#f11slq4blpq0vw)" height="250.7578" style="stroke:#A80036;stroke-width:1.0;" width="10" x="892" y="273.7188"/><rect fill="#FFFFFF" filter="url(#f11slq4blpq0vw)" height="30" style="stroke:#A80036;stroke-width:1.0;" width="10" x="1266" y="304.0703"/><rect fill="#FFFFFF" filter="url(#f11slq4blpq0vw)" height="30" style="stroke:#A80036;stroke-width:1.0;" width="10" x="1266" y="364.4219"/><rect fill="#FFFFFF" filter="url(#f11slq4blpq0vw)" height="30" style="stroke:#A80036;stroke-width:1.0;" width="10" x="1266" y="424.7734"/><line style="stroke:#A80036;stroke-width:1.0;stroke-dasharray:5.0,5.0;" x1="51" x2="51" y1="89.6094" y2="533.4766"/><line style="stroke:#A80036;stroke-width:1.0;stroke-dasharray:5.0,5.0;" x1="454" x2="454" y1="89.6094" y2="533.4766"/><line style="stroke:#A80036;stroke-width:1.0;stroke-dasharray:5.0,5.0;" x1="897" x2="897" y1="89.6094" y2="533.4766"/><line style="stroke:#A80036;stroke-width:1.0;stroke-dasharray:5.0,5.0;" x1="1081" x2="1081" y1="89.6094" y2="533.4766"/><line style="stroke:#A80036;stroke-width:1.0;stroke-dasharray:5.0,5.0;" x1="1170" x2="1170" y1="89.6094" y2="533.4766"/><line style="stroke:#A80036;stroke-width:1.0;stroke-dasharray:5.0,5.0;" x1="1271" x2="1271" y1="89.6094" y2="533.4766"/><text fill="#000000" font-family="sans-serif" font-size="14" lengthAdjust="spacing" textLength="86" x="5" y="86.5332">Port Manager</text><ellipse cx="51" cy="15" fill="#FEFECE" filter="url(#f11slq4blpq0vw)" rx="8" ry="8" style="stroke:#A80036;stroke-width:2.0;"/><path d="M51,23 L51,50 M38,31 L64,31 M51,50 L38,65 M51,50 L64,65 " fill="none" filter="url(#f11slq4blpq0vw)" style="stroke:#A80036;stroke-width:2.0;"/><text fill="#000000" font-family="sans-serif" font-size="14" lengthAdjust="spacing" textLength="86" x="5" y="547.0098">Port Manager</text><ellipse cx="51" cy="560.0859" fill="#FEFECE" filter="url(#f11slq4blpq0vw)" rx="8" ry="8" style="stroke:#A80036;stroke-width:2.0;"/><path d="M51,568.0859 L51,595.0859 M38,576.0859 L64,576.0859 M51,595.0859 L38,610.0859 M51,595.0859 L64,610.0859 " fill="none" filter="url(#f11slq4blpq0vw)" style="stroke:#A80036;stroke-width:2.0;"/><rect fill="#FEFECE" filter="url(#f11slq4blpq0vw)" height="31.6094" style="stroke:#A80036;stroke-width:1.5;" width="216" x="344" y="53"/><text fill="#000000" font-family="sans-serif" font-size="14" lengthAdjust="spacing" textLength="202" x="351" y="74.5332">GetCenterMassOfLoadedShipUI</text><rect fill="#FEFECE" filter="url(#f11slq4blpq0vw)" height="31.6094" style="stroke:#A80036;stroke-width:1.5;" width="216" x="344" y="532.4766"/><text fill="#000000" font-family="sans-serif" font-size="14" lengthAdjust="spacing" textLength="202" x="351" y="554.0098">GetCenterMassOfLoadedShipUI</text><rect fill="#FEFECE" filter="url(#f11slq4blpq0vw)" height="31.6094" style="stroke:#A80036;stroke-width:1.5;" width="266" x="762" y="53"/><text fill="#000000" font-family="sans-serif" font-size="14" lengthAdjust="spacing" textLength="252" x="769" y="74.5332">GetCenterMassOfLoadedShipController</text><rect fill="#FEFECE" filter="url(#f11slq4blpq0vw)" height="31.6094" style="stroke:#A80036;stroke-width:1.5;" width="266" x="762" y="532.4766"/><text fill="#000000" font-family="sans-serif" font-size="14" lengthAdjust="spacing" textLength="252" x="769" y="554.0098">GetCenterMassOfLoadedShipController</text><rect fill="#FEFECE" filter="url(#f11slq4blpq0vw)" height="31.6094" style="stroke:#A80036;stroke-width:1.5;" width="74" x="1042" y="53"/><text fill="#000000" font-family="sans-serif" font-size="14" lengthAdjust="spacing" textLength="60" x="1049" y="74.5332">Company</text><rect fill="#FEFECE" filter="url(#f11slq4blpq0vw)" height="31.6094" style="stroke:#A80036;stroke-width:1.5;" width="74" x="1042" y="532.4766"/><text fill="#000000" font-family="sans-serif" font-size="14" lengthAdjust="spacing" textLength="60" x="1049" y="554.0098">Company</text><rect fill="#FEFECE" filter="url(#f11slq4blpq0vw)" height="31.6094" style="stroke:#A80036;stroke-width:1.5;" width="76" x="1130" y="53"/><text fill="#000000" font-family="sans-serif" font-size="14" lengthAdjust="spacing" textLength="62" x="1137" y="74.5332">ShipStore</text><rect fill="#FEFECE" filter="url(#f11slq4blpq0vw)" height="31.6094" style="stroke:#A80036;stroke-width:1.5;" width="76" x="1130" y="532.4766"/><text fill="#000000" font-family="sans-serif" font-size="14" lengthAdjust="spacing" textLength="62" x="1137" y="554.0098">ShipStore</text><rect fill="#FEFECE" filter="url(#f11slq4blpq0vw)" height="31.6094" style="stroke:#A80036;stroke-width:1.5;" width="42" x="1248" y="53"/><text fill="#000000" font-family="sans-serif" font-size="14" lengthAdjust="spacing" textLength="28" x="1255" y="74.5332">Ship</text><rect fill="#FEFECE" filter="url(#f11slq4blpq0vw)" height="31.6094" style="stroke:#A80036;stroke-width:1.5;" width="42" x="1248" y="532.4766"/><text fill="#000000" font-family="sans-serif" font-size="14" lengthAdjust="spacing" textLength="28" x="1255" y="554.0098">Ship</text><rect fill="#FFFFFF" filter="url(#f11slq4blpq0vw)" height="415.8672" style="stroke:#A80036;stroke-width:1.0;" width="10" x="46" y="99.6094"/><rect fill="#FFFFFF" filter="url(#f11slq4blpq0vw)" height="402.5156" style="stroke:#A80036;stroke-width:1.0;" width="10" x="449" y="121.9609"/><rect fill="#FFFFFF" filter="url(#f11slq4blpq0vw)" height="250.7578" style="stroke:#A80036;stroke-width:1.0;" width="10" x="892" y="273.7188"/><rect fill="#FFFFFF" filter="url(#f11slq4blpq0vw)" height="30" style="stroke:#A80036;stroke-width:1.0;" width="10" x="1266" y="304.0703"/><rect fill="#FFFFFF" filter="url(#f11slq4blpq0vw)" height="30" style="stroke:#A80036;stroke-width:1.0;" width="10" x="1266" y="364.4219"/><rect fill="#FFFFFF" filter="url(#f11slq4blpq0vw)" height="30" style="stroke:#A80036;stroke-width:1.0;" width="10" x="1266" y="424.7734"/><polygon fill="#A80036" points="437,117.9609,447,121.9609,437,125.9609,441,121.9609" style="stroke:#A80036;stroke-width:1.0;"/><line style="stroke:#A80036;stroke-width:1.0;" x1="56" x2="443" y1="121.9609" y2="121.9609"/><text fill="#000000" font-family="sans-serif" font-size="13" font-weight="bold" lengthAdjust="spacing" textLength="7" x="63" y="117.1045">1</text><text fill="#000000" font-family="sans-serif" font-size="13" lengthAdjust="spacing" textLength="363" x="74" y="117.1045">asks to get the center of mass of a ship loaded with containers</text><polygon fill="#A80036" points="67,148.3125,57,152.3125,67,156.3125,63,152.3125" style="stroke:#A80036;stroke-width:1.0;"/><line style="stroke:#A80036;stroke-width:1.0;stroke-dasharray:2.0,2.0;" x1="61" x2="448" y1="152.3125" y2="152.3125"/><text fill="#000000" font-family="sans-serif" font-size="13" font-weight="bold" lengthAdjust="spacing" textLength="7" x="73" y="147.4561">2</text><text fill="#000000" font-family="sans-serif" font-size="13" lengthAdjust="spacing" textLength="107" x="84" y="147.4561">requests ship data</text><polygon fill="#A80036" points="437,178.6641,447,182.6641,437,186.6641,441,182.6641" style="stroke:#A80036;stroke-width:1.0;"/><line style="stroke:#A80036;stroke-width:1.0;" x1="56" x2="443" y1="182.6641" y2="182.6641"/><text fill="#000000" font-family="sans-serif" font-size="13" font-weight="bold" lengthAdjust="spacing" textLength="7" x="63" y="177.8076">3</text><text fill="#000000" font-family="sans-serif" font-size="13" lengthAdjust="spacing" textLength="89" x="74" y="177.8076">types ship data</text><polygon fill="#A80036" points="67,209.0156,57,213.0156,67,217.0156,63,213.0156" style="stroke:#A80036;stroke-width:1.0;"/><line style="stroke:#A80036;stroke-width:1.0;stroke-dasharray:2.0,2.0;" x1="61" x2="448" y1="213.0156" y2="213.0156"/><text fill="#000000" font-family="sans-serif" font-size="13" font-weight="bold" lengthAdjust="spacing" textLength="7" x="73" y="208.1592">4</text><text fill="#000000" font-family="sans-serif" font-size="13" lengthAdjust="spacing" textLength="322" x="84" y="208.1592">requests data about the block of containers to be added</text><polygon fill="#A80036" points="437,239.3672,447,243.3672,437,247.3672,441,243.3672" style="stroke:#A80036;stroke-width:1.0;"/><line style="stroke:#A80036;stroke-width:1.0;" x1="56" x2="443" y1="243.3672" y2="243.3672"/><text fill="#000000" font-family="sans-serif" font-size="13" font-weight="bold" lengthAdjust="spacing" textLength="7" x="63" y="238.5107">5</text><text fill="#000000" font-family="sans-serif" font-size="13" lengthAdjust="spacing" textLength="174" x="74" y="238.5107">types block of containers data</text><polygon fill="#A80036" points="880,269.7188,890,273.7188,880,277.7188,884,273.7188" style="stroke:#A80036;stroke-width:1.0;"/><line style="stroke:#A80036;stroke-width:1.0;" x1="459" x2="886" y1="273.7188" y2="273.7188"/><text fill="#000000" font-family="sans-serif" font-size="13" font-weight="bold" lengthAdjust="spacing" textLength="7" x="466" y="268.8623">6</text><text fill="#000000" font-family="sans-serif" font-size="13" lengthAdjust="spacing" textLength="403" x="477" y="268.8623">getCenterOfMassLoadedShip(ship, nContainers, blockOne, blockTwo)</text><polygon fill="#A80036" points="1254,300.0703,1264,304.0703,1254,308.0703,1258,304.0703" style="stroke:#A80036;stroke-width:1.0;"/><line style="stroke:#A80036;stroke-width:1.0;" x1="902" x2="1260" y1="304.0703" y2="304.0703"/><text fill="#000000" font-family="sans-serif" font-size="13" font-weight="bold" lengthAdjust="spacing" textLength="7" x="909" y="299.2139">7</text><text fill="#000000" font-family="sans-serif" font-size="13" lengthAdjust="spacing" textLength="334" x="920" y="299.2139">addNewBlockOfContainersToShip(blockOne, nContainers)</text><polygon fill="#A80036" points="1254,360.4219,1264,364.4219,1254,368.4219,1258,364.4219" style="stroke:#A80036;stroke-width:1.0;"/><line style="stroke:#A80036;stroke-width:1.0;" x1="902" x2="1260" y1="364.4219" y2="364.4219"/><text fill="#000000" font-family="sans-serif" font-size="13" font-weight="bold" lengthAdjust="spacing" textLength="7" x="909" y="359.5654">8</text><text fill="#000000" font-family="sans-serif" font-size="13" lengthAdjust="spacing" textLength="333" x="920" y="359.5654">addNewBlockOfContainersToShip(blockTwo, nContainers)</text><polygon fill="#A80036" points="1254,420.7734,1264,424.7734,1254,428.7734,1258,424.7734" style="stroke:#A80036;stroke-width:1.0;"/><line style="stroke:#A80036;stroke-width:1.0;" x1="902" x2="1260" y1="424.7734" y2="424.7734"/><text fill="#000000" font-family="sans-serif" font-size="13" font-weight="bold" lengthAdjust="spacing" textLength="7" x="909" y="419.917">9</text><text fill="#000000" font-family="sans-serif" font-size="13" lengthAdjust="spacing" textLength="232" x="920" y="419.917">loadCenterOfMass = getCenterOfMass()</text><polygon fill="#A80036" points="470,481.125,460,485.125,470,489.125,466,485.125" style="stroke:#A80036;stroke-width:1.0;"/><line style="stroke:#A80036;stroke-width:1.0;stroke-dasharray:2.0,2.0;" x1="464" x2="891" y1="485.125" y2="485.125"/><text fill="#000000" font-family="sans-serif" font-size="13" font-weight="bold" lengthAdjust="spacing" textLength="14" x="476" y="480.2686">10</text><text fill="#000000" font-family="sans-serif" font-size="13" lengthAdjust="spacing" textLength="107" x="494" y="480.2686">loadCenterOfMass</text><polygon fill="#A80036" points="62,511.4766,52,515.4766,62,519.4766,58,515.4766" style="stroke:#A80036;stroke-width:1.0;"/><line style="stroke:#A80036;stroke-width:1.0;stroke-dasharray:2.0,2.0;" x1="56" x2="448" y1="515.4766" y2="515.4766"/><text fill="#000000" font-family="sans-serif" font-size="13" font-weight="bold" lengthAdjust="spacing" textLength="14" x="68" y="510.6201">11</text><text fill="#000000" font-family="sans-serif" font-size="13" lengthAdjust="spacing" textLength="106" x="86" y="510.6201">operation success</text><!--MD5=[4706e45a572b7bef9288eba8f078d1fc]
@startuml
autonumber
actor "Port Manager" as PM
participant GetCenterMassOfLoadedShipUI as UI
participant GetCenterMassOfLoadedShipController as CTRL
participant "Company" as COMP
participant "ShipStore" as STORE
participant "Ship" as SHIP


activate PM
PM -> UI : asks to get the center of mass of a ship loaded with containers

activate UI
UI - -> PM : requests ship data


PM -> UI : types ship data


UI - -> PM : requests data about the block of containers to be added


PM -> UI : types block of containers data

UI -> CTRL : getCenterOfMassLoadedShip(ship, nContainers, blockOne, blockTwo)
activate CTRL



CTRL -> SHIP : addNewBlockOfContainersToShip(blockOne, nContainers)
activate SHIP
deactivate SHIP

CTRL -> SHIP : addNewBlockOfContainersToShip(blockTwo, nContainers)
activate SHIP
deactivate SHIP

CTRL -> SHIP : loadCenterOfMass = getCenterOfMass()
activate SHIP
deactivate SHIP

CTRL - -> UI : loadCenterOfMass

UI - -> PM : operation success

deactivate PM
@enduml

PlantUML version 1.2021.11(Sat Oct 02 14:26:11 BST 2021)
(GPL source distribution)
Java Runtime: OpenJDK Runtime Environment
JVM: OpenJDK 64-Bit Server VM
Default Encoding: Cp1252
Language: pt
Country: PT
--></g></svg>