<?xml version="1.0" encoding="UTF-8" standalone="no"?><svg xmlns="http://www.w3.org/2000/svg" xmlns:xlink="http://www.w3.org/1999/xlink" contentScriptType="application/ecmascript" contentStyleType="text/css" height="540px" preserveAspectRatio="none" style="width:366px;height:540px;background:#FFFFFF;" version="1.1" viewBox="0 0 366 540" width="366px" zoomAndPan="magnify"><defs><filter height="300%" id="f20rw4frx3ooq" width="300%" x="-1" y="-1"><feGaussianBlur result="blurOut" stdDeviation="2.0"/><feColorMatrix in="blurOut" result="blurOut2" type="matrix" values="0 0 0 0 0 0 0 0 0 0 0 0 0 0 0 0 0 0 .4 0"/><feOffset dx="4.0" dy="4.0" in="blurOut2" result="blurOut3"/><feBlend in="SourceGraphic" in2="blurOut3" mode="normal"/></filter></defs><g><!--MD5=[b197415e3d71f730e17342fafd126671]
class GetUnladenCenterMassController--><rect codeLine="3" fill="#FEFECE" filter="url(#f20rw4frx3ooq)" height="61.8359" id="GetUnladenCenterMassController" style="stroke:#A80036;stroke-width:1.5;" width="219" x="133.5" y="7"/><ellipse cx="148.5" cy="23" fill="#ADD1B2" rx="11" ry="11" style="stroke:#A80036;stroke-width:1.0;"/><path d="M150.5,19.5 Q150.7031,19 150.9375,18.75 Q151.1719,18.5 151.4375,18.5 Q151.9063,18.5 152.2031,18.7813 Q152.5,19.0625 152.5,19.7188 L152.5,21.2813 Q152.5,21.9375 152.2188,22.2188 Q151.9375,22.5 151.5,22.5 Q151.1094,22.5 150.8594,22.3281 Q150.6094,22.1563 150.5,21.7031 Q150.4531,21.3906 150.2813,21.2188 Q149.9688,20.8906 149.4063,20.7031 Q148.8438,20.5 148.2813,20.5 Q147.5781,20.5 146.9844,20.7813 Q146.4063,21.0625 145.9531,21.6875 Q145.5,22.3125 145.5,23.1719 L145.5,24.0938 Q145.5,25.125 146.3438,25.8125 Q147.1875,26.5 148.6875,26.5 Q149.5781,26.5 150.2031,26.2969 Q150.5625,26.1875 150.9688,25.8281 Q151.2344,25.625 151.375,25.5625 Q151.5156,25.5 151.6875,25.5 Q152.0156,25.5 152.25,25.7656 Q152.5,26.0156 152.5,26.375 Q152.5,26.7188 152.1563,27.125 Q151.6563,27.7188 150.8594,28.0469 Q149.8125,28.5 148.5313,28.5 Q147.0313,28.5 145.8281,27.9063 Q144.8594,27.4375 144.1719,26.4219 Q143.5,25.4063 143.5,24.2031 L143.5,23.1094 Q143.5,21.8594 144.0938,20.7656 Q144.7031,19.6719 145.75,19.0938 Q146.8125,18.5 148,18.5 Q148.7188,18.5 149.3438,18.75 Q149.9688,19 150.5,19.5 Z " fill="#000000"/><text fill="#000000" font-family="sans-serif" font-size="12" lengthAdjust="spacing" textLength="187" x="162.5" y="27.9102">GetUnladenCenterMassController</text><line style="stroke:#A80036;stroke-width:1.5;" x1="134.5" x2="351.5" y1="39" y2="39"/><line style="stroke:#A80036;stroke-width:1.5;" x1="134.5" x2="351.5" y1="47" y2="47"/><text fill="#000000" font-family="sans-serif" font-size="11" lengthAdjust="spacing" textLength="199" x="139.5" y="62.4189">+getUnLadenCenterOfMassOfShip(mmsi)</text><!--MD5=[02e4b9b7573f1156f41e60aa5b4e25a4]
class Company--><rect codeLine="7" fill="#FEFECE" filter="url(#f20rw4frx3ooq)" height="48" id="Company" style="stroke:#A80036;stroke-width:1.5;" width="85" x="104.5" y="130"/><ellipse cx="119.5" cy="146" fill="#ADD1B2" rx="11" ry="11" style="stroke:#A80036;stroke-width:1.0;"/><path d="M121.5,142.5 Q121.7031,142 121.9375,141.75 Q122.1719,141.5 122.4375,141.5 Q122.9063,141.5 123.2031,141.7813 Q123.5,142.0625 123.5,142.7188 L123.5,144.2813 Q123.5,144.9375 123.2188,145.2188 Q122.9375,145.5 122.5,145.5 Q122.1094,145.5 121.8594,145.3281 Q121.6094,145.1563 121.5,144.7031 Q121.4531,144.3906 121.2813,144.2188 Q120.9688,143.8906 120.4063,143.7031 Q119.8438,143.5 119.2813,143.5 Q118.5781,143.5 117.9844,143.7813 Q117.4063,144.0625 116.9531,144.6875 Q116.5,145.3125 116.5,146.1719 L116.5,147.0938 Q116.5,148.125 117.3438,148.8125 Q118.1875,149.5 119.6875,149.5 Q120.5781,149.5 121.2031,149.2969 Q121.5625,149.1875 121.9688,148.8281 Q122.2344,148.625 122.375,148.5625 Q122.5156,148.5 122.6875,148.5 Q123.0156,148.5 123.25,148.7656 Q123.5,149.0156 123.5,149.375 Q123.5,149.7188 123.1563,150.125 Q122.6563,150.7188 121.8594,151.0469 Q120.8125,151.5 119.5313,151.5 Q118.0313,151.5 116.8281,150.9063 Q115.8594,150.4375 115.1719,149.4219 Q114.5,148.4063 114.5,147.2031 L114.5,146.1094 Q114.5,144.8594 115.0938,143.7656 Q115.7031,142.6719 116.75,142.0938 Q117.8125,141.5 119,141.5 Q119.7188,141.5 120.3438,141.75 Q120.9688,142 121.5,142.5 Z " fill="#000000"/><text fill="#000000" font-family="sans-serif" font-size="12" lengthAdjust="spacing" textLength="53" x="133.5" y="150.9102">Company</text><line style="stroke:#A80036;stroke-width:1.5;" x1="105.5" x2="188.5" y1="162" y2="162"/><line style="stroke:#A80036;stroke-width:1.5;" x1="105.5" x2="188.5" y1="170" y2="170"/><!--MD5=[0dc7f2ddb409b58bcf52b12238c25399]
class Ship--><rect codeLine="10" fill="#FEFECE" filter="url(#f20rw4frx3ooq)" height="117.1797" id="Ship" style="stroke:#A80036;stroke-width:1.5;" width="280" x="7" y="256"/><ellipse cx="130.25" cy="272" fill="#ADD1B2" rx="11" ry="11" style="stroke:#A80036;stroke-width:1.0;"/><path d="M132.25,268.5 Q132.4531,268 132.6875,267.75 Q132.9219,267.5 133.1875,267.5 Q133.6563,267.5 133.9531,267.7813 Q134.25,268.0625 134.25,268.7188 L134.25,270.2813 Q134.25,270.9375 133.9688,271.2188 Q133.6875,271.5 133.25,271.5 Q132.8594,271.5 132.6094,271.3281 Q132.3594,271.1563 132.25,270.7031 Q132.2031,270.3906 132.0313,270.2188 Q131.7188,269.8906 131.1563,269.7031 Q130.5938,269.5 130.0313,269.5 Q129.3281,269.5 128.7344,269.7813 Q128.1563,270.0625 127.7031,270.6875 Q127.25,271.3125 127.25,272.1719 L127.25,273.0938 Q127.25,274.125 128.0938,274.8125 Q128.9375,275.5 130.4375,275.5 Q131.3281,275.5 131.9531,275.2969 Q132.3125,275.1875 132.7188,274.8281 Q132.9844,274.625 133.125,274.5625 Q133.2656,274.5 133.4375,274.5 Q133.7656,274.5 134,274.7656 Q134.25,275.0156 134.25,275.375 Q134.25,275.7188 133.9063,276.125 Q133.4063,276.7188 132.6094,277.0469 Q131.5625,277.5 130.2813,277.5 Q128.7813,277.5 127.5781,276.9063 Q126.6094,276.4375 125.9219,275.4219 Q125.25,274.4063 125.25,273.2031 L125.25,272.1094 Q125.25,270.8594 125.8438,269.7656 Q126.4531,268.6719 127.5,268.0938 Q128.5625,267.5 129.75,267.5 Q130.4688,267.5 131.0938,267.75 Q131.7188,268 132.25,268.5 Z " fill="#000000"/><text fill="#000000" font-family="sans-serif" font-size="12" lengthAdjust="spacing" textLength="25" x="150.75" y="276.9102">Ship</text><line style="stroke:#A80036;stroke-width:1.5;" x1="8" x2="286" y1="288" y2="288"/><line style="stroke:#A80036;stroke-width:1.5;" x1="8" x2="286" y1="296" y2="296"/><text fill="#000000" font-family="sans-serif" font-size="11" lengthAdjust="spacing" textLength="268" x="13" y="311.4189">+addNewBlockOfContainersToShip(mass, nContainers)</text><text fill="#000000" font-family="sans-serif" font-size="11" lengthAdjust="spacing" textLength="76" x="13" y="325.2549">+getTotalArea()</text><text fill="#000000" font-family="sans-serif" font-size="11" lengthAdjust="spacing" textLength="106" x="13" y="339.0908">+getCenterOfMassX()</text><text fill="#000000" font-family="sans-serif" font-size="11" lengthAdjust="spacing" textLength="107" x="13" y="352.9268">+getCenterOfMassY()</text><text fill="#000000" font-family="sans-serif" font-size="11" lengthAdjust="spacing" textLength="99" x="13" y="366.7627">+getCenterOfMass()</text><!--MD5=[ef7c79de33a8df0acce34aecd8d239d2]
class Mass--><rect codeLine="18" fill="#FEFECE" filter="url(#f20rw4frx3ooq)" height="75.6719" id="Mass" style="stroke:#A80036;stroke-width:1.5;" width="62" x="212" y="451"/><ellipse cx="227" cy="467" fill="#ADD1B2" rx="11" ry="11" style="stroke:#A80036;stroke-width:1.0;"/><path d="M229,463.5 Q229.2031,463 229.4375,462.75 Q229.6719,462.5 229.9375,462.5 Q230.4063,462.5 230.7031,462.7813 Q231,463.0625 231,463.7188 L231,465.2813 Q231,465.9375 230.7188,466.2188 Q230.4375,466.5 230,466.5 Q229.6094,466.5 229.3594,466.3281 Q229.1094,466.1563 229,465.7031 Q228.9531,465.3906 228.7813,465.2188 Q228.4688,464.8906 227.9063,464.7031 Q227.3438,464.5 226.7813,464.5 Q226.0781,464.5 225.4844,464.7813 Q224.9063,465.0625 224.4531,465.6875 Q224,466.3125 224,467.1719 L224,468.0938 Q224,469.125 224.8438,469.8125 Q225.6875,470.5 227.1875,470.5 Q228.0781,470.5 228.7031,470.2969 Q229.0625,470.1875 229.4688,469.8281 Q229.7344,469.625 229.875,469.5625 Q230.0156,469.5 230.1875,469.5 Q230.5156,469.5 230.75,469.7656 Q231,470.0156 231,470.375 Q231,470.7188 230.6563,471.125 Q230.1563,471.7188 229.3594,472.0469 Q228.3125,472.5 227.0313,472.5 Q225.5313,472.5 224.3281,471.9063 Q223.3594,471.4375 222.6719,470.4219 Q222,469.4063 222,468.2031 L222,467.1094 Q222,465.8594 222.5938,464.7656 Q223.2031,463.6719 224.25,463.0938 Q225.3125,462.5 226.5,462.5 Q227.2188,462.5 227.8438,462.75 Q228.4688,463 229,463.5 Z " fill="#000000"/><text fill="#000000" font-family="sans-serif" font-size="12" lengthAdjust="spacing" textLength="30" x="241" y="471.9102">Mass</text><line style="stroke:#A80036;stroke-width:1.5;" x1="213" x2="273" y1="483" y2="483"/><line style="stroke:#A80036;stroke-width:1.5;" x1="213" x2="273" y1="491" y2="491"/><text fill="#000000" font-family="sans-serif" font-size="11" lengthAdjust="spacing" textLength="36" x="218" y="506.4189">+getX()</text><text fill="#000000" font-family="sans-serif" font-size="11" lengthAdjust="spacing" textLength="37" x="218" y="520.2549">+getY()</text><!--MD5=[3863c0a2566b19f1bf76343256bda8d0]
link GetUnladenCenterMassController to Company--><path codeLine="23" d="M217.53,69.25 C202.78,86.76 184.36,108.63 170.05,125.63 " fill="none" id="GetUnladenCenterMassController-to-Company" style="stroke:#A80036;stroke-width:1.0;stroke-dasharray:7.0,7.0;"/><polygon fill="#A80036" points="166.5,129.84,175.3598,125.5384,169.7233,126.0177,169.2441,120.3811,166.5,129.84" style="stroke:#A80036;stroke-width:1.0;"/><!--MD5=[b2969b1538dbc9c90cfa8046d672602d]
link GetUnladenCenterMassController to Ship--><path codeLine="24" d="M239.11,69.04 C233.54,106.74 221.54,172.9 200,226 C196.62,234.33 192.51,242.79 188.08,251 " fill="none" id="GetUnladenCenterMassController-to-Ship" style="stroke:#A80036;stroke-width:1.0;stroke-dasharray:7.0,7.0;"/><polygon fill="#A80036" points="185.59,255.53,193.4194,249.5551,187.9903,251.1438,186.4015,245.7146,185.59,255.53" style="stroke:#A80036;stroke-width:1.0;"/><!--MD5=[844480033f3782436f9e2c64ff4bcdc6]
link GetUnladenCenterMassController to Mass--><path codeLine="25" d="M257.28,69.22 C283.21,128.15 332.93,262.35 305,373 C298.44,398.97 284.74,425.46 271.88,446.45 " fill="none" id="GetUnladenCenterMassController-to-Mass" style="stroke:#A80036;stroke-width:1.0;stroke-dasharray:7.0,7.0;"/><polygon fill="#A80036" points="269.15,450.85,277.2902,445.3059,271.7833,446.5996,270.4895,441.0927,269.15,450.85" style="stroke:#A80036;stroke-width:1.0;"/><!--MD5=[37a14a5de6d6fd738aee271300f4b5c8]
link Company to Ship--><path codeLine="26" d="M147,178.05 C147,198.4 147,228.93 147,255.86 " fill="none" id="Company-Ship" style="stroke:#A80036;stroke-width:1.0;"/><polygon fill="#000000" points="152,222.1758,154.9389,213.1307,149.0611,213.1307,152,222.1758" style="stroke:#000000;stroke-width:1.0;"/><text fill="#000000" font-family="sans-serif" font-size="13" lengthAdjust="spacing" textLength="30" x="161" y="222.4951">owns</text><text fill="#000000" font-family="sans-serif" font-size="13" lengthAdjust="spacing" textLength="7" x="139.1469" y="199.4002">1</text><text fill="#000000" font-family="sans-serif" font-size="13" lengthAdjust="spacing" textLength="20" x="125.7813" y="245.2438">1..*</text><!--MD5=[30426b127282942d2eb39f81d28d7a9c]
link Ship to Mass--><path codeLine="27" d="M179.23,373.42 C193.45,398.97 209.74,428.24 222.3,450.81 " fill="none" id="Ship-Mass" style="stroke:#A80036;stroke-width:1.0;"/><polygon fill="#000000" points="211.4315,416.5448,209.6009,407.212,204.4649,410.0704,211.4315,416.5448" style="stroke:#000000;stroke-width:1.0;"/><text fill="#000000" font-family="sans-serif" font-size="13" lengthAdjust="spacing" textLength="21" x="218" y="417.4951">has</text><text fill="#000000" font-family="sans-serif" font-size="13" lengthAdjust="spacing" textLength="7" x="175.5519" y="394.6627">1</text><text fill="#000000" font-family="sans-serif" font-size="13" lengthAdjust="spacing" textLength="20" x="196.8316" y="440.1381">1..*</text><!--MD5=[c18b953e4621b14ad4fd5b991eafb40c]
@startuml
skinparam classAttributeIconSize 0

class GetUnladenCenterMassController{
    +getUnLadenCenterOfMassOfShip(mmsi)
}

class Company {}


class Ship {
    +addNewBlockOfContainersToShip(mass, nContainers)
    +getTotalArea()
    +getCenterOfMassX()
    +getCenterOfMassY()
    +getCenterOfMass()
}

class Mass {
    +getX()
    +getY()
}

GetUnladenCenterMassController ..> Company
GetUnladenCenterMassController ..> Ship
GetUnladenCenterMassController ..> Mass
Company "1" - - "1..*" Ship : owns >
Ship "1" - - "1..*" Mass : has >
@enduml

PlantUML version 1.2021.11(Sat Oct 02 14:26:11 BST 2021)
(GPL source distribution)
Java Runtime: OpenJDK Runtime Environment
JVM: OpenJDK 64-Bit Server VM
Default Encoding: Cp1252
Language: pt
Country: PT
--></g></svg>