<?xml version="1.0" encoding="UTF-8" standalone="no"?><svg xmlns="http://www.w3.org/2000/svg" xmlns:xlink="http://www.w3.org/1999/xlink" contentScriptType="application/ecmascript" contentStyleType="text/css" height="373px" preserveAspectRatio="none" style="width:308px;height:373px;background:#FFFFFF;" version="1.1" viewBox="0 0 308 373" width="308px" zoomAndPan="magnify"><defs><filter height="300%" id="f17fjsu64ogtk8" width="300%" x="-1" y="-1"><feGaussianBlur result="blurOut" stdDeviation="2.0"/><feColorMatrix in="blurOut" result="blurOut2" type="matrix" values="0 0 0 0 0 0 0 0 0 0 0 0 0 0 0 0 0 0 .4 0"/><feOffset dx="4.0" dy="4.0" in="blurOut2" result="blurOut3"/><feBlend in="SourceGraphic" in2="blurOut3" mode="normal"/></filter></defs><g><!--MD5=[4f2d1c70f729d21f983b76c1e1a70960]
class GetContainersOffLoadedController--><rect codeLine="4" fill="#FEFECE" filter="url(#f17fjsu64ogtk8)" height="61.8359" id="GetContainersOffLoadedController" style="stroke:#A80036;stroke-width:1.5;" width="270" x="24.5" y="7"/><ellipse cx="60.65" cy="23" fill="#ADD1B2" rx="11" ry="11" style="stroke:#A80036;stroke-width:1.0;"/><path d="M62.65,19.5 Q62.8531,19 63.0875,18.75 Q63.3219,18.5 63.5875,18.5 Q64.0563,18.5 64.3531,18.7813 Q64.65,19.0625 64.65,19.7188 L64.65,21.2813 Q64.65,21.9375 64.3688,22.2188 Q64.0875,22.5 63.65,22.5 Q63.2594,22.5 63.0094,22.3281 Q62.7594,22.1563 62.65,21.7031 Q62.6031,21.3906 62.4313,21.2188 Q62.1188,20.8906 61.5563,20.7031 Q60.9938,20.5 60.4313,20.5 Q59.7281,20.5 59.1344,20.7813 Q58.5563,21.0625 58.1031,21.6875 Q57.65,22.3125 57.65,23.1719 L57.65,24.0938 Q57.65,25.125 58.4938,25.8125 Q59.3375,26.5 60.8375,26.5 Q61.7281,26.5 62.3531,26.2969 Q62.7125,26.1875 63.1188,25.8281 Q63.3844,25.625 63.525,25.5625 Q63.6656,25.5 63.8375,25.5 Q64.1656,25.5 64.4,25.7656 Q64.65,26.0156 64.65,26.375 Q64.65,26.7188 64.3063,27.125 Q63.8063,27.7188 63.0094,28.0469 Q61.9625,28.5 60.6813,28.5 Q59.1813,28.5 57.9781,27.9063 Q57.0094,27.4375 56.3219,26.4219 Q55.65,25.4063 55.65,24.2031 L55.65,23.1094 Q55.65,21.8594 56.2438,20.7656 Q56.8531,19.6719 57.9,19.0938 Q58.9625,18.5 60.15,18.5 Q60.8688,18.5 61.4938,18.75 Q62.1188,19 62.65,19.5 Z " fill="#000000"/><text fill="#000000" font-family="sans-serif" font-size="12" lengthAdjust="spacing" textLength="191" x="79.35" y="27.9102">GetContainersOffLoadedController</text><line style="stroke:#A80036;stroke-width:1.5;" x1="25.5" x2="293.5" y1="39" y2="39"/><line style="stroke:#A80036;stroke-width:1.5;" x1="25.5" x2="293.5" y1="47" y2="47"/><text fill="#000000" font-family="sans-serif" font-size="11" lengthAdjust="spacing" textLength="258" x="30.5" y="62.4189">+getListOffloadedContainers(containerID, shipmentID)</text><!--MD5=[8d7ca94d2ddad896fa1b7a151fdd57c4]
class ShipTripStoreDB--><rect codeLine="8" fill="#FEFECE" filter="url(#f17fjsu64ogtk8)" height="75.6719" id="ShipTripStoreDB" style="stroke:#A80036;stroke-width:1.5;" width="287" x="7" y="284"/><ellipse cx="100.25" cy="300" fill="#ADD1B2" rx="11" ry="11" style="stroke:#A80036;stroke-width:1.0;"/><path d="M102.25,296.5 Q102.4531,296 102.6875,295.75 Q102.9219,295.5 103.1875,295.5 Q103.6563,295.5 103.9531,295.7813 Q104.25,296.0625 104.25,296.7188 L104.25,298.2813 Q104.25,298.9375 103.9688,299.2188 Q103.6875,299.5 103.25,299.5 Q102.8594,299.5 102.6094,299.3281 Q102.3594,299.1563 102.25,298.7031 Q102.2031,298.3906 102.0313,298.2188 Q101.7188,297.8906 101.1563,297.7031 Q100.5938,297.5 100.0313,297.5 Q99.3281,297.5 98.7344,297.7813 Q98.1563,298.0625 97.7031,298.6875 Q97.25,299.3125 97.25,300.1719 L97.25,301.0938 Q97.25,302.125 98.0938,302.8125 Q98.9375,303.5 100.4375,303.5 Q101.3281,303.5 101.9531,303.2969 Q102.3125,303.1875 102.7188,302.8281 Q102.9844,302.625 103.125,302.5625 Q103.2656,302.5 103.4375,302.5 Q103.7656,302.5 104,302.7656 Q104.25,303.0156 104.25,303.375 Q104.25,303.7188 103.9063,304.125 Q103.4063,304.7188 102.6094,305.0469 Q101.5625,305.5 100.2813,305.5 Q98.7813,305.5 97.5781,304.9063 Q96.6094,304.4375 95.9219,303.4219 Q95.25,302.4063 95.25,301.2031 L95.25,300.1094 Q95.25,298.8594 95.8438,297.7656 Q96.4531,296.6719 97.5,296.0938 Q98.5625,295.5 99.75,295.5 Q100.4688,295.5 101.0938,295.75 Q101.7188,296 102.25,296.5 Z " fill="#000000"/><text fill="#000000" font-family="sans-serif" font-size="12" lengthAdjust="spacing" textLength="92" x="120.75" y="304.9102">ShipTripStoreDB</text><line style="stroke:#A80036;stroke-width:1.5;" x1="8" x2="293" y1="316" y2="316"/><line style="stroke:#A80036;stroke-width:1.5;" x1="8" x2="293" y1="324" y2="324"/><text fill="#000000" font-family="sans-serif" font-size="11" lengthAdjust="spacing" textLength="208" x="13" y="339.4189">+getNextPortID(databaseConnection, mmsi)</text><text fill="#000000" font-family="sans-serif" font-size="11" lengthAdjust="spacing" textLength="275" x="13" y="353.2549">+getListOffloadedContainers(databaseConnection, mmsi)</text><!--MD5=[02e4b9b7573f1156f41e60aa5b4e25a4]
class Company--><rect codeLine="13" fill="#FEFECE" filter="url(#f17fjsu64ogtk8)" height="75.6719" id="Company" style="stroke:#A80036;stroke-width:1.5;" width="120" x="174.5" y="130"/><ellipse cx="205.25" cy="146" fill="#ADD1B2" rx="11" ry="11" style="stroke:#A80036;stroke-width:1.0;"/><path d="M207.25,142.5 Q207.4531,142 207.6875,141.75 Q207.9219,141.5 208.1875,141.5 Q208.6563,141.5 208.9531,141.7813 Q209.25,142.0625 209.25,142.7188 L209.25,144.2813 Q209.25,144.9375 208.9688,145.2188 Q208.6875,145.5 208.25,145.5 Q207.8594,145.5 207.6094,145.3281 Q207.3594,145.1563 207.25,144.7031 Q207.2031,144.3906 207.0313,144.2188 Q206.7188,143.8906 206.1563,143.7031 Q205.5938,143.5 205.0313,143.5 Q204.3281,143.5 203.7344,143.7813 Q203.1563,144.0625 202.7031,144.6875 Q202.25,145.3125 202.25,146.1719 L202.25,147.0938 Q202.25,148.125 203.0938,148.8125 Q203.9375,149.5 205.4375,149.5 Q206.3281,149.5 206.9531,149.2969 Q207.3125,149.1875 207.7188,148.8281 Q207.9844,148.625 208.125,148.5625 Q208.2656,148.5 208.4375,148.5 Q208.7656,148.5 209,148.7656 Q209.25,149.0156 209.25,149.375 Q209.25,149.7188 208.9063,150.125 Q208.4063,150.7188 207.6094,151.0469 Q206.5625,151.5 205.2813,151.5 Q203.7813,151.5 202.5781,150.9063 Q201.6094,150.4375 200.9219,149.4219 Q200.25,148.4063 200.25,147.2031 L200.25,146.1094 Q200.25,144.8594 200.8438,143.7656 Q201.4531,142.6719 202.5,142.0938 Q203.5625,141.5 204.75,141.5 Q205.4688,141.5 206.0938,141.75 Q206.7188,142 207.25,142.5 Z " fill="#000000"/><text fill="#000000" font-family="sans-serif" font-size="12" lengthAdjust="spacing" textLength="53" x="222.75" y="150.9102">Company</text><line style="stroke:#A80036;stroke-width:1.5;" x1="175.5" x2="293.5" y1="162" y2="162"/><text fill="#000000" font-family="sans-serif" font-size="11" lengthAdjust="spacing" textLength="59" x="180.5" y="177.4189">-designation</text><line style="stroke:#A80036;stroke-width:1.5;" x1="175.5" x2="293.5" y1="183.8359" y2="183.8359"/><text fill="#000000" font-family="sans-serif" font-size="11" lengthAdjust="spacing" textLength="108" x="180.5" y="199.2549">+getShipTripStoreDB()</text><!--MD5=[157657cc6ba7fd786457cb221af335a2]
link GetContainersOffLoadedController to Company--><path codeLine="18" d="M177.08,69.01 C186.9,85.77 199.29,106.9 210.04,125.25 " fill="none" id="GetContainersOffLoadedController-to-Company" style="stroke:#A80036;stroke-width:1.0;stroke-dasharray:7.0,7.0;"/><polygon fill="#A80036" points="212.74,129.85,211.6401,120.0627,210.2118,125.5363,204.7382,124.1079,212.74,129.85" style="stroke:#A80036;stroke-width:1.0;"/><!--MD5=[0d8b08eae485e24dd75c9a768f97beb8]
link GetContainersOffLoadedController to ShipTripStoreDB--><path codeLine="19" d="M158.49,69.33 C157.9,87.03 157.15,109.78 156.5,130 C154.86,181.09 153.02,239.87 151.81,278.58 " fill="none" id="GetContainersOffLoadedController-to-ShipTripStoreDB" style="stroke:#A80036;stroke-width:1.0;stroke-dasharray:7.0,7.0;"/><polygon fill="#A80036" points="151.66,283.67,155.9407,274.8001,151.8171,278.6725,147.9447,274.5488,151.66,283.67" style="stroke:#A80036;stroke-width:1.0;"/><!--MD5=[8a472e17fa1b8e6b82718bab5653081a]
link Company to ShipTripStoreDB--><path codeLine="20" d="M213.95,206.18 C200.89,229.83 184.03,260.32 170.98,283.94 " fill="none" id="Company-ShipTripStoreDB" style="stroke:#A80036;stroke-width:1.0;"/><polygon fill="#000000" points="197.0817,249.5521,204.0288,243.0568,198.8842,240.2139,197.0817,249.5521" style="stroke:#000000;stroke-width:1.0;"/><text fill="#000000" font-family="sans-serif" font-size="13" lengthAdjust="spacing" textLength="28" x="208.5" y="250.4951">uses</text><text fill="#000000" font-family="sans-serif" font-size="13" lengthAdjust="spacing" textLength="7" x="203.117" y="227.0892">1</text><text fill="#000000" font-family="sans-serif" font-size="13" lengthAdjust="spacing" textLength="7" x="167.1107" y="273.0055">1</text><!--MD5=[52d766cf78ba8edf8ec55c27e164c38a]
@startuml

skinparam classAttributeIconSize 0

class GetContainersOffLoadedController{
    +getListOffloadedContainers(containerID, shipmentID)
}

class ShipTripStoreDB {
    +getNextPortID(databaseConnection, mmsi)
    +getListOffloadedContainers(databaseConnection, mmsi)
}

class Company {
    -designation
    +getShipTripStoreDB()
}

GetContainersOffLoadedController ..> Company
GetContainersOffLoadedController ..> ShipTripStoreDB
Company "1" - - "1" ShipTripStoreDB : uses >

@enduml

PlantUML version 1.2021.11(Sat Oct 02 14:26:11 BST 2021)
(GPL source distribution)
Java Runtime: OpenJDK Runtime Environment
JVM: OpenJDK 64-Bit Server VM
Default Encoding: Cp1252
Language: pt
Country: PT
--></g></svg>