<?xml version="1.0" encoding="UTF-8" standalone="no"?><svg xmlns="http://www.w3.org/2000/svg" xmlns:xlink="http://www.w3.org/1999/xlink" contentScriptType="application/ecmascript" contentStyleType="text/css" height="977px" preserveAspectRatio="none" style="width:314px;height:977px;background:#FFFFFF;" version="1.1" viewBox="0 0 314 977" width="314px" zoomAndPan="magnify"><defs><filter height="300%" id="f18w77hpy60vhw" width="300%" x="-1" y="-1"><feGaussianBlur result="blurOut" stdDeviation="2.0"/><feColorMatrix in="blurOut" result="blurOut2" type="matrix" values="0 0 0 0 0 0 0 0 0 0 0 0 0 0 0 0 0 0 .4 0"/><feOffset dx="4.0" dy="4.0" in="blurOut2" result="blurOut3"/><feBlend in="SourceGraphic" in2="blurOut3" mode="normal"/></filter></defs><g><!--MD5=[ed6624c6556d5e7b1bd23032162d20b7]
class Client--><rect codeLine="6" fill="#FEFECE" filter="url(#f18w77hpy60vhw)" height="32" id="Client" style="stroke:#A80036;stroke-width:1.5;" width="64" x="7" y="183.5"/><ellipse cx="22" cy="199.5" fill="#ADD1B2" rx="11" ry="11" style="stroke:#A80036;stroke-width:1.0;"/><path d="M24,196 Q24.2031,195.5 24.4375,195.25 Q24.6719,195 24.9375,195 Q25.4063,195 25.7031,195.2813 Q26,195.5625 26,196.2188 L26,197.7813 Q26,198.4375 25.7188,198.7188 Q25.4375,199 25,199 Q24.6094,199 24.3594,198.8281 Q24.1094,198.6563 24,198.2031 Q23.9531,197.8906 23.7813,197.7188 Q23.4688,197.3906 22.9063,197.2031 Q22.3438,197 21.7813,197 Q21.0781,197 20.4844,197.2813 Q19.9063,197.5625 19.4531,198.1875 Q19,198.8125 19,199.6719 L19,200.5938 Q19,201.625 19.8438,202.3125 Q20.6875,203 22.1875,203 Q23.0781,203 23.7031,202.7969 Q24.0625,202.6875 24.4688,202.3281 Q24.7344,202.125 24.875,202.0625 Q25.0156,202 25.1875,202 Q25.5156,202 25.75,202.2656 Q26,202.5156 26,202.875 Q26,203.2188 25.6563,203.625 Q25.1563,204.2188 24.3594,204.5469 Q23.3125,205 22.0313,205 Q20.5313,205 19.3281,204.4063 Q18.3594,203.9375 17.6719,202.9219 Q17,201.9063 17,200.7031 L17,199.6094 Q17,198.3594 17.5938,197.2656 Q18.2031,196.1719 19.25,195.5938 Q20.3125,195 21.5,195 Q22.2188,195 22.8438,195.25 Q23.4688,195.5 24,196 Z " fill="#000000"/><text fill="#000000" font-family="sans-serif" font-size="12" lengthAdjust="spacing" textLength="32" x="36" y="204.4102">Client</text><!--MD5=[e6b394b930674b2255938b8afe6bb7b4]
class ShipCaptain--><rect codeLine="8" fill="#FEFECE" filter="url(#f18w77hpy60vhw)" height="32" id="ShipCaptain" style="stroke:#A80036;stroke-width:1.5;" width="100" x="142" y="7"/><ellipse cx="157" cy="23" fill="#ADD1B2" rx="11" ry="11" style="stroke:#A80036;stroke-width:1.0;"/><path d="M159,19.5 Q159.2031,19 159.4375,18.75 Q159.6719,18.5 159.9375,18.5 Q160.4063,18.5 160.7031,18.7813 Q161,19.0625 161,19.7188 L161,21.2813 Q161,21.9375 160.7188,22.2188 Q160.4375,22.5 160,22.5 Q159.6094,22.5 159.3594,22.3281 Q159.1094,22.1563 159,21.7031 Q158.9531,21.3906 158.7813,21.2188 Q158.4688,20.8906 157.9063,20.7031 Q157.3438,20.5 156.7813,20.5 Q156.0781,20.5 155.4844,20.7813 Q154.9063,21.0625 154.4531,21.6875 Q154,22.3125 154,23.1719 L154,24.0938 Q154,25.125 154.8438,25.8125 Q155.6875,26.5 157.1875,26.5 Q158.0781,26.5 158.7031,26.2969 Q159.0625,26.1875 159.4688,25.8281 Q159.7344,25.625 159.875,25.5625 Q160.0156,25.5 160.1875,25.5 Q160.5156,25.5 160.75,25.7656 Q161,26.0156 161,26.375 Q161,26.7188 160.6563,27.125 Q160.1563,27.7188 159.3594,28.0469 Q158.3125,28.5 157.0313,28.5 Q155.5313,28.5 154.3281,27.9063 Q153.3594,27.4375 152.6719,26.4219 Q152,25.4063 152,24.2031 L152,23.1094 Q152,21.8594 152.5938,20.7656 Q153.2031,19.6719 154.25,19.0938 Q155.3125,18.5 156.5,18.5 Q157.2188,18.5 157.8438,18.75 Q158.4688,19 159,19.5 Z " fill="#000000"/><text fill="#000000" font-family="sans-serif" font-size="12" lengthAdjust="spacing" textLength="68" x="171" y="27.9102">ShipCaptain</text><!--MD5=[e9a58730c562b34349daa605d1ed6662]
class Container--><rect codeLine="10" fill="#FEFECE" filter="url(#f18w77hpy60vhw)" height="109.1797" id="Container" style="stroke:#A80036;stroke-width:1.5;" width="86" x="22" y="360"/><ellipse cx="37" cy="376" fill="#ADD1B2" rx="11" ry="11" style="stroke:#A80036;stroke-width:1.0;"/><path d="M39,372.5 Q39.2031,372 39.4375,371.75 Q39.6719,371.5 39.9375,371.5 Q40.4063,371.5 40.7031,371.7813 Q41,372.0625 41,372.7188 L41,374.2813 Q41,374.9375 40.7188,375.2188 Q40.4375,375.5 40,375.5 Q39.6094,375.5 39.3594,375.3281 Q39.1094,375.1563 39,374.7031 Q38.9531,374.3906 38.7813,374.2188 Q38.4688,373.8906 37.9063,373.7031 Q37.3438,373.5 36.7813,373.5 Q36.0781,373.5 35.4844,373.7813 Q34.9063,374.0625 34.4531,374.6875 Q34,375.3125 34,376.1719 L34,377.0938 Q34,378.125 34.8438,378.8125 Q35.6875,379.5 37.1875,379.5 Q38.0781,379.5 38.7031,379.2969 Q39.0625,379.1875 39.4688,378.8281 Q39.7344,378.625 39.875,378.5625 Q40.0156,378.5 40.1875,378.5 Q40.5156,378.5 40.75,378.7656 Q41,379.0156 41,379.375 Q41,379.7188 40.6563,380.125 Q40.1563,380.7188 39.3594,381.0469 Q38.3125,381.5 37.0313,381.5 Q35.5313,381.5 34.3281,380.9063 Q33.3594,380.4375 32.6719,379.4219 Q32,378.4063 32,377.2031 L32,376.1094 Q32,374.8594 32.5938,373.7656 Q33.2031,372.6719 34.25,372.0938 Q35.3125,371.5 36.5,371.5 Q37.2188,371.5 37.8438,371.75 Q38.4688,372 39,372.5 Z " fill="#000000"/><text fill="#000000" font-family="sans-serif" font-size="12" lengthAdjust="spacing" textLength="54" x="51" y="380.9102">Container</text><line style="stroke:#A80036;stroke-width:1.5;" x1="23" x2="107" y1="392" y2="392"/><text fill="#000000" font-family="sans-serif" font-size="11" lengthAdjust="spacing" textLength="57" x="28" y="407.4189">-containerId</text><text fill="#000000" font-family="sans-serif" font-size="11" lengthAdjust="spacing" textLength="42" x="28" y="421.2549">-payload</text><text fill="#000000" font-family="sans-serif" font-size="11" lengthAdjust="spacing" textLength="23" x="28" y="435.0908">-tare</text><text fill="#000000" font-family="sans-serif" font-size="11" lengthAdjust="spacing" textLength="32" x="28" y="448.9268">-gross</text><text fill="#000000" font-family="sans-serif" font-size="11" lengthAdjust="spacing" textLength="43" x="28" y="462.7627">-isoCode</text><!--MD5=[76562047389981627aea27c31a97aff5]
class CargoManifest--><rect codeLine="18" fill="#FEFECE" filter="url(#f18w77hpy60vhw)" height="67.6719" id="CargoManifest" style="stroke:#A80036;stroke-width:1.5;" width="112" x="32" y="694"/><ellipse cx="47" cy="710" fill="#ADD1B2" rx="11" ry="11" style="stroke:#A80036;stroke-width:1.0;"/><path d="M49,706.5 Q49.2031,706 49.4375,705.75 Q49.6719,705.5 49.9375,705.5 Q50.4063,705.5 50.7031,705.7813 Q51,706.0625 51,706.7188 L51,708.2813 Q51,708.9375 50.7188,709.2188 Q50.4375,709.5 50,709.5 Q49.6094,709.5 49.3594,709.3281 Q49.1094,709.1563 49,708.7031 Q48.9531,708.3906 48.7813,708.2188 Q48.4688,707.8906 47.9063,707.7031 Q47.3438,707.5 46.7813,707.5 Q46.0781,707.5 45.4844,707.7813 Q44.9063,708.0625 44.4531,708.6875 Q44,709.3125 44,710.1719 L44,711.0938 Q44,712.125 44.8438,712.8125 Q45.6875,713.5 47.1875,713.5 Q48.0781,713.5 48.7031,713.2969 Q49.0625,713.1875 49.4688,712.8281 Q49.7344,712.625 49.875,712.5625 Q50.0156,712.5 50.1875,712.5 Q50.5156,712.5 50.75,712.7656 Q51,713.0156 51,713.375 Q51,713.7188 50.6563,714.125 Q50.1563,714.7188 49.3594,715.0469 Q48.3125,715.5 47.0313,715.5 Q45.5313,715.5 44.3281,714.9063 Q43.3594,714.4375 42.6719,713.4219 Q42,712.4063 42,711.2031 L42,710.1094 Q42,708.8594 42.5938,707.7656 Q43.2031,706.6719 44.25,706.0938 Q45.3125,705.5 46.5,705.5 Q47.2188,705.5 47.8438,705.75 Q48.4688,706 49,706.5 Z " fill="#000000"/><text fill="#000000" font-family="sans-serif" font-size="12" lengthAdjust="spacing" textLength="80" x="61" y="714.9102">CargoManifest</text><line style="stroke:#A80036;stroke-width:1.5;" x1="33" x2="143" y1="726" y2="726"/><text fill="#000000" font-family="sans-serif" font-size="11" lengthAdjust="spacing" textLength="81" x="38" y="741.4189">-cargoManifestId</text><text fill="#000000" font-family="sans-serif" font-size="11" lengthAdjust="spacing" textLength="57" x="38" y="755.2549">-containerId</text><!--MD5=[0dc7f2ddb409b58bcf52b12238c25399]
class Ship--><rect codeLine="23" fill="#FEFECE" filter="url(#f18w77hpy60vhw)" height="164.5234" id="Ship" style="stroke:#A80036;stroke-width:1.5;" width="80" x="152" y="117"/><ellipse cx="177.35" cy="133" fill="#ADD1B2" rx="11" ry="11" style="stroke:#A80036;stroke-width:1.0;"/><path d="M179.35,129.5 Q179.5531,129 179.7875,128.75 Q180.0219,128.5 180.2875,128.5 Q180.7563,128.5 181.0531,128.7813 Q181.35,129.0625 181.35,129.7188 L181.35,131.2813 Q181.35,131.9375 181.0688,132.2188 Q180.7875,132.5 180.35,132.5 Q179.9594,132.5 179.7094,132.3281 Q179.4594,132.1563 179.35,131.7031 Q179.3031,131.3906 179.1313,131.2188 Q178.8188,130.8906 178.2563,130.7031 Q177.6938,130.5 177.1313,130.5 Q176.4281,130.5 175.8344,130.7813 Q175.2563,131.0625 174.8031,131.6875 Q174.35,132.3125 174.35,133.1719 L174.35,134.0938 Q174.35,135.125 175.1938,135.8125 Q176.0375,136.5 177.5375,136.5 Q178.4281,136.5 179.0531,136.2969 Q179.4125,136.1875 179.8188,135.8281 Q180.0844,135.625 180.225,135.5625 Q180.3656,135.5 180.5375,135.5 Q180.8656,135.5 181.1,135.7656 Q181.35,136.0156 181.35,136.375 Q181.35,136.7188 181.0063,137.125 Q180.5063,137.7188 179.7094,138.0469 Q178.6625,138.5 177.3813,138.5 Q175.8813,138.5 174.6781,137.9063 Q173.7094,137.4375 173.0219,136.4219 Q172.35,135.4063 172.35,134.2031 L172.35,133.1094 Q172.35,131.8594 172.9438,130.7656 Q173.5531,129.6719 174.6,129.0938 Q175.6625,128.5 176.85,128.5 Q177.5688,128.5 178.1938,128.75 Q178.8188,129 179.35,129.5 Z " fill="#000000"/><text fill="#000000" font-family="sans-serif" font-size="12" lengthAdjust="spacing" textLength="25" x="193.65" y="137.9102">Ship</text><line style="stroke:#A80036;stroke-width:1.5;" x1="153" x2="231" y1="149" y2="149"/><text fill="#000000" font-family="sans-serif" font-size="11" lengthAdjust="spacing" textLength="53" x="158" y="164.4189">-mmsiCode</text><text fill="#000000" font-family="sans-serif" font-size="11" lengthAdjust="spacing" textLength="51" x="158" y="178.2549">-shipName</text><text fill="#000000" font-family="sans-serif" font-size="11" lengthAdjust="spacing" textLength="45" x="158" y="192.0908">-imoCode</text><text fill="#000000" font-family="sans-serif" font-size="11" lengthAdjust="spacing" textLength="68" x="158" y="205.9268">-vesselTypeId</text><text fill="#000000" font-family="sans-serif" font-size="11" lengthAdjust="spacing" textLength="49" x="158" y="219.7627">-callSignId</text><text fill="#000000" font-family="sans-serif" font-size="11" lengthAdjust="spacing" textLength="32" x="158" y="233.5986">-cargo</text><text fill="#000000" font-family="sans-serif" font-size="11" lengthAdjust="spacing" textLength="27" x="158" y="247.4346">-draft</text><text fill="#000000" font-family="sans-serif" font-size="11" lengthAdjust="spacing" textLength="33" x="158" y="261.2705">-length</text><text fill="#000000" font-family="sans-serif" font-size="11" lengthAdjust="spacing" textLength="31" x="158" y="275.1064">-width</text><!--MD5=[cd383c058592010a1996452fddaad790]
class ShipTrip--><rect codeLine="35" fill="#FEFECE" filter="url(#f18w77hpy60vhw)" height="164.5234" id="ShipTrip" style="stroke:#A80036;stroke-width:1.5;" width="125" x="175.5" y="499"/><ellipse cx="211.65" cy="515" fill="#ADD1B2" rx="11" ry="11" style="stroke:#A80036;stroke-width:1.0;"/><path d="M213.65,511.5 Q213.8531,511 214.0875,510.75 Q214.3219,510.5 214.5875,510.5 Q215.0563,510.5 215.3531,510.7813 Q215.65,511.0625 215.65,511.7188 L215.65,513.2813 Q215.65,513.9375 215.3688,514.2188 Q215.0875,514.5 214.65,514.5 Q214.2594,514.5 214.0094,514.3281 Q213.7594,514.1563 213.65,513.7031 Q213.6031,513.3906 213.4313,513.2188 Q213.1188,512.8906 212.5563,512.7031 Q211.9938,512.5 211.4313,512.5 Q210.7281,512.5 210.1344,512.7813 Q209.5563,513.0625 209.1031,513.6875 Q208.65,514.3125 208.65,515.1719 L208.65,516.0938 Q208.65,517.125 209.4938,517.8125 Q210.3375,518.5 211.8375,518.5 Q212.7281,518.5 213.3531,518.2969 Q213.7125,518.1875 214.1188,517.8281 Q214.3844,517.625 214.525,517.5625 Q214.6656,517.5 214.8375,517.5 Q215.1656,517.5 215.4,517.7656 Q215.65,518.0156 215.65,518.375 Q215.65,518.7188 215.3063,519.125 Q214.8063,519.7188 214.0094,520.0469 Q212.9625,520.5 211.6813,520.5 Q210.1813,520.5 208.9781,519.9063 Q208.0094,519.4375 207.3219,518.4219 Q206.65,517.4063 206.65,516.2031 L206.65,515.1094 Q206.65,513.8594 207.2438,512.7656 Q207.8531,511.6719 208.9,511.0938 Q209.9625,510.5 211.15,510.5 Q211.8688,510.5 212.4938,510.75 Q213.1188,511 213.65,511.5 Z " fill="#000000"/><text fill="#000000" font-family="sans-serif" font-size="12" lengthAdjust="spacing" textLength="46" x="230.35" y="519.9102">ShipTrip</text><line style="stroke:#A80036;stroke-width:1.5;" x1="176.5" x2="299.5" y1="531" y2="531"/><text fill="#000000" font-family="sans-serif" font-size="11" lengthAdjust="spacing" textLength="48" x="181.5" y="546.4189">-shipMmsi</text><text fill="#000000" font-family="sans-serif" font-size="11" lengthAdjust="spacing" textLength="83" x="181.5" y="560.2549">-start_location_id</text><text fill="#000000" font-family="sans-serif" font-size="11" lengthAdjust="spacing" textLength="113" x="181.5" y="574.0908">-destination_location_id</text><text fill="#000000" font-family="sans-serif" font-size="11" lengthAdjust="spacing" textLength="86" x="181.5" y="587.9268">-loading_cargo_id</text><text fill="#000000" font-family="sans-serif" font-size="11" lengthAdjust="spacing" textLength="98" x="181.5" y="601.7627">-unloading_cargo_id</text><text fill="#000000" font-family="sans-serif" font-size="11" lengthAdjust="spacing" textLength="99" x="181.5" y="615.5986">-est_departure_date</text><text fill="#000000" font-family="sans-serif" font-size="11" lengthAdjust="spacing" textLength="82" x="181.5" y="629.4346">-est_arrival_date</text><text fill="#000000" font-family="sans-serif" font-size="11" lengthAdjust="spacing" textLength="102" x="181.5" y="643.2705">-real_departure_date</text><text fill="#000000" font-family="sans-serif" font-size="11" lengthAdjust="spacing" textLength="85" x="181.5" y="657.1064">-real_arrival_date</text><!--MD5=[a0bfe97ac0a38e6e74cc1c7c7b744b71]
class Port--><rect codeLine="48" fill="#FEFECE" filter="url(#f18w77hpy60vhw)" height="123.0156" id="Port" style="stroke:#A80036;stroke-width:1.5;" width="76" x="125" y="840"/><ellipse cx="149.9" cy="856" fill="#ADD1B2" rx="11" ry="11" style="stroke:#A80036;stroke-width:1.0;"/><path d="M151.9,852.5 Q152.1031,852 152.3375,851.75 Q152.5719,851.5 152.8375,851.5 Q153.3063,851.5 153.6031,851.7813 Q153.9,852.0625 153.9,852.7188 L153.9,854.2813 Q153.9,854.9375 153.6188,855.2188 Q153.3375,855.5 152.9,855.5 Q152.5094,855.5 152.2594,855.3281 Q152.0094,855.1563 151.9,854.7031 Q151.8531,854.3906 151.6813,854.2188 Q151.3688,853.8906 150.8063,853.7031 Q150.2438,853.5 149.6813,853.5 Q148.9781,853.5 148.3844,853.7813 Q147.8063,854.0625 147.3531,854.6875 Q146.9,855.3125 146.9,856.1719 L146.9,857.0938 Q146.9,858.125 147.7438,858.8125 Q148.5875,859.5 150.0875,859.5 Q150.9781,859.5 151.6031,859.2969 Q151.9625,859.1875 152.3688,858.8281 Q152.6344,858.625 152.775,858.5625 Q152.9156,858.5 153.0875,858.5 Q153.4156,858.5 153.65,858.7656 Q153.9,859.0156 153.9,859.375 Q153.9,859.7188 153.5563,860.125 Q153.0563,860.7188 152.2594,861.0469 Q151.2125,861.5 149.9313,861.5 Q148.4313,861.5 147.2281,860.9063 Q146.2594,860.4375 145.5719,859.4219 Q144.9,858.4063 144.9,857.2031 L144.9,856.1094 Q144.9,854.8594 145.4938,853.7656 Q146.1031,852.6719 147.15,852.0938 Q148.2125,851.5 149.4,851.5 Q150.1188,851.5 150.7438,851.75 Q151.3688,852 151.9,852.5 Z " fill="#000000"/><text fill="#000000" font-family="sans-serif" font-size="12" lengthAdjust="spacing" textLength="22" x="166.1" y="860.9102">Port</text><line style="stroke:#A80036;stroke-width:1.5;" x1="126" x2="200" y1="872" y2="872"/><text fill="#000000" font-family="sans-serif" font-size="11" lengthAdjust="spacing" textLength="64" x="131" y="887.4189">-identification</text><text fill="#000000" font-family="sans-serif" font-size="11" lengthAdjust="spacing" textLength="30" x="131" y="901.2549">-name</text><text fill="#000000" font-family="sans-serif" font-size="11" lengthAdjust="spacing" textLength="48" x="131" y="915.0908">-continent</text><text fill="#000000" font-family="sans-serif" font-size="11" lengthAdjust="spacing" textLength="41" x="131" y="928.9268">-country</text><text fill="#000000" font-family="sans-serif" font-size="11" lengthAdjust="spacing" textLength="15" x="131" y="942.7627">-lat</text><text fill="#000000" font-family="sans-serif" font-size="11" lengthAdjust="spacing" textLength="18" x="131" y="956.5986">-lon</text><!--MD5=[f500e957add76349bf6e8f151138488d]
link Client to Container--><path codeLine="57" d="M36.79,215.79 C33.68,240.15 29.12,289.2 36,330 C37.66,339.84 40.35,350.06 43.43,359.84 " fill="none" id="Client-Container" style="stroke:#A80036;stroke-width:1.0;"/><polygon fill="#000000" points="41.2302,326.1705,43.7495,316.9997,37.8779,317.2703,41.2302,326.1705" style="stroke:#000000;stroke-width:1.0;"/><text fill="#000000" font-family="sans-serif" font-size="13" lengthAdjust="spacing" textLength="31" x="50" y="326.4951">ships</text><text fill="#000000" font-family="sans-serif" font-size="13" lengthAdjust="spacing" textLength="7" x="27.9699" y="237.0836">1</text><text fill="#000000" font-family="sans-serif" font-size="13" lengthAdjust="spacing" textLength="20" x="19.3851" y="349.3178">1..*</text><!--MD5=[f0bdc6c669370d32d41c923ef98b5140]
link Container to CargoManifest--><path codeLine="58" d="M53.29,469.28 C44.3,520.26 36.04,598.56 53,664 C55.64,674.17 60.31,684.45 65.4,693.68 " fill="none" id="Container-CargoManifest" style="stroke:#A80036;stroke-width:1.0;"/><polygon fill="#000000" points="58.2694,586.6685,60.7167,577.4782,54.8474,577.7949,58.2694,586.6685" style="stroke:#000000;stroke-width:1.0;"/><text fill="#000000" font-family="sans-serif" font-size="13" lengthAdjust="spacing" textLength="90" x="67" y="586.9951">associated with</text><text fill="#000000" font-family="sans-serif" font-size="13" lengthAdjust="spacing" textLength="20" x="30.5084" y="490.8298">1..*</text><text fill="#000000" font-family="sans-serif" font-size="13" lengthAdjust="spacing" textLength="20" x="39.1856" y="683.1726">2..*</text><!--MD5=[ba54223a31981c52d18c1dd571f5520c]
link Ship to Container--><path codeLine="59" d="M151.85,263.26 C141.94,279.08 131.46,296.08 122,312 C112.86,327.38 103.23,344.25 94.54,359.75 " fill="none" id="Ship-Container" style="stroke:#A80036;stroke-width:1.0;"/><polygon fill="#000000" points="124.4467,325.4747,131.5925,319.1987,126.5389,316.1971,124.4467,325.4747" style="stroke:#000000;stroke-width:1.0;"/><text fill="#000000" font-family="sans-serif" font-size="13" lengthAdjust="spacing" textLength="58" x="136" y="326.4951">transports</text><text fill="#000000" font-family="sans-serif" font-size="13" lengthAdjust="spacing" textLength="7" x="137.0748" y="270.7611">1</text><text fill="#000000" font-family="sans-serif" font-size="13" lengthAdjust="spacing" textLength="20" x="77.0436" y="349.2163">1..*</text><!--MD5=[47296211a5450e6030aae792427ae68d]
link CargoManifest to Port--><path codeLine="60" d="M100.58,762.31 C106.28,777.02 113.25,794.47 120,810 C124.23,819.73 128.88,829.96 133.52,839.91 " fill="none" id="CargoManifest-Port" style="stroke:#A80036;stroke-width:1.0;"/><polygon fill="#000000" points="126.9537,805.7783,126.1247,796.3039,120.7141,798.6006,126.9537,805.7783" style="stroke:#000000;stroke-width:1.0;"/><text fill="#000000" font-family="sans-serif" font-size="13" lengthAdjust="spacing" textLength="65" x="134" y="806.4951">delivered at</text><!--MD5=[64222e8dc32db9269c070a2ba1692d85]
link Ship to ShipTrip--><path codeLine="61" d="M201.87,282.02 C209.62,346.03 220.35,434.73 228.11,498.79 " fill="none" id="Ship-ShipTrip" style="stroke:#A80036;stroke-width:1.0;"/><polygon fill="#000000" points="212.6009,326.1395,214.4315,316.8068,208.5963,317.5132,212.6009,326.1395" style="stroke:#000000;stroke-width:1.0;"/><text fill="#000000" font-family="sans-serif" font-size="13" lengthAdjust="spacing" textLength="28" x="221" y="326.4951">does</text><text fill="#000000" font-family="sans-serif" font-size="13" lengthAdjust="spacing" textLength="7" x="195.3975" y="303.0456">1</text><text fill="#000000" font-family="sans-serif" font-size="13" lengthAdjust="spacing" textLength="5" x="222.0065" y="488.2431">*</text><!--MD5=[44f05fe100d2ea1ea515bcefebfec01b]
link ShipTrip to Port--><path codeLine="62" d="M231.32,664.23 C226.36,708.09 217.95,762.7 204,810 C201.12,819.76 197.39,829.83 193.35,839.55 " fill="none" id="ShipTrip-Port" style="stroke:#A80036;stroke-width:1.0;"/><polygon fill="#000000" points="230.9417,733.0625,235.7286,724.8444,229.9839,723.6003,230.9417,733.0625" style="stroke:#000000;stroke-width:1.0;"/><text fill="#000000" font-family="sans-serif" font-size="13" lengthAdjust="spacing" textLength="11" x="241" y="733.4951">to</text><text fill="#000000" font-family="sans-serif" font-size="13" lengthAdjust="spacing" textLength="5" x="225.5885" y="684.9882">*</text><text fill="#000000" font-family="sans-serif" font-size="13" lengthAdjust="spacing" textLength="7" x="189.4545" y="828.9766">1</text><!--MD5=[f065240a342e449619d6d797ab4a538f]
link ShipCaptain to Ship--><path codeLine="63" d="M192,39.18 C192,56.76 192,87.1 192,116.61 " fill="none" id="ShipCaptain-Ship" style="stroke:#A80036;stroke-width:1.0;"/><polygon fill="#000000" points="197,83.1758,199.9389,74.1307,194.0611,74.1307,197,83.1758" style="stroke:#000000;stroke-width:1.0;"/><text fill="#000000" font-family="sans-serif" font-size="13" lengthAdjust="spacing" textLength="64" x="206" y="83.4951">commands</text><text fill="#000000" font-family="sans-serif" font-size="13" lengthAdjust="spacing" textLength="7" x="183.8844" y="60.4385">1</text><text fill="#000000" font-family="sans-serif" font-size="13" lengthAdjust="spacing" textLength="7" x="184.6883" y="106.0471">1</text><!--MD5=[eee35d80c892161898827aa6b35528ab]
@startuml

skinparam classAttributeIconSize 0
hide empty methods
hide empty attributes

class Client {}

class ShipCaptain {}

class Container {
   -containerId
   -payload
   -tare
   -gross
   -isoCode
}

class CargoManifest {
    -cargoManifestId
    -containerId
}

class Ship {
    -mmsiCode
    -shipName
    -imoCode
    -vesselTypeId
    -callSignId
    -cargo
    -draft
    -length
    -width
}

class ShipTrip{
    -shipMmsi
    /'has attribute phase?'/
    -start_location_id
    -destination_location_id
    -loading_cargo_id
    -unloading_cargo_id
    -est_departure_date
    -est_arrival_date
    -real_departure_date
    -real_arrival_date
}

class Port {
    -identification
    -name
    -continent
    -country
    -lat
    -lon
}

Client "1" - - "1..*" Container : ships >
Container "1..*"- - "2..*" CargoManifest : associated with >
Ship "1" - - "1..*" Container : transports >
CargoManifest - - Port : delivered at >
Ship "1" - - "*" ShipTrip : does >
ShipTrip "*" - - "1" Port : to >
ShipCaptain "1" - - "1" Ship : commands >


@enduml

@startuml

skinparam classAttributeIconSize 0
hide empty methods
hide empty attributes

class Client {}

class ShipCaptain {}

class Container {
   -containerId
   -payload
   -tare
   -gross
   -isoCode
}

class CargoManifest {
    -cargoManifestId
    -containerId
}

class Ship {
    -mmsiCode
    -shipName
    -imoCode
    -vesselTypeId
    -callSignId
    -cargo
    -draft
    -length
    -width
}

class ShipTrip{
    -shipMmsi
    -start_location_id
    -destination_location_id
    -loading_cargo_id
    -unloading_cargo_id
    -est_departure_date
    -est_arrival_date
    -real_departure_date
    -real_arrival_date
}

class Port {
    -identification
    -name
    -continent
    -country
    -lat
    -lon
}

Client "1" - - "1..*" Container : ships >
Container "1..*"- - "2..*" CargoManifest : associated with >
Ship "1" - - "1..*" Container : transports >
CargoManifest - - Port : delivered at >
Ship "1" - - "*" ShipTrip : does >
ShipTrip "*" - - "1" Port : to >
ShipCaptain "1" - - "1" Ship : commands >


@enduml

PlantUML version 1.2021.11(Sat Oct 02 14:26:11 BST 2021)
(GPL source distribution)
Java Runtime: OpenJDK Runtime Environment
JVM: OpenJDK 64-Bit Server VM
Default Encoding: Cp1252
Language: pt
Country: PT
--></g></svg>