<?xml version="1.0" encoding="UTF-8" standalone="no"?><svg xmlns="http://www.w3.org/2000/svg" xmlns:xlink="http://www.w3.org/1999/xlink" contentScriptType="application/ecmascript" contentStyleType="text/css" height="642px" preserveAspectRatio="none" style="width:1753px;height:642px;background:#FFFFFF;" version="1.1" viewBox="0 0 1753 642" width="1753px" zoomAndPan="magnify"><defs><filter height="300%" id="fvsrgpq4vln0k" width="300%" x="-1" y="-1"><feGaussianBlur result="blurOut" stdDeviation="2.0"/><feColorMatrix in="blurOut" result="blurOut2" type="matrix" values="0 0 0 0 0 0 0 0 0 0 0 0 0 0 0 0 0 0 .4 0"/><feOffset dx="4.0" dy="4.0" in="blurOut2" result="blurOut3"/><feBlend in="SourceGraphic" in2="blurOut3" mode="normal"/></filter></defs><g><rect fill="#FFFFFF" filter="url(#fvsrgpq4vln0k)" height="441.7266" style="stroke:#A80036;stroke-width:1.0;" width="10" x="57.5" y="98.2969"/><rect fill="#FFFFFF" filter="url(#fvsrgpq4vln0k)" height="420.5938" style="stroke:#A80036;stroke-width:1.0;" width="10" x="402.5" y="119.4297"/><rect fill="#FFFFFF" filter="url(#fvsrgpq4vln0k)" height="400.4609" style="stroke:#A80036;stroke-width:1.0;" width="10" x="663.5" y="148.5625"/><rect fill="#FFFFFF" filter="url(#fvsrgpq4vln0k)" height="30" style="stroke:#A80036;stroke-width:1.0;" width="10" x="953.5" y="177.6953"/><rect fill="#FFFFFF" filter="url(#fvsrgpq4vln0k)" height="244.9297" style="stroke:#A80036;stroke-width:1.0;" width="10" x="1070.5" y="236.8281"/><rect fill="#FFFFFF" filter="url(#fvsrgpq4vln0k)" height="130.5313" style="stroke:#000000;stroke-width:2.0;" width="737.5" x="1001.5" y="323.0938"/><line style="stroke:#A80036;stroke-width:1.0;stroke-dasharray:5.0,5.0;" x1="62" x2="62" y1="88.2969" y2="558.0234"/><line style="stroke:#A80036;stroke-width:1.0;stroke-dasharray:5.0,5.0;" x1="407.5" x2="407.5" y1="88.2969" y2="558.0234"/><line style="stroke:#A80036;stroke-width:1.0;stroke-dasharray:5.0,5.0;" x1="668" x2="668" y1="88.2969" y2="558.0234"/><line style="stroke:#A80036;stroke-width:1.0;stroke-dasharray:5.0,5.0;" x1="958.5" x2="958.5" y1="88.2969" y2="558.0234"/><line style="stroke:#A80036;stroke-width:1.0;stroke-dasharray:5.0,5.0;" x1="1075.5" x2="1075.5" y1="88.2969" y2="558.0234"/><line style="stroke:#A80036;stroke-width:1.0;stroke-dasharray:5.0,5.0;" x1="1596" x2="1596" y1="88.2969" y2="558.0234"/><text fill="#000000" font-family="sans-serif" font-size="14" lengthAdjust="spacing" textLength="109" x="5" y="84.9951">TrafficManager</text><ellipse cx="62.5" cy="15" fill="#FEFECE" filter="url(#fvsrgpq4vln0k)" rx="8" ry="8" style="stroke:#A80036;stroke-width:2.0;"/><path d="M62.5,23 L62.5,50 M49.5,31 L75.5,31 M62.5,50 L49.5,65 M62.5,50 L75.5,65 " fill="none" filter="url(#fvsrgpq4vln0k)" style="stroke:#A80036;stroke-width:2.0;"/><text fill="#000000" font-family="sans-serif" font-size="14" lengthAdjust="spacing" textLength="109" x="5" y="570.0186">TrafficManager</text><ellipse cx="62.5" cy="583.3203" fill="#FEFECE" filter="url(#fvsrgpq4vln0k)" rx="8" ry="8" style="stroke:#A80036;stroke-width:2.0;"/><path d="M62.5,591.3203 L62.5,618.3203 M49.5,599.3203 L75.5,599.3203 M62.5,618.3203 L49.5,633.3203 M62.5,618.3203 L75.5,633.3203 " fill="none" filter="url(#fvsrgpq4vln0k)" style="stroke:#A80036;stroke-width:2.0;"/><rect fill="#FEFECE" filter="url(#fvsrgpq4vln0k)" height="30.2969" style="stroke:#A80036;stroke-width:1.5;" width="144" x="333.5" y="53"/><text fill="#000000" font-family="sans-serif" font-size="14" lengthAdjust="spacing" textLength="130" x="340.5" y="72.9951">ClosenessPlacesUi</text><rect fill="#FEFECE" filter="url(#fvsrgpq4vln0k)" height="30.2969" style="stroke:#A80036;stroke-width:1.5;" width="144" x="333.5" y="557.0234"/><text fill="#000000" font-family="sans-serif" font-size="14" lengthAdjust="spacing" textLength="130" x="340.5" y="577.0186">ClosenessPlacesUi</text><rect fill="#FEFECE" filter="url(#fvsrgpq4vln0k)" height="30.2969" style="stroke:#A80036;stroke-width:1.5;" width="201" x="566" y="53"/><text fill="#000000" font-family="sans-serif" font-size="14" lengthAdjust="spacing" textLength="187" x="573" y="72.9951">ClosenessPlacesController</text><rect fill="#FEFECE" filter="url(#fvsrgpq4vln0k)" height="30.2969" style="stroke:#A80036;stroke-width:1.5;" width="201" x="566" y="557.0234"/><text fill="#000000" font-family="sans-serif" font-size="14" lengthAdjust="spacing" textLength="187" x="573" y="577.0186">ClosenessPlacesController</text><rect fill="#FEFECE" filter="url(#fvsrgpq4vln0k)" height="30.2969" style="stroke:#A80036;stroke-width:1.5;" width="82" x="915.5" y="53"/><text fill="#000000" font-family="sans-serif" font-size="14" lengthAdjust="spacing" textLength="68" x="922.5" y="72.9951">Company</text><rect fill="#FEFECE" filter="url(#fvsrgpq4vln0k)" height="30.2969" style="stroke:#A80036;stroke-width:1.5;" width="82" x="915.5" y="557.0234"/><text fill="#000000" font-family="sans-serif" font-size="14" lengthAdjust="spacing" textLength="68" x="922.5" y="577.0186">Company</text><rect fill="#FEFECE" filter="url(#fvsrgpq4vln0k)" height="46.5938" style="stroke:#A80036;stroke-width:1.5;" width="124" x="1011.5" y="36.7031"/><text fill="#000000" font-family="sans-serif" font-size="14" lengthAdjust="spacing" textLength="110" x="1018.5" y="56.6982">freightNetwork:</text><text fill="#000000" font-family="sans-serif" font-size="14" lengthAdjust="spacing" textLength="108" x="1019.5" y="72.9951">FreightNetwork</text><rect fill="#FEFECE" filter="url(#fvsrgpq4vln0k)" height="46.5938" style="stroke:#A80036;stroke-width:1.5;" width="124" x="1011.5" y="557.0234"/><text fill="#000000" font-family="sans-serif" font-size="14" lengthAdjust="spacing" textLength="110" x="1018.5" y="577.0186">freightNetwork:</text><text fill="#000000" font-family="sans-serif" font-size="14" lengthAdjust="spacing" textLength="108" x="1019.5" y="593.3154">FreightNetwork</text><rect fill="#FEFECE" filter="url(#fvsrgpq4vln0k)" height="46.5938" style="stroke:#A80036;stroke-width:1.5;" width="261" x="1464" y="36.7031"/><text fill="#000000" font-family="sans-serif" font-size="14" lengthAdjust="spacing" textLength="206" x="1491.5" y="56.6982">closenessPlacesByContinent:</text><text fill="#000000" font-family="sans-serif" font-size="14" lengthAdjust="spacing" textLength="247" x="1471" y="72.9951">Map&lt;String, Map&lt;String, Double&gt;</text><rect fill="#FEFECE" filter="url(#fvsrgpq4vln0k)" height="46.5938" style="stroke:#A80036;stroke-width:1.5;" width="261" x="1464" y="557.0234"/><text fill="#000000" font-family="sans-serif" font-size="14" lengthAdjust="spacing" textLength="206" x="1491.5" y="577.0186">closenessPlacesByContinent:</text><text fill="#000000" font-family="sans-serif" font-size="14" lengthAdjust="spacing" textLength="247" x="1471" y="593.3154">Map&lt;String, Map&lt;String, Double&gt;</text><rect fill="#FFFFFF" filter="url(#fvsrgpq4vln0k)" height="441.7266" style="stroke:#A80036;stroke-width:1.0;" width="10" x="57.5" y="98.2969"/><rect fill="#FFFFFF" filter="url(#fvsrgpq4vln0k)" height="420.5938" style="stroke:#A80036;stroke-width:1.0;" width="10" x="402.5" y="119.4297"/><rect fill="#FFFFFF" filter="url(#fvsrgpq4vln0k)" height="400.4609" style="stroke:#A80036;stroke-width:1.0;" width="10" x="663.5" y="148.5625"/><rect fill="#FFFFFF" filter="url(#fvsrgpq4vln0k)" height="30" style="stroke:#A80036;stroke-width:1.0;" width="10" x="953.5" y="177.6953"/><rect fill="#FFFFFF" filter="url(#fvsrgpq4vln0k)" height="244.9297" style="stroke:#A80036;stroke-width:1.0;" width="10" x="1070.5" y="236.8281"/><polygon fill="#A80036" points="390.5,115.4297,400.5,119.4297,390.5,123.4297,394.5,119.4297" style="stroke:#A80036;stroke-width:1.0;"/><line style="stroke:#A80036;stroke-width:1.0;" x1="67.5" x2="396.5" y1="119.4297" y2="119.4297"/><text fill="#000000" font-family="sans-serif" font-size="13" font-weight="bold" lengthAdjust="spacing" textLength="9" x="74.5" y="114.3638">1</text><text fill="#000000" font-family="sans-serif" font-size="13" lengthAdjust="spacing" textLength="303" x="87.5" y="114.3638">asks to list the n closeness locals by continent</text><polygon fill="#A80036" points="651.5,144.5625,661.5,148.5625,651.5,152.5625,655.5,148.5625" style="stroke:#A80036;stroke-width:1.0;"/><line style="stroke:#A80036;stroke-width:1.0;" x1="412.5" x2="657.5" y1="148.5625" y2="148.5625"/><text fill="#000000" font-family="sans-serif" font-size="13" font-weight="bold" lengthAdjust="spacing" textLength="9" x="419.5" y="143.4966">2</text><text fill="#000000" font-family="sans-serif" font-size="13" lengthAdjust="spacing" textLength="219" x="432.5" y="143.4966">getClosenessPlacesByContinent()</text><polygon fill="#A80036" points="941.5,173.6953,951.5,177.6953,941.5,181.6953,945.5,177.6953" style="stroke:#A80036;stroke-width:1.0;"/><line style="stroke:#A80036;stroke-width:1.0;" x1="673.5" x2="947.5" y1="177.6953" y2="177.6953"/><text fill="#000000" font-family="sans-serif" font-size="13" font-weight="bold" lengthAdjust="spacing" textLength="9" x="680.5" y="172.6294">3</text><text fill="#000000" font-family="sans-serif" font-size="13" lengthAdjust="spacing" textLength="248" x="693.5" y="172.6294">freightNetwork = getFreightNetwork()</text><polygon fill="#A80036" points="1058.5,232.8281,1068.5,236.8281,1058.5,240.8281,1062.5,236.8281" style="stroke:#A80036;stroke-width:1.0;"/><line style="stroke:#A80036;stroke-width:1.0;" x1="673.5" x2="1064.5" y1="236.8281" y2="236.8281"/><text fill="#000000" font-family="sans-serif" font-size="13" font-weight="bold" lengthAdjust="spacing" textLength="9" x="680.5" y="231.7622">4</text><text fill="#000000" font-family="sans-serif" font-size="13" lengthAdjust="spacing" textLength="344" x="693.5" y="231.7622">closenessPlaces = getClosenessPlacesByContinent()</text><line style="stroke:#A80036;stroke-width:1.0;" x1="1080.5" x2="1122.5" y1="265.9609" y2="265.9609"/><line style="stroke:#A80036;stroke-width:1.0;" x1="1122.5" x2="1122.5" y1="265.9609" y2="278.9609"/><line style="stroke:#A80036;stroke-width:1.0;" x1="1081.5" x2="1122.5" y1="278.9609" y2="278.9609"/><polygon fill="#A80036" points="1091.5,274.9609,1081.5,278.9609,1091.5,282.9609,1087.5,278.9609" style="stroke:#A80036;stroke-width:1.0;"/><text fill="#000000" font-family="sans-serif" font-size="13" font-weight="bold" lengthAdjust="spacing" textLength="9" x="1087.5" y="260.895">5</text><text fill="#000000" font-family="sans-serif" font-size="13" lengthAdjust="spacing" textLength="250" x="1100.5" y="260.895">continents = getLocationsContinents()</text><polygon fill="#A80036" points="1584.5,304.0938,1594.5,308.0938,1584.5,312.0938,1588.5,308.0938" style="stroke:#A80036;stroke-width:1.0;"/><line style="stroke:#A80036;stroke-width:1.0;" x1="1080.5" x2="1590.5" y1="308.0938" y2="308.0938"/><text fill="#000000" font-family="sans-serif" font-size="13" font-weight="bold" lengthAdjust="spacing" textLength="9" x="1087.5" y="303.0278">6</text><text fill="#000000" font-family="sans-serif" font-size="13" lengthAdjust="spacing" textLength="479" x="1100.5" y="303.0278">Map&lt;String, Map&lt;String, Double&gt;&gt; closenessPlacesByContinent : create</text><path d="M1001.5,323.0938 L1065.5,323.0938 L1065.5,330.0938 L1055.5,340.0938 L1001.5,340.0938 L1001.5,323.0938 " fill="#EEEEEE" style="stroke:#000000;stroke-width:1.0;"/><rect fill="none" height="130.5313" style="stroke:#000000;stroke-width:2.0;" width="737.5" x="1001.5" y="323.0938"/><text fill="#000000" font-family="sans-serif" font-size="13" font-weight="bold" lengthAdjust="spacing" textLength="19" x="1016.5" y="336.1606">alt</text><text fill="#000000" font-family="sans-serif" font-size="11" font-weight="bold" lengthAdjust="spacing" textLength="129" x="1080.5" y="335.3042">[for every continent]</text><line style="stroke:#A80036;stroke-width:1.0;" x1="1080.5" x2="1122.5" y1="361.3594" y2="361.3594"/><line style="stroke:#A80036;stroke-width:1.0;" x1="1122.5" x2="1122.5" y1="361.3594" y2="374.3594"/><line style="stroke:#A80036;stroke-width:1.0;" x1="1081.5" x2="1122.5" y1="374.3594" y2="374.3594"/><polygon fill="#A80036" points="1091.5,370.3594,1081.5,374.3594,1091.5,378.3594,1087.5,374.3594" style="stroke:#A80036;stroke-width:1.0;"/><text fill="#000000" font-family="sans-serif" font-size="13" font-weight="bold" lengthAdjust="spacing" textLength="9" x="1087.5" y="356.2935">7</text><text fill="#000000" font-family="sans-serif" font-size="13" lengthAdjust="spacing" textLength="300" x="1100.5" y="356.2935">continentSubGraph = getContinentSubGraph()</text><line style="stroke:#A80036;stroke-width:1.0;" x1="1080.5" x2="1122.5" y1="403.4922" y2="403.4922"/><line style="stroke:#A80036;stroke-width:1.0;" x1="1122.5" x2="1122.5" y1="403.4922" y2="416.4922"/><line style="stroke:#A80036;stroke-width:1.0;" x1="1081.5" x2="1122.5" y1="416.4922" y2="416.4922"/><polygon fill="#A80036" points="1091.5,412.4922,1081.5,416.4922,1091.5,420.4922,1087.5,416.4922" style="stroke:#A80036;stroke-width:1.0;"/><text fill="#000000" font-family="sans-serif" font-size="13" font-weight="bold" lengthAdjust="spacing" textLength="9" x="1087.5" y="398.4263">8</text><text fill="#000000" font-family="sans-serif" font-size="13" lengthAdjust="spacing" textLength="367" x="1100.5" y="398.4263">Map&lt;String, Double&gt; closeness = getClosenessPlaces()</text><polygon fill="#A80036" points="1584.5,441.625,1594.5,445.625,1584.5,449.625,1588.5,445.625" style="stroke:#A80036;stroke-width:1.0;"/><line style="stroke:#A80036;stroke-width:1.0;" x1="1080.5" x2="1590.5" y1="445.625" y2="445.625"/><text fill="#000000" font-family="sans-serif" font-size="13" font-weight="bold" lengthAdjust="spacing" textLength="9" x="1087.5" y="440.5591">9</text><text fill="#000000" font-family="sans-serif" font-size="13" lengthAdjust="spacing" textLength="229" x="1100.5" y="440.5591">put(continent, getClosenessPlaces)</text><polygon fill="#A80036" points="684.5,477.7578,674.5,481.7578,684.5,485.7578,680.5,481.7578" style="stroke:#A80036;stroke-width:1.0;"/><line style="stroke:#A80036;stroke-width:1.0;" x1="678.5" x2="1074.5" y1="481.7578" y2="481.7578"/><text fill="#000000" font-family="sans-serif" font-size="13" font-weight="bold" lengthAdjust="spacing" textLength="18" x="690.5" y="476.6919">10</text><text fill="#000000" font-family="sans-serif" font-size="13" lengthAdjust="spacing" textLength="186" x="712.5" y="476.6919">closenessPlacesByContinent</text><polygon fill="#A80036" points="423.5,506.8906,413.5,510.8906,423.5,514.8906,419.5,510.8906" style="stroke:#A80036;stroke-width:1.0;"/><line style="stroke:#A80036;stroke-width:1.0;stroke-dasharray:2.0,2.0;" x1="417.5" x2="662.5" y1="510.8906" y2="510.8906"/><text fill="#000000" font-family="sans-serif" font-size="13" font-weight="bold" lengthAdjust="spacing" textLength="18" x="429.5" y="505.8247">11</text><text fill="#000000" font-family="sans-serif" font-size="13" lengthAdjust="spacing" textLength="186" x="451.5" y="505.8247">closenessPlacesByContinent</text><polygon fill="#A80036" points="73.5,536.0234,63.5,540.0234,73.5,544.0234,69.5,540.0234" style="stroke:#A80036;stroke-width:1.0;"/><line style="stroke:#A80036;stroke-width:1.0;stroke-dasharray:2.0,2.0;" x1="67.5" x2="406.5" y1="540.0234" y2="540.0234"/><text fill="#000000" font-family="sans-serif" font-size="13" font-weight="bold" lengthAdjust="spacing" textLength="18" x="79.5" y="534.9575">12</text><text fill="#000000" font-family="sans-serif" font-size="13" lengthAdjust="spacing" textLength="278" x="101.5" y="534.9575">displays the closeness places by continent</text><!--MD5=[a204e11de15913623b23e522feed880f]
@startuml

autonumber
actor TrafficManager as C
participant "ClosenessPlacesUi" as UI
participant "ClosenessPlacesController" as CTRL
participant "Company" as COMPANY
participant "freightNetwork:\nFreightNetwork" as NET
participant "closenessPlacesByContinent:\nMap<String, Map<String, Double>" as MAP

activate C
C -> UI : asks to list the n closeness locals by continent
activate UI
UI -> CTRL : getClosenessPlacesByContinent()
activate CTRL
CTRL -> COMPANY : freightNetwork = getFreightNetwork()
activate COMPANY
deactivate COMPANY
CTRL -> NET : closenessPlaces = getClosenessPlacesByContinent()
activate NET
NET -> NET : continents = getLocationsContinents()
NET -> MAP : Map<String, Map<String, Double>> closenessPlacesByContinent : create
alt for every continent
NET -> NET : continentSubGraph = getContinentSubGraph()
NET -> NET : Map<String, Double> closeness = getClosenessPlaces()
NET -> MAP : put(continent, getClosenessPlaces)
end
NET -> CTRL : closenessPlacesByContinent
deactivate NET
CTRL - -> UI : closenessPlacesByContinent

UI - -> C : displays the closeness places by continent
deactivate UI

deactivate C


@enduml

PlantUML version 1.2021.11(Sat Oct 02 14:26:11 WEST 2021)
(GPL source distribution)
Java Runtime: OpenJDK Runtime Environment
JVM: OpenJDK 64-Bit Server VM
Default Encoding: UTF-8
Language: en
Country: US
--></g></svg>