<?xml version="1.0" encoding="UTF-8" standalone="no"?><svg xmlns="http://www.w3.org/2000/svg" xmlns:xlink="http://www.w3.org/1999/xlink" contentScriptType="application/ecmascript" contentStyleType="text/css" height="250px" preserveAspectRatio="none" style="width:489px;height:250px;background:#FFFFFF;" version="1.1" viewBox="0 0 489 250" width="489px" zoomAndPan="magnify"><defs><filter height="300%" id="f13nbs10hph2ng" width="300%" x="-1" y="-1"><feGaussianBlur result="blurOut" stdDeviation="2.0"/><feColorMatrix in="blurOut" result="blurOut2" type="matrix" values="0 0 0 0 0 0 0 0 0 0 0 0 0 0 0 0 0 0 .4 0"/><feOffset dx="4.0" dy="4.0" in="blurOut2" result="blurOut3"/><feBlend in="SourceGraphic" in2="blurOut3" mode="normal"/></filter></defs><g><rect fill="#FFFFFF" filter="url(#f13nbs10hph2ng)" height="50.2656" style="stroke:#A80036;stroke-width:1.0;" width="10" x="57.5" y="98.2969"/><rect fill="#FFFFFF" filter="url(#f13nbs10hph2ng)" height="29.1328" style="stroke:#A80036;stroke-width:1.0;" width="10" x="436.5" y="119.4297"/><line style="stroke:#A80036;stroke-width:1.0;stroke-dasharray:5.0,5.0;" x1="62" x2="62" y1="88.2969" y2="166.5625"/><line style="stroke:#A80036;stroke-width:1.0;stroke-dasharray:5.0,5.0;" x1="441" x2="441" y1="88.2969" y2="166.5625"/><text fill="#000000" font-family="sans-serif" font-size="14" lengthAdjust="spacing" textLength="109" x="5" y="84.9951">TrafficManager</text><ellipse cx="62.5" cy="15" fill="#FEFECE" filter="url(#f13nbs10hph2ng)" rx="8" ry="8" style="stroke:#A80036;stroke-width:2.0;"/><path d="M62.5,23 L62.5,50 M49.5,31 L75.5,31 M62.5,50 L49.5,65 M62.5,50 L75.5,65 " fill="none" filter="url(#f13nbs10hph2ng)" style="stroke:#A80036;stroke-width:2.0;"/><text fill="#000000" font-family="sans-serif" font-size="14" lengthAdjust="spacing" textLength="109" x="5" y="178.5576">TrafficManager</text><ellipse cx="62.5" cy="191.8594" fill="#FEFECE" filter="url(#f13nbs10hph2ng)" rx="8" ry="8" style="stroke:#A80036;stroke-width:2.0;"/><path d="M62.5,199.8594 L62.5,226.8594 M49.5,207.8594 L75.5,207.8594 M62.5,226.8594 L49.5,241.8594 M62.5,226.8594 L75.5,241.8594 " fill="none" filter="url(#f13nbs10hph2ng)" style="stroke:#A80036;stroke-width:2.0;"/><rect fill="#FEFECE" filter="url(#f13nbs10hph2ng)" height="30.2969" style="stroke:#A80036;stroke-width:1.5;" width="71" x="404" y="53"/><text fill="#000000" font-family="sans-serif" font-size="14" lengthAdjust="spacing" textLength="57" x="411" y="72.9951">:System</text><rect fill="#FEFECE" filter="url(#f13nbs10hph2ng)" height="30.2969" style="stroke:#A80036;stroke-width:1.5;" width="71" x="404" y="165.5625"/><text fill="#000000" font-family="sans-serif" font-size="14" lengthAdjust="spacing" textLength="57" x="411" y="185.5576">:System</text><rect fill="#FFFFFF" filter="url(#f13nbs10hph2ng)" height="50.2656" style="stroke:#A80036;stroke-width:1.0;" width="10" x="57.5" y="98.2969"/><rect fill="#FFFFFF" filter="url(#f13nbs10hph2ng)" height="29.1328" style="stroke:#A80036;stroke-width:1.0;" width="10" x="436.5" y="119.4297"/><polygon fill="#A80036" points="424.5,115.4297,434.5,119.4297,424.5,123.4297,428.5,119.4297" style="stroke:#A80036;stroke-width:1.0;"/><line style="stroke:#A80036;stroke-width:1.0;" x1="67.5" x2="430.5" y1="119.4297" y2="119.4297"/><text fill="#000000" font-family="sans-serif" font-size="13" font-weight="bold" lengthAdjust="spacing" textLength="9" x="74.5" y="114.3638">1</text><text fill="#000000" font-family="sans-serif" font-size="13" lengthAdjust="spacing" textLength="303" x="87.5" y="114.3638">asks to list the n closeness locals by continent</text><polygon fill="#A80036" points="73.5,144.5625,63.5,148.5625,73.5,152.5625,69.5,148.5625" style="stroke:#A80036;stroke-width:1.0;"/><line style="stroke:#A80036;stroke-width:1.0;stroke-dasharray:2.0,2.0;" x1="67.5" x2="440.5" y1="148.5625" y2="148.5625"/><text fill="#000000" font-family="sans-serif" font-size="13" font-weight="bold" lengthAdjust="spacing" textLength="9" x="79.5" y="143.4966">2</text><text fill="#000000" font-family="sans-serif" font-size="13" lengthAdjust="spacing" textLength="332" x="92.5" y="143.4966">returns a map of the closeness places by continent</text><!--MD5=[5f29af54b4974dfb304812d55f6be038]
@startuml
autonumber
actor TrafficManager as C

activate C
C -> ":System" : asks to list the n closeness locals by continent
activate ":System"

":System" - -> C : returns a map of the closeness places by continent
deactivate ":System"

deactivate C
@enduml

PlantUML version 1.2021.11(Sat Oct 02 14:26:11 WEST 2021)
(GPL source distribution)
Java Runtime: OpenJDK Runtime Environment
JVM: OpenJDK 64-Bit Server VM
Default Encoding: UTF-8
Language: en
Country: US
--></g></svg>