<?xml version="1.0" encoding="UTF-8" standalone="no"?><svg xmlns="http://www.w3.org/2000/svg" xmlns:xlink="http://www.w3.org/1999/xlink" contentScriptType="application/ecmascript" contentStyleType="text/css" height="448px" preserveAspectRatio="none" style="width:386px;height:448px;background:#FFFFFF;" version="1.1" viewBox="0 0 386 448" width="386px" zoomAndPan="magnify"><defs><filter height="300%" id="fo8s19tj8v978" width="300%" x="-1" y="-1"><feGaussianBlur result="blurOut" stdDeviation="2.0"/><feColorMatrix in="blurOut" result="blurOut2" type="matrix" values="0 0 0 0 0 0 0 0 0 0 0 0 0 0 0 0 0 0 .4 0"/><feOffset dx="4.0" dy="4.0" in="blurOut2" result="blurOut3"/><feBlend in="SourceGraphic" in2="blurOut3" mode="normal"/></filter></defs><g><!--MD5=[9806983b111441d03b568e2de52e48aa]
class CheckOccupancyRatesAndEstimationsWarehouseController--><rect codeLine="7" fill="#FEFECE" filter="url(#fo8s19tj8v978)" height="117.1797" id="CheckOccupancyRatesAndEstimationsWarehouseController" style="stroke:#A80036;stroke-width:1.5;" width="365" x="7" y="7"/><ellipse cx="22" cy="23" fill="#ADD1B2" rx="11" ry="11" style="stroke:#A80036;stroke-width:1.0;"/><path d="M24,19.5 Q24.2031,19 24.4375,18.75 Q24.6719,18.5 24.9375,18.5 Q25.4063,18.5 25.7031,18.7813 Q26,19.0625 26,19.7188 L26,21.2813 Q26,21.9375 25.7188,22.2188 Q25.4375,22.5 25,22.5 Q24.6094,22.5 24.3594,22.3281 Q24.1094,22.1563 24,21.7031 Q23.9531,21.3906 23.7813,21.2188 Q23.4688,20.8906 22.9063,20.7031 Q22.3438,20.5 21.7813,20.5 Q21.0781,20.5 20.4844,20.7813 Q19.9063,21.0625 19.4531,21.6875 Q19,22.3125 19,23.1719 L19,24.0938 Q19,25.125 19.8438,25.8125 Q20.6875,26.5 22.1875,26.5 Q23.0781,26.5 23.7031,26.2969 Q24.0625,26.1875 24.4688,25.8281 Q24.7344,25.625 24.875,25.5625 Q25.0156,25.5 25.1875,25.5 Q25.5156,25.5 25.75,25.7656 Q26,26.0156 26,26.375 Q26,26.7188 25.6563,27.125 Q25.1563,27.7188 24.3594,28.0469 Q23.3125,28.5 22.0313,28.5 Q20.5313,28.5 19.3281,27.9063 Q18.3594,27.4375 17.6719,26.4219 Q17,25.4063 17,24.2031 L17,23.1094 Q17,21.8594 17.5938,20.7656 Q18.2031,19.6719 19.25,19.0938 Q20.3125,18.5 21.5,18.5 Q22.2188,18.5 22.8438,18.75 Q23.4688,19 24,19.5 Z " fill="#000000"/><text fill="#000000" font-family="sans-serif" font-size="12" lengthAdjust="spacing" textLength="333" x="36" y="27.9102">CheckOccupancyRatesAndEstimationsWarehouseController</text><line style="stroke:#A80036;stroke-width:1.5;" x1="8" x2="371" y1="39" y2="39"/><text fill="#000000" font-family="sans-serif" font-size="11" lengthAdjust="spacing" textLength="48" x="13" y="54.4189">-company</text><line style="stroke:#A80036;stroke-width:1.5;" x1="8" x2="371" y1="60.8359" y2="60.8359"/><text fill="#000000" font-family="sans-serif" font-size="11" lengthAdjust="spacing" textLength="278" x="13" y="76.2549">-calculateOccupancyRate(maxCapacity, currentCapacity)</text><text fill="#000000" font-family="sans-serif" font-size="11" lengthAdjust="spacing" textLength="248" x="13" y="90.0908">-getOccupancyRateByWarehouseID(warehouseID)</text><text fill="#000000" font-family="sans-serif" font-size="11" lengthAdjust="spacing" textLength="197" x="13" y="103.9268">-checkIfWarehouseExists(warehouseID)</text><text fill="#000000" font-family="sans-serif" font-size="11" lengthAdjust="spacing" textLength="198" x="13" y="117.7627">-getContainersOut30Days(warehouseID)</text><!--MD5=[13c100530bd55b243116ddbde945b596]
class WarehouseStoreDB--><rect codeLine="15" fill="#FEFECE" filter="url(#fo8s19tj8v978)" height="95.3438" id="WarehouseStoreDB" style="stroke:#A80036;stroke-width:1.5;" width="255" x="71" y="339"/><ellipse cx="139.25" cy="355" fill="#ADD1B2" rx="11" ry="11" style="stroke:#A80036;stroke-width:1.0;"/><path d="M141.25,351.5 Q141.4531,351 141.6875,350.75 Q141.9219,350.5 142.1875,350.5 Q142.6563,350.5 142.9531,350.7813 Q143.25,351.0625 143.25,351.7188 L143.25,353.2813 Q143.25,353.9375 142.9688,354.2188 Q142.6875,354.5 142.25,354.5 Q141.8594,354.5 141.6094,354.3281 Q141.3594,354.1563 141.25,353.7031 Q141.2031,353.3906 141.0313,353.2188 Q140.7188,352.8906 140.1563,352.7031 Q139.5938,352.5 139.0313,352.5 Q138.3281,352.5 137.7344,352.7813 Q137.1563,353.0625 136.7031,353.6875 Q136.25,354.3125 136.25,355.1719 L136.25,356.0938 Q136.25,357.125 137.0938,357.8125 Q137.9375,358.5 139.4375,358.5 Q140.3281,358.5 140.9531,358.2969 Q141.3125,358.1875 141.7188,357.8281 Q141.9844,357.625 142.125,357.5625 Q142.2656,357.5 142.4375,357.5 Q142.7656,357.5 143,357.7656 Q143.25,358.0156 143.25,358.375 Q143.25,358.7188 142.9063,359.125 Q142.4063,359.7188 141.6094,360.0469 Q140.5625,360.5 139.2813,360.5 Q137.7813,360.5 136.5781,359.9063 Q135.6094,359.4375 134.9219,358.4219 Q134.25,357.4063 134.25,356.2031 L134.25,355.1094 Q134.25,353.8594 134.8438,352.7656 Q135.4531,351.6719 136.5,351.0938 Q137.5625,350.5 138.75,350.5 Q139.4688,350.5 140.0938,350.75 Q140.7188,351 141.25,351.5 Z " fill="#000000"/><text fill="#000000" font-family="sans-serif" font-size="12" lengthAdjust="spacing" textLength="110" x="159.75" y="359.9102">WarehouseStoreDB</text><line style="stroke:#A80036;stroke-width:1.5;" x1="72" x2="325" y1="371" y2="371"/><text fill="#000000" font-family="sans-serif" font-size="11" lengthAdjust="spacing" textLength="243" x="77" y="386.4189">-getNumContainersOutWarehouse(warehouse_id)</text><text fill="#000000" font-family="sans-serif" font-size="11" lengthAdjust="spacing" textLength="241" x="77" y="400.2549">-getCurrentContainersWarehouse(warehouse_id)</text><text fill="#000000" font-family="sans-serif" font-size="11" lengthAdjust="spacing" textLength="202" x="77" y="414.0908">-checkIfWarehouseExists(warehouse_id)</text><text fill="#000000" font-family="sans-serif" font-size="11" lengthAdjust="spacing" textLength="215" x="77" y="427.9268">-getWarehouseMaxCapacity(warehouse_id)</text><!--MD5=[02e4b9b7573f1156f41e60aa5b4e25a4]
class Company--><rect codeLine="22" fill="#FEFECE" filter="url(#fo8s19tj8v978)" height="75.6719" id="Company" style="stroke:#A80036;stroke-width:1.5;" width="135" x="223" y="185"/><ellipse cx="260.5" cy="201" fill="#ADD1B2" rx="11" ry="11" style="stroke:#A80036;stroke-width:1.0;"/><path d="M262.5,197.5 Q262.7031,197 262.9375,196.75 Q263.1719,196.5 263.4375,196.5 Q263.9063,196.5 264.2031,196.7813 Q264.5,197.0625 264.5,197.7188 L264.5,199.2813 Q264.5,199.9375 264.2188,200.2188 Q263.9375,200.5 263.5,200.5 Q263.1094,200.5 262.8594,200.3281 Q262.6094,200.1563 262.5,199.7031 Q262.4531,199.3906 262.2813,199.2188 Q261.9688,198.8906 261.4063,198.7031 Q260.8438,198.5 260.2813,198.5 Q259.5781,198.5 258.9844,198.7813 Q258.4063,199.0625 257.9531,199.6875 Q257.5,200.3125 257.5,201.1719 L257.5,202.0938 Q257.5,203.125 258.3438,203.8125 Q259.1875,204.5 260.6875,204.5 Q261.5781,204.5 262.2031,204.2969 Q262.5625,204.1875 262.9688,203.8281 Q263.2344,203.625 263.375,203.5625 Q263.5156,203.5 263.6875,203.5 Q264.0156,203.5 264.25,203.7656 Q264.5,204.0156 264.5,204.375 Q264.5,204.7188 264.1563,205.125 Q263.6563,205.7188 262.8594,206.0469 Q261.8125,206.5 260.5313,206.5 Q259.0313,206.5 257.8281,205.9063 Q256.8594,205.4375 256.1719,204.4219 Q255.5,203.4063 255.5,202.2031 L255.5,201.1094 Q255.5,199.8594 256.0938,198.7656 Q256.7031,197.6719 257.75,197.0938 Q258.8125,196.5 260,196.5 Q260.7188,196.5 261.3438,196.75 Q261.9688,197 262.5,197.5 Z " fill="#000000"/><text fill="#000000" font-family="sans-serif" font-size="12" lengthAdjust="spacing" textLength="53" x="279.5" y="205.9102">Company</text><line style="stroke:#A80036;stroke-width:1.5;" x1="224" x2="357" y1="217" y2="217"/><text fill="#000000" font-family="sans-serif" font-size="11" lengthAdjust="spacing" textLength="100" x="229" y="232.4189">-warehouseStoreDB</text><line style="stroke:#A80036;stroke-width:1.5;" x1="224" x2="357" y1="238.8359" y2="238.8359"/><text fill="#000000" font-family="sans-serif" font-size="11" lengthAdjust="spacing" textLength="123" x="229" y="254.2549">-getwarehouseStoreDB()</text><!--MD5=[6a15d790d7d5d7df39dc26d8f2ab1309]
link CheckOccupancyRatesAndEstimationsWarehouseController to Company--><path codeLine="27" d="M227.11,124.4 C239.21,143.03 252.36,163.29 263.54,180.49 " fill="none" id="CheckOccupancyRatesAndEstimationsWarehouseController-to-Company" style="stroke:#A80036;stroke-width:1.0;stroke-dasharray:7.0,7.0;"/><polygon fill="#A80036" points="266.34,184.8,264.7912,175.0737,263.6161,180.6071,258.0826,179.432,266.34,184.8" style="stroke:#A80036;stroke-width:1.0;"/><!--MD5=[8901e66e1d78dcfbc8c877a2006ad8a9]
link CheckOccupancyRatesAndEstimationsWarehouseController to WarehouseStoreDB--><path codeLine="28" d="M191.13,124.27 C192.81,183.87 195.41,276.01 197.03,333.43 " fill="none" id="CheckOccupancyRatesAndEstimationsWarehouseController-to-WarehouseStoreDB" style="stroke:#A80036;stroke-width:1.0;stroke-dasharray:7.0,7.0;"/><polygon fill="#A80036" points="197.17,338.53,200.9113,329.4194,197.0272,333.532,192.9146,329.6479,197.17,338.53" style="stroke:#A80036;stroke-width:1.0;"/><!--MD5=[6c23f2128226ef1e9e30e2b31bd924c2]
link Company to WarehouseStoreDB--><path codeLine="29" d="M269.39,261.05 C256.24,284.15 239.19,314.07 225.11,338.78 " fill="none" id="Company-WarehouseStoreDB" style="stroke:#A80036;stroke-width:1.0;"/><polygon fill="#000000" points="253.0251,304.5203,260.0559,298.1157,254.9486,295.2063,253.0251,304.5203" style="stroke:#000000;stroke-width:1.0;"/><text fill="#000000" font-family="sans-serif" font-size="13" lengthAdjust="spacing" textLength="28" x="264.5" y="305.4951">uses</text><text fill="#000000" font-family="sans-serif" font-size="13" lengthAdjust="spacing" textLength="7" x="258.314" y="282.2284">1</text><text fill="#000000" font-family="sans-serif" font-size="13" lengthAdjust="spacing" textLength="7" x="221.5043" y="328.0918">1</text><!--MD5=[2f02422c60769f28946360dd7cb776eb]
@startuml

hide empty methods
hide empty attributes
'left to right direction
skinparam classAttributeIconSize 0

class CheckOccupancyRatesAndEstimationsWarehouseController{
- company
- calculateOccupancyRate(maxCapacity, currentCapacity)
- getOccupancyRateByWarehouseID(warehouseID)
- checkIfWarehouseExists(warehouseID)
- getContainersOut30Days(warehouseID)
}

class WarehouseStoreDB{
- getNumContainersOutWarehouse(warehouse_id)
- getCurrentContainersWarehouse(warehouse_id)
- checkIfWarehouseExists(warehouse_id)
- getWarehouseMaxCapacity(warehouse_id)
}

class Company{
- warehouseStoreDB
- getwarehouseStoreDB()
}

CheckOccupancyRatesAndEstimationsWarehouseController ..> Company
CheckOccupancyRatesAndEstimationsWarehouseController ..> WarehouseStoreDB
Company "1" - - "1" WarehouseStoreDB : uses >

@enduml

@startuml

hide empty methods
hide empty attributes
skinparam classAttributeIconSize 0

class CheckOccupancyRatesAndEstimationsWarehouseController{
- company
- calculateOccupancyRate(maxCapacity, currentCapacity)
- getOccupancyRateByWarehouseID(warehouseID)
- checkIfWarehouseExists(warehouseID)
- getContainersOut30Days(warehouseID)
}

class WarehouseStoreDB{
- getNumContainersOutWarehouse(warehouse_id)
- getCurrentContainersWarehouse(warehouse_id)
- checkIfWarehouseExists(warehouse_id)
- getWarehouseMaxCapacity(warehouse_id)
}

class Company{
- warehouseStoreDB
- getwarehouseStoreDB()
}

CheckOccupancyRatesAndEstimationsWarehouseController ..> Company
CheckOccupancyRatesAndEstimationsWarehouseController ..> WarehouseStoreDB
Company "1" - - "1" WarehouseStoreDB : uses >

@enduml

PlantUML version 1.2021.11(Sat Oct 02 14:26:11 BST 2021)
(GPL source distribution)
Java Runtime: OpenJDK Runtime Environment
JVM: OpenJDK 64-Bit Server VM
Default Encoding: Cp1252
Language: pt
Country: PT
--></g></svg>