<?xml version="1.0" encoding="UTF-8" standalone="no"?><svg xmlns="http://www.w3.org/2000/svg" xmlns:xlink="http://www.w3.org/1999/xlink" contentScriptType="application/ecmascript" contentStyleType="text/css" height="680px" preserveAspectRatio="none" style="width:306px;height:680px;background:#FFFFFF;" version="1.1" viewBox="0 0 306 680" width="306px" zoomAndPan="magnify"><defs><filter height="300%" id="f1rqib0sggaeg4" width="300%" x="-1" y="-1"><feGaussianBlur result="blurOut" stdDeviation="2.0"/><feColorMatrix in="blurOut" result="blurOut2" type="matrix" values="0 0 0 0 0 0 0 0 0 0 0 0 0 0 0 0 0 0 .4 0"/><feOffset dx="4.0" dy="4.0" in="blurOut2" result="blurOut3"/><feBlend in="SourceGraphic" in2="blurOut3" mode="normal"/></filter></defs><g><!--MD5=[b197415e3d71f730e17342fafd126671]
class GetUnladenCenterMassController--><rect codeLine="3" fill="#FEFECE" filter="url(#f1rqib0sggaeg4)" height="61.8359" id="GetUnladenCenterMassController" style="stroke:#A80036;stroke-width:1.5;" width="219" x="73.5" y="7"/><ellipse cx="88.5" cy="23" fill="#ADD1B2" rx="11" ry="11" style="stroke:#A80036;stroke-width:1.0;"/><path d="M90.5,19.5 Q90.7031,19 90.9375,18.75 Q91.1719,18.5 91.4375,18.5 Q91.9063,18.5 92.2031,18.7813 Q92.5,19.0625 92.5,19.7188 L92.5,21.2813 Q92.5,21.9375 92.2188,22.2188 Q91.9375,22.5 91.5,22.5 Q91.1094,22.5 90.8594,22.3281 Q90.6094,22.1563 90.5,21.7031 Q90.4531,21.3906 90.2813,21.2188 Q89.9688,20.8906 89.4063,20.7031 Q88.8438,20.5 88.2813,20.5 Q87.5781,20.5 86.9844,20.7813 Q86.4063,21.0625 85.9531,21.6875 Q85.5,22.3125 85.5,23.1719 L85.5,24.0938 Q85.5,25.125 86.3438,25.8125 Q87.1875,26.5 88.6875,26.5 Q89.5781,26.5 90.2031,26.2969 Q90.5625,26.1875 90.9688,25.8281 Q91.2344,25.625 91.375,25.5625 Q91.5156,25.5 91.6875,25.5 Q92.0156,25.5 92.25,25.7656 Q92.5,26.0156 92.5,26.375 Q92.5,26.7188 92.1563,27.125 Q91.6563,27.7188 90.8594,28.0469 Q89.8125,28.5 88.5313,28.5 Q87.0313,28.5 85.8281,27.9063 Q84.8594,27.4375 84.1719,26.4219 Q83.5,25.4063 83.5,24.2031 L83.5,23.1094 Q83.5,21.8594 84.0938,20.7656 Q84.7031,19.6719 85.75,19.0938 Q86.8125,18.5 88,18.5 Q88.7188,18.5 89.3438,18.75 Q89.9688,19 90.5,19.5 Z " fill="#000000"/><text fill="#000000" font-family="sans-serif" font-size="12" lengthAdjust="spacing" textLength="187" x="102.5" y="27.9102">GetUnladenCenterMassController</text><line style="stroke:#A80036;stroke-width:1.5;" x1="74.5" x2="291.5" y1="39" y2="39"/><line style="stroke:#A80036;stroke-width:1.5;" x1="74.5" x2="291.5" y1="47" y2="47"/><text fill="#000000" font-family="sans-serif" font-size="11" lengthAdjust="spacing" textLength="199" x="79.5" y="62.4189">+getUnLadenCenterOfMassOfShip(mmsi)</text><!--MD5=[02e4b9b7573f1156f41e60aa5b4e25a4]
class Company--><rect codeLine="7" fill="#FEFECE" filter="url(#f1rqib0sggaeg4)" height="61.8359" id="Company" style="stroke:#A80036;stroke-width:1.5;" width="88" x="7" y="130"/><ellipse cx="23.35" cy="146" fill="#ADD1B2" rx="11" ry="11" style="stroke:#A80036;stroke-width:1.0;"/><path d="M25.35,142.5 Q25.5531,142 25.7875,141.75 Q26.0219,141.5 26.2875,141.5 Q26.7563,141.5 27.0531,141.7813 Q27.35,142.0625 27.35,142.7188 L27.35,144.2813 Q27.35,144.9375 27.0688,145.2188 Q26.7875,145.5 26.35,145.5 Q25.9594,145.5 25.7094,145.3281 Q25.4594,145.1563 25.35,144.7031 Q25.3031,144.3906 25.1313,144.2188 Q24.8188,143.8906 24.2563,143.7031 Q23.6938,143.5 23.1313,143.5 Q22.4281,143.5 21.8344,143.7813 Q21.2563,144.0625 20.8031,144.6875 Q20.35,145.3125 20.35,146.1719 L20.35,147.0938 Q20.35,148.125 21.1938,148.8125 Q22.0375,149.5 23.5375,149.5 Q24.4281,149.5 25.0531,149.2969 Q25.4125,149.1875 25.8188,148.8281 Q26.0844,148.625 26.225,148.5625 Q26.3656,148.5 26.5375,148.5 Q26.8656,148.5 27.1,148.7656 Q27.35,149.0156 27.35,149.375 Q27.35,149.7188 27.0063,150.125 Q26.5063,150.7188 25.7094,151.0469 Q24.6625,151.5 23.3813,151.5 Q21.8813,151.5 20.6781,150.9063 Q19.7094,150.4375 19.0219,149.4219 Q18.35,148.4063 18.35,147.2031 L18.35,146.1094 Q18.35,144.8594 18.9438,143.7656 Q19.5531,142.6719 20.6,142.0938 Q21.6625,141.5 22.85,141.5 Q23.5688,141.5 24.1938,141.75 Q24.8188,142 25.35,142.5 Z " fill="#000000"/><text fill="#000000" font-family="sans-serif" font-size="12" lengthAdjust="spacing" textLength="53" x="37.65" y="150.9102">Company</text><line style="stroke:#A80036;stroke-width:1.5;" x1="8" x2="94" y1="162" y2="162"/><line style="stroke:#A80036;stroke-width:1.5;" x1="8" x2="94" y1="170" y2="170"/><text fill="#000000" font-family="sans-serif" font-size="11" lengthAdjust="spacing" textLength="76" x="13" y="185.4189">+getShipStore()</text><!--MD5=[ea2206eefe09474e90beb17e18e6b3d8]
class ShipStore--><rect codeLine="11" fill="#FEFECE" filter="url(#f1rqib0sggaeg4)" height="61.8359" id="ShipStore" style="stroke:#A80036;stroke-width:1.5;" width="144" x="22" y="270"/><ellipse cx="63.1" cy="286" fill="#ADD1B2" rx="11" ry="11" style="stroke:#A80036;stroke-width:1.0;"/><path d="M65.1,282.5 Q65.3031,282 65.5375,281.75 Q65.7719,281.5 66.0375,281.5 Q66.5063,281.5 66.8031,281.7813 Q67.1,282.0625 67.1,282.7188 L67.1,284.2813 Q67.1,284.9375 66.8188,285.2188 Q66.5375,285.5 66.1,285.5 Q65.7094,285.5 65.4594,285.3281 Q65.2094,285.1563 65.1,284.7031 Q65.0531,284.3906 64.8813,284.2188 Q64.5688,283.8906 64.0063,283.7031 Q63.4438,283.5 62.8813,283.5 Q62.1781,283.5 61.5844,283.7813 Q61.0063,284.0625 60.5531,284.6875 Q60.1,285.3125 60.1,286.1719 L60.1,287.0938 Q60.1,288.125 60.9438,288.8125 Q61.7875,289.5 63.2875,289.5 Q64.1781,289.5 64.8031,289.2969 Q65.1625,289.1875 65.5688,288.8281 Q65.8344,288.625 65.975,288.5625 Q66.1156,288.5 66.2875,288.5 Q66.6156,288.5 66.85,288.7656 Q67.1,289.0156 67.1,289.375 Q67.1,289.7188 66.7563,290.125 Q66.2563,290.7188 65.4594,291.0469 Q64.4125,291.5 63.1313,291.5 Q61.6313,291.5 60.4281,290.9063 Q59.4594,290.4375 58.7719,289.4219 Q58.1,288.4063 58.1,287.2031 L58.1,286.1094 Q58.1,284.8594 58.6938,283.7656 Q59.3031,282.6719 60.35,282.0938 Q61.4125,281.5 62.6,281.5 Q63.3188,281.5 63.9438,281.75 Q64.5688,282 65.1,282.5 Z " fill="#000000"/><text fill="#000000" font-family="sans-serif" font-size="12" lengthAdjust="spacing" textLength="54" x="82.9" y="290.9102">ShipStore</text><line style="stroke:#A80036;stroke-width:1.5;" x1="23" x2="165" y1="302" y2="302"/><line style="stroke:#A80036;stroke-width:1.5;" x1="23" x2="165" y1="310" y2="310"/><text fill="#000000" font-family="sans-serif" font-size="11" lengthAdjust="spacing" textLength="132" x="28" y="325.4189">+getShipByAnyCode(mmsi)</text><!--MD5=[0dc7f2ddb409b58bcf52b12238c25399]
class Ship--><rect codeLine="16" fill="#FEFECE" filter="url(#f1rqib0sggaeg4)" height="103.3438" id="Ship" style="stroke:#A80036;stroke-width:1.5;" width="119" x="117.5" y="410"/><ellipse cx="160.4" cy="426" fill="#ADD1B2" rx="11" ry="11" style="stroke:#A80036;stroke-width:1.0;"/><path d="M162.4,422.5 Q162.6031,422 162.8375,421.75 Q163.0719,421.5 163.3375,421.5 Q163.8063,421.5 164.1031,421.7813 Q164.4,422.0625 164.4,422.7188 L164.4,424.2813 Q164.4,424.9375 164.1188,425.2188 Q163.8375,425.5 163.4,425.5 Q163.0094,425.5 162.7594,425.3281 Q162.5094,425.1563 162.4,424.7031 Q162.3531,424.3906 162.1813,424.2188 Q161.8688,423.8906 161.3063,423.7031 Q160.7438,423.5 160.1813,423.5 Q159.4781,423.5 158.8844,423.7813 Q158.3063,424.0625 157.8531,424.6875 Q157.4,425.3125 157.4,426.1719 L157.4,427.0938 Q157.4,428.125 158.2438,428.8125 Q159.0875,429.5 160.5875,429.5 Q161.4781,429.5 162.1031,429.2969 Q162.4625,429.1875 162.8688,428.8281 Q163.1344,428.625 163.275,428.5625 Q163.4156,428.5 163.5875,428.5 Q163.9156,428.5 164.15,428.7656 Q164.4,429.0156 164.4,429.375 Q164.4,429.7188 164.0563,430.125 Q163.5563,430.7188 162.7594,431.0469 Q161.7125,431.5 160.4313,431.5 Q158.9313,431.5 157.7281,430.9063 Q156.7594,430.4375 156.0719,429.4219 Q155.4,428.4063 155.4,427.2031 L155.4,426.1094 Q155.4,424.8594 155.9938,423.7656 Q156.6031,422.6719 157.65,422.0938 Q158.7125,421.5 159.9,421.5 Q160.6188,421.5 161.2438,421.75 Q161.8688,422 162.4,422.5 Z " fill="#000000"/><text fill="#000000" font-family="sans-serif" font-size="12" lengthAdjust="spacing" textLength="25" x="180.6" y="430.9102">Ship</text><line style="stroke:#A80036;stroke-width:1.5;" x1="118.5" x2="235.5" y1="442" y2="442"/><line style="stroke:#A80036;stroke-width:1.5;" x1="118.5" x2="235.5" y1="450" y2="450"/><text fill="#000000" font-family="sans-serif" font-size="11" lengthAdjust="spacing" textLength="76" x="123.5" y="465.4189">+getTotalArea()</text><text fill="#000000" font-family="sans-serif" font-size="11" lengthAdjust="spacing" textLength="106" x="123.5" y="479.2549">+getCenterOfMassX()</text><text fill="#000000" font-family="sans-serif" font-size="11" lengthAdjust="spacing" textLength="107" x="123.5" y="493.0908">+getCenterOfMassY()</text><text fill="#000000" font-family="sans-serif" font-size="11" lengthAdjust="spacing" textLength="99" x="123.5" y="506.9268">+getCenterOfMass()</text><!--MD5=[ef7c79de33a8df0acce34aecd8d239d2]
class Mass--><rect codeLine="23" fill="#FEFECE" filter="url(#f1rqib0sggaeg4)" height="75.6719" id="Mass" style="stroke:#A80036;stroke-width:1.5;" width="62" x="202" y="591"/><ellipse cx="217" cy="607" fill="#ADD1B2" rx="11" ry="11" style="stroke:#A80036;stroke-width:1.0;"/><path d="M219,603.5 Q219.2031,603 219.4375,602.75 Q219.6719,602.5 219.9375,602.5 Q220.4063,602.5 220.7031,602.7813 Q221,603.0625 221,603.7188 L221,605.2813 Q221,605.9375 220.7188,606.2188 Q220.4375,606.5 220,606.5 Q219.6094,606.5 219.3594,606.3281 Q219.1094,606.1563 219,605.7031 Q218.9531,605.3906 218.7813,605.2188 Q218.4688,604.8906 217.9063,604.7031 Q217.3438,604.5 216.7813,604.5 Q216.0781,604.5 215.4844,604.7813 Q214.9063,605.0625 214.4531,605.6875 Q214,606.3125 214,607.1719 L214,608.0938 Q214,609.125 214.8438,609.8125 Q215.6875,610.5 217.1875,610.5 Q218.0781,610.5 218.7031,610.2969 Q219.0625,610.1875 219.4688,609.8281 Q219.7344,609.625 219.875,609.5625 Q220.0156,609.5 220.1875,609.5 Q220.5156,609.5 220.75,609.7656 Q221,610.0156 221,610.375 Q221,610.7188 220.6563,611.125 Q220.1563,611.7188 219.3594,612.0469 Q218.3125,612.5 217.0313,612.5 Q215.5313,612.5 214.3281,611.9063 Q213.3594,611.4375 212.6719,610.4219 Q212,609.4063 212,608.2031 L212,607.1094 Q212,605.8594 212.5938,604.7656 Q213.2031,603.6719 214.25,603.0938 Q215.3125,602.5 216.5,602.5 Q217.2188,602.5 217.8438,602.75 Q218.4688,603 219,603.5 Z " fill="#000000"/><text fill="#000000" font-family="sans-serif" font-size="12" lengthAdjust="spacing" textLength="30" x="231" y="611.9102">Mass</text><line style="stroke:#A80036;stroke-width:1.5;" x1="203" x2="263" y1="623" y2="623"/><line style="stroke:#A80036;stroke-width:1.5;" x1="203" x2="263" y1="631" y2="631"/><text fill="#000000" font-family="sans-serif" font-size="11" lengthAdjust="spacing" textLength="36" x="208" y="646.4189">+getX()</text><text fill="#000000" font-family="sans-serif" font-size="11" lengthAdjust="spacing" textLength="37" x="208" y="660.2549">+getY()</text><!--MD5=[3863c0a2566b19f1bf76343256bda8d0]
link GetUnladenCenterMassController to Company--><path codeLine="28" d="M150.03,69.22 C131.13,86.55 107.36,108.33 87.85,126.22 " fill="none" id="GetUnladenCenterMassController-to-Company" style="stroke:#A80036;stroke-width:1.0;stroke-dasharray:7.0,7.0;"/><polygon fill="#A80036" points="84.01,129.74,93.3506,126.6169,87.6993,126.3653,87.951,120.714,84.01,129.74" style="stroke:#A80036;stroke-width:1.0;"/><!--MD5=[9178b1c123981ce67ca6500ea03c9500]
link GetUnladenCenterMassController to ShipStore--><path codeLine="29" d="M176.54,69.29 C167.55,109.23 149.66,181.29 126,240 C122.61,248.41 118.38,257.17 114.11,265.32 " fill="none" id="GetUnladenCenterMassController-to-ShipStore" style="stroke:#A80036;stroke-width:1.0;stroke-dasharray:7.0,7.0;"/><polygon fill="#A80036" points="111.74,269.77,119.4925,263.6955,114.084,265.3535,112.4261,259.9451,111.74,269.77" style="stroke:#A80036;stroke-width:1.0;"/><!--MD5=[b2969b1538dbc9c90cfa8046d672602d]
link GetUnladenCenterMassController to Ship--><path codeLine="30" d="M192.23,69.14 C194.45,78.9 196.16,89.82 196,100 C194,224.49 196.68,255.87 187,380 C186.37,388.02 185.53,396.47 184.59,404.76 " fill="none" id="GetUnladenCenterMassController-to-Ship" style="stroke:#A80036;stroke-width:1.0;stroke-dasharray:7.0,7.0;"/><polygon fill="#A80036" points="184,409.9,189.0043,401.4173,184.5726,404.9329,181.057,400.5011,184,409.9" style="stroke:#A80036;stroke-width:1.0;"/><!--MD5=[844480033f3782436f9e2c64ff4bcdc6]
link GetUnladenCenterMassController to Mass--><path codeLine="31" d="M232.12,69.17 C260.24,90.56 290,122.14 290,160 C290,160 290,160 290,462.5 C290,506.38 271.86,553.41 256.05,586.08 " fill="none" id="GetUnladenCenterMassController-to-Mass" style="stroke:#A80036;stroke-width:1.0;stroke-dasharray:7.0,7.0;"/><polygon fill="#A80036" points="253.74,590.8,261.2944,584.4809,255.9417,586.3108,254.1117,580.9582,253.74,590.8" style="stroke:#A80036;stroke-width:1.0;"/><!--MD5=[6b4a94d80660e97c6833bde801bd4c89]
link Company to ShipStore--><path codeLine="32" d="M60.44,192.28 C67.61,215.29 77.42,246.79 84.59,269.79 " fill="none" id="Company-ShipStore" style="stroke:#A80036;stroke-width:1.0;"/><polygon fill="#000000" points="82.4873,235.9494,82.6026,226.4396,76.9908,228.188,82.4873,235.9494" style="stroke:#000000;stroke-width:1.0;"/><text fill="#000000" font-family="sans-serif" font-size="13" lengthAdjust="spacing" textLength="28" x="90" y="236.4951">uses</text><text fill="#000000" font-family="sans-serif" font-size="13" lengthAdjust="spacing" textLength="7" x="54.5723" y="213.312">1</text><text fill="#000000" font-family="sans-serif" font-size="13" lengthAdjust="spacing" textLength="7" x="74.9273" y="259.2512">1</text><!--MD5=[f04e04ecc6998d67821b33eb17256457]
link ShipStore to Ship--><path codeLine="33" d="M109.81,332.19 C121.28,354.1 137.08,384.27 150.48,409.85 " fill="none" id="ShipStore-Ship" style="stroke:#A80036;stroke-width:1.0;"/><polygon fill="#000000" points="141.3196,375.6052,139.7269,366.2289,134.5199,368.9558,141.3196,375.6052" style="stroke:#000000;stroke-width:1.0;"/><text fill="#000000" font-family="sans-serif" font-size="13" lengthAdjust="spacing" textLength="30" x="148" y="376.4951">owns</text><text fill="#000000" font-family="sans-serif" font-size="13" lengthAdjust="spacing" textLength="7" x="105.2335" y="353.4514">1</text><text fill="#000000" font-family="sans-serif" font-size="13" lengthAdjust="spacing" textLength="20" x="125.3444" y="398.9574">1..*</text><!--MD5=[30426b127282942d2eb39f81d28d7a9c]
link Ship to Mass--><path codeLine="34" d="M194.11,513.05 C202.6,538.15 212.67,567.93 220.44,590.88 " fill="none" id="Ship-Mass" style="stroke:#A80036;stroke-width:1.0;"/><polygon fill="#000000" points="216.6023,556.9121,216.4876,547.4022,210.9198,549.2858,216.6023,556.9121" style="stroke:#000000;stroke-width:1.0;"/><text fill="#000000" font-family="sans-serif" font-size="13" lengthAdjust="spacing" textLength="21" x="224" y="557.4951">has</text><text fill="#000000" font-family="sans-serif" font-size="13" lengthAdjust="spacing" textLength="7" x="189.0239" y="534.9199">1</text><text fill="#000000" font-family="sans-serif" font-size="13" lengthAdjust="spacing" textLength="20" x="196.4215" y="580.2205">1..*</text><!--MD5=[1b0f9a825f15e70ddab92a16a13ec71e]
@startuml
skinparam classAttributeIconSize 0

class GetUnladenCenterMassController{
    +getUnLadenCenterOfMassOfShip(mmsi)
}

class Company {
    +getShipStore()
}

class ShipStore {
    +getShipByAnyCode(mmsi)
}


class Ship {
    +getTotalArea()
    +getCenterOfMassX()
    +getCenterOfMassY()
    +getCenterOfMass()
}

class Mass {
    +getX()
    +getY()
}

GetUnladenCenterMassController ..> Company
GetUnladenCenterMassController ..> ShipStore
GetUnladenCenterMassController ..> Ship
GetUnladenCenterMassController ..> Mass
Company "1" - - "1" ShipStore : uses >
ShipStore "1" - - "1..*" Ship : owns >
Ship "1" - - "1..*" Mass : has >
@enduml

PlantUML version 1.2021.11(Sat Oct 02 14:26:11 BST 2021)
(GPL source distribution)
Java Runtime: OpenJDK Runtime Environment
JVM: OpenJDK 64-Bit Server VM
Default Encoding: Cp1252
Language: pt
Country: PT
--></g></svg>