<?xml version="1.0" encoding="UTF-8" standalone="no"?><svg xmlns="http://www.w3.org/2000/svg" xmlns:xlink="http://www.w3.org/1999/xlink" contentScriptType="application/ecmascript" contentStyleType="text/css" height="316px" preserveAspectRatio="none" style="width:411px;height:316px;background:#FFFFFF;" version="1.1" viewBox="0 0 411 316" width="411px" zoomAndPan="magnify"><defs><filter height="300%" id="fcd6nfkyx320d" width="300%" x="-1" y="-1"><feGaussianBlur result="blurOut" stdDeviation="2.0"/><feColorMatrix in="blurOut" result="blurOut2" type="matrix" values="0 0 0 0 0 0 0 0 0 0 0 0 0 0 0 0 0 0 .4 0"/><feOffset dx="4.0" dy="4.0" in="blurOut2" result="blurOut3"/><feBlend in="SourceGraphic" in2="blurOut3" mode="normal"/></filter></defs><g><rect fill="#FFFFFF" filter="url(#fcd6nfkyx320d)" height="113.4063" style="stroke:#A80036;stroke-width:1.0;" width="10" x="43.5" y="99.6094"/><rect fill="#FFFFFF" filter="url(#fcd6nfkyx320d)" height="100.0547" style="stroke:#A80036;stroke-width:1.0;" width="10" x="362.5" y="121.9609"/><line style="stroke:#A80036;stroke-width:1.0;stroke-dasharray:5.0,5.0;" x1="48" x2="48" y1="89.6094" y2="231.0156"/><line style="stroke:#A80036;stroke-width:1.0;stroke-dasharray:5.0,5.0;" x1="367.5" x2="367.5" y1="89.6094" y2="231.0156"/><text fill="#000000" font-family="sans-serif" font-size="14" lengthAdjust="spacing" textLength="81" x="5" y="86.5332">Ship Captain</text><ellipse cx="48.5" cy="15" fill="#FEFECE" filter="url(#fcd6nfkyx320d)" rx="8" ry="8" style="stroke:#A80036;stroke-width:2.0;"/><path d="M48.5,23 L48.5,50 M35.5,31 L61.5,31 M48.5,50 L35.5,65 M48.5,50 L61.5,65 " fill="none" filter="url(#fcd6nfkyx320d)" style="stroke:#A80036;stroke-width:2.0;"/><text fill="#000000" font-family="sans-serif" font-size="14" lengthAdjust="spacing" textLength="81" x="5" y="244.5488">Ship Captain</text><ellipse cx="48.5" cy="257.625" fill="#FEFECE" filter="url(#fcd6nfkyx320d)" rx="8" ry="8" style="stroke:#A80036;stroke-width:2.0;"/><path d="M48.5,265.625 L48.5,292.625 M35.5,273.625 L61.5,273.625 M48.5,292.625 L35.5,307.625 M48.5,292.625 L61.5,307.625 " fill="none" filter="url(#fcd6nfkyx320d)" style="stroke:#A80036;stroke-width:2.0;"/><rect fill="#FEFECE" filter="url(#fcd6nfkyx320d)" height="31.6094" style="stroke:#A80036;stroke-width:1.5;" width="64" x="333.5" y="53"/><text fill="#000000" font-family="sans-serif" font-size="14" lengthAdjust="spacing" textLength="50" x="340.5" y="74.5332">:System</text><rect fill="#FEFECE" filter="url(#fcd6nfkyx320d)" height="31.6094" style="stroke:#A80036;stroke-width:1.5;" width="64" x="333.5" y="230.0156"/><text fill="#000000" font-family="sans-serif" font-size="14" lengthAdjust="spacing" textLength="50" x="340.5" y="251.5488">:System</text><rect fill="#FFFFFF" filter="url(#fcd6nfkyx320d)" height="113.4063" style="stroke:#A80036;stroke-width:1.0;" width="10" x="43.5" y="99.6094"/><rect fill="#FFFFFF" filter="url(#fcd6nfkyx320d)" height="100.0547" style="stroke:#A80036;stroke-width:1.0;" width="10" x="362.5" y="121.9609"/><polygon fill="#A80036" points="350.5,117.9609,360.5,121.9609,350.5,125.9609,354.5,121.9609" style="stroke:#A80036;stroke-width:1.0;"/><line style="stroke:#A80036;stroke-width:1.0;" x1="53.5" x2="356.5" y1="121.9609" y2="121.9609"/><text fill="#000000" font-family="sans-serif" font-size="13" font-weight="bold" lengthAdjust="spacing" textLength="7" x="60.5" y="117.1045">1</text><text fill="#000000" font-family="sans-serif" font-size="13" lengthAdjust="spacing" textLength="279" x="71.5" y="117.1045">asks to get the unladen center of mass of a ship</text><polygon fill="#A80036" points="64.5,148.3125,54.5,152.3125,64.5,156.3125,60.5,152.3125" style="stroke:#A80036;stroke-width:1.0;"/><line style="stroke:#A80036;stroke-width:1.0;stroke-dasharray:2.0,2.0;" x1="58.5" x2="361.5" y1="152.3125" y2="152.3125"/><text fill="#000000" font-family="sans-serif" font-size="13" font-weight="bold" lengthAdjust="spacing" textLength="7" x="70.5" y="147.4561">2</text><text fill="#000000" font-family="sans-serif" font-size="13" lengthAdjust="spacing" textLength="114" x="81.5" y="147.4561">requests ship mmsi</text><polygon fill="#A80036" points="350.5,178.6641,360.5,182.6641,350.5,186.6641,354.5,182.6641" style="stroke:#A80036;stroke-width:1.0;"/><line style="stroke:#A80036;stroke-width:1.0;" x1="53.5" x2="356.5" y1="182.6641" y2="182.6641"/><text fill="#000000" font-family="sans-serif" font-size="13" font-weight="bold" lengthAdjust="spacing" textLength="7" x="60.5" y="177.8076">3</text><text fill="#000000" font-family="sans-serif" font-size="13" lengthAdjust="spacing" textLength="96" x="71.5" y="177.8076">types ship mmsi</text><polygon fill="#A80036" points="59.5,209.0156,49.5,213.0156,59.5,217.0156,55.5,213.0156" style="stroke:#A80036;stroke-width:1.0;"/><line style="stroke:#A80036;stroke-width:1.0;stroke-dasharray:2.0,2.0;" x1="53.5" x2="361.5" y1="213.0156" y2="213.0156"/><text fill="#000000" font-family="sans-serif" font-size="13" font-weight="bold" lengthAdjust="spacing" textLength="7" x="65.5" y="208.1592">4</text><text fill="#000000" font-family="sans-serif" font-size="13" lengthAdjust="spacing" textLength="255" x="76.5" y="208.1592">returns successfully unladen center of mass</text><!--MD5=[ac9cb654db0b4eb0183c997198cbebbc]
@startuml
autonumber
actor "Ship Captain" as PM

activate PM
PM -> ":System" : asks to get the unladen center of mass of a ship

activate ":System"
":System" - -> PM : requests ship mmsi


PM -> ":System" : types ship mmsi


":System" - -> PM : returns successfully unladen center of mass




deactivate PM
@enduml

PlantUML version 1.2021.11(Sat Oct 02 14:26:11 BST 2021)
(GPL source distribution)
Java Runtime: OpenJDK Runtime Environment
JVM: OpenJDK 64-Bit Server VM
Default Encoding: Cp1252
Language: pt
Country: PT
--></g></svg>