<?xml version="1.0" encoding="UTF-8" standalone="no"?><svg xmlns="http://www.w3.org/2000/svg" xmlns:xlink="http://www.w3.org/1999/xlink" contentScriptType="application/ecmascript" contentStyleType="text/css" height="468px" preserveAspectRatio="none" style="width:241px;height:468px;background:#FFFFFF;" version="1.1" viewBox="0 0 241 468" width="241px" zoomAndPan="magnify"><defs><filter height="300%" id="f17riwqa7uv2eh" width="300%" x="-1" y="-1"><feGaussianBlur result="blurOut" stdDeviation="2.0"/><feColorMatrix in="blurOut" result="blurOut2" type="matrix" values="0 0 0 0 0 0 0 0 0 0 0 0 0 0 0 0 0 0 .4 0"/><feOffset dx="4.0" dy="4.0" in="blurOut2" result="blurOut3"/><feBlend in="SourceGraphic" in2="blurOut3" mode="normal"/></filter></defs><g><!--MD5=[02e4b9b7573f1156f41e60aa5b4e25a4]
class Company--><rect codeLine="6" fill="#FEFECE" filter="url(#f17riwqa7uv2eh)" height="32" id="Company" style="stroke:#A80036;stroke-width:1.5;" width="85" x="7" y="7"/><ellipse cx="22" cy="23" fill="#ADD1B2" rx="11" ry="11" style="stroke:#A80036;stroke-width:1.0;"/><path d="M24,19.5 Q24.2031,19 24.4375,18.75 Q24.6719,18.5 24.9375,18.5 Q25.4063,18.5 25.7031,18.7813 Q26,19.0625 26,19.7188 L26,21.2813 Q26,21.9375 25.7188,22.2188 Q25.4375,22.5 25,22.5 Q24.6094,22.5 24.3594,22.3281 Q24.1094,22.1563 24,21.7031 Q23.9531,21.3906 23.7813,21.2188 Q23.4688,20.8906 22.9063,20.7031 Q22.3438,20.5 21.7813,20.5 Q21.0781,20.5 20.4844,20.7813 Q19.9063,21.0625 19.4531,21.6875 Q19,22.3125 19,23.1719 L19,24.0938 Q19,25.125 19.8438,25.8125 Q20.6875,26.5 22.1875,26.5 Q23.0781,26.5 23.7031,26.2969 Q24.0625,26.1875 24.4688,25.8281 Q24.7344,25.625 24.875,25.5625 Q25.0156,25.5 25.1875,25.5 Q25.5156,25.5 25.75,25.7656 Q26,26.0156 26,26.375 Q26,26.7188 25.6563,27.125 Q25.1563,27.7188 24.3594,28.0469 Q23.3125,28.5 22.0313,28.5 Q20.5313,28.5 19.3281,27.9063 Q18.3594,27.4375 17.6719,26.4219 Q17,25.4063 17,24.2031 L17,23.1094 Q17,21.8594 17.5938,20.7656 Q18.2031,19.6719 19.25,19.0938 Q20.3125,18.5 21.5,18.5 Q22.2188,18.5 22.8438,18.75 Q23.4688,19 24,19.5 Z " fill="#000000"/><text fill="#000000" font-family="sans-serif" font-size="12" lengthAdjust="spacing" textLength="53" x="36" y="27.9102">Company</text><!--MD5=[e6b394b930674b2255938b8afe6bb7b4]
class ShipCaptain--><rect codeLine="8" fill="#FEFECE" filter="url(#f17riwqa7uv2eh)" height="32" id="ShipCaptain" style="stroke:#A80036;stroke-width:1.5;" width="100" x="127.5" y="7"/><ellipse cx="142.5" cy="23" fill="#ADD1B2" rx="11" ry="11" style="stroke:#A80036;stroke-width:1.0;"/><path d="M144.5,19.5 Q144.7031,19 144.9375,18.75 Q145.1719,18.5 145.4375,18.5 Q145.9063,18.5 146.2031,18.7813 Q146.5,19.0625 146.5,19.7188 L146.5,21.2813 Q146.5,21.9375 146.2188,22.2188 Q145.9375,22.5 145.5,22.5 Q145.1094,22.5 144.8594,22.3281 Q144.6094,22.1563 144.5,21.7031 Q144.4531,21.3906 144.2813,21.2188 Q143.9688,20.8906 143.4063,20.7031 Q142.8438,20.5 142.2813,20.5 Q141.5781,20.5 140.9844,20.7813 Q140.4063,21.0625 139.9531,21.6875 Q139.5,22.3125 139.5,23.1719 L139.5,24.0938 Q139.5,25.125 140.3438,25.8125 Q141.1875,26.5 142.6875,26.5 Q143.5781,26.5 144.2031,26.2969 Q144.5625,26.1875 144.9688,25.8281 Q145.2344,25.625 145.375,25.5625 Q145.5156,25.5 145.6875,25.5 Q146.0156,25.5 146.25,25.7656 Q146.5,26.0156 146.5,26.375 Q146.5,26.7188 146.1563,27.125 Q145.6563,27.7188 144.8594,28.0469 Q143.8125,28.5 142.5313,28.5 Q141.0313,28.5 139.8281,27.9063 Q138.8594,27.4375 138.1719,26.4219 Q137.5,25.4063 137.5,24.2031 L137.5,23.1094 Q137.5,21.8594 138.0938,20.7656 Q138.7031,19.6719 139.75,19.0938 Q140.8125,18.5 142,18.5 Q142.7188,18.5 143.3438,18.75 Q143.9688,19 144.5,19.5 Z " fill="#000000"/><text fill="#000000" font-family="sans-serif" font-size="12" lengthAdjust="spacing" textLength="68" x="156.5" y="27.9102">ShipCaptain</text><!--MD5=[0dc7f2ddb409b58bcf52b12238c25399]
class Ship--><rect codeLine="10" fill="#FEFECE" filter="url(#f17riwqa7uv2eh)" height="178.3594" id="Ship" style="stroke:#A80036;stroke-width:1.5;" width="72" x="77.5" y="117"/><ellipse cx="99.25" cy="133" fill="#ADD1B2" rx="11" ry="11" style="stroke:#A80036;stroke-width:1.0;"/><path d="M101.25,129.5 Q101.4531,129 101.6875,128.75 Q101.9219,128.5 102.1875,128.5 Q102.6563,128.5 102.9531,128.7813 Q103.25,129.0625 103.25,129.7188 L103.25,131.2813 Q103.25,131.9375 102.9688,132.2188 Q102.6875,132.5 102.25,132.5 Q101.8594,132.5 101.6094,132.3281 Q101.3594,132.1563 101.25,131.7031 Q101.2031,131.3906 101.0313,131.2188 Q100.7188,130.8906 100.1563,130.7031 Q99.5938,130.5 99.0313,130.5 Q98.3281,130.5 97.7344,130.7813 Q97.1563,131.0625 96.7031,131.6875 Q96.25,132.3125 96.25,133.1719 L96.25,134.0938 Q96.25,135.125 97.0938,135.8125 Q97.9375,136.5 99.4375,136.5 Q100.3281,136.5 100.9531,136.2969 Q101.3125,136.1875 101.7188,135.8281 Q101.9844,135.625 102.125,135.5625 Q102.2656,135.5 102.4375,135.5 Q102.7656,135.5 103,135.7656 Q103.25,136.0156 103.25,136.375 Q103.25,136.7188 102.9063,137.125 Q102.4063,137.7188 101.6094,138.0469 Q100.5625,138.5 99.2813,138.5 Q97.7813,138.5 96.5781,137.9063 Q95.6094,137.4375 94.9219,136.4219 Q94.25,135.4063 94.25,134.2031 L94.25,133.1094 Q94.25,131.8594 94.8438,130.7656 Q95.4531,129.6719 96.5,129.0938 Q97.5625,128.5 98.75,128.5 Q99.4688,128.5 100.0938,128.75 Q100.7188,129 101.25,129.5 Z " fill="#000000"/><text fill="#000000" font-family="sans-serif" font-size="12" lengthAdjust="spacing" textLength="25" x="114.75" y="137.9102">Ship</text><line style="stroke:#A80036;stroke-width:1.5;" x1="78.5" x2="148.5" y1="149" y2="149"/><text fill="#000000" font-family="sans-serif" font-size="11" lengthAdjust="spacing" textLength="28" x="83.5" y="164.4189">-mmsi</text><text fill="#000000" font-family="sans-serif" font-size="11" lengthAdjust="spacing" textLength="20" x="83.5" y="178.2549">-imo</text><text fill="#000000" font-family="sans-serif" font-size="11" lengthAdjust="spacing" textLength="41" x="83.5" y="192.0908">-callSign</text><text fill="#000000" font-family="sans-serif" font-size="11" lengthAdjust="spacing" textLength="51" x="83.5" y="205.9268">-shipName</text><text fill="#000000" font-family="sans-serif" font-size="11" lengthAdjust="spacing" textLength="60" x="83.5" y="219.7627">-vesselType</text><text fill="#000000" font-family="sans-serif" font-size="11" lengthAdjust="spacing" textLength="33" x="83.5" y="233.5986">-length</text><text fill="#000000" font-family="sans-serif" font-size="11" lengthAdjust="spacing" textLength="31" x="83.5" y="247.4346">-width</text><text fill="#000000" font-family="sans-serif" font-size="11" lengthAdjust="spacing" textLength="27" x="83.5" y="261.2705">-draft</text><text fill="#000000" font-family="sans-serif" font-size="11" lengthAdjust="spacing" textLength="32" x="83.5" y="275.1064">-cargo</text><text fill="#000000" font-family="sans-serif" font-size="11" lengthAdjust="spacing" textLength="50" x="83.5" y="288.9424">-totalMass</text><!--MD5=[ef7c79de33a8df0acce34aecd8d239d2]
class Mass--><rect codeLine="23" fill="#FEFECE" filter="url(#f17riwqa7uv2eh)" height="81.5078" id="Mass" style="stroke:#A80036;stroke-width:1.5;" width="62" x="82.5" y="373"/><ellipse cx="97.5" cy="389" fill="#ADD1B2" rx="11" ry="11" style="stroke:#A80036;stroke-width:1.0;"/><path d="M99.5,385.5 Q99.7031,385 99.9375,384.75 Q100.1719,384.5 100.4375,384.5 Q100.9063,384.5 101.2031,384.7813 Q101.5,385.0625 101.5,385.7188 L101.5,387.2813 Q101.5,387.9375 101.2188,388.2188 Q100.9375,388.5 100.5,388.5 Q100.1094,388.5 99.8594,388.3281 Q99.6094,388.1563 99.5,387.7031 Q99.4531,387.3906 99.2813,387.2188 Q98.9688,386.8906 98.4063,386.7031 Q97.8438,386.5 97.2813,386.5 Q96.5781,386.5 95.9844,386.7813 Q95.4063,387.0625 94.9531,387.6875 Q94.5,388.3125 94.5,389.1719 L94.5,390.0938 Q94.5,391.125 95.3438,391.8125 Q96.1875,392.5 97.6875,392.5 Q98.5781,392.5 99.2031,392.2969 Q99.5625,392.1875 99.9688,391.8281 Q100.2344,391.625 100.375,391.5625 Q100.5156,391.5 100.6875,391.5 Q101.0156,391.5 101.25,391.7656 Q101.5,392.0156 101.5,392.375 Q101.5,392.7188 101.1563,393.125 Q100.6563,393.7188 99.8594,394.0469 Q98.8125,394.5 97.5313,394.5 Q96.0313,394.5 94.8281,393.9063 Q93.8594,393.4375 93.1719,392.4219 Q92.5,391.4063 92.5,390.2031 L92.5,389.1094 Q92.5,387.8594 93.0938,386.7656 Q93.7031,385.6719 94.75,385.0938 Q95.8125,384.5 97,384.5 Q97.7188,384.5 98.3438,384.75 Q98.9688,385 99.5,385.5 Z " fill="#000000"/><text fill="#000000" font-family="sans-serif" font-size="12" lengthAdjust="spacing" textLength="30" x="111.5" y="393.9102">Mass</text><line style="stroke:#A80036;stroke-width:1.5;" x1="83.5" x2="143.5" y1="405" y2="405"/><text fill="#000000" font-family="sans-serif" font-size="11" lengthAdjust="spacing" textLength="10" x="88.5" y="420.4189">-x</text><text fill="#000000" font-family="sans-serif" font-size="11" lengthAdjust="spacing" textLength="33" x="88.5" y="434.2549">-length</text><text fill="#000000" font-family="sans-serif" font-size="11" lengthAdjust="spacing" textLength="31" x="88.5" y="448.0908">-width</text><!--MD5=[37a14a5de6d6fd738aee271300f4b5c8]
link Company to Ship--><path codeLine="29" d="M54.85,39.12 C61.04,56.62 71.74,86.89 82.32,116.83 " fill="none" id="Company-Ship" style="stroke:#A80036;stroke-width:1.0;"/><polygon fill="#000000" points="77.1664,82.8899,76.9227,73.3825,71.3809,75.3415,77.1664,82.8899" style="stroke:#000000;stroke-width:1.0;"/><text fill="#000000" font-family="sans-serif" font-size="13" lengthAdjust="spacing" textLength="30" x="84.5" y="83.4951">owns</text><text fill="#000000" font-family="sans-serif" font-size="13" lengthAdjust="spacing" textLength="7" x="48.4397" y="60.3594">1</text><text fill="#000000" font-family="sans-serif" font-size="13" lengthAdjust="spacing" textLength="20" x="58.9098" y="106.2779">1..*</text><!--MD5=[f065240a342e449619d6d797ab4a538f]
link ShipCaptain to Ship--><path codeLine="30" d="M172.15,39.12 C165.96,56.62 155.26,86.89 144.68,116.83 " fill="none" id="ShipCaptain-Ship" style="stroke:#A80036;stroke-width:1.0;"/><polygon fill="#000000" points="162.8336,82.8899,168.6191,75.3415,163.0773,73.3825,162.8336,82.8899" style="stroke:#000000;stroke-width:1.0;"/><text fill="#000000" font-family="sans-serif" font-size="13" lengthAdjust="spacing" textLength="52" x="173.5" y="83.4951">analyses</text><text fill="#000000" font-family="sans-serif" font-size="13" lengthAdjust="spacing" textLength="7" x="162.3291" y="60.3594">1</text><text fill="#000000" font-family="sans-serif" font-size="13" lengthAdjust="spacing" textLength="20" x="126.434" y="106.2779">1..*</text><!--MD5=[30426b127282942d2eb39f81d28d7a9c]
link Ship to Mass--><path codeLine="31" d="M113.5,295.26 C113.5,322.34 113.5,350.81 113.5,372.97 " fill="none" id="Ship-Mass" style="stroke:#A80036;stroke-width:1.0;"/><polygon fill="#000000" points="118.5,339.1758,121.4389,330.1307,115.5611,330.1307,118.5,339.1758" style="stroke:#000000;stroke-width:1.0;"/><text fill="#000000" font-family="sans-serif" font-size="13" lengthAdjust="spacing" textLength="21" x="127.5" y="339.4951">has</text><text fill="#000000" font-family="sans-serif" font-size="13" lengthAdjust="spacing" textLength="7" x="106.2102" y="316.8091">1</text><text fill="#000000" font-family="sans-serif" font-size="13" lengthAdjust="spacing" textLength="20" x="91.7813" y="362.1106">1..*</text><!--MD5=[91de119bcca58c95faec873b9f74338c]
@startuml

hide empty methods
hide empty attributes
skinparam classAttributeIconSize 0

class Company{}

class ShipCaptain{}

class Ship {
    -mmsi
    -imo
    -callSign
    -shipName
    -vesselType
    -length
    -width
    -draft
    -cargo
    -totalMass
}

class Mass {
    - x
    - length
    - width
}

Company "1" - - "1..*" Ship : owns >
ShipCaptain "1" - - "1..*" Ship : analyses >
Ship "1" - - "1..*" Mass : has >

@enduml

PlantUML version 1.2021.11(Sat Oct 02 14:26:11 BST 2021)
(GPL source distribution)
Java Runtime: OpenJDK Runtime Environment
JVM: OpenJDK 64-Bit Server VM
Default Encoding: Cp1252
Language: pt
Country: PT
--></g></svg>