<?xml version="1.0" encoding="UTF-8" standalone="no"?><svg xmlns="http://www.w3.org/2000/svg" xmlns:xlink="http://www.w3.org/1999/xlink" contentScriptType="application/ecmascript" contentStyleType="text/css" height="558px" preserveAspectRatio="none" style="width:1019px;height:558px;background:#FFFFFF;" version="1.1" viewBox="0 0 1019 558" width="1019px" zoomAndPan="magnify"><defs><filter height="300%" id="f1tpr81sdg0lfo" width="300%" x="-1" y="-1"><feGaussianBlur result="blurOut" stdDeviation="2.0"/><feColorMatrix in="blurOut" result="blurOut2" type="matrix" values="0 0 0 0 0 0 0 0 0 0 0 0 0 0 0 0 0 0 .4 0"/><feOffset dx="4.0" dy="4.0" in="blurOut2" result="blurOut3"/><feBlend in="SourceGraphic" in2="blurOut3" mode="normal"/></filter></defs><g><rect fill="#FFFFFF" filter="url(#f1tpr81sdg0lfo)" height="355.1641" style="stroke:#A80036;stroke-width:1.0;" width="10" x="46" y="99.6094"/><rect fill="#FFFFFF" filter="url(#f1tpr81sdg0lfo)" height="341.8125" style="stroke:#A80036;stroke-width:1.0;" width="10" x="365" y="121.9609"/><rect fill="#FFFFFF" filter="url(#f1tpr81sdg0lfo)" height="250.7578" style="stroke:#A80036;stroke-width:1.0;" width="10" x="625" y="213.0156"/><rect fill="#FFFFFF" filter="url(#f1tpr81sdg0lfo)" height="30" style="stroke:#A80036;stroke-width:1.0;" width="10" x="819" y="243.3672"/><rect fill="#FFFFFF" filter="url(#f1tpr81sdg0lfo)" height="30" style="stroke:#A80036;stroke-width:1.0;" width="10" x="908" y="303.7188"/><rect fill="#FFFFFF" filter="url(#f1tpr81sdg0lfo)" height="30" style="stroke:#A80036;stroke-width:1.0;" width="10" x="981" y="364.0703"/><line style="stroke:#A80036;stroke-width:1.0;stroke-dasharray:5.0,5.0;" x1="51" x2="51" y1="89.6094" y2="472.7734"/><line style="stroke:#A80036;stroke-width:1.0;stroke-dasharray:5.0,5.0;" x1="369.5" x2="369.5" y1="89.6094" y2="472.7734"/><line style="stroke:#A80036;stroke-width:1.0;stroke-dasharray:5.0,5.0;" x1="629.5" x2="629.5" y1="89.6094" y2="472.7734"/><line style="stroke:#A80036;stroke-width:1.0;stroke-dasharray:5.0,5.0;" x1="824" x2="824" y1="89.6094" y2="472.7734"/><line style="stroke:#A80036;stroke-width:1.0;stroke-dasharray:5.0,5.0;" x1="913" x2="913" y1="89.6094" y2="472.7734"/><line style="stroke:#A80036;stroke-width:1.0;stroke-dasharray:5.0,5.0;" x1="986" x2="986" y1="89.6094" y2="472.7734"/><text fill="#000000" font-family="sans-serif" font-size="14" lengthAdjust="spacing" textLength="86" x="5" y="86.5332">Port Manager</text><ellipse cx="51" cy="15" fill="#FEFECE" filter="url(#f1tpr81sdg0lfo)" rx="8" ry="8" style="stroke:#A80036;stroke-width:2.0;"/><path d="M51,23 L51,50 M38,31 L64,31 M51,50 L38,65 M51,50 L64,65 " fill="none" filter="url(#f1tpr81sdg0lfo)" style="stroke:#A80036;stroke-width:2.0;"/><text fill="#000000" font-family="sans-serif" font-size="14" lengthAdjust="spacing" textLength="86" x="5" y="486.3066">Port Manager</text><ellipse cx="51" cy="499.3828" fill="#FEFECE" filter="url(#f1tpr81sdg0lfo)" rx="8" ry="8" style="stroke:#A80036;stroke-width:2.0;"/><path d="M51,507.3828 L51,534.3828 M38,515.3828 L64,515.3828 M51,534.3828 L38,549.3828 M51,534.3828 L64,549.3828 " fill="none" filter="url(#f1tpr81sdg0lfo)" style="stroke:#A80036;stroke-width:2.0;"/><rect fill="#FEFECE" filter="url(#f1tpr81sdg0lfo)" height="31.6094" style="stroke:#A80036;stroke-width:1.5;" width="177" x="279.5" y="53"/><text fill="#000000" font-family="sans-serif" font-size="14" lengthAdjust="spacing" textLength="163" x="286.5" y="74.5332">GetUnladenCenterMassUI</text><rect fill="#FEFECE" filter="url(#f1tpr81sdg0lfo)" height="31.6094" style="stroke:#A80036;stroke-width:1.5;" width="177" x="279.5" y="471.7734"/><text fill="#000000" font-family="sans-serif" font-size="14" lengthAdjust="spacing" textLength="163" x="286.5" y="493.3066">GetUnladenCenterMassUI</text><rect fill="#FEFECE" filter="url(#f1tpr81sdg0lfo)" height="31.6094" style="stroke:#A80036;stroke-width:1.5;" width="227" x="514.5" y="53"/><text fill="#000000" font-family="sans-serif" font-size="14" lengthAdjust="spacing" textLength="213" x="521.5" y="74.5332">GetUnladenCenterMassController</text><rect fill="#FEFECE" filter="url(#f1tpr81sdg0lfo)" height="31.6094" style="stroke:#A80036;stroke-width:1.5;" width="227" x="514.5" y="471.7734"/><text fill="#000000" font-family="sans-serif" font-size="14" lengthAdjust="spacing" textLength="213" x="521.5" y="493.3066">GetUnladenCenterMassController</text><rect fill="#FEFECE" filter="url(#f1tpr81sdg0lfo)" height="31.6094" style="stroke:#A80036;stroke-width:1.5;" width="74" x="785" y="53"/><text fill="#000000" font-family="sans-serif" font-size="14" lengthAdjust="spacing" textLength="60" x="792" y="74.5332">Company</text><rect fill="#FEFECE" filter="url(#f1tpr81sdg0lfo)" height="31.6094" style="stroke:#A80036;stroke-width:1.5;" width="74" x="785" y="471.7734"/><text fill="#000000" font-family="sans-serif" font-size="14" lengthAdjust="spacing" textLength="60" x="792" y="493.3066">Company</text><rect fill="#FEFECE" filter="url(#f1tpr81sdg0lfo)" height="31.6094" style="stroke:#A80036;stroke-width:1.5;" width="76" x="873" y="53"/><text fill="#000000" font-family="sans-serif" font-size="14" lengthAdjust="spacing" textLength="62" x="880" y="74.5332">ShipStore</text><rect fill="#FEFECE" filter="url(#f1tpr81sdg0lfo)" height="31.6094" style="stroke:#A80036;stroke-width:1.5;" width="76" x="873" y="471.7734"/><text fill="#000000" font-family="sans-serif" font-size="14" lengthAdjust="spacing" textLength="62" x="880" y="493.3066">ShipStore</text><rect fill="#FEFECE" filter="url(#f1tpr81sdg0lfo)" height="31.6094" style="stroke:#A80036;stroke-width:1.5;" width="42" x="963" y="53"/><text fill="#000000" font-family="sans-serif" font-size="14" lengthAdjust="spacing" textLength="28" x="970" y="74.5332">Ship</text><rect fill="#FEFECE" filter="url(#f1tpr81sdg0lfo)" height="31.6094" style="stroke:#A80036;stroke-width:1.5;" width="42" x="963" y="471.7734"/><text fill="#000000" font-family="sans-serif" font-size="14" lengthAdjust="spacing" textLength="28" x="970" y="493.3066">Ship</text><rect fill="#FFFFFF" filter="url(#f1tpr81sdg0lfo)" height="355.1641" style="stroke:#A80036;stroke-width:1.0;" width="10" x="46" y="99.6094"/><rect fill="#FFFFFF" filter="url(#f1tpr81sdg0lfo)" height="341.8125" style="stroke:#A80036;stroke-width:1.0;" width="10" x="365" y="121.9609"/><rect fill="#FFFFFF" filter="url(#f1tpr81sdg0lfo)" height="250.7578" style="stroke:#A80036;stroke-width:1.0;" width="10" x="625" y="213.0156"/><rect fill="#FFFFFF" filter="url(#f1tpr81sdg0lfo)" height="30" style="stroke:#A80036;stroke-width:1.0;" width="10" x="819" y="243.3672"/><rect fill="#FFFFFF" filter="url(#f1tpr81sdg0lfo)" height="30" style="stroke:#A80036;stroke-width:1.0;" width="10" x="908" y="303.7188"/><rect fill="#FFFFFF" filter="url(#f1tpr81sdg0lfo)" height="30" style="stroke:#A80036;stroke-width:1.0;" width="10" x="981" y="364.0703"/><polygon fill="#A80036" points="353,117.9609,363,121.9609,353,125.9609,357,121.9609" style="stroke:#A80036;stroke-width:1.0;"/><line style="stroke:#A80036;stroke-width:1.0;" x1="56" x2="359" y1="121.9609" y2="121.9609"/><text fill="#000000" font-family="sans-serif" font-size="13" font-weight="bold" lengthAdjust="spacing" textLength="7" x="63" y="117.1045">1</text><text fill="#000000" font-family="sans-serif" font-size="13" lengthAdjust="spacing" textLength="279" x="74" y="117.1045">asks to get the unladen center of mass of a ship</text><polygon fill="#A80036" points="67,148.3125,57,152.3125,67,156.3125,63,152.3125" style="stroke:#A80036;stroke-width:1.0;"/><line style="stroke:#A80036;stroke-width:1.0;stroke-dasharray:2.0,2.0;" x1="61" x2="364" y1="152.3125" y2="152.3125"/><text fill="#000000" font-family="sans-serif" font-size="13" font-weight="bold" lengthAdjust="spacing" textLength="7" x="73" y="147.4561">2</text><text fill="#000000" font-family="sans-serif" font-size="13" lengthAdjust="spacing" textLength="114" x="84" y="147.4561">requests ship mmsi</text><polygon fill="#A80036" points="353,178.6641,363,182.6641,353,186.6641,357,182.6641" style="stroke:#A80036;stroke-width:1.0;"/><line style="stroke:#A80036;stroke-width:1.0;" x1="56" x2="359" y1="182.6641" y2="182.6641"/><text fill="#000000" font-family="sans-serif" font-size="13" font-weight="bold" lengthAdjust="spacing" textLength="7" x="63" y="177.8076">3</text><text fill="#000000" font-family="sans-serif" font-size="13" lengthAdjust="spacing" textLength="96" x="74" y="177.8076">types ship mmsi</text><polygon fill="#A80036" points="613,209.0156,623,213.0156,613,217.0156,617,213.0156" style="stroke:#A80036;stroke-width:1.0;"/><line style="stroke:#A80036;stroke-width:1.0;" x1="375" x2="619" y1="213.0156" y2="213.0156"/><text fill="#000000" font-family="sans-serif" font-size="13" font-weight="bold" lengthAdjust="spacing" textLength="7" x="382" y="208.1592">4</text><text fill="#000000" font-family="sans-serif" font-size="13" lengthAdjust="spacing" textLength="220" x="393" y="208.1592">getUnladeCenterOfMassOfShip(mmsi)</text><polygon fill="#A80036" points="807,239.3672,817,243.3672,807,247.3672,811,243.3672" style="stroke:#A80036;stroke-width:1.0;"/><line style="stroke:#A80036;stroke-width:1.0;" x1="635" x2="813" y1="243.3672" y2="243.3672"/><text fill="#000000" font-family="sans-serif" font-size="13" font-weight="bold" lengthAdjust="spacing" textLength="7" x="642" y="238.5107">5</text><text fill="#000000" font-family="sans-serif" font-size="13" lengthAdjust="spacing" textLength="154" x="653" y="238.5107">shipStore = getShipStore()</text><polygon fill="#A80036" points="896,299.7188,906,303.7188,896,307.7188,900,303.7188" style="stroke:#A80036;stroke-width:1.0;"/><line style="stroke:#A80036;stroke-width:1.0;" x1="635" x2="902" y1="303.7188" y2="303.7188"/><text fill="#000000" font-family="sans-serif" font-size="13" font-weight="bold" lengthAdjust="spacing" textLength="7" x="642" y="298.8623">6</text><text fill="#000000" font-family="sans-serif" font-size="13" lengthAdjust="spacing" textLength="193" x="653" y="298.8623">ship = getShipByAnyCode(mmsi)</text><polygon fill="#A80036" points="969,360.0703,979,364.0703,969,368.0703,973,364.0703" style="stroke:#A80036;stroke-width:1.0;"/><line style="stroke:#A80036;stroke-width:1.0;" x1="635" x2="975" y1="364.0703" y2="364.0703"/><text fill="#000000" font-family="sans-serif" font-size="13" font-weight="bold" lengthAdjust="spacing" textLength="7" x="642" y="359.2139">7</text><text fill="#000000" font-family="sans-serif" font-size="13" lengthAdjust="spacing" textLength="300" x="653" y="359.2139">unladenCenterOfMass = getUnladenCenterOfMass()</text><polygon fill="#A80036" points="386,420.4219,376,424.4219,386,428.4219,382,424.4219" style="stroke:#A80036;stroke-width:1.0;"/><line style="stroke:#A80036;stroke-width:1.0;stroke-dasharray:2.0,2.0;" x1="380" x2="624" y1="424.4219" y2="424.4219"/><text fill="#000000" font-family="sans-serif" font-size="13" font-weight="bold" lengthAdjust="spacing" textLength="7" x="392" y="419.5654">8</text><text fill="#000000" font-family="sans-serif" font-size="13" lengthAdjust="spacing" textLength="128" x="403" y="419.5654">unladenCenterOfMass</text><polygon fill="#A80036" points="62,450.7734,52,454.7734,62,458.7734,58,454.7734" style="stroke:#A80036;stroke-width:1.0;"/><line style="stroke:#A80036;stroke-width:1.0;stroke-dasharray:2.0,2.0;" x1="56" x2="364" y1="454.7734" y2="454.7734"/><text fill="#000000" font-family="sans-serif" font-size="13" font-weight="bold" lengthAdjust="spacing" textLength="7" x="68" y="449.917">9</text><text fill="#000000" font-family="sans-serif" font-size="13" lengthAdjust="spacing" textLength="106" x="79" y="449.917">operation success</text><!--MD5=[0f8525f63a354e7083c1df9fb37a5982]
@startuml
autonumber
actor "Port Manager" as PM
participant GetUnladenCenterMassUI as UI
participant GetUnladenCenterMassController as CTRL
participant "Company" as COMP
participant "ShipStore" as STORE
participant "Ship" as SHIP


activate PM
PM -> UI : asks to get the unladen center of mass of a ship

activate UI
UI - -> PM : requests ship mmsi


PM -> UI : types ship mmsi

UI -> CTRL : getUnladeCenterOfMassOfShip(mmsi)
activate CTRL

CTRL -> COMP : shipStore = getShipStore()
activate COMP
deactivate COMP

CTRL -> STORE : ship = getShipByAnyCode(mmsi)
activate STORE
deactivate STORE

CTRL -> SHIP : unladenCenterOfMass = getCenterOfMass()
activate SHIP
deactivate SHIP

CTRL - -> UI : unladenCenterOfMass

UI - -> PM : operation success

deactivate PM
@enduml

PlantUML version 1.2021.11(Sat Oct 02 14:26:11 BST 2021)
(GPL source distribution)
Java Runtime: OpenJDK Runtime Environment
JVM: OpenJDK 64-Bit Server VM
Default Encoding: Cp1252
Language: pt
Country: PT
--></g></svg>