<?xml version="1.0" encoding="UTF-8" standalone="no"?><svg xmlns="http://www.w3.org/2000/svg" xmlns:xlink="http://www.w3.org/1999/xlink" contentScriptType="application/ecmascript" contentStyleType="text/css" height="2497px" preserveAspectRatio="none" style="width:1491px;height:2497px;background:#FFFFFF;" version="1.1" viewBox="0 0 1491 2497" width="1491px" zoomAndPan="magnify"><defs><filter height="300%" id="f3e91w17p2e4g" width="300%" x="-1" y="-1"><feGaussianBlur result="blurOut" stdDeviation="2.0"/><feColorMatrix in="blurOut" result="blurOut2" type="matrix" values="0 0 0 0 0 0 0 0 0 0 0 0 0 0 0 0 0 0 .4 0"/><feOffset dx="4.0" dy="4.0" in="blurOut2" result="blurOut3"/><feBlend in="SourceGraphic" in2="blurOut3" mode="normal"/></filter></defs><g><rect fill="#FFFFFF" filter="url(#f3e91w17p2e4g)" height="2294.3516" style="stroke:#A80036;stroke-width:1.0;" width="10" x="46" y="99.6094"/><rect fill="#FFFFFF" filter="url(#f3e91w17p2e4g)" height="30.3516" style="stroke:#A80036;stroke-width:1.0;" width="10" x="594" y="121.9609"/><rect fill="#FFFFFF" filter="url(#f3e91w17p2e4g)" height="2211.2969" style="stroke:#A80036;stroke-width:1.0;" width="10" x="594" y="182.6641"/><rect fill="#FFFFFF" filter="url(#f3e91w17p2e4g)" height="2150.5938" style="stroke:#A80036;stroke-width:1.0;" width="10" x="862" y="213.0156"/><rect fill="#FFFFFF" filter="url(#f3e91w17p2e4g)" height="443.1094" style="stroke:#A80036;stroke-width:1.0;" width="10" x="867" y="302.0703"/><rect fill="#FFFFFF" filter="url(#f3e91w17p2e4g)" height="327.4063" style="stroke:#A80036;stroke-width:1.0;" width="10" x="872" y="370.7734"/><rect fill="#FFFFFF" filter="url(#f3e91w17p2e4g)" height="28" style="stroke:#A80036;stroke-width:1.0;" width="10" x="877" y="670.1797"/><rect fill="#FFFFFF" filter="url(#f3e91w17p2e4g)" height="443.1094" style="stroke:#A80036;stroke-width:1.0;" width="10" x="867" y="791.3672"/><rect fill="#FFFFFF" filter="url(#f3e91w17p2e4g)" height="327.4063" style="stroke:#A80036;stroke-width:1.0;" width="10" x="872" y="860.0703"/><rect fill="#FFFFFF" filter="url(#f3e91w17p2e4g)" height="28" style="stroke:#A80036;stroke-width:1.0;" width="10" x="877" y="1159.4766"/><rect fill="#FFFFFF" filter="url(#f3e91w17p2e4g)" height="443.1094" style="stroke:#A80036;stroke-width:1.0;" width="10" x="867" y="1280.6641"/><rect fill="#FFFFFF" filter="url(#f3e91w17p2e4g)" height="327.4063" style="stroke:#A80036;stroke-width:1.0;" width="10" x="872" y="1349.3672"/><rect fill="#FFFFFF" filter="url(#f3e91w17p2e4g)" height="28" style="stroke:#A80036;stroke-width:1.0;" width="10" x="877" y="1648.7734"/><rect fill="#FFFFFF" filter="url(#f3e91w17p2e4g)" height="443.1094" style="stroke:#A80036;stroke-width:1.0;" width="10" x="867" y="1769.9609"/><rect fill="#FFFFFF" filter="url(#f3e91w17p2e4g)" height="327.4063" style="stroke:#A80036;stroke-width:1.0;" width="10" x="872" y="1838.6641"/><rect fill="#FFFFFF" filter="url(#f3e91w17p2e4g)" height="28" style="stroke:#A80036;stroke-width:1.0;" width="10" x="877" y="2138.0703"/><rect fill="#FFFFFF" filter="url(#f3e91w17p2e4g)" height="28" style="stroke:#A80036;stroke-width:1.0;" width="10" x="867" y="2266.2578"/><rect fill="#FFFFFF" filter="url(#f3e91w17p2e4g)" height="30" style="stroke:#A80036;stroke-width:1.0;" width="10" x="1290" y="406.125"/><rect fill="#FFFFFF" filter="url(#f3e91w17p2e4g)" height="30" style="stroke:#A80036;stroke-width:1.0;" width="10" x="1290" y="895.4219"/><rect fill="#FFFFFF" filter="url(#f3e91w17p2e4g)" height="30" style="stroke:#A80036;stroke-width:1.0;" width="10" x="1290" y="1384.7188"/><rect fill="#FFFFFF" filter="url(#f3e91w17p2e4g)" height="30" style="stroke:#A80036;stroke-width:1.0;" width="10" x="1290" y="1874.0156"/><rect fill="#FFFFFF" filter="url(#f3e91w17p2e4g)" height="30" style="stroke:#A80036;stroke-width:1.0;" width="10" x="1391.5" y="491.4766"/><rect fill="#FFFFFF" filter="url(#f3e91w17p2e4g)" height="30" style="stroke:#A80036;stroke-width:1.0;" width="10" x="1391.5" y="576.8281"/><rect fill="#FFFFFF" filter="url(#f3e91w17p2e4g)" height="30" style="stroke:#A80036;stroke-width:1.0;" width="10" x="1391.5" y="980.7734"/><rect fill="#FFFFFF" filter="url(#f3e91w17p2e4g)" height="30" style="stroke:#A80036;stroke-width:1.0;" width="10" x="1391.5" y="1066.125"/><rect fill="#FFFFFF" filter="url(#f3e91w17p2e4g)" height="30" style="stroke:#A80036;stroke-width:1.0;" width="10" x="1391.5" y="1470.0703"/><rect fill="#FFFFFF" filter="url(#f3e91w17p2e4g)" height="30" style="stroke:#A80036;stroke-width:1.0;" width="10" x="1391.5" y="1555.4219"/><rect fill="#FFFFFF" filter="url(#f3e91w17p2e4g)" height="30" style="stroke:#A80036;stroke-width:1.0;" width="10" x="1391.5" y="1959.3672"/><rect fill="#FFFFFF" filter="url(#f3e91w17p2e4g)" height="30" style="stroke:#A80036;stroke-width:1.0;" width="10" x="1391.5" y="2044.7188"/><rect fill="#FFFFFF" filter="url(#f3e91w17p2e4g)" height="2106.2422" style="stroke:#000000;stroke-width:2.0;" width="764.5" x="712.5" y="228.0156"/><rect fill="#FFFFFF" filter="url(#f3e91w17p2e4g)" height="1959.7031" style="stroke:#000000;stroke-width:2.0;" width="744.5" x="722.5" y="253.3672"/><rect fill="#FFFFFF" filter="url(#f3e91w17p2e4g)" height="416.1094" style="stroke:#000000;stroke-width:2.0;" width="724.5" x="732.5" y="322.0703"/><rect fill="#FFFFFF" height="489.2969" style="stroke:none;stroke-width:1.0;" width="744.5" x="722.5" y="745.1797"/><rect fill="#FFFFFF" filter="url(#f3e91w17p2e4g)" height="416.1094" style="stroke:#000000;stroke-width:2.0;" width="724.5" x="732.5" y="811.3672"/><rect fill="#FFFFFF" height="489.2969" style="stroke:none;stroke-width:1.0;" width="744.5" x="722.5" y="1234.4766"/><rect fill="#FFFFFF" filter="url(#f3e91w17p2e4g)" height="416.1094" style="stroke:#000000;stroke-width:2.0;" width="724.5" x="732.5" y="1300.6641"/><rect fill="#FFFFFF" height="489.2969" style="stroke:none;stroke-width:1.0;" width="744.5" x="722.5" y="1723.7734"/><rect fill="#FFFFFF" filter="url(#f3e91w17p2e4g)" height="416.1094" style="stroke:#000000;stroke-width:2.0;" width="724.5" x="732.5" y="1789.9609"/><rect fill="#FFFFFF" height="114.1875" style="stroke:none;stroke-width:1.0;" width="764.5" x="712.5" y="2220.0703"/><line style="stroke:#A80036;stroke-width:1.0;stroke-dasharray:5.0,5.0;" x1="51" x2="51" y1="89.6094" y2="2411.9609"/><line style="stroke:#A80036;stroke-width:1.0;stroke-dasharray:5.0,5.0;" x1="598.5" x2="598.5" y1="89.6094" y2="2411.9609"/><line style="stroke:#A80036;stroke-width:1.0;stroke-dasharray:5.0,5.0;" x1="866.5" x2="866.5" y1="89.6094" y2="2411.9609"/><line style="stroke:#A80036;stroke-width:1.0;stroke-dasharray:5.0,5.0;" x1="1295" x2="1295" y1="89.6094" y2="2411.9609"/><line style="stroke:#A80036;stroke-width:1.0;stroke-dasharray:5.0,5.0;" x1="1396" x2="1396" y1="89.6094" y2="2411.9609"/><text fill="#000000" font-family="sans-serif" font-size="14" lengthAdjust="spacing" textLength="86" x="5" y="86.5332">Port Manager</text><ellipse cx="51" cy="15" fill="#FEFECE" filter="url(#f3e91w17p2e4g)" rx="8" ry="8" style="stroke:#A80036;stroke-width:2.0;"/><path d="M51,23 L51,50 M38,31 L64,31 M51,50 L38,65 M51,50 L64,65 " fill="none" filter="url(#f3e91w17p2e4g)" style="stroke:#A80036;stroke-width:2.0;"/><text fill="#000000" font-family="sans-serif" font-size="14" lengthAdjust="spacing" textLength="86" x="5" y="2425.4941">Port Manager</text><ellipse cx="51" cy="2438.5703" fill="#FEFECE" filter="url(#f3e91w17p2e4g)" rx="8" ry="8" style="stroke:#A80036;stroke-width:2.0;"/><path d="M51,2446.5703 L51,2473.5703 M38,2454.5703 L64,2454.5703 M51,2473.5703 L38,2488.5703 M51,2473.5703 L64,2488.5703 " fill="none" filter="url(#f3e91w17p2e4g)" style="stroke:#A80036;stroke-width:2.0;"/><rect fill="#FEFECE" filter="url(#f3e91w17p2e4g)" height="31.6094" style="stroke:#A80036;stroke-width:1.5;" width="203" x="495.5" y="53"/><text fill="#000000" font-family="sans-serif" font-size="14" lengthAdjust="spacing" textLength="181" x="502.5" y="74.5332">:CreateMapContainersPortUI</text><rect fill="#FEFECE" filter="url(#f3e91w17p2e4g)" height="31.6094" style="stroke:#A80036;stroke-width:1.5;" width="203" x="495.5" y="2410.9609"/><text fill="#000000" font-family="sans-serif" font-size="14" lengthAdjust="spacing" textLength="181" x="502.5" y="2432.4941">:CreateMapContainersPortUI</text><rect fill="#FEFECE" filter="url(#f3e91w17p2e4g)" height="31.6094" style="stroke:#A80036;stroke-width:1.5;" width="245" x="742.5" y="53"/><text fill="#000000" font-family="sans-serif" font-size="14" lengthAdjust="spacing" textLength="231" x="749.5" y="74.5332">:CreateMapContainersPortController</text><rect fill="#FEFECE" filter="url(#f3e91w17p2e4g)" height="31.6094" style="stroke:#A80036;stroke-width:1.5;" width="245" x="742.5" y="2410.9609"/><text fill="#000000" font-family="sans-serif" font-size="14" lengthAdjust="spacing" textLength="231" x="749.5" y="2432.4941">:CreateMapContainersPortController</text><rect fill="#FEFECE" filter="url(#f3e91w17p2e4g)" height="31.6094" style="stroke:#A80036;stroke-width:1.5;" width="78" x="1254" y="53"/><text fill="#000000" font-family="sans-serif" font-size="14" lengthAdjust="spacing" textLength="64" x="1261" y="74.5332">:Company</text><rect fill="#FEFECE" filter="url(#f3e91w17p2e4g)" height="31.6094" style="stroke:#A80036;stroke-width:1.5;" width="78" x="1254" y="2410.9609"/><text fill="#000000" font-family="sans-serif" font-size="14" lengthAdjust="spacing" textLength="64" x="1261" y="2432.4941">:Company</text><rect fill="#FEFECE" filter="url(#f3e91w17p2e4g)" height="31.6094" style="stroke:#A80036;stroke-width:1.5;" width="97" x="1346" y="53"/><text fill="#000000" font-family="sans-serif" font-size="14" lengthAdjust="spacing" textLength="83" x="1353" y="74.5332">:PortStoreDB</text><rect fill="#FEFECE" filter="url(#f3e91w17p2e4g)" height="31.6094" style="stroke:#A80036;stroke-width:1.5;" width="97" x="1346" y="2410.9609"/><text fill="#000000" font-family="sans-serif" font-size="14" lengthAdjust="spacing" textLength="83" x="1353" y="2432.4941">:PortStoreDB</text><rect fill="#FFFFFF" filter="url(#f3e91w17p2e4g)" height="2294.3516" style="stroke:#A80036;stroke-width:1.0;" width="10" x="46" y="99.6094"/><rect fill="#FFFFFF" filter="url(#f3e91w17p2e4g)" height="30.3516" style="stroke:#A80036;stroke-width:1.0;" width="10" x="594" y="121.9609"/><rect fill="#FFFFFF" filter="url(#f3e91w17p2e4g)" height="2211.2969" style="stroke:#A80036;stroke-width:1.0;" width="10" x="594" y="182.6641"/><rect fill="#FFFFFF" filter="url(#f3e91w17p2e4g)" height="2150.5938" style="stroke:#A80036;stroke-width:1.0;" width="10" x="862" y="213.0156"/><rect fill="#FFFFFF" filter="url(#f3e91w17p2e4g)" height="443.1094" style="stroke:#A80036;stroke-width:1.0;" width="10" x="867" y="302.0703"/><rect fill="#FFFFFF" filter="url(#f3e91w17p2e4g)" height="327.4063" style="stroke:#A80036;stroke-width:1.0;" width="10" x="872" y="370.7734"/><rect fill="#FFFFFF" filter="url(#f3e91w17p2e4g)" height="28" style="stroke:#A80036;stroke-width:1.0;" width="10" x="877" y="670.1797"/><rect fill="#FFFFFF" filter="url(#f3e91w17p2e4g)" height="443.1094" style="stroke:#A80036;stroke-width:1.0;" width="10" x="867" y="791.3672"/><rect fill="#FFFFFF" filter="url(#f3e91w17p2e4g)" height="327.4063" style="stroke:#A80036;stroke-width:1.0;" width="10" x="872" y="860.0703"/><rect fill="#FFFFFF" filter="url(#f3e91w17p2e4g)" height="28" style="stroke:#A80036;stroke-width:1.0;" width="10" x="877" y="1159.4766"/><rect fill="#FFFFFF" filter="url(#f3e91w17p2e4g)" height="443.1094" style="stroke:#A80036;stroke-width:1.0;" width="10" x="867" y="1280.6641"/><rect fill="#FFFFFF" filter="url(#f3e91w17p2e4g)" height="327.4063" style="stroke:#A80036;stroke-width:1.0;" width="10" x="872" y="1349.3672"/><rect fill="#FFFFFF" filter="url(#f3e91w17p2e4g)" height="28" style="stroke:#A80036;stroke-width:1.0;" width="10" x="877" y="1648.7734"/><rect fill="#FFFFFF" filter="url(#f3e91w17p2e4g)" height="443.1094" style="stroke:#A80036;stroke-width:1.0;" width="10" x="867" y="1769.9609"/><rect fill="#FFFFFF" filter="url(#f3e91w17p2e4g)" height="327.4063" style="stroke:#A80036;stroke-width:1.0;" width="10" x="872" y="1838.6641"/><rect fill="#FFFFFF" filter="url(#f3e91w17p2e4g)" height="28" style="stroke:#A80036;stroke-width:1.0;" width="10" x="877" y="2138.0703"/><rect fill="#FFFFFF" filter="url(#f3e91w17p2e4g)" height="28" style="stroke:#A80036;stroke-width:1.0;" width="10" x="867" y="2266.2578"/><rect fill="#FFFFFF" filter="url(#f3e91w17p2e4g)" height="30" style="stroke:#A80036;stroke-width:1.0;" width="10" x="1290" y="406.125"/><rect fill="#FFFFFF" filter="url(#f3e91w17p2e4g)" height="30" style="stroke:#A80036;stroke-width:1.0;" width="10" x="1290" y="895.4219"/><rect fill="#FFFFFF" filter="url(#f3e91w17p2e4g)" height="30" style="stroke:#A80036;stroke-width:1.0;" width="10" x="1290" y="1384.7188"/><rect fill="#FFFFFF" filter="url(#f3e91w17p2e4g)" height="30" style="stroke:#A80036;stroke-width:1.0;" width="10" x="1290" y="1874.0156"/><rect fill="#FFFFFF" filter="url(#f3e91w17p2e4g)" height="30" style="stroke:#A80036;stroke-width:1.0;" width="10" x="1391.5" y="491.4766"/><rect fill="#FFFFFF" filter="url(#f3e91w17p2e4g)" height="30" style="stroke:#A80036;stroke-width:1.0;" width="10" x="1391.5" y="576.8281"/><rect fill="#FFFFFF" filter="url(#f3e91w17p2e4g)" height="30" style="stroke:#A80036;stroke-width:1.0;" width="10" x="1391.5" y="980.7734"/><rect fill="#FFFFFF" filter="url(#f3e91w17p2e4g)" height="30" style="stroke:#A80036;stroke-width:1.0;" width="10" x="1391.5" y="1066.125"/><rect fill="#FFFFFF" filter="url(#f3e91w17p2e4g)" height="30" style="stroke:#A80036;stroke-width:1.0;" width="10" x="1391.5" y="1470.0703"/><rect fill="#FFFFFF" filter="url(#f3e91w17p2e4g)" height="30" style="stroke:#A80036;stroke-width:1.0;" width="10" x="1391.5" y="1555.4219"/><rect fill="#FFFFFF" filter="url(#f3e91w17p2e4g)" height="30" style="stroke:#A80036;stroke-width:1.0;" width="10" x="1391.5" y="1959.3672"/><rect fill="#FFFFFF" filter="url(#f3e91w17p2e4g)" height="30" style="stroke:#A80036;stroke-width:1.0;" width="10" x="1391.5" y="2044.7188"/><polygon fill="#A80036" points="582,117.9609,592,121.9609,582,125.9609,586,121.9609" style="stroke:#A80036;stroke-width:1.0;"/><line style="stroke:#A80036;stroke-width:1.0;" x1="56" x2="588" y1="121.9609" y2="121.9609"/><text fill="#000000" font-family="sans-serif" font-size="13" font-weight="bold" lengthAdjust="spacing" textLength="7" x="63" y="117.1045">1</text><text fill="#000000" font-family="sans-serif" font-size="13" lengthAdjust="spacing" textLength="508" x="74" y="117.1045">wants a map of the occupation of the existing resources in the port during a given month</text><polygon fill="#A80036" points="67,148.3125,57,152.3125,67,156.3125,63,152.3125" style="stroke:#A80036;stroke-width:1.0;"/><line style="stroke:#A80036;stroke-width:1.0;stroke-dasharray:2.0,2.0;" x1="61" x2="598" y1="152.3125" y2="152.3125"/><text fill="#000000" font-family="sans-serif" font-size="13" font-weight="bold" lengthAdjust="spacing" textLength="7" x="73" y="147.4561">2</text><text fill="#000000" font-family="sans-serif" font-size="13" lengthAdjust="spacing" textLength="216" x="84" y="147.4561">asks for data(i.e.,portID, month, year)</text><polygon fill="#A80036" points="582,178.6641,592,182.6641,582,186.6641,586,182.6641" style="stroke:#A80036;stroke-width:1.0;"/><line style="stroke:#A80036;stroke-width:1.0;" x1="56" x2="588" y1="182.6641" y2="182.6641"/><text fill="#000000" font-family="sans-serif" font-size="13" font-weight="bold" lengthAdjust="spacing" textLength="7" x="63" y="177.8076">3</text><text fill="#000000" font-family="sans-serif" font-size="13" lengthAdjust="spacing" textLength="114" x="74" y="177.8076">inserts needed data</text><polygon fill="#A80036" points="850,209.0156,860,213.0156,850,217.0156,854,213.0156" style="stroke:#A80036;stroke-width:1.0;"/><line style="stroke:#A80036;stroke-width:1.0;" x1="604" x2="856" y1="213.0156" y2="213.0156"/><text fill="#000000" font-family="sans-serif" font-size="13" font-weight="bold" lengthAdjust="spacing" textLength="7" x="611" y="208.1592">4</text><text fill="#000000" font-family="sans-serif" font-size="13" lengthAdjust="spacing" textLength="228" x="622" y="208.1592">getOccupancyMap(portID, month, year)</text><path d="M712.5,228.0156 L773.5,228.0156 L773.5,236.0156 L763.5,246.0156 L712.5,246.0156 L712.5,228.0156 " fill="#EEEEEE" style="stroke:#000000;stroke-width:1.0;"/><rect fill="none" height="2106.2422" style="stroke:#000000;stroke-width:2.0;" width="764.5" x="712.5" y="228.0156"/><text fill="#000000" font-family="sans-serif" font-size="13" font-weight="bold" lengthAdjust="spacing" textLength="16" x="727.5" y="242.5107">alt</text><text fill="#000000" font-family="sans-serif" font-size="11" font-weight="bold" lengthAdjust="spacing" textLength="174" x="788.5" y="241.4346">[if the inserted values are valid]</text><path d="M722.5,253.3672 L783.5,253.3672 L783.5,261.3672 L773.5,271.3672 L722.5,271.3672 L722.5,253.3672 " fill="#EEEEEE" style="stroke:#000000;stroke-width:1.0;"/><rect fill="none" height="1959.7031" style="stroke:#000000;stroke-width:2.0;" width="744.5" x="722.5" y="253.3672"/><text fill="#000000" font-family="sans-serif" font-size="13" font-weight="bold" lengthAdjust="spacing" textLength="16" x="737.5" y="267.8623">alt</text><text fill="#000000" font-family="sans-serif" font-size="11" font-weight="bold" lengthAdjust="spacing" textLength="142" x="798.5" y="266.7861">[if the month has 31 days]</text><line style="stroke:#A80036;stroke-width:1.0;" x1="872" x2="919" y1="289.0703" y2="289.0703"/><line style="stroke:#A80036;stroke-width:1.0;" x1="919" x2="919" y1="289.0703" y2="302.0703"/><line style="stroke:#A80036;stroke-width:1.0;" x1="878" x2="919" y1="302.0703" y2="302.0703"/><polygon fill="#A80036" points="888,298.0703,878,302.0703,888,306.0703,884,302.0703" style="stroke:#A80036;stroke-width:1.0;"/><text fill="#000000" font-family="sans-serif" font-size="13" font-weight="bold" lengthAdjust="spacing" textLength="7" x="884" y="284.2139">5</text><text fill="#000000" font-family="sans-serif" font-size="13" lengthAdjust="spacing" textLength="212" x="895" y="284.2139">getMap31Month(portID, month, year)</text><path d="M732.5,322.0703 L793.5,322.0703 L793.5,330.0703 L783.5,340.0703 L732.5,340.0703 L732.5,322.0703 " fill="#EEEEEE" style="stroke:#000000;stroke-width:1.0;"/><rect fill="none" height="416.1094" style="stroke:#000000;stroke-width:2.0;" width="724.5" x="732.5" y="322.0703"/><text fill="#000000" font-family="sans-serif" font-size="13" font-weight="bold" lengthAdjust="spacing" textLength="16" x="747.5" y="336.5654">alt</text><text fill="#000000" font-family="sans-serif" font-size="11" font-weight="bold" lengthAdjust="spacing" textLength="154" x="808.5" y="335.4893">[for every day of the month]</text><line style="stroke:#A80036;stroke-width:1.0;" x1="877" x2="924" y1="357.7734" y2="357.7734"/><line style="stroke:#A80036;stroke-width:1.0;" x1="924" x2="924" y1="357.7734" y2="370.7734"/><line style="stroke:#A80036;stroke-width:1.0;" x1="883" x2="924" y1="370.7734" y2="370.7734"/><polygon fill="#A80036" points="893,366.7734,883,370.7734,893,374.7734,889,370.7734" style="stroke:#A80036;stroke-width:1.0;"/><text fill="#000000" font-family="sans-serif" font-size="13" font-weight="bold" lengthAdjust="spacing" textLength="7" x="889" y="352.917">6</text><text fill="#000000" font-family="sans-serif" font-size="13" lengthAdjust="spacing" textLength="359" x="900" y="352.917">getOccupancyRateByPortIDandDate(portID, month, year, day)</text><polygon fill="#A80036" points="1278,402.125,1288,406.125,1278,410.125,1282,406.125" style="stroke:#A80036;stroke-width:1.0;"/><line style="stroke:#A80036;stroke-width:1.0;" x1="882" x2="1284" y1="406.125" y2="406.125"/><text fill="#000000" font-family="sans-serif" font-size="13" font-weight="bold" lengthAdjust="spacing" textLength="7" x="889" y="401.2686">7</text><text fill="#000000" font-family="sans-serif" font-size="13" lengthAdjust="spacing" textLength="99" x="900" y="401.2686">getPortStoreDB()</text><polygon fill="#A80036" points="1379.5,487.4766,1389.5,491.4766,1379.5,495.4766,1383.5,491.4766" style="stroke:#A80036;stroke-width:1.0;"/><line style="stroke:#A80036;stroke-width:1.0;" x1="882" x2="1385.5" y1="491.4766" y2="491.4766"/><text fill="#000000" font-family="sans-serif" font-size="13" font-weight="bold" lengthAdjust="spacing" textLength="7" x="889" y="486.6201">8</text><text fill="#000000" font-family="sans-serif" font-size="13" lengthAdjust="spacing" textLength="252" x="900" y="486.6201">maxCapacity = getPortMaxCapacity(portID)</text><polygon fill="#A80036" points="1379.5,572.8281,1389.5,576.8281,1379.5,580.8281,1383.5,576.8281" style="stroke:#A80036;stroke-width:1.0;"/><line style="stroke:#A80036;stroke-width:1.0;" x1="882" x2="1385.5" y1="576.8281" y2="576.8281"/><text fill="#000000" font-family="sans-serif" font-size="13" font-weight="bold" lengthAdjust="spacing" textLength="7" x="889" y="571.9717">9</text><text fill="#000000" font-family="sans-serif" font-size="13" lengthAdjust="spacing" textLength="319" x="900" y="571.9717">currentCapacity = getPortOccupancyInDay(portID,date)</text><line style="stroke:#A80036;stroke-width:1.0;" x1="887" x2="929" y1="662.1797" y2="662.1797"/><line style="stroke:#A80036;stroke-width:1.0;" x1="929" x2="929" y1="662.1797" y2="675.1797"/><line style="stroke:#A80036;stroke-width:1.0;" x1="888" x2="929" y1="675.1797" y2="675.1797"/><polygon fill="#A80036" points="898,671.1797,888,675.1797,898,679.1797,894,675.1797" style="stroke:#A80036;stroke-width:1.0;"/><text fill="#000000" font-family="sans-serif" font-size="13" font-weight="bold" lengthAdjust="spacing" textLength="14" x="894" y="657.3232">10</text><text fill="#000000" font-family="sans-serif" font-size="13" lengthAdjust="spacing" textLength="376" x="912" y="657.3232">result = calculateOccupancyRate(maxCapacity,currentCapacity);</text><line style="stroke:#000000;stroke-width:1.0;stroke-dasharray:2.0,2.0;" x1="722.5" x2="1467" y1="746.1797" y2="746.1797"/><text fill="#000000" font-family="sans-serif" font-size="11" font-weight="bold" lengthAdjust="spacing" textLength="142" x="727.5" y="757.5986">[if the month has 30 days]</text><line style="stroke:#A80036;stroke-width:1.0;" x1="872" x2="919" y1="778.3672" y2="778.3672"/><line style="stroke:#A80036;stroke-width:1.0;" x1="919" x2="919" y1="778.3672" y2="791.3672"/><line style="stroke:#A80036;stroke-width:1.0;" x1="878" x2="919" y1="791.3672" y2="791.3672"/><polygon fill="#A80036" points="888,787.3672,878,791.3672,888,795.3672,884,791.3672" style="stroke:#A80036;stroke-width:1.0;"/><text fill="#000000" font-family="sans-serif" font-size="13" font-weight="bold" lengthAdjust="spacing" textLength="14" x="884" y="773.5107">11</text><text fill="#000000" font-family="sans-serif" font-size="13" lengthAdjust="spacing" textLength="212" x="902" y="773.5107">getMap30Month(portID, month, year)</text><path d="M732.5,811.3672 L793.5,811.3672 L793.5,819.3672 L783.5,829.3672 L732.5,829.3672 L732.5,811.3672 " fill="#EEEEEE" style="stroke:#000000;stroke-width:1.0;"/><rect fill="none" height="416.1094" style="stroke:#000000;stroke-width:2.0;" width="724.5" x="732.5" y="811.3672"/><text fill="#000000" font-family="sans-serif" font-size="13" font-weight="bold" lengthAdjust="spacing" textLength="16" x="747.5" y="825.8623">alt</text><text fill="#000000" font-family="sans-serif" font-size="11" font-weight="bold" lengthAdjust="spacing" textLength="154" x="808.5" y="824.7861">[for every day of the month]</text><line style="stroke:#A80036;stroke-width:1.0;" x1="877" x2="924" y1="847.0703" y2="847.0703"/><line style="stroke:#A80036;stroke-width:1.0;" x1="924" x2="924" y1="847.0703" y2="860.0703"/><line style="stroke:#A80036;stroke-width:1.0;" x1="883" x2="924" y1="860.0703" y2="860.0703"/><polygon fill="#A80036" points="893,856.0703,883,860.0703,893,864.0703,889,860.0703" style="stroke:#A80036;stroke-width:1.0;"/><text fill="#000000" font-family="sans-serif" font-size="13" font-weight="bold" lengthAdjust="spacing" textLength="14" x="889" y="842.2139">12</text><text fill="#000000" font-family="sans-serif" font-size="13" lengthAdjust="spacing" textLength="359" x="907" y="842.2139">getOccupancyRateByPortIDandDate(portID, month, year, day)</text><polygon fill="#A80036" points="1278,891.4219,1288,895.4219,1278,899.4219,1282,895.4219" style="stroke:#A80036;stroke-width:1.0;"/><line style="stroke:#A80036;stroke-width:1.0;" x1="882" x2="1284" y1="895.4219" y2="895.4219"/><text fill="#000000" font-family="sans-serif" font-size="13" font-weight="bold" lengthAdjust="spacing" textLength="14" x="889" y="890.5654">13</text><text fill="#000000" font-family="sans-serif" font-size="13" lengthAdjust="spacing" textLength="99" x="907" y="890.5654">getPortStoreDB()</text><polygon fill="#A80036" points="1379.5,976.7734,1389.5,980.7734,1379.5,984.7734,1383.5,980.7734" style="stroke:#A80036;stroke-width:1.0;"/><line style="stroke:#A80036;stroke-width:1.0;" x1="882" x2="1385.5" y1="980.7734" y2="980.7734"/><text fill="#000000" font-family="sans-serif" font-size="13" font-weight="bold" lengthAdjust="spacing" textLength="14" x="889" y="975.917">14</text><text fill="#000000" font-family="sans-serif" font-size="13" lengthAdjust="spacing" textLength="252" x="907" y="975.917">maxCapacity = getPortMaxCapacity(portID)</text><polygon fill="#A80036" points="1379.5,1062.125,1389.5,1066.125,1379.5,1070.125,1383.5,1066.125" style="stroke:#A80036;stroke-width:1.0;"/><line style="stroke:#A80036;stroke-width:1.0;" x1="882" x2="1385.5" y1="1066.125" y2="1066.125"/><text fill="#000000" font-family="sans-serif" font-size="13" font-weight="bold" lengthAdjust="spacing" textLength="14" x="889" y="1061.2686">15</text><text fill="#000000" font-family="sans-serif" font-size="13" lengthAdjust="spacing" textLength="319" x="907" y="1061.2686">currentCapacity = getPortOccupancyInDay(portID,date)</text><line style="stroke:#A80036;stroke-width:1.0;" x1="887" x2="929" y1="1151.4766" y2="1151.4766"/><line style="stroke:#A80036;stroke-width:1.0;" x1="929" x2="929" y1="1151.4766" y2="1164.4766"/><line style="stroke:#A80036;stroke-width:1.0;" x1="888" x2="929" y1="1164.4766" y2="1164.4766"/><polygon fill="#A80036" points="898,1160.4766,888,1164.4766,898,1168.4766,894,1164.4766" style="stroke:#A80036;stroke-width:1.0;"/><text fill="#000000" font-family="sans-serif" font-size="13" font-weight="bold" lengthAdjust="spacing" textLength="14" x="894" y="1146.6201">16</text><text fill="#000000" font-family="sans-serif" font-size="13" lengthAdjust="spacing" textLength="376" x="912" y="1146.6201">result = calculateOccupancyRate(maxCapacity,currentCapacity);</text><line style="stroke:#000000;stroke-width:1.0;stroke-dasharray:2.0,2.0;" x1="722.5" x2="1467" y1="1235.4766" y2="1235.4766"/><text fill="#000000" font-family="sans-serif" font-size="11" font-weight="bold" lengthAdjust="spacing" textLength="142" x="727.5" y="1246.8955">[if the month has 29 days]</text><line style="stroke:#A80036;stroke-width:1.0;" x1="872" x2="919" y1="1267.6641" y2="1267.6641"/><line style="stroke:#A80036;stroke-width:1.0;" x1="919" x2="919" y1="1267.6641" y2="1280.6641"/><line style="stroke:#A80036;stroke-width:1.0;" x1="878" x2="919" y1="1280.6641" y2="1280.6641"/><polygon fill="#A80036" points="888,1276.6641,878,1280.6641,888,1284.6641,884,1280.6641" style="stroke:#A80036;stroke-width:1.0;"/><text fill="#000000" font-family="sans-serif" font-size="13" font-weight="bold" lengthAdjust="spacing" textLength="14" x="884" y="1262.8076">17</text><text fill="#000000" font-family="sans-serif" font-size="13" lengthAdjust="spacing" textLength="212" x="902" y="1262.8076">getMap29Month(portID, month, year)</text><path d="M732.5,1300.6641 L793.5,1300.6641 L793.5,1308.6641 L783.5,1318.6641 L732.5,1318.6641 L732.5,1300.6641 " fill="#EEEEEE" style="stroke:#000000;stroke-width:1.0;"/><rect fill="none" height="416.1094" style="stroke:#000000;stroke-width:2.0;" width="724.5" x="732.5" y="1300.6641"/><text fill="#000000" font-family="sans-serif" font-size="13" font-weight="bold" lengthAdjust="spacing" textLength="16" x="747.5" y="1315.1592">alt</text><text fill="#000000" font-family="sans-serif" font-size="11" font-weight="bold" lengthAdjust="spacing" textLength="154" x="808.5" y="1314.083">[for every day of the month]</text><line style="stroke:#A80036;stroke-width:1.0;" x1="877" x2="924" y1="1336.3672" y2="1336.3672"/><line style="stroke:#A80036;stroke-width:1.0;" x1="924" x2="924" y1="1336.3672" y2="1349.3672"/><line style="stroke:#A80036;stroke-width:1.0;" x1="883" x2="924" y1="1349.3672" y2="1349.3672"/><polygon fill="#A80036" points="893,1345.3672,883,1349.3672,893,1353.3672,889,1349.3672" style="stroke:#A80036;stroke-width:1.0;"/><text fill="#000000" font-family="sans-serif" font-size="13" font-weight="bold" lengthAdjust="spacing" textLength="14" x="889" y="1331.5107">18</text><text fill="#000000" font-family="sans-serif" font-size="13" lengthAdjust="spacing" textLength="359" x="907" y="1331.5107">getOccupancyRateByPortIDandDate(portID, month, year, day)</text><polygon fill="#A80036" points="1278,1380.7188,1288,1384.7188,1278,1388.7188,1282,1384.7188" style="stroke:#A80036;stroke-width:1.0;"/><line style="stroke:#A80036;stroke-width:1.0;" x1="882" x2="1284" y1="1384.7188" y2="1384.7188"/><text fill="#000000" font-family="sans-serif" font-size="13" font-weight="bold" lengthAdjust="spacing" textLength="14" x="889" y="1379.8623">19</text><text fill="#000000" font-family="sans-serif" font-size="13" lengthAdjust="spacing" textLength="99" x="907" y="1379.8623">getPortStoreDB()</text><polygon fill="#A80036" points="1379.5,1466.0703,1389.5,1470.0703,1379.5,1474.0703,1383.5,1470.0703" style="stroke:#A80036;stroke-width:1.0;"/><line style="stroke:#A80036;stroke-width:1.0;" x1="882" x2="1385.5" y1="1470.0703" y2="1470.0703"/><text fill="#000000" font-family="sans-serif" font-size="13" font-weight="bold" lengthAdjust="spacing" textLength="14" x="889" y="1465.2139">20</text><text fill="#000000" font-family="sans-serif" font-size="13" lengthAdjust="spacing" textLength="252" x="907" y="1465.2139">maxCapacity = getPortMaxCapacity(portID)</text><polygon fill="#A80036" points="1379.5,1551.4219,1389.5,1555.4219,1379.5,1559.4219,1383.5,1555.4219" style="stroke:#A80036;stroke-width:1.0;"/><line style="stroke:#A80036;stroke-width:1.0;" x1="882" x2="1385.5" y1="1555.4219" y2="1555.4219"/><text fill="#000000" font-family="sans-serif" font-size="13" font-weight="bold" lengthAdjust="spacing" textLength="14" x="889" y="1550.5654">21</text><text fill="#000000" font-family="sans-serif" font-size="13" lengthAdjust="spacing" textLength="319" x="907" y="1550.5654">currentCapacity = getPortOccupancyInDay(portID,date)</text><line style="stroke:#A80036;stroke-width:1.0;" x1="887" x2="929" y1="1640.7734" y2="1640.7734"/><line style="stroke:#A80036;stroke-width:1.0;" x1="929" x2="929" y1="1640.7734" y2="1653.7734"/><line style="stroke:#A80036;stroke-width:1.0;" x1="888" x2="929" y1="1653.7734" y2="1653.7734"/><polygon fill="#A80036" points="898,1649.7734,888,1653.7734,898,1657.7734,894,1653.7734" style="stroke:#A80036;stroke-width:1.0;"/><text fill="#000000" font-family="sans-serif" font-size="13" font-weight="bold" lengthAdjust="spacing" textLength="14" x="894" y="1635.917">22</text><text fill="#000000" font-family="sans-serif" font-size="13" lengthAdjust="spacing" textLength="376" x="912" y="1635.917">result = calculateOccupancyRate(maxCapacity,currentCapacity);</text><line style="stroke:#000000;stroke-width:1.0;stroke-dasharray:2.0,2.0;" x1="722.5" x2="1467" y1="1724.7734" y2="1724.7734"/><text fill="#000000" font-family="sans-serif" font-size="11" font-weight="bold" lengthAdjust="spacing" textLength="142" x="727.5" y="1736.1924">[if the month has 28 days]</text><line style="stroke:#A80036;stroke-width:1.0;" x1="872" x2="919" y1="1756.9609" y2="1756.9609"/><line style="stroke:#A80036;stroke-width:1.0;" x1="919" x2="919" y1="1756.9609" y2="1769.9609"/><line style="stroke:#A80036;stroke-width:1.0;" x1="878" x2="919" y1="1769.9609" y2="1769.9609"/><polygon fill="#A80036" points="888,1765.9609,878,1769.9609,888,1773.9609,884,1769.9609" style="stroke:#A80036;stroke-width:1.0;"/><text fill="#000000" font-family="sans-serif" font-size="13" font-weight="bold" lengthAdjust="spacing" textLength="14" x="884" y="1752.1045">23</text><text fill="#000000" font-family="sans-serif" font-size="13" lengthAdjust="spacing" textLength="212" x="902" y="1752.1045">getMap28Month(portID, month, year)</text><path d="M732.5,1789.9609 L793.5,1789.9609 L793.5,1797.9609 L783.5,1807.9609 L732.5,1807.9609 L732.5,1789.9609 " fill="#EEEEEE" style="stroke:#000000;stroke-width:1.0;"/><rect fill="none" height="416.1094" style="stroke:#000000;stroke-width:2.0;" width="724.5" x="732.5" y="1789.9609"/><text fill="#000000" font-family="sans-serif" font-size="13" font-weight="bold" lengthAdjust="spacing" textLength="16" x="747.5" y="1804.4561">alt</text><text fill="#000000" font-family="sans-serif" font-size="11" font-weight="bold" lengthAdjust="spacing" textLength="154" x="808.5" y="1803.3799">[for every day of the month]</text><line style="stroke:#A80036;stroke-width:1.0;" x1="877" x2="924" y1="1825.6641" y2="1825.6641"/><line style="stroke:#A80036;stroke-width:1.0;" x1="924" x2="924" y1="1825.6641" y2="1838.6641"/><line style="stroke:#A80036;stroke-width:1.0;" x1="883" x2="924" y1="1838.6641" y2="1838.6641"/><polygon fill="#A80036" points="893,1834.6641,883,1838.6641,893,1842.6641,889,1838.6641" style="stroke:#A80036;stroke-width:1.0;"/><text fill="#000000" font-family="sans-serif" font-size="13" font-weight="bold" lengthAdjust="spacing" textLength="14" x="889" y="1820.8076">24</text><text fill="#000000" font-family="sans-serif" font-size="13" lengthAdjust="spacing" textLength="359" x="907" y="1820.8076">getOccupancyRateByPortIDandDate(portID, month, year, day)</text><polygon fill="#A80036" points="1278,1870.0156,1288,1874.0156,1278,1878.0156,1282,1874.0156" style="stroke:#A80036;stroke-width:1.0;"/><line style="stroke:#A80036;stroke-width:1.0;" x1="882" x2="1284" y1="1874.0156" y2="1874.0156"/><text fill="#000000" font-family="sans-serif" font-size="13" font-weight="bold" lengthAdjust="spacing" textLength="14" x="889" y="1869.1592">25</text><text fill="#000000" font-family="sans-serif" font-size="13" lengthAdjust="spacing" textLength="99" x="907" y="1869.1592">getPortStoreDB()</text><polygon fill="#A80036" points="1379.5,1955.3672,1389.5,1959.3672,1379.5,1963.3672,1383.5,1959.3672" style="stroke:#A80036;stroke-width:1.0;"/><line style="stroke:#A80036;stroke-width:1.0;" x1="882" x2="1385.5" y1="1959.3672" y2="1959.3672"/><text fill="#000000" font-family="sans-serif" font-size="13" font-weight="bold" lengthAdjust="spacing" textLength="14" x="889" y="1954.5107">26</text><text fill="#000000" font-family="sans-serif" font-size="13" lengthAdjust="spacing" textLength="252" x="907" y="1954.5107">maxCapacity = getPortMaxCapacity(portID)</text><polygon fill="#A80036" points="1379.5,2040.7188,1389.5,2044.7188,1379.5,2048.7188,1383.5,2044.7188" style="stroke:#A80036;stroke-width:1.0;"/><line style="stroke:#A80036;stroke-width:1.0;" x1="882" x2="1385.5" y1="2044.7188" y2="2044.7188"/><text fill="#000000" font-family="sans-serif" font-size="13" font-weight="bold" lengthAdjust="spacing" textLength="14" x="889" y="2039.8623">27</text><text fill="#000000" font-family="sans-serif" font-size="13" lengthAdjust="spacing" textLength="319" x="907" y="2039.8623">currentCapacity = getPortOccupancyInDay(portID,date)</text><line style="stroke:#A80036;stroke-width:1.0;" x1="887" x2="929" y1="2130.0703" y2="2130.0703"/><line style="stroke:#A80036;stroke-width:1.0;" x1="929" x2="929" y1="2130.0703" y2="2143.0703"/><line style="stroke:#A80036;stroke-width:1.0;" x1="888" x2="929" y1="2143.0703" y2="2143.0703"/><polygon fill="#A80036" points="898,2139.0703,888,2143.0703,898,2147.0703,894,2143.0703" style="stroke:#A80036;stroke-width:1.0;"/><text fill="#000000" font-family="sans-serif" font-size="13" font-weight="bold" lengthAdjust="spacing" textLength="14" x="894" y="2125.2139">28</text><text fill="#000000" font-family="sans-serif" font-size="13" lengthAdjust="spacing" textLength="376" x="912" y="2125.2139">result = calculateOccupancyRate(maxCapacity,currentCapacity);</text><line style="stroke:#000000;stroke-width:1.0;stroke-dasharray:2.0,2.0;" x1="712.5" x2="1477" y1="2221.0703" y2="2221.0703"/><text fill="#000000" font-family="sans-serif" font-size="11" font-weight="bold" lengthAdjust="spacing" textLength="184" x="717.5" y="2232.4893">[if the inserted values are invalid]</text><line style="stroke:#A80036;stroke-width:1.0;" x1="877" x2="919" y1="2258.2578" y2="2258.2578"/><line style="stroke:#A80036;stroke-width:1.0;" x1="919" x2="919" y1="2258.2578" y2="2271.2578"/><line style="stroke:#A80036;stroke-width:1.0;" x1="878" x2="919" y1="2271.2578" y2="2271.2578"/><polygon fill="#A80036" points="888,2267.2578,878,2271.2578,888,2275.2578,884,2271.2578" style="stroke:#A80036;stroke-width:1.0;"/><text fill="#000000" font-family="sans-serif" font-size="13" font-weight="bold" lengthAdjust="spacing" textLength="14" x="884" y="2253.4014">29</text><text fill="#000000" font-family="sans-serif" font-size="13" lengthAdjust="spacing" textLength="68" x="902" y="2253.4014">result = null</text><polygon fill="#A80036" points="615,2359.6094,605,2363.6094,615,2367.6094,611,2363.6094" style="stroke:#A80036;stroke-width:1.0;"/><line style="stroke:#A80036;stroke-width:1.0;stroke-dasharray:2.0,2.0;" x1="609" x2="866" y1="2363.6094" y2="2363.6094"/><text fill="#000000" font-family="sans-serif" font-size="13" font-weight="bold" lengthAdjust="spacing" textLength="14" x="621" y="2358.7529">30</text><text fill="#000000" font-family="sans-serif" font-size="13" lengthAdjust="spacing" textLength="32" x="639" y="2358.7529">result</text><polygon fill="#A80036" points="62,2389.9609,52,2393.9609,62,2397.9609,58,2393.9609" style="stroke:#A80036;stroke-width:1.0;"/><line style="stroke:#A80036;stroke-width:1.0;stroke-dasharray:2.0,2.0;" x1="56" x2="598" y1="2393.9609" y2="2393.9609"/><text fill="#000000" font-family="sans-serif" font-size="13" font-weight="bold" lengthAdjust="spacing" textLength="14" x="68" y="2389.1045">31</text><text fill="#000000" font-family="sans-serif" font-size="13" lengthAdjust="spacing" textLength="112" x="86" y="2389.1045">shows desired map</text><!--MD5=[95f631ca72bf8eec7a56a06659e4d0c4]
@startuml
autonumber
'hide footbox
actor "Port Manager" as SC
participant ":CreateMapContainersPortUI  " as UI
participant ":CreateMapContainersPortController" as CTRL
participant ":Company" as CMP
participant ":PortStoreDB" as CMS

activate SC
SC -> UI : wants a map of the occupation of the existing resources in the port during a given month
activate UI
UI - -> SC : asks for data(i.e.,portID, month, year)
deactivate UI
SC -> UI : inserts needed data
activate UI
UI -> CTRL : getOccupancyMap(portID, month, year)
activate CTRL
alt if the inserted values are valid
alt if the month has 31 days
CTRL -> CTRL : getMap31Month(portID, month, year)
activate CTRL
alt for every day of the month
CTRL -> CTRL : getOccupancyRateByPortIDandDate(portID, month, year, day)
activate CTRL
CTRL -> CMP : getPortStoreDB()
activate CMP
|||
deactivate CMP
CTRL -> CMS : maxCapacity = getPortMaxCapacity(portID)
activate CMS
|||
deactivate CMS
CTRL -> CMS : currentCapacity = getPortOccupancyInDay(portID,date)
activate CMS
|||
deactivate CMS
CTRL -> CTRL : result = calculateOccupancyRate(maxCapacity,currentCapacity);
activate CTRL
|||
deactivate CTRL
deactivate CTRL
end
deactivate CTRL
else if the month has 30 days
CTRL -> CTRL : getMap30Month(portID, month, year)
activate CTRL
alt for every day of the month
CTRL -> CTRL : getOccupancyRateByPortIDandDate(portID, month, year, day)
activate CTRL
CTRL -> CMP : getPortStoreDB()
activate CMP
|||
deactivate CMP
CTRL -> CMS : maxCapacity = getPortMaxCapacity(portID)
activate CMS
|||
deactivate CMS
CTRL -> CMS : currentCapacity = getPortOccupancyInDay(portID,date)
activate CMS
|||
deactivate CMS
CTRL -> CTRL : result = calculateOccupancyRate(maxCapacity,currentCapacity);
activate CTRL
|||
deactivate CTRL
deactivate CTRL
end
deactivate CTRL
else if the month has 29 days
CTRL -> CTRL : getMap29Month(portID, month, year)
activate CTRL
alt for every day of the month
CTRL -> CTRL : getOccupancyRateByPortIDandDate(portID, month, year, day)
activate CTRL
CTRL -> CMP : getPortStoreDB()
activate CMP
|||
deactivate CMP
CTRL -> CMS : maxCapacity = getPortMaxCapacity(portID)
activate CMS
|||
deactivate CMS
CTRL -> CMS : currentCapacity = getPortOccupancyInDay(portID,date)
activate CMS
|||
deactivate CMS
CTRL -> CTRL : result = calculateOccupancyRate(maxCapacity,currentCapacity);
activate CTRL
|||
deactivate CTRL
deactivate CTRL
end
deactivate CTRL
else if the month has 28 days
CTRL -> CTRL : getMap28Month(portID, month, year)
activate CTRL
alt for every day of the month
CTRL -> CTRL : getOccupancyRateByPortIDandDate(portID, month, year, day)
activate CTRL
CTRL -> CMP : getPortStoreDB()
activate CMP
|||
deactivate CMP
CTRL -> CMS : maxCapacity = getPortMaxCapacity(portID)
activate CMS
|||
deactivate CMS
CTRL -> CMS : currentCapacity = getPortOccupancyInDay(portID,date)
activate CMS
|||
deactivate CMS
CTRL -> CTRL : result = calculateOccupancyRate(maxCapacity,currentCapacity);
activate CTRL
|||
deactivate CTRL
deactivate CTRL
end
deactivate CTRL
end
else if the inserted values are invalid
CTRL -> CTRL : result = null
activate CTRL
|||
deactivate CTRL
end
CTRL - -> UI : result
deactivate CTRL
UI - -> SC : shows desired map
deactivate UI
deactivate SC

@enduml

@startuml
autonumber
actor "Port Manager" as SC
participant ":CreateMapContainersPortUI  " as UI
participant ":CreateMapContainersPortController" as CTRL
participant ":Company" as CMP
participant ":PortStoreDB" as CMS

activate SC
SC -> UI : wants a map of the occupation of the existing resources in the port during a given month
activate UI
UI - -> SC : asks for data(i.e.,portID, month, year)
deactivate UI
SC -> UI : inserts needed data
activate UI
UI -> CTRL : getOccupancyMap(portID, month, year)
activate CTRL
alt if the inserted values are valid
alt if the month has 31 days
CTRL -> CTRL : getMap31Month(portID, month, year)
activate CTRL
alt for every day of the month
CTRL -> CTRL : getOccupancyRateByPortIDandDate(portID, month, year, day)
activate CTRL
CTRL -> CMP : getPortStoreDB()
activate CMP
|||
deactivate CMP
CTRL -> CMS : maxCapacity = getPortMaxCapacity(portID)
activate CMS
|||
deactivate CMS
CTRL -> CMS : currentCapacity = getPortOccupancyInDay(portID,date)
activate CMS
|||
deactivate CMS
CTRL -> CTRL : result = calculateOccupancyRate(maxCapacity,currentCapacity);
activate CTRL
|||
deactivate CTRL
deactivate CTRL
end
deactivate CTRL
else if the month has 30 days
CTRL -> CTRL : getMap30Month(portID, month, year)
activate CTRL
alt for every day of the month
CTRL -> CTRL : getOccupancyRateByPortIDandDate(portID, month, year, day)
activate CTRL
CTRL -> CMP : getPortStoreDB()
activate CMP
|||
deactivate CMP
CTRL -> CMS : maxCapacity = getPortMaxCapacity(portID)
activate CMS
|||
deactivate CMS
CTRL -> CMS : currentCapacity = getPortOccupancyInDay(portID,date)
activate CMS
|||
deactivate CMS
CTRL -> CTRL : result = calculateOccupancyRate(maxCapacity,currentCapacity);
activate CTRL
|||
deactivate CTRL
deactivate CTRL
end
deactivate CTRL
else if the month has 29 days
CTRL -> CTRL : getMap29Month(portID, month, year)
activate CTRL
alt for every day of the month
CTRL -> CTRL : getOccupancyRateByPortIDandDate(portID, month, year, day)
activate CTRL
CTRL -> CMP : getPortStoreDB()
activate CMP
|||
deactivate CMP
CTRL -> CMS : maxCapacity = getPortMaxCapacity(portID)
activate CMS
|||
deactivate CMS
CTRL -> CMS : currentCapacity = getPortOccupancyInDay(portID,date)
activate CMS
|||
deactivate CMS
CTRL -> CTRL : result = calculateOccupancyRate(maxCapacity,currentCapacity);
activate CTRL
|||
deactivate CTRL
deactivate CTRL
end
deactivate CTRL
else if the month has 28 days
CTRL -> CTRL : getMap28Month(portID, month, year)
activate CTRL
alt for every day of the month
CTRL -> CTRL : getOccupancyRateByPortIDandDate(portID, month, year, day)
activate CTRL
CTRL -> CMP : getPortStoreDB()
activate CMP
|||
deactivate CMP
CTRL -> CMS : maxCapacity = getPortMaxCapacity(portID)
activate CMS
|||
deactivate CMS
CTRL -> CMS : currentCapacity = getPortOccupancyInDay(portID,date)
activate CMS
|||
deactivate CMS
CTRL -> CTRL : result = calculateOccupancyRate(maxCapacity,currentCapacity);
activate CTRL
|||
deactivate CTRL
deactivate CTRL
end
deactivate CTRL
end
else if the inserted values are invalid
CTRL -> CTRL : result = null
activate CTRL
|||
deactivate CTRL
end
CTRL - -> UI : result
deactivate CTRL
UI - -> SC : shows desired map
deactivate UI
deactivate SC

@enduml

PlantUML version 1.2021.11(Sat Oct 02 14:26:11 BST 2021)
(GPL source distribution)
Java Runtime: OpenJDK Runtime Environment
JVM: OpenJDK 64-Bit Server VM
Default Encoding: Cp1252
Language: pt
Country: PT
--></g></svg>