<?xml version="1.0" encoding="UTF-8" standalone="no"?><svg xmlns="http://www.w3.org/2000/svg" xmlns:xlink="http://www.w3.org/1999/xlink" contentScriptType="application/ecmascript" contentStyleType="text/css" height="872px" preserveAspectRatio="none" style="width:619px;height:872px;background:#FFFFFF;" version="1.1" viewBox="0 0 619 872" width="619px" zoomAndPan="magnify"><defs><filter height="300%" id="f1jkyz3rblevbm" width="300%" x="-1" y="-1"><feGaussianBlur result="blurOut" stdDeviation="2.0"/><feColorMatrix in="blurOut" result="blurOut2" type="matrix" values="0 0 0 0 0 0 0 0 0 0 0 0 0 0 0 0 0 0 .4 0"/><feOffset dx="4.0" dy="4.0" in="blurOut2" result="blurOut3"/><feBlend in="SourceGraphic" in2="blurOut3" mode="normal"/></filter></defs><g><!--MD5=[99d8f1361a72f685c413d1fd21efef1c]
class PortManager--><rect codeLine="6" fill="#FEFECE" filter="url(#f1jkyz3rblevbm)" height="32" id="PortManager" style="stroke:#A80036;stroke-width:1.5;" width="102" x="7" y="426.5"/><ellipse cx="22" cy="442.5" fill="#ADD1B2" rx="11" ry="11" style="stroke:#A80036;stroke-width:1.0;"/><path d="M24,439 Q24.2031,438.5 24.4375,438.25 Q24.6719,438 24.9375,438 Q25.4063,438 25.7031,438.2813 Q26,438.5625 26,439.2188 L26,440.7813 Q26,441.4375 25.7188,441.7188 Q25.4375,442 25,442 Q24.6094,442 24.3594,441.8281 Q24.1094,441.6563 24,441.2031 Q23.9531,440.8906 23.7813,440.7188 Q23.4688,440.3906 22.9063,440.2031 Q22.3438,440 21.7813,440 Q21.0781,440 20.4844,440.2813 Q19.9063,440.5625 19.4531,441.1875 Q19,441.8125 19,442.6719 L19,443.5938 Q19,444.625 19.8438,445.3125 Q20.6875,446 22.1875,446 Q23.0781,446 23.7031,445.7969 Q24.0625,445.6875 24.4688,445.3281 Q24.7344,445.125 24.875,445.0625 Q25.0156,445 25.1875,445 Q25.5156,445 25.75,445.2656 Q26,445.5156 26,445.875 Q26,446.2188 25.6563,446.625 Q25.1563,447.2188 24.3594,447.5469 Q23.3125,448 22.0313,448 Q20.5313,448 19.3281,447.4063 Q18.3594,446.9375 17.6719,445.9219 Q17,444.9063 17,443.7031 L17,442.6094 Q17,441.3594 17.5938,440.2656 Q18.2031,439.1719 19.25,438.5938 Q20.3125,438 21.5,438 Q22.2188,438 22.8438,438.25 Q23.4688,438.5 24,439 Z " fill="#000000"/><text fill="#000000" font-family="sans-serif" font-size="12" lengthAdjust="spacing" textLength="70" x="36" y="447.4102">PortManager</text><!--MD5=[02e4b9b7573f1156f41e60aa5b4e25a4]
class Company--><rect codeLine="9" fill="#FEFECE" filter="url(#f1jkyz3rblevbm)" height="32" id="Company" style="stroke:#A80036;stroke-width:1.5;" width="85" x="303.5" y="7"/><ellipse cx="318.5" cy="23" fill="#ADD1B2" rx="11" ry="11" style="stroke:#A80036;stroke-width:1.0;"/><path d="M320.5,19.5 Q320.7031,19 320.9375,18.75 Q321.1719,18.5 321.4375,18.5 Q321.9063,18.5 322.2031,18.7813 Q322.5,19.0625 322.5,19.7188 L322.5,21.2813 Q322.5,21.9375 322.2188,22.2188 Q321.9375,22.5 321.5,22.5 Q321.1094,22.5 320.8594,22.3281 Q320.6094,22.1563 320.5,21.7031 Q320.4531,21.3906 320.2813,21.2188 Q319.9688,20.8906 319.4063,20.7031 Q318.8438,20.5 318.2813,20.5 Q317.5781,20.5 316.9844,20.7813 Q316.4063,21.0625 315.9531,21.6875 Q315.5,22.3125 315.5,23.1719 L315.5,24.0938 Q315.5,25.125 316.3438,25.8125 Q317.1875,26.5 318.6875,26.5 Q319.5781,26.5 320.2031,26.2969 Q320.5625,26.1875 320.9688,25.8281 Q321.2344,25.625 321.375,25.5625 Q321.5156,25.5 321.6875,25.5 Q322.0156,25.5 322.25,25.7656 Q322.5,26.0156 322.5,26.375 Q322.5,26.7188 322.1563,27.125 Q321.6563,27.7188 320.8594,28.0469 Q319.8125,28.5 318.5313,28.5 Q317.0313,28.5 315.8281,27.9063 Q314.8594,27.4375 314.1719,26.4219 Q313.5,25.4063 313.5,24.2031 L313.5,23.1094 Q313.5,21.8594 314.0938,20.7656 Q314.7031,19.6719 315.75,19.0938 Q316.8125,18.5 318,18.5 Q318.7188,18.5 319.3438,18.75 Q319.9688,19 320.5,19.5 Z " fill="#000000"/><text fill="#000000" font-family="sans-serif" font-size="12" lengthAdjust="spacing" textLength="53" x="332.5" y="27.9102">Company</text><!--MD5=[a0bfe97ac0a38e6e74cc1c7c7b744b71]
class Port--><rect codeLine="11" fill="#FEFECE" filter="url(#f1jkyz3rblevbm)" height="67.6719" id="Port" style="stroke:#A80036;stroke-width:1.5;" width="76" x="127" y="603"/><ellipse cx="151.9" cy="619" fill="#ADD1B2" rx="11" ry="11" style="stroke:#A80036;stroke-width:1.0;"/><path d="M153.9,615.5 Q154.1031,615 154.3375,614.75 Q154.5719,614.5 154.8375,614.5 Q155.3063,614.5 155.6031,614.7813 Q155.9,615.0625 155.9,615.7188 L155.9,617.2813 Q155.9,617.9375 155.6188,618.2188 Q155.3375,618.5 154.9,618.5 Q154.5094,618.5 154.2594,618.3281 Q154.0094,618.1563 153.9,617.7031 Q153.8531,617.3906 153.6813,617.2188 Q153.3688,616.8906 152.8063,616.7031 Q152.2438,616.5 151.6813,616.5 Q150.9781,616.5 150.3844,616.7813 Q149.8063,617.0625 149.3531,617.6875 Q148.9,618.3125 148.9,619.1719 L148.9,620.0938 Q148.9,621.125 149.7438,621.8125 Q150.5875,622.5 152.0875,622.5 Q152.9781,622.5 153.6031,622.2969 Q153.9625,622.1875 154.3688,621.8281 Q154.6344,621.625 154.775,621.5625 Q154.9156,621.5 155.0875,621.5 Q155.4156,621.5 155.65,621.7656 Q155.9,622.0156 155.9,622.375 Q155.9,622.7188 155.5563,623.125 Q155.0563,623.7188 154.2594,624.0469 Q153.2125,624.5 151.9313,624.5 Q150.4313,624.5 149.2281,623.9063 Q148.2594,623.4375 147.5719,622.4219 Q146.9,621.4063 146.9,620.2031 L146.9,619.1094 Q146.9,617.8594 147.4938,616.7656 Q148.1031,615.6719 149.15,615.0938 Q150.2125,614.5 151.4,614.5 Q152.1188,614.5 152.7438,614.75 Q153.3688,615 153.9,615.5 Z " fill="#000000"/><text fill="#000000" font-family="sans-serif" font-size="12" lengthAdjust="spacing" textLength="22" x="168.1" y="623.9102">Port</text><line style="stroke:#A80036;stroke-width:1.5;" x1="128" x2="202" y1="635" y2="635"/><text fill="#000000" font-family="sans-serif" font-size="11" lengthAdjust="spacing" textLength="64" x="133" y="650.4189">-identification</text><text fill="#000000" font-family="sans-serif" font-size="11" lengthAdjust="spacing" textLength="30" x="133" y="664.2549">-name</text><!--MD5=[c5149b4909ffd2688ff51a939867f774]
class Warehouse--><rect codeLine="16" fill="#FEFECE" filter="url(#f1jkyz3rblevbm)" height="67.6719" id="Warehouse" style="stroke:#A80036;stroke-width:1.5;" width="96" x="509" y="603"/><ellipse cx="524" cy="619" fill="#ADD1B2" rx="11" ry="11" style="stroke:#A80036;stroke-width:1.0;"/><path d="M526,615.5 Q526.2031,615 526.4375,614.75 Q526.6719,614.5 526.9375,614.5 Q527.4063,614.5 527.7031,614.7813 Q528,615.0625 528,615.7188 L528,617.2813 Q528,617.9375 527.7188,618.2188 Q527.4375,618.5 527,618.5 Q526.6094,618.5 526.3594,618.3281 Q526.1094,618.1563 526,617.7031 Q525.9531,617.3906 525.7813,617.2188 Q525.4688,616.8906 524.9063,616.7031 Q524.3438,616.5 523.7813,616.5 Q523.0781,616.5 522.4844,616.7813 Q521.9063,617.0625 521.4531,617.6875 Q521,618.3125 521,619.1719 L521,620.0938 Q521,621.125 521.8438,621.8125 Q522.6875,622.5 524.1875,622.5 Q525.0781,622.5 525.7031,622.2969 Q526.0625,622.1875 526.4688,621.8281 Q526.7344,621.625 526.875,621.5625 Q527.0156,621.5 527.1875,621.5 Q527.5156,621.5 527.75,621.7656 Q528,622.0156 528,622.375 Q528,622.7188 527.6563,623.125 Q527.1563,623.7188 526.3594,624.0469 Q525.3125,624.5 524.0313,624.5 Q522.5313,624.5 521.3281,623.9063 Q520.3594,623.4375 519.6719,622.4219 Q519,621.4063 519,620.2031 L519,619.1094 Q519,617.8594 519.5938,616.7656 Q520.2031,615.6719 521.25,615.0938 Q522.3125,614.5 523.5,614.5 Q524.2188,614.5 524.8438,614.75 Q525.4688,615 526,615.5 Z " fill="#000000"/><text fill="#000000" font-family="sans-serif" font-size="12" lengthAdjust="spacing" textLength="64" x="538" y="623.9102">Warehouse</text><line style="stroke:#A80036;stroke-width:1.5;" x1="510" x2="604" y1="635" y2="635"/><text fill="#000000" font-family="sans-serif" font-size="11" lengthAdjust="spacing" textLength="64" x="515" y="650.4189">-identification</text><text fill="#000000" font-family="sans-serif" font-size="11" lengthAdjust="spacing" textLength="30" x="515" y="664.2549">-name</text><!--MD5=[0dc7f2ddb409b58bcf52b12238c25399]
class Ship--><rect codeLine="21" fill="#FEFECE" filter="url(#f1jkyz3rblevbm)" height="164.5234" id="Ship" style="stroke:#A80036;stroke-width:1.5;" width="72" x="258" y="117"/><ellipse cx="279.75" cy="133" fill="#ADD1B2" rx="11" ry="11" style="stroke:#A80036;stroke-width:1.0;"/><path d="M281.75,129.5 Q281.9531,129 282.1875,128.75 Q282.4219,128.5 282.6875,128.5 Q283.1563,128.5 283.4531,128.7813 Q283.75,129.0625 283.75,129.7188 L283.75,131.2813 Q283.75,131.9375 283.4688,132.2188 Q283.1875,132.5 282.75,132.5 Q282.3594,132.5 282.1094,132.3281 Q281.8594,132.1563 281.75,131.7031 Q281.7031,131.3906 281.5313,131.2188 Q281.2188,130.8906 280.6563,130.7031 Q280.0938,130.5 279.5313,130.5 Q278.8281,130.5 278.2344,130.7813 Q277.6563,131.0625 277.2031,131.6875 Q276.75,132.3125 276.75,133.1719 L276.75,134.0938 Q276.75,135.125 277.5938,135.8125 Q278.4375,136.5 279.9375,136.5 Q280.8281,136.5 281.4531,136.2969 Q281.8125,136.1875 282.2188,135.8281 Q282.4844,135.625 282.625,135.5625 Q282.7656,135.5 282.9375,135.5 Q283.2656,135.5 283.5,135.7656 Q283.75,136.0156 283.75,136.375 Q283.75,136.7188 283.4063,137.125 Q282.9063,137.7188 282.1094,138.0469 Q281.0625,138.5 279.7813,138.5 Q278.2813,138.5 277.0781,137.9063 Q276.1094,137.4375 275.4219,136.4219 Q274.75,135.4063 274.75,134.2031 L274.75,133.1094 Q274.75,131.8594 275.3438,130.7656 Q275.9531,129.6719 277,129.0938 Q278.0625,128.5 279.25,128.5 Q279.9688,128.5 280.5938,128.75 Q281.2188,129 281.75,129.5 Z " fill="#000000"/><text fill="#000000" font-family="sans-serif" font-size="12" lengthAdjust="spacing" textLength="25" x="295.25" y="137.9102">Ship</text><line style="stroke:#A80036;stroke-width:1.5;" x1="259" x2="329" y1="149" y2="149"/><text fill="#000000" font-family="sans-serif" font-size="11" lengthAdjust="spacing" textLength="28" x="264" y="164.4189">-mmsi</text><text fill="#000000" font-family="sans-serif" font-size="11" lengthAdjust="spacing" textLength="20" x="264" y="178.2549">-imo</text><text fill="#000000" font-family="sans-serif" font-size="11" lengthAdjust="spacing" textLength="41" x="264" y="192.0908">-callSign</text><text fill="#000000" font-family="sans-serif" font-size="11" lengthAdjust="spacing" textLength="51" x="264" y="205.9268">-shipName</text><text fill="#000000" font-family="sans-serif" font-size="11" lengthAdjust="spacing" textLength="60" x="264" y="219.7627">-vesselType</text><text fill="#000000" font-family="sans-serif" font-size="11" lengthAdjust="spacing" textLength="33" x="264" y="233.5986">-length</text><text fill="#000000" font-family="sans-serif" font-size="11" lengthAdjust="spacing" textLength="31" x="264" y="247.4346">-width</text><text fill="#000000" font-family="sans-serif" font-size="11" lengthAdjust="spacing" textLength="27" x="264" y="261.2705">-draft</text><text fill="#000000" font-family="sans-serif" font-size="11" lengthAdjust="spacing" textLength="32" x="264" y="275.1064">-cargo</text><!--MD5=[f2ba7f6ab60af8dd0d3e354f91729b14]
class Truck--><rect codeLine="33" fill="#FEFECE" filter="url(#f1jkyz3rblevbm)" height="67.6719" id="Truck" style="stroke:#A80036;stroke-width:1.5;" width="67" x="371.5" y="165.5"/><ellipse cx="388.75" cy="181.5" fill="#ADD1B2" rx="11" ry="11" style="stroke:#A80036;stroke-width:1.0;"/><path d="M390.75,178 Q390.9531,177.5 391.1875,177.25 Q391.4219,177 391.6875,177 Q392.1563,177 392.4531,177.2813 Q392.75,177.5625 392.75,178.2188 L392.75,179.7813 Q392.75,180.4375 392.4688,180.7188 Q392.1875,181 391.75,181 Q391.3594,181 391.1094,180.8281 Q390.8594,180.6563 390.75,180.2031 Q390.7031,179.8906 390.5313,179.7188 Q390.2188,179.3906 389.6563,179.2031 Q389.0938,179 388.5313,179 Q387.8281,179 387.2344,179.2813 Q386.6563,179.5625 386.2031,180.1875 Q385.75,180.8125 385.75,181.6719 L385.75,182.5938 Q385.75,183.625 386.5938,184.3125 Q387.4375,185 388.9375,185 Q389.8281,185 390.4531,184.7969 Q390.8125,184.6875 391.2188,184.3281 Q391.4844,184.125 391.625,184.0625 Q391.7656,184 391.9375,184 Q392.2656,184 392.5,184.2656 Q392.75,184.5156 392.75,184.875 Q392.75,185.2188 392.4063,185.625 Q391.9063,186.2188 391.1094,186.5469 Q390.0625,187 388.7813,187 Q387.2813,187 386.0781,186.4063 Q385.1094,185.9375 384.4219,184.9219 Q383.75,183.9063 383.75,182.7031 L383.75,181.6094 Q383.75,180.3594 384.3438,179.2656 Q384.9531,178.1719 386,177.5938 Q387.0625,177 388.25,177 Q388.9688,177 389.5938,177.25 Q390.2188,177.5 390.75,178 Z " fill="#000000"/><text fill="#000000" font-family="sans-serif" font-size="12" lengthAdjust="spacing" textLength="30" x="403.25" y="186.4102">Truck</text><line style="stroke:#A80036;stroke-width:1.5;" x1="372.5" x2="437.5" y1="197.5" y2="197.5"/><text fill="#000000" font-family="sans-serif" font-size="11" lengthAdjust="spacing" textLength="37" x="377.5" y="212.9189">-truckID</text><text fill="#000000" font-family="sans-serif" font-size="11" lengthAdjust="spacing" textLength="55" x="377.5" y="226.7549">-truckName</text><!--MD5=[76562047389981627aea27c31a97aff5]
class CargoManifest--><rect codeLine="38" fill="#FEFECE" filter="url(#f1jkyz3rblevbm)" height="53.8359" id="CargoManifest" style="stroke:#A80036;stroke-width:1.5;" width="112" x="300" y="610"/><ellipse cx="315" cy="626" fill="#ADD1B2" rx="11" ry="11" style="stroke:#A80036;stroke-width:1.0;"/><path d="M317,622.5 Q317.2031,622 317.4375,621.75 Q317.6719,621.5 317.9375,621.5 Q318.4063,621.5 318.7031,621.7813 Q319,622.0625 319,622.7188 L319,624.2813 Q319,624.9375 318.7188,625.2188 Q318.4375,625.5 318,625.5 Q317.6094,625.5 317.3594,625.3281 Q317.1094,625.1563 317,624.7031 Q316.9531,624.3906 316.7813,624.2188 Q316.4688,623.8906 315.9063,623.7031 Q315.3438,623.5 314.7813,623.5 Q314.0781,623.5 313.4844,623.7813 Q312.9063,624.0625 312.4531,624.6875 Q312,625.3125 312,626.1719 L312,627.0938 Q312,628.125 312.8438,628.8125 Q313.6875,629.5 315.1875,629.5 Q316.0781,629.5 316.7031,629.2969 Q317.0625,629.1875 317.4688,628.8281 Q317.7344,628.625 317.875,628.5625 Q318.0156,628.5 318.1875,628.5 Q318.5156,628.5 318.75,628.7656 Q319,629.0156 319,629.375 Q319,629.7188 318.6563,630.125 Q318.1563,630.7188 317.3594,631.0469 Q316.3125,631.5 315.0313,631.5 Q313.5313,631.5 312.3281,630.9063 Q311.3594,630.4375 310.6719,629.4219 Q310,628.4063 310,627.2031 L310,626.1094 Q310,624.8594 310.5938,623.7656 Q311.2031,622.6719 312.25,622.0938 Q313.3125,621.5 314.5,621.5 Q315.2188,621.5 315.8438,621.75 Q316.4688,622 317,622.5 Z " fill="#000000"/><text fill="#000000" font-family="sans-serif" font-size="12" lengthAdjust="spacing" textLength="80" x="329" y="630.9102">CargoManifest</text><line style="stroke:#A80036;stroke-width:1.5;" x1="301" x2="411" y1="642" y2="642"/><text fill="#000000" font-family="sans-serif" font-size="11" lengthAdjust="spacing" textLength="81" x="306" y="657.4189">-cargoManifestId</text><!--MD5=[cd383c058592010a1996452fddaad790]
class ShipTrip--><rect codeLine="42" fill="#FEFECE" filter="url(#f1jkyz3rblevbm)" height="164.5234" id="ShipTrip" style="stroke:#A80036;stroke-width:1.5;" width="120" x="197" y="360"/><ellipse cx="230.9" cy="376" fill="#ADD1B2" rx="11" ry="11" style="stroke:#A80036;stroke-width:1.0;"/><path d="M232.9,372.5 Q233.1031,372 233.3375,371.75 Q233.5719,371.5 233.8375,371.5 Q234.3063,371.5 234.6031,371.7813 Q234.9,372.0625 234.9,372.7188 L234.9,374.2813 Q234.9,374.9375 234.6188,375.2188 Q234.3375,375.5 233.9,375.5 Q233.5094,375.5 233.2594,375.3281 Q233.0094,375.1563 232.9,374.7031 Q232.8531,374.3906 232.6813,374.2188 Q232.3688,373.8906 231.8063,373.7031 Q231.2438,373.5 230.6813,373.5 Q229.9781,373.5 229.3844,373.7813 Q228.8063,374.0625 228.3531,374.6875 Q227.9,375.3125 227.9,376.1719 L227.9,377.0938 Q227.9,378.125 228.7438,378.8125 Q229.5875,379.5 231.0875,379.5 Q231.9781,379.5 232.6031,379.2969 Q232.9625,379.1875 233.3688,378.8281 Q233.6344,378.625 233.775,378.5625 Q233.9156,378.5 234.0875,378.5 Q234.4156,378.5 234.65,378.7656 Q234.9,379.0156 234.9,379.375 Q234.9,379.7188 234.5563,380.125 Q234.0563,380.7188 233.2594,381.0469 Q232.2125,381.5 230.9313,381.5 Q229.4313,381.5 228.2281,380.9063 Q227.2594,380.4375 226.5719,379.4219 Q225.9,378.4063 225.9,377.2031 L225.9,376.1094 Q225.9,374.8594 226.4938,373.7656 Q227.1031,372.6719 228.15,372.0938 Q229.2125,371.5 230.4,371.5 Q231.1188,371.5 231.7438,371.75 Q232.3688,372 232.9,372.5 Z " fill="#000000"/><text fill="#000000" font-family="sans-serif" font-size="12" lengthAdjust="spacing" textLength="46" x="249.1" y="380.9102">ShipTrip</text><line style="stroke:#A80036;stroke-width:1.5;" x1="198" x2="316" y1="392" y2="392"/><text fill="#000000" font-family="sans-serif" font-size="11" lengthAdjust="spacing" textLength="48" x="203" y="407.4189">-shipMmsi</text><text fill="#000000" font-family="sans-serif" font-size="11" lengthAdjust="spacing" textLength="108" x="203" y="421.2549">-departure_location_id</text><text fill="#000000" font-family="sans-serif" font-size="11" lengthAdjust="spacing" textLength="91" x="203" y="435.0908">-arrival_location_id</text><text fill="#000000" font-family="sans-serif" font-size="11" lengthAdjust="spacing" textLength="86" x="203" y="448.9268">-loading_cargo_id</text><text fill="#000000" font-family="sans-serif" font-size="11" lengthAdjust="spacing" textLength="98" x="203" y="462.7627">-unloading_cargo_id</text><text fill="#000000" font-family="sans-serif" font-size="11" lengthAdjust="spacing" textLength="99" x="203" y="476.5986">-est_departure_date</text><text fill="#000000" font-family="sans-serif" font-size="11" lengthAdjust="spacing" textLength="82" x="203" y="490.4346">-est_arrival_date</text><text fill="#000000" font-family="sans-serif" font-size="11" lengthAdjust="spacing" textLength="102" x="203" y="504.2705">-real_departure_date</text><text fill="#000000" font-family="sans-serif" font-size="11" lengthAdjust="spacing" textLength="85" x="203" y="518.1064">-real_arrival_date</text><!--MD5=[f73a60b75ec7157bd3f57c9b4918fddb]
class TruckTrip--><rect codeLine="54" fill="#FEFECE" filter="url(#f1jkyz3rblevbm)" height="164.5234" id="TruckTrip" style="stroke:#A80036;stroke-width:1.5;" width="120" x="372" y="360"/><ellipse cx="403.65" cy="376" fill="#ADD1B2" rx="11" ry="11" style="stroke:#A80036;stroke-width:1.0;"/><path d="M405.65,372.5 Q405.8531,372 406.0875,371.75 Q406.3219,371.5 406.5875,371.5 Q407.0563,371.5 407.3531,371.7813 Q407.65,372.0625 407.65,372.7188 L407.65,374.2813 Q407.65,374.9375 407.3688,375.2188 Q407.0875,375.5 406.65,375.5 Q406.2594,375.5 406.0094,375.3281 Q405.7594,375.1563 405.65,374.7031 Q405.6031,374.3906 405.4313,374.2188 Q405.1188,373.8906 404.5563,373.7031 Q403.9938,373.5 403.4313,373.5 Q402.7281,373.5 402.1344,373.7813 Q401.5563,374.0625 401.1031,374.6875 Q400.65,375.3125 400.65,376.1719 L400.65,377.0938 Q400.65,378.125 401.4938,378.8125 Q402.3375,379.5 403.8375,379.5 Q404.7281,379.5 405.3531,379.2969 Q405.7125,379.1875 406.1188,378.8281 Q406.3844,378.625 406.525,378.5625 Q406.6656,378.5 406.8375,378.5 Q407.1656,378.5 407.4,378.7656 Q407.65,379.0156 407.65,379.375 Q407.65,379.7188 407.3063,380.125 Q406.8063,380.7188 406.0094,381.0469 Q404.9625,381.5 403.6813,381.5 Q402.1813,381.5 400.9781,380.9063 Q400.0094,380.4375 399.3219,379.4219 Q398.65,378.4063 398.65,377.2031 L398.65,376.1094 Q398.65,374.8594 399.2438,373.7656 Q399.8531,372.6719 400.9,372.0938 Q401.9625,371.5 403.15,371.5 Q403.8688,371.5 404.4938,371.75 Q405.1188,372 405.65,372.5 Z " fill="#000000"/><text fill="#000000" font-family="sans-serif" font-size="12" lengthAdjust="spacing" textLength="51" x="421.35" y="380.9102">TruckTrip</text><line style="stroke:#A80036;stroke-width:1.5;" x1="373" x2="491" y1="392" y2="392"/><text fill="#000000" font-family="sans-serif" font-size="11" lengthAdjust="spacing" textLength="32" x="378" y="407.4189">-portID</text><text fill="#000000" font-family="sans-serif" font-size="11" lengthAdjust="spacing" textLength="108" x="378" y="421.2549">-departure_location_id</text><text fill="#000000" font-family="sans-serif" font-size="11" lengthAdjust="spacing" textLength="91" x="378" y="435.0908">-arrival_location_id</text><text fill="#000000" font-family="sans-serif" font-size="11" lengthAdjust="spacing" textLength="86" x="378" y="448.9268">-loading_cargo_id</text><text fill="#000000" font-family="sans-serif" font-size="11" lengthAdjust="spacing" textLength="98" x="378" y="462.7627">-unloading_cargo_id</text><text fill="#000000" font-family="sans-serif" font-size="11" lengthAdjust="spacing" textLength="99" x="378" y="476.5986">-est_departure_date</text><text fill="#000000" font-family="sans-serif" font-size="11" lengthAdjust="spacing" textLength="82" x="378" y="490.4346">-est_arrival_date</text><text fill="#000000" font-family="sans-serif" font-size="11" lengthAdjust="spacing" textLength="102" x="378" y="504.2705">-real_departure_date</text><text fill="#000000" font-family="sans-serif" font-size="11" lengthAdjust="spacing" textLength="85" x="378" y="518.1064">-real_arrival_date</text><!--MD5=[e9a58730c562b34349daa605d1ed6662]
class Container--><rect codeLine="66" fill="#FEFECE" filter="url(#f1jkyz3rblevbm)" height="109.1797" id="Container" style="stroke:#A80036;stroke-width:1.5;" width="86" x="313" y="749"/><ellipse cx="328" cy="765" fill="#ADD1B2" rx="11" ry="11" style="stroke:#A80036;stroke-width:1.0;"/><path d="M330,761.5 Q330.2031,761 330.4375,760.75 Q330.6719,760.5 330.9375,760.5 Q331.4063,760.5 331.7031,760.7813 Q332,761.0625 332,761.7188 L332,763.2813 Q332,763.9375 331.7188,764.2188 Q331.4375,764.5 331,764.5 Q330.6094,764.5 330.3594,764.3281 Q330.1094,764.1563 330,763.7031 Q329.9531,763.3906 329.7813,763.2188 Q329.4688,762.8906 328.9063,762.7031 Q328.3438,762.5 327.7813,762.5 Q327.0781,762.5 326.4844,762.7813 Q325.9063,763.0625 325.4531,763.6875 Q325,764.3125 325,765.1719 L325,766.0938 Q325,767.125 325.8438,767.8125 Q326.6875,768.5 328.1875,768.5 Q329.0781,768.5 329.7031,768.2969 Q330.0625,768.1875 330.4688,767.8281 Q330.7344,767.625 330.875,767.5625 Q331.0156,767.5 331.1875,767.5 Q331.5156,767.5 331.75,767.7656 Q332,768.0156 332,768.375 Q332,768.7188 331.6563,769.125 Q331.1563,769.7188 330.3594,770.0469 Q329.3125,770.5 328.0313,770.5 Q326.5313,770.5 325.3281,769.9063 Q324.3594,769.4375 323.6719,768.4219 Q323,767.4063 323,766.2031 L323,765.1094 Q323,763.8594 323.5938,762.7656 Q324.2031,761.6719 325.25,761.0938 Q326.3125,760.5 327.5,760.5 Q328.2188,760.5 328.8438,760.75 Q329.4688,761 330,761.5 Z " fill="#000000"/><text fill="#000000" font-family="sans-serif" font-size="12" lengthAdjust="spacing" textLength="54" x="342" y="769.9102">Container</text><line style="stroke:#A80036;stroke-width:1.5;" x1="314" x2="398" y1="781" y2="781"/><text fill="#000000" font-family="sans-serif" font-size="11" lengthAdjust="spacing" textLength="57" x="319" y="796.4189">-containerId</text><text fill="#000000" font-family="sans-serif" font-size="11" lengthAdjust="spacing" textLength="42" x="319" y="810.2549">-payload</text><text fill="#000000" font-family="sans-serif" font-size="11" lengthAdjust="spacing" textLength="23" x="319" y="824.0908">-tare</text><text fill="#000000" font-family="sans-serif" font-size="11" lengthAdjust="spacing" textLength="32" x="319" y="837.9268">-gross</text><text fill="#000000" font-family="sans-serif" font-size="11" lengthAdjust="spacing" textLength="43" x="319" y="851.7627">-isoCode</text><!--MD5=[9eb8cece74e91f217f5849e8308bf70d]
link PortManager to Port--><path codeLine="74" d="M57.57,458.71 C57.53,484.26 60.5,536.57 83,573 C93.66,590.26 110.88,604.56 126.8,615.15 " fill="none" id="PortManager-Port" style="stroke:#A80036;stroke-width:1.0;"/><polygon fill="#000000" points="90.0234,568.7481,89.0506,559.2874,83.6755,561.666,90.0234,568.7481" style="stroke:#000000;stroke-width:1.0;"/><text fill="#000000" font-family="sans-serif" font-size="13" lengthAdjust="spacing" textLength="52" x="97" y="569.4951">analyses</text><text fill="#000000" font-family="sans-serif" font-size="13" lengthAdjust="spacing" textLength="7" x="49.3173" y="479.9781">1</text><text fill="#000000" font-family="sans-serif" font-size="13" lengthAdjust="spacing" textLength="20" x="99.1181" y="607.9419">1..*</text><!--MD5=[37a14a5de6d6fd738aee271300f4b5c8]
link Company to Ship--><path codeLine="75" d="M327.94,39.27 C319.79,47.24 310.91,57.69 306,69 C299.57,83.81 295.8,100.45 293.7,116.74 " fill="none" id="Company-Ship" style="stroke:#A80036;stroke-width:1.0;"/><polygon fill="#000000" points="308.9787,82.749,315.3233,75.664,309.9472,73.2879,308.9787,82.749" style="stroke:#000000;stroke-width:1.0;"/><text fill="#000000" font-family="sans-serif" font-size="13" lengthAdjust="spacing" textLength="30" x="320" y="83.4951">owns</text><text fill="#000000" font-family="sans-serif" font-size="13" lengthAdjust="spacing" textLength="7" x="314.0678" y="60.5572">1</text><text fill="#000000" font-family="sans-serif" font-size="13" lengthAdjust="spacing" textLength="20" x="272.7827" y="106.1887">1..*</text><!--MD5=[710b10ea314ec23c5eb602bd01bfa9d5]
link Company to Truck--><path codeLine="76" d="M351.13,39.18 C360.58,67.12 380.93,127.3 393.73,165.18 " fill="none" id="Company-Truck" style="stroke:#A80036;stroke-width:1.0;"/><polygon fill="#000000" points="372.6014,82.9124,372.4885,73.4025,366.9203,75.2851,372.6014,82.9124" style="stroke:#000000;stroke-width:1.0;"/><text fill="#000000" font-family="sans-serif" font-size="13" lengthAdjust="spacing" textLength="30" x="380" y="83.4951">owns</text><text fill="#000000" font-family="sans-serif" font-size="13" lengthAdjust="spacing" textLength="7" x="344.6496" y="60.4385">1</text><text fill="#000000" font-family="sans-serif" font-size="13" lengthAdjust="spacing" textLength="20" x="369.6754" y="154.6726">1..*</text><!--MD5=[64222e8dc32db9269c070a2ba1692d85]
link Ship to ShipTrip--><path codeLine="77" d="M281.47,282.09 C277.62,307.22 273.37,334.87 269.51,359.99 " fill="none" id="Ship-ShipTrip" style="stroke:#A80036;stroke-width:1.0;"/><polygon fill="#000000" points="281.2412,326.1179,285.5187,317.6235,279.709,316.7316,281.2412,326.1179" style="stroke:#000000;stroke-width:1.0;"/><text fill="#000000" font-family="sans-serif" font-size="13" lengthAdjust="spacing" textLength="30" x="291" y="326.4951">owns</text><text fill="#000000" font-family="sans-serif" font-size="13" lengthAdjust="spacing" textLength="7" x="273.1425" y="303.1214">1</text><text fill="#000000" font-family="sans-serif" font-size="13" lengthAdjust="spacing" textLength="20" x="249.7414" y="349.1794">1..*</text><!--MD5=[0996a08baf02e11c94caeb995ff89664]
link Truck to TruckTrip--><path codeLine="78" d="M408.7,233.5 C412.33,265.93 418.02,316.68 422.86,359.94 " fill="none" id="Truck-TruckTrip" style="stroke:#A80036;stroke-width:1.0;"/><polygon fill="#000000" points="424.5565,326.1447,426.4705,316.8287,420.6291,317.4829,424.5565,326.1447" style="stroke:#000000;stroke-width:1.0;"/><text fill="#000000" font-family="sans-serif" font-size="13" lengthAdjust="spacing" textLength="30" x="433" y="326.4951">owns</text><text fill="#000000" font-family="sans-serif" font-size="13" lengthAdjust="spacing" textLength="7" x="401.7356" y="254.5369">1</text><text fill="#000000" font-family="sans-serif" font-size="13" lengthAdjust="spacing" textLength="20" x="401.0955" y="349.1248">1..*</text><!--MD5=[a93f71c337684849482b0ec5675aa7db]
link CargoManifest to Container--><path codeLine="79" d="M356,664.07 C356,686.8 356,720.52 356,748.98 " fill="none" id="CargoManifest-Container" style="stroke:#A80036;stroke-width:1.0;"/><polygon fill="#000000" points="361,715.1758,363.9389,706.1307,358.0611,706.1307,361,715.1758" style="stroke:#000000;stroke-width:1.0;"/><text fill="#000000" font-family="sans-serif" font-size="13" lengthAdjust="spacing" textLength="49" x="370" y="715.4951">contains</text><text fill="#000000" font-family="sans-serif" font-size="13" lengthAdjust="spacing" textLength="20" x="333.8125" y="685.2931">1..*</text><text fill="#000000" font-family="sans-serif" font-size="13" lengthAdjust="spacing" textLength="20" x="334.6563" y="738.0855">1..*</text><!--MD5=[fe56967d49e095412a54b704daffd5d9]
link ShipTrip to CargoManifest--><path codeLine="80" d="M242.32,525.1 C242.77,541.74 245.95,558.56 254,573 C264.14,591.18 281.92,604.77 299.83,614.58 " fill="none" id="ShipTrip-CargoManifest" style="stroke:#A80036;stroke-width:1.0;"/><polygon fill="#000000" points="261.7034,568.3819,259.2853,559.1839,254.3406,562.3619,261.7034,568.3819" style="stroke:#000000;stroke-width:1.0;"/><text fill="#000000" font-family="sans-serif" font-size="13" lengthAdjust="spacing" textLength="49" x="268" y="569.4951">contains</text><text fill="#000000" font-family="sans-serif" font-size="13" lengthAdjust="spacing" textLength="7" x="233.8145" y="546.1322">1</text><text fill="#000000" font-family="sans-serif" font-size="13" lengthAdjust="spacing" textLength="22" x="270.0635" y="608.5876">1..2</text><!--MD5=[896731a16f9957de4c0f9ccc51c43389]
link TruckTrip to CargoManifest--><path codeLine="81" d="M428.28,525.13 C425.45,541.51 420.98,558.22 414,573 C407.53,586.71 397,599.5 386.69,609.92 " fill="none" id="TruckTrip-CargoManifest" style="stroke:#A80036;stroke-width:1.0;"/><polygon fill="#000000" points="422.7981,568.6648,429.42,561.8383,424.1428,559.2498,422.7981,568.6648" style="stroke:#000000;stroke-width:1.0;"/><text fill="#000000" font-family="sans-serif" font-size="13" lengthAdjust="spacing" textLength="49" x="434" y="569.4951">contains</text><text fill="#000000" font-family="sans-serif" font-size="13" lengthAdjust="spacing" textLength="7" x="420.7047" y="545.8802">1</text><text fill="#000000" font-family="sans-serif" font-size="13" lengthAdjust="spacing" textLength="22" x="369.4894" y="598.9272">1..2</text><!--MD5=[44f05fe100d2ea1ea515bcefebfec01b]
link ShipTrip to Port--><path codeLine="82" d="M196.96,498.55 C182.76,515.16 169.56,534.48 162,555 C156.46,570.05 156.45,587.76 158.14,602.78 " fill="none" id="ShipTrip-Port" style="stroke:#A80036;stroke-width:1.0;"/><polygon fill="#000000" points="165.2549,568.8614,171.1659,561.4108,165.6577,559.3593,165.2549,568.8614" style="stroke:#000000;stroke-width:1.0;"/><text fill="#000000" font-family="sans-serif" font-size="13" lengthAdjust="spacing" textLength="37" x="176" y="569.4951">travels</text><text fill="#000000" font-family="sans-serif" font-size="13" lengthAdjust="spacing" textLength="20" x="168.8616" y="501.6488">1..*</text><text fill="#000000" font-family="sans-serif" font-size="13" lengthAdjust="spacing" textLength="7" x="149.1004" y="592.03">2</text><!--MD5=[293882e240fc1e9814c86e7938a05f7d]
link TruckTrip to Port--><path codeLine="83" d="M373.2,525.09 C357.95,542.5 340.55,559.64 322,573 C285.54,599.26 236.58,616.63 203.09,626.36 " fill="none" id="TruckTrip-Port" style="stroke:#A80036;stroke-width:1.0;"/><polygon fill="#000000" points="343.7037,566.7335,352.9792,564.6319,349.9724,559.5813,343.7037,566.7335" style="stroke:#000000;stroke-width:1.0;"/><text fill="#000000" font-family="sans-serif" font-size="13" lengthAdjust="spacing" textLength="37" x="357" y="569.4951">travels</text><text fill="#000000" font-family="sans-serif" font-size="13" lengthAdjust="spacing" textLength="20" x="347.5025" y="546.1214">1..*</text><text fill="#000000" font-family="sans-serif" font-size="13" lengthAdjust="spacing" textLength="22" x="210.9137" y="620.9385">0..1</text><!--MD5=[4448f245a0c19dabd9301bbde5ddce77]
link TruckTrip to Warehouse--><path codeLine="84" d="M485.01,525.14 C502.71,552.39 521.45,581.25 535.37,602.69 " fill="none" id="TruckTrip-Warehouse" style="stroke:#A80036;stroke-width:1.0;"/><polygon fill="#000000" points="520.7231,568.3692,518.2618,559.1826,513.3321,562.3839,520.7231,568.3692" style="stroke:#000000;stroke-width:1.0;"/><text fill="#000000" font-family="sans-serif" font-size="13" lengthAdjust="spacing" textLength="37" x="527" y="569.4951">travels</text><text fill="#000000" font-family="sans-serif" font-size="13" lengthAdjust="spacing" textLength="20" x="468.4374" y="545.891">1..*</text><text fill="#000000" font-family="sans-serif" font-size="13" lengthAdjust="spacing" textLength="22" x="507.1499" y="592.1846">1..2</text><!--MD5=[55582714391245125d4fde3ef69a0169]
@startuml
'https://plantuml.com/class-diagram
hide empty methods
hide empty attributes
skinparam classAttributeIconSize 0

class PortManager{
}

class Company{}

class Port {
    -identification
    -name
}

class Warehouse {
    -identification
    -name
}

class Ship {
    -mmsi
    -imo
    -callSign
    -shipName
    -vesselType
    -length
    -width
    -draft
    -cargo
}

class Truck {
    -truckID
    -truckName
}

class CargoManifest{
    -cargoManifestId
}

class ShipTrip{
    -shipMmsi
    -departure_location_id
    -arrival_location_id
    -loading_cargo_id
    -unloading_cargo_id
    -est_departure_date
    -est_arrival_date
    -real_departure_date
    -real_arrival_date
}

class TruckTrip{
    -portID
    -departure_location_id
    -arrival_location_id
    -loading_cargo_id
    -unloading_cargo_id
    -est_departure_date
    -est_arrival_date
    -real_departure_date
    -real_arrival_date
}

class Container{
    -containerId
    -payload
    -tare
    -gross
    -isoCode
}

PortManager "1" - - "1..*" Port : analyses >
Company "1" - - "1..*" Ship : owns >
Company "1" - - "1..*" Truck : owns >
Ship "1" - - "1..*" ShipTrip : owns >
Truck "1" - - "1..*" TruckTrip : owns >
CargoManifest "1..*" - - "1..*" Container : contains >
ShipTrip "1" - - "1..2" CargoManifest : contains >
TruckTrip "1" - - "1..2" CargoManifest : contains >
ShipTrip "1..*" - - "2" Port : travels >
TruckTrip "1..*" - - "0..1" Port : travels >
TruckTrip "1..*" - - "1..2" Warehouse : travels >
@enduml

@startuml
hide empty methods
hide empty attributes
skinparam classAttributeIconSize 0

class PortManager{
}

class Company{}

class Port {
    -identification
    -name
}

class Warehouse {
    -identification
    -name
}

class Ship {
    -mmsi
    -imo
    -callSign
    -shipName
    -vesselType
    -length
    -width
    -draft
    -cargo
}

class Truck {
    -truckID
    -truckName
}

class CargoManifest{
    -cargoManifestId
}

class ShipTrip{
    -shipMmsi
    -departure_location_id
    -arrival_location_id
    -loading_cargo_id
    -unloading_cargo_id
    -est_departure_date
    -est_arrival_date
    -real_departure_date
    -real_arrival_date
}

class TruckTrip{
    -portID
    -departure_location_id
    -arrival_location_id
    -loading_cargo_id
    -unloading_cargo_id
    -est_departure_date
    -est_arrival_date
    -real_departure_date
    -real_arrival_date
}

class Container{
    -containerId
    -payload
    -tare
    -gross
    -isoCode
}

PortManager "1" - - "1..*" Port : analyses >
Company "1" - - "1..*" Ship : owns >
Company "1" - - "1..*" Truck : owns >
Ship "1" - - "1..*" ShipTrip : owns >
Truck "1" - - "1..*" TruckTrip : owns >
CargoManifest "1..*" - - "1..*" Container : contains >
ShipTrip "1" - - "1..2" CargoManifest : contains >
TruckTrip "1" - - "1..2" CargoManifest : contains >
ShipTrip "1..*" - - "2" Port : travels >
TruckTrip "1..*" - - "0..1" Port : travels >
TruckTrip "1..*" - - "1..2" Warehouse : travels >
@enduml

PlantUML version 1.2021.11(Sat Oct 02 14:26:11 BST 2021)
(GPL source distribution)
Java Runtime: OpenJDK Runtime Environment
JVM: OpenJDK 64-Bit Server VM
Default Encoding: Cp1252
Language: pt
Country: PT
--></g></svg>