<?xml version="1.0" encoding="UTF-8" standalone="no"?><svg xmlns="http://www.w3.org/2000/svg" xmlns:xlink="http://www.w3.org/1999/xlink" contentScriptType="application/ecmascript" contentStyleType="text/css" height="858px" preserveAspectRatio="none" style="width:242px;height:858px;background:#FFFFFF;" version="1.1" viewBox="0 0 242 858" width="242px" zoomAndPan="magnify"><defs><filter height="300%" id="f1vdi74g28k7cq" width="300%" x="-1" y="-1"><feGaussianBlur result="blurOut" stdDeviation="2.0"/><feColorMatrix in="blurOut" result="blurOut2" type="matrix" values="0 0 0 0 0 0 0 0 0 0 0 0 0 0 0 0 0 0 .4 0"/><feOffset dx="4.0" dy="4.0" in="blurOut2" result="blurOut3"/><feBlend in="SourceGraphic" in2="blurOut3" mode="normal"/></filter></defs><g><!--MD5=[019a73386217e12d5bb8e34bf0b46b9e]
class FleetManager--><rect codeLine="6" fill="#FEFECE" filter="url(#f1vdi74g28k7cq)" height="53.8359" id="FleetManager" style="stroke:#A80036;stroke-width:1.5;" width="107" x="7" y="172.5"/><ellipse cx="22" cy="188.5" fill="#ADD1B2" rx="11" ry="11" style="stroke:#A80036;stroke-width:1.0;"/><path d="M24,185 Q24.2031,184.5 24.4375,184.25 Q24.6719,184 24.9375,184 Q25.4063,184 25.7031,184.2813 Q26,184.5625 26,185.2188 L26,186.7813 Q26,187.4375 25.7188,187.7188 Q25.4375,188 25,188 Q24.6094,188 24.3594,187.8281 Q24.1094,187.6563 24,187.2031 Q23.9531,186.8906 23.7813,186.7188 Q23.4688,186.3906 22.9063,186.2031 Q22.3438,186 21.7813,186 Q21.0781,186 20.4844,186.2813 Q19.9063,186.5625 19.4531,187.1875 Q19,187.8125 19,188.6719 L19,189.5938 Q19,190.625 19.8438,191.3125 Q20.6875,192 22.1875,192 Q23.0781,192 23.7031,191.7969 Q24.0625,191.6875 24.4688,191.3281 Q24.7344,191.125 24.875,191.0625 Q25.0156,191 25.1875,191 Q25.5156,191 25.75,191.2656 Q26,191.5156 26,191.875 Q26,192.2188 25.6563,192.625 Q25.1563,193.2188 24.3594,193.5469 Q23.3125,194 22.0313,194 Q20.5313,194 19.3281,193.4063 Q18.3594,192.9375 17.6719,191.9219 Q17,190.9063 17,189.7031 L17,188.6094 Q17,187.3594 17.5938,186.2656 Q18.2031,185.1719 19.25,184.5938 Q20.3125,184 21.5,184 Q22.2188,184 22.8438,184.25 Q23.4688,184.5 24,185 Z " fill="#000000"/><text fill="#000000" font-family="sans-serif" font-size="12" lengthAdjust="spacing" textLength="75" x="36" y="193.4102">FleetManager</text><line style="stroke:#A80036;stroke-width:1.5;" x1="8" x2="113" y1="204.5" y2="204.5"/><text fill="#000000" font-family="sans-serif" font-size="11" lengthAdjust="spacing" textLength="30" x="13" y="219.9189">-name</text><!--MD5=[02e4b9b7573f1156f41e60aa5b4e25a4]
class Company--><rect codeLine="10" fill="#FEFECE" filter="url(#f1vdi74g28k7cq)" height="32" id="Company" style="stroke:#A80036;stroke-width:1.5;" width="85" x="143" y="7"/><ellipse cx="158" cy="23" fill="#ADD1B2" rx="11" ry="11" style="stroke:#A80036;stroke-width:1.0;"/><path d="M160,19.5 Q160.2031,19 160.4375,18.75 Q160.6719,18.5 160.9375,18.5 Q161.4063,18.5 161.7031,18.7813 Q162,19.0625 162,19.7188 L162,21.2813 Q162,21.9375 161.7188,22.2188 Q161.4375,22.5 161,22.5 Q160.6094,22.5 160.3594,22.3281 Q160.1094,22.1563 160,21.7031 Q159.9531,21.3906 159.7813,21.2188 Q159.4688,20.8906 158.9063,20.7031 Q158.3438,20.5 157.7813,20.5 Q157.0781,20.5 156.4844,20.7813 Q155.9063,21.0625 155.4531,21.6875 Q155,22.3125 155,23.1719 L155,24.0938 Q155,25.125 155.8438,25.8125 Q156.6875,26.5 158.1875,26.5 Q159.0781,26.5 159.7031,26.2969 Q160.0625,26.1875 160.4688,25.8281 Q160.7344,25.625 160.875,25.5625 Q161.0156,25.5 161.1875,25.5 Q161.5156,25.5 161.75,25.7656 Q162,26.0156 162,26.375 Q162,26.7188 161.6563,27.125 Q161.1563,27.7188 160.3594,28.0469 Q159.3125,28.5 158.0313,28.5 Q156.5313,28.5 155.3281,27.9063 Q154.3594,27.4375 153.6719,26.4219 Q153,25.4063 153,24.2031 L153,23.1094 Q153,21.8594 153.5938,20.7656 Q154.2031,19.6719 155.25,19.0938 Q156.3125,18.5 157.5,18.5 Q158.2188,18.5 158.8438,18.75 Q159.4688,19 160,19.5 Z " fill="#000000"/><text fill="#000000" font-family="sans-serif" font-size="12" lengthAdjust="spacing" textLength="53" x="172" y="27.9102">Company</text><!--MD5=[0dc7f2ddb409b58bcf52b12238c25399]
class Ship--><rect codeLine="12" fill="#FEFECE" filter="url(#f1vdi74g28k7cq)" height="164.5234" id="Ship" style="stroke:#A80036;stroke-width:1.5;" width="72" x="149.5" y="117"/><ellipse cx="171.25" cy="133" fill="#ADD1B2" rx="11" ry="11" style="stroke:#A80036;stroke-width:1.0;"/><path d="M173.25,129.5 Q173.4531,129 173.6875,128.75 Q173.9219,128.5 174.1875,128.5 Q174.6563,128.5 174.9531,128.7813 Q175.25,129.0625 175.25,129.7188 L175.25,131.2813 Q175.25,131.9375 174.9688,132.2188 Q174.6875,132.5 174.25,132.5 Q173.8594,132.5 173.6094,132.3281 Q173.3594,132.1563 173.25,131.7031 Q173.2031,131.3906 173.0313,131.2188 Q172.7188,130.8906 172.1563,130.7031 Q171.5938,130.5 171.0313,130.5 Q170.3281,130.5 169.7344,130.7813 Q169.1563,131.0625 168.7031,131.6875 Q168.25,132.3125 168.25,133.1719 L168.25,134.0938 Q168.25,135.125 169.0938,135.8125 Q169.9375,136.5 171.4375,136.5 Q172.3281,136.5 172.9531,136.2969 Q173.3125,136.1875 173.7188,135.8281 Q173.9844,135.625 174.125,135.5625 Q174.2656,135.5 174.4375,135.5 Q174.7656,135.5 175,135.7656 Q175.25,136.0156 175.25,136.375 Q175.25,136.7188 174.9063,137.125 Q174.4063,137.7188 173.6094,138.0469 Q172.5625,138.5 171.2813,138.5 Q169.7813,138.5 168.5781,137.9063 Q167.6094,137.4375 166.9219,136.4219 Q166.25,135.4063 166.25,134.2031 L166.25,133.1094 Q166.25,131.8594 166.8438,130.7656 Q167.4531,129.6719 168.5,129.0938 Q169.5625,128.5 170.75,128.5 Q171.4688,128.5 172.0938,128.75 Q172.7188,129 173.25,129.5 Z " fill="#000000"/><text fill="#000000" font-family="sans-serif" font-size="12" lengthAdjust="spacing" textLength="25" x="186.75" y="137.9102">Ship</text><line style="stroke:#A80036;stroke-width:1.5;" x1="150.5" x2="220.5" y1="149" y2="149"/><text fill="#000000" font-family="sans-serif" font-size="11" lengthAdjust="spacing" textLength="28" x="155.5" y="164.4189">-mmsi</text><text fill="#000000" font-family="sans-serif" font-size="11" lengthAdjust="spacing" textLength="20" x="155.5" y="178.2549">-imo</text><text fill="#000000" font-family="sans-serif" font-size="11" lengthAdjust="spacing" textLength="41" x="155.5" y="192.0908">-callSign</text><text fill="#000000" font-family="sans-serif" font-size="11" lengthAdjust="spacing" textLength="51" x="155.5" y="205.9268">-shipName</text><text fill="#000000" font-family="sans-serif" font-size="11" lengthAdjust="spacing" textLength="60" x="155.5" y="219.7627">-vesselType</text><text fill="#000000" font-family="sans-serif" font-size="11" lengthAdjust="spacing" textLength="33" x="155.5" y="233.5986">-length</text><text fill="#000000" font-family="sans-serif" font-size="11" lengthAdjust="spacing" textLength="31" x="155.5" y="247.4346">-width</text><text fill="#000000" font-family="sans-serif" font-size="11" lengthAdjust="spacing" textLength="27" x="155.5" y="261.2705">-draft</text><text fill="#000000" font-family="sans-serif" font-size="11" lengthAdjust="spacing" textLength="32" x="155.5" y="275.1064">-cargo</text><!--MD5=[76562047389981627aea27c31a97aff5]
class CargoManifest--><rect codeLine="24" fill="#FEFECE" filter="url(#f1vdi74g28k7cq)" height="53.8359" id="CargoManifest" style="stroke:#A80036;stroke-width:1.5;" width="112" x="58.5" y="603"/><ellipse cx="73.5" cy="619" fill="#ADD1B2" rx="11" ry="11" style="stroke:#A80036;stroke-width:1.0;"/><path d="M75.5,615.5 Q75.7031,615 75.9375,614.75 Q76.1719,614.5 76.4375,614.5 Q76.9063,614.5 77.2031,614.7813 Q77.5,615.0625 77.5,615.7188 L77.5,617.2813 Q77.5,617.9375 77.2188,618.2188 Q76.9375,618.5 76.5,618.5 Q76.1094,618.5 75.8594,618.3281 Q75.6094,618.1563 75.5,617.7031 Q75.4531,617.3906 75.2813,617.2188 Q74.9688,616.8906 74.4063,616.7031 Q73.8438,616.5 73.2813,616.5 Q72.5781,616.5 71.9844,616.7813 Q71.4063,617.0625 70.9531,617.6875 Q70.5,618.3125 70.5,619.1719 L70.5,620.0938 Q70.5,621.125 71.3438,621.8125 Q72.1875,622.5 73.6875,622.5 Q74.5781,622.5 75.2031,622.2969 Q75.5625,622.1875 75.9688,621.8281 Q76.2344,621.625 76.375,621.5625 Q76.5156,621.5 76.6875,621.5 Q77.0156,621.5 77.25,621.7656 Q77.5,622.0156 77.5,622.375 Q77.5,622.7188 77.1563,623.125 Q76.6563,623.7188 75.8594,624.0469 Q74.8125,624.5 73.5313,624.5 Q72.0313,624.5 70.8281,623.9063 Q69.8594,623.4375 69.1719,622.4219 Q68.5,621.4063 68.5,620.2031 L68.5,619.1094 Q68.5,617.8594 69.0938,616.7656 Q69.7031,615.6719 70.75,615.0938 Q71.8125,614.5 73,614.5 Q73.7188,614.5 74.3438,614.75 Q74.9688,615 75.5,615.5 Z " fill="#000000"/><text fill="#000000" font-family="sans-serif" font-size="12" lengthAdjust="spacing" textLength="80" x="87.5" y="623.9102">CargoManifest</text><line style="stroke:#A80036;stroke-width:1.5;" x1="59.5" x2="169.5" y1="635" y2="635"/><text fill="#000000" font-family="sans-serif" font-size="11" lengthAdjust="spacing" textLength="81" x="64.5" y="650.4189">-cargoManifestId</text><!--MD5=[cd383c058592010a1996452fddaad790]
class ShipTrip--><rect codeLine="28" fill="#FEFECE" filter="url(#f1vdi74g28k7cq)" height="164.5234" id="ShipTrip" style="stroke:#A80036;stroke-width:1.5;" width="120" x="54.5" y="360"/><ellipse cx="88.4" cy="376" fill="#ADD1B2" rx="11" ry="11" style="stroke:#A80036;stroke-width:1.0;"/><path d="M90.4,372.5 Q90.6031,372 90.8375,371.75 Q91.0719,371.5 91.3375,371.5 Q91.8063,371.5 92.1031,371.7813 Q92.4,372.0625 92.4,372.7188 L92.4,374.2813 Q92.4,374.9375 92.1188,375.2188 Q91.8375,375.5 91.4,375.5 Q91.0094,375.5 90.7594,375.3281 Q90.5094,375.1563 90.4,374.7031 Q90.3531,374.3906 90.1813,374.2188 Q89.8688,373.8906 89.3063,373.7031 Q88.7438,373.5 88.1813,373.5 Q87.4781,373.5 86.8844,373.7813 Q86.3063,374.0625 85.8531,374.6875 Q85.4,375.3125 85.4,376.1719 L85.4,377.0938 Q85.4,378.125 86.2438,378.8125 Q87.0875,379.5 88.5875,379.5 Q89.4781,379.5 90.1031,379.2969 Q90.4625,379.1875 90.8688,378.8281 Q91.1344,378.625 91.275,378.5625 Q91.4156,378.5 91.5875,378.5 Q91.9156,378.5 92.15,378.7656 Q92.4,379.0156 92.4,379.375 Q92.4,379.7188 92.0563,380.125 Q91.5563,380.7188 90.7594,381.0469 Q89.7125,381.5 88.4313,381.5 Q86.9313,381.5 85.7281,380.9063 Q84.7594,380.4375 84.0719,379.4219 Q83.4,378.4063 83.4,377.2031 L83.4,376.1094 Q83.4,374.8594 83.9938,373.7656 Q84.6031,372.6719 85.65,372.0938 Q86.7125,371.5 87.9,371.5 Q88.6188,371.5 89.2438,371.75 Q89.8688,372 90.4,372.5 Z " fill="#000000"/><text fill="#000000" font-family="sans-serif" font-size="12" lengthAdjust="spacing" textLength="46" x="106.6" y="380.9102">ShipTrip</text><line style="stroke:#A80036;stroke-width:1.5;" x1="55.5" x2="173.5" y1="392" y2="392"/><text fill="#000000" font-family="sans-serif" font-size="11" lengthAdjust="spacing" textLength="48" x="60.5" y="407.4189">-shipMmsi</text><text fill="#000000" font-family="sans-serif" font-size="11" lengthAdjust="spacing" textLength="108" x="60.5" y="421.2549">-departure_location_id</text><text fill="#000000" font-family="sans-serif" font-size="11" lengthAdjust="spacing" textLength="91" x="60.5" y="435.0908">-arrival_location_id</text><text fill="#000000" font-family="sans-serif" font-size="11" lengthAdjust="spacing" textLength="86" x="60.5" y="448.9268">-loading_cargo_id</text><text fill="#000000" font-family="sans-serif" font-size="11" lengthAdjust="spacing" textLength="98" x="60.5" y="462.7627">-unloading_cargo_id</text><text fill="#000000" font-family="sans-serif" font-size="11" lengthAdjust="spacing" textLength="99" x="60.5" y="476.5986">-est_departure_date</text><text fill="#000000" font-family="sans-serif" font-size="11" lengthAdjust="spacing" textLength="82" x="60.5" y="490.4346">-est_arrival_date</text><text fill="#000000" font-family="sans-serif" font-size="11" lengthAdjust="spacing" textLength="102" x="60.5" y="504.2705">-real_departure_date</text><text fill="#000000" font-family="sans-serif" font-size="11" lengthAdjust="spacing" textLength="85" x="60.5" y="518.1064">-real_arrival_date</text><!--MD5=[e9a58730c562b34349daa605d1ed6662]
class Container--><rect codeLine="40" fill="#FEFECE" filter="url(#f1vdi74g28k7cq)" height="109.1797" id="Container" style="stroke:#A80036;stroke-width:1.5;" width="86" x="71.5" y="735"/><ellipse cx="86.5" cy="751" fill="#ADD1B2" rx="11" ry="11" style="stroke:#A80036;stroke-width:1.0;"/><path d="M88.5,747.5 Q88.7031,747 88.9375,746.75 Q89.1719,746.5 89.4375,746.5 Q89.9063,746.5 90.2031,746.7813 Q90.5,747.0625 90.5,747.7188 L90.5,749.2813 Q90.5,749.9375 90.2188,750.2188 Q89.9375,750.5 89.5,750.5 Q89.1094,750.5 88.8594,750.3281 Q88.6094,750.1563 88.5,749.7031 Q88.4531,749.3906 88.2813,749.2188 Q87.9688,748.8906 87.4063,748.7031 Q86.8438,748.5 86.2813,748.5 Q85.5781,748.5 84.9844,748.7813 Q84.4063,749.0625 83.9531,749.6875 Q83.5,750.3125 83.5,751.1719 L83.5,752.0938 Q83.5,753.125 84.3438,753.8125 Q85.1875,754.5 86.6875,754.5 Q87.5781,754.5 88.2031,754.2969 Q88.5625,754.1875 88.9688,753.8281 Q89.2344,753.625 89.375,753.5625 Q89.5156,753.5 89.6875,753.5 Q90.0156,753.5 90.25,753.7656 Q90.5,754.0156 90.5,754.375 Q90.5,754.7188 90.1563,755.125 Q89.6563,755.7188 88.8594,756.0469 Q87.8125,756.5 86.5313,756.5 Q85.0313,756.5 83.8281,755.9063 Q82.8594,755.4375 82.1719,754.4219 Q81.5,753.4063 81.5,752.2031 L81.5,751.1094 Q81.5,749.8594 82.0938,748.7656 Q82.7031,747.6719 83.75,747.0938 Q84.8125,746.5 86,746.5 Q86.7188,746.5 87.3438,746.75 Q87.9688,747 88.5,747.5 Z " fill="#000000"/><text fill="#000000" font-family="sans-serif" font-size="12" lengthAdjust="spacing" textLength="54" x="100.5" y="755.9102">Container</text><line style="stroke:#A80036;stroke-width:1.5;" x1="72.5" x2="156.5" y1="767" y2="767"/><text fill="#000000" font-family="sans-serif" font-size="11" lengthAdjust="spacing" textLength="57" x="77.5" y="782.4189">-containerId</text><text fill="#000000" font-family="sans-serif" font-size="11" lengthAdjust="spacing" textLength="42" x="77.5" y="796.2549">-payload</text><text fill="#000000" font-family="sans-serif" font-size="11" lengthAdjust="spacing" textLength="23" x="77.5" y="810.0908">-tare</text><text fill="#000000" font-family="sans-serif" font-size="11" lengthAdjust="spacing" textLength="32" x="77.5" y="823.9268">-gross</text><text fill="#000000" font-family="sans-serif" font-size="11" lengthAdjust="spacing" textLength="43" x="77.5" y="837.7627">-isoCode</text><!--MD5=[ca8d29dc35803edd8079b68a5f22bbe9]
link FleetManager to ShipTrip--><path codeLine="48" d="M58.67,226.67 C57.49,253.1 57.42,294.92 65.5,330 C67.78,339.89 70.92,349.99 74.53,359.88 " fill="none" id="FleetManager-ShipTrip" style="stroke:#A80036;stroke-width:1.0;"/><polygon fill="#000000" points="71.0911,326.1407,72.9401,316.8116,67.1035,317.5065,71.0911,326.1407" style="stroke:#000000;stroke-width:1.0;"/><text fill="#000000" font-family="sans-serif" font-size="13" lengthAdjust="spacing" textLength="53" x="79.5" y="326.4951">manages</text><text fill="#000000" font-family="sans-serif" font-size="13" lengthAdjust="spacing" textLength="7" x="50.5041" y="247.915">1</text><text fill="#000000" font-family="sans-serif" font-size="13" lengthAdjust="spacing" textLength="20" x="49.9234" y="349.0593">1..*</text><!--MD5=[37a14a5de6d6fd738aee271300f4b5c8]
link Company to Ship--><path codeLine="49" d="M185.5,39.18 C185.5,56.76 185.5,87.1 185.5,116.61 " fill="none" id="Company-Ship" style="stroke:#A80036;stroke-width:1.0;"/><polygon fill="#000000" points="190.5,83.1758,193.4389,74.1307,187.5611,74.1307,190.5,83.1758" style="stroke:#000000;stroke-width:1.0;"/><text fill="#000000" font-family="sans-serif" font-size="13" lengthAdjust="spacing" textLength="30" x="199.5" y="83.4951">owns</text><text fill="#000000" font-family="sans-serif" font-size="13" lengthAdjust="spacing" textLength="7" x="177.3844" y="60.4385">1</text><text fill="#000000" font-family="sans-serif" font-size="13" lengthAdjust="spacing" textLength="20" x="164.6094" y="106.0471">1..*</text><!--MD5=[64222e8dc32db9269c070a2ba1692d85]
link Ship to ShipTrip--><path codeLine="50" d="M161.46,282.09 C154.06,307.22 145.91,334.87 138.51,359.99 " fill="none" id="Ship-ShipTrip" style="stroke:#A80036;stroke-width:1.0;"/><polygon fill="#000000" points="156.087,325.972,161.4623,318.1261,155.824,316.465,156.087,325.972" style="stroke:#000000;stroke-width:1.0;"/><text fill="#000000" font-family="sans-serif" font-size="13" lengthAdjust="spacing" textLength="30" x="166.5" y="326.4951">owns</text><text fill="#000000" font-family="sans-serif" font-size="13" lengthAdjust="spacing" textLength="7" x="152.1793" y="303.1214">1</text><text fill="#000000" font-family="sans-serif" font-size="13" lengthAdjust="spacing" textLength="20" x="119.8015" y="349.1794">1..*</text><!--MD5=[a93f71c337684849482b0ec5675aa7db]
link CargoManifest to Container--><path codeLine="51" d="M114.5,657.01 C114.5,678.06 114.5,708.43 114.5,734.68 " fill="none" id="CargoManifest-Container" style="stroke:#A80036;stroke-width:1.0;"/><polygon fill="#000000" points="119.5,701.1758,122.4389,692.1307,116.5611,692.1307,119.5,701.1758" style="stroke:#000000;stroke-width:1.0;"/><text fill="#000000" font-family="sans-serif" font-size="13" lengthAdjust="spacing" textLength="49" x="128.5" y="701.4951">contains</text><text fill="#000000" font-family="sans-serif" font-size="13" lengthAdjust="spacing" textLength="20" x="92.3125" y="678.22">1..*</text><text fill="#000000" font-family="sans-serif" font-size="13" lengthAdjust="spacing" textLength="20" x="93.2188" y="724.1373">1..*</text><!--MD5=[fe56967d49e095412a54b704daffd5d9]
link ShipTrip to CargoManifest--><path codeLine="52" d="M114.5,525.13 C114.5,553.13 114.5,582.49 114.5,602.83 " fill="none" id="ShipTrip-CargoManifest" style="stroke:#A80036;stroke-width:1.0;"/><polygon fill="#000000" points="119.5,569.1758,122.4389,560.1307,116.5611,560.1307,119.5,569.1758" style="stroke:#000000;stroke-width:1.0;"/><text fill="#000000" font-family="sans-serif" font-size="13" lengthAdjust="spacing" textLength="49" x="128.5" y="569.4951">contains</text><text fill="#000000" font-family="sans-serif" font-size="13" lengthAdjust="spacing" textLength="7" x="107.2211" y="545.8802">1</text><text fill="#000000" font-family="sans-serif" font-size="13" lengthAdjust="spacing" textLength="22" x="89.9563" y="592.2517">1..2</text><!--MD5=[176b7c9aa9d5c966a589f43782e5df2b]
@startuml
'https://plantuml.com/class-diagram
hide empty methods
hide empty attributes
skinparam classAttributeIconSize 0

class FleetManager{
    -name
}

class Company{}

class Ship {
    -mmsi
    -imo
    -callSign
    -shipName
    -vesselType
    -length
    -width
    -draft
    -cargo
}

class CargoManifest{
    -cargoManifestId
}

class ShipTrip{
    -shipMmsi
    -departure_location_id
    -arrival_location_id
    -loading_cargo_id
    -unloading_cargo_id
    -est_departure_date
    -est_arrival_date
    -real_departure_date
    -real_arrival_date
}

class Container{
    -containerId
    -payload
    -tare
    -gross
    -isoCode
}

FleetManager "1" - - "1..*" ShipTrip : manages >
Company "1" - - "1..*" Ship : owns >
Ship "1" - - "1..*" ShipTrip : owns >
CargoManifest "1..*" - - "1..*" Container : contains >
ShipTrip "1" - - "1..2" CargoManifest : contains >

@enduml

@startuml
hide empty methods
hide empty attributes
skinparam classAttributeIconSize 0

class FleetManager{
    -name
}

class Company{}

class Ship {
    -mmsi
    -imo
    -callSign
    -shipName
    -vesselType
    -length
    -width
    -draft
    -cargo
}

class CargoManifest{
    -cargoManifestId
}

class ShipTrip{
    -shipMmsi
    -departure_location_id
    -arrival_location_id
    -loading_cargo_id
    -unloading_cargo_id
    -est_departure_date
    -est_arrival_date
    -real_departure_date
    -real_arrival_date
}

class Container{
    -containerId
    -payload
    -tare
    -gross
    -isoCode
}

FleetManager "1" - - "1..*" ShipTrip : manages >
Company "1" - - "1..*" Ship : owns >
Ship "1" - - "1..*" ShipTrip : owns >
CargoManifest "1..*" - - "1..*" Container : contains >
ShipTrip "1" - - "1..2" CargoManifest : contains >

@enduml

PlantUML version 1.2021.11(Sat Oct 02 14:26:11 BST 2021)
(GPL source distribution)
Java Runtime: OpenJDK Runtime Environment
JVM: OpenJDK 64-Bit Server VM
Default Encoding: Cp1252
Language: pt
Country: PT
--></g></svg>