<?xml version="1.0" encoding="UTF-8" standalone="no"?><svg xmlns="http://www.w3.org/2000/svg" xmlns:xlink="http://www.w3.org/1999/xlink" contentScriptType="application/ecmascript" contentStyleType="text/css" height="420px" preserveAspectRatio="none" style="width:508px;height:420px;background:#FFFFFF;" version="1.1" viewBox="0 0 508 420" width="508px" zoomAndPan="magnify"><defs><filter height="300%" id="f5qe2dvdkacsc" width="300%" x="-1" y="-1"><feGaussianBlur result="blurOut" stdDeviation="2.0"/><feColorMatrix in="blurOut" result="blurOut2" type="matrix" values="0 0 0 0 0 0 0 0 0 0 0 0 0 0 0 0 0 0 .4 0"/><feOffset dx="4.0" dy="4.0" in="blurOut2" result="blurOut3"/><feBlend in="SourceGraphic" in2="blurOut3" mode="normal"/></filter></defs><g><!--MD5=[9b51c1f289988297a7fb4b6b4f61ed65]
class AverageOccupancyShipTimeController--><rect codeLine="7" fill="#FEFECE" filter="url(#f5qe2dvdkacsc)" height="103.3438" id="AverageOccupancyShipTimeController" style="stroke:#A80036;stroke-width:1.5;" width="487" x="7" y="7"/><ellipse cx="140.75" cy="23" fill="#ADD1B2" rx="11" ry="11" style="stroke:#A80036;stroke-width:1.0;"/><path d="M142.75,19.5 Q142.9531,19 143.1875,18.75 Q143.4219,18.5 143.6875,18.5 Q144.1563,18.5 144.4531,18.7813 Q144.75,19.0625 144.75,19.7188 L144.75,21.2813 Q144.75,21.9375 144.4688,22.2188 Q144.1875,22.5 143.75,22.5 Q143.3594,22.5 143.1094,22.3281 Q142.8594,22.1563 142.75,21.7031 Q142.7031,21.3906 142.5313,21.2188 Q142.2188,20.8906 141.6563,20.7031 Q141.0938,20.5 140.5313,20.5 Q139.8281,20.5 139.2344,20.7813 Q138.6563,21.0625 138.2031,21.6875 Q137.75,22.3125 137.75,23.1719 L137.75,24.0938 Q137.75,25.125 138.5938,25.8125 Q139.4375,26.5 140.9375,26.5 Q141.8281,26.5 142.4531,26.2969 Q142.8125,26.1875 143.2188,25.8281 Q143.4844,25.625 143.625,25.5625 Q143.7656,25.5 143.9375,25.5 Q144.2656,25.5 144.5,25.7656 Q144.75,26.0156 144.75,26.375 Q144.75,26.7188 144.4063,27.125 Q143.9063,27.7188 143.1094,28.0469 Q142.0625,28.5 140.7813,28.5 Q139.2813,28.5 138.0781,27.9063 Q137.1094,27.4375 136.4219,26.4219 Q135.75,25.4063 135.75,24.2031 L135.75,23.1094 Q135.75,21.8594 136.3438,20.7656 Q136.9531,19.6719 138,19.0938 Q139.0625,18.5 140.25,18.5 Q140.9688,18.5 141.5938,18.75 Q142.2188,19 142.75,19.5 Z " fill="#000000"/><text fill="#000000" font-family="sans-serif" font-size="12" lengthAdjust="spacing" textLength="211" x="161.25" y="27.9102">AverageOccupancyShipTimeController</text><line style="stroke:#A80036;stroke-width:1.5;" x1="8" x2="493" y1="39" y2="39"/><text fill="#000000" font-family="sans-serif" font-size="11" lengthAdjust="spacing" textLength="48" x="13" y="54.4189">-company</text><line style="stroke:#A80036;stroke-width:1.5;" x1="8" x2="493" y1="60.8359" y2="60.8359"/><text fill="#000000" font-family="sans-serif" font-size="11" lengthAdjust="spacing" textLength="278" x="13" y="76.2549">-calculateOccupancyRate(maxCapacity, currentCapacity)</text><text fill="#000000" font-family="sans-serif" font-size="11" lengthAdjust="spacing" textLength="475" x="13" y="90.0908">-getAverageOccupancyRateByShipIDandDates(shipID, month1, year1, day1, month2, year2, day2)</text><text fill="#000000" font-family="sans-serif" font-size="11" lengthAdjust="spacing" textLength="144" x="13" y="103.9268">-checkIfShipTripExists(shipID)</text><!--MD5=[80429a8c3a07863d2b9a5a642579b4cd]
class ShipStoreDB--><rect codeLine="14" fill="#FEFECE" filter="url(#f5qe2dvdkacsc)" height="81.5078" id="ShipStoreDB" style="stroke:#A80036;stroke-width:1.5;" width="230" x="128.5" y="325"/><ellipse cx="203.75" cy="341" fill="#ADD1B2" rx="11" ry="11" style="stroke:#A80036;stroke-width:1.0;"/><path d="M205.75,337.5 Q205.9531,337 206.1875,336.75 Q206.4219,336.5 206.6875,336.5 Q207.1563,336.5 207.4531,336.7813 Q207.75,337.0625 207.75,337.7188 L207.75,339.2813 Q207.75,339.9375 207.4688,340.2188 Q207.1875,340.5 206.75,340.5 Q206.3594,340.5 206.1094,340.3281 Q205.8594,340.1563 205.75,339.7031 Q205.7031,339.3906 205.5313,339.2188 Q205.2188,338.8906 204.6563,338.7031 Q204.0938,338.5 203.5313,338.5 Q202.8281,338.5 202.2344,338.7813 Q201.6563,339.0625 201.2031,339.6875 Q200.75,340.3125 200.75,341.1719 L200.75,342.0938 Q200.75,343.125 201.5938,343.8125 Q202.4375,344.5 203.9375,344.5 Q204.8281,344.5 205.4531,344.2969 Q205.8125,344.1875 206.2188,343.8281 Q206.4844,343.625 206.625,343.5625 Q206.7656,343.5 206.9375,343.5 Q207.2656,343.5 207.5,343.7656 Q207.75,344.0156 207.75,344.375 Q207.75,344.7188 207.4063,345.125 Q206.9063,345.7188 206.1094,346.0469 Q205.0625,346.5 203.7813,346.5 Q202.2813,346.5 201.0781,345.9063 Q200.1094,345.4375 199.4219,344.4219 Q198.75,343.4063 198.75,342.2031 L198.75,341.1094 Q198.75,339.8594 199.3438,338.7656 Q199.9531,337.6719 201,337.0938 Q202.0625,336.5 203.25,336.5 Q203.9688,336.5 204.5938,336.75 Q205.2188,337 205.75,337.5 Z " fill="#000000"/><text fill="#000000" font-family="sans-serif" font-size="12" lengthAdjust="spacing" textLength="71" x="224.25" y="345.9102">ShipStoreDB</text><line style="stroke:#A80036;stroke-width:1.5;" x1="129.5" x2="357.5" y1="357" y2="357"/><text fill="#000000" font-family="sans-serif" font-size="11" lengthAdjust="spacing" textLength="134" x="134.5" y="372.4189">-getShipMaxCapacity(mmsi)</text><text fill="#000000" font-family="sans-serif" font-size="11" lengthAdjust="spacing" textLength="218" x="134.5" y="386.2549">-getNumContainersShipDay(mmsi, someDate)</text><text fill="#000000" font-family="sans-serif" font-size="11" lengthAdjust="spacing" textLength="121" x="134.5" y="400.0908">-checkIfShipExists(mmsi)</text><!--MD5=[02e4b9b7573f1156f41e60aa5b4e25a4]
class Company--><rect codeLine="20" fill="#FEFECE" filter="url(#f5qe2dvdkacsc)" height="75.6719" id="Company" style="stroke:#A80036;stroke-width:1.5;" width="100" x="267.5" y="171"/><ellipse cx="289.25" cy="187" fill="#ADD1B2" rx="11" ry="11" style="stroke:#A80036;stroke-width:1.0;"/><path d="M291.25,183.5 Q291.4531,183 291.6875,182.75 Q291.9219,182.5 292.1875,182.5 Q292.6563,182.5 292.9531,182.7813 Q293.25,183.0625 293.25,183.7188 L293.25,185.2813 Q293.25,185.9375 292.9688,186.2188 Q292.6875,186.5 292.25,186.5 Q291.8594,186.5 291.6094,186.3281 Q291.3594,186.1563 291.25,185.7031 Q291.2031,185.3906 291.0313,185.2188 Q290.7188,184.8906 290.1563,184.7031 Q289.5938,184.5 289.0313,184.5 Q288.3281,184.5 287.7344,184.7813 Q287.1563,185.0625 286.7031,185.6875 Q286.25,186.3125 286.25,187.1719 L286.25,188.0938 Q286.25,189.125 287.0938,189.8125 Q287.9375,190.5 289.4375,190.5 Q290.3281,190.5 290.9531,190.2969 Q291.3125,190.1875 291.7188,189.8281 Q291.9844,189.625 292.125,189.5625 Q292.2656,189.5 292.4375,189.5 Q292.7656,189.5 293,189.7656 Q293.25,190.0156 293.25,190.375 Q293.25,190.7188 292.9063,191.125 Q292.4063,191.7188 291.6094,192.0469 Q290.5625,192.5 289.2813,192.5 Q287.7813,192.5 286.5781,191.9063 Q285.6094,191.4375 284.9219,190.4219 Q284.25,189.4063 284.25,188.2031 L284.25,187.1094 Q284.25,185.8594 284.8438,184.7656 Q285.4531,183.6719 286.5,183.0938 Q287.5625,182.5 288.75,182.5 Q289.4688,182.5 290.0938,182.75 Q290.7188,183 291.25,183.5 Z " fill="#000000"/><text fill="#000000" font-family="sans-serif" font-size="12" lengthAdjust="spacing" textLength="53" x="304.75" y="191.9102">Company</text><line style="stroke:#A80036;stroke-width:1.5;" x1="268.5" x2="366.5" y1="203" y2="203"/><text fill="#000000" font-family="sans-serif" font-size="11" lengthAdjust="spacing" textLength="65" x="273.5" y="218.4189">-ShipStoreDB</text><line style="stroke:#A80036;stroke-width:1.5;" x1="268.5" x2="366.5" y1="224.8359" y2="224.8359"/><text fill="#000000" font-family="sans-serif" font-size="11" lengthAdjust="spacing" textLength="88" x="273.5" y="240.2549">-getShipStoreDB()</text><!--MD5=[74cea04ecc7cce9f11eafba7ff2080b3]
link AverageOccupancyShipTimeController to Company--><path codeLine="25" d="M273.37,110.19 C281.55,128.32 290.67,148.53 298.49,165.86 " fill="none" id="AverageOccupancyShipTimeController-to-Company" style="stroke:#A80036;stroke-width:1.0;stroke-dasharray:7.0,7.0;"/><polygon fill="#A80036" points="300.65,170.66,300.5929,160.8113,298.5928,166.1028,293.3013,164.1028,300.65,170.66" style="stroke:#A80036;stroke-width:1.0;"/><!--MD5=[467c69086698675569cb79be71739a2e]
link AverageOccupancyShipTimeController to ShipStoreDB--><path codeLine="26" d="M249.34,110.29 C248,168.64 245.83,263.52 244.54,319.53 " fill="none" id="AverageOccupancyShipTimeController-to-ShipStoreDB" style="stroke:#A80036;stroke-width:1.0;stroke-dasharray:7.0,7.0;"/><polygon fill="#A80036" points="244.42,324.83,248.6252,315.924,244.5346,319.8313,240.6273,315.7407,244.42,324.83" style="stroke:#A80036;stroke-width:1.0;"/><!--MD5=[507cfa299ee4dba6e3c71a3753442b74]
link Company to ShipStoreDB--><path codeLine="27" d="M299.78,247.13 C288.57,270.59 274.1,300.91 262.64,324.92 " fill="none" id="Company-ShipStoreDB" style="stroke:#A80036;stroke-width:1.0;"/><polygon fill="#000000" points="287.3457,290.6879,293.895,283.7916,288.5907,281.2592,287.3457,290.6879" style="stroke:#000000;stroke-width:1.0;"/><text fill="#000000" font-family="sans-serif" font-size="13" lengthAdjust="spacing" textLength="28" x="298.5" y="291.4951">uses</text><text fill="#000000" font-family="sans-serif" font-size="13" lengthAdjust="spacing" textLength="7" x="289.3981" y="268.0312">1</text><text fill="#000000" font-family="sans-serif" font-size="13" lengthAdjust="spacing" textLength="7" x="258.3281" y="314.052">1</text><!--MD5=[867555dd4311b93fe572bcb69a8bc0b9]
@startuml

hide empty methods
hide empty attributes
'left to right direction
skinparam classAttributeIconSize 0

class AverageOccupancyShipTimeController{
- company
- calculateOccupancyRate(maxCapacity, currentCapacity)
- getAverageOccupancyRateByShipIDandDates(shipID, month1, year1, day1, month2, year2, day2)
- checkIfShipTripExists(shipID)
}

class ShipStoreDB{
- getShipMaxCapacity(mmsi)
- getNumContainersShipDay(mmsi, someDate)
- checkIfShipExists(mmsi)
}

class Company{
- ShipStoreDB
- getShipStoreDB()
}

AverageOccupancyShipTimeController ..> Company
AverageOccupancyShipTimeController ..> ShipStoreDB
Company "1" - - "1" ShipStoreDB : uses >

@enduml

@startuml

hide empty methods
hide empty attributes
skinparam classAttributeIconSize 0

class AverageOccupancyShipTimeController{
- company
- calculateOccupancyRate(maxCapacity, currentCapacity)
- getAverageOccupancyRateByShipIDandDates(shipID, month1, year1, day1, month2, year2, day2)
- checkIfShipTripExists(shipID)
}

class ShipStoreDB{
- getShipMaxCapacity(mmsi)
- getNumContainersShipDay(mmsi, someDate)
- checkIfShipExists(mmsi)
}

class Company{
- ShipStoreDB
- getShipStoreDB()
}

AverageOccupancyShipTimeController ..> Company
AverageOccupancyShipTimeController ..> ShipStoreDB
Company "1" - - "1" ShipStoreDB : uses >

@enduml

PlantUML version 1.2021.11(Sat Oct 02 14:26:11 BST 2021)
(GPL source distribution)
Java Runtime: OpenJDK Runtime Environment
JVM: OpenJDK 64-Bit Server VM
Default Encoding: Cp1252
Language: pt
Country: PT
--></g></svg>