<?xml version="1.0" encoding="UTF-8" standalone="no"?><svg xmlns="http://www.w3.org/2000/svg" xmlns:xlink="http://www.w3.org/1999/xlink" contentScriptType="application/ecmascript" contentStyleType="text/css" height="504px" preserveAspectRatio="none" style="width:262px;height:504px;background:#FFFFFF;" version="1.1" viewBox="0 0 262 504" width="262px" zoomAndPan="magnify"><defs><filter height="300%" id="f8u1bkfhltvrh" width="300%" x="-1" y="-1"><feGaussianBlur result="blurOut" stdDeviation="2.0"/><feColorMatrix in="blurOut" result="blurOut2" type="matrix" values="0 0 0 0 0 0 0 0 0 0 0 0 0 0 0 0 0 0 .4 0"/><feOffset dx="4.0" dy="4.0" in="blurOut2" result="blurOut3"/><feBlend in="SourceGraphic" in2="blurOut3" mode="normal"/></filter></defs><g><!--MD5=[02e4b9b7573f1156f41e60aa5b4e25a4]
class Company--><rect codeLine="6" fill="#FEFECE" filter="url(#f8u1bkfhltvrh)" height="53.8359" id="Company" style="stroke:#A80036;stroke-width:1.5;" width="85" x="11" y="7"/><ellipse cx="26" cy="23" fill="#ADD1B2" rx="11" ry="11" style="stroke:#A80036;stroke-width:1.0;"/><path d="M28,19.5 Q28.2031,19 28.4375,18.75 Q28.6719,18.5 28.9375,18.5 Q29.4063,18.5 29.7031,18.7813 Q30,19.0625 30,19.7188 L30,21.2813 Q30,21.9375 29.7188,22.2188 Q29.4375,22.5 29,22.5 Q28.6094,22.5 28.3594,22.3281 Q28.1094,22.1563 28,21.7031 Q27.9531,21.3906 27.7813,21.2188 Q27.4688,20.8906 26.9063,20.7031 Q26.3438,20.5 25.7813,20.5 Q25.0781,20.5 24.4844,20.7813 Q23.9063,21.0625 23.4531,21.6875 Q23,22.3125 23,23.1719 L23,24.0938 Q23,25.125 23.8438,25.8125 Q24.6875,26.5 26.1875,26.5 Q27.0781,26.5 27.7031,26.2969 Q28.0625,26.1875 28.4688,25.8281 Q28.7344,25.625 28.875,25.5625 Q29.0156,25.5 29.1875,25.5 Q29.5156,25.5 29.75,25.7656 Q30,26.0156 30,26.375 Q30,26.7188 29.6563,27.125 Q29.1563,27.7188 28.3594,28.0469 Q27.3125,28.5 26.0313,28.5 Q24.5313,28.5 23.3281,27.9063 Q22.3594,27.4375 21.6719,26.4219 Q21,25.4063 21,24.2031 L21,23.1094 Q21,21.8594 21.5938,20.7656 Q22.2031,19.6719 23.25,19.0938 Q24.3125,18.5 25.5,18.5 Q26.2188,18.5 26.8438,18.75 Q27.4688,19 28,19.5 Z " fill="#000000"/><text fill="#000000" font-family="sans-serif" font-size="12" lengthAdjust="spacing" textLength="53" x="40" y="27.9102">Company</text><line style="stroke:#A80036;stroke-width:1.5;" x1="12" x2="95" y1="39" y2="39"/><text fill="#000000" font-family="sans-serif" font-size="11" lengthAdjust="spacing" textLength="59" x="17" y="54.4189">-designation</text><!--MD5=[ddaf6f62b0bc30921877ec9fb9463c9f]
class TrafficManager--><rect codeLine="10" fill="#FEFECE" filter="url(#f8u1bkfhltvrh)" height="32" id="TrafficManager" style="stroke:#A80036;stroke-width:1.5;" width="113" x="135" y="184.5"/><ellipse cx="150" cy="200.5" fill="#ADD1B2" rx="11" ry="11" style="stroke:#A80036;stroke-width:1.0;"/><path d="M152,197 Q152.2031,196.5 152.4375,196.25 Q152.6719,196 152.9375,196 Q153.4063,196 153.7031,196.2813 Q154,196.5625 154,197.2188 L154,198.7813 Q154,199.4375 153.7188,199.7188 Q153.4375,200 153,200 Q152.6094,200 152.3594,199.8281 Q152.1094,199.6563 152,199.2031 Q151.9531,198.8906 151.7813,198.7188 Q151.4688,198.3906 150.9063,198.2031 Q150.3438,198 149.7813,198 Q149.0781,198 148.4844,198.2813 Q147.9063,198.5625 147.4531,199.1875 Q147,199.8125 147,200.6719 L147,201.5938 Q147,202.625 147.8438,203.3125 Q148.6875,204 150.1875,204 Q151.0781,204 151.7031,203.7969 Q152.0625,203.6875 152.4688,203.3281 Q152.7344,203.125 152.875,203.0625 Q153.0156,203 153.1875,203 Q153.5156,203 153.75,203.2656 Q154,203.5156 154,203.875 Q154,204.2188 153.6563,204.625 Q153.1563,205.2188 152.3594,205.5469 Q151.3125,206 150.0313,206 Q148.5313,206 147.3281,205.4063 Q146.3594,204.9375 145.6719,203.9219 Q145,202.9063 145,201.7031 L145,200.6094 Q145,199.3594 145.5938,198.2656 Q146.2031,197.1719 147.25,196.5938 Q148.3125,196 149.5,196 Q150.2188,196 150.8438,196.25 Q151.4688,196.5 152,197 Z " fill="#000000"/><text fill="#000000" font-family="sans-serif" font-size="12" lengthAdjust="spacing" textLength="81" x="164" y="205.4102">TrafficManager</text><!--MD5=[0dc7f2ddb409b58bcf52b12238c25399]
class Ship--><rect codeLine="12" fill="#FEFECE" filter="url(#f8u1bkfhltvrh)" height="123.0156" id="Ship" style="stroke:#A80036;stroke-width:1.5;" width="93" x="7" y="139"/><ellipse cx="38.2" cy="155" fill="#ADD1B2" rx="11" ry="11" style="stroke:#A80036;stroke-width:1.0;"/><path d="M40.2,151.5 Q40.4031,151 40.6375,150.75 Q40.8719,150.5 41.1375,150.5 Q41.6063,150.5 41.9031,150.7813 Q42.2,151.0625 42.2,151.7188 L42.2,153.2813 Q42.2,153.9375 41.9188,154.2188 Q41.6375,154.5 41.2,154.5 Q40.8094,154.5 40.5594,154.3281 Q40.3094,154.1563 40.2,153.7031 Q40.1531,153.3906 39.9813,153.2188 Q39.6688,152.8906 39.1063,152.7031 Q38.5438,152.5 37.9813,152.5 Q37.2781,152.5 36.6844,152.7813 Q36.1063,153.0625 35.6531,153.6875 Q35.2,154.3125 35.2,155.1719 L35.2,156.0938 Q35.2,157.125 36.0438,157.8125 Q36.8875,158.5 38.3875,158.5 Q39.2781,158.5 39.9031,158.2969 Q40.2625,158.1875 40.6688,157.8281 Q40.9344,157.625 41.075,157.5625 Q41.2156,157.5 41.3875,157.5 Q41.7156,157.5 41.95,157.7656 Q42.2,158.0156 42.2,158.375 Q42.2,158.7188 41.8563,159.125 Q41.3563,159.7188 40.5594,160.0469 Q39.5125,160.5 38.2313,160.5 Q36.7313,160.5 35.5281,159.9063 Q34.5594,159.4375 33.8719,158.4219 Q33.2,157.4063 33.2,156.2031 L33.2,155.1094 Q33.2,153.8594 33.7938,152.7656 Q34.4031,151.6719 35.45,151.0938 Q36.5125,150.5 37.7,150.5 Q38.4188,150.5 39.0438,150.75 Q39.6688,151 40.2,151.5 Z " fill="#000000"/><text fill="#000000" font-family="sans-serif" font-size="12" lengthAdjust="spacing" textLength="25" x="55.8" y="159.9102">Ship</text><line style="stroke:#A80036;stroke-width:1.5;" x1="8" x2="99" y1="171" y2="171"/><text fill="#000000" font-family="sans-serif" font-size="11" lengthAdjust="spacing" textLength="61" x="13" y="186.4189">-mmmsiCode</text><text fill="#000000" font-family="sans-serif" font-size="11" lengthAdjust="spacing" textLength="51" x="13" y="200.2549">-shipName</text><text fill="#000000" font-family="sans-serif" font-size="11" lengthAdjust="spacing" textLength="45" x="13" y="214.0908">-imoCode</text><text fill="#000000" font-family="sans-serif" font-size="11" lengthAdjust="spacing" textLength="49" x="13" y="227.9268">-callSignId</text><text fill="#000000" font-family="sans-serif" font-size="11" lengthAdjust="spacing" textLength="81" x="13" y="241.7627">-currentCapacity</text><text fill="#000000" font-family="sans-serif" font-size="11" lengthAdjust="spacing" textLength="27" x="13" y="255.5986">-draft</text><!--MD5=[1c0c3765e68dc4575d559b566278b914]
class ShipPosition--><rect codeLine="21" fill="#FEFECE" filter="url(#f8u1bkfhltvrh)" height="150.6875" id="ShipPosition" style="stroke:#A80036;stroke-width:1.5;" width="102" x="86.5" y="340"/><ellipse cx="101.5" cy="356" fill="#ADD1B2" rx="11" ry="11" style="stroke:#A80036;stroke-width:1.0;"/><path d="M103.5,352.5 Q103.7031,352 103.9375,351.75 Q104.1719,351.5 104.4375,351.5 Q104.9063,351.5 105.2031,351.7813 Q105.5,352.0625 105.5,352.7188 L105.5,354.2813 Q105.5,354.9375 105.2188,355.2188 Q104.9375,355.5 104.5,355.5 Q104.1094,355.5 103.8594,355.3281 Q103.6094,355.1563 103.5,354.7031 Q103.4531,354.3906 103.2813,354.2188 Q102.9688,353.8906 102.4063,353.7031 Q101.8438,353.5 101.2813,353.5 Q100.5781,353.5 99.9844,353.7813 Q99.4063,354.0625 98.9531,354.6875 Q98.5,355.3125 98.5,356.1719 L98.5,357.0938 Q98.5,358.125 99.3438,358.8125 Q100.1875,359.5 101.6875,359.5 Q102.5781,359.5 103.2031,359.2969 Q103.5625,359.1875 103.9688,358.8281 Q104.2344,358.625 104.375,358.5625 Q104.5156,358.5 104.6875,358.5 Q105.0156,358.5 105.25,358.7656 Q105.5,359.0156 105.5,359.375 Q105.5,359.7188 105.1563,360.125 Q104.6563,360.7188 103.8594,361.0469 Q102.8125,361.5 101.5313,361.5 Q100.0313,361.5 98.8281,360.9063 Q97.8594,360.4375 97.1719,359.4219 Q96.5,358.4063 96.5,357.2031 L96.5,356.1094 Q96.5,354.8594 97.0938,353.7656 Q97.7031,352.6719 98.75,352.0938 Q99.8125,351.5 101,351.5 Q101.7188,351.5 102.3438,351.75 Q102.9688,352 103.5,352.5 Z " fill="#000000"/><text fill="#000000" font-family="sans-serif" font-size="12" lengthAdjust="spacing" textLength="70" x="115.5" y="360.9102">ShipPosition</text><line style="stroke:#A80036;stroke-width:1.5;" x1="87.5" x2="187.5" y1="372" y2="372"/><text fill="#000000" font-family="sans-serif" font-size="11" lengthAdjust="spacing" textLength="72" x="92.5" y="387.4189">-baseDateTime</text><text fill="#000000" font-family="sans-serif" font-size="11" lengthAdjust="spacing" textLength="38" x="92.5" y="401.2549">-latitude</text><text fill="#000000" font-family="sans-serif" font-size="11" lengthAdjust="spacing" textLength="47" x="92.5" y="415.0908">-longitude</text><text fill="#000000" font-family="sans-serif" font-size="11" lengthAdjust="spacing" textLength="22" x="92.5" y="428.9268">-sog</text><text fill="#000000" font-family="sans-serif" font-size="11" lengthAdjust="spacing" textLength="22" x="92.5" y="442.7627">-cog</text><text fill="#000000" font-family="sans-serif" font-size="11" lengthAdjust="spacing" textLength="42" x="92.5" y="456.5986">-heading</text><text fill="#000000" font-family="sans-serif" font-size="11" lengthAdjust="spacing" textLength="41" x="92.5" y="470.4346">-position</text><text fill="#000000" font-family="sans-serif" font-size="11" lengthAdjust="spacing" textLength="59" x="92.5" y="484.2705">-transceiver</text><!--MD5=[f56e222e1748568825f030a9b791275e]
link Ship to ShipPosition--><path codeLine="32" d="M77.46,262.25 C86.96,286.35 97.99,314.31 107.98,339.65 " fill="none" id="Ship-ShipPosition" style="stroke:#A80036;stroke-width:1.0;"/><polygon fill="#000000" points="102.3341,305.8272,101.7502,296.3346,96.2821,298.4908,102.3341,305.8272" style="stroke:#000000;stroke-width:1.0;"/><text fill="#000000" font-family="sans-serif" font-size="13" lengthAdjust="spacing" textLength="21" x="109.5" y="306.4951">has</text><text fill="#000000" font-family="sans-serif" font-size="13" lengthAdjust="spacing" textLength="7" x="72.6978" y="283.3924">1</text><text fill="#000000" font-family="sans-serif" font-size="13" lengthAdjust="spacing" textLength="20" x="84.2133" y="329.1848">1..*</text><!--MD5=[0e32c7758dbd9763ef36bc86a30fd8c6]
link TrafficManager to ShipPosition--><path codeLine="33" d="M187.62,216.82 C181.15,242.33 167.76,295.15 156.45,339.77 " fill="none" id="TrafficManager-ShipPosition" style="stroke:#A80036;stroke-width:1.0;"/><polygon fill="#000000" points="171.2713,306.0225,176.3429,297.977,170.6452,296.5325,171.2713,306.0225" style="stroke:#000000;stroke-width:1.0;"/><text fill="#000000" font-family="sans-serif" font-size="13" lengthAdjust="spacing" textLength="46" x="181.5" y="306.4951">controls</text><text fill="#000000" font-family="sans-serif" font-size="13" lengthAdjust="spacing" textLength="7" x="178.2676" y="238.1231">1</text><text fill="#000000" font-family="sans-serif" font-size="13" lengthAdjust="spacing" textLength="20" x="137.331" y="329.0556">1..*</text><!--MD5=[37a14a5de6d6fd738aee271300f4b5c8]
link Company to Ship--><path codeLine="34" d="M53.5,61.07 C53.5,81.9 53.5,111.95 53.5,138.74 " fill="none" id="Company-Ship" style="stroke:#A80036;stroke-width:1.0;"/><polygon fill="#000000" points="58.5,105.1758,61.4389,96.1307,55.5611,96.1307,58.5,105.1758" style="stroke:#000000;stroke-width:1.0;"/><text fill="#000000" font-family="sans-serif" font-size="13" lengthAdjust="spacing" textLength="30" x="67.5" y="105.4951">owns</text><text fill="#000000" font-family="sans-serif" font-size="13" lengthAdjust="spacing" textLength="7" x="45.7344" y="82.2931">1</text><text fill="#000000" font-family="sans-serif" font-size="13" lengthAdjust="spacing" textLength="20" x="32.3438" y="128.1885">1..*</text><!--MD5=[d364902f679b519bdf655a42ff711efb]
@startuml

skinparam classAttributeIconSize 0
hide empty methods
hide empty attributes

class Company {
    -designation
}

class TrafficManager {}

class Ship {
    -mmmsiCode
    -shipName
    -imoCode
    -callSignId
    -currentCapacity /'added by us'/
    -draft
}

class ShipPosition {
    -baseDateTime
    -latitude
    -longitude
    -sog
    -cog
    -heading
    -position
    -transceiver
}

Ship "1" - - "1..*" ShipPosition : has >
TrafficManager "1" - - "1..*" ShipPosition : controls >
Company "1" - - "1..*" Ship : owns >

@enduml

@startuml

skinparam classAttributeIconSize 0
hide empty methods
hide empty attributes

class Company {
    -designation
}

class TrafficManager {}

class Ship {
    -mmmsiCode
    -shipName
    -imoCode
    -callSignId
    -currentCapacity 
    -draft
}

class ShipPosition {
    -baseDateTime
    -latitude
    -longitude
    -sog
    -cog
    -heading
    -position
    -transceiver
}

Ship "1" - - "1..*" ShipPosition : has >
TrafficManager "1" - - "1..*" ShipPosition : controls >
Company "1" - - "1..*" Ship : owns >

@enduml

PlantUML version 1.2021.11(Sat Oct 02 14:26:11 BST 2021)
(GPL source distribution)
Java Runtime: OpenJDK Runtime Environment
JVM: OpenJDK 64-Bit Server VM
Default Encoding: Cp1252
Language: pt
Country: PT
--></g></svg>