<?xml version="1.0" encoding="UTF-8" standalone="no"?><svg xmlns="http://www.w3.org/2000/svg" xmlns:xlink="http://www.w3.org/1999/xlink" contentScriptType="application/ecmascript" contentStyleType="text/css" height="317px" preserveAspectRatio="none" style="width:367px;height:317px;background:#FFFFFF;" version="1.1" viewBox="0 0 367 317" width="367px" zoomAndPan="magnify"><defs><filter height="300%" id="fti1ocqp1aryb" width="300%" x="-1" y="-1"><feGaussianBlur result="blurOut" stdDeviation="2.0"/><feColorMatrix in="blurOut" result="blurOut2" type="matrix" values="0 0 0 0 0 0 0 0 0 0 0 0 0 0 0 0 0 0 .4 0"/><feOffset dx="4.0" dy="4.0" in="blurOut2" result="blurOut3"/><feBlend in="SourceGraphic" in2="blurOut3" mode="normal"/></filter></defs><g><!--MD5=[04448341e56eef44932f017f134e9dfc]
class NumCargoManifestsController--><rect codeLine="7" fill="#FEFECE" filter="url(#fti1ocqp1aryb)" height="52.8047" id="NumCargoManifestsController" style="stroke:#A80036;stroke-width:1.5;" width="322" x="31" y="7"/><ellipse cx="98.75" cy="23" fill="#ADD1B2" rx="11" ry="11" style="stroke:#A80036;stroke-width:1.0;"/><path d="M101.2188,28.875 Q100.6406,29.1875 100,29.3438 Q99.3594,29.5 98.6563,29.5 Q96.1563,29.5 94.8281,27.8281 Q93.5156,26.1563 93.5156,23 Q93.5156,19.8438 94.8281,18.1719 Q96.1563,16.5 98.6563,16.5 Q99.3594,16.5 100,16.6563 Q100.6563,16.8125 101.2188,17.125 L101.2188,19.9219 Q100.5938,19.3594 100,19.0938 Q99.4063,18.8125 98.7813,18.8125 Q97.4375,18.8125 96.75,19.875 Q96.0625,20.9375 96.0625,23 Q96.0625,25.0781 96.75,26.1406 Q97.4375,27.1875 98.7813,27.1875 Q99.4063,27.1875 100,26.9219 Q100.5938,26.6563 101.2188,26.0781 L101.2188,28.875 Z " fill="#000000"/><text fill="#000000" font-family="sans-serif" font-size="12" lengthAdjust="spacing" textLength="178" x="119.25" y="27.1543">NumCargoManifestsController</text><line style="stroke:#A80036;stroke-width:1.5;" x1="32" x2="352" y1="39" y2="39"/><text fill="#000000" font-family="sans-serif" font-size="11" lengthAdjust="spacing" textLength="310" x="37" y="53.2104">-getNumberOfCMAndAverageContForYear(year, mmsi)</text><!--MD5=[02e4b9b7573f1156f41e60aa5b4e25a4]
class Company--><rect codeLine="11" fill="#FEFECE" filter="url(#fti1ocqp1aryb)" height="52.8047" id="Company" style="stroke:#A80036;stroke-width:1.5;" width="96" x="69" y="121"/><ellipse cx="87.15" cy="137" fill="#ADD1B2" rx="11" ry="11" style="stroke:#A80036;stroke-width:1.0;"/><path d="M89.6188,142.875 Q89.0406,143.1875 88.4,143.3438 Q87.7594,143.5 87.0563,143.5 Q84.5563,143.5 83.2281,141.8281 Q81.9156,140.1563 81.9156,137 Q81.9156,133.8438 83.2281,132.1719 Q84.5563,130.5 87.0563,130.5 Q87.7594,130.5 88.4,130.6563 Q89.0563,130.8125 89.6188,131.125 L89.6188,133.9219 Q88.9938,133.3594 88.4,133.0938 Q87.8063,132.8125 87.1813,132.8125 Q85.8375,132.8125 85.15,133.875 Q84.4625,134.9375 84.4625,137 Q84.4625,139.0781 85.15,140.1406 Q85.8375,141.1875 87.1813,141.1875 Q87.8063,141.1875 88.4,140.9219 Q88.9938,140.6563 89.6188,140.0781 L89.6188,142.875 Z " fill="#000000"/><text fill="#000000" font-family="sans-serif" font-size="12" lengthAdjust="spacing" textLength="57" x="101.85" y="141.1543">Company</text><line style="stroke:#A80036;stroke-width:1.5;" x1="70" x2="164" y1="153" y2="153"/><text fill="#000000" font-family="sans-serif" font-size="11" lengthAdjust="spacing" textLength="84" x="75" y="167.2104">-getShipStore()</text><!--MD5=[ff2565aa0472c3d8fc6baea2a6d0e49e]
class ShipsStoreDatabase--><rect codeLine="15" fill="#FEFECE" filter="url(#fti1ocqp1aryb)" height="52.8047" id="ShipsStoreDatabase" style="stroke:#A80036;stroke-width:1.5;" width="322" x="7" y="251"/><ellipse cx="103.25" cy="267" fill="#ADD1B2" rx="11" ry="11" style="stroke:#A80036;stroke-width:1.0;"/><path d="M105.7188,272.875 Q105.1406,273.1875 104.5,273.3438 Q103.8594,273.5 103.1563,273.5 Q100.6563,273.5 99.3281,271.8281 Q98.0156,270.1563 98.0156,267 Q98.0156,263.8438 99.3281,262.1719 Q100.6563,260.5 103.1563,260.5 Q103.8594,260.5 104.5,260.6563 Q105.1563,260.8125 105.7188,261.125 L105.7188,263.9219 Q105.0938,263.3594 104.5,263.0938 Q103.9063,262.8125 103.2813,262.8125 Q101.9375,262.8125 101.25,263.875 Q100.5625,264.9375 100.5625,267 Q100.5625,269.0781 101.25,270.1406 Q101.9375,271.1875 103.2813,271.1875 Q103.9063,271.1875 104.5,270.9219 Q105.0938,270.6563 105.7188,270.0781 L105.7188,272.875 Z " fill="#000000"/><text fill="#000000" font-family="sans-serif" font-size="12" lengthAdjust="spacing" textLength="121" x="123.75" y="271.1543">ShipsStoreDatabase</text><line style="stroke:#A80036;stroke-width:1.5;" x1="8" x2="328" y1="283" y2="283"/><text fill="#000000" font-family="sans-serif" font-size="11" lengthAdjust="spacing" textLength="310" x="13" y="297.2104">-getNumberOfCMAndAverageContForYear(year, mmsi)</text><!--MD5=[f0def0a35d3e7d111a86a6ece6b47c33]
link NumCargoManifestsController to Company--><path codeLine="21" d="M174.79,60.2 C163.55,76.98 148.83,98.97 137.05,116.56 " fill="none" id="NumCargoManifestsController-to-Company" style="stroke:#A80036;stroke-width:1.0;stroke-dasharray:7.0,7.0;"/><polygon fill="#A80036" points="134.13,120.92,142.4505,115.6503,136.9035,116.7597,135.7941,111.2127,134.13,120.92" style="stroke:#A80036;stroke-width:1.0;"/><!--MD5=[8164e7f52aa3d2a86716201a912f5183]
link NumCargoManifestsController to ShipsStoreDatabase--><path codeLine="22" d="M196.6,60.27 C202.2,96.66 209.35,164.92 196,221 C193.97,229.52 190.42,238.22 186.5,246.12 " fill="none" id="NumCargoManifestsController-to-ShipsStoreDatabase" style="stroke:#A80036;stroke-width:1.0;stroke-dasharray:7.0,7.0;"/><polygon fill="#A80036" points="184.03,250.93,191.6961,244.7469,186.3116,246.4809,184.5776,241.0964,184.03,250.93" style="stroke:#A80036;stroke-width:1.0;"/><!--MD5=[e00180467205b0f1f717f544e6723b16]
link Company to ShipsStoreDatabase--><path codeLine="23" d="M127.2,174.1 C136.09,196.42 148.93,228.64 157.82,250.95 " fill="none" id="Company-ShipsStoreDatabase" style="stroke:#A80036;stroke-width:1.0;"/><polygon fill="#000000" points="152.8507,217.2113,152.2329,207.7208,146.7726,209.8964,152.8507,217.2113" style="stroke:#000000;stroke-width:1.0;"/><text fill="#000000" font-family="sans-serif" font-size="13" lengthAdjust="spacing" textLength="30" x="160" y="217.0669">uses</text><text fill="#000000" font-family="sans-serif" font-size="13" lengthAdjust="spacing" textLength="8" x="120.5563" y="193.6622">1</text><text fill="#000000" font-family="sans-serif" font-size="13" lengthAdjust="spacing" textLength="8" x="146.3636" y="239.7572">1</text><!--MD5=[de7bc5de0eadb01b5e6e8717ea200fd1]
@startuml

hide empty methods
hide empty attributes
'left to right direction
skinparam classAttributeIconSize 0

class NumCargoManifestsController{
- getNumberOfCMAndAverageContForYear(year, mmsi)
}

class Company{
- getShipStore()
}

class ShipsStoreDatabase{
- getNumberOfCMAndAverageContForYear(year, mmsi)
}



NumCargoManifestsController ..> Company
NumCargoManifestsController ..> ShipsStoreDatabase
Company "1" - - "1" ShipsStoreDatabase : uses >

@enduml

@startuml

hide empty methods
hide empty attributes
skinparam classAttributeIconSize 0

class NumCargoManifestsController{
- getNumberOfCMAndAverageContForYear(year, mmsi)
}

class Company{
- getShipStore()
}

class ShipsStoreDatabase{
- getNumberOfCMAndAverageContForYear(year, mmsi)
}



NumCargoManifestsController ..> Company
NumCargoManifestsController ..> ShipsStoreDatabase
Company "1" - - "1" ShipsStoreDatabase : uses >

@enduml

PlantUML version 1.2021.11(Sat Oct 02 14:26:11 WEST 2021)
(GPL source distribution)
Java Runtime: OpenJDK Runtime Environment
JVM: OpenJDK 64-Bit Server VM
Default Encoding: UTF-8
Language: en
Country: US
--></g></svg>