<?xml version="1.0" encoding="UTF-8" standalone="no"?><svg xmlns="http://www.w3.org/2000/svg" xmlns:xlink="http://www.w3.org/1999/xlink" contentScriptType="application/ecmascript" contentStyleType="text/css" height="255px" preserveAspectRatio="none" style="width:918px;height:255px;background:#FFFFFF;" version="1.1" viewBox="0 0 918 255" width="918px" zoomAndPan="magnify"><defs><filter height="300%" id="f1f7nbddmscihq" width="300%" x="-1" y="-1"><feGaussianBlur result="blurOut" stdDeviation="2.0"/><feColorMatrix in="blurOut" result="blurOut2" type="matrix" values="0 0 0 0 0 0 0 0 0 0 0 0 0 0 0 0 0 0 .4 0"/><feOffset dx="4.0" dy="4.0" in="blurOut2" result="blurOut3"/><feBlend in="SourceGraphic" in2="blurOut3" mode="normal"/></filter></defs><g><rect fill="#FFFFFF" filter="url(#f1f7nbddmscihq)" height="52.7031" style="stroke:#A80036;stroke-width:1.0;" width="10" x="46" y="99.6094"/><rect fill="#FFFFFF" filter="url(#f1f7nbddmscihq)" height="39.3516" style="stroke:#A80036;stroke-width:1.0;" width="10" x="869" y="121.9609"/><line style="stroke:#A80036;stroke-width:1.0;stroke-dasharray:5.0,5.0;" x1="51" x2="51" y1="89.6094" y2="170.3125"/><line style="stroke:#A80036;stroke-width:1.0;stroke-dasharray:5.0,5.0;" x1="874" x2="874" y1="89.6094" y2="170.3125"/><text fill="#000000" font-family="sans-serif" font-size="14" lengthAdjust="spacing" textLength="86" x="5" y="86.5332">Port Manager</text><ellipse cx="51" cy="15" fill="#FEFECE" filter="url(#f1f7nbddmscihq)" rx="8" ry="8" style="stroke:#A80036;stroke-width:2.0;"/><path d="M51,23 L51,50 M38,31 L64,31 M51,50 L38,65 M51,50 L64,65 " fill="none" filter="url(#f1f7nbddmscihq)" style="stroke:#A80036;stroke-width:2.0;"/><text fill="#000000" font-family="sans-serif" font-size="14" lengthAdjust="spacing" textLength="86" x="5" y="183.8457">Port Manager</text><ellipse cx="51" cy="196.9219" fill="#FEFECE" filter="url(#f1f7nbddmscihq)" rx="8" ry="8" style="stroke:#A80036;stroke-width:2.0;"/><path d="M51,204.9219 L51,231.9219 M38,212.9219 L64,212.9219 M51,231.9219 L38,246.9219 M51,231.9219 L64,246.9219 " fill="none" filter="url(#f1f7nbddmscihq)" style="stroke:#A80036;stroke-width:2.0;"/><rect fill="#FEFECE" filter="url(#f1f7nbddmscihq)" height="31.6094" style="stroke:#A80036;stroke-width:1.5;" width="64" x="840" y="53"/><text fill="#000000" font-family="sans-serif" font-size="14" lengthAdjust="spacing" textLength="50" x="847" y="74.5332">:System</text><rect fill="#FEFECE" filter="url(#f1f7nbddmscihq)" height="31.6094" style="stroke:#A80036;stroke-width:1.5;" width="64" x="840" y="169.3125"/><text fill="#000000" font-family="sans-serif" font-size="14" lengthAdjust="spacing" textLength="50" x="847" y="190.8457">:System</text><rect fill="#FFFFFF" filter="url(#f1f7nbddmscihq)" height="52.7031" style="stroke:#A80036;stroke-width:1.0;" width="10" x="46" y="99.6094"/><rect fill="#FFFFFF" filter="url(#f1f7nbddmscihq)" height="39.3516" style="stroke:#A80036;stroke-width:1.0;" width="10" x="869" y="121.9609"/><polygon fill="#A80036" points="857,117.9609,867,121.9609,857,125.9609,861,121.9609" style="stroke:#A80036;stroke-width:1.0;"/><line style="stroke:#A80036;stroke-width:1.0;" x1="56" x2="863" y1="121.9609" y2="121.9609"/><text fill="#000000" font-family="sans-serif" font-size="13" font-weight="bold" lengthAdjust="spacing" textLength="7" x="63" y="117.1045">1</text><text fill="#000000" font-family="sans-serif" font-size="13" lengthAdjust="spacing" textLength="783" x="74" y="117.1045">asks to get a week in advance, the loading and unloading map based on ships and trucks load manifests and corresponding travel plans</text><polygon fill="#A80036" points="62,148.3125,52,152.3125,62,156.3125,58,152.3125" style="stroke:#A80036;stroke-width:1.0;"/><line style="stroke:#A80036;stroke-width:1.0;stroke-dasharray:2.0,2.0;" x1="56" x2="868" y1="152.3125" y2="152.3125"/><text fill="#000000" font-family="sans-serif" font-size="13" font-weight="bold" lengthAdjust="spacing" textLength="7" x="68" y="147.4561">2</text><text fill="#000000" font-family="sans-serif" font-size="13" lengthAdjust="spacing" textLength="106" x="79" y="147.4561">operation success</text><!--MD5=[860d52f3c95211c3eea52b2a46ae8744]
@startuml
autonumber
actor "Port Manager" as PM

activate PM
PM -> ":System" : asks to get a week in advance, the loading and unloading map based on ships and trucks load manifests and corresponding travel plans

activate ":System"
":System" - -> PM : operation success

deactivate PM
@enduml

PlantUML version 1.2021.11(Sat Oct 02 14:26:11 BST 2021)
(GPL source distribution)
Java Runtime: OpenJDK Runtime Environment
JVM: OpenJDK 64-Bit Server VM
Default Encoding: Cp1252
Language: pt
Country: PT
--></g></svg>