<?xml version="1.0" encoding="UTF-8" standalone="no"?><svg xmlns="http://www.w3.org/2000/svg" xmlns:xlink="http://www.w3.org/1999/xlink" contentScriptType="application/ecmascript" contentStyleType="text/css" height="345px" preserveAspectRatio="none" style="width:284px;height:345px;background:#FFFFFF;" version="1.1" viewBox="0 0 284 345" width="284px" zoomAndPan="magnify"><defs><filter height="300%" id="f1ale8hdu7fo8k" width="300%" x="-1" y="-1"><feGaussianBlur result="blurOut" stdDeviation="2.0"/><feColorMatrix in="blurOut" result="blurOut2" type="matrix" values="0 0 0 0 0 0 0 0 0 0 0 0 0 0 0 0 0 0 .4 0"/><feOffset dx="4.0" dy="4.0" in="blurOut2" result="blurOut3"/><feBlend in="SourceGraphic" in2="blurOut3" mode="normal"/></filter></defs><g><!--MD5=[81f5fdad616b6e9b91d60ae500b85bfd]
class GetUnloadingLoadingMapController--><rect codeLine="3" fill="#FEFECE" filter="url(#f1ale8hdu7fo8k)" height="61.8359" id="GetUnloadingLoadingMapController" style="stroke:#A80036;stroke-width:1.5;" width="230" x="31.5" y="7"/><ellipse cx="46.5" cy="23" fill="#ADD1B2" rx="11" ry="11" style="stroke:#A80036;stroke-width:1.0;"/><path d="M48.5,19.5 Q48.7031,19 48.9375,18.75 Q49.1719,18.5 49.4375,18.5 Q49.9063,18.5 50.2031,18.7813 Q50.5,19.0625 50.5,19.7188 L50.5,21.2813 Q50.5,21.9375 50.2188,22.2188 Q49.9375,22.5 49.5,22.5 Q49.1094,22.5 48.8594,22.3281 Q48.6094,22.1563 48.5,21.7031 Q48.4531,21.3906 48.2813,21.2188 Q47.9688,20.8906 47.4063,20.7031 Q46.8438,20.5 46.2813,20.5 Q45.5781,20.5 44.9844,20.7813 Q44.4063,21.0625 43.9531,21.6875 Q43.5,22.3125 43.5,23.1719 L43.5,24.0938 Q43.5,25.125 44.3438,25.8125 Q45.1875,26.5 46.6875,26.5 Q47.5781,26.5 48.2031,26.2969 Q48.5625,26.1875 48.9688,25.8281 Q49.2344,25.625 49.375,25.5625 Q49.5156,25.5 49.6875,25.5 Q50.0156,25.5 50.25,25.7656 Q50.5,26.0156 50.5,26.375 Q50.5,26.7188 50.1563,27.125 Q49.6563,27.7188 48.8594,28.0469 Q47.8125,28.5 46.5313,28.5 Q45.0313,28.5 43.8281,27.9063 Q42.8594,27.4375 42.1719,26.4219 Q41.5,25.4063 41.5,24.2031 L41.5,23.1094 Q41.5,21.8594 42.0938,20.7656 Q42.7031,19.6719 43.75,19.0938 Q44.8125,18.5 46,18.5 Q46.7188,18.5 47.3438,18.75 Q47.9688,19 48.5,19.5 Z " fill="#000000"/><text fill="#000000" font-family="sans-serif" font-size="12" lengthAdjust="spacing" textLength="198" x="60.5" y="27.9102">GetUnloadingLoadingMapController</text><line style="stroke:#A80036;stroke-width:1.5;" x1="32.5" x2="260.5" y1="39" y2="39"/><line style="stroke:#A80036;stroke-width:1.5;" x1="32.5" x2="260.5" y1="47" y2="47"/><text fill="#000000" font-family="sans-serif" font-size="11" lengthAdjust="spacing" textLength="134" x="37.5" y="62.4189">+getUnloadingLoadingMap()</text><!--MD5=[02e4b9b7573f1156f41e60aa5b4e25a4]
class Company--><rect codeLine="7" fill="#FEFECE" filter="url(#f1ale8hdu7fo8k)" height="61.8359" id="Company" style="stroke:#A80036;stroke-width:1.5;" width="151" x="7" y="130"/><ellipse cx="51.75" cy="146" fill="#ADD1B2" rx="11" ry="11" style="stroke:#A80036;stroke-width:1.0;"/><path d="M53.75,142.5 Q53.9531,142 54.1875,141.75 Q54.4219,141.5 54.6875,141.5 Q55.1563,141.5 55.4531,141.7813 Q55.75,142.0625 55.75,142.7188 L55.75,144.2813 Q55.75,144.9375 55.4688,145.2188 Q55.1875,145.5 54.75,145.5 Q54.3594,145.5 54.1094,145.3281 Q53.8594,145.1563 53.75,144.7031 Q53.7031,144.3906 53.5313,144.2188 Q53.2188,143.8906 52.6563,143.7031 Q52.0938,143.5 51.5313,143.5 Q50.8281,143.5 50.2344,143.7813 Q49.6563,144.0625 49.2031,144.6875 Q48.75,145.3125 48.75,146.1719 L48.75,147.0938 Q48.75,148.125 49.5938,148.8125 Q50.4375,149.5 51.9375,149.5 Q52.8281,149.5 53.4531,149.2969 Q53.8125,149.1875 54.2188,148.8281 Q54.4844,148.625 54.625,148.5625 Q54.7656,148.5 54.9375,148.5 Q55.2656,148.5 55.5,148.7656 Q55.75,149.0156 55.75,149.375 Q55.75,149.7188 55.4063,150.125 Q54.9063,150.7188 54.1094,151.0469 Q53.0625,151.5 51.7813,151.5 Q50.2813,151.5 49.0781,150.9063 Q48.1094,150.4375 47.4219,149.4219 Q46.75,148.4063 46.75,147.2031 L46.75,146.1094 Q46.75,144.8594 47.3438,143.7656 Q47.9531,142.6719 49,142.0938 Q50.0625,141.5 51.25,141.5 Q51.9688,141.5 52.5938,141.75 Q53.2188,142 53.75,142.5 Z " fill="#000000"/><text fill="#000000" font-family="sans-serif" font-size="12" lengthAdjust="spacing" textLength="53" x="72.25" y="150.9102">Company</text><line style="stroke:#A80036;stroke-width:1.5;" x1="8" x2="157" y1="162" y2="162"/><line style="stroke:#A80036;stroke-width:1.5;" x1="8" x2="157" y1="170" y2="170"/><text fill="#000000" font-family="sans-serif" font-size="11" lengthAdjust="spacing" textLength="139" x="13" y="185.4189">+getCargoManifestStoreDB()</text><!--MD5=[80429a8c3a07863d2b9a5a642579b4cd]
class ShipStoreDB--><rect codeLine="11" fill="#FEFECE" filter="url(#f1ale8hdu7fo8k)" height="61.8359" id="ShipStoreDB" style="stroke:#A80036;stroke-width:1.5;" width="246" x="24.5" y="270"/><ellipse cx="107.75" cy="286" fill="#ADD1B2" rx="11" ry="11" style="stroke:#A80036;stroke-width:1.0;"/><path d="M109.75,282.5 Q109.9531,282 110.1875,281.75 Q110.4219,281.5 110.6875,281.5 Q111.1563,281.5 111.4531,281.7813 Q111.75,282.0625 111.75,282.7188 L111.75,284.2813 Q111.75,284.9375 111.4688,285.2188 Q111.1875,285.5 110.75,285.5 Q110.3594,285.5 110.1094,285.3281 Q109.8594,285.1563 109.75,284.7031 Q109.7031,284.3906 109.5313,284.2188 Q109.2188,283.8906 108.6563,283.7031 Q108.0938,283.5 107.5313,283.5 Q106.8281,283.5 106.2344,283.7813 Q105.6563,284.0625 105.2031,284.6875 Q104.75,285.3125 104.75,286.1719 L104.75,287.0938 Q104.75,288.125 105.5938,288.8125 Q106.4375,289.5 107.9375,289.5 Q108.8281,289.5 109.4531,289.2969 Q109.8125,289.1875 110.2188,288.8281 Q110.4844,288.625 110.625,288.5625 Q110.7656,288.5 110.9375,288.5 Q111.2656,288.5 111.5,288.7656 Q111.75,289.0156 111.75,289.375 Q111.75,289.7188 111.4063,290.125 Q110.9063,290.7188 110.1094,291.0469 Q109.0625,291.5 107.7813,291.5 Q106.2813,291.5 105.0781,290.9063 Q104.1094,290.4375 103.4219,289.4219 Q102.75,288.4063 102.75,287.2031 L102.75,286.1094 Q102.75,284.8594 103.3438,283.7656 Q103.9531,282.6719 105,282.0938 Q106.0625,281.5 107.25,281.5 Q107.9688,281.5 108.5938,281.75 Q109.2188,282 109.75,282.5 Z " fill="#000000"/><text fill="#000000" font-family="sans-serif" font-size="12" lengthAdjust="spacing" textLength="71" x="128.25" y="290.9102">ShipStoreDB</text><line style="stroke:#A80036;stroke-width:1.5;" x1="25.5" x2="269.5" y1="302" y2="302"/><line style="stroke:#A80036;stroke-width:1.5;" x1="25.5" x2="269.5" y1="310" y2="310"/><text fill="#000000" font-family="sans-serif" font-size="11" lengthAdjust="spacing" textLength="234" x="30.5" y="325.4189">+getUnloadingLoadingMap(dataBaseConnection)</text><!--MD5=[74d5135864bbb6c9cb90e0110a7afacb]
link GetUnloadingLoadingMapController to Company--><path codeLine="15" d="M130.52,69.22 C121.5,86.26 110.21,107.61 100.84,125.32 " fill="none" id="GetUnloadingLoadingMapController-to-Company" style="stroke:#A80036;stroke-width:1.0;stroke-dasharray:7.0,7.0;"/><polygon fill="#A80036" points="98.5,129.74,106.229,123.6356,100.827,125.3145,99.1481,119.9125,98.5,129.74" style="stroke:#A80036;stroke-width:1.0;"/><!--MD5=[15967f3a3d4b527ee1de5eaa89411aa3]
link GetUnloadingLoadingMapController to ShipStoreDB--><path codeLine="16" d="M158.71,69.18 C165.1,86.63 172.26,109.19 175.5,130 C183.02,178.36 181.89,192.4 170.5,240 C168.52,248.27 165.68,256.93 162.67,265.01 " fill="none" id="GetUnloadingLoadingMapController-to-ShipStoreDB" style="stroke:#A80036;stroke-width:1.0;stroke-dasharray:7.0,7.0;"/><polygon fill="#A80036" points="160.78,269.97,167.7299,262.9915,162.5653,265.2996,160.2573,260.135,160.78,269.97" style="stroke:#A80036;stroke-width:1.0;"/><!--MD5=[507cfa299ee4dba6e3c71a3753442b74]
link Company to ShipStoreDB--><path codeLine="17" d="M96.76,192.28 C107.6,215.29 122.44,246.79 133.27,269.79 " fill="none" id="Company-ShipStoreDB" style="stroke:#A80036;stroke-width:1.0;"/><polygon fill="#000000" points="126.6306,235.6991,125.435,226.264,120.1175,228.7687,126.6306,235.6991" style="stroke:#000000;stroke-width:1.0;"/><text fill="#000000" font-family="sans-serif" font-size="13" lengthAdjust="spacing" textLength="28" x="133.5" y="236.4951">uses</text><text fill="#000000" font-family="sans-serif" font-size="13" lengthAdjust="spacing" textLength="7" x="91.8111" y="213.312">1</text><text fill="#000000" font-family="sans-serif" font-size="13" lengthAdjust="spacing" textLength="7" x="122.6132" y="259.2512">1</text><!--MD5=[85a06e514575499ff3645b0285011a33]
@startuml
skinparam classAttributeIconSize 0

class GetUnloadingLoadingMapController{
    +getUnloadingLoadingMap()
}

class Company {
    +getCargoManifestStoreDB()
}

class ShipStoreDB {
    +getUnloadingLoadingMap(dataBaseConnection)
}

GetUnloadingLoadingMapController ..> Company
GetUnloadingLoadingMapController ..> ShipStoreDB
Company "1" - - "1" ShipStoreDB : uses >

@enduml

PlantUML version 1.2021.11(Sat Oct 02 14:26:11 BST 2021)
(GPL source distribution)
Java Runtime: OpenJDK Runtime Environment
JVM: OpenJDK 64-Bit Server VM
Default Encoding: Cp1252
Language: pt
Country: PT
--></g></svg>