<?xml version="1.0" encoding="UTF-8" standalone="no"?><svg xmlns="http://www.w3.org/2000/svg" xmlns:xlink="http://www.w3.org/1999/xlink" contentScriptType="application/ecmascript" contentStyleType="text/css" height="976px" preserveAspectRatio="none" style="width:554px;height:976px;background:#FFFFFF;" version="1.1" viewBox="0 0 554 976" width="554px" zoomAndPan="magnify"><defs><filter height="300%" id="f120ooc6sx45xb" width="300%" x="-1" y="-1"><feGaussianBlur result="blurOut" stdDeviation="2.0"/><feColorMatrix in="blurOut" result="blurOut2" type="matrix" values="0 0 0 0 0 0 0 0 0 0 0 0 0 0 0 0 0 0 .4 0"/><feOffset dx="4.0" dy="4.0" in="blurOut2" result="blurOut3"/><feBlend in="SourceGraphic" in2="blurOut3" mode="normal"/></filter></defs><g><!--MD5=[ed6624c6556d5e7b1bd23032162d20b7]
class Client--><rect codeLine="6" fill="#FEFECE" filter="url(#f120ooc6sx45xb)" height="32" id="Client" style="stroke:#A80036;stroke-width:1.5;" width="64" x="7" y="73.5"/><ellipse cx="22" cy="89.5" fill="#ADD1B2" rx="11" ry="11" style="stroke:#A80036;stroke-width:1.0;"/><path d="M24,86 Q24.2031,85.5 24.4375,85.25 Q24.6719,85 24.9375,85 Q25.4063,85 25.7031,85.2813 Q26,85.5625 26,86.2188 L26,87.7813 Q26,88.4375 25.7188,88.7188 Q25.4375,89 25,89 Q24.6094,89 24.3594,88.8281 Q24.1094,88.6563 24,88.2031 Q23.9531,87.8906 23.7813,87.7188 Q23.4688,87.3906 22.9063,87.2031 Q22.3438,87 21.7813,87 Q21.0781,87 20.4844,87.2813 Q19.9063,87.5625 19.4531,88.1875 Q19,88.8125 19,89.6719 L19,90.5938 Q19,91.625 19.8438,92.3125 Q20.6875,93 22.1875,93 Q23.0781,93 23.7031,92.7969 Q24.0625,92.6875 24.4688,92.3281 Q24.7344,92.125 24.875,92.0625 Q25.0156,92 25.1875,92 Q25.5156,92 25.75,92.2656 Q26,92.5156 26,92.875 Q26,93.2188 25.6563,93.625 Q25.1563,94.2188 24.3594,94.5469 Q23.3125,95 22.0313,95 Q20.5313,95 19.3281,94.4063 Q18.3594,93.9375 17.6719,92.9219 Q17,91.9063 17,90.7031 L17,89.6094 Q17,88.3594 17.5938,87.2656 Q18.2031,86.1719 19.25,85.5938 Q20.3125,85 21.5,85 Q22.2188,85 22.8438,85.25 Q23.4688,85.5 24,86 Z " fill="#000000"/><text fill="#000000" font-family="sans-serif" font-size="12" lengthAdjust="spacing" textLength="32" x="36" y="94.4102">Client</text><!--MD5=[e9a58730c562b34349daa605d1ed6662]
class Container--><rect codeLine="8" fill="#FEFECE" filter="url(#f120ooc6sx45xb)" height="109.1797" id="Container" style="stroke:#A80036;stroke-width:1.5;" width="86" x="82" y="250"/><ellipse cx="97" cy="266" fill="#ADD1B2" rx="11" ry="11" style="stroke:#A80036;stroke-width:1.0;"/><path d="M99,262.5 Q99.2031,262 99.4375,261.75 Q99.6719,261.5 99.9375,261.5 Q100.4063,261.5 100.7031,261.7813 Q101,262.0625 101,262.7188 L101,264.2813 Q101,264.9375 100.7188,265.2188 Q100.4375,265.5 100,265.5 Q99.6094,265.5 99.3594,265.3281 Q99.1094,265.1563 99,264.7031 Q98.9531,264.3906 98.7813,264.2188 Q98.4688,263.8906 97.9063,263.7031 Q97.3438,263.5 96.7813,263.5 Q96.0781,263.5 95.4844,263.7813 Q94.9063,264.0625 94.4531,264.6875 Q94,265.3125 94,266.1719 L94,267.0938 Q94,268.125 94.8438,268.8125 Q95.6875,269.5 97.1875,269.5 Q98.0781,269.5 98.7031,269.2969 Q99.0625,269.1875 99.4688,268.8281 Q99.7344,268.625 99.875,268.5625 Q100.0156,268.5 100.1875,268.5 Q100.5156,268.5 100.75,268.7656 Q101,269.0156 101,269.375 Q101,269.7188 100.6563,270.125 Q100.1563,270.7188 99.3594,271.0469 Q98.3125,271.5 97.0313,271.5 Q95.5313,271.5 94.3281,270.9063 Q93.3594,270.4375 92.6719,269.4219 Q92,268.4063 92,267.2031 L92,266.1094 Q92,264.8594 92.5938,263.7656 Q93.2031,262.6719 94.25,262.0938 Q95.3125,261.5 96.5,261.5 Q97.2188,261.5 97.8438,261.75 Q98.4688,262 99,262.5 Z " fill="#000000"/><text fill="#000000" font-family="sans-serif" font-size="12" lengthAdjust="spacing" textLength="54" x="111" y="270.9102">Container</text><line style="stroke:#A80036;stroke-width:1.5;" x1="83" x2="167" y1="282" y2="282"/><text fill="#000000" font-family="sans-serif" font-size="11" lengthAdjust="spacing" textLength="57" x="88" y="297.4189">-containerId</text><text fill="#000000" font-family="sans-serif" font-size="11" lengthAdjust="spacing" textLength="42" x="88" y="311.2549">-payload</text><text fill="#000000" font-family="sans-serif" font-size="11" lengthAdjust="spacing" textLength="23" x="88" y="325.0908">-tare</text><text fill="#000000" font-family="sans-serif" font-size="11" lengthAdjust="spacing" textLength="32" x="88" y="338.9268">-gross</text><text fill="#000000" font-family="sans-serif" font-size="11" lengthAdjust="spacing" textLength="43" x="88" y="352.7627">-isoCode</text><!--MD5=[76562047389981627aea27c31a97aff5]
class CargoManifest--><rect codeLine="16" fill="#FEFECE" filter="url(#f120ooc6sx45xb)" height="67.6719" id="CargoManifest" style="stroke:#A80036;stroke-width:1.5;" width="112" x="269" y="693"/><ellipse cx="284" cy="709" fill="#ADD1B2" rx="11" ry="11" style="stroke:#A80036;stroke-width:1.0;"/><path d="M286,705.5 Q286.2031,705 286.4375,704.75 Q286.6719,704.5 286.9375,704.5 Q287.4063,704.5 287.7031,704.7813 Q288,705.0625 288,705.7188 L288,707.2813 Q288,707.9375 287.7188,708.2188 Q287.4375,708.5 287,708.5 Q286.6094,708.5 286.3594,708.3281 Q286.1094,708.1563 286,707.7031 Q285.9531,707.3906 285.7813,707.2188 Q285.4688,706.8906 284.9063,706.7031 Q284.3438,706.5 283.7813,706.5 Q283.0781,706.5 282.4844,706.7813 Q281.9063,707.0625 281.4531,707.6875 Q281,708.3125 281,709.1719 L281,710.0938 Q281,711.125 281.8438,711.8125 Q282.6875,712.5 284.1875,712.5 Q285.0781,712.5 285.7031,712.2969 Q286.0625,712.1875 286.4688,711.8281 Q286.7344,711.625 286.875,711.5625 Q287.0156,711.5 287.1875,711.5 Q287.5156,711.5 287.75,711.7656 Q288,712.0156 288,712.375 Q288,712.7188 287.6563,713.125 Q287.1563,713.7188 286.3594,714.0469 Q285.3125,714.5 284.0313,714.5 Q282.5313,714.5 281.3281,713.9063 Q280.3594,713.4375 279.6719,712.4219 Q279,711.4063 279,710.2031 L279,709.1094 Q279,707.8594 279.5938,706.7656 Q280.2031,705.6719 281.25,705.0938 Q282.3125,704.5 283.5,704.5 Q284.2188,704.5 284.8438,704.75 Q285.4688,705 286,705.5 Z " fill="#000000"/><text fill="#000000" font-family="sans-serif" font-size="12" lengthAdjust="spacing" textLength="80" x="298" y="713.9102">CargoManifest</text><line style="stroke:#A80036;stroke-width:1.5;" x1="270" x2="380" y1="725" y2="725"/><text fill="#000000" font-family="sans-serif" font-size="11" lengthAdjust="spacing" textLength="81" x="275" y="740.4189">-cargoManifestId</text><text fill="#000000" font-family="sans-serif" font-size="11" lengthAdjust="spacing" textLength="57" x="275" y="754.2549">-containerId</text><!--MD5=[0dc7f2ddb409b58bcf52b12238c25399]
class Ship--><rect codeLine="21" fill="#FEFECE" filter="url(#f120ooc6sx45xb)" height="164.5234" id="Ship" style="stroke:#A80036;stroke-width:1.5;" width="80" x="312" y="7"/><ellipse cx="337.35" cy="23" fill="#ADD1B2" rx="11" ry="11" style="stroke:#A80036;stroke-width:1.0;"/><path d="M339.35,19.5 Q339.5531,19 339.7875,18.75 Q340.0219,18.5 340.2875,18.5 Q340.7563,18.5 341.0531,18.7813 Q341.35,19.0625 341.35,19.7188 L341.35,21.2813 Q341.35,21.9375 341.0688,22.2188 Q340.7875,22.5 340.35,22.5 Q339.9594,22.5 339.7094,22.3281 Q339.4594,22.1563 339.35,21.7031 Q339.3031,21.3906 339.1313,21.2188 Q338.8188,20.8906 338.2563,20.7031 Q337.6938,20.5 337.1313,20.5 Q336.4281,20.5 335.8344,20.7813 Q335.2563,21.0625 334.8031,21.6875 Q334.35,22.3125 334.35,23.1719 L334.35,24.0938 Q334.35,25.125 335.1938,25.8125 Q336.0375,26.5 337.5375,26.5 Q338.4281,26.5 339.0531,26.2969 Q339.4125,26.1875 339.8188,25.8281 Q340.0844,25.625 340.225,25.5625 Q340.3656,25.5 340.5375,25.5 Q340.8656,25.5 341.1,25.7656 Q341.35,26.0156 341.35,26.375 Q341.35,26.7188 341.0063,27.125 Q340.5063,27.7188 339.7094,28.0469 Q338.6625,28.5 337.3813,28.5 Q335.8813,28.5 334.6781,27.9063 Q333.7094,27.4375 333.0219,26.4219 Q332.35,25.4063 332.35,24.2031 L332.35,23.1094 Q332.35,21.8594 332.9438,20.7656 Q333.5531,19.6719 334.6,19.0938 Q335.6625,18.5 336.85,18.5 Q337.5688,18.5 338.1938,18.75 Q338.8188,19 339.35,19.5 Z " fill="#000000"/><text fill="#000000" font-family="sans-serif" font-size="12" lengthAdjust="spacing" textLength="25" x="353.65" y="27.9102">Ship</text><line style="stroke:#A80036;stroke-width:1.5;" x1="313" x2="391" y1="39" y2="39"/><text fill="#000000" font-family="sans-serif" font-size="11" lengthAdjust="spacing" textLength="53" x="318" y="54.4189">-mmsiCode</text><text fill="#000000" font-family="sans-serif" font-size="11" lengthAdjust="spacing" textLength="51" x="318" y="68.2549">-shipName</text><text fill="#000000" font-family="sans-serif" font-size="11" lengthAdjust="spacing" textLength="45" x="318" y="82.0908">-imoCode</text><text fill="#000000" font-family="sans-serif" font-size="11" lengthAdjust="spacing" textLength="68" x="318" y="95.9268">-vesselTypeId</text><text fill="#000000" font-family="sans-serif" font-size="11" lengthAdjust="spacing" textLength="49" x="318" y="109.7627">-callSignId</text><text fill="#000000" font-family="sans-serif" font-size="11" lengthAdjust="spacing" textLength="32" x="318" y="123.5986">-cargo</text><text fill="#000000" font-family="sans-serif" font-size="11" lengthAdjust="spacing" textLength="27" x="318" y="137.4346">-draft</text><text fill="#000000" font-family="sans-serif" font-size="11" lengthAdjust="spacing" textLength="33" x="318" y="151.2705">-length</text><text fill="#000000" font-family="sans-serif" font-size="11" lengthAdjust="spacing" textLength="31" x="318" y="165.1064">-width</text><!--MD5=[cd383c058592010a1996452fddaad790]
class ShipTrip--><rect codeLine="33" fill="#FEFECE" filter="url(#f120ooc6sx45xb)" height="178.3594" id="ShipTrip" style="stroke:#A80036;stroke-width:1.5;" width="120" x="420" y="437"/><ellipse cx="453.9" cy="453" fill="#ADD1B2" rx="11" ry="11" style="stroke:#A80036;stroke-width:1.0;"/><path d="M455.9,449.5 Q456.1031,449 456.3375,448.75 Q456.5719,448.5 456.8375,448.5 Q457.3063,448.5 457.6031,448.7813 Q457.9,449.0625 457.9,449.7188 L457.9,451.2813 Q457.9,451.9375 457.6188,452.2188 Q457.3375,452.5 456.9,452.5 Q456.5094,452.5 456.2594,452.3281 Q456.0094,452.1563 455.9,451.7031 Q455.8531,451.3906 455.6813,451.2188 Q455.3688,450.8906 454.8063,450.7031 Q454.2438,450.5 453.6813,450.5 Q452.9781,450.5 452.3844,450.7813 Q451.8063,451.0625 451.3531,451.6875 Q450.9,452.3125 450.9,453.1719 L450.9,454.0938 Q450.9,455.125 451.7438,455.8125 Q452.5875,456.5 454.0875,456.5 Q454.9781,456.5 455.6031,456.2969 Q455.9625,456.1875 456.3688,455.8281 Q456.6344,455.625 456.775,455.5625 Q456.9156,455.5 457.0875,455.5 Q457.4156,455.5 457.65,455.7656 Q457.9,456.0156 457.9,456.375 Q457.9,456.7188 457.5563,457.125 Q457.0563,457.7188 456.2594,458.0469 Q455.2125,458.5 453.9313,458.5 Q452.4313,458.5 451.2281,457.9063 Q450.2594,457.4375 449.5719,456.4219 Q448.9,455.4063 448.9,454.2031 L448.9,453.1094 Q448.9,451.8594 449.4938,450.7656 Q450.1031,449.6719 451.15,449.0938 Q452.2125,448.5 453.4,448.5 Q454.1188,448.5 454.7438,448.75 Q455.3688,449 455.9,449.5 Z " fill="#000000"/><text fill="#000000" font-family="sans-serif" font-size="12" lengthAdjust="spacing" textLength="46" x="472.1" y="457.9102">ShipTrip</text><line style="stroke:#A80036;stroke-width:1.5;" x1="421" x2="539" y1="469" y2="469"/><text fill="#000000" font-family="sans-serif" font-size="11" lengthAdjust="spacing" textLength="43" x="426" y="484.4189">-route_id</text><text fill="#000000" font-family="sans-serif" font-size="11" lengthAdjust="spacing" textLength="48" x="426" y="498.2549">-shipMmsi</text><text fill="#000000" font-family="sans-serif" font-size="11" lengthAdjust="spacing" textLength="108" x="426" y="512.0908">-departure_location_id</text><text fill="#000000" font-family="sans-serif" font-size="11" lengthAdjust="spacing" textLength="91" x="426" y="525.9268">-arrival_location_id</text><text fill="#000000" font-family="sans-serif" font-size="11" lengthAdjust="spacing" textLength="86" x="426" y="539.7627">-loading_cargo_id</text><text fill="#000000" font-family="sans-serif" font-size="11" lengthAdjust="spacing" textLength="98" x="426" y="553.5986">-unloading_cargo_id</text><text fill="#000000" font-family="sans-serif" font-size="11" lengthAdjust="spacing" textLength="99" x="426" y="567.4346">-est_departure_date</text><text fill="#000000" font-family="sans-serif" font-size="11" lengthAdjust="spacing" textLength="82" x="426" y="581.2705">-est_arrival_date</text><text fill="#000000" font-family="sans-serif" font-size="11" lengthAdjust="spacing" textLength="102" x="426" y="595.1064">-real_departure_date</text><text fill="#000000" font-family="sans-serif" font-size="11" lengthAdjust="spacing" textLength="85" x="426" y="608.9424">-real_arrival_date</text><!--MD5=[a0bfe97ac0a38e6e74cc1c7c7b744b71]
class Port--><rect codeLine="47" fill="#FEFECE" filter="url(#f120ooc6sx45xb)" height="123.0156" id="Port" style="stroke:#A80036;stroke-width:1.5;" width="76" x="227" y="839"/><ellipse cx="251.9" cy="855" fill="#ADD1B2" rx="11" ry="11" style="stroke:#A80036;stroke-width:1.0;"/><path d="M253.9,851.5 Q254.1031,851 254.3375,850.75 Q254.5719,850.5 254.8375,850.5 Q255.3063,850.5 255.6031,850.7813 Q255.9,851.0625 255.9,851.7188 L255.9,853.2813 Q255.9,853.9375 255.6188,854.2188 Q255.3375,854.5 254.9,854.5 Q254.5094,854.5 254.2594,854.3281 Q254.0094,854.1563 253.9,853.7031 Q253.8531,853.3906 253.6813,853.2188 Q253.3688,852.8906 252.8063,852.7031 Q252.2438,852.5 251.6813,852.5 Q250.9781,852.5 250.3844,852.7813 Q249.8063,853.0625 249.3531,853.6875 Q248.9,854.3125 248.9,855.1719 L248.9,856.0938 Q248.9,857.125 249.7438,857.8125 Q250.5875,858.5 252.0875,858.5 Q252.9781,858.5 253.6031,858.2969 Q253.9625,858.1875 254.3688,857.8281 Q254.6344,857.625 254.775,857.5625 Q254.9156,857.5 255.0875,857.5 Q255.4156,857.5 255.65,857.7656 Q255.9,858.0156 255.9,858.375 Q255.9,858.7188 255.5563,859.125 Q255.0563,859.7188 254.2594,860.0469 Q253.2125,860.5 251.9313,860.5 Q250.4313,860.5 249.2281,859.9063 Q248.2594,859.4375 247.5719,858.4219 Q246.9,857.4063 246.9,856.2031 L246.9,855.1094 Q246.9,853.8594 247.4938,852.7656 Q248.1031,851.6719 249.15,851.0938 Q250.2125,850.5 251.4,850.5 Q252.1188,850.5 252.7438,850.75 Q253.3688,851 253.9,851.5 Z " fill="#000000"/><text fill="#000000" font-family="sans-serif" font-size="12" lengthAdjust="spacing" textLength="22" x="268.1" y="859.9102">Port</text><line style="stroke:#A80036;stroke-width:1.5;" x1="228" x2="302" y1="871" y2="871"/><text fill="#000000" font-family="sans-serif" font-size="11" lengthAdjust="spacing" textLength="64" x="233" y="886.4189">-identification</text><text fill="#000000" font-family="sans-serif" font-size="11" lengthAdjust="spacing" textLength="30" x="233" y="900.2549">-name</text><text fill="#000000" font-family="sans-serif" font-size="11" lengthAdjust="spacing" textLength="48" x="233" y="914.0908">-continent</text><text fill="#000000" font-family="sans-serif" font-size="11" lengthAdjust="spacing" textLength="41" x="233" y="927.9268">-country</text><text fill="#000000" font-family="sans-serif" font-size="11" lengthAdjust="spacing" textLength="15" x="233" y="941.7627">-lat</text><text fill="#000000" font-family="sans-serif" font-size="11" lengthAdjust="spacing" textLength="18" x="233" y="955.5986">-lon</text><!--MD5=[f2ba7f6ab60af8dd0d3e354f91729b14]
class Truck--><rect codeLine="57" fill="#FEFECE" filter="url(#f120ooc6sx45xb)" height="53.8359" id="Truck" style="stroke:#A80036;stroke-width:1.5;" width="62" x="176" y="62.5"/><ellipse cx="191" cy="78.5" fill="#ADD1B2" rx="11" ry="11" style="stroke:#A80036;stroke-width:1.0;"/><path d="M193,75 Q193.2031,74.5 193.4375,74.25 Q193.6719,74 193.9375,74 Q194.4063,74 194.7031,74.2813 Q195,74.5625 195,75.2188 L195,76.7813 Q195,77.4375 194.7188,77.7188 Q194.4375,78 194,78 Q193.6094,78 193.3594,77.8281 Q193.1094,77.6563 193,77.2031 Q192.9531,76.8906 192.7813,76.7188 Q192.4688,76.3906 191.9063,76.2031 Q191.3438,76 190.7813,76 Q190.0781,76 189.4844,76.2813 Q188.9063,76.5625 188.4531,77.1875 Q188,77.8125 188,78.6719 L188,79.5938 Q188,80.625 188.8438,81.3125 Q189.6875,82 191.1875,82 Q192.0781,82 192.7031,81.7969 Q193.0625,81.6875 193.4688,81.3281 Q193.7344,81.125 193.875,81.0625 Q194.0156,81 194.1875,81 Q194.5156,81 194.75,81.2656 Q195,81.5156 195,81.875 Q195,82.2188 194.6563,82.625 Q194.1563,83.2188 193.3594,83.5469 Q192.3125,84 191.0313,84 Q189.5313,84 188.3281,83.4063 Q187.3594,82.9375 186.6719,81.9219 Q186,80.9063 186,79.7031 L186,78.6094 Q186,77.3594 186.5938,76.2656 Q187.2031,75.1719 188.25,74.5938 Q189.3125,74 190.5,74 Q191.2188,74 191.8438,74.25 Q192.4688,74.5 193,75 Z " fill="#000000"/><text fill="#000000" font-family="sans-serif" font-size="12" lengthAdjust="spacing" textLength="30" x="205" y="83.4102">Truck</text><line style="stroke:#A80036;stroke-width:1.5;" x1="177" x2="237" y1="94.5" y2="94.5"/><text fill="#000000" font-family="sans-serif" font-size="11" lengthAdjust="spacing" textLength="36" x="182" y="109.9189">-truckId</text><!--MD5=[fc92a9f5bb5fae84dd7fa4034e6b4444]
class Route--><rect codeLine="61" fill="#FEFECE" filter="url(#f120ooc6sx45xb)" height="53.8359" id="Route" style="stroke:#A80036;stroke-width:1.5;" width="65" x="357.5" y="277.5"/><ellipse cx="372.5" cy="293.5" fill="#ADD1B2" rx="11" ry="11" style="stroke:#A80036;stroke-width:1.0;"/><path d="M374.5,290 Q374.7031,289.5 374.9375,289.25 Q375.1719,289 375.4375,289 Q375.9063,289 376.2031,289.2813 Q376.5,289.5625 376.5,290.2188 L376.5,291.7813 Q376.5,292.4375 376.2188,292.7188 Q375.9375,293 375.5,293 Q375.1094,293 374.8594,292.8281 Q374.6094,292.6563 374.5,292.2031 Q374.4531,291.8906 374.2813,291.7188 Q373.9688,291.3906 373.4063,291.2031 Q372.8438,291 372.2813,291 Q371.5781,291 370.9844,291.2813 Q370.4063,291.5625 369.9531,292.1875 Q369.5,292.8125 369.5,293.6719 L369.5,294.5938 Q369.5,295.625 370.3438,296.3125 Q371.1875,297 372.6875,297 Q373.5781,297 374.2031,296.7969 Q374.5625,296.6875 374.9688,296.3281 Q375.2344,296.125 375.375,296.0625 Q375.5156,296 375.6875,296 Q376.0156,296 376.25,296.2656 Q376.5,296.5156 376.5,296.875 Q376.5,297.2188 376.1563,297.625 Q375.6563,298.2188 374.8594,298.5469 Q373.8125,299 372.5313,299 Q371.0313,299 369.8281,298.4063 Q368.8594,297.9375 368.1719,296.9219 Q367.5,295.9063 367.5,294.7031 L367.5,293.6094 Q367.5,292.3594 368.0938,291.2656 Q368.7031,290.1719 369.75,289.5938 Q370.8125,289 372,289 Q372.7188,289 373.3438,289.25 Q373.9688,289.5 374.5,290 Z " fill="#000000"/><text fill="#000000" font-family="sans-serif" font-size="12" lengthAdjust="spacing" textLength="33" x="386.5" y="298.4102">Route</text><line style="stroke:#A80036;stroke-width:1.5;" x1="358.5" x2="421.5" y1="309.5" y2="309.5"/><text fill="#000000" font-family="sans-serif" font-size="11" lengthAdjust="spacing" textLength="43" x="363.5" y="324.9189">-route_id</text><!--MD5=[f73a60b75ec7157bd3f57c9b4918fddb]
class TruckTrip--><rect codeLine="65" fill="#FEFECE" filter="url(#f120ooc6sx45xb)" height="178.3594" id="TruckTrip" style="stroke:#A80036;stroke-width:1.5;" width="120" x="265" y="437"/><ellipse cx="296.65" cy="453" fill="#ADD1B2" rx="11" ry="11" style="stroke:#A80036;stroke-width:1.0;"/><path d="M298.65,449.5 Q298.8531,449 299.0875,448.75 Q299.3219,448.5 299.5875,448.5 Q300.0563,448.5 300.3531,448.7813 Q300.65,449.0625 300.65,449.7188 L300.65,451.2813 Q300.65,451.9375 300.3688,452.2188 Q300.0875,452.5 299.65,452.5 Q299.2594,452.5 299.0094,452.3281 Q298.7594,452.1563 298.65,451.7031 Q298.6031,451.3906 298.4313,451.2188 Q298.1188,450.8906 297.5563,450.7031 Q296.9938,450.5 296.4313,450.5 Q295.7281,450.5 295.1344,450.7813 Q294.5563,451.0625 294.1031,451.6875 Q293.65,452.3125 293.65,453.1719 L293.65,454.0938 Q293.65,455.125 294.4938,455.8125 Q295.3375,456.5 296.8375,456.5 Q297.7281,456.5 298.3531,456.2969 Q298.7125,456.1875 299.1188,455.8281 Q299.3844,455.625 299.525,455.5625 Q299.6656,455.5 299.8375,455.5 Q300.1656,455.5 300.4,455.7656 Q300.65,456.0156 300.65,456.375 Q300.65,456.7188 300.3063,457.125 Q299.8063,457.7188 299.0094,458.0469 Q297.9625,458.5 296.6813,458.5 Q295.1813,458.5 293.9781,457.9063 Q293.0094,457.4375 292.3219,456.4219 Q291.65,455.4063 291.65,454.2031 L291.65,453.1094 Q291.65,451.8594 292.2438,450.7656 Q292.8531,449.6719 293.9,449.0938 Q294.9625,448.5 296.15,448.5 Q296.8688,448.5 297.4938,448.75 Q298.1188,449 298.65,449.5 Z " fill="#000000"/><text fill="#000000" font-family="sans-serif" font-size="12" lengthAdjust="spacing" textLength="51" x="314.35" y="457.9102">TruckTrip</text><line style="stroke:#A80036;stroke-width:1.5;" x1="266" x2="384" y1="469" y2="469"/><text fill="#000000" font-family="sans-serif" font-size="11" lengthAdjust="spacing" textLength="43" x="271" y="484.4189">-route_id</text><text fill="#000000" font-family="sans-serif" font-size="11" lengthAdjust="spacing" textLength="42" x="271" y="498.2549">-truck_Id</text><text fill="#000000" font-family="sans-serif" font-size="11" lengthAdjust="spacing" textLength="108" x="271" y="512.0908">-departure_location_id</text><text fill="#000000" font-family="sans-serif" font-size="11" lengthAdjust="spacing" textLength="91" x="271" y="525.9268">-arrival_location_id</text><text fill="#000000" font-family="sans-serif" font-size="11" lengthAdjust="spacing" textLength="86" x="271" y="539.7627">-loading_cargo_id</text><text fill="#000000" font-family="sans-serif" font-size="11" lengthAdjust="spacing" textLength="98" x="271" y="553.5986">-unloading_cargo_id</text><text fill="#000000" font-family="sans-serif" font-size="11" lengthAdjust="spacing" textLength="99" x="271" y="567.4346">-est_departure_date</text><text fill="#000000" font-family="sans-serif" font-size="11" lengthAdjust="spacing" textLength="82" x="271" y="581.2705">-est_arrival_date</text><text fill="#000000" font-family="sans-serif" font-size="11" lengthAdjust="spacing" textLength="102" x="271" y="595.1064">-real_departure_date</text><text fill="#000000" font-family="sans-serif" font-size="11" lengthAdjust="spacing" textLength="85" x="271" y="608.9424">-real_arrival_date</text><!--MD5=[c5149b4909ffd2688ff51a939867f774]
class Warehouse--><rect codeLine="79" fill="#FEFECE" filter="url(#f120ooc6sx45xb)" height="67.6719" id="Warehouse" style="stroke:#A80036;stroke-width:1.5;" width="96" x="338" y="866.5"/><ellipse cx="353" cy="882.5" fill="#ADD1B2" rx="11" ry="11" style="stroke:#A80036;stroke-width:1.0;"/><path d="M355,879 Q355.2031,878.5 355.4375,878.25 Q355.6719,878 355.9375,878 Q356.4063,878 356.7031,878.2813 Q357,878.5625 357,879.2188 L357,880.7813 Q357,881.4375 356.7188,881.7188 Q356.4375,882 356,882 Q355.6094,882 355.3594,881.8281 Q355.1094,881.6563 355,881.2031 Q354.9531,880.8906 354.7813,880.7188 Q354.4688,880.3906 353.9063,880.2031 Q353.3438,880 352.7813,880 Q352.0781,880 351.4844,880.2813 Q350.9063,880.5625 350.4531,881.1875 Q350,881.8125 350,882.6719 L350,883.5938 Q350,884.625 350.8438,885.3125 Q351.6875,886 353.1875,886 Q354.0781,886 354.7031,885.7969 Q355.0625,885.6875 355.4688,885.3281 Q355.7344,885.125 355.875,885.0625 Q356.0156,885 356.1875,885 Q356.5156,885 356.75,885.2656 Q357,885.5156 357,885.875 Q357,886.2188 356.6563,886.625 Q356.1563,887.2188 355.3594,887.5469 Q354.3125,888 353.0313,888 Q351.5313,888 350.3281,887.4063 Q349.3594,886.9375 348.6719,885.9219 Q348,884.9063 348,883.7031 L348,882.6094 Q348,881.3594 348.5938,880.2656 Q349.2031,879.1719 350.25,878.5938 Q351.3125,878 352.5,878 Q353.2188,878 353.8438,878.25 Q354.4688,878.5 355,879 Z " fill="#000000"/><text fill="#000000" font-family="sans-serif" font-size="12" lengthAdjust="spacing" textLength="64" x="367" y="887.4102">Warehouse</text><line style="stroke:#A80036;stroke-width:1.5;" x1="339" x2="433" y1="898.5" y2="898.5"/><text fill="#000000" font-family="sans-serif" font-size="11" lengthAdjust="spacing" textLength="64" x="344" y="913.9189">-identification</text><text fill="#000000" font-family="sans-serif" font-size="11" lengthAdjust="spacing" textLength="30" x="344" y="927.7549">-name</text><!--MD5=[f500e957add76349bf6e8f151138488d]
link Client to Container--><path codeLine="85" d="M39.98,105.88 C42.03,130.8 48.07,181.1 65,220 C69.49,230.31 75.4,240.6 81.77,250.26 " fill="none" id="Client-Container" style="stroke:#A80036;stroke-width:1.0;"/><polygon fill="#000000" points="71.3902,215.9786,71.6984,206.4731,66.0523,208.1073,71.3902,215.9786" style="stroke:#000000;stroke-width:1.0;"/><text fill="#000000" font-family="sans-serif" font-size="13" lengthAdjust="spacing" textLength="31" x="79" y="216.4951">ships</text><text fill="#000000" font-family="sans-serif" font-size="13" lengthAdjust="spacing" textLength="7" x="32.2083" y="126.8953">1</text><text fill="#000000" font-family="sans-serif" font-size="13" lengthAdjust="spacing" textLength="20" x="54.2845" y="239.0147">1..*</text><!--MD5=[f0bdc6c669370d32d41c923ef98b5140]
link Container to CargoManifest--><path codeLine="86" d="M113.97,359.1 C103.51,424.5 95.63,536.09 143,615 C170.9,661.49 226.47,691.12 268.91,707.96 " fill="none" id="Container-CargoManifest" style="stroke:#A80036;stroke-width:1.0;"/><polygon fill="#000000" points="150.0295,530.7454,149.044,521.286,143.6722,523.6718,150.0295,530.7454" style="stroke:#000000;stroke-width:1.0;"/><text fill="#000000" font-family="sans-serif" font-size="13" lengthAdjust="spacing" textLength="90" x="157" y="531.4951">associated with</text><text fill="#000000" font-family="sans-serif" font-size="13" lengthAdjust="spacing" textLength="20" x="91.2755" y="380.6268">1..*</text><text fill="#000000" font-family="sans-serif" font-size="13" lengthAdjust="spacing" textLength="20" x="240.8553" y="702.201">2..*</text><!--MD5=[ba54223a31981c52d18c1dd571f5520c]
link Ship to Container--><path codeLine="87" d="M317.28,172.24 C307.55,189.34 295.78,206.31 282,220 C249.69,252.09 202.49,274.92 168.29,288.51 " fill="none" id="Ship-Container" style="stroke:#A80036;stroke-width:1.0;"/><polygon fill="#000000" points="296.0582,214.2519,304.9971,211.0041,301.3809,206.3702,296.0582,214.2519" style="stroke:#000000;stroke-width:1.0;"/><text fill="#000000" font-family="sans-serif" font-size="13" lengthAdjust="spacing" textLength="58" x="309" y="216.4951">transports</text><text fill="#000000" font-family="sans-serif" font-size="13" lengthAdjust="spacing" textLength="7" x="307.2343" y="192.999">1</text><text fill="#000000" font-family="sans-serif" font-size="13" lengthAdjust="spacing" textLength="20" x="176.117" y="282.4942">1..*</text><!--MD5=[47296211a5450e6030aae792427ae68d]
link CargoManifest to Port--><path codeLine="88" d="M283.02,761.29 C274.87,770.01 267.48,780.07 263,791 C256.93,805.82 255.11,822.76 255.39,838.78 " fill="none" id="CargoManifest-Port" style="stroke:#A80036;stroke-width:1.0;"/><polygon fill="#000000" points="266.3207,804.8854,272.1268,797.3527,266.5903,795.3786,266.3207,804.8854" style="stroke:#000000;stroke-width:1.0;"/><text fill="#000000" font-family="sans-serif" font-size="13" lengthAdjust="spacing" textLength="65" x="277" y="805.4951">delivered at</text><text fill="#000000" font-family="sans-serif" font-size="13" lengthAdjust="spacing" textLength="20" x="254.0859" y="782.1121">1..*</text><text fill="#000000" font-family="sans-serif" font-size="13" lengthAdjust="spacing" textLength="22" x="231.007" y="828.2332">0..1</text><!--MD5=[1007fce2994c0804f23855fbfd3e6bbd]
link CargoManifest to Warehouse--><path codeLine="89" d="M336.76,761.07 C347.53,791.34 363.38,835.91 374.17,866.24 " fill="none" id="CargoManifest-Warehouse" style="stroke:#A80036;stroke-width:1.0;"/><polygon fill="#000000" points="359.6757,804.8866,359.4133,795.3797,353.8754,797.3496,359.6757,804.8866" style="stroke:#000000;stroke-width:1.0;"/><text fill="#000000" font-family="sans-serif" font-size="13" lengthAdjust="spacing" textLength="65" x="367" y="805.4951">delivered at</text><text fill="#000000" font-family="sans-serif" font-size="13" lengthAdjust="spacing" textLength="5" x="333.4094" y="782.1194">*</text><text fill="#000000" font-family="sans-serif" font-size="13" lengthAdjust="spacing" textLength="22" x="347.818" y="855.7441">0..1</text><!--MD5=[bd668f20969913e971975f69d50ab766]
link Ship to Route--><path codeLine="90" d="M387.33,172.01 C390.47,181.96 393.16,192.11 395,202 C399.71,227.32 397.42,256.78 394.59,277.41 " fill="none" id="Ship-Route" style="stroke:#A80036;stroke-width:1.0;"/><polygon fill="#000000" points="402.3436,216.164,404.654,206.9383,398.7901,207.3422,402.3436,216.164" style="stroke:#000000;stroke-width:1.0;"/><text fill="#000000" font-family="sans-serif" font-size="13" lengthAdjust="spacing" textLength="28" x="411" y="216.4951">does</text><text fill="#000000" font-family="sans-serif" font-size="13" lengthAdjust="spacing" textLength="7" x="382.9659" y="193.0348">1</text><text fill="#000000" font-family="sans-serif" font-size="13" lengthAdjust="spacing" textLength="5" x="390.0733" y="266.8502">*</text><!--MD5=[ded2ff2f2e128334a9175b15f74cae8c]
link Route to ShipTrip--><path codeLine="91" d="M402.4,331.64 C410.04,348.01 419.89,369.6 428,389 C434.44,404.39 441.01,420.89 447.22,436.89 " fill="none" id="Route-ShipTrip" style="stroke:#A80036;stroke-width:1.0;"/><polygon fill="#000000" points="440.959,402.776,440.1191,393.3026,434.7112,395.6056,440.959,402.776" style="stroke:#000000;stroke-width:1.0;"/><text fill="#000000" font-family="sans-serif" font-size="13" lengthAdjust="spacing" textLength="49" x="448" y="403.4951">contains</text><text fill="#000000" font-family="sans-serif" font-size="13" lengthAdjust="spacing" textLength="7" x="397.3469" y="352.8784">1</text><text fill="#000000" font-family="sans-serif" font-size="13" lengthAdjust="spacing" textLength="20" x="423.5436" y="426.0394">1..*</text><!--MD5=[fe56967d49e095412a54b704daffd5d9]
link ShipTrip to CargoManifest--><path codeLine="94" d="M435.81,615.03 C425.73,631.71 414.32,648.46 402,663 C392.96,673.67 381.93,683.9 371.07,692.89 " fill="none" id="ShipTrip-CargoManifest" style="stroke:#A80036;stroke-width:1.0;"/><polygon fill="#000000" points="416.8033,658.0204,424.846,652.9444,420.3264,649.1864,416.8033,658.0204" style="stroke:#000000;stroke-width:1.0;"/><text fill="#000000" font-family="sans-serif" font-size="13" lengthAdjust="spacing" textLength="54" x="429" y="659.4951">relates to</text><text fill="#000000" font-family="sans-serif" font-size="13" lengthAdjust="spacing" textLength="7" x="424.7116" y="636.8633">1</text><text fill="#000000" font-family="sans-serif" font-size="13" lengthAdjust="spacing" textLength="7" x="372.451" y="682.1616">2</text><!--MD5=[062871d5623378d71d4c490cb56733bb]
link Truck to Container--><path codeLine="95" d="M178.87,116.78 C158.71,137.66 133.21,168.79 122,202 C116.92,217.03 115.79,234.04 116.45,249.78 " fill="none" id="Truck-Container" style="stroke:#A80036;stroke-width:1.0;"/><polygon fill="#000000" points="124.8757,215.7021,131.3791,208.7626,126.0581,206.2653,124.8757,215.7021" style="stroke:#000000;stroke-width:1.0;"/><text fill="#000000" font-family="sans-serif" font-size="13" lengthAdjust="spacing" textLength="58" x="136" y="216.4951">transports</text><text fill="#000000" font-family="sans-serif" font-size="13" lengthAdjust="spacing" textLength="7" x="164.9509" y="138.049">1</text><text fill="#000000" font-family="sans-serif" font-size="13" lengthAdjust="spacing" textLength="7" x="107.9061" y="239.2501">1</text><!--MD5=[56260c13595321035dca77dc75bae3c2]
link Truck to Route--><path codeLine="96" d="M206.46,116.71 C207.18,144.91 212.26,189.76 235,220 C265.5,260.55 321.62,283.62 357.31,294.83 " fill="none" id="Truck-Route" style="stroke:#A80036;stroke-width:1.0;"/><polygon fill="#000000" points="243.2314,214.9913,239.6285,206.1896,235.1431,209.9883,243.2314,214.9913" style="stroke:#000000;stroke-width:1.0;"/><text fill="#000000" font-family="sans-serif" font-size="13" lengthAdjust="spacing" textLength="28" x="249" y="216.4951">does</text><text fill="#000000" font-family="sans-serif" font-size="13" lengthAdjust="spacing" textLength="7" x="198.5763" y="137.9637">1</text><text fill="#000000" font-family="sans-serif" font-size="13" lengthAdjust="spacing" textLength="5" x="344.6122" y="288.5162">*</text><!--MD5=[5c8f7f71a7c38ff75f12b58bd2cf4c13]
link Route to TruckTrip--><path codeLine="97" d="M379.91,331.61 C373.77,347.97 365.98,369.57 360,389 C355.27,404.38 350.65,420.87 346.4,436.87 " fill="none" id="Route-TruckTrip" style="stroke:#A80036;stroke-width:1.0;"/><polygon fill="#000000" points="363.4832,402.9402,369.0275,395.2128,363.4267,393.4298,363.4832,402.9402" style="stroke:#000000;stroke-width:1.0;"/><text fill="#000000" font-family="sans-serif" font-size="13" lengthAdjust="spacing" textLength="49" x="374" y="403.4951">contains</text><text fill="#000000" font-family="sans-serif" font-size="13" lengthAdjust="spacing" textLength="7" x="369.9372" y="352.8418">1</text><text fill="#000000" font-family="sans-serif" font-size="13" lengthAdjust="spacing" textLength="5" x="343.0242" y="426.0177">*</text><!--MD5=[896731a16f9957de4c0f9ccc51c43389]
link TruckTrip to CargoManifest--><path codeLine="98" d="M325,615.15 C325,642.81 325,671.65 325,692.97 " fill="none" id="TruckTrip-CargoManifest" style="stroke:#A80036;stroke-width:1.0;"/><polygon fill="#000000" points="330,659.1758,332.9389,650.1307,327.0611,650.1307,330,659.1758" style="stroke:#000000;stroke-width:1.0;"/><text fill="#000000" font-family="sans-serif" font-size="13" lengthAdjust="spacing" textLength="54" x="339" y="659.4951">relates to</text><text fill="#000000" font-family="sans-serif" font-size="13" lengthAdjust="spacing" textLength="7" x="317.6992" y="636.9936">1</text><text fill="#000000" font-family="sans-serif" font-size="13" lengthAdjust="spacing" textLength="7" x="317.3109" y="682.2574">2</text><!--MD5=[f2facb129bc547f593fe642861f481e8]
@startuml

skinparam classAttributeIconSize 0
hide empty methods
hide empty attributes

class Client {}

class Container {
   -containerId
   -payload
   -tare
   -gross
   -isoCode
}

class CargoManifest {
    -cargoManifestId
    -containerId
}

class Ship {
    -mmsiCode
    -shipName
    -imoCode
    -vesselTypeId
    -callSignId
    -cargo
    -draft
    -length
    -width
}

class ShipTrip{
    -route_id
    -shipMmsi
    /'has attribute phase?'/
    -departure_location_id
    -arrival_location_id
    -loading_cargo_id
    -unloading_cargo_id
    -est_departure_date
    -est_arrival_date
    -real_departure_date
    -real_arrival_date
}

class Port {
    -identification
    -name
    -continent
    -country
    -lat
    -lon
}

/'new'/
class Truck {
    -truckId
}

class Route {
    -route_id
}

class TruckTrip{
    -route_id
    -truck_Id
    /'has attribute phase?'/
    -departure_location_id
    -arrival_location_id
    -loading_cargo_id
    -unloading_cargo_id
    -est_departure_date
    -est_arrival_date
    -real_departure_date
    -real_arrival_date
}

class Warehouse {
    -identification
    -name
}


Client "1" - - "1..*" Container : ships >
Container "1..*"- - "2..*" CargoManifest : associated with >
Ship "1" - - "1..*" Container : transports >
CargoManifest "1..*" - - "0..1" Port : delivered at >
CargoManifest "*" - - "0..1" Warehouse : delivered at >
Ship "1" - - "*" Route : does >
Route "1" - - "1..*" ShipTrip : contains >
/'ShipTrip "*" - - "1" Port : to >'/
/'pode ter - - - em baixo'/
ShipTrip "1" - - "2" CargoManifest : relates to >
Truck "1" - - "1" Container : transports >
Truck "1" - - "*" Route : does >
Route "1" - - "*" TruckTrip : contains >
TruckTrip "1" - - "2" CargoManifest : relates to >
/'TruckTrip "*" - - "0..1" Warehouse : to >
TruckTrip "*" - - "0..1" Port : to >'/



@enduml

@startuml

skinparam classAttributeIconSize 0
hide empty methods
hide empty attributes

class Client {}

class Container {
   -containerId
   -payload
   -tare
   -gross
   -isoCode
}

class CargoManifest {
    -cargoManifestId
    -containerId
}

class Ship {
    -mmsiCode
    -shipName
    -imoCode
    -vesselTypeId
    -callSignId
    -cargo
    -draft
    -length
    -width
}

class ShipTrip{
    -route_id
    -shipMmsi
    -departure_location_id
    -arrival_location_id
    -loading_cargo_id
    -unloading_cargo_id
    -est_departure_date
    -est_arrival_date
    -real_departure_date
    -real_arrival_date
}

class Port {
    -identification
    -name
    -continent
    -country
    -lat
    -lon
}

class Truck {
    -truckId
}

class Route {
    -route_id
}

class TruckTrip{
    -route_id
    -truck_Id
    -departure_location_id
    -arrival_location_id
    -loading_cargo_id
    -unloading_cargo_id
    -est_departure_date
    -est_arrival_date
    -real_departure_date
    -real_arrival_date
}

class Warehouse {
    -identification
    -name
}


Client "1" - - "1..*" Container : ships >
Container "1..*"- - "2..*" CargoManifest : associated with >
Ship "1" - - "1..*" Container : transports >
CargoManifest "1..*" - - "0..1" Port : delivered at >
CargoManifest "*" - - "0..1" Warehouse : delivered at >
Ship "1" - - "*" Route : does >
Route "1" - - "1..*" ShipTrip : contains >
ShipTrip "1" - - "2" CargoManifest : relates to >
Truck "1" - - "1" Container : transports >
Truck "1" - - "*" Route : does >
Route "1" - - "*" TruckTrip : contains >
TruckTrip "1" - - "2" CargoManifest : relates to >



@enduml

PlantUML version 1.2021.11(Sat Oct 02 14:26:11 BST 2021)
(GPL source distribution)
Java Runtime: OpenJDK Runtime Environment
JVM: OpenJDK 64-Bit Server VM
Default Encoding: Cp1252
Language: pt
Country: PT
--></g></svg>