<?xml version="1.0" encoding="UTF-8" standalone="no"?><svg xmlns="http://www.w3.org/2000/svg" xmlns:xlink="http://www.w3.org/1999/xlink" contentScriptType="application/ecmascript" contentStyleType="text/css" height="802px" preserveAspectRatio="none" style="width:234px;height:802px;background:#FFFFFF;" version="1.1" viewBox="0 0 234 802" width="234px" zoomAndPan="magnify"><defs><filter height="300%" id="fsk2wasjq5ir4" width="300%" x="-1" y="-1"><feGaussianBlur result="blurOut" stdDeviation="2.0"/><feColorMatrix in="blurOut" result="blurOut2" type="matrix" values="0 0 0 0 0 0 0 0 0 0 0 0 0 0 0 0 0 0 .4 0"/><feOffset dx="4.0" dy="4.0" in="blurOut2" result="blurOut3"/><feBlend in="SourceGraphic" in2="blurOut3" mode="normal"/></filter></defs><g><!--MD5=[e6b394b930674b2255938b8afe6bb7b4]
class ShipCaptain--><rect codeLine="6" fill="#FEFECE" filter="url(#fsk2wasjq5ir4)" height="53.8359" id="ShipCaptain" style="stroke:#A80036;stroke-width:1.5;" width="100" x="7" y="172.5"/><ellipse cx="22" cy="188.5" fill="#ADD1B2" rx="11" ry="11" style="stroke:#A80036;stroke-width:1.0;"/><path d="M24,185 Q24.2031,184.5 24.4375,184.25 Q24.6719,184 24.9375,184 Q25.4063,184 25.7031,184.2813 Q26,184.5625 26,185.2188 L26,186.7813 Q26,187.4375 25.7188,187.7188 Q25.4375,188 25,188 Q24.6094,188 24.3594,187.8281 Q24.1094,187.6563 24,187.2031 Q23.9531,186.8906 23.7813,186.7188 Q23.4688,186.3906 22.9063,186.2031 Q22.3438,186 21.7813,186 Q21.0781,186 20.4844,186.2813 Q19.9063,186.5625 19.4531,187.1875 Q19,187.8125 19,188.6719 L19,189.5938 Q19,190.625 19.8438,191.3125 Q20.6875,192 22.1875,192 Q23.0781,192 23.7031,191.7969 Q24.0625,191.6875 24.4688,191.3281 Q24.7344,191.125 24.875,191.0625 Q25.0156,191 25.1875,191 Q25.5156,191 25.75,191.2656 Q26,191.5156 26,191.875 Q26,192.2188 25.6563,192.625 Q25.1563,193.2188 24.3594,193.5469 Q23.3125,194 22.0313,194 Q20.5313,194 19.3281,193.4063 Q18.3594,192.9375 17.6719,191.9219 Q17,190.9063 17,189.7031 L17,188.6094 Q17,187.3594 17.5938,186.2656 Q18.2031,185.1719 19.25,184.5938 Q20.3125,184 21.5,184 Q22.2188,184 22.8438,184.25 Q23.4688,184.5 24,185 Z " fill="#000000"/><text fill="#000000" font-family="sans-serif" font-size="12" lengthAdjust="spacing" textLength="68" x="36" y="193.4102">ShipCaptain</text><line style="stroke:#A80036;stroke-width:1.5;" x1="8" x2="106" y1="204.5" y2="204.5"/><text fill="#000000" font-family="sans-serif" font-size="11" lengthAdjust="spacing" textLength="30" x="13" y="219.9189">-name</text><!--MD5=[02e4b9b7573f1156f41e60aa5b4e25a4]
class Company--><rect codeLine="10" fill="#FEFECE" filter="url(#fsk2wasjq5ir4)" height="32" id="Company" style="stroke:#A80036;stroke-width:1.5;" width="85" x="135.5" y="7"/><ellipse cx="150.5" cy="23" fill="#ADD1B2" rx="11" ry="11" style="stroke:#A80036;stroke-width:1.0;"/><path d="M152.5,19.5 Q152.7031,19 152.9375,18.75 Q153.1719,18.5 153.4375,18.5 Q153.9063,18.5 154.2031,18.7813 Q154.5,19.0625 154.5,19.7188 L154.5,21.2813 Q154.5,21.9375 154.2188,22.2188 Q153.9375,22.5 153.5,22.5 Q153.1094,22.5 152.8594,22.3281 Q152.6094,22.1563 152.5,21.7031 Q152.4531,21.3906 152.2813,21.2188 Q151.9688,20.8906 151.4063,20.7031 Q150.8438,20.5 150.2813,20.5 Q149.5781,20.5 148.9844,20.7813 Q148.4063,21.0625 147.9531,21.6875 Q147.5,22.3125 147.5,23.1719 L147.5,24.0938 Q147.5,25.125 148.3438,25.8125 Q149.1875,26.5 150.6875,26.5 Q151.5781,26.5 152.2031,26.2969 Q152.5625,26.1875 152.9688,25.8281 Q153.2344,25.625 153.375,25.5625 Q153.5156,25.5 153.6875,25.5 Q154.0156,25.5 154.25,25.7656 Q154.5,26.0156 154.5,26.375 Q154.5,26.7188 154.1563,27.125 Q153.6563,27.7188 152.8594,28.0469 Q151.8125,28.5 150.5313,28.5 Q149.0313,28.5 147.8281,27.9063 Q146.8594,27.4375 146.1719,26.4219 Q145.5,25.4063 145.5,24.2031 L145.5,23.1094 Q145.5,21.8594 146.0938,20.7656 Q146.7031,19.6719 147.75,19.0938 Q148.8125,18.5 150,18.5 Q150.7188,18.5 151.3438,18.75 Q151.9688,19 152.5,19.5 Z " fill="#000000"/><text fill="#000000" font-family="sans-serif" font-size="12" lengthAdjust="spacing" textLength="53" x="164.5" y="27.9102">Company</text><!--MD5=[0dc7f2ddb409b58bcf52b12238c25399]
class Ship--><rect codeLine="12" fill="#FEFECE" filter="url(#fsk2wasjq5ir4)" height="164.5234" id="Ship" style="stroke:#A80036;stroke-width:1.5;" width="72" x="142" y="117"/><ellipse cx="163.75" cy="133" fill="#ADD1B2" rx="11" ry="11" style="stroke:#A80036;stroke-width:1.0;"/><path d="M165.75,129.5 Q165.9531,129 166.1875,128.75 Q166.4219,128.5 166.6875,128.5 Q167.1563,128.5 167.4531,128.7813 Q167.75,129.0625 167.75,129.7188 L167.75,131.2813 Q167.75,131.9375 167.4688,132.2188 Q167.1875,132.5 166.75,132.5 Q166.3594,132.5 166.1094,132.3281 Q165.8594,132.1563 165.75,131.7031 Q165.7031,131.3906 165.5313,131.2188 Q165.2188,130.8906 164.6563,130.7031 Q164.0938,130.5 163.5313,130.5 Q162.8281,130.5 162.2344,130.7813 Q161.6563,131.0625 161.2031,131.6875 Q160.75,132.3125 160.75,133.1719 L160.75,134.0938 Q160.75,135.125 161.5938,135.8125 Q162.4375,136.5 163.9375,136.5 Q164.8281,136.5 165.4531,136.2969 Q165.8125,136.1875 166.2188,135.8281 Q166.4844,135.625 166.625,135.5625 Q166.7656,135.5 166.9375,135.5 Q167.2656,135.5 167.5,135.7656 Q167.75,136.0156 167.75,136.375 Q167.75,136.7188 167.4063,137.125 Q166.9063,137.7188 166.1094,138.0469 Q165.0625,138.5 163.7813,138.5 Q162.2813,138.5 161.0781,137.9063 Q160.1094,137.4375 159.4219,136.4219 Q158.75,135.4063 158.75,134.2031 L158.75,133.1094 Q158.75,131.8594 159.3438,130.7656 Q159.9531,129.6719 161,129.0938 Q162.0625,128.5 163.25,128.5 Q163.9688,128.5 164.5938,128.75 Q165.2188,129 165.75,129.5 Z " fill="#000000"/><text fill="#000000" font-family="sans-serif" font-size="12" lengthAdjust="spacing" textLength="25" x="179.25" y="137.9102">Ship</text><line style="stroke:#A80036;stroke-width:1.5;" x1="143" x2="213" y1="149" y2="149"/><text fill="#000000" font-family="sans-serif" font-size="11" lengthAdjust="spacing" textLength="36" x="148" y="164.4189">-mmmsi</text><text fill="#000000" font-family="sans-serif" font-size="11" lengthAdjust="spacing" textLength="20" x="148" y="178.2549">-imo</text><text fill="#000000" font-family="sans-serif" font-size="11" lengthAdjust="spacing" textLength="41" x="148" y="192.0908">-callSign</text><text fill="#000000" font-family="sans-serif" font-size="11" lengthAdjust="spacing" textLength="51" x="148" y="205.9268">-shipName</text><text fill="#000000" font-family="sans-serif" font-size="11" lengthAdjust="spacing" textLength="60" x="148" y="219.7627">-vesselType</text><text fill="#000000" font-family="sans-serif" font-size="11" lengthAdjust="spacing" textLength="33" x="148" y="233.5986">-length</text><text fill="#000000" font-family="sans-serif" font-size="11" lengthAdjust="spacing" textLength="31" x="148" y="247.4346">-width</text><text fill="#000000" font-family="sans-serif" font-size="11" lengthAdjust="spacing" textLength="27" x="148" y="261.2705">-draft</text><text fill="#000000" font-family="sans-serif" font-size="11" lengthAdjust="spacing" textLength="32" x="148" y="275.1064">-cargo</text><!--MD5=[76562047389981627aea27c31a97aff5]
class CargoManifest--><rect codeLine="24" fill="#FEFECE" filter="url(#fsk2wasjq5ir4)" height="67.6719" id="CargoManifest" style="stroke:#A80036;stroke-width:1.5;" width="112" x="58" y="533"/><ellipse cx="73" cy="549" fill="#ADD1B2" rx="11" ry="11" style="stroke:#A80036;stroke-width:1.0;"/><path d="M75,545.5 Q75.2031,545 75.4375,544.75 Q75.6719,544.5 75.9375,544.5 Q76.4063,544.5 76.7031,544.7813 Q77,545.0625 77,545.7188 L77,547.2813 Q77,547.9375 76.7188,548.2188 Q76.4375,548.5 76,548.5 Q75.6094,548.5 75.3594,548.3281 Q75.1094,548.1563 75,547.7031 Q74.9531,547.3906 74.7813,547.2188 Q74.4688,546.8906 73.9063,546.7031 Q73.3438,546.5 72.7813,546.5 Q72.0781,546.5 71.4844,546.7813 Q70.9063,547.0625 70.4531,547.6875 Q70,548.3125 70,549.1719 L70,550.0938 Q70,551.125 70.8438,551.8125 Q71.6875,552.5 73.1875,552.5 Q74.0781,552.5 74.7031,552.2969 Q75.0625,552.1875 75.4688,551.8281 Q75.7344,551.625 75.875,551.5625 Q76.0156,551.5 76.1875,551.5 Q76.5156,551.5 76.75,551.7656 Q77,552.0156 77,552.375 Q77,552.7188 76.6563,553.125 Q76.1563,553.7188 75.3594,554.0469 Q74.3125,554.5 73.0313,554.5 Q71.5313,554.5 70.3281,553.9063 Q69.3594,553.4375 68.6719,552.4219 Q68,551.4063 68,550.2031 L68,549.1094 Q68,547.8594 68.5938,546.7656 Q69.2031,545.6719 70.25,545.0938 Q71.3125,544.5 72.5,544.5 Q73.2188,544.5 73.8438,544.75 Q74.4688,545 75,545.5 Z " fill="#000000"/><text fill="#000000" font-family="sans-serif" font-size="12" lengthAdjust="spacing" textLength="80" x="87" y="553.9102">CargoManifest</text><line style="stroke:#A80036;stroke-width:1.5;" x1="59" x2="169" y1="565" y2="565"/><text fill="#000000" font-family="sans-serif" font-size="11" lengthAdjust="spacing" textLength="73" x="64" y="580.4189">-containersInfo</text><text fill="#000000" font-family="sans-serif" font-size="11" lengthAdjust="spacing" textLength="76" x="64" y="594.2549">-registationTime</text><!--MD5=[25def5e07734b54a3f89630c3bb8b7b2]
class ShipTripDocumentation--><rect codeLine="29" fill="#FEFECE" filter="url(#fsk2wasjq5ir4)" height="95.3438" id="ShipTripDocumentation" style="stroke:#A80036;stroke-width:1.5;" width="162" x="33" y="360"/><ellipse cx="48" cy="376" fill="#ADD1B2" rx="11" ry="11" style="stroke:#A80036;stroke-width:1.0;"/><path d="M50,372.5 Q50.2031,372 50.4375,371.75 Q50.6719,371.5 50.9375,371.5 Q51.4063,371.5 51.7031,371.7813 Q52,372.0625 52,372.7188 L52,374.2813 Q52,374.9375 51.7188,375.2188 Q51.4375,375.5 51,375.5 Q50.6094,375.5 50.3594,375.3281 Q50.1094,375.1563 50,374.7031 Q49.9531,374.3906 49.7813,374.2188 Q49.4688,373.8906 48.9063,373.7031 Q48.3438,373.5 47.7813,373.5 Q47.0781,373.5 46.4844,373.7813 Q45.9063,374.0625 45.4531,374.6875 Q45,375.3125 45,376.1719 L45,377.0938 Q45,378.125 45.8438,378.8125 Q46.6875,379.5 48.1875,379.5 Q49.0781,379.5 49.7031,379.2969 Q50.0625,379.1875 50.4688,378.8281 Q50.7344,378.625 50.875,378.5625 Q51.0156,378.5 51.1875,378.5 Q51.5156,378.5 51.75,378.7656 Q52,379.0156 52,379.375 Q52,379.7188 51.6563,380.125 Q51.1563,380.7188 50.3594,381.0469 Q49.3125,381.5 48.0313,381.5 Q46.5313,381.5 45.3281,380.9063 Q44.3594,380.4375 43.6719,379.4219 Q43,378.4063 43,377.2031 L43,376.1094 Q43,374.8594 43.5938,373.7656 Q44.2031,372.6719 45.25,372.0938 Q46.3125,371.5 47.5,371.5 Q48.2188,371.5 48.8438,371.75 Q49.4688,372 50,372.5 Z " fill="#000000"/><text fill="#000000" font-family="sans-serif" font-size="12" lengthAdjust="spacing" textLength="130" x="62" y="380.9102">ShipTripDocumentation</text><line style="stroke:#A80036;stroke-width:1.5;" x1="34" x2="194" y1="392" y2="392"/><text fill="#000000" font-family="sans-serif" font-size="11" lengthAdjust="spacing" textLength="51" x="39" y="407.4189">-shipTripID</text><text fill="#000000" font-family="sans-serif" font-size="11" lengthAdjust="spacing" textLength="28" x="39" y="421.2549">-mmsi</text><text fill="#000000" font-family="sans-serif" font-size="11" lengthAdjust="spacing" textLength="108" x="39" y="435.0908">-loadingCargoManifest</text><text fill="#000000" font-family="sans-serif" font-size="11" lengthAdjust="spacing" textLength="120" x="39" y="448.9268">-unloadingCargoManifest</text><!--MD5=[e9a58730c562b34349daa605d1ed6662]
class Container--><rect codeLine="36" fill="#FEFECE" filter="url(#fsk2wasjq5ir4)" height="109.1797" id="Container" style="stroke:#A80036;stroke-width:1.5;" width="86" x="71" y="679"/><ellipse cx="86" cy="695" fill="#ADD1B2" rx="11" ry="11" style="stroke:#A80036;stroke-width:1.0;"/><path d="M88,691.5 Q88.2031,691 88.4375,690.75 Q88.6719,690.5 88.9375,690.5 Q89.4063,690.5 89.7031,690.7813 Q90,691.0625 90,691.7188 L90,693.2813 Q90,693.9375 89.7188,694.2188 Q89.4375,694.5 89,694.5 Q88.6094,694.5 88.3594,694.3281 Q88.1094,694.1563 88,693.7031 Q87.9531,693.3906 87.7813,693.2188 Q87.4688,692.8906 86.9063,692.7031 Q86.3438,692.5 85.7813,692.5 Q85.0781,692.5 84.4844,692.7813 Q83.9063,693.0625 83.4531,693.6875 Q83,694.3125 83,695.1719 L83,696.0938 Q83,697.125 83.8438,697.8125 Q84.6875,698.5 86.1875,698.5 Q87.0781,698.5 87.7031,698.2969 Q88.0625,698.1875 88.4688,697.8281 Q88.7344,697.625 88.875,697.5625 Q89.0156,697.5 89.1875,697.5 Q89.5156,697.5 89.75,697.7656 Q90,698.0156 90,698.375 Q90,698.7188 89.6563,699.125 Q89.1563,699.7188 88.3594,700.0469 Q87.3125,700.5 86.0313,700.5 Q84.5313,700.5 83.3281,699.9063 Q82.3594,699.4375 81.6719,698.4219 Q81,697.4063 81,696.2031 L81,695.1094 Q81,693.8594 81.5938,692.7656 Q82.2031,691.6719 83.25,691.0938 Q84.3125,690.5 85.5,690.5 Q86.2188,690.5 86.8438,690.75 Q87.4688,691 88,691.5 Z " fill="#000000"/><text fill="#000000" font-family="sans-serif" font-size="12" lengthAdjust="spacing" textLength="54" x="100" y="699.9102">Container</text><line style="stroke:#A80036;stroke-width:1.5;" x1="72" x2="156" y1="711" y2="711"/><text fill="#000000" font-family="sans-serif" font-size="11" lengthAdjust="spacing" textLength="57" x="77" y="726.4189">-containerId</text><text fill="#000000" font-family="sans-serif" font-size="11" lengthAdjust="spacing" textLength="42" x="77" y="740.2549">-payload</text><text fill="#000000" font-family="sans-serif" font-size="11" lengthAdjust="spacing" textLength="23" x="77" y="754.0908">-tare</text><text fill="#000000" font-family="sans-serif" font-size="11" lengthAdjust="spacing" textLength="32" x="77" y="767.9268">-gross</text><text fill="#000000" font-family="sans-serif" font-size="11" lengthAdjust="spacing" textLength="43" x="77" y="781.7627">-isoCode</text><!--MD5=[4c99122753c10ddfbdbefa48e7bab33d]
link ShipCaptain to ShipTripDocumentation--><path codeLine="44" d="M53.56,226.56 C51,253.25 49.66,295.61 61,330 C64.39,340.28 69.63,350.42 75.53,359.79 " fill="none" id="ShipCaptain-ShipTripDocumentation" style="stroke:#A80036;stroke-width:1.0;"/><polygon fill="#000000" points="66.8135,326.1092,68.2416,316.7064,62.4421,317.6628,66.8135,326.1092" style="stroke:#000000;stroke-width:1.0;"/><text fill="#000000" font-family="sans-serif" font-size="13" lengthAdjust="spacing" textLength="52" x="75" y="326.4951">analyses</text><text fill="#000000" font-family="sans-serif" font-size="13" lengthAdjust="spacing" textLength="7" x="45.0419" y="247.7809">1</text><text fill="#000000" font-family="sans-serif" font-size="13" lengthAdjust="spacing" textLength="20" x="48.411" y="349.1033">1..*</text><!--MD5=[37a14a5de6d6fd738aee271300f4b5c8]
link Company to Ship--><path codeLine="45" d="M178,39.18 C178,56.76 178,87.1 178,116.61 " fill="none" id="Company-Ship" style="stroke:#A80036;stroke-width:1.0;"/><polygon fill="#000000" points="183,83.1758,185.9389,74.1307,180.0611,74.1307,183,83.1758" style="stroke:#000000;stroke-width:1.0;"/><text fill="#000000" font-family="sans-serif" font-size="13" lengthAdjust="spacing" textLength="30" x="192" y="83.4951">owns</text><text fill="#000000" font-family="sans-serif" font-size="13" lengthAdjust="spacing" textLength="7" x="169.8844" y="60.4385">1</text><text fill="#000000" font-family="sans-serif" font-size="13" lengthAdjust="spacing" textLength="20" x="157.1094" y="106.0471">1..*</text><!--MD5=[92a8d2647daa0a92ef32a98e0b02544a]
link Ship to ShipTripDocumentation--><path codeLine="46" d="M152.61,282.21 C144.41,308.61 135.6,336.96 128.48,359.91 " fill="none" id="Ship-ShipTripDocumentation" style="stroke:#A80036;stroke-width:1.0;"/><polygon fill="#000000" points="145.5171,325.9508,151.0064,318.1843,145.393,316.4411,145.5171,325.9508" style="stroke:#000000;stroke-width:1.0;"/><text fill="#000000" font-family="sans-serif" font-size="13" lengthAdjust="spacing" textLength="30" x="156" y="326.4951">owns</text><text fill="#000000" font-family="sans-serif" font-size="13" lengthAdjust="spacing" textLength="7" x="143.3078" y="302.9666">1</text><text fill="#000000" font-family="sans-serif" font-size="13" lengthAdjust="spacing" textLength="20" x="109.138" y="349.2409">1..*</text><!--MD5=[a93f71c337684849482b0ec5675aa7db]
link CargoManifest to Container--><path codeLine="47" d="M114,601.29 C114,623.54 114,653.3 114,678.86 " fill="none" id="CargoManifest-Container" style="stroke:#A80036;stroke-width:1.0;"/><polygon fill="#000000" points="119,645.1758,121.9389,636.1307,116.0611,636.1307,119,645.1758" style="stroke:#000000;stroke-width:1.0;"/><text fill="#000000" font-family="sans-serif" font-size="13" lengthAdjust="spacing" textLength="49" x="128" y="645.4951">contains</text><text fill="#000000" font-family="sans-serif" font-size="13" lengthAdjust="spacing" textLength="20" x="92.2813" y="622.1121">1..*</text><text fill="#000000" font-family="sans-serif" font-size="13" lengthAdjust="spacing" textLength="20" x="92.6563" y="667.9494">1..*</text><!--MD5=[4eed5328c45be17e3d87a57e810574d7]
link ShipTripDocumentation to CargoManifest--><path codeLine="48" d="M114,455.33 C114,480.17 114,510.12 114,532.6 " fill="none" id="ShipTripDocumentation-CargoManifest" style="stroke:#A80036;stroke-width:1.0;"/><polygon fill="#000000" points="119,499.1758,121.9389,490.1307,116.0611,490.1307,119,499.1758" style="stroke:#000000;stroke-width:1.0;"/><text fill="#000000" font-family="sans-serif" font-size="13" lengthAdjust="spacing" textLength="49" x="128" y="499.4951">contains</text><text fill="#000000" font-family="sans-serif" font-size="13" lengthAdjust="spacing" textLength="7" x="106.5078" y="476.6768">1</text><text fill="#000000" font-family="sans-serif" font-size="13" lengthAdjust="spacing" textLength="22" x="89.9031" y="522.0774">1..2</text><!--MD5=[b362c97f87b2242cf1d40d4dd96c0577]
@startuml
'https://plantuml.com/class-diagram
hide empty methods
hide empty attributes
skinparam classAttributeIconSize 0

class ShipCaptain{
    -name
}

class Company{}

class Ship {
    -mmmsi
    -imo
    -callSign
    -shipName
    -vesselType
    -length
    -width
    -draft
    -cargo
}

class CargoManifest{
    -containersInfo
    -registationTime
}

class ShipTripDocumentation{
    -shipTripID
    -mmsi
    -loadingCargoManifest
    -unloadingCargoManifest
}

class Container{
    -containerId
    -payload
    -tare
    -gross
    -isoCode
}

ShipCaptain "1" - - "1..*" ShipTripDocumentation : analyses >
Company "1" - - "1..*" Ship : owns >
Ship "1" - - "1..*" ShipTripDocumentation : owns >
CargoManifest "1..*" - - "1..*" Container : contains >
ShipTripDocumentation "1" - - "1..2" CargoManifest : contains >

@enduml

@startuml
hide empty methods
hide empty attributes
skinparam classAttributeIconSize 0

class ShipCaptain{
    -name
}

class Company{}

class Ship {
    -mmmsi
    -imo
    -callSign
    -shipName
    -vesselType
    -length
    -width
    -draft
    -cargo
}

class CargoManifest{
    -containersInfo
    -registationTime
}

class ShipTripDocumentation{
    -shipTripID
    -mmsi
    -loadingCargoManifest
    -unloadingCargoManifest
}

class Container{
    -containerId
    -payload
    -tare
    -gross
    -isoCode
}

ShipCaptain "1" - - "1..*" ShipTripDocumentation : analyses >
Company "1" - - "1..*" Ship : owns >
Ship "1" - - "1..*" ShipTripDocumentation : owns >
CargoManifest "1..*" - - "1..*" Container : contains >
ShipTripDocumentation "1" - - "1..2" CargoManifest : contains >

@enduml

PlantUML version 1.2021.11(Sat Oct 02 14:26:11 BST 2021)
(GPL source distribution)
Java Runtime: OpenJDK Runtime Environment
JVM: OpenJDK 64-Bit Server VM
Default Encoding: Cp1252
Language: pt
Country: PT
--></g></svg>