<?xml version="1.0" encoding="UTF-8" standalone="no"?><svg xmlns="http://www.w3.org/2000/svg" xmlns:xlink="http://www.w3.org/1999/xlink" contentScriptType="application/ecmascript" contentStyleType="text/css" height="1038px" preserveAspectRatio="none" style="width:762px;height:1038px;background:#FFFFFF;" version="1.1" viewBox="0 0 762 1038" width="762px" zoomAndPan="magnify"><defs><filter height="300%" id="f144cm0xnnons2" width="300%" x="-1" y="-1"><feGaussianBlur result="blurOut" stdDeviation="2.0"/><feColorMatrix in="blurOut" result="blurOut2" type="matrix" values="0 0 0 0 0 0 0 0 0 0 0 0 0 0 0 0 0 0 .4 0"/><feOffset dx="4.0" dy="4.0" in="blurOut2" result="blurOut3"/><feBlend in="SourceGraphic" in2="blurOut3" mode="normal"/></filter></defs><g><!--MD5=[7fa9be3100fa8818883210857b4be419]
class ImportPortsController--><rect codeLine="7" fill="#FEFECE" filter="url(#f144cm0xnnons2)" height="103.3438" id="ImportPortsController" style="stroke:#A80036;stroke-width:1.5;" width="174" x="148.5" y="7"/><ellipse cx="174.3" cy="23" fill="#ADD1B2" rx="11" ry="11" style="stroke:#A80036;stroke-width:1.0;"/><path d="M176.3,19.5 Q176.5031,19 176.7375,18.75 Q176.9719,18.5 177.2375,18.5 Q177.7063,18.5 178.0031,18.7813 Q178.3,19.0625 178.3,19.7188 L178.3,21.2813 Q178.3,21.9375 178.0188,22.2188 Q177.7375,22.5 177.3,22.5 Q176.9094,22.5 176.6594,22.3281 Q176.4094,22.1563 176.3,21.7031 Q176.2531,21.3906 176.0813,21.2188 Q175.7688,20.8906 175.2063,20.7031 Q174.6438,20.5 174.0813,20.5 Q173.3781,20.5 172.7844,20.7813 Q172.2063,21.0625 171.7531,21.6875 Q171.3,22.3125 171.3,23.1719 L171.3,24.0938 Q171.3,25.125 172.1438,25.8125 Q172.9875,26.5 174.4875,26.5 Q175.3781,26.5 176.0031,26.2969 Q176.3625,26.1875 176.7688,25.8281 Q177.0344,25.625 177.175,25.5625 Q177.3156,25.5 177.4875,25.5 Q177.8156,25.5 178.05,25.7656 Q178.3,26.0156 178.3,26.375 Q178.3,26.7188 177.9563,27.125 Q177.4563,27.7188 176.6594,28.0469 Q175.6125,28.5 174.3313,28.5 Q172.8313,28.5 171.6281,27.9063 Q170.6594,27.4375 169.9719,26.4219 Q169.3,25.4063 169.3,24.2031 L169.3,23.1094 Q169.3,21.8594 169.8938,20.7656 Q170.5031,19.6719 171.55,19.0938 Q172.6125,18.5 173.8,18.5 Q174.5188,18.5 175.1438,18.75 Q175.7688,19 176.3,19.5 Z " fill="#000000"/><text fill="#000000" font-family="sans-serif" font-size="12" lengthAdjust="spacing" textLength="118" x="190.7" y="27.9102">ImportPortsController</text><line style="stroke:#A80036;stroke-width:1.5;" x1="149.5" x2="321.5" y1="39" y2="39"/><text fill="#000000" font-family="sans-serif" font-size="11" lengthAdjust="spacing" textLength="48" x="154.5" y="54.4189">-company</text><text fill="#000000" font-family="sans-serif" font-size="11" lengthAdjust="spacing" textLength="23" x="154.5" y="68.2549">-port</text><line style="stroke:#A80036;stroke-width:1.5;" x1="149.5" x2="321.5" y1="74.6719" y2="74.6719"/><text fill="#000000" font-family="sans-serif" font-size="11" lengthAdjust="spacing" textLength="55" x="154.5" y="90.0908">-savePort()</text><text fill="#000000" font-family="sans-serif" font-size="11" lengthAdjust="spacing" textLength="162" x="154.5" y="103.9268">-importPortFromFile(portsFileDTO)</text><!--MD5=[02e4b9b7573f1156f41e60aa5b4e25a4]
class Company--><rect codeLine="14" fill="#FEFECE" filter="url(#f144cm0xnnons2)" height="117.1797" id="Company" style="stroke:#A80036;stroke-width:1.5;" width="85" x="193" y="226.5"/><ellipse cx="208" cy="242.5" fill="#ADD1B2" rx="11" ry="11" style="stroke:#A80036;stroke-width:1.0;"/><path d="M210,239 Q210.2031,238.5 210.4375,238.25 Q210.6719,238 210.9375,238 Q211.4063,238 211.7031,238.2813 Q212,238.5625 212,239.2188 L212,240.7813 Q212,241.4375 211.7188,241.7188 Q211.4375,242 211,242 Q210.6094,242 210.3594,241.8281 Q210.1094,241.6563 210,241.2031 Q209.9531,240.8906 209.7813,240.7188 Q209.4688,240.3906 208.9063,240.2031 Q208.3438,240 207.7813,240 Q207.0781,240 206.4844,240.2813 Q205.9063,240.5625 205.4531,241.1875 Q205,241.8125 205,242.6719 L205,243.5938 Q205,244.625 205.8438,245.3125 Q206.6875,246 208.1875,246 Q209.0781,246 209.7031,245.7969 Q210.0625,245.6875 210.4688,245.3281 Q210.7344,245.125 210.875,245.0625 Q211.0156,245 211.1875,245 Q211.5156,245 211.75,245.2656 Q212,245.5156 212,245.875 Q212,246.2188 211.6563,246.625 Q211.1563,247.2188 210.3594,247.5469 Q209.3125,248 208.0313,248 Q206.5313,248 205.3281,247.4063 Q204.3594,246.9375 203.6719,245.9219 Q203,244.9063 203,243.7031 L203,242.6094 Q203,241.3594 203.5938,240.2656 Q204.2031,239.1719 205.25,238.5938 Q206.3125,238 207.5,238 Q208.2188,238 208.8438,238.25 Q209.4688,238.5 210,239 Z " fill="#000000"/><text fill="#000000" font-family="sans-serif" font-size="12" lengthAdjust="spacing" textLength="53" x="222" y="247.4102">Company</text><line style="stroke:#A80036;stroke-width:1.5;" x1="194" x2="277" y1="258.5" y2="258.5"/><text fill="#000000" font-family="sans-serif" font-size="11" lengthAdjust="spacing" textLength="59" x="199" y="273.9189">-designation</text><text fill="#000000" font-family="sans-serif" font-size="11" lengthAdjust="spacing" textLength="45" x="199" y="287.7549">-portTree</text><text fill="#000000" font-family="sans-serif" font-size="11" lengthAdjust="spacing" textLength="49" x="199" y="301.5908">-portStore</text><line style="stroke:#A80036;stroke-width:1.5;" x1="194" x2="277" y1="308.0078" y2="308.0078"/><text fill="#000000" font-family="sans-serif" font-size="11" lengthAdjust="spacing" textLength="68" x="199" y="323.4268">-getPortTree()</text><text fill="#000000" font-family="sans-serif" font-size="11" lengthAdjust="spacing" textLength="72" x="199" y="337.2627">-getPortStore()</text><!--MD5=[a0bfe97ac0a38e6e74cc1c7c7b744b71]
class Port--><rect codeLine="22" fill="#FEFECE" filter="url(#f144cm0xnnons2)" height="255.5391" id="Port" style="stroke:#A80036;stroke-width:1.5;" width="321" x="105" y="769"/><ellipse cx="250.25" cy="785" fill="#ADD1B2" rx="11" ry="11" style="stroke:#A80036;stroke-width:1.0;"/><path d="M252.25,781.5 Q252.4531,781 252.6875,780.75 Q252.9219,780.5 253.1875,780.5 Q253.6563,780.5 253.9531,780.7813 Q254.25,781.0625 254.25,781.7188 L254.25,783.2813 Q254.25,783.9375 253.9688,784.2188 Q253.6875,784.5 253.25,784.5 Q252.8594,784.5 252.6094,784.3281 Q252.3594,784.1563 252.25,783.7031 Q252.2031,783.3906 252.0313,783.2188 Q251.7188,782.8906 251.1563,782.7031 Q250.5938,782.5 250.0313,782.5 Q249.3281,782.5 248.7344,782.7813 Q248.1563,783.0625 247.7031,783.6875 Q247.25,784.3125 247.25,785.1719 L247.25,786.0938 Q247.25,787.125 248.0938,787.8125 Q248.9375,788.5 250.4375,788.5 Q251.3281,788.5 251.9531,788.2969 Q252.3125,788.1875 252.7188,787.8281 Q252.9844,787.625 253.125,787.5625 Q253.2656,787.5 253.4375,787.5 Q253.7656,787.5 254,787.7656 Q254.25,788.0156 254.25,788.375 Q254.25,788.7188 253.9063,789.125 Q253.4063,789.7188 252.6094,790.0469 Q251.5625,790.5 250.2813,790.5 Q248.7813,790.5 247.5781,789.9063 Q246.6094,789.4375 245.9219,788.4219 Q245.25,787.4063 245.25,786.2031 L245.25,785.1094 Q245.25,783.8594 245.8438,782.7656 Q246.4531,781.6719 247.5,781.0938 Q248.5625,780.5 249.75,780.5 Q250.4688,780.5 251.0938,780.75 Q251.7188,781 252.25,781.5 Z " fill="#000000"/><text fill="#000000" font-family="sans-serif" font-size="12" lengthAdjust="spacing" textLength="22" x="270.75" y="789.9102">Port</text><line style="stroke:#A80036;stroke-width:1.5;" x1="106" x2="425" y1="801" y2="801"/><text fill="#000000" font-family="sans-serif" font-size="11" lengthAdjust="spacing" textLength="48" x="111" y="816.4189">-continent</text><text fill="#000000" font-family="sans-serif" font-size="11" lengthAdjust="spacing" textLength="41" x="111" y="830.2549">-country</text><text fill="#000000" font-family="sans-serif" font-size="11" lengthAdjust="spacing" textLength="48" x="111" y="844.0908">-portCode</text><text fill="#000000" font-family="sans-serif" font-size="11" lengthAdjust="spacing" textLength="50" x="111" y="857.9268">-portName</text><text fill="#000000" font-family="sans-serif" font-size="11" lengthAdjust="spacing" textLength="38" x="111" y="871.7627">-latitude</text><text fill="#000000" font-family="sans-serif" font-size="11" lengthAdjust="spacing" textLength="47" x="111" y="885.5986">-longitude</text><line style="stroke:#A80036;stroke-width:1.5;" x1="106" x2="425" y1="892.0156" y2="892.0156"/><text fill="#000000" font-family="sans-serif" font-size="11" lengthAdjust="spacing" textLength="309" x="111" y="907.4346">-Port(continent, country, portCode, portName, latitude, longitude)</text><text fill="#000000" font-family="sans-serif" font-size="11" lengthAdjust="spacing" textLength="130" x="111" y="921.2705">-checkContinent(continent)</text><text fill="#000000" font-family="sans-serif" font-size="11" lengthAdjust="spacing" textLength="116" x="111" y="935.1064">-checkCountry(country)</text><text fill="#000000" font-family="sans-serif" font-size="11" lengthAdjust="spacing" textLength="129" x="111" y="948.9424">-checkPortCode(portCode)</text><text fill="#000000" font-family="sans-serif" font-size="11" lengthAdjust="spacing" textLength="133" x="111" y="962.7783">-checkPortName(portName)</text><text fill="#000000" font-family="sans-serif" font-size="11" lengthAdjust="spacing" textLength="113" x="111" y="976.6143">-checkLatitude(latitude)</text><text fill="#000000" font-family="sans-serif" font-size="11" lengthAdjust="spacing" textLength="131" x="111" y="990.4502">-checkLongitude(longitude)</text><text fill="#000000" font-family="sans-serif" font-size="11" lengthAdjust="spacing" textLength="71" x="111" y="1004.2861">-getPortCode()</text><text fill="#000000" font-family="sans-serif" font-size="11" lengthAdjust="spacing" textLength="100" x="111" y="1018.1221">-equals(otherObject)</text><!--MD5=[f70d2b281f9eefc1b49373c49159755a]
class PortStore--><rect codeLine="40" fill="#FEFECE" filter="url(#f144cm0xnnons2)" height="81.5078" id="PortStore" style="stroke:#A80036;stroke-width:1.5;" width="136" x="126.5" y="477"/><ellipse cx="165.35" cy="493" fill="#ADD1B2" rx="11" ry="11" style="stroke:#A80036;stroke-width:1.0;"/><path d="M167.35,489.5 Q167.5531,489 167.7875,488.75 Q168.0219,488.5 168.2875,488.5 Q168.7563,488.5 169.0531,488.7813 Q169.35,489.0625 169.35,489.7188 L169.35,491.2813 Q169.35,491.9375 169.0688,492.2188 Q168.7875,492.5 168.35,492.5 Q167.9594,492.5 167.7094,492.3281 Q167.4594,492.1563 167.35,491.7031 Q167.3031,491.3906 167.1313,491.2188 Q166.8188,490.8906 166.2563,490.7031 Q165.6938,490.5 165.1313,490.5 Q164.4281,490.5 163.8344,490.7813 Q163.2563,491.0625 162.8031,491.6875 Q162.35,492.3125 162.35,493.1719 L162.35,494.0938 Q162.35,495.125 163.1938,495.8125 Q164.0375,496.5 165.5375,496.5 Q166.4281,496.5 167.0531,496.2969 Q167.4125,496.1875 167.8188,495.8281 Q168.0844,495.625 168.225,495.5625 Q168.3656,495.5 168.5375,495.5 Q168.8656,495.5 169.1,495.7656 Q169.35,496.0156 169.35,496.375 Q169.35,496.7188 169.0063,497.125 Q168.5063,497.7188 167.7094,498.0469 Q166.6625,498.5 165.3813,498.5 Q163.8813,498.5 162.6781,497.9063 Q161.7094,497.4375 161.0219,496.4219 Q160.35,495.4063 160.35,494.2031 L160.35,493.1094 Q160.35,491.8594 160.9438,490.7656 Q161.5531,489.6719 162.6,489.0938 Q163.6625,488.5 164.85,488.5 Q165.5688,488.5 166.1938,488.75 Q166.8188,489 167.35,489.5 Z " fill="#000000"/><text fill="#000000" font-family="sans-serif" font-size="12" lengthAdjust="spacing" textLength="51" x="184.65" y="497.9102">PortStore</text><line style="stroke:#A80036;stroke-width:1.5;" x1="127.5" x2="261.5" y1="509" y2="509"/><text fill="#000000" font-family="sans-serif" font-size="11" lengthAdjust="spacing" textLength="124" x="132.5" y="524.4189">-createPort(portsFileDTO)</text><text fill="#000000" font-family="sans-serif" font-size="11" lengthAdjust="spacing" textLength="74" x="132.5" y="538.2549">-savePort(port)</text><text fill="#000000" font-family="sans-serif" font-size="11" lengthAdjust="spacing" textLength="68" x="132.5" y="552.0908">-getPortTree()</text><!--MD5=[24ed9367eeeddc8264961b161ed9a6a1]
class PortTree--><rect codeLine="46" fill="#FEFECE" filter="url(#f144cm0xnnons2)" height="53.8359" id="PortTree" style="stroke:#A80036;stroke-width:1.5;" width="159" x="115" y="637"/><ellipse cx="166.75" cy="653" fill="#ADD1B2" rx="11" ry="11" style="stroke:#A80036;stroke-width:1.0;"/><path d="M168.75,649.5 Q168.9531,649 169.1875,648.75 Q169.4219,648.5 169.6875,648.5 Q170.1563,648.5 170.4531,648.7813 Q170.75,649.0625 170.75,649.7188 L170.75,651.2813 Q170.75,651.9375 170.4688,652.2188 Q170.1875,652.5 169.75,652.5 Q169.3594,652.5 169.1094,652.3281 Q168.8594,652.1563 168.75,651.7031 Q168.7031,651.3906 168.5313,651.2188 Q168.2188,650.8906 167.6563,650.7031 Q167.0938,650.5 166.5313,650.5 Q165.8281,650.5 165.2344,650.7813 Q164.6563,651.0625 164.2031,651.6875 Q163.75,652.3125 163.75,653.1719 L163.75,654.0938 Q163.75,655.125 164.5938,655.8125 Q165.4375,656.5 166.9375,656.5 Q167.8281,656.5 168.4531,656.2969 Q168.8125,656.1875 169.2188,655.8281 Q169.4844,655.625 169.625,655.5625 Q169.7656,655.5 169.9375,655.5 Q170.2656,655.5 170.5,655.7656 Q170.75,656.0156 170.75,656.375 Q170.75,656.7188 170.4063,657.125 Q169.9063,657.7188 169.1094,658.0469 Q168.0625,658.5 166.7813,658.5 Q165.2813,658.5 164.0781,657.9063 Q163.1094,657.4375 162.4219,656.4219 Q161.75,655.4063 161.75,654.2031 L161.75,653.1094 Q161.75,651.8594 162.3438,650.7656 Q162.9531,649.6719 164,649.0938 Q165.0625,648.5 166.25,648.5 Q166.9688,648.5 167.5938,648.75 Q168.2188,649 168.75,649.5 Z " fill="#000000"/><text fill="#000000" font-family="sans-serif" font-size="12" lengthAdjust="spacing" textLength="47" x="187.25" y="657.9102">PortTree</text><line style="stroke:#A80036;stroke-width:1.5;" x1="116" x2="273" y1="669" y2="669"/><text fill="#000000" font-family="sans-serif" font-size="11" lengthAdjust="spacing" textLength="147" x="121" y="684.4189">-getPortByPortCode(portCode)</text><!--MD5=[30e0c3612ad0aed7996b08ab6da52e23]
class PortsFileDTO--><rect codeLine="50" fill="#FEFECE" filter="url(#f144cm0xnnons2)" height="227.8672" id="PortsFileDTO" style="stroke:#A80036;stroke-width:1.5;" width="364" x="384.5" y="171"/><ellipse cx="525.25" cy="187" fill="#ADD1B2" rx="11" ry="11" style="stroke:#A80036;stroke-width:1.0;"/><path d="M527.25,183.5 Q527.4531,183 527.6875,182.75 Q527.9219,182.5 528.1875,182.5 Q528.6563,182.5 528.9531,182.7813 Q529.25,183.0625 529.25,183.7188 L529.25,185.2813 Q529.25,185.9375 528.9688,186.2188 Q528.6875,186.5 528.25,186.5 Q527.8594,186.5 527.6094,186.3281 Q527.3594,186.1563 527.25,185.7031 Q527.2031,185.3906 527.0313,185.2188 Q526.7188,184.8906 526.1563,184.7031 Q525.5938,184.5 525.0313,184.5 Q524.3281,184.5 523.7344,184.7813 Q523.1563,185.0625 522.7031,185.6875 Q522.25,186.3125 522.25,187.1719 L522.25,188.0938 Q522.25,189.125 523.0938,189.8125 Q523.9375,190.5 525.4375,190.5 Q526.3281,190.5 526.9531,190.2969 Q527.3125,190.1875 527.7188,189.8281 Q527.9844,189.625 528.125,189.5625 Q528.2656,189.5 528.4375,189.5 Q528.7656,189.5 529,189.7656 Q529.25,190.0156 529.25,190.375 Q529.25,190.7188 528.9063,191.125 Q528.4063,191.7188 527.6094,192.0469 Q526.5625,192.5 525.2813,192.5 Q523.7813,192.5 522.5781,191.9063 Q521.6094,191.4375 520.9219,190.4219 Q520.25,189.4063 520.25,188.2031 L520.25,187.1094 Q520.25,185.8594 520.8438,184.7656 Q521.4531,183.6719 522.5,183.0938 Q523.5625,182.5 524.75,182.5 Q525.4688,182.5 526.0938,182.75 Q526.7188,183 527.25,183.5 Z " fill="#000000"/><text fill="#000000" font-family="sans-serif" font-size="12" lengthAdjust="spacing" textLength="74" x="545.75" y="191.9102">PortsFileDTO</text><line style="stroke:#A80036;stroke-width:1.5;" x1="385.5" x2="747.5" y1="203" y2="203"/><text fill="#000000" font-family="sans-serif" font-size="11" lengthAdjust="spacing" textLength="48" x="390.5" y="218.4189">-continent</text><text fill="#000000" font-family="sans-serif" font-size="11" lengthAdjust="spacing" textLength="41" x="390.5" y="232.2549">-country</text><text fill="#000000" font-family="sans-serif" font-size="11" lengthAdjust="spacing" textLength="48" x="390.5" y="246.0908">-portCode</text><text fill="#000000" font-family="sans-serif" font-size="11" lengthAdjust="spacing" textLength="50" x="390.5" y="259.9268">-portName</text><text fill="#000000" font-family="sans-serif" font-size="11" lengthAdjust="spacing" textLength="38" x="390.5" y="273.7627">-latitude</text><text fill="#000000" font-family="sans-serif" font-size="11" lengthAdjust="spacing" textLength="47" x="390.5" y="287.5986">-longitude</text><line style="stroke:#A80036;stroke-width:1.5;" x1="385.5" x2="747.5" y1="294.0156" y2="294.0156"/><text fill="#000000" font-family="sans-serif" font-size="11" lengthAdjust="spacing" textLength="352" x="390.5" y="309.4346">-PortsFileDTO(continent, country, portCode, portName, latitude, longitude)</text><text fill="#000000" font-family="sans-serif" font-size="11" lengthAdjust="spacing" textLength="72" x="390.5" y="323.2705">-getContinent()</text><text fill="#000000" font-family="sans-serif" font-size="11" lengthAdjust="spacing" textLength="65" x="390.5" y="337.1064">-getCountry()</text><text fill="#000000" font-family="sans-serif" font-size="11" lengthAdjust="spacing" textLength="71" x="390.5" y="350.9424">-getPortCode()</text><text fill="#000000" font-family="sans-serif" font-size="11" lengthAdjust="spacing" textLength="73" x="390.5" y="364.7783">-getPortName()</text><text fill="#000000" font-family="sans-serif" font-size="11" lengthAdjust="spacing" textLength="65" x="390.5" y="378.6143">-getLatitude()</text><text fill="#000000" font-family="sans-serif" font-size="11" lengthAdjust="spacing" textLength="74" x="390.5" y="392.4502">-getLongitude()</text><!--MD5=[cff9788f2e05cd95269b9eb6ca98e8be]
class PortsFileUtils--><rect codeLine="66" fill="#FEFECE" filter="url(#f144cm0xnnons2)" height="89.5078" id="PortsFileUtils" style="stroke:#A80036;stroke-width:1.5;" width="154" x="489.5" y="13.5"/><ellipse cx="526.1" cy="29.5" fill="#ADD1B2" rx="11" ry="11" style="stroke:#A80036;stroke-width:1.0;"/><path d="M528.1,26 Q528.3031,25.5 528.5375,25.25 Q528.7719,25 529.0375,25 Q529.5063,25 529.8031,25.2813 Q530.1,25.5625 530.1,26.2188 L530.1,27.7813 Q530.1,28.4375 529.8188,28.7188 Q529.5375,29 529.1,29 Q528.7094,29 528.4594,28.8281 Q528.2094,28.6563 528.1,28.2031 Q528.0531,27.8906 527.8813,27.7188 Q527.5688,27.3906 527.0063,27.2031 Q526.4438,27 525.8813,27 Q525.1781,27 524.5844,27.2813 Q524.0063,27.5625 523.5531,28.1875 Q523.1,28.8125 523.1,29.6719 L523.1,30.5938 Q523.1,31.625 523.9438,32.3125 Q524.7875,33 526.2875,33 Q527.1781,33 527.8031,32.7969 Q528.1625,32.6875 528.5688,32.3281 Q528.8344,32.125 528.975,32.0625 Q529.1156,32 529.2875,32 Q529.6156,32 529.85,32.2656 Q530.1,32.5156 530.1,32.875 Q530.1,33.2188 529.7563,33.625 Q529.2563,34.2188 528.4594,34.5469 Q527.4125,35 526.1313,35 Q524.6313,35 523.4281,34.4063 Q522.4594,33.9375 521.7719,32.9219 Q521.1,31.9063 521.1,30.7031 L521.1,29.6094 Q521.1,28.3594 521.6938,27.2656 Q522.3031,26.1719 523.35,25.5938 Q524.4125,25 525.6,25 Q526.3188,25 526.9438,25.25 Q527.5688,25.5 528.1,26 Z " fill="#000000"/><text fill="#000000" font-family="sans-serif" font-size="12" lengthAdjust="spacing" textLength="74" x="544.9" y="34.4102">PortsFileUtils</text><line style="stroke:#A80036;stroke-width:1.5;" x1="490.5" x2="642.5" y1="45.5" y2="45.5"/><text fill="#000000" font-family="sans-serif" font-size="11" lengthAdjust="spacing" textLength="57" x="495.5" y="60.9189">-dataLabels</text><line style="stroke:#A80036;stroke-width:1.5;" x1="490.5" x2="642.5" y1="67.3359" y2="67.3359"/><text fill="#000000" font-family="sans-serif" font-size="11" lengthAdjust="spacing" textLength="142" x="495.5" y="82.7549">-getPortsDataToDTO(filePath)</text><text fill="#000000" font-family="sans-serif" font-size="11" lengthAdjust="spacing" textLength="131" x="495.5" y="96.5908">-attributesToDTO(portData)</text><!--MD5=[6a92e1b6ff900540a2721d2a0d9d95d6]
class 2DTree--><rect codeLine="72" fill="#FEFECE" filter="url(#f144cm0xnnons2)" height="32" id="2DTree" style="stroke:#A80036;stroke-width:1.5;" width="73" x="7" y="648"/><ellipse cx="22" cy="664" fill="#ADD1B2" rx="11" ry="11" style="stroke:#A80036;stroke-width:1.0;"/><path d="M24,660.5 Q24.2031,660 24.4375,659.75 Q24.6719,659.5 24.9375,659.5 Q25.4063,659.5 25.7031,659.7813 Q26,660.0625 26,660.7188 L26,662.2813 Q26,662.9375 25.7188,663.2188 Q25.4375,663.5 25,663.5 Q24.6094,663.5 24.3594,663.3281 Q24.1094,663.1563 24,662.7031 Q23.9531,662.3906 23.7813,662.2188 Q23.4688,661.8906 22.9063,661.7031 Q22.3438,661.5 21.7813,661.5 Q21.0781,661.5 20.4844,661.7813 Q19.9063,662.0625 19.4531,662.6875 Q19,663.3125 19,664.1719 L19,665.0938 Q19,666.125 19.8438,666.8125 Q20.6875,667.5 22.1875,667.5 Q23.0781,667.5 23.7031,667.2969 Q24.0625,667.1875 24.4688,666.8281 Q24.7344,666.625 24.875,666.5625 Q25.0156,666.5 25.1875,666.5 Q25.5156,666.5 25.75,666.7656 Q26,667.0156 26,667.375 Q26,667.7188 25.6563,668.125 Q25.1563,668.7188 24.3594,669.0469 Q23.3125,669.5 22.0313,669.5 Q20.5313,669.5 19.3281,668.9063 Q18.3594,668.4375 17.6719,667.4219 Q17,666.4063 17,665.2031 L17,664.1094 Q17,662.8594 17.5938,661.7656 Q18.2031,660.6719 19.25,660.0938 Q20.3125,659.5 21.5,659.5 Q22.2188,659.5 22.8438,659.75 Q23.4688,660 24,660.5 Z " fill="#000000"/><text fill="#000000" font-family="sans-serif" font-size="12" lengthAdjust="spacing" textLength="41" x="36" y="668.9102">2DTree</text><!--MD5=[5a03d6507d51d9583d52cfaf8d4720dd]
link Company to PortStore--><path codeLine="75" d="M225.26,343.7 C217.91,385.12 208.18,439.92 201.65,476.7 " fill="none" id="Company-PortStore" style="stroke:#A80036;stroke-width:1.0;"/><polygon fill="#000000" points="213.6261,443.0988,218.1007,434.7066,212.3133,433.6793,213.6261,443.0988" style="stroke:#000000;stroke-width:1.0;"/><text fill="#000000" font-family="sans-serif" font-size="13" lengthAdjust="spacing" textLength="28" x="223.5" y="443.4951">uses</text><text fill="#000000" font-family="sans-serif" font-size="13" lengthAdjust="spacing" textLength="7" x="216.5854" y="365.3347">1</text><text fill="#000000" font-family="sans-serif" font-size="13" lengthAdjust="spacing" textLength="7" x="195.2545" y="466.0997">1</text><!--MD5=[bcaed2728c4ac29fd365d26287364b33]
link PortStore to PortTree--><path codeLine="76" d="M194.5,559.11 C194.5,583.91 194.5,615.04 194.5,636.72 " fill="none" id="PortStore-PortTree" style="stroke:#A80036;stroke-width:1.0;"/><polygon fill="#000000" points="199.5,603.1758,202.4389,594.1307,196.5611,594.1307,199.5,603.1758" style="stroke:#000000;stroke-width:1.0;"/><text fill="#000000" font-family="sans-serif" font-size="13" lengthAdjust="spacing" textLength="28" x="208.5" y="603.4951">uses</text><text fill="#000000" font-family="sans-serif" font-size="13" lengthAdjust="spacing" textLength="7" x="186.9859" y="579.8801">1</text><text fill="#000000" font-family="sans-serif" font-size="13" lengthAdjust="spacing" textLength="7" x="186.6906" y="626.1162">1</text><!--MD5=[ce2e444c4d4af6828f8feed8091f1095]
link PortTree to Port--><path codeLine="77" d="M202.51,691.05 C208.54,710.7 217.32,739.24 226.41,768.81 " fill="none" id="PortTree-Port" style="stroke:#A80036;stroke-width:1.0;"/><polygon fill="#000000" points="221.969,734.9551,222.1208,725.4458,216.5024,727.1726,221.969,734.9551" style="stroke:#000000;stroke-width:1.0;"/><text fill="#000000" font-family="sans-serif" font-size="13" lengthAdjust="spacing" textLength="30" x="229.5" y="735.4951">owns</text><text fill="#000000" font-family="sans-serif" font-size="13" lengthAdjust="spacing" textLength="7" x="196.4966" y="712.2687">1</text><text fill="#000000" font-family="sans-serif" font-size="13" lengthAdjust="spacing" textLength="20" x="203.4186" y="758.0308">1..*</text><!--MD5=[43895423cfcebb248304ca1f35c2d60a]
link ImportPortsController to Company--><path codeLine="78" d="M235.5,110.16 C235.5,143.07 235.5,186.21 235.5,221.29 " fill="none" id="ImportPortsController-to-Company" style="stroke:#A80036;stroke-width:1.0;stroke-dasharray:7.0,7.0;"/><polygon fill="#A80036" points="235.5,226.4,239.5,217.4,235.5,221.4,231.5,217.4,235.5,226.4" style="stroke:#A80036;stroke-width:1.0;"/><!--MD5=[ee0c190b6c6db4c9f80a3257dd9a0382]
link ImportPortsController to PortTree--><path codeLine="79" d="M191.57,110.06 C177.97,128.19 164.28,149.49 155.5,171 C103.52,298.4 118.97,339.8 108.5,477 C105.73,513.34 96.16,524.71 108.5,559 C118.84,587.73 140.94,614.16 160.14,633.18 " fill="none" id="ImportPortsController-to-PortTree" style="stroke:#A80036;stroke-width:1.0;stroke-dasharray:7.0,7.0;"/><polygon fill="#A80036" points="163.94,636.89,160.2748,627.7485,160.3548,633.4048,154.6985,633.4848,163.94,636.89" style="stroke:#A80036;stroke-width:1.0;"/><!--MD5=[093670de952a97f84a3595d8c4df9b55]
link ImportPortsController to Port--><path codeLine="80" d="M271.25,110.39 C298.54,154.27 331.5,220.42 331.5,284 C331.5,284 331.5,284 331.5,665 C331.5,697.66 325.32,731.96 316.75,763.83 " fill="none" id="ImportPortsController-to-Port" style="stroke:#A80036;stroke-width:1.0;stroke-dasharray:7.0,7.0;"/><polygon fill="#A80036" points="315.35,768.92,321.6001,761.3084,316.6801,764.1002,313.8883,759.1802,315.35,768.92" style="stroke:#A80036;stroke-width:1.0;"/><!--MD5=[b40ba1c9f61aa9879238aec094545168]
link ImportPortsController to PortStore--><path codeLine="81" d="M201.48,110.06 C191,128.44 180.82,149.9 175.5,171 C149,276.18 169.25,404.84 183.55,471.72 " fill="none" id="ImportPortsController-to-PortStore" style="stroke:#A80036;stroke-width:1.0;stroke-dasharray:7.0,7.0;"/><polygon fill="#A80036" points="184.65,476.82,186.6562,467.1776,183.5926,471.9331,178.8371,468.8695,184.65,476.82" style="stroke:#A80036;stroke-width:1.0;"/><!--MD5=[acf23926505f12b69983c07b40177d8e]
reverse link 2DTree to PortTree--><path codeLine="82" d="M100.23,664 C105.13,664 110.03,664 114.94,664 " fill="none" id="2DTree-backto-PortTree" style="stroke:#A80036;stroke-width:1.0;"/><polygon fill="none" points="100.07,671,80.07,664,100.07,657,100.07,671" style="stroke:#A80036;stroke-width:1.0;"/><!--MD5=[81abfe668920a7b53ed7302154d0901a]
link PortsFileUtils to PortsFileDTO--><path codeLine="83" d="M566.5,103.59 C566.5,121.63 566.5,143.46 566.5,165.61 " fill="none" id="PortsFileUtils-to-PortsFileDTO" style="stroke:#A80036;stroke-width:1.0;stroke-dasharray:7.0,7.0;"/><polygon fill="#A80036" points="566.5,170.63,570.5257,161.6415,566.5143,165.63,562.5257,161.6186,566.5,170.63" style="stroke:#A80036;stroke-width:1.0;"/><!--MD5=[0847758551f8b004c4ece60b679a358e]
link ImportPortsController to PortsFileDTO--><path codeLine="84" d="M312.78,110.15 C327.65,120 343.09,130.28 357.5,140 C370.91,149.04 384.77,158.45 398.68,167.94 " fill="none" id="ImportPortsController-to-PortsFileDTO" style="stroke:#A80036;stroke-width:1.0;stroke-dasharray:7.0,7.0;"/><polygon fill="#A80036" points="402.99,170.88,397.8064,162.5056,398.8586,168.0638,393.3004,169.1159,402.99,170.88" style="stroke:#A80036;stroke-width:1.0;"/><!--MD5=[1085a7db60f76181a10980ab9d0e037d]
@startuml

hide empty methods
hide empty attributes
'left to right direction
skinparam classAttributeIconSize 0

class ImportPortsController {
- company
- port
- savePort()
- importPortFromFile(portsFileDTO)
}

class Company {
- designation
- portTree
- portStore
- getPortTree()
- getPortStore()
}

class Port {
- continent
- country
- portCode
- portName
- latitude
- longitude
- Port(continent, country, portCode, portName, latitude, longitude)
- checkContinent(continent)
- checkCountry(country)
- checkPortCode(portCode)
- checkPortName(portName)
- checkLatitude(latitude)
- checkLongitude(longitude)
- getPortCode()
- equals(otherObject)
}

class PortStore {
- createPort(portsFileDTO)
- savePort(port)
- getPortTree()
}

class PortTree {
- getPortByPortCode(portCode)
}

class PortsFileDTO{
- continent
- country
- portCode
- portName
- latitude
- longitude
- PortsFileDTO(continent, country, portCode, portName, latitude, longitude)
- getContinent()
- getCountry()
- getPortCode()
- getPortName()
- getLatitude()
- getLongitude()
}

class PortsFileUtils{
- dataLabels
- getPortsDataToDTO(filePath)
- attributesToDTO(portData)
}

class 2DTree{
}

Company "1" - - "1" PortStore : uses >
PortStore "1" - - "1" PortTree : uses >
PortTree "1" - - "1..*" Port : owns >
ImportPortsController ..> Company
ImportPortsController ..> PortTree
ImportPortsController ..> Port
ImportPortsController ..> PortStore
2DTree <|- PortTree
PortsFileUtils ..> PortsFileDTO
ImportPortsController ..> PortsFileDTO



@enduml

@startuml

hide empty methods
hide empty attributes
skinparam classAttributeIconSize 0

class ImportPortsController {
- company
- port
- savePort()
- importPortFromFile(portsFileDTO)
}

class Company {
- designation
- portTree
- portStore
- getPortTree()
- getPortStore()
}

class Port {
- continent
- country
- portCode
- portName
- latitude
- longitude
- Port(continent, country, portCode, portName, latitude, longitude)
- checkContinent(continent)
- checkCountry(country)
- checkPortCode(portCode)
- checkPortName(portName)
- checkLatitude(latitude)
- checkLongitude(longitude)
- getPortCode()
- equals(otherObject)
}

class PortStore {
- createPort(portsFileDTO)
- savePort(port)
- getPortTree()
}

class PortTree {
- getPortByPortCode(portCode)
}

class PortsFileDTO{
- continent
- country
- portCode
- portName
- latitude
- longitude
- PortsFileDTO(continent, country, portCode, portName, latitude, longitude)
- getContinent()
- getCountry()
- getPortCode()
- getPortName()
- getLatitude()
- getLongitude()
}

class PortsFileUtils{
- dataLabels
- getPortsDataToDTO(filePath)
- attributesToDTO(portData)
}

class 2DTree{
}

Company "1" - - "1" PortStore : uses >
PortStore "1" - - "1" PortTree : uses >
PortTree "1" - - "1..*" Port : owns >
ImportPortsController ..> Company
ImportPortsController ..> PortTree
ImportPortsController ..> Port
ImportPortsController ..> PortStore
2DTree <|- PortTree
PortsFileUtils ..> PortsFileDTO
ImportPortsController ..> PortsFileDTO



@enduml

PlantUML version 1.2021.11(Sat Oct 02 14:26:11 BST 2021)
(GPL source distribution)
Java Runtime: OpenJDK Runtime Environment
JVM: OpenJDK 64-Bit Server VM
Default Encoding: Cp1252
Language: pt
Country: PT
--></g></svg>