<?xml version="1.0" encoding="UTF-8" standalone="no"?><svg xmlns="http://www.w3.org/2000/svg" xmlns:xlink="http://www.w3.org/1999/xlink" contentScriptType="application/ecmascript" contentStyleType="text/css" height="276px" preserveAspectRatio="none" style="width:243px;height:276px;background:#FFFFFF;" version="1.1" viewBox="0 0 243 276" width="243px" zoomAndPan="magnify"><defs><filter height="300%" id="f1fwmn0p9ca3az" width="300%" x="-1" y="-1"><feGaussianBlur result="blurOut" stdDeviation="2.0"/><feColorMatrix in="blurOut" result="blurOut2" type="matrix" values="0 0 0 0 0 0 0 0 0 0 0 0 0 0 0 0 0 0 .4 0"/><feOffset dx="4.0" dy="4.0" in="blurOut2" result="blurOut3"/><feBlend in="SourceGraphic" in2="blurOut3" mode="normal"/></filter></defs><g><!--MD5=[99d8f1361a72f685c413d1fd21efef1c]
class PortManager--><rect codeLine="6" fill="#FEFECE" filter="url(#f1fwmn0p9ca3az)" height="53.8359" id="PortManager" style="stroke:#A80036;stroke-width:1.5;" width="102" x="7" y="7"/><ellipse cx="22" cy="23" fill="#ADD1B2" rx="11" ry="11" style="stroke:#A80036;stroke-width:1.0;"/><path d="M24,19.5 Q24.2031,19 24.4375,18.75 Q24.6719,18.5 24.9375,18.5 Q25.4063,18.5 25.7031,18.7813 Q26,19.0625 26,19.7188 L26,21.2813 Q26,21.9375 25.7188,22.2188 Q25.4375,22.5 25,22.5 Q24.6094,22.5 24.3594,22.3281 Q24.1094,22.1563 24,21.7031 Q23.9531,21.3906 23.7813,21.2188 Q23.4688,20.8906 22.9063,20.7031 Q22.3438,20.5 21.7813,20.5 Q21.0781,20.5 20.4844,20.7813 Q19.9063,21.0625 19.4531,21.6875 Q19,22.3125 19,23.1719 L19,24.0938 Q19,25.125 19.8438,25.8125 Q20.6875,26.5 22.1875,26.5 Q23.0781,26.5 23.7031,26.2969 Q24.0625,26.1875 24.4688,25.8281 Q24.7344,25.625 24.875,25.5625 Q25.0156,25.5 25.1875,25.5 Q25.5156,25.5 25.75,25.7656 Q26,26.0156 26,26.375 Q26,26.7188 25.6563,27.125 Q25.1563,27.7188 24.3594,28.0469 Q23.3125,28.5 22.0313,28.5 Q20.5313,28.5 19.3281,27.9063 Q18.3594,27.4375 17.6719,26.4219 Q17,25.4063 17,24.2031 L17,23.1094 Q17,21.8594 17.5938,20.7656 Q18.2031,19.6719 19.25,19.0938 Q20.3125,18.5 21.5,18.5 Q22.2188,18.5 22.8438,18.75 Q23.4688,19 24,19.5 Z " fill="#000000"/><text fill="#000000" font-family="sans-serif" font-size="12" lengthAdjust="spacing" textLength="70" x="36" y="27.9102">PortManager</text><line style="stroke:#A80036;stroke-width:1.5;" x1="8" x2="108" y1="39" y2="39"/><text fill="#000000" font-family="sans-serif" font-size="11" lengthAdjust="spacing" textLength="30" x="13" y="54.4189">-name</text><!--MD5=[02e4b9b7573f1156f41e60aa5b4e25a4]
class Company--><rect codeLine="10" fill="#FEFECE" filter="url(#f1fwmn0p9ca3az)" height="32" id="Company" style="stroke:#A80036;stroke-width:1.5;" width="85" x="144.5" y="18"/><ellipse cx="159.5" cy="34" fill="#ADD1B2" rx="11" ry="11" style="stroke:#A80036;stroke-width:1.0;"/><path d="M161.5,30.5 Q161.7031,30 161.9375,29.75 Q162.1719,29.5 162.4375,29.5 Q162.9063,29.5 163.2031,29.7813 Q163.5,30.0625 163.5,30.7188 L163.5,32.2813 Q163.5,32.9375 163.2188,33.2188 Q162.9375,33.5 162.5,33.5 Q162.1094,33.5 161.8594,33.3281 Q161.6094,33.1563 161.5,32.7031 Q161.4531,32.3906 161.2813,32.2188 Q160.9688,31.8906 160.4063,31.7031 Q159.8438,31.5 159.2813,31.5 Q158.5781,31.5 157.9844,31.7813 Q157.4063,32.0625 156.9531,32.6875 Q156.5,33.3125 156.5,34.1719 L156.5,35.0938 Q156.5,36.125 157.3438,36.8125 Q158.1875,37.5 159.6875,37.5 Q160.5781,37.5 161.2031,37.2969 Q161.5625,37.1875 161.9688,36.8281 Q162.2344,36.625 162.375,36.5625 Q162.5156,36.5 162.6875,36.5 Q163.0156,36.5 163.25,36.7656 Q163.5,37.0156 163.5,37.375 Q163.5,37.7188 163.1563,38.125 Q162.6563,38.7188 161.8594,39.0469 Q160.8125,39.5 159.5313,39.5 Q158.0313,39.5 156.8281,38.9063 Q155.8594,38.4375 155.1719,37.4219 Q154.5,36.4063 154.5,35.2031 L154.5,34.1094 Q154.5,32.8594 155.0938,31.7656 Q155.7031,30.6719 156.75,30.0938 Q157.8125,29.5 159,29.5 Q159.7188,29.5 160.3438,29.75 Q160.9688,30 161.5,30.5 Z " fill="#000000"/><text fill="#000000" font-family="sans-serif" font-size="12" lengthAdjust="spacing" textLength="53" x="173.5" y="38.9102">Company</text><!--MD5=[a0bfe97ac0a38e6e74cc1c7c7b744b71]
class Port--><rect codeLine="12" fill="#FEFECE" filter="url(#f1fwmn0p9ca3az)" height="123.0156" id="Port" style="stroke:#A80036;stroke-width:1.5;" width="62" x="91" y="139"/><ellipse cx="109.6" cy="155" fill="#ADD1B2" rx="11" ry="11" style="stroke:#A80036;stroke-width:1.0;"/><path d="M111.6,151.5 Q111.8031,151 112.0375,150.75 Q112.2719,150.5 112.5375,150.5 Q113.0063,150.5 113.3031,150.7813 Q113.6,151.0625 113.6,151.7188 L113.6,153.2813 Q113.6,153.9375 113.3188,154.2188 Q113.0375,154.5 112.6,154.5 Q112.2094,154.5 111.9594,154.3281 Q111.7094,154.1563 111.6,153.7031 Q111.5531,153.3906 111.3813,153.2188 Q111.0688,152.8906 110.5063,152.7031 Q109.9438,152.5 109.3813,152.5 Q108.6781,152.5 108.0844,152.7813 Q107.5063,153.0625 107.0531,153.6875 Q106.6,154.3125 106.6,155.1719 L106.6,156.0938 Q106.6,157.125 107.4438,157.8125 Q108.2875,158.5 109.7875,158.5 Q110.6781,158.5 111.3031,158.2969 Q111.6625,158.1875 112.0688,157.8281 Q112.3344,157.625 112.475,157.5625 Q112.6156,157.5 112.7875,157.5 Q113.1156,157.5 113.35,157.7656 Q113.6,158.0156 113.6,158.375 Q113.6,158.7188 113.2563,159.125 Q112.7563,159.7188 111.9594,160.0469 Q110.9125,160.5 109.6313,160.5 Q108.1313,160.5 106.9281,159.9063 Q105.9594,159.4375 105.2719,158.4219 Q104.6,157.4063 104.6,156.2031 L104.6,155.1094 Q104.6,153.8594 105.1938,152.7656 Q105.8031,151.6719 106.85,151.0938 Q107.9125,150.5 109.1,150.5 Q109.8188,150.5 110.4438,150.75 Q111.0688,151 111.6,151.5 Z " fill="#000000"/><text fill="#000000" font-family="sans-serif" font-size="12" lengthAdjust="spacing" textLength="22" x="124.4" y="159.9102">Port</text><line style="stroke:#A80036;stroke-width:1.5;" x1="92" x2="152" y1="171" y2="171"/><text fill="#000000" font-family="sans-serif" font-size="11" lengthAdjust="spacing" textLength="48" x="97" y="186.4189">-continent</text><text fill="#000000" font-family="sans-serif" font-size="11" lengthAdjust="spacing" textLength="41" x="97" y="200.2549">-country</text><text fill="#000000" font-family="sans-serif" font-size="11" lengthAdjust="spacing" textLength="48" x="97" y="214.0908">-portCode</text><text fill="#000000" font-family="sans-serif" font-size="11" lengthAdjust="spacing" textLength="50" x="97" y="227.9268">-portName</text><text fill="#000000" font-family="sans-serif" font-size="11" lengthAdjust="spacing" textLength="38" x="97" y="241.7627">-latitude</text><text fill="#000000" font-family="sans-serif" font-size="11" lengthAdjust="spacing" textLength="47" x="97" y="255.5986">-longitude</text><!--MD5=[9eb8cece74e91f217f5849e8308bf70d]
link PortManager to Port--><path codeLine="21" d="M67.74,61.07 C73.08,75.26 79.84,93.12 86,109 C89.73,118.62 93.73,128.79 97.65,138.7 " fill="none" id="PortManager-Port" style="stroke:#A80036;stroke-width:1.0;"/><polygon fill="#000000" points="92.7976,104.8415,92.2881,95.3445,86.8033,97.4578,92.7976,104.8415" style="stroke:#000000;stroke-width:1.0;"/><text fill="#000000" font-family="sans-serif" font-size="13" lengthAdjust="spacing" textLength="43" x="100" y="105.4951">imports</text><text fill="#000000" font-family="sans-serif" font-size="13" lengthAdjust="spacing" textLength="7" x="62.105" y="82.2931">1</text><text fill="#000000" font-family="sans-serif" font-size="13" lengthAdjust="spacing" textLength="20" x="73.6783" y="128.1439">1..*</text><!--MD5=[5fd98a8c03cc0e5a408f548eb1c0ace8]
link Company to Port--><path codeLine="22" d="M181,50.18 C173.05,70.3 158.55,107 145.92,138.98 " fill="none" id="Company-Port" style="stroke:#A80036;stroke-width:1.0;"/><polygon fill="#000000" points="167.1629,104.8261,173.2196,97.4934,167.7529,95.3338,167.1629,104.8261" style="stroke:#000000;stroke-width:1.0;"/><text fill="#000000" font-family="sans-serif" font-size="13" lengthAdjust="spacing" textLength="53" x="178" y="105.4951">manages</text><text fill="#000000" font-family="sans-serif" font-size="13" lengthAdjust="spacing" textLength="7" x="170.9719" y="71.4385">1</text><text fill="#000000" font-family="sans-serif" font-size="13" lengthAdjust="spacing" textLength="20" x="127.6165" y="128.0228">1..*</text><!--MD5=[be85a4c574e59167dc6bfbc1778bd80b]
@startuml
'https://plantuml.com/class-diagram
hide empty methods
hide empty attributes
skinparam classAttributeIconSize 0

class PortManager{
    -name
}

class Company{}

class Port{
    -continent
    -country
    -portCode
    -portName
    -latitude
    -longitude
}

PortManager "1" - - "1..*" Port : imports >
Company "1" - - "1..*" Port : manages >

@enduml

@startuml
hide empty methods
hide empty attributes
skinparam classAttributeIconSize 0

class PortManager{
    -name
}

class Company{}

class Port{
    -continent
    -country
    -portCode
    -portName
    -latitude
    -longitude
}

PortManager "1" - - "1..*" Port : imports >
Company "1" - - "1..*" Port : manages >

@enduml

PlantUML version 1.2021.11(Sat Oct 02 14:26:11 BST 2021)
(GPL source distribution)
Java Runtime: OpenJDK Runtime Environment
JVM: OpenJDK 64-Bit Server VM
Default Encoding: Cp1252
Language: pt
Country: PT
--></g></svg>