<?xml version="1.0" encoding="UTF-8" standalone="no"?><svg xmlns="http://www.w3.org/2000/svg" xmlns:xlink="http://www.w3.org/1999/xlink" contentScriptType="application/ecmascript" contentStyleType="text/css" height="373px" preserveAspectRatio="none" style="width:324px;height:373px;background:#FFFFFF;" version="1.1" viewBox="0 0 324 373" width="324px" zoomAndPan="magnify"><defs><filter height="300%" id="f1dtih2k77hbwb" width="300%" x="-1" y="-1"><feGaussianBlur result="blurOut" stdDeviation="2.0"/><feColorMatrix in="blurOut" result="blurOut2" type="matrix" values="0 0 0 0 0 0 0 0 0 0 0 0 0 0 0 0 0 0 .4 0"/><feOffset dx="4.0" dy="4.0" in="blurOut2" result="blurOut3"/><feBlend in="SourceGraphic" in2="blurOut3" mode="normal"/></filter></defs><g><!--MD5=[b2f94f0dd218673998cc6c2e557b94a1]
class GetContainerSituationController--><rect codeLine="4" fill="#FEFECE" filter="url(#f1dtih2k77hbwb)" height="61.8359" id="GetContainerSituationController" style="stroke:#A80036;stroke-width:1.5;" width="207" x="64" y="7"/><ellipse cx="79" cy="23" fill="#ADD1B2" rx="11" ry="11" style="stroke:#A80036;stroke-width:1.0;"/><path d="M81,19.5 Q81.2031,19 81.4375,18.75 Q81.6719,18.5 81.9375,18.5 Q82.4063,18.5 82.7031,18.7813 Q83,19.0625 83,19.7188 L83,21.2813 Q83,21.9375 82.7188,22.2188 Q82.4375,22.5 82,22.5 Q81.6094,22.5 81.3594,22.3281 Q81.1094,22.1563 81,21.7031 Q80.9531,21.3906 80.7813,21.2188 Q80.4688,20.8906 79.9063,20.7031 Q79.3438,20.5 78.7813,20.5 Q78.0781,20.5 77.4844,20.7813 Q76.9063,21.0625 76.4531,21.6875 Q76,22.3125 76,23.1719 L76,24.0938 Q76,25.125 76.8438,25.8125 Q77.6875,26.5 79.1875,26.5 Q80.0781,26.5 80.7031,26.2969 Q81.0625,26.1875 81.4688,25.8281 Q81.7344,25.625 81.875,25.5625 Q82.0156,25.5 82.1875,25.5 Q82.5156,25.5 82.75,25.7656 Q83,26.0156 83,26.375 Q83,26.7188 82.6563,27.125 Q82.1563,27.7188 81.3594,28.0469 Q80.3125,28.5 79.0313,28.5 Q77.5313,28.5 76.3281,27.9063 Q75.3594,27.4375 74.6719,26.4219 Q74,25.4063 74,24.2031 L74,23.1094 Q74,21.8594 74.5938,20.7656 Q75.2031,19.6719 76.25,19.0938 Q77.3125,18.5 78.5,18.5 Q79.2188,18.5 79.8438,18.75 Q80.4688,19 81,19.5 Z " fill="#000000"/><text fill="#000000" font-family="sans-serif" font-size="12" lengthAdjust="spacing" textLength="175" x="93" y="27.9102">GetContainerSituationController</text><line style="stroke:#A80036;stroke-width:1.5;" x1="65" x2="270" y1="39" y2="39"/><line style="stroke:#A80036;stroke-width:1.5;" x1="65" x2="270" y1="47" y2="47"/><text fill="#000000" font-family="sans-serif" font-size="11" lengthAdjust="spacing" textLength="182" x="70" y="62.4189">+getLocation(containerID, shipmentID)</text><!--MD5=[8d7ca94d2ddad896fa1b7a151fdd57c4]
class ShipTripStoreDB--><rect codeLine="8" fill="#FEFECE" filter="url(#f1dtih2k77hbwb)" height="75.6719" id="ShipTripStoreDB" style="stroke:#A80036;stroke-width:1.5;" width="303" x="7" y="284"/><ellipse cx="108.25" cy="300" fill="#ADD1B2" rx="11" ry="11" style="stroke:#A80036;stroke-width:1.0;"/><path d="M110.25,296.5 Q110.4531,296 110.6875,295.75 Q110.9219,295.5 111.1875,295.5 Q111.6563,295.5 111.9531,295.7813 Q112.25,296.0625 112.25,296.7188 L112.25,298.2813 Q112.25,298.9375 111.9688,299.2188 Q111.6875,299.5 111.25,299.5 Q110.8594,299.5 110.6094,299.3281 Q110.3594,299.1563 110.25,298.7031 Q110.2031,298.3906 110.0313,298.2188 Q109.7188,297.8906 109.1563,297.7031 Q108.5938,297.5 108.0313,297.5 Q107.3281,297.5 106.7344,297.7813 Q106.1563,298.0625 105.7031,298.6875 Q105.25,299.3125 105.25,300.1719 L105.25,301.0938 Q105.25,302.125 106.0938,302.8125 Q106.9375,303.5 108.4375,303.5 Q109.3281,303.5 109.9531,303.2969 Q110.3125,303.1875 110.7188,302.8281 Q110.9844,302.625 111.125,302.5625 Q111.2656,302.5 111.4375,302.5 Q111.7656,302.5 112,302.7656 Q112.25,303.0156 112.25,303.375 Q112.25,303.7188 111.9063,304.125 Q111.4063,304.7188 110.6094,305.0469 Q109.5625,305.5 108.2813,305.5 Q106.7813,305.5 105.5781,304.9063 Q104.6094,304.4375 103.9219,303.4219 Q103.25,302.4063 103.25,301.2031 L103.25,300.1094 Q103.25,298.8594 103.8438,297.7656 Q104.4531,296.6719 105.5,296.0938 Q106.5625,295.5 107.75,295.5 Q108.4688,295.5 109.0938,295.75 Q109.7188,296 110.25,296.5 Z " fill="#000000"/><text fill="#000000" font-family="sans-serif" font-size="12" lengthAdjust="spacing" textLength="92" x="128.75" y="304.9102">ShipTripStoreDB</text><line style="stroke:#A80036;stroke-width:1.5;" x1="8" x2="309" y1="316" y2="316"/><line style="stroke:#A80036;stroke-width:1.5;" x1="8" x2="309" y1="324" y2="324"/><text fill="#000000" font-family="sans-serif" font-size="11" lengthAdjust="spacing" textLength="291" x="13" y="339.4189">+getShipTripId(databaseConnection, containerId, shipmentId)</text><text fill="#000000" font-family="sans-serif" font-size="11" lengthAdjust="spacing" textLength="221" x="13" y="353.2549">+getLocation(databaseConnection, shipTripId)</text><!--MD5=[02e4b9b7573f1156f41e60aa5b4e25a4]
class Company--><rect codeLine="13" fill="#FEFECE" filter="url(#f1dtih2k77hbwb)" height="75.6719" id="Company" style="stroke:#A80036;stroke-width:1.5;" width="120" x="182.5" y="130"/><ellipse cx="213.25" cy="146" fill="#ADD1B2" rx="11" ry="11" style="stroke:#A80036;stroke-width:1.0;"/><path d="M215.25,142.5 Q215.4531,142 215.6875,141.75 Q215.9219,141.5 216.1875,141.5 Q216.6563,141.5 216.9531,141.7813 Q217.25,142.0625 217.25,142.7188 L217.25,144.2813 Q217.25,144.9375 216.9688,145.2188 Q216.6875,145.5 216.25,145.5 Q215.8594,145.5 215.6094,145.3281 Q215.3594,145.1563 215.25,144.7031 Q215.2031,144.3906 215.0313,144.2188 Q214.7188,143.8906 214.1563,143.7031 Q213.5938,143.5 213.0313,143.5 Q212.3281,143.5 211.7344,143.7813 Q211.1563,144.0625 210.7031,144.6875 Q210.25,145.3125 210.25,146.1719 L210.25,147.0938 Q210.25,148.125 211.0938,148.8125 Q211.9375,149.5 213.4375,149.5 Q214.3281,149.5 214.9531,149.2969 Q215.3125,149.1875 215.7188,148.8281 Q215.9844,148.625 216.125,148.5625 Q216.2656,148.5 216.4375,148.5 Q216.7656,148.5 217,148.7656 Q217.25,149.0156 217.25,149.375 Q217.25,149.7188 216.9063,150.125 Q216.4063,150.7188 215.6094,151.0469 Q214.5625,151.5 213.2813,151.5 Q211.7813,151.5 210.5781,150.9063 Q209.6094,150.4375 208.9219,149.4219 Q208.25,148.4063 208.25,147.2031 L208.25,146.1094 Q208.25,144.8594 208.8438,143.7656 Q209.4531,142.6719 210.5,142.0938 Q211.5625,141.5 212.75,141.5 Q213.4688,141.5 214.0938,141.75 Q214.7188,142 215.25,142.5 Z " fill="#000000"/><text fill="#000000" font-family="sans-serif" font-size="12" lengthAdjust="spacing" textLength="53" x="230.75" y="150.9102">Company</text><line style="stroke:#A80036;stroke-width:1.5;" x1="183.5" x2="301.5" y1="162" y2="162"/><text fill="#000000" font-family="sans-serif" font-size="11" lengthAdjust="spacing" textLength="59" x="188.5" y="177.4189">-designation</text><line style="stroke:#A80036;stroke-width:1.5;" x1="183.5" x2="301.5" y1="183.8359" y2="183.8359"/><text fill="#000000" font-family="sans-serif" font-size="11" lengthAdjust="spacing" textLength="108" x="188.5" y="199.2549">+getShipTripStoreDB()</text><!--MD5=[ca45b280efccc10c294e24981e71b498]
link GetContainerSituationController to Company--><path codeLine="18" d="M185.08,69.01 C194.9,85.77 207.29,106.9 218.04,125.25 " fill="none" id="GetContainerSituationController-to-Company" style="stroke:#A80036;stroke-width:1.0;stroke-dasharray:7.0,7.0;"/><polygon fill="#A80036" points="220.74,129.85,219.6401,120.0627,218.2118,125.5363,212.7382,124.1079,220.74,129.85" style="stroke:#A80036;stroke-width:1.0;"/><!--MD5=[bf42e045cbb12ec40fd35a027f7388e4]
link GetContainerSituationController to ShipTripStoreDB--><path codeLine="19" d="M166.49,69.33 C165.9,87.03 165.15,109.78 164.5,130 C162.86,181.09 161.02,239.87 159.81,278.58 " fill="none" id="GetContainerSituationController-to-ShipTripStoreDB" style="stroke:#A80036;stroke-width:1.0;stroke-dasharray:7.0,7.0;"/><polygon fill="#A80036" points="159.66,283.67,163.9407,274.8001,159.8171,278.6725,155.9447,274.5488,159.66,283.67" style="stroke:#A80036;stroke-width:1.0;"/><!--MD5=[8a472e17fa1b8e6b82718bab5653081a]
link Company to ShipTripStoreDB--><path codeLine="20" d="M221.95,206.18 C208.89,229.83 192.03,260.32 178.98,283.94 " fill="none" id="Company-ShipTripStoreDB" style="stroke:#A80036;stroke-width:1.0;"/><polygon fill="#000000" points="205.0817,249.5521,212.0288,243.0568,206.8842,240.2139,205.0817,249.5521" style="stroke:#000000;stroke-width:1.0;"/><text fill="#000000" font-family="sans-serif" font-size="13" lengthAdjust="spacing" textLength="28" x="216.5" y="250.4951">uses</text><text fill="#000000" font-family="sans-serif" font-size="13" lengthAdjust="spacing" textLength="7" x="211.117" y="227.0892">1</text><text fill="#000000" font-family="sans-serif" font-size="13" lengthAdjust="spacing" textLength="7" x="175.1107" y="273.0055">1</text><!--MD5=[cecd6334d6b738422d0fcee370a9ebe2]
@startuml

skinparam classAttributeIconSize 0

class GetContainerSituationController{
    +getLocation(containerID, shipmentID)
}

class ShipTripStoreDB {
    +getShipTripId(databaseConnection, containerId, shipmentId)
    +getLocation(databaseConnection, shipTripId)
}

class Company {
    -designation
    +getShipTripStoreDB()
}

GetContainerSituationController ..> Company
GetContainerSituationController ..> ShipTripStoreDB
Company "1" - - "1" ShipTripStoreDB : uses >

@enduml

PlantUML version 1.2021.11(Sat Oct 02 14:26:11 BST 2021)
(GPL source distribution)
Java Runtime: OpenJDK Runtime Environment
JVM: OpenJDK 64-Bit Server VM
Default Encoding: Cp1252
Language: pt
Country: PT
--></g></svg>