<?xml version="1.0" encoding="UTF-8" standalone="no"?><svg xmlns="http://www.w3.org/2000/svg" xmlns:xlink="http://www.w3.org/1999/xlink" contentScriptType="application/ecmascript" contentStyleType="text/css" height="515px" preserveAspectRatio="none" style="width:254px;height:515px;background:#FFFFFF;" version="1.1" viewBox="0 0 254 515" width="254px" zoomAndPan="magnify"><defs><filter height="300%" id="f1jderj1rld2r1" width="300%" x="-1" y="-1"><feGaussianBlur result="blurOut" stdDeviation="2.0"/><feColorMatrix in="blurOut" result="blurOut2" type="matrix" values="0 0 0 0 0 0 0 0 0 0 0 0 0 0 0 0 0 0 .4 0"/><feOffset dx="4.0" dy="4.0" in="blurOut2" result="blurOut3"/><feBlend in="SourceGraphic" in2="blurOut3" mode="normal"/></filter></defs><g><!--MD5=[02e4b9b7573f1156f41e60aa5b4e25a4]
class Company--><rect codeLine="7" fill="#FEFECE" filter="url(#f1jderj1rld2r1)" height="53.8359" id="Company" style="stroke:#A80036;stroke-width:1.5;" width="85" x="7" y="7"/><ellipse cx="22" cy="23" fill="#ADD1B2" rx="11" ry="11" style="stroke:#A80036;stroke-width:1.0;"/><path d="M24,19.5 Q24.2031,19 24.4375,18.75 Q24.6719,18.5 24.9375,18.5 Q25.4063,18.5 25.7031,18.7813 Q26,19.0625 26,19.7188 L26,21.2813 Q26,21.9375 25.7188,22.2188 Q25.4375,22.5 25,22.5 Q24.6094,22.5 24.3594,22.3281 Q24.1094,22.1563 24,21.7031 Q23.9531,21.3906 23.7813,21.2188 Q23.4688,20.8906 22.9063,20.7031 Q22.3438,20.5 21.7813,20.5 Q21.0781,20.5 20.4844,20.7813 Q19.9063,21.0625 19.4531,21.6875 Q19,22.3125 19,23.1719 L19,24.0938 Q19,25.125 19.8438,25.8125 Q20.6875,26.5 22.1875,26.5 Q23.0781,26.5 23.7031,26.2969 Q24.0625,26.1875 24.4688,25.8281 Q24.7344,25.625 24.875,25.5625 Q25.0156,25.5 25.1875,25.5 Q25.5156,25.5 25.75,25.7656 Q26,26.0156 26,26.375 Q26,26.7188 25.6563,27.125 Q25.1563,27.7188 24.3594,28.0469 Q23.3125,28.5 22.0313,28.5 Q20.5313,28.5 19.3281,27.9063 Q18.3594,27.4375 17.6719,26.4219 Q17,25.4063 17,24.2031 L17,23.1094 Q17,21.8594 17.5938,20.7656 Q18.2031,19.6719 19.25,19.0938 Q20.3125,18.5 21.5,18.5 Q22.2188,18.5 22.8438,18.75 Q23.4688,19 24,19.5 Z " fill="#000000"/><text fill="#000000" font-family="sans-serif" font-size="12" lengthAdjust="spacing" textLength="53" x="36" y="27.9102">Company</text><line style="stroke:#A80036;stroke-width:1.5;" x1="8" x2="91" y1="39" y2="39"/><text fill="#000000" font-family="sans-serif" font-size="11" lengthAdjust="spacing" textLength="59" x="13" y="54.4189">-designation</text><!--MD5=[074ba6ad47b234bd73d65012320c1634]
class FreightNetwork--><rect codeLine="11" fill="#FEFECE" filter="url(#f1jderj1rld2r1)" height="32" id="FreightNetwork" style="stroke:#A80036;stroke-width:1.5;" width="115" x="59" y="139"/><ellipse cx="74" cy="155" fill="#ADD1B2" rx="11" ry="11" style="stroke:#A80036;stroke-width:1.0;"/><path d="M76,151.5 Q76.2031,151 76.4375,150.75 Q76.6719,150.5 76.9375,150.5 Q77.4063,150.5 77.7031,150.7813 Q78,151.0625 78,151.7188 L78,153.2813 Q78,153.9375 77.7188,154.2188 Q77.4375,154.5 77,154.5 Q76.6094,154.5 76.3594,154.3281 Q76.1094,154.1563 76,153.7031 Q75.9531,153.3906 75.7813,153.2188 Q75.4688,152.8906 74.9063,152.7031 Q74.3438,152.5 73.7813,152.5 Q73.0781,152.5 72.4844,152.7813 Q71.9063,153.0625 71.4531,153.6875 Q71,154.3125 71,155.1719 L71,156.0938 Q71,157.125 71.8438,157.8125 Q72.6875,158.5 74.1875,158.5 Q75.0781,158.5 75.7031,158.2969 Q76.0625,158.1875 76.4688,157.8281 Q76.7344,157.625 76.875,157.5625 Q77.0156,157.5 77.1875,157.5 Q77.5156,157.5 77.75,157.7656 Q78,158.0156 78,158.375 Q78,158.7188 77.6563,159.125 Q77.1563,159.7188 76.3594,160.0469 Q75.3125,160.5 74.0313,160.5 Q72.5313,160.5 71.3281,159.9063 Q70.3594,159.4375 69.6719,158.4219 Q69,157.4063 69,156.2031 L69,155.1094 Q69,153.8594 69.5938,152.7656 Q70.2031,151.6719 71.25,151.0938 Q72.3125,150.5 73.5,150.5 Q74.2188,150.5 74.8438,150.75 Q75.4688,151 76,151.5 Z " fill="#000000"/><text fill="#000000" font-family="sans-serif" font-size="12" lengthAdjust="spacing" textLength="83" x="88" y="159.9102">FreightNetwork</text><!--MD5=[4f1f3706c1a355a8488e154afcaed5df]
class Location--><rect codeLine="13" fill="#FEFECE" filter="url(#f1jderj1rld2r1)" height="81.5078" id="Location" style="stroke:#A80036;stroke-width:1.5;" width="80" x="76.5" y="249"/><ellipse cx="91.95" cy="265" fill="#A9DCDF" rx="11" ry="11" style="stroke:#A80036;stroke-width:1.0;"/><path d="M93.7,266.5 L90.4031,266.5 L89.9656,267.5 L89.9656,267.5 L90.4344,267.5 L90.95,268.125 L90.95,268.5 L90.95,268.875 L90.4344,269.5 L89.9656,269.5 L88.075,269.5 L87.4656,269.5 L86.95,268.875 L86.95,268.5 L86.95,268.125 L87.4656,267.5 L88.075,267.5 L90.3875,261.5 L89.5125,261.5 L88.4656,261.5 L87.95,260.875 L87.95,260.5 L87.95,260.125 L88.4656,259.5 L89.5125,259.5 L93.1844,259.5 L95.8719,267.5 L96.4344,267.5 L96.4344,267.5 L96.95,268.125 L96.95,268.5 L96.95,268.875 L96.4344,269.5 L95.8719,269.5 L93.9813,269.5 L93.4656,269.5 L92.95,268.875 L92.95,268.5 L92.95,268.125 L93.4656,267.5 L93.9813,267.5 L93.9813,267.5 L93.7,266.5 Z M93.1531,264.5 L91.95,260.9219 L90.9188,264.5 L93.1531,264.5 Z " fill="#000000"/><text fill="#000000" font-family="sans-serif" font-size="12" font-style="italic" lengthAdjust="spacing" textLength="47" x="106.05" y="269.9102">Location</text><line style="stroke:#A80036;stroke-width:1.5;" x1="77.5" x2="155.5" y1="281" y2="281"/><text fill="#000000" font-family="sans-serif" font-size="11" lengthAdjust="spacing" textLength="38" x="82.5" y="296.4189">-latitude</text><text fill="#000000" font-family="sans-serif" font-size="11" lengthAdjust="spacing" textLength="47" x="82.5" y="310.2549">-longitude</text><text fill="#000000" font-family="sans-serif" font-size="11" lengthAdjust="spacing" textLength="68" x="82.5" y="324.0908">-countryName</text><!--MD5=[a0bfe97ac0a38e6e74cc1c7c7b744b71]
class Port--><rect codeLine="19" fill="#FEFECE" filter="url(#f1jderj1rld2r1)" height="95.3438" id="Port" style="stroke:#A80036;stroke-width:1.5;" width="92" x="12.5" y="399"/><ellipse cx="44.6" cy="415" fill="#ADD1B2" rx="11" ry="11" style="stroke:#A80036;stroke-width:1.0;"/><path d="M46.6,411.5 Q46.8031,411 47.0375,410.75 Q47.2719,410.5 47.5375,410.5 Q48.0063,410.5 48.3031,410.7813 Q48.6,411.0625 48.6,411.7188 L48.6,413.2813 Q48.6,413.9375 48.3188,414.2188 Q48.0375,414.5 47.6,414.5 Q47.2094,414.5 46.9594,414.3281 Q46.7094,414.1563 46.6,413.7031 Q46.5531,413.3906 46.3813,413.2188 Q46.0688,412.8906 45.5063,412.7031 Q44.9438,412.5 44.3813,412.5 Q43.6781,412.5 43.0844,412.7813 Q42.5063,413.0625 42.0531,413.6875 Q41.6,414.3125 41.6,415.1719 L41.6,416.0938 Q41.6,417.125 42.4438,417.8125 Q43.2875,418.5 44.7875,418.5 Q45.6781,418.5 46.3031,418.2969 Q46.6625,418.1875 47.0688,417.8281 Q47.3344,417.625 47.475,417.5625 Q47.6156,417.5 47.7875,417.5 Q48.1156,417.5 48.35,417.7656 Q48.6,418.0156 48.6,418.375 Q48.6,418.7188 48.2563,419.125 Q47.7563,419.7188 46.9594,420.0469 Q45.9125,420.5 44.6313,420.5 Q43.1313,420.5 41.9281,419.9063 Q40.9594,419.4375 40.2719,418.4219 Q39.6,417.4063 39.6,416.2031 L39.6,415.1094 Q39.6,413.8594 40.1938,412.7656 Q40.8031,411.6719 41.85,411.0938 Q42.9125,410.5 44.1,410.5 Q44.8188,410.5 45.4438,410.75 Q46.0688,411 46.6,411.5 Z " fill="#000000"/><text fill="#000000" font-family="sans-serif" font-size="12" lengthAdjust="spacing" textLength="22" x="62.4" y="419.9102">Port</text><line style="stroke:#A80036;stroke-width:1.5;" x1="13.5" x2="103.5" y1="431" y2="431"/><text fill="#000000" font-family="sans-serif" font-size="11" lengthAdjust="spacing" textLength="64" x="18.5" y="446.4189">-identification</text><text fill="#000000" font-family="sans-serif" font-size="11" lengthAdjust="spacing" textLength="30" x="18.5" y="460.2549">-name</text><text fill="#000000" font-family="sans-serif" font-size="11" lengthAdjust="spacing" textLength="48" x="18.5" y="474.0908">-continent</text><text fill="#000000" font-family="sans-serif" font-size="11" lengthAdjust="spacing" textLength="80" x="18.5" y="487.9268">-toPortsDistance</text><!--MD5=[ea8f20dfdca176213da526d9b557babf]
class Capital--><rect codeLine="26" fill="#FEFECE" filter="url(#f1jderj1rld2r1)" height="109.1797" id="Capital" style="stroke:#A80036;stroke-width:1.5;" width="71" x="140" y="392"/><ellipse cx="155" cy="408" fill="#ADD1B2" rx="11" ry="11" style="stroke:#A80036;stroke-width:1.0;"/><path d="M157,404.5 Q157.2031,404 157.4375,403.75 Q157.6719,403.5 157.9375,403.5 Q158.4063,403.5 158.7031,403.7813 Q159,404.0625 159,404.7188 L159,406.2813 Q159,406.9375 158.7188,407.2188 Q158.4375,407.5 158,407.5 Q157.6094,407.5 157.3594,407.3281 Q157.1094,407.1563 157,406.7031 Q156.9531,406.3906 156.7813,406.2188 Q156.4688,405.8906 155.9063,405.7031 Q155.3438,405.5 154.7813,405.5 Q154.0781,405.5 153.4844,405.7813 Q152.9063,406.0625 152.4531,406.6875 Q152,407.3125 152,408.1719 L152,409.0938 Q152,410.125 152.8438,410.8125 Q153.6875,411.5 155.1875,411.5 Q156.0781,411.5 156.7031,411.2969 Q157.0625,411.1875 157.4688,410.8281 Q157.7344,410.625 157.875,410.5625 Q158.0156,410.5 158.1875,410.5 Q158.5156,410.5 158.75,410.7656 Q159,411.0156 159,411.375 Q159,411.7188 158.6563,412.125 Q158.1563,412.7188 157.3594,413.0469 Q156.3125,413.5 155.0313,413.5 Q153.5313,413.5 152.3281,412.9063 Q151.3594,412.4375 150.6719,411.4219 Q150,410.4063 150,409.2031 L150,408.1094 Q150,406.8594 150.5938,405.7656 Q151.2031,404.6719 152.25,404.0938 Q153.3125,403.5 154.5,403.5 Q155.2188,403.5 155.8438,403.75 Q156.4688,404 157,404.5 Z " fill="#000000"/><text fill="#000000" font-family="sans-serif" font-size="12" lengthAdjust="spacing" textLength="39" x="169" y="412.9102">Capital</text><line style="stroke:#A80036;stroke-width:1.5;" x1="141" x2="210" y1="424" y2="424"/><text fill="#000000" font-family="sans-serif" font-size="11" lengthAdjust="spacing" textLength="30" x="146" y="439.4189">-name</text><text fill="#000000" font-family="sans-serif" font-size="11" lengthAdjust="spacing" textLength="38" x="146" y="453.2549">-latitude</text><text fill="#000000" font-family="sans-serif" font-size="11" lengthAdjust="spacing" textLength="47" x="146" y="467.0908">-longitude</text><text fill="#000000" font-family="sans-serif" font-size="11" lengthAdjust="spacing" textLength="41" x="146" y="480.9268">-country</text><text fill="#000000" font-family="sans-serif" font-size="11" lengthAdjust="spacing" textLength="48" x="146" y="494.7627">-continent</text><!--MD5=[ddaf6f62b0bc30921877ec9fb9463c9f]
class TrafficManager--><rect codeLine="37" fill="#FEFECE" filter="url(#f1jderj1rld2r1)" height="32" id="TrafficManager" style="stroke:#A80036;stroke-width:1.5;" width="113" x="127" y="18"/><ellipse cx="142" cy="34" fill="#ADD1B2" rx="11" ry="11" style="stroke:#A80036;stroke-width:1.0;"/><path d="M144,30.5 Q144.2031,30 144.4375,29.75 Q144.6719,29.5 144.9375,29.5 Q145.4063,29.5 145.7031,29.7813 Q146,30.0625 146,30.7188 L146,32.2813 Q146,32.9375 145.7188,33.2188 Q145.4375,33.5 145,33.5 Q144.6094,33.5 144.3594,33.3281 Q144.1094,33.1563 144,32.7031 Q143.9531,32.3906 143.7813,32.2188 Q143.4688,31.8906 142.9063,31.7031 Q142.3438,31.5 141.7813,31.5 Q141.0781,31.5 140.4844,31.7813 Q139.9063,32.0625 139.4531,32.6875 Q139,33.3125 139,34.1719 L139,35.0938 Q139,36.125 139.8438,36.8125 Q140.6875,37.5 142.1875,37.5 Q143.0781,37.5 143.7031,37.2969 Q144.0625,37.1875 144.4688,36.8281 Q144.7344,36.625 144.875,36.5625 Q145.0156,36.5 145.1875,36.5 Q145.5156,36.5 145.75,36.7656 Q146,37.0156 146,37.375 Q146,37.7188 145.6563,38.125 Q145.1563,38.7188 144.3594,39.0469 Q143.3125,39.5 142.0313,39.5 Q140.5313,39.5 139.3281,38.9063 Q138.3594,38.4375 137.6719,37.4219 Q137,36.4063 137,35.2031 L137,34.1094 Q137,32.8594 137.5938,31.7656 Q138.2031,30.6719 139.25,30.0938 Q140.3125,29.5 141.5,29.5 Q142.2188,29.5 142.8438,29.75 Q143.4688,30 144,30.5 Z " fill="#000000"/><text fill="#000000" font-family="sans-serif" font-size="12" lengthAdjust="spacing" textLength="81" x="156" y="38.9102">TrafficManager</text><!--MD5=[e359b474b5bea3d5e0a05d5f38acf6c5]
link Company to FreightNetwork--><path codeLine="42" d="M62.77,61.28 C70.11,75.53 79.54,93.38 88.5,109 C94.27,119.06 101.14,130.11 106.63,138.75 " fill="none" id="Company-FreightNetwork" style="stroke:#A80036;stroke-width:1.0;"/><polygon fill="#000000" points="95.9634,104.5268,94.0646,95.2078,88.9496,98.1036,95.9634,104.5268" style="stroke:#000000;stroke-width:1.0;"/><text fill="#000000" font-family="sans-serif" font-size="13" lengthAdjust="spacing" textLength="37" x="102.5" y="105.4951">knows</text><text fill="#000000" font-family="sans-serif" font-size="13" lengthAdjust="spacing" textLength="7" x="57.9072" y="82.549">1</text><text fill="#000000" font-family="sans-serif" font-size="13" lengthAdjust="spacing" textLength="7" x="95.2012" y="128.2705">1</text><!--MD5=[e37e8e3161027a4df85a8c5d819b551a]
reverse link Location to Port--><path codeLine="43" d="M94.3,350.14 C88.23,366.31 81.74,383.59 75.98,398.94 " fill="none" id="Location-backto-Port" style="stroke:#A80036;stroke-width:1.0;"/><polygon fill="none" points="87.83,347.45,101.41,331.19,100.94,352.37,87.83,347.45" style="stroke:#A80036;stroke-width:1.0;"/><!--MD5=[bd392566c8a46ea25d805713a18e8e2e]
link FreightNetwork to Location--><path codeLine="44" d="M116.5,171.26 C116.5,190.02 116.5,222.6 116.5,248.73 " fill="none" id="FreightNetwork-Location" style="stroke:#A80036;stroke-width:1.0;"/><polygon fill="#000000" points="121.5,215.1758,124.4389,206.1307,118.5611,206.1307,121.5,215.1758" style="stroke:#000000;stroke-width:1.0;"/><text fill="#000000" font-family="sans-serif" font-size="13" lengthAdjust="spacing" textLength="10" x="130.5" y="215.4951">of</text><text fill="#000000" font-family="sans-serif" font-size="13" lengthAdjust="spacing" textLength="5" x="110.7031" y="192.544">*</text><text fill="#000000" font-family="sans-serif" font-size="13" lengthAdjust="spacing" textLength="20" x="94.8438" y="238.1346">1..*</text><!--MD5=[92bb40e0190d7818911610b8d81cdb79]
link TrafficManager to FreightNetwork--><path codeLine="46" d="M175.89,50.19 C168.25,65.28 155.99,88.97 144.5,109 C138.73,119.06 131.86,130.11 126.37,138.75 " fill="none" id="TrafficManager-FreightNetwork" style="stroke:#A80036;stroke-width:1.0;"/><polygon fill="#000000" points="155.0597,104.5399,162.0393,98.0795,156.9091,95.2108,155.0597,104.5399" style="stroke:#000000;stroke-width:1.0;"/><text fill="#000000" font-family="sans-serif" font-size="13" lengthAdjust="spacing" textLength="53" x="166.5" y="105.4951">manages</text><text fill="#000000" font-family="sans-serif" font-size="13" lengthAdjust="spacing" textLength="20" x="150.2768" y="71.4517">1..*</text><text fill="#000000" font-family="sans-serif" font-size="13" lengthAdjust="spacing" textLength="7" x="121.4801" y="128.2705">1</text><!--MD5=[656cf771635bff60a827e8d62d536357]
reverse link Location to Capital--><path codeLine="47" d="M139,349.92 C144.26,363.7 149.84,378.3 155.01,391.84 " fill="none" id="Location-backto-Capital" style="stroke:#A80036;stroke-width:1.0;"/><polygon fill="none" points="132.44,352.37,131.85,331.19,145.52,347.38,132.44,352.37" style="stroke:#A80036;stroke-width:1.0;"/><!--MD5=[0204934e8de2a55238b99fd3f193a273]
@startuml
'https://plantuml.com/class-diagram

skinparam classAttributeIconSize 0
hide empty methods
hide empty attributes

class Company {
    -designation
}

class FreightNetwork {}

abstract class Location{
    -latitude
    -longitude
    -countryName
}

class Port {
    -identification
    -name
    -continent
    -toPortsDistance
}

class Capital{
    -name
    -latitude
    -longitude
    -country
    -continent
}




class TrafficManager {}



/'Multiplicidade'/
Company "1" - - "1" FreightNetwork : knows >
Location <|- - Port
FreightNetwork "*" - - "1..*" Location : of >
/'Dúvidas'/
TrafficManager "1..*" - - "1" FreightNetwork : manages >
Location <|- - Capital

@enduml

@startuml

skinparam classAttributeIconSize 0
hide empty methods
hide empty attributes

class Company {
    -designation
}

class FreightNetwork {}

abstract class Location{
    -latitude
    -longitude
    -countryName
}

class Port {
    -identification
    -name
    -continent
    -toPortsDistance
}

class Capital{
    -name
    -latitude
    -longitude
    -country
    -continent
}




class TrafficManager {}



Company "1" - - "1" FreightNetwork : knows >
Location <|- - Port
FreightNetwork "*" - - "1..*" Location : of >
TrafficManager "1..*" - - "1" FreightNetwork : manages >
Location <|- - Capital

@enduml

PlantUML version 1.2021.11(Sat Oct 02 14:26:11 BST 2021)
(GPL source distribution)
Java Runtime: OpenJDK Runtime Environment
JVM: OpenJDK 64-Bit Server VM
Default Encoding: Cp1252
Language: pt
Country: PT
--></g></svg>