<?xml version="1.0" encoding="UTF-8" standalone="no"?><svg xmlns="http://www.w3.org/2000/svg" xmlns:xlink="http://www.w3.org/1999/xlink" contentScriptType="application/ecmascript" contentStyleType="text/css" height="749px" preserveAspectRatio="none" style="width:1178px;height:749px;background:#FFFFFF;" version="1.1" viewBox="0 0 1178 749" width="1178px" zoomAndPan="magnify"><defs><filter height="300%" id="fb1wxkvaf9u76" width="300%" x="-1" y="-1"><feGaussianBlur result="blurOut" stdDeviation="2.0"/><feColorMatrix in="blurOut" result="blurOut2" type="matrix" values="0 0 0 0 0 0 0 0 0 0 0 0 0 0 0 0 0 0 .4 0"/><feOffset dx="4.0" dy="4.0" in="blurOut2" result="blurOut3"/><feBlend in="SourceGraphic" in2="blurOut3" mode="normal"/></filter></defs><g><rect fill="#FFFFFF" filter="url(#fb1wxkvaf9u76)" height="545.9219" style="stroke:#A80036;stroke-width:1.0;" width="10" x="51" y="99.6094"/><rect fill="#FFFFFF" filter="url(#fb1wxkvaf9u76)" height="523.5703" style="stroke:#A80036;stroke-width:1.0;" width="10" x="392" y="121.9609"/><rect fill="#FFFFFF" filter="url(#fb1wxkvaf9u76)" height="502.2188" style="stroke:#A80036;stroke-width:1.0;" width="10" x="577" y="152.3125"/><rect fill="#FFFFFF" filter="url(#fb1wxkvaf9u76)" height="30" style="stroke:#A80036;stroke-width:1.0;" width="10" x="828" y="182.6641"/><rect fill="#FFFFFF" filter="url(#fb1wxkvaf9u76)" height="341.8125" style="stroke:#A80036;stroke-width:1.0;" width="10" x="933.5" y="243.0156"/><rect fill="#FFFFFF" filter="url(#fb1wxkvaf9u76)" height="30" style="stroke:#A80036;stroke-width:1.0;" width="10" x="1134.5" y="316.7188"/><rect fill="#FFFFFF" filter="url(#fb1wxkvaf9u76)" height="30.3516" style="stroke:#A80036;stroke-width:1.0;" width="10" x="1134.5" y="420.4219"/><rect fill="#FFFFFF" filter="url(#fb1wxkvaf9u76)" height="30" style="stroke:#A80036;stroke-width:1.0;" width="10" x="1134.5" y="524.4766"/><line style="stroke:#A80036;stroke-width:1.0;stroke-dasharray:5.0,5.0;" x1="56" x2="56" y1="89.6094" y2="663.5313"/><line style="stroke:#A80036;stroke-width:1.0;stroke-dasharray:5.0,5.0;" x1="397" x2="397" y1="89.6094" y2="663.5313"/><line style="stroke:#A80036;stroke-width:1.0;stroke-dasharray:5.0,5.0;" x1="582" x2="582" y1="89.6094" y2="663.5313"/><line style="stroke:#A80036;stroke-width:1.0;stroke-dasharray:5.0,5.0;" x1="833" x2="833" y1="89.6094" y2="663.5313"/><line style="stroke:#A80036;stroke-width:1.0;stroke-dasharray:5.0,5.0;" x1="938" x2="938" y1="89.6094" y2="663.5313"/><line style="stroke:#A80036;stroke-width:1.0;stroke-dasharray:5.0,5.0;" x1="1139.5" x2="1139.5" y1="89.6094" y2="663.5313"/><text fill="#000000" font-family="sans-serif" font-size="14" lengthAdjust="spacing" textLength="96" x="5" y="86.5332">TrafficManager</text><ellipse cx="56" cy="15" fill="#FEFECE" filter="url(#fb1wxkvaf9u76)" rx="8" ry="8" style="stroke:#A80036;stroke-width:2.0;"/><path d="M56,23 L56,50 M43,31 L69,31 M56,50 L43,65 M56,50 L69,65 " fill="none" filter="url(#fb1wxkvaf9u76)" style="stroke:#A80036;stroke-width:2.0;"/><text fill="#000000" font-family="sans-serif" font-size="14" lengthAdjust="spacing" textLength="96" x="5" y="677.0645">TrafficManager</text><ellipse cx="56" cy="690.1406" fill="#FEFECE" filter="url(#fb1wxkvaf9u76)" rx="8" ry="8" style="stroke:#A80036;stroke-width:2.0;"/><path d="M56,698.1406 L56,725.1406 M43,706.1406 L69,706.1406 M56,725.1406 L43,740.1406 M56,725.1406 L69,740.1406 " fill="none" filter="url(#fb1wxkvaf9u76)" style="stroke:#A80036;stroke-width:2.0;"/><rect fill="#FEFECE" filter="url(#fb1wxkvaf9u76)" height="31.6094" style="stroke:#A80036;stroke-width:1.5;" width="146" x="322" y="53"/><text fill="#000000" font-family="sans-serif" font-size="14" lengthAdjust="spacing" textLength="132" x="329" y="74.5332">MostEfficientCircuitUI</text><rect fill="#FEFECE" filter="url(#fb1wxkvaf9u76)" height="31.6094" style="stroke:#A80036;stroke-width:1.5;" width="146" x="322" y="662.5313"/><text fill="#000000" font-family="sans-serif" font-size="14" lengthAdjust="spacing" textLength="132" x="329" y="684.0645">MostEfficientCircuitUI</text><rect fill="#FEFECE" filter="url(#fb1wxkvaf9u76)" height="31.6094" style="stroke:#A80036;stroke-width:1.5;" width="196" x="482" y="53"/><text fill="#000000" font-family="sans-serif" font-size="14" lengthAdjust="spacing" textLength="182" x="489" y="74.5332">MostEfficientCircuitController</text><rect fill="#FEFECE" filter="url(#fb1wxkvaf9u76)" height="31.6094" style="stroke:#A80036;stroke-width:1.5;" width="196" x="482" y="662.5313"/><text fill="#000000" font-family="sans-serif" font-size="14" lengthAdjust="spacing" textLength="182" x="489" y="684.0645">MostEfficientCircuitController</text><rect fill="#FEFECE" filter="url(#fb1wxkvaf9u76)" height="31.6094" style="stroke:#A80036;stroke-width:1.5;" width="74" x="794" y="53"/><text fill="#000000" font-family="sans-serif" font-size="14" lengthAdjust="spacing" textLength="60" x="801" y="74.5332">Company</text><rect fill="#FEFECE" filter="url(#fb1wxkvaf9u76)" height="31.6094" style="stroke:#A80036;stroke-width:1.5;" width="74" x="794" y="662.5313"/><text fill="#000000" font-family="sans-serif" font-size="14" lengthAdjust="spacing" textLength="60" x="801" y="684.0645">Company</text><rect fill="#FEFECE" filter="url(#fb1wxkvaf9u76)" height="49.2188" style="stroke:#A80036;stroke-width:1.5;" width="109" x="882" y="35.3906"/><text fill="#000000" font-family="sans-serif" font-size="14" lengthAdjust="spacing" textLength="94" x="889.5" y="56.9238">freightNetwork:</text><text fill="#000000" font-family="sans-serif" font-size="14" lengthAdjust="spacing" textLength="95" x="889" y="74.5332">FreightNetwork</text><rect fill="#FEFECE" filter="url(#fb1wxkvaf9u76)" height="49.2188" style="stroke:#A80036;stroke-width:1.5;" width="109" x="882" y="662.5313"/><text fill="#000000" font-family="sans-serif" font-size="14" lengthAdjust="spacing" textLength="94" x="889.5" y="684.0645">freightNetwork:</text><text fill="#000000" font-family="sans-serif" font-size="14" lengthAdjust="spacing" textLength="95" x="889" y="701.6738">FreightNetwork</text><rect fill="#FEFECE" filter="url(#fb1wxkvaf9u76)" height="31.6094" style="stroke:#A80036;stroke-width:1.5;" width="54" x="1110.5" y="53"/><text fill="#000000" font-family="sans-serif" font-size="14" lengthAdjust="spacing" textLength="40" x="1117.5" y="74.5332">Graph</text><rect fill="#FEFECE" filter="url(#fb1wxkvaf9u76)" height="31.6094" style="stroke:#A80036;stroke-width:1.5;" width="54" x="1110.5" y="662.5313"/><text fill="#000000" font-family="sans-serif" font-size="14" lengthAdjust="spacing" textLength="40" x="1117.5" y="684.0645">Graph</text><rect fill="#FFFFFF" filter="url(#fb1wxkvaf9u76)" height="545.9219" style="stroke:#A80036;stroke-width:1.0;" width="10" x="51" y="99.6094"/><rect fill="#FFFFFF" filter="url(#fb1wxkvaf9u76)" height="523.5703" style="stroke:#A80036;stroke-width:1.0;" width="10" x="392" y="121.9609"/><rect fill="#FFFFFF" filter="url(#fb1wxkvaf9u76)" height="502.2188" style="stroke:#A80036;stroke-width:1.0;" width="10" x="577" y="152.3125"/><rect fill="#FFFFFF" filter="url(#fb1wxkvaf9u76)" height="30" style="stroke:#A80036;stroke-width:1.0;" width="10" x="828" y="182.6641"/><rect fill="#FFFFFF" filter="url(#fb1wxkvaf9u76)" height="341.8125" style="stroke:#A80036;stroke-width:1.0;" width="10" x="933.5" y="243.0156"/><rect fill="#FFFFFF" filter="url(#fb1wxkvaf9u76)" height="30" style="stroke:#A80036;stroke-width:1.0;" width="10" x="1134.5" y="316.7188"/><rect fill="#FFFFFF" filter="url(#fb1wxkvaf9u76)" height="30.3516" style="stroke:#A80036;stroke-width:1.0;" width="10" x="1134.5" y="420.4219"/><rect fill="#FFFFFF" filter="url(#fb1wxkvaf9u76)" height="30" style="stroke:#A80036;stroke-width:1.0;" width="10" x="1134.5" y="524.4766"/><polygon fill="#A80036" points="380,117.9609,390,121.9609,380,125.9609,384,121.9609" style="stroke:#A80036;stroke-width:1.0;"/><line style="stroke:#A80036;stroke-width:1.0;" x1="61" x2="386" y1="121.9609" y2="121.9609"/><text fill="#000000" font-family="sans-serif" font-size="13" font-weight="bold" lengthAdjust="spacing" textLength="7" x="68" y="117.1045">1</text><text fill="#000000" font-family="sans-serif" font-size="13" lengthAdjust="spacing" textLength="207" x="79" y="117.1045">asks to get the most efficient circuit</text><polygon fill="#A80036" points="565,148.3125,575,152.3125,565,156.3125,569,152.3125" style="stroke:#A80036;stroke-width:1.0;"/><line style="stroke:#A80036;stroke-width:1.0;" x1="402" x2="571" y1="152.3125" y2="152.3125"/><text fill="#000000" font-family="sans-serif" font-size="13" font-weight="bold" lengthAdjust="spacing" textLength="7" x="409" y="147.4561">2</text><text fill="#000000" font-family="sans-serif" font-size="13" lengthAdjust="spacing" textLength="138" x="420" y="147.4561">getMostEfficientCircuit()</text><polygon fill="#A80036" points="816,178.6641,826,182.6641,816,186.6641,820,182.6641" style="stroke:#A80036;stroke-width:1.0;"/><line style="stroke:#A80036;stroke-width:1.0;" x1="587" x2="822" y1="182.6641" y2="182.6641"/><text fill="#000000" font-family="sans-serif" font-size="13" font-weight="bold" lengthAdjust="spacing" textLength="7" x="594" y="177.8076">3</text><text fill="#000000" font-family="sans-serif" font-size="13" lengthAdjust="spacing" textLength="211" x="605" y="177.8076">freightNetwork = getFreightNetwork()</text><polygon fill="#A80036" points="921.5,239.0156,931.5,243.0156,921.5,247.0156,925.5,243.0156" style="stroke:#A80036;stroke-width:1.0;"/><line style="stroke:#A80036;stroke-width:1.0;" x1="587" x2="927.5" y1="243.0156" y2="243.0156"/><text fill="#000000" font-family="sans-serif" font-size="13" font-weight="bold" lengthAdjust="spacing" textLength="7" x="594" y="238.1592">4</text><text fill="#000000" font-family="sans-serif" font-size="13" lengthAdjust="spacing" textLength="240" x="605" y="238.1592">circuitMap = getTotalDistanceMinorCost()</text><line style="stroke:#A80036;stroke-width:1.0;" x1="943.5" x2="985.5" y1="273.3672" y2="273.3672"/><line style="stroke:#A80036;stroke-width:1.0;" x1="985.5" x2="985.5" y1="273.3672" y2="286.3672"/><line style="stroke:#A80036;stroke-width:1.0;" x1="944.5" x2="985.5" y1="286.3672" y2="286.3672"/><polygon fill="#A80036" points="954.5,282.3672,944.5,286.3672,954.5,290.3672,950.5,286.3672" style="stroke:#A80036;stroke-width:1.0;"/><text fill="#000000" font-family="sans-serif" font-size="13" font-weight="bold" lengthAdjust="spacing" textLength="7" x="950.5" y="268.5107">5</text><text fill="#000000" font-family="sans-serif" font-size="13" lengthAdjust="spacing" textLength="166" x="961.5" y="268.5107">getAllCircuitsAndDistances()</text><polygon fill="#A80036" points="1122.5,312.7188,1132.5,316.7188,1122.5,320.7188,1126.5,316.7188" style="stroke:#A80036;stroke-width:1.0;"/><line style="stroke:#A80036;stroke-width:1.0;" x1="943.5" x2="1128.5" y1="316.7188" y2="316.7188"/><text fill="#000000" font-family="sans-serif" font-size="13" font-weight="bold" lengthAdjust="spacing" textLength="7" x="950.5" y="311.8623">6</text><text fill="#000000" font-family="sans-serif" font-size="13" lengthAdjust="spacing" textLength="52" x="961.5" y="311.8623">vertices()</text><line style="stroke:#A80036;stroke-width:1.0;" x1="943.5" x2="985.5" y1="377.0703" y2="377.0703"/><line style="stroke:#A80036;stroke-width:1.0;" x1="985.5" x2="985.5" y1="377.0703" y2="390.0703"/><line style="stroke:#A80036;stroke-width:1.0;" x1="944.5" x2="985.5" y1="390.0703" y2="390.0703"/><polygon fill="#A80036" points="954.5,386.0703,944.5,390.0703,954.5,394.0703,950.5,390.0703" style="stroke:#A80036;stroke-width:1.0;"/><text fill="#000000" font-family="sans-serif" font-size="13" font-weight="bold" lengthAdjust="spacing" textLength="7" x="950.5" y="372.2139">7</text><text fill="#000000" font-family="sans-serif" font-size="13" lengthAdjust="spacing" textLength="144" x="961.5" y="372.2139">getCircuitsAndDistance()</text><polygon fill="#A80036" points="1122.5,416.4219,1132.5,420.4219,1122.5,424.4219,1126.5,420.4219" style="stroke:#A80036;stroke-width:1.0;"/><line style="stroke:#A80036;stroke-width:1.0;" x1="943.5" x2="1128.5" y1="420.4219" y2="420.4219"/><text fill="#000000" font-family="sans-serif" font-size="13" font-weight="bold" lengthAdjust="spacing" textLength="7" x="950.5" y="415.5654">8</text><text fill="#000000" font-family="sans-serif" font-size="13" lengthAdjust="spacing" textLength="73" x="961.5" y="415.5654">adjVertices()</text><polygon fill="#A80036" points="1127.5,446.7734,1137.5,450.7734,1127.5,454.7734,1131.5,450.7734" style="stroke:#A80036;stroke-width:1.0;"/><line style="stroke:#A80036;stroke-width:1.0;" x1="943.5" x2="1133.5" y1="450.7734" y2="450.7734"/><text fill="#000000" font-family="sans-serif" font-size="13" font-weight="bold" lengthAdjust="spacing" textLength="7" x="950.5" y="445.917">9</text><text fill="#000000" font-family="sans-serif" font-size="13" lengthAdjust="spacing" textLength="36" x="961.5" y="445.917">edge()</text><line style="stroke:#A80036;stroke-width:1.0;" x1="943.5" x2="985.5" y1="481.125" y2="481.125"/><line style="stroke:#A80036;stroke-width:1.0;" x1="985.5" x2="985.5" y1="481.125" y2="494.125"/><line style="stroke:#A80036;stroke-width:1.0;" x1="944.5" x2="985.5" y1="494.125" y2="494.125"/><polygon fill="#A80036" points="954.5,490.125,944.5,494.125,954.5,498.125,950.5,494.125" style="stroke:#A80036;stroke-width:1.0;"/><text fill="#000000" font-family="sans-serif" font-size="13" font-weight="bold" lengthAdjust="spacing" textLength="14" x="950.5" y="476.2686">10</text><text fill="#000000" font-family="sans-serif" font-size="13" lengthAdjust="spacing" textLength="80" x="968.5" y="476.2686">checkCircuit()</text><polygon fill="#A80036" points="1122.5,520.4766,1132.5,524.4766,1122.5,528.4766,1126.5,524.4766" style="stroke:#A80036;stroke-width:1.0;"/><line style="stroke:#A80036;stroke-width:1.0;" x1="943.5" x2="1128.5" y1="524.4766" y2="524.4766"/><text fill="#000000" font-family="sans-serif" font-size="13" font-weight="bold" lengthAdjust="spacing" textLength="14" x="950.5" y="519.6201">11</text><text fill="#000000" font-family="sans-serif" font-size="13" lengthAdjust="spacing" textLength="36" x="968.5" y="519.6201">edge()</text><polygon fill="#A80036" points="598,580.8281,588,584.8281,598,588.8281,594,584.8281" style="stroke:#A80036;stroke-width:1.0;"/><line style="stroke:#A80036;stroke-width:1.0;" x1="592" x2="937.5" y1="584.8281" y2="584.8281"/><text fill="#000000" font-family="sans-serif" font-size="13" font-weight="bold" lengthAdjust="spacing" textLength="14" x="604" y="579.9717">12</text><text fill="#000000" font-family="sans-serif" font-size="13" lengthAdjust="spacing" textLength="60" x="622" y="579.9717">circuitMap</text><polygon fill="#A80036" points="413,611.1797,403,615.1797,413,619.1797,409,615.1797" style="stroke:#A80036;stroke-width:1.0;"/><line style="stroke:#A80036;stroke-width:1.0;stroke-dasharray:2.0,2.0;" x1="407" x2="576" y1="615.1797" y2="615.1797"/><text fill="#000000" font-family="sans-serif" font-size="13" font-weight="bold" lengthAdjust="spacing" textLength="14" x="419" y="610.3232">13</text><text fill="#000000" font-family="sans-serif" font-size="13" lengthAdjust="spacing" textLength="70" x="437" y="610.3232">centralPorts</text><polygon fill="#A80036" points="67,641.5313,57,645.5313,67,649.5313,63,645.5313" style="stroke:#A80036;stroke-width:1.0;"/><line style="stroke:#A80036;stroke-width:1.0;stroke-dasharray:2.0,2.0;" x1="61" x2="396" y1="645.5313" y2="645.5313"/><text fill="#000000" font-family="sans-serif" font-size="13" font-weight="bold" lengthAdjust="spacing" textLength="14" x="73" y="640.6748">14</text><text fill="#000000" font-family="sans-serif" font-size="13" lengthAdjust="spacing" textLength="289" x="91" y="640.6748">returns the most efficient circuit and total distance</text><!--MD5=[0034cc35714947d83067234da3c873f8]
@startuml

autonumber
actor TrafficManager as C
participant "MostEfficientCircuitUI" as UI
participant "MostEfficientCircuitController" as CTRL
participant "Company" as COMPANY
participant "freightNetwork:\nFreightNetwork" as NET
participant "Graph" as GRAPH

activate C
C -> UI : asks to get the most efficient circuit
activate UI
UI -> CTRL : getMostEfficientCircuit()
activate CTRL
CTRL -> COMPANY : freightNetwork = getFreightNetwork()
activate COMPANY
deactivate COMPANY
CTRL -> NET : circuitMap = getTotalDistanceMinorCost()
activate NET
NET -> NET : getAllCircuitsAndDistances()
NET -> GRAPH : vertices()
activate GRAPH
deactivate GRAPH
NET -> NET : getCircuitsAndDistance()
NET -> GRAPH : adjVertices()
activate GRAPH
NET -> GRAPH : edge()
deactivate GRAPH
NET -> NET : checkCircuit()
NET -> GRAPH : edge()
activate GRAPH
deactivate GRAPH

NET -> CTRL : circuitMap
deactivate NET
CTRL - -> UI : centralPorts

UI - -> C : returns the most efficient circuit and total distance
deactivate UI

deactivate C


@enduml

PlantUML version 1.2021.11(Sat Oct 02 14:26:11 BST 2021)
(GPL source distribution)
Java Runtime: OpenJDK Runtime Environment
JVM: OpenJDK 64-Bit Server VM
Default Encoding: Cp1252
Language: pt
Country: PT
--></g></svg>