<?xml version="1.0" encoding="UTF-8" standalone="no"?><svg xmlns="http://www.w3.org/2000/svg" xmlns:xlink="http://www.w3.org/1999/xlink" contentScriptType="application/ecmascript" contentStyleType="text/css" height="733px" preserveAspectRatio="none" style="width:393px;height:733px;background:#FFFFFF;" version="1.1" viewBox="0 0 393 733" width="393px" zoomAndPan="magnify"><defs><filter height="300%" id="f1f8p8rmt268q1" width="300%" x="-1" y="-1"><feGaussianBlur result="blurOut" stdDeviation="2.0"/><feColorMatrix in="blurOut" result="blurOut2" type="matrix" values="0 0 0 0 0 0 0 0 0 0 0 0 0 0 0 0 0 0 .4 0"/><feOffset dx="4.0" dy="4.0" in="blurOut2" result="blurOut3"/><feBlend in="SourceGraphic" in2="blurOut3" mode="normal"/></filter></defs><g><!--MD5=[82b452ac5d89fed3c3bddab4a88118e6]
class MostEfficientCircuitController--><rect codeLine="4" fill="#FEFECE" filter="url(#f1f8p8rmt268q1)" height="61.8359" id="MostEfficientCircuitController" style="stroke:#A80036;stroke-width:1.5;" width="190" x="176" y="7"/><ellipse cx="191" cy="23" fill="#ADD1B2" rx="11" ry="11" style="stroke:#A80036;stroke-width:1.0;"/><path d="M193,19.5 Q193.2031,19 193.4375,18.75 Q193.6719,18.5 193.9375,18.5 Q194.4063,18.5 194.7031,18.7813 Q195,19.0625 195,19.7188 L195,21.2813 Q195,21.9375 194.7188,22.2188 Q194.4375,22.5 194,22.5 Q193.6094,22.5 193.3594,22.3281 Q193.1094,22.1563 193,21.7031 Q192.9531,21.3906 192.7813,21.2188 Q192.4688,20.8906 191.9063,20.7031 Q191.3438,20.5 190.7813,20.5 Q190.0781,20.5 189.4844,20.7813 Q188.9063,21.0625 188.4531,21.6875 Q188,22.3125 188,23.1719 L188,24.0938 Q188,25.125 188.8438,25.8125 Q189.6875,26.5 191.1875,26.5 Q192.0781,26.5 192.7031,26.2969 Q193.0625,26.1875 193.4688,25.8281 Q193.7344,25.625 193.875,25.5625 Q194.0156,25.5 194.1875,25.5 Q194.5156,25.5 194.75,25.7656 Q195,26.0156 195,26.375 Q195,26.7188 194.6563,27.125 Q194.1563,27.7188 193.3594,28.0469 Q192.3125,28.5 191.0313,28.5 Q189.5313,28.5 188.3281,27.9063 Q187.3594,27.4375 186.6719,26.4219 Q186,25.4063 186,24.2031 L186,23.1094 Q186,21.8594 186.5938,20.7656 Q187.2031,19.6719 188.25,19.0938 Q189.3125,18.5 190.5,18.5 Q191.2188,18.5 191.8438,18.75 Q192.4688,19 193,19.5 Z " fill="#000000"/><text fill="#000000" font-family="sans-serif" font-size="12" lengthAdjust="spacing" textLength="158" x="205" y="27.9102">MostEfficientCircuitController</text><line style="stroke:#A80036;stroke-width:1.5;" x1="177" x2="365" y1="39" y2="39"/><line style="stroke:#A80036;stroke-width:1.5;" x1="177" x2="365" y1="47" y2="47"/><text fill="#000000" font-family="sans-serif" font-size="11" lengthAdjust="spacing" textLength="121" x="182" y="62.4189">+getMostEfficientCircuit()</text><!--MD5=[02e4b9b7573f1156f41e60aa5b4e25a4]
class Company--><rect codeLine="8" fill="#FEFECE" filter="url(#f1f8p8rmt268q1)" height="75.6719" id="Company" style="stroke:#A80036;stroke-width:1.5;" width="115" x="213.5" y="130"/><ellipse cx="242" cy="146" fill="#ADD1B2" rx="11" ry="11" style="stroke:#A80036;stroke-width:1.0;"/><path d="M244,142.5 Q244.2031,142 244.4375,141.75 Q244.6719,141.5 244.9375,141.5 Q245.4063,141.5 245.7031,141.7813 Q246,142.0625 246,142.7188 L246,144.2813 Q246,144.9375 245.7188,145.2188 Q245.4375,145.5 245,145.5 Q244.6094,145.5 244.3594,145.3281 Q244.1094,145.1563 244,144.7031 Q243.9531,144.3906 243.7813,144.2188 Q243.4688,143.8906 242.9063,143.7031 Q242.3438,143.5 241.7813,143.5 Q241.0781,143.5 240.4844,143.7813 Q239.9063,144.0625 239.4531,144.6875 Q239,145.3125 239,146.1719 L239,147.0938 Q239,148.125 239.8438,148.8125 Q240.6875,149.5 242.1875,149.5 Q243.0781,149.5 243.7031,149.2969 Q244.0625,149.1875 244.4688,148.8281 Q244.7344,148.625 244.875,148.5625 Q245.0156,148.5 245.1875,148.5 Q245.5156,148.5 245.75,148.7656 Q246,149.0156 246,149.375 Q246,149.7188 245.6563,150.125 Q245.1563,150.7188 244.3594,151.0469 Q243.3125,151.5 242.0313,151.5 Q240.5313,151.5 239.3281,150.9063 Q238.3594,150.4375 237.6719,149.4219 Q237,148.4063 237,147.2031 L237,146.1094 Q237,144.8594 237.5938,143.7656 Q238.2031,142.6719 239.25,142.0938 Q240.3125,141.5 241.5,141.5 Q242.2188,141.5 242.8438,141.75 Q243.4688,142 244,142.5 Z " fill="#000000"/><text fill="#000000" font-family="sans-serif" font-size="12" lengthAdjust="spacing" textLength="53" x="259" y="150.9102">Company</text><line style="stroke:#A80036;stroke-width:1.5;" x1="214.5" x2="327.5" y1="162" y2="162"/><text fill="#000000" font-family="sans-serif" font-size="11" lengthAdjust="spacing" textLength="59" x="219.5" y="177.4189">-designation</text><line style="stroke:#A80036;stroke-width:1.5;" x1="214.5" x2="327.5" y1="183.8359" y2="183.8359"/><text fill="#000000" font-family="sans-serif" font-size="11" lengthAdjust="spacing" textLength="103" x="219.5" y="199.2549">+getFreightNetwork()</text><!--MD5=[074ba6ad47b234bd73d65012320c1634]
class FreightNetwork--><rect codeLine="13" fill="#FEFECE" filter="url(#f1f8p8rmt268q1)" height="103.3438" id="FreightNetwork" style="stroke:#A80036;stroke-width:1.5;" width="157" x="192.5" y="284"/><ellipse cx="226.4" cy="300" fill="#ADD1B2" rx="11" ry="11" style="stroke:#A80036;stroke-width:1.0;"/><path d="M228.4,296.5 Q228.6031,296 228.8375,295.75 Q229.0719,295.5 229.3375,295.5 Q229.8063,295.5 230.1031,295.7813 Q230.4,296.0625 230.4,296.7188 L230.4,298.2813 Q230.4,298.9375 230.1188,299.2188 Q229.8375,299.5 229.4,299.5 Q229.0094,299.5 228.7594,299.3281 Q228.5094,299.1563 228.4,298.7031 Q228.3531,298.3906 228.1813,298.2188 Q227.8688,297.8906 227.3063,297.7031 Q226.7438,297.5 226.1813,297.5 Q225.4781,297.5 224.8844,297.7813 Q224.3063,298.0625 223.8531,298.6875 Q223.4,299.3125 223.4,300.1719 L223.4,301.0938 Q223.4,302.125 224.2438,302.8125 Q225.0875,303.5 226.5875,303.5 Q227.4781,303.5 228.1031,303.2969 Q228.4625,303.1875 228.8688,302.8281 Q229.1344,302.625 229.275,302.5625 Q229.4156,302.5 229.5875,302.5 Q229.9156,302.5 230.15,302.7656 Q230.4,303.0156 230.4,303.375 Q230.4,303.7188 230.0563,304.125 Q229.5563,304.7188 228.7594,305.0469 Q227.7125,305.5 226.4313,305.5 Q224.9313,305.5 223.7281,304.9063 Q222.7594,304.4375 222.0719,303.4219 Q221.4,302.4063 221.4,301.2031 L221.4,300.1094 Q221.4,298.8594 221.9938,297.7656 Q222.6031,296.6719 223.65,296.0938 Q224.7125,295.5 225.9,295.5 Q226.6188,295.5 227.2438,295.75 Q227.8688,296 228.4,296.5 Z " fill="#000000"/><text fill="#000000" font-family="sans-serif" font-size="12" lengthAdjust="spacing" textLength="83" x="244.6" y="304.9102">FreightNetwork</text><line style="stroke:#A80036;stroke-width:1.5;" x1="193.5" x2="348.5" y1="316" y2="316"/><line style="stroke:#A80036;stroke-width:1.5;" x1="193.5" x2="348.5" y1="324" y2="324"/><text fill="#000000" font-family="sans-serif" font-size="11" lengthAdjust="spacing" textLength="142" x="198.5" y="339.4189">+getTotalDistanceMinorCost()</text><text fill="#000000" font-family="sans-serif" font-size="11" lengthAdjust="spacing" textLength="145" x="198.5" y="353.2549">+getAllCircuitsAndDistances()</text><text fill="#000000" font-family="sans-serif" font-size="11" lengthAdjust="spacing" textLength="121" x="198.5" y="367.0908">+getCircuitAndDistance()</text><text fill="#000000" font-family="sans-serif" font-size="11" lengthAdjust="spacing" textLength="73" x="198.5" y="380.9268">+checkCircuit()</text><!--MD5=[4f1f3706c1a355a8488e154afcaed5df]
class Location--><rect codeLine="20" fill="#FEFECE" filter="url(#f1f8p8rmt268q1)" height="89.5078" id="Location" style="stroke:#A80036;stroke-width:1.5;" width="80" x="293" y="465"/><ellipse cx="308.45" cy="481" fill="#A9DCDF" rx="11" ry="11" style="stroke:#A80036;stroke-width:1.0;"/><path d="M310.2,482.5 L306.9031,482.5 L306.4656,483.5 L306.4656,483.5 L306.9344,483.5 L307.45,484.125 L307.45,484.5 L307.45,484.875 L306.9344,485.5 L306.4656,485.5 L304.575,485.5 L303.9656,485.5 L303.45,484.875 L303.45,484.5 L303.45,484.125 L303.9656,483.5 L304.575,483.5 L306.8875,477.5 L306.0125,477.5 L304.9656,477.5 L304.45,476.875 L304.45,476.5 L304.45,476.125 L304.9656,475.5 L306.0125,475.5 L309.6844,475.5 L312.3719,483.5 L312.9344,483.5 L312.9344,483.5 L313.45,484.125 L313.45,484.5 L313.45,484.875 L312.9344,485.5 L312.3719,485.5 L310.4813,485.5 L309.9656,485.5 L309.45,484.875 L309.45,484.5 L309.45,484.125 L309.9656,483.5 L310.4813,483.5 L310.4813,483.5 L310.2,482.5 Z M309.6531,480.5 L308.45,476.9219 L307.4188,480.5 L309.6531,480.5 Z " fill="#000000"/><text fill="#000000" font-family="sans-serif" font-size="12" font-style="italic" lengthAdjust="spacing" textLength="47" x="322.55" y="485.9102">Location</text><line style="stroke:#A80036;stroke-width:1.5;" x1="294" x2="372" y1="497" y2="497"/><text fill="#000000" font-family="sans-serif" font-size="11" lengthAdjust="spacing" textLength="38" x="299" y="512.4189">-latitude</text><text fill="#000000" font-family="sans-serif" font-size="11" lengthAdjust="spacing" textLength="47" x="299" y="526.2549">-longitude</text><text fill="#000000" font-family="sans-serif" font-size="11" lengthAdjust="spacing" textLength="68" x="299" y="540.0908">-countryName</text><line style="stroke:#A80036;stroke-width:1.5;" x1="294" x2="372" y1="546.5078" y2="546.5078"/><!--MD5=[a0bfe97ac0a38e6e74cc1c7c7b744b71]
class Port--><rect codeLine="26" fill="#FEFECE" filter="url(#f1f8p8rmt268q1)" height="103.3438" id="Port" style="stroke:#A80036;stroke-width:1.5;" width="92" x="287" y="616"/><ellipse cx="319.1" cy="632" fill="#ADD1B2" rx="11" ry="11" style="stroke:#A80036;stroke-width:1.0;"/><path d="M321.1,628.5 Q321.3031,628 321.5375,627.75 Q321.7719,627.5 322.0375,627.5 Q322.5063,627.5 322.8031,627.7813 Q323.1,628.0625 323.1,628.7188 L323.1,630.2813 Q323.1,630.9375 322.8188,631.2188 Q322.5375,631.5 322.1,631.5 Q321.7094,631.5 321.4594,631.3281 Q321.2094,631.1563 321.1,630.7031 Q321.0531,630.3906 320.8813,630.2188 Q320.5688,629.8906 320.0063,629.7031 Q319.4438,629.5 318.8813,629.5 Q318.1781,629.5 317.5844,629.7813 Q317.0063,630.0625 316.5531,630.6875 Q316.1,631.3125 316.1,632.1719 L316.1,633.0938 Q316.1,634.125 316.9438,634.8125 Q317.7875,635.5 319.2875,635.5 Q320.1781,635.5 320.8031,635.2969 Q321.1625,635.1875 321.5688,634.8281 Q321.8344,634.625 321.975,634.5625 Q322.1156,634.5 322.2875,634.5 Q322.6156,634.5 322.85,634.7656 Q323.1,635.0156 323.1,635.375 Q323.1,635.7188 322.7563,636.125 Q322.2563,636.7188 321.4594,637.0469 Q320.4125,637.5 319.1313,637.5 Q317.6313,637.5 316.4281,636.9063 Q315.4594,636.4375 314.7719,635.4219 Q314.1,634.4063 314.1,633.2031 L314.1,632.1094 Q314.1,630.8594 314.6938,629.7656 Q315.3031,628.6719 316.35,628.0938 Q317.4125,627.5 318.6,627.5 Q319.3188,627.5 319.9438,627.75 Q320.5688,628 321.1,628.5 Z " fill="#000000"/><text fill="#000000" font-family="sans-serif" font-size="12" lengthAdjust="spacing" textLength="22" x="336.9" y="636.9102">Port</text><line style="stroke:#A80036;stroke-width:1.5;" x1="288" x2="378" y1="648" y2="648"/><text fill="#000000" font-family="sans-serif" font-size="11" lengthAdjust="spacing" textLength="64" x="293" y="663.4189">-identification</text><text fill="#000000" font-family="sans-serif" font-size="11" lengthAdjust="spacing" textLength="30" x="293" y="677.2549">-name</text><text fill="#000000" font-family="sans-serif" font-size="11" lengthAdjust="spacing" textLength="48" x="293" y="691.0908">-continent</text><text fill="#000000" font-family="sans-serif" font-size="11" lengthAdjust="spacing" textLength="80" x="293" y="704.9268">-toPortsDistance</text><line style="stroke:#A80036;stroke-width:1.5;" x1="288" x2="378" y1="711.3438" y2="711.3438"/><!--MD5=[b7b072196a724e538165319251b4d539]
class MatrixGraph--><rect codeLine="34" fill="#FEFECE" filter="url(#f1f8p8rmt268q1)" height="48" id="MatrixGraph" style="stroke:#A80036;stroke-width:1.5;" width="97" x="160.5" y="486"/><ellipse cx="175.5" cy="502" fill="#ADD1B2" rx="11" ry="11" style="stroke:#A80036;stroke-width:1.0;"/><path d="M177.5,498.5 Q177.7031,498 177.9375,497.75 Q178.1719,497.5 178.4375,497.5 Q178.9063,497.5 179.2031,497.7813 Q179.5,498.0625 179.5,498.7188 L179.5,500.2813 Q179.5,500.9375 179.2188,501.2188 Q178.9375,501.5 178.5,501.5 Q178.1094,501.5 177.8594,501.3281 Q177.6094,501.1563 177.5,500.7031 Q177.4531,500.3906 177.2813,500.2188 Q176.9688,499.8906 176.4063,499.7031 Q175.8438,499.5 175.2813,499.5 Q174.5781,499.5 173.9844,499.7813 Q173.4063,500.0625 172.9531,500.6875 Q172.5,501.3125 172.5,502.1719 L172.5,503.0938 Q172.5,504.125 173.3438,504.8125 Q174.1875,505.5 175.6875,505.5 Q176.5781,505.5 177.2031,505.2969 Q177.5625,505.1875 177.9688,504.8281 Q178.2344,504.625 178.375,504.5625 Q178.5156,504.5 178.6875,504.5 Q179.0156,504.5 179.25,504.7656 Q179.5,505.0156 179.5,505.375 Q179.5,505.7188 179.1563,506.125 Q178.6563,506.7188 177.8594,507.0469 Q176.8125,507.5 175.5313,507.5 Q174.0313,507.5 172.8281,506.9063 Q171.8594,506.4375 171.1719,505.4219 Q170.5,504.4063 170.5,503.2031 L170.5,502.1094 Q170.5,500.8594 171.0938,499.7656 Q171.7031,498.6719 172.75,498.0938 Q173.8125,497.5 175,497.5 Q175.7188,497.5 176.3438,497.75 Q176.9688,498 177.5,498.5 Z " fill="#000000"/><text fill="#000000" font-family="sans-serif" font-size="12" lengthAdjust="spacing" textLength="65" x="189.5" y="506.9102">MatrixGraph</text><line style="stroke:#A80036;stroke-width:1.5;" x1="161.5" x2="256.5" y1="518" y2="518"/><line style="stroke:#A80036;stroke-width:1.5;" x1="161.5" x2="256.5" y1="526" y2="526"/><!--MD5=[ef63e85e32976ed6c3ca2a05ce10893d]
class CommonGraph--><rect codeLine="36" fill="#FEFECE" filter="url(#f1f8p8rmt268q1)" height="48" id="CommonGraph" style="stroke:#A80036;stroke-width:1.5;" width="118" x="7" y="486"/><ellipse cx="22" cy="502" fill="#A9DCDF" rx="11" ry="11" style="stroke:#A80036;stroke-width:1.0;"/><path d="M23.75,503.5 L20.4531,503.5 L20.0156,504.5 L20.0156,504.5 L20.4844,504.5 L21,505.125 L21,505.5 L21,505.875 L20.4844,506.5 L20.0156,506.5 L18.125,506.5 L17.5156,506.5 L17,505.875 L17,505.5 L17,505.125 L17.5156,504.5 L18.125,504.5 L20.4375,498.5 L19.5625,498.5 L18.5156,498.5 L18,497.875 L18,497.5 L18,497.125 L18.5156,496.5 L19.5625,496.5 L23.2344,496.5 L25.9219,504.5 L26.4844,504.5 L26.4844,504.5 L27,505.125 L27,505.5 L27,505.875 L26.4844,506.5 L25.9219,506.5 L24.0313,506.5 L23.5156,506.5 L23,505.875 L23,505.5 L23,505.125 L23.5156,504.5 L24.0313,504.5 L24.0313,504.5 L23.75,503.5 Z M23.2031,501.5 L22,497.9219 L20.9688,501.5 L23.2031,501.5 Z " fill="#000000"/><text fill="#000000" font-family="sans-serif" font-size="12" font-style="italic" lengthAdjust="spacing" textLength="86" x="36" y="506.9102">CommonGraph</text><line style="stroke:#A80036;stroke-width:1.5;" x1="8" x2="124" y1="518" y2="518"/><line style="stroke:#A80036;stroke-width:1.5;" x1="8" x2="124" y1="526" y2="526"/><!--MD5=[706e73df52f3df32f52be1ce9adb217e]
class Graph--><rect codeLine="38" fill="#FEFECE" filter="url(#f1f8p8rmt268q1)" height="97.6953" id="Graph" style="stroke:#A80036;stroke-width:1.5;" width="89" x="21.5" y="618.5"/><ellipse cx="36.5" cy="638.5938" fill="#B4A7E5" rx="11" ry="11" style="stroke:#A80036;stroke-width:1.0;"/><path d="M37.5,635.5938 L37.5,641.5938 L39.5,641.5938 L39.9844,641.5938 L40.5,642.2188 L40.5,642.5938 L40.5,642.9688 L39.9844,643.5938 L39.5,643.5938 L33.5,643.5938 L33.0156,643.5938 L32.5,642.9688 L32.5,642.5938 L32.5,642.2188 L33.0156,641.5938 L33.5,641.5938 L35.5,641.5938 L35.5,635.5938 L33.5,635.5938 L33.0156,635.5938 L32.5,634.9688 L32.5,634.5938 L32.5,634.2188 L33.0156,633.5938 L33.5,633.5938 L39.5,633.5938 L39.9844,633.5938 L40.5,634.2188 L40.5,634.5938 L40.5,634.9688 L39.9844,635.5938 L39.5,635.5938 L37.5,635.5938 Z " fill="#000000"/><text fill="#000000" font-family="sans-serif" font-size="12" font-style="italic" lengthAdjust="spacing" textLength="61" x="48.5" y="635.957">«interface»</text><text fill="#000000" font-family="sans-serif" font-size="12" font-style="italic" lengthAdjust="spacing" textLength="34" x="62" y="651.0508">Graph</text><line style="stroke:#A80036;stroke-width:1.5;" x1="22.5" x2="109.5" y1="658.6875" y2="658.6875"/><line style="stroke:#A80036;stroke-width:1.5;" x1="22.5" x2="109.5" y1="666.6875" y2="666.6875"/><text fill="#000000" font-family="sans-serif" font-size="11" lengthAdjust="spacing" textLength="38" x="27.5" y="682.1064">+edge()</text><text fill="#000000" font-family="sans-serif" font-size="11" lengthAdjust="spacing" textLength="69" x="27.5" y="695.9424">+adjVertices()</text><text fill="#000000" font-family="sans-serif" font-size="11" lengthAdjust="spacing" textLength="53" x="27.5" y="709.7783">+vertices()</text><!--MD5=[9c6d47ab964d752fbe6e2d5dbbbbc2c7]
link MostEfficientCircuitController to Company--><path codeLine="44" d="M271,69.01 C271,85.63 271,106.55 271,124.79 " fill="none" id="MostEfficientCircuitController-to-Company" style="stroke:#A80036;stroke-width:1.0;stroke-dasharray:7.0,7.0;"/><polygon fill="#A80036" points="271,129.85,275,120.85,271,124.85,267,120.85,271,129.85" style="stroke:#A80036;stroke-width:1.0;"/><!--MD5=[e359b474b5bea3d5e0a05d5f38acf6c5]
link Company to FreightNetwork--><path codeLine="45" d="M271,206.14 C271,229.11 271,258.89 271,283.99 " fill="none" id="Company-FreightNetwork" style="stroke:#A80036;stroke-width:1.0;"/><polygon fill="#000000" points="276,250.1758,278.9389,241.1307,273.0611,241.1307,276,250.1758" style="stroke:#000000;stroke-width:1.0;"/><text fill="#000000" font-family="sans-serif" font-size="13" lengthAdjust="spacing" textLength="37" x="285" y="250.4951">knows</text><text fill="#000000" font-family="sans-serif" font-size="13" lengthAdjust="spacing" textLength="7" x="263.4422" y="227.0428">1</text><text fill="#000000" font-family="sans-serif" font-size="13" lengthAdjust="spacing" textLength="7" x="263.5078" y="273.1171">1</text><!--MD5=[e37e8e3161027a4df85a8c5d819b551a]
reverse link Location to Port--><path codeLine="46" d="M333,575.61 C333,589.07 333,603.07 333,615.94 " fill="none" id="Location-backto-Port" style="stroke:#A80036;stroke-width:1.0;"/><polygon fill="none" points="326,575.14,333,555.14,340,575.14,326,575.14" style="stroke:#A80036;stroke-width:1.0;"/><!--MD5=[bd392566c8a46ea25d805713a18e8e2e]
link FreightNetwork to Location--><path codeLine="47" d="M289.27,387.32 C298.13,411.97 308.66,441.29 317.17,464.97 " fill="none" id="FreightNetwork-Location" style="stroke:#A80036;stroke-width:1.0;"/><polygon fill="#000000" points="311.6907,430.8813,311.398,421.3752,305.8664,423.3627,311.6907,430.8813" style="stroke:#000000;stroke-width:1.0;"/><text fill="#000000" font-family="sans-serif" font-size="13" lengthAdjust="spacing" textLength="10" x="319" y="431.4951">of</text><text fill="#000000" font-family="sans-serif" font-size="13" lengthAdjust="spacing" textLength="5" x="286.3891" y="408.854">*</text><text fill="#000000" font-family="sans-serif" font-size="13" lengthAdjust="spacing" textLength="20" x="293.0533" y="454.0807">1..*</text><!--MD5=[cb484d98b05c96fc0a7b0f57795eae75]
link FreightNetwork to MatrixGraph--><path codeLine="48" d="M252.73,387.32 C241.75,417.88 228.18,455.62 219.1,480.9 " fill="none" id="FreightNetwork-to-MatrixGraph" style="stroke:#A80036;stroke-width:1.0;stroke-dasharray:7.0,7.0;"/><polygon fill="#A80036" points="217.35,485.78,224.1727,478.6772,219.0507,481.0781,216.6497,475.9561,217.35,485.78" style="stroke:#A80036;stroke-width:1.0;"/><!--MD5=[e9051ba8ebbd537393a9a6534acec112]
reverse link CommonGraph to MatrixGraph--><path codeLine="49" d="M145.46,510 C150.38,510 155.31,510 160.23,510 " fill="none" id="CommonGraph-backto-MatrixGraph" style="stroke:#A80036;stroke-width:1.0;"/><polygon fill="none" points="145.21,517,125.21,510,145.21,503,145.21,517" style="stroke:#A80036;stroke-width:1.0;"/><!--MD5=[73cb6a84480518af2d88af90c1d954ca]
link CommonGraph to Graph--><path codeLine="50" d="M66,534.28 C66,555.01 66,586.13 66,612.96 " fill="none" id="CommonGraph-to-Graph" style="stroke:#A80036;stroke-width:1.0;"/><polygon fill="#A80036" points="66,618.27,70,609.27,66,613.27,62,609.27,66,618.27" style="stroke:#A80036;stroke-width:1.0;"/><!--MD5=[aa909c8fc1edd0979658ee302c269299]
@startuml

skinparam classAttributeIconSize 0

class MostEfficientCircuitController {
    +getMostEfficientCircuit()
}

class Company {
    -designation
    +getFreightNetwork()
}

class FreightNetwork {
    +getTotalDistanceMinorCost()
    +getAllCircuitsAndDistances()
    +getCircuitAndDistance()
    +checkCircuit()
}

abstract class Location{
    -latitude
    -longitude
    -countryName
}

class Port {
    -identification
    -name
    -continent
    -toPortsDistance
}


class MatrixGraph {}

abstract class CommonGraph {}

interface Graph <<interface>> {
    +edge()
    +adjVertices()
    +vertices()
}

MostEfficientCircuitController ..> Company
Company "1" - - "1" FreightNetwork : knows >
Location <|- - Port
FreightNetwork "*" - - "1..*" Location : of >
FreightNetwork ..> MatrixGraph
CommonGraph <|- MatrixGraph
CommonGraph - -> Graph

@enduml

PlantUML version 1.2021.11(Sat Oct 02 14:26:11 BST 2021)
(GPL source distribution)
Java Runtime: OpenJDK Runtime Environment
JVM: OpenJDK 64-Bit Server VM
Default Encoding: Cp1252
Language: pt
Country: PT
--></g></svg>