<?xml version="1.0" encoding="UTF-8" standalone="no"?><svg xmlns="http://www.w3.org/2000/svg" xmlns:xlink="http://www.w3.org/1999/xlink" contentScriptType="application/ecmascript" contentStyleType="text/css" height="345px" preserveAspectRatio="none" style="width:228px;height:345px;background:#FFFFFF;" version="1.1" viewBox="0 0 228 345" width="228px" zoomAndPan="magnify"><defs><filter height="300%" id="fmj4pqx5m77c1" width="300%" x="-1" y="-1"><feGaussianBlur result="blurOut" stdDeviation="2.0"/><feColorMatrix in="blurOut" result="blurOut2" type="matrix" values="0 0 0 0 0 0 0 0 0 0 0 0 0 0 0 0 0 0 .4 0"/><feOffset dx="4.0" dy="4.0" in="blurOut2" result="blurOut3"/><feBlend in="SourceGraphic" in2="blurOut3" mode="normal"/></filter></defs><g><!--MD5=[2715ecab9fe2ad021df65d2cd45b67b8]
class GetIdleShipsController--><rect codeLine="3" fill="#FEFECE" filter="url(#fmj4pqx5m77c1)" height="61.8359" id="GetIdleShipsController" style="stroke:#A80036;stroke-width:1.5;" width="157" x="57.5" y="7"/><ellipse cx="72.5" cy="23" fill="#ADD1B2" rx="11" ry="11" style="stroke:#A80036;stroke-width:1.0;"/><path d="M74.5,19.5 Q74.7031,19 74.9375,18.75 Q75.1719,18.5 75.4375,18.5 Q75.9063,18.5 76.2031,18.7813 Q76.5,19.0625 76.5,19.7188 L76.5,21.2813 Q76.5,21.9375 76.2188,22.2188 Q75.9375,22.5 75.5,22.5 Q75.1094,22.5 74.8594,22.3281 Q74.6094,22.1563 74.5,21.7031 Q74.4531,21.3906 74.2813,21.2188 Q73.9688,20.8906 73.4063,20.7031 Q72.8438,20.5 72.2813,20.5 Q71.5781,20.5 70.9844,20.7813 Q70.4063,21.0625 69.9531,21.6875 Q69.5,22.3125 69.5,23.1719 L69.5,24.0938 Q69.5,25.125 70.3438,25.8125 Q71.1875,26.5 72.6875,26.5 Q73.5781,26.5 74.2031,26.2969 Q74.5625,26.1875 74.9688,25.8281 Q75.2344,25.625 75.375,25.5625 Q75.5156,25.5 75.6875,25.5 Q76.0156,25.5 76.25,25.7656 Q76.5,26.0156 76.5,26.375 Q76.5,26.7188 76.1563,27.125 Q75.6563,27.7188 74.8594,28.0469 Q73.8125,28.5 72.5313,28.5 Q71.0313,28.5 69.8281,27.9063 Q68.8594,27.4375 68.1719,26.4219 Q67.5,25.4063 67.5,24.2031 L67.5,23.1094 Q67.5,21.8594 68.0938,20.7656 Q68.7031,19.6719 69.75,19.0938 Q70.8125,18.5 72,18.5 Q72.7188,18.5 73.3438,18.75 Q73.9688,19 74.5,19.5 Z " fill="#000000"/><text fill="#000000" font-family="sans-serif" font-size="12" lengthAdjust="spacing" textLength="125" x="86.5" y="27.9102">GetIdleShipsController</text><line style="stroke:#A80036;stroke-width:1.5;" x1="58.5" x2="213.5" y1="39" y2="39"/><line style="stroke:#A80036;stroke-width:1.5;" x1="58.5" x2="213.5" y1="47" y2="47"/><text fill="#000000" font-family="sans-serif" font-size="11" lengthAdjust="spacing" textLength="72" x="63.5" y="62.4189">+getIdleShips()</text><!--MD5=[02e4b9b7573f1156f41e60aa5b4e25a4]
class Company--><rect codeLine="7" fill="#FEFECE" filter="url(#fmj4pqx5m77c1)" height="61.8359" id="Company" style="stroke:#A80036;stroke-width:1.5;" width="102" x="7" y="130"/><ellipse cx="29.65" cy="146" fill="#ADD1B2" rx="11" ry="11" style="stroke:#A80036;stroke-width:1.0;"/><path d="M31.65,142.5 Q31.8531,142 32.0875,141.75 Q32.3219,141.5 32.5875,141.5 Q33.0563,141.5 33.3531,141.7813 Q33.65,142.0625 33.65,142.7188 L33.65,144.2813 Q33.65,144.9375 33.3688,145.2188 Q33.0875,145.5 32.65,145.5 Q32.2594,145.5 32.0094,145.3281 Q31.7594,145.1563 31.65,144.7031 Q31.6031,144.3906 31.4313,144.2188 Q31.1188,143.8906 30.5563,143.7031 Q29.9938,143.5 29.4313,143.5 Q28.7281,143.5 28.1344,143.7813 Q27.5563,144.0625 27.1031,144.6875 Q26.65,145.3125 26.65,146.1719 L26.65,147.0938 Q26.65,148.125 27.4938,148.8125 Q28.3375,149.5 29.8375,149.5 Q30.7281,149.5 31.3531,149.2969 Q31.7125,149.1875 32.1188,148.8281 Q32.3844,148.625 32.525,148.5625 Q32.6656,148.5 32.8375,148.5 Q33.1656,148.5 33.4,148.7656 Q33.65,149.0156 33.65,149.375 Q33.65,149.7188 33.3063,150.125 Q32.8063,150.7188 32.0094,151.0469 Q30.9625,151.5 29.6813,151.5 Q28.1813,151.5 26.9781,150.9063 Q26.0094,150.4375 25.3219,149.4219 Q24.65,148.4063 24.65,147.2031 L24.65,146.1094 Q24.65,144.8594 25.2438,143.7656 Q25.8531,142.6719 26.9,142.0938 Q27.9625,141.5 29.15,141.5 Q29.8688,141.5 30.4938,141.75 Q31.1188,142 31.65,142.5 Z " fill="#000000"/><text fill="#000000" font-family="sans-serif" font-size="12" lengthAdjust="spacing" textLength="53" x="45.35" y="150.9102">Company</text><line style="stroke:#A80036;stroke-width:1.5;" x1="8" x2="108" y1="162" y2="162"/><line style="stroke:#A80036;stroke-width:1.5;" x1="8" x2="108" y1="170" y2="170"/><text fill="#000000" font-family="sans-serif" font-size="11" lengthAdjust="spacing" textLength="90" x="13" y="185.4189">+getShipStoreDB()</text><!--MD5=[80429a8c3a07863d2b9a5a642579b4cd]
class ShipStoreDB--><rect codeLine="11" fill="#FEFECE" filter="url(#fmj4pqx5m77c1)" height="61.8359" id="ShipStoreDB" style="stroke:#A80036;stroke-width:1.5;" width="184" x="18" y="270"/><ellipse cx="70.25" cy="286" fill="#ADD1B2" rx="11" ry="11" style="stroke:#A80036;stroke-width:1.0;"/><path d="M72.25,282.5 Q72.4531,282 72.6875,281.75 Q72.9219,281.5 73.1875,281.5 Q73.6563,281.5 73.9531,281.7813 Q74.25,282.0625 74.25,282.7188 L74.25,284.2813 Q74.25,284.9375 73.9688,285.2188 Q73.6875,285.5 73.25,285.5 Q72.8594,285.5 72.6094,285.3281 Q72.3594,285.1563 72.25,284.7031 Q72.2031,284.3906 72.0313,284.2188 Q71.7188,283.8906 71.1563,283.7031 Q70.5938,283.5 70.0313,283.5 Q69.3281,283.5 68.7344,283.7813 Q68.1563,284.0625 67.7031,284.6875 Q67.25,285.3125 67.25,286.1719 L67.25,287.0938 Q67.25,288.125 68.0938,288.8125 Q68.9375,289.5 70.4375,289.5 Q71.3281,289.5 71.9531,289.2969 Q72.3125,289.1875 72.7188,288.8281 Q72.9844,288.625 73.125,288.5625 Q73.2656,288.5 73.4375,288.5 Q73.7656,288.5 74,288.7656 Q74.25,289.0156 74.25,289.375 Q74.25,289.7188 73.9063,290.125 Q73.4063,290.7188 72.6094,291.0469 Q71.5625,291.5 70.2813,291.5 Q68.7813,291.5 67.5781,290.9063 Q66.6094,290.4375 65.9219,289.4219 Q65.25,288.4063 65.25,287.2031 L65.25,286.1094 Q65.25,284.8594 65.8438,283.7656 Q66.4531,282.6719 67.5,282.0938 Q68.5625,281.5 69.75,281.5 Q70.4688,281.5 71.0938,281.75 Q71.7188,282 72.25,282.5 Z " fill="#000000"/><text fill="#000000" font-family="sans-serif" font-size="12" lengthAdjust="spacing" textLength="71" x="90.75" y="290.9102">ShipStoreDB</text><line style="stroke:#A80036;stroke-width:1.5;" x1="19" x2="201" y1="302" y2="302"/><line style="stroke:#A80036;stroke-width:1.5;" x1="19" x2="201" y1="310" y2="310"/><text fill="#000000" font-family="sans-serif" font-size="11" lengthAdjust="spacing" textLength="172" x="24" y="325.4189">+getIdleShips(dataBaseConnection)</text><!--MD5=[f957868f2cf198d1007d26759b2c7a41]
link GetIdleShipsController to Company--><path codeLine="15" d="M116.52,69.22 C105.54,86.26 91.77,107.61 80.35,125.32 " fill="none" id="GetIdleShipsController-to-Company" style="stroke:#A80036;stroke-width:1.0;stroke-dasharray:7.0,7.0;"/><polygon fill="#A80036" points="77.5,129.74,85.7445,124.3522,80.2139,125.5406,79.0255,120.01,77.5,129.74" style="stroke:#A80036;stroke-width:1.0;"/><!--MD5=[f167d4dd011f1cb47dd9b8d8baf09b7d]
link GetIdleShipsController to ShipStoreDB--><path codeLine="16" d="M140.85,69.09 C146.26,108.81 152.59,180.64 139,240 C137.08,248.41 133.81,257 130.16,264.97 " fill="none" id="GetIdleShipsController-to-ShipStoreDB" style="stroke:#A80036;stroke-width:1.0;stroke-dasharray:7.0,7.0;"/><polygon fill="#A80036" points="127.84,269.84,135.3295,263.4441,129.9958,265.3286,128.1113,259.9949,127.84,269.84" style="stroke:#A80036;stroke-width:1.0;"/><!--MD5=[507cfa299ee4dba6e3c71a3753442b74]
link Company to ShipStoreDB--><path codeLine="17" d="M69.41,192.28 C78.08,215.29 89.95,246.79 98.61,269.79 " fill="none" id="Company-ShipStoreDB" style="stroke:#A80036;stroke-width:1.0;"/><polygon fill="#000000" points="94.7627,235.8548,94.3242,226.3543,88.8237,228.4265,94.7627,235.8548" style="stroke:#000000;stroke-width:1.0;"/><text fill="#000000" font-family="sans-serif" font-size="13" lengthAdjust="spacing" textLength="28" x="102" y="236.4951">uses</text><text fill="#000000" font-family="sans-serif" font-size="13" lengthAdjust="spacing" textLength="7" x="63.9178" y="213.312">1</text><text fill="#000000" font-family="sans-serif" font-size="13" lengthAdjust="spacing" textLength="7" x="88.5389" y="259.2512">1</text><!--MD5=[f4265dadb318d1e5bdcbd39555901844]
@startuml
skinparam classAttributeIconSize 0

class GetIdleShipsController{
    +getIdleShips()
}

class Company {
    +getShipStoreDB()
}

class ShipStoreDB {
    +getIdleShips(dataBaseConnection)
}

GetIdleShipsController ..> Company
GetIdleShipsController ..> ShipStoreDB
Company "1" - - "1" ShipStoreDB : uses >

@enduml

PlantUML version 1.2021.11(Sat Oct 02 14:26:11 BST 2021)
(GPL source distribution)
Java Runtime: OpenJDK Runtime Environment
JVM: OpenJDK 64-Bit Server VM
Default Encoding: Cp1252
Language: pt
Country: PT
--></g></svg>