<?xml version="1.0" encoding="UTF-8" standalone="no"?><svg xmlns="http://www.w3.org/2000/svg" xmlns:xlink="http://www.w3.org/1999/xlink" contentScriptType="application/ecmascript" contentStyleType="text/css" height="373px" preserveAspectRatio="none" style="width:302px;height:373px;background:#FFFFFF;" version="1.1" viewBox="0 0 302 373" width="302px" zoomAndPan="magnify"><defs><filter height="300%" id="f1cuflurgmpglx" width="300%" x="-1" y="-1"><feGaussianBlur result="blurOut" stdDeviation="2.0"/><feColorMatrix in="blurOut" result="blurOut2" type="matrix" values="0 0 0 0 0 0 0 0 0 0 0 0 0 0 0 0 0 0 .4 0"/><feOffset dx="4.0" dy="4.0" in="blurOut2" result="blurOut3"/><feBlend in="SourceGraphic" in2="blurOut3" mode="normal"/></filter></defs><g><!--MD5=[d7016a895eb9405ccf24eaed3fdad9f0]
class GetContainersLoadedController--><rect codeLine="4" fill="#FEFECE" filter="url(#f1cuflurgmpglx)" height="61.8359" id="GetContainersLoadedController" style="stroke:#A80036;stroke-width:1.5;" width="258" x="24.5" y="7"/><ellipse cx="62" cy="23" fill="#ADD1B2" rx="11" ry="11" style="stroke:#A80036;stroke-width:1.0;"/><path d="M64,19.5 Q64.2031,19 64.4375,18.75 Q64.6719,18.5 64.9375,18.5 Q65.4063,18.5 65.7031,18.7813 Q66,19.0625 66,19.7188 L66,21.2813 Q66,21.9375 65.7188,22.2188 Q65.4375,22.5 65,22.5 Q64.6094,22.5 64.3594,22.3281 Q64.1094,22.1563 64,21.7031 Q63.9531,21.3906 63.7813,21.2188 Q63.4688,20.8906 62.9063,20.7031 Q62.3438,20.5 61.7813,20.5 Q61.0781,20.5 60.4844,20.7813 Q59.9063,21.0625 59.4531,21.6875 Q59,22.3125 59,23.1719 L59,24.0938 Q59,25.125 59.8438,25.8125 Q60.6875,26.5 62.1875,26.5 Q63.0781,26.5 63.7031,26.2969 Q64.0625,26.1875 64.4688,25.8281 Q64.7344,25.625 64.875,25.5625 Q65.0156,25.5 65.1875,25.5 Q65.5156,25.5 65.75,25.7656 Q66,26.0156 66,26.375 Q66,26.7188 65.6563,27.125 Q65.1563,27.7188 64.3594,28.0469 Q63.3125,28.5 62.0313,28.5 Q60.5313,28.5 59.3281,27.9063 Q58.3594,27.4375 57.6719,26.4219 Q57,25.4063 57,24.2031 L57,23.1094 Q57,21.8594 57.5938,20.7656 Q58.2031,19.6719 59.25,19.0938 Q60.3125,18.5 61.5,18.5 Q62.2188,18.5 62.8438,18.75 Q63.4688,19 64,19.5 Z " fill="#000000"/><text fill="#000000" font-family="sans-serif" font-size="12" lengthAdjust="spacing" textLength="176" x="81" y="27.9102">GetContainersLoadedController</text><line style="stroke:#A80036;stroke-width:1.5;" x1="25.5" x2="281.5" y1="39" y2="39"/><line style="stroke:#A80036;stroke-width:1.5;" x1="25.5" x2="281.5" y1="47" y2="47"/><text fill="#000000" font-family="sans-serif" font-size="11" lengthAdjust="spacing" textLength="246" x="30.5" y="62.4189">+getListLoadedContainers(containerID, shipmentID)</text><!--MD5=[8d7ca94d2ddad896fa1b7a151fdd57c4]
class ShipTripStoreDB--><rect codeLine="8" fill="#FEFECE" filter="url(#f1cuflurgmpglx)" height="75.6719" id="ShipTripStoreDB" style="stroke:#A80036;stroke-width:1.5;" width="275" x="7" y="284"/><ellipse cx="94.25" cy="300" fill="#ADD1B2" rx="11" ry="11" style="stroke:#A80036;stroke-width:1.0;"/><path d="M96.25,296.5 Q96.4531,296 96.6875,295.75 Q96.9219,295.5 97.1875,295.5 Q97.6563,295.5 97.9531,295.7813 Q98.25,296.0625 98.25,296.7188 L98.25,298.2813 Q98.25,298.9375 97.9688,299.2188 Q97.6875,299.5 97.25,299.5 Q96.8594,299.5 96.6094,299.3281 Q96.3594,299.1563 96.25,298.7031 Q96.2031,298.3906 96.0313,298.2188 Q95.7188,297.8906 95.1563,297.7031 Q94.5938,297.5 94.0313,297.5 Q93.3281,297.5 92.7344,297.7813 Q92.1563,298.0625 91.7031,298.6875 Q91.25,299.3125 91.25,300.1719 L91.25,301.0938 Q91.25,302.125 92.0938,302.8125 Q92.9375,303.5 94.4375,303.5 Q95.3281,303.5 95.9531,303.2969 Q96.3125,303.1875 96.7188,302.8281 Q96.9844,302.625 97.125,302.5625 Q97.2656,302.5 97.4375,302.5 Q97.7656,302.5 98,302.7656 Q98.25,303.0156 98.25,303.375 Q98.25,303.7188 97.9063,304.125 Q97.4063,304.7188 96.6094,305.0469 Q95.5625,305.5 94.2813,305.5 Q92.7813,305.5 91.5781,304.9063 Q90.6094,304.4375 89.9219,303.4219 Q89.25,302.4063 89.25,301.2031 L89.25,300.1094 Q89.25,298.8594 89.8438,297.7656 Q90.4531,296.6719 91.5,296.0938 Q92.5625,295.5 93.75,295.5 Q94.4688,295.5 95.0938,295.75 Q95.7188,296 96.25,296.5 Z " fill="#000000"/><text fill="#000000" font-family="sans-serif" font-size="12" lengthAdjust="spacing" textLength="92" x="114.75" y="304.9102">ShipTripStoreDB</text><line style="stroke:#A80036;stroke-width:1.5;" x1="8" x2="281" y1="316" y2="316"/><line style="stroke:#A80036;stroke-width:1.5;" x1="8" x2="281" y1="324" y2="324"/><text fill="#000000" font-family="sans-serif" font-size="11" lengthAdjust="spacing" textLength="208" x="13" y="339.4189">+getNextPortID(databaseConnection, mmsi)</text><text fill="#000000" font-family="sans-serif" font-size="11" lengthAdjust="spacing" textLength="263" x="13" y="353.2549">+getListLoadedContainers(databaseConnection, mmsi)</text><!--MD5=[02e4b9b7573f1156f41e60aa5b4e25a4]
class Company--><rect codeLine="13" fill="#FEFECE" filter="url(#f1cuflurgmpglx)" height="75.6719" id="Company" style="stroke:#A80036;stroke-width:1.5;" width="120" x="168.5" y="130"/><ellipse cx="199.25" cy="146" fill="#ADD1B2" rx="11" ry="11" style="stroke:#A80036;stroke-width:1.0;"/><path d="M201.25,142.5 Q201.4531,142 201.6875,141.75 Q201.9219,141.5 202.1875,141.5 Q202.6563,141.5 202.9531,141.7813 Q203.25,142.0625 203.25,142.7188 L203.25,144.2813 Q203.25,144.9375 202.9688,145.2188 Q202.6875,145.5 202.25,145.5 Q201.8594,145.5 201.6094,145.3281 Q201.3594,145.1563 201.25,144.7031 Q201.2031,144.3906 201.0313,144.2188 Q200.7188,143.8906 200.1563,143.7031 Q199.5938,143.5 199.0313,143.5 Q198.3281,143.5 197.7344,143.7813 Q197.1563,144.0625 196.7031,144.6875 Q196.25,145.3125 196.25,146.1719 L196.25,147.0938 Q196.25,148.125 197.0938,148.8125 Q197.9375,149.5 199.4375,149.5 Q200.3281,149.5 200.9531,149.2969 Q201.3125,149.1875 201.7188,148.8281 Q201.9844,148.625 202.125,148.5625 Q202.2656,148.5 202.4375,148.5 Q202.7656,148.5 203,148.7656 Q203.25,149.0156 203.25,149.375 Q203.25,149.7188 202.9063,150.125 Q202.4063,150.7188 201.6094,151.0469 Q200.5625,151.5 199.2813,151.5 Q197.7813,151.5 196.5781,150.9063 Q195.6094,150.4375 194.9219,149.4219 Q194.25,148.4063 194.25,147.2031 L194.25,146.1094 Q194.25,144.8594 194.8438,143.7656 Q195.4531,142.6719 196.5,142.0938 Q197.5625,141.5 198.75,141.5 Q199.4688,141.5 200.0938,141.75 Q200.7188,142 201.25,142.5 Z " fill="#000000"/><text fill="#000000" font-family="sans-serif" font-size="12" lengthAdjust="spacing" textLength="53" x="216.75" y="150.9102">Company</text><line style="stroke:#A80036;stroke-width:1.5;" x1="169.5" x2="287.5" y1="162" y2="162"/><text fill="#000000" font-family="sans-serif" font-size="11" lengthAdjust="spacing" textLength="59" x="174.5" y="177.4189">-designation</text><line style="stroke:#A80036;stroke-width:1.5;" x1="169.5" x2="287.5" y1="183.8359" y2="183.8359"/><text fill="#000000" font-family="sans-serif" font-size="11" lengthAdjust="spacing" textLength="108" x="174.5" y="199.2549">+getShipTripStoreDB()</text><!--MD5=[417afe9ce2d53f363e117793ec4c6513]
link GetContainersLoadedController to Company--><path codeLine="18" d="M171.08,69.01 C180.9,85.77 193.29,106.9 204.04,125.25 " fill="none" id="GetContainersLoadedController-to-Company" style="stroke:#A80036;stroke-width:1.0;stroke-dasharray:7.0,7.0;"/><polygon fill="#A80036" points="206.74,129.85,205.6401,120.0627,204.2118,125.5363,198.7382,124.1079,206.74,129.85" style="stroke:#A80036;stroke-width:1.0;"/><!--MD5=[db319706b1fdaba6ca7f5c2618a01fe0]
link GetContainersLoadedController to ShipTripStoreDB--><path codeLine="19" d="M152.49,69.33 C151.9,87.03 151.15,109.78 150.5,130 C148.86,181.09 147.02,239.87 145.81,278.58 " fill="none" id="GetContainersLoadedController-to-ShipTripStoreDB" style="stroke:#A80036;stroke-width:1.0;stroke-dasharray:7.0,7.0;"/><polygon fill="#A80036" points="145.66,283.67,149.9407,274.8001,145.8171,278.6725,141.9447,274.5488,145.66,283.67" style="stroke:#A80036;stroke-width:1.0;"/><!--MD5=[8a472e17fa1b8e6b82718bab5653081a]
link Company to ShipTripStoreDB--><path codeLine="20" d="M207.95,206.18 C194.89,229.83 178.03,260.32 164.98,283.94 " fill="none" id="Company-ShipTripStoreDB" style="stroke:#A80036;stroke-width:1.0;"/><polygon fill="#000000" points="191.0817,249.5521,198.0288,243.0568,192.8842,240.2139,191.0817,249.5521" style="stroke:#000000;stroke-width:1.0;"/><text fill="#000000" font-family="sans-serif" font-size="13" lengthAdjust="spacing" textLength="28" x="202.5" y="250.4951">uses</text><text fill="#000000" font-family="sans-serif" font-size="13" lengthAdjust="spacing" textLength="7" x="197.117" y="227.0892">1</text><text fill="#000000" font-family="sans-serif" font-size="13" lengthAdjust="spacing" textLength="7" x="161.1107" y="273.0055">1</text><!--MD5=[9000c0e8623fe32240425e52f37d1296]
@startuml

skinparam classAttributeIconSize 0

class GetContainersLoadedController{
    +getListLoadedContainers(containerID, shipmentID)
}

class ShipTripStoreDB {
    +getNextPortID(databaseConnection, mmsi)
    +getListLoadedContainers(databaseConnection, mmsi)
}

class Company {
    -designation
    +getShipTripStoreDB()
}

GetContainersLoadedController ..> Company
GetContainersLoadedController ..> ShipTripStoreDB
Company "1" - - "1" ShipTripStoreDB : uses >

@enduml

PlantUML version 1.2021.11(Sat Oct 02 14:26:11 BST 2021)
(GPL source distribution)
Java Runtime: OpenJDK Runtime Environment
JVM: OpenJDK 64-Bit Server VM
Default Encoding: Cp1252
Language: pt
Country: PT
--></g></svg>