<?xml version="1.0" encoding="UTF-8" standalone="no"?><svg xmlns="http://www.w3.org/2000/svg" xmlns:xlink="http://www.w3.org/1999/xlink" contentScriptType="application/ecmascript" contentStyleType="text/css" height="158px" preserveAspectRatio="none" style="width:787px;height:158px;background:#FFFFFF;" version="1.1" viewBox="0 0 787 158" width="787px" zoomAndPan="magnify"><defs><filter height="300%" id="flmezgpqbdoe6" width="300%" x="-1" y="-1"><feGaussianBlur result="blurOut" stdDeviation="2.0"/><feColorMatrix in="blurOut" result="blurOut2" type="matrix" values="0 0 0 0 0 0 0 0 0 0 0 0 0 0 0 0 0 0 .4 0"/><feOffset dx="4.0" dy="4.0" in="blurOut2" result="blurOut3"/><feBlend in="SourceGraphic" in2="blurOut3" mode="normal"/></filter></defs><g><!--MD5=[8ae808d068a8995f06b9b3ec51357f0b]
class AuthFacade--><rect codeLine="5" fill="#FEFECE" filter="url(#flmezgpqbdoe6)" height="137.6328" id="AuthFacade" style="stroke:#A80036;stroke-width:1.5;" width="465" x="7" y="7"/><ellipse cx="199.25" cy="23" fill="#ADD1B2" rx="11" ry="11" style="stroke:#A80036;stroke-width:1.0;"/><path d="M201.7188,28.875 Q201.1406,29.1875 200.5,29.3438 Q199.8594,29.5 199.1563,29.5 Q196.6563,29.5 195.3281,27.8281 Q194.0156,26.1563 194.0156,23 Q194.0156,19.8438 195.3281,18.1719 Q196.6563,16.5 199.1563,16.5 Q199.8594,16.5 200.5,16.6563 Q201.1563,16.8125 201.7188,17.125 L201.7188,19.9219 Q201.0938,19.3594 200.5,19.0938 Q199.9063,18.8125 199.2813,18.8125 Q197.9375,18.8125 197.25,19.875 Q196.5625,20.9375 196.5625,23 Q196.5625,25.0781 197.25,26.1406 Q197.9375,27.1875 199.2813,27.1875 Q199.9063,27.1875 200.5,26.9219 Q201.0938,26.6563 201.7188,26.0781 L201.7188,28.875 Z " fill="#000000"/><text fill="#000000" font-family="sans-serif" font-size="12" lengthAdjust="spacing" textLength="72" x="219.75" y="27.1543">AuthFacade</text><line style="stroke:#A80036;stroke-width:1.5;" x1="8" x2="471" y1="39" y2="39"/><line style="stroke:#A80036;stroke-width:1.5;" x1="8" x2="471" y1="47" y2="47"/><text fill="#000000" font-family="sans-serif" font-size="11" lengthAdjust="spacing" textLength="292" x="13" y="61.2104">+boolean addUserRole(String id, String description)</text><text fill="#000000" font-family="sans-serif" font-size="11" lengthAdjust="spacing" textLength="277" x="13" y="74.0151">+addUser(String name, String email, String pwd)</text><text fill="#000000" font-family="sans-serif" font-size="11" lengthAdjust="spacing" textLength="453" x="13" y="86.8198">+boolean addUserWithRole(String name, String email, String pwd, String roleId)</text><text fill="#000000" font-family="sans-serif" font-size="11" lengthAdjust="spacing" textLength="193" x="13" y="99.6245">+boolean existsUser(String email)</text><text fill="#000000" font-family="sans-serif" font-size="11" lengthAdjust="spacing" textLength="301" x="13" y="112.4292">+UserSession doLogin(String email, String password)</text><text fill="#000000" font-family="sans-serif" font-size="11" lengthAdjust="spacing" textLength="220" x="13" y="125.2339">+UserSession getCurrentUserSession()</text><text fill="#000000" font-family="sans-serif" font-size="11" lengthAdjust="spacing" textLength="97" x="13" y="138.0386">+void doLogout()</text><!--MD5=[c5b08e60048ef1bcd788d24cf324082e]
class UserSession--><rect codeLine="16" fill="#FEFECE" filter="url(#flmezgpqbdoe6)" height="99.2188" id="UserSession" style="stroke:#A80036;stroke-width:1.5;" width="266" x="507.5" y="26.5"/><ellipse cx="600.25" cy="42.5" fill="#ADD1B2" rx="11" ry="11" style="stroke:#A80036;stroke-width:1.0;"/><path d="M602.7188,48.375 Q602.1406,48.6875 601.5,48.8438 Q600.8594,49 600.1563,49 Q597.6563,49 596.3281,47.3281 Q595.0156,45.6563 595.0156,42.5 Q595.0156,39.3438 596.3281,37.6719 Q597.6563,36 600.1563,36 Q600.8594,36 601.5,36.1563 Q602.1563,36.3125 602.7188,36.625 L602.7188,39.4219 Q602.0938,38.8594 601.5,38.5938 Q600.9063,38.3125 600.2813,38.3125 Q598.9375,38.3125 598.25,39.375 Q597.5625,40.4375 597.5625,42.5 Q597.5625,44.5781 598.25,45.6406 Q598.9375,46.6875 600.2813,46.6875 Q600.9063,46.6875 601.5,46.4219 Q602.0938,46.1563 602.7188,45.5781 L602.7188,48.375 Z " fill="#000000"/><text fill="#000000" font-family="sans-serif" font-size="12" lengthAdjust="spacing" textLength="72" x="620.75" y="46.6543">UserSession</text><line style="stroke:#A80036;stroke-width:1.5;" x1="508.5" x2="772.5" y1="58.5" y2="58.5"/><line style="stroke:#A80036;stroke-width:1.5;" x1="508.5" x2="772.5" y1="66.5" y2="66.5"/><text fill="#000000" font-family="sans-serif" font-size="11" lengthAdjust="spacing" textLength="126" x="513.5" y="80.7104">+boolean isLoggedIn()</text><text fill="#000000" font-family="sans-serif" font-size="11" lengthAdjust="spacing" textLength="254" x="513.5" y="93.5151">+boolean isLoggedInwWithRole(String roleId)</text><text fill="#000000" font-family="sans-serif" font-size="11" lengthAdjust="spacing" textLength="131" x="513.5" y="106.3198">+String getUserName()</text><text fill="#000000" font-family="sans-serif" font-size="11" lengthAdjust="spacing" textLength="106" x="513.5" y="119.1245">+Email getUserId()</text><!--MD5=[7336b7862280f7183dc1a5cc7341c720]
@startuml
'https://plantuml.com/class-diagram

skinparam classAttributeIconSize 0

class AuthFacade{
    +boolean addUserRole(String id, String description)
    +addUser(String name, String email, String pwd)
    +boolean addUserWithRole(String name, String email, String pwd, String roleId)
    /'+boolean addUserWithRoles(String name, String email, String pwd, String[] rolesId)]'/
    +boolean existsUser(String email)
    +UserSession doLogin(String email, String password)
    +UserSession getCurrentUserSession()
    +void doLogout()
}

class UserSession{
    +boolean isLoggedIn()
    +boolean isLoggedInwWithRole(String roleId)
    +String getUserName()
    +Email getUserId()
}



@enduml

@startuml

skinparam classAttributeIconSize 0

class AuthFacade{
    +boolean addUserRole(String id, String description)
    +addUser(String name, String email, String pwd)
    +boolean addUserWithRole(String name, String email, String pwd, String roleId)
    +boolean existsUser(String email)
    +UserSession doLogin(String email, String password)
    +UserSession getCurrentUserSession()
    +void doLogout()
}

class UserSession{
    +boolean isLoggedIn()
    +boolean isLoggedInwWithRole(String roleId)
    +String getUserName()
    +Email getUserId()
}



@enduml

PlantUML version 1.2021.11(Sat Oct 02 14:26:11 WEST 2021)
(GPL source distribution)
Java Runtime: OpenJDK Runtime Environment
JVM: OpenJDK 64-Bit Server VM
Default Encoding: UTF-8
Language: en
Country: US
--></g></svg>