<?xml version="1.0" encoding="UTF-8" standalone="no"?><svg xmlns="http://www.w3.org/2000/svg" xmlns:xlink="http://www.w3.org/1999/xlink" contentScriptType="application/ecmascript" contentStyleType="text/css" height="107px" preserveAspectRatio="none" style="width:266px;height:107px;background:#FFFFFF;" version="1.1" viewBox="0 0 266 107" width="266px" zoomAndPan="magnify"><defs><filter height="300%" id="f1j7pse9dzfc0g" width="300%" x="-1" y="-1"><feGaussianBlur result="blurOut" stdDeviation="2.0"/><feColorMatrix in="blurOut" result="blurOut2" type="matrix" values="0 0 0 0 0 0 0 0 0 0 0 0 0 0 0 0 0 0 .4 0"/><feOffset dx="4.0" dy="4.0" in="blurOut2" result="blurOut3"/><feBlend in="SourceGraphic" in2="blurOut3" mode="normal"/></filter></defs><g><!--MD5=[3fd616f346a44cd59a91eb10b19e157c]
class User--><rect codeLine="6" fill="#FEFECE" filter="url(#f1j7pse9dzfc0g)" height="86.4141" id="User" style="stroke:#A80036;stroke-width:1.5;" width="70" x="7" y="7"/><ellipse cx="26.95" cy="23" fill="#ADD1B2" rx="11" ry="11" style="stroke:#A80036;stroke-width:1.0;"/><path d="M29.4188,28.875 Q28.8406,29.1875 28.2,29.3438 Q27.5594,29.5 26.8563,29.5 Q24.3563,29.5 23.0281,27.8281 Q21.7156,26.1563 21.7156,23 Q21.7156,19.8438 23.0281,18.1719 Q24.3563,16.5 26.8563,16.5 Q27.5594,16.5 28.2,16.6563 Q28.8563,16.8125 29.4188,17.125 L29.4188,19.9219 Q28.7938,19.3594 28.2,19.0938 Q27.6063,18.8125 26.9813,18.8125 Q25.6375,18.8125 24.95,19.875 Q24.2625,20.9375 24.2625,23 Q24.2625,25.0781 24.95,26.1406 Q25.6375,27.1875 26.9813,27.1875 Q27.6063,27.1875 28.2,26.9219 Q28.7938,26.6563 29.4188,26.0781 L29.4188,28.875 Z " fill="#000000"/><text fill="#000000" font-family="sans-serif" font-size="12" lengthAdjust="spacing" textLength="27" x="42.05" y="27.1543">User</text><line style="stroke:#A80036;stroke-width:1.5;" x1="8" x2="76" y1="39" y2="39"/><text fill="#000000" font-family="sans-serif" font-size="11" lengthAdjust="spacing" textLength="36" x="13" y="53.2104">-name</text><text fill="#000000" font-family="sans-serif" font-size="11" lengthAdjust="spacing" textLength="35" x="13" y="66.0151">-email</text><text fill="#000000" font-family="sans-serif" font-size="11" lengthAdjust="spacing" textLength="58" x="13" y="78.8198">-password</text><line style="stroke:#A80036;stroke-width:1.5;" x1="8" x2="76" y1="85.4141" y2="85.4141"/><!--MD5=[a3638c1e5b65d287ecad7f06f5c0f212]
class Role--><rect codeLine="12" fill="#FEFECE" filter="url(#f1j7pse9dzfc0g)" height="73.6094" id="Role" style="stroke:#A80036;stroke-width:1.5;" width="78" x="174" y="13"/><ellipse cx="198.45" cy="29" fill="#ADD1B2" rx="11" ry="11" style="stroke:#A80036;stroke-width:1.0;"/><path d="M200.9188,34.875 Q200.3406,35.1875 199.7,35.3438 Q199.0594,35.5 198.3563,35.5 Q195.8563,35.5 194.5281,33.8281 Q193.2156,32.1563 193.2156,29 Q193.2156,25.8438 194.5281,24.1719 Q195.8563,22.5 198.3563,22.5 Q199.0594,22.5 199.7,22.6563 Q200.3563,22.8125 200.9188,23.125 L200.9188,25.9219 Q200.2938,25.3594 199.7,25.0938 Q199.1063,24.8125 198.4813,24.8125 Q197.1375,24.8125 196.45,25.875 Q195.7625,26.9375 195.7625,29 Q195.7625,31.0781 196.45,32.1406 Q197.1375,33.1875 198.4813,33.1875 Q199.1063,33.1875 199.7,32.9219 Q200.2938,32.6563 200.9188,32.0781 L200.9188,34.875 Z " fill="#000000"/><text fill="#000000" font-family="sans-serif" font-size="12" lengthAdjust="spacing" textLength="25" x="214.55" y="33.1543">Role</text><line style="stroke:#A80036;stroke-width:1.5;" x1="175" x2="251" y1="45" y2="45"/><text fill="#000000" font-family="sans-serif" font-size="11" lengthAdjust="spacing" textLength="14" x="180" y="59.2104">-id</text><text fill="#000000" font-family="sans-serif" font-size="11" lengthAdjust="spacing" textLength="66" x="180" y="72.0151">-description</text><line style="stroke:#A80036;stroke-width:1.5;" x1="175" x2="251" y1="78.6094" y2="78.6094"/><!--MD5=[70c37dc9bfbc8656942103c36f1181e4]
link User to Role--><path codeLine="17" d="M77.2,50 C105.17,50 144.7,50 173.72,50 " fill="none" id="User-Role" style="stroke:#A80036;stroke-width:1.0;"/><text fill="#000000" font-family="sans-serif" font-size="13" lengthAdjust="spacing" textLength="35" x="108" y="46.0669">plays</text><text fill="#000000" font-family="sans-serif" font-size="13" lengthAdjust="spacing" textLength="7" x="85.1819" y="63.5848">*</text><text fill="#000000" font-family="sans-serif" font-size="13" lengthAdjust="spacing" textLength="8" x="158.0108" y="63.4495">1</text><!--MD5=[8c8685c837f634b39a04e6989d82bf8b]
@startuml
'https://plantuml.com/class-diagram

skinparam classAttributeIconSize 0
left to right direction

class User{
-name
-email
-password
}

class Role{
    -id
    -description
}

User "*" - - "1" Role : plays

@enduml

@startuml

skinparam classAttributeIconSize 0
left to right direction

class User{
-name
-email
-password
}

class Role{
    -id
    -description
}

User "*" - - "1" Role : plays

@enduml

PlantUML version 1.2021.11(Sat Oct 02 14:26:11 WEST 2021)
(GPL source distribution)
Java Runtime: OpenJDK Runtime Environment
JVM: OpenJDK 64-Bit Server VM
Default Encoding: UTF-8
Language: en
Country: US
--></g></svg>