<?xml version="1.0" encoding="UTF-8" standalone="no"?><svg xmlns="http://www.w3.org/2000/svg" xmlns:xlink="http://www.w3.org/1999/xlink" contentScriptType="application/ecmascript" contentStyleType="text/css" height="1248px" preserveAspectRatio="none" style="width:542px;height:1248px;background:#FFFFFF;" version="1.1" viewBox="0 0 542 1248" width="542px" zoomAndPan="magnify"><defs><filter height="300%" id="f1ibufw1hgo1cn" width="300%" x="-1" y="-1"><feGaussianBlur result="blurOut" stdDeviation="2.0"/><feColorMatrix in="blurOut" result="blurOut2" type="matrix" values="0 0 0 0 0 0 0 0 0 0 0 0 0 0 0 0 0 0 .4 0"/><feOffset dx="4.0" dy="4.0" in="blurOut2" result="blurOut3"/><feBlend in="SourceGraphic" in2="blurOut3" mode="normal"/></filter></defs><g><!--MD5=[02e4b9b7573f1156f41e60aa5b4e25a4]
class Company--><rect codeLine="3" fill="#FEFECE" filter="url(#f1ibufw1hgo1cn)" height="61.8359" id="Company" style="stroke:#A80036;stroke-width:1.5;" width="85" x="76.65" y="223"/><ellipse cx="91.65" cy="239" fill="#ADD1B2" rx="11" ry="11" style="stroke:#A80036;stroke-width:1.0;"/><path d="M93.65,235.5 Q93.8531,235 94.0875,234.75 Q94.3219,234.5 94.5875,234.5 Q95.0563,234.5 95.3531,234.7813 Q95.65,235.0625 95.65,235.7188 L95.65,237.2813 Q95.65,237.9375 95.3688,238.2188 Q95.0875,238.5 94.65,238.5 Q94.2594,238.5 94.0094,238.3281 Q93.7594,238.1563 93.65,237.7031 Q93.6031,237.3906 93.4313,237.2188 Q93.1188,236.8906 92.5563,236.7031 Q91.9938,236.5 91.4313,236.5 Q90.7281,236.5 90.1344,236.7813 Q89.5563,237.0625 89.1031,237.6875 Q88.65,238.3125 88.65,239.1719 L88.65,240.0938 Q88.65,241.125 89.4938,241.8125 Q90.3375,242.5 91.8375,242.5 Q92.7281,242.5 93.3531,242.2969 Q93.7125,242.1875 94.1188,241.8281 Q94.3844,241.625 94.525,241.5625 Q94.6656,241.5 94.8375,241.5 Q95.1656,241.5 95.4,241.7656 Q95.65,242.0156 95.65,242.375 Q95.65,242.7188 95.3063,243.125 Q94.8063,243.7188 94.0094,244.0469 Q92.9625,244.5 91.6813,244.5 Q90.1813,244.5 88.9781,243.9063 Q88.0094,243.4375 87.3219,242.4219 Q86.65,241.4063 86.65,240.2031 L86.65,239.1094 Q86.65,237.8594 87.2438,236.7656 Q87.8531,235.6719 88.9,235.0938 Q89.9625,234.5 91.15,234.5 Q91.8688,234.5 92.4938,234.75 Q93.1188,235 93.65,235.5 Z " fill="#000000"/><text fill="#000000" font-family="sans-serif" font-size="12" lengthAdjust="spacing" textLength="53" x="105.65" y="243.9102">Company</text><line style="stroke:#A80036;stroke-width:1.5;" x1="77.65" x2="160.65" y1="255" y2="255"/><line style="stroke:#A80036;stroke-width:1.5;" x1="77.65" x2="160.65" y1="263" y2="263"/><text fill="#000000" font-family="sans-serif" font-size="11" lengthAdjust="spacing" textLength="66" x="82.65" y="278.4189">+getShipBst()</text><!--MD5=[b4a9ab6cffd58937cfea07eb2954e1bd]
class BST--><rect codeLine="6" fill="#FEFECE" filter="url(#f1ibufw1hgo1cn)" height="48" id="BST" style="stroke:#A80036;stroke-width:1.5;" width="55" x="279.65" y="932"/><ellipse cx="294.65" cy="948" fill="#ADD1B2" rx="11" ry="11" style="stroke:#A80036;stroke-width:1.0;"/><path d="M296.65,944.5 Q296.8531,944 297.0875,943.75 Q297.3219,943.5 297.5875,943.5 Q298.0563,943.5 298.3531,943.7813 Q298.65,944.0625 298.65,944.7188 L298.65,946.2813 Q298.65,946.9375 298.3688,947.2188 Q298.0875,947.5 297.65,947.5 Q297.2594,947.5 297.0094,947.3281 Q296.7594,947.1563 296.65,946.7031 Q296.6031,946.3906 296.4313,946.2188 Q296.1188,945.8906 295.5563,945.7031 Q294.9938,945.5 294.4313,945.5 Q293.7281,945.5 293.1344,945.7813 Q292.5563,946.0625 292.1031,946.6875 Q291.65,947.3125 291.65,948.1719 L291.65,949.0938 Q291.65,950.125 292.4938,950.8125 Q293.3375,951.5 294.8375,951.5 Q295.7281,951.5 296.3531,951.2969 Q296.7125,951.1875 297.1188,950.8281 Q297.3844,950.625 297.525,950.5625 Q297.6656,950.5 297.8375,950.5 Q298.1656,950.5 298.4,950.7656 Q298.65,951.0156 298.65,951.375 Q298.65,951.7188 298.3063,952.125 Q297.8063,952.7188 297.0094,953.0469 Q295.9625,953.5 294.6813,953.5 Q293.1813,953.5 291.9781,952.9063 Q291.0094,952.4375 290.3219,951.4219 Q289.65,950.4063 289.65,949.2031 L289.65,948.1094 Q289.65,946.8594 290.2438,945.7656 Q290.8531,944.6719 291.9,944.0938 Q292.9625,943.5 294.15,943.5 Q294.8688,943.5 295.4938,943.75 Q296.1188,944 296.65,944.5 Z " fill="#000000"/><text fill="#000000" font-family="sans-serif" font-size="12" lengthAdjust="spacing" textLength="23" x="308.65" y="952.9102">BST</text><line style="stroke:#A80036;stroke-width:1.5;" x1="280.65" x2="333.65" y1="964" y2="964"/><line style="stroke:#A80036;stroke-width:1.5;" x1="280.65" x2="333.65" y1="972" y2="972"/><!--MD5=[0dc7f2ddb409b58bcf52b12238c25399]
class Ship--><rect codeLine="8" fill="#FEFECE" filter="url(#f1ibufw1hgo1cn)" height="75.6719" id="Ship" style="stroke:#A80036;stroke-width:1.5;" width="96" x="86.15" y="702"/><ellipse cx="118.7" cy="718" fill="#ADD1B2" rx="11" ry="11" style="stroke:#A80036;stroke-width:1.0;"/><path d="M120.7,714.5 Q120.9031,714 121.1375,713.75 Q121.3719,713.5 121.6375,713.5 Q122.1063,713.5 122.4031,713.7813 Q122.7,714.0625 122.7,714.7188 L122.7,716.2813 Q122.7,716.9375 122.4188,717.2188 Q122.1375,717.5 121.7,717.5 Q121.3094,717.5 121.0594,717.3281 Q120.8094,717.1563 120.7,716.7031 Q120.6531,716.3906 120.4813,716.2188 Q120.1688,715.8906 119.6063,715.7031 Q119.0438,715.5 118.4813,715.5 Q117.7781,715.5 117.1844,715.7813 Q116.6063,716.0625 116.1531,716.6875 Q115.7,717.3125 115.7,718.1719 L115.7,719.0938 Q115.7,720.125 116.5438,720.8125 Q117.3875,721.5 118.8875,721.5 Q119.7781,721.5 120.4031,721.2969 Q120.7625,721.1875 121.1688,720.8281 Q121.4344,720.625 121.575,720.5625 Q121.7156,720.5 121.8875,720.5 Q122.2156,720.5 122.45,720.7656 Q122.7,721.0156 122.7,721.375 Q122.7,721.7188 122.3563,722.125 Q121.8563,722.7188 121.0594,723.0469 Q120.0125,723.5 118.7313,723.5 Q117.2313,723.5 116.0281,722.9063 Q115.0594,722.4375 114.3719,721.4219 Q113.7,720.4063 113.7,719.2031 L113.7,718.1094 Q113.7,716.8594 114.2938,715.7656 Q114.9031,714.6719 115.95,714.0938 Q117.0125,713.5 118.2,713.5 Q118.9188,713.5 119.5438,713.75 Q120.1688,714 120.7,714.5 Z " fill="#000000"/><text fill="#000000" font-family="sans-serif" font-size="12" lengthAdjust="spacing" textLength="25" x="136.6" y="722.9102">Ship</text><line style="stroke:#A80036;stroke-width:1.5;" x1="87.15" x2="181.15" y1="734" y2="734"/><line style="stroke:#A80036;stroke-width:1.5;" x1="87.15" x2="181.15" y1="742" y2="742"/><text fill="#000000" font-family="sans-serif" font-size="11" lengthAdjust="spacing" textLength="56" x="92.15" y="757.4189">+getName()</text><text fill="#000000" font-family="sans-serif" font-size="11" lengthAdjust="spacing" textLength="84" x="92.15" y="771.2549">+getMovements()</text><!--MD5=[43adf079e4aaffd3a283c2c0454b404c]
class ShipsBST--><rect codeLine="13" fill="#FEFECE" filter="url(#f1ibufw1hgo1cn)" height="61.8359" id="ShipsBST" style="stroke:#A80036;stroke-width:1.5;" width="127" x="69.65" y="579"/><ellipse cx="102.65" cy="595" fill="#ADD1B2" rx="11" ry="11" style="stroke:#A80036;stroke-width:1.0;"/><path d="M104.65,591.5 Q104.8531,591 105.0875,590.75 Q105.3219,590.5 105.5875,590.5 Q106.0563,590.5 106.3531,590.7813 Q106.65,591.0625 106.65,591.7188 L106.65,593.2813 Q106.65,593.9375 106.3688,594.2188 Q106.0875,594.5 105.65,594.5 Q105.2594,594.5 105.0094,594.3281 Q104.7594,594.1563 104.65,593.7031 Q104.6031,593.3906 104.4313,593.2188 Q104.1188,592.8906 103.5563,592.7031 Q102.9938,592.5 102.4313,592.5 Q101.7281,592.5 101.1344,592.7813 Q100.5563,593.0625 100.1031,593.6875 Q99.65,594.3125 99.65,595.1719 L99.65,596.0938 Q99.65,597.125 100.4938,597.8125 Q101.3375,598.5 102.8375,598.5 Q103.7281,598.5 104.3531,598.2969 Q104.7125,598.1875 105.1188,597.8281 Q105.3844,597.625 105.525,597.5625 Q105.6656,597.5 105.8375,597.5 Q106.1656,597.5 106.4,597.7656 Q106.65,598.0156 106.65,598.375 Q106.65,598.7188 106.3063,599.125 Q105.8063,599.7188 105.0094,600.0469 Q103.9625,600.5 102.6813,600.5 Q101.1813,600.5 99.9781,599.9063 Q99.0094,599.4375 98.3219,598.4219 Q97.65,597.4063 97.65,596.2031 L97.65,595.1094 Q97.65,593.8594 98.2438,592.7656 Q98.8531,591.6719 99.9,591.0938 Q100.9625,590.5 102.15,590.5 Q102.8688,590.5 103.4938,590.75 Q104.1188,591 104.65,591.5 Z " fill="#000000"/><text fill="#000000" font-family="sans-serif" font-size="12" lengthAdjust="spacing" textLength="55" x="120.65" y="599.9102">ShipsBST</text><line style="stroke:#A80036;stroke-width:1.5;" x1="70.65" x2="195.65" y1="611" y2="611"/><line style="stroke:#A80036;stroke-width:1.5;" x1="70.65" x2="195.65" y1="619" y2="619"/><text fill="#000000" font-family="sans-serif" font-size="11" lengthAdjust="spacing" textLength="115" x="75.65" y="634.4189">+findShipByMmsi(MMSI)</text><!--MD5=[161eb210b6023c573fce756084aec649]
class ShipsBSTImo--><rect codeLine="17" fill="#FEFECE" filter="url(#f1ibufw1hgo1cn)" height="61.8359" id="ShipsBSTImo" style="stroke:#A80036;stroke-width:1.5;" width="110" x="418.15" y="579"/><ellipse cx="434.05" cy="595" fill="#ADD1B2" rx="11" ry="11" style="stroke:#A80036;stroke-width:1.0;"/><path d="M436.05,591.5 Q436.2531,591 436.4875,590.75 Q436.7219,590.5 436.9875,590.5 Q437.4562,590.5 437.7531,590.7813 Q438.05,591.0625 438.05,591.7188 L438.05,593.2813 Q438.05,593.9375 437.7687,594.2188 Q437.4875,594.5 437.05,594.5 Q436.6594,594.5 436.4094,594.3281 Q436.1594,594.1563 436.05,593.7031 Q436.0031,593.3906 435.8312,593.2188 Q435.5187,592.8906 434.9562,592.7031 Q434.3937,592.5 433.8312,592.5 Q433.1281,592.5 432.5344,592.7813 Q431.9562,593.0625 431.5031,593.6875 Q431.05,594.3125 431.05,595.1719 L431.05,596.0938 Q431.05,597.125 431.8937,597.8125 Q432.7375,598.5 434.2375,598.5 Q435.1281,598.5 435.7531,598.2969 Q436.1125,598.1875 436.5187,597.8281 Q436.7844,597.625 436.925,597.5625 Q437.0656,597.5 437.2375,597.5 Q437.5656,597.5 437.8,597.7656 Q438.05,598.0156 438.05,598.375 Q438.05,598.7188 437.7062,599.125 Q437.2062,599.7188 436.4094,600.0469 Q435.3625,600.5 434.0812,600.5 Q432.5812,600.5 431.3781,599.9063 Q430.4094,599.4375 429.7219,598.4219 Q429.05,597.4063 429.05,596.2031 L429.05,595.1094 Q429.05,593.8594 429.6437,592.7656 Q430.2531,591.6719 431.3,591.0938 Q432.3625,590.5 433.55,590.5 Q434.2687,590.5 434.8937,590.75 Q435.5187,591 436.05,591.5 Z " fill="#000000"/><text fill="#000000" font-family="sans-serif" font-size="12" lengthAdjust="spacing" textLength="76" x="448.25" y="599.9102">ShipsBSTImo</text><line style="stroke:#A80036;stroke-width:1.5;" x1="419.15" x2="527.15" y1="611" y2="611"/><line style="stroke:#A80036;stroke-width:1.5;" x1="419.15" x2="527.15" y1="619" y2="619"/><text fill="#000000" font-family="sans-serif" font-size="11" lengthAdjust="spacing" textLength="98" x="424.15" y="634.4189">+findShipByImo(imo)</text><!--MD5=[c18b351740c5329e2353b0d734c891ce]
class ShipsBSTCallSign--><rect codeLine="20" fill="#FEFECE" filter="url(#f1ibufw1hgo1cn)" height="61.8359" id="ShipsBSTCallSign" style="stroke:#A80036;stroke-width:1.5;" width="151" x="231.65" y="579"/><ellipse cx="254.3" cy="595" fill="#ADD1B2" rx="11" ry="11" style="stroke:#A80036;stroke-width:1.0;"/><path d="M256.3,591.5 Q256.5031,591 256.7375,590.75 Q256.9719,590.5 257.2375,590.5 Q257.7063,590.5 258.0031,590.7813 Q258.3,591.0625 258.3,591.7188 L258.3,593.2813 Q258.3,593.9375 258.0188,594.2188 Q257.7375,594.5 257.3,594.5 Q256.9094,594.5 256.6594,594.3281 Q256.4094,594.1563 256.3,593.7031 Q256.2531,593.3906 256.0813,593.2188 Q255.7688,592.8906 255.2063,592.7031 Q254.6438,592.5 254.0813,592.5 Q253.3781,592.5 252.7844,592.7813 Q252.2063,593.0625 251.7531,593.6875 Q251.3,594.3125 251.3,595.1719 L251.3,596.0938 Q251.3,597.125 252.1438,597.8125 Q252.9875,598.5 254.4875,598.5 Q255.3781,598.5 256.0031,598.2969 Q256.3625,598.1875 256.7688,597.8281 Q257.0344,597.625 257.175,597.5625 Q257.3156,597.5 257.4875,597.5 Q257.8156,597.5 258.05,597.7656 Q258.3,598.0156 258.3,598.375 Q258.3,598.7188 257.9563,599.125 Q257.4563,599.7188 256.6594,600.0469 Q255.6125,600.5 254.3313,600.5 Q252.8313,600.5 251.6281,599.9063 Q250.6594,599.4375 249.9719,598.4219 Q249.3,597.4063 249.3,596.2031 L249.3,595.1094 Q249.3,593.8594 249.8938,592.7656 Q250.5031,591.6719 251.55,591.0938 Q252.6125,590.5 253.8,590.5 Q254.5188,590.5 255.1438,590.75 Q255.7688,591 256.3,591.5 Z " fill="#000000"/><text fill="#000000" font-family="sans-serif" font-size="12" lengthAdjust="spacing" textLength="102" x="270" y="599.9102">ShipsBSTCallSign</text><line style="stroke:#A80036;stroke-width:1.5;" x1="232.65" x2="381.65" y1="611" y2="611"/><line style="stroke:#A80036;stroke-width:1.5;" x1="232.65" x2="381.65" y1="619" y2="619"/><text fill="#000000" font-family="sans-serif" font-size="11" lengthAdjust="spacing" textLength="139" x="237.65" y="634.4189">+findShipByCallsign(callsign)</text><!--MD5=[ea2206eefe09474e90beb17e18e6b3d8]
class ShipStore--><rect codeLine="24" fill="#FEFECE" filter="url(#f1ibufw1hgo1cn)" height="61.8359" id="ShipStore" style="stroke:#A80036;stroke-width:1.5;" width="96" x="167.15" y="439"/><ellipse cx="186.65" cy="455" fill="#ADD1B2" rx="11" ry="11" style="stroke:#A80036;stroke-width:1.0;"/><path d="M188.65,451.5 Q188.8531,451 189.0875,450.75 Q189.3219,450.5 189.5875,450.5 Q190.0563,450.5 190.3531,450.7813 Q190.65,451.0625 190.65,451.7188 L190.65,453.2813 Q190.65,453.9375 190.3688,454.2188 Q190.0875,454.5 189.65,454.5 Q189.2594,454.5 189.0094,454.3281 Q188.7594,454.1563 188.65,453.7031 Q188.6031,453.3906 188.4313,453.2188 Q188.1188,452.8906 187.5563,452.7031 Q186.9938,452.5 186.4313,452.5 Q185.7281,452.5 185.1344,452.7813 Q184.5563,453.0625 184.1031,453.6875 Q183.65,454.3125 183.65,455.1719 L183.65,456.0938 Q183.65,457.125 184.4938,457.8125 Q185.3375,458.5 186.8375,458.5 Q187.7281,458.5 188.3531,458.2969 Q188.7125,458.1875 189.1188,457.8281 Q189.3844,457.625 189.525,457.5625 Q189.6656,457.5 189.8375,457.5 Q190.1656,457.5 190.4,457.7656 Q190.65,458.0156 190.65,458.375 Q190.65,458.7188 190.3063,459.125 Q189.8063,459.7188 189.0094,460.0469 Q187.9625,460.5 186.6813,460.5 Q185.1813,460.5 183.9781,459.9063 Q183.0094,459.4375 182.3219,458.4219 Q181.65,457.4063 181.65,456.2031 L181.65,455.1094 Q181.65,453.8594 182.2438,452.7656 Q182.8531,451.6719 183.9,451.0938 Q184.9625,450.5 186.15,450.5 Q186.8688,450.5 187.4938,450.75 Q188.1188,451 188.65,451.5 Z " fill="#000000"/><text fill="#000000" font-family="sans-serif" font-size="12" lengthAdjust="spacing" textLength="54" x="201.65" y="459.9102">ShipStore</text><line style="stroke:#A80036;stroke-width:1.5;" x1="168.15" x2="262.15" y1="471" y2="471"/><line style="stroke:#A80036;stroke-width:1.5;" x1="168.15" x2="262.15" y1="479" y2="479"/><text fill="#000000" font-family="sans-serif" font-size="11" lengthAdjust="spacing" textLength="84" x="173.15" y="494.4189">getShipMmsiBst()</text><!--MD5=[1c0c3765e68dc4575d559b566278b914]
class ShipPosition--><rect codeLine="27" fill="#FEFECE" filter="url(#f1ibufw1hgo1cn)" height="117.1797" id="ShipPosition" style="stroke:#A80036;stroke-width:1.5;" width="102" x="8.15" y="1117"/><ellipse cx="23.15" cy="1133" fill="#ADD1B2" rx="11" ry="11" style="stroke:#A80036;stroke-width:1.0;"/><path d="M25.15,1129.5 Q25.3531,1129 25.5875,1128.75 Q25.8219,1128.5 26.0875,1128.5 Q26.5563,1128.5 26.8531,1128.7813 Q27.15,1129.0625 27.15,1129.7188 L27.15,1131.2813 Q27.15,1131.9375 26.8688,1132.2188 Q26.5875,1132.5 26.15,1132.5 Q25.7594,1132.5 25.5094,1132.3281 Q25.2594,1132.1563 25.15,1131.7031 Q25.1031,1131.3906 24.9313,1131.2188 Q24.6188,1130.8906 24.0563,1130.7031 Q23.4938,1130.5 22.9313,1130.5 Q22.2281,1130.5 21.6344,1130.7813 Q21.0563,1131.0625 20.6031,1131.6875 Q20.15,1132.3125 20.15,1133.1719 L20.15,1134.0938 Q20.15,1135.125 20.9938,1135.8125 Q21.8375,1136.5 23.3375,1136.5 Q24.2281,1136.5 24.8531,1136.2969 Q25.2125,1136.1875 25.6188,1135.8281 Q25.8844,1135.625 26.025,1135.5625 Q26.1656,1135.5 26.3375,1135.5 Q26.6656,1135.5 26.9,1135.7656 Q27.15,1136.0156 27.15,1136.375 Q27.15,1136.7188 26.8063,1137.125 Q26.3063,1137.7188 25.5094,1138.0469 Q24.4625,1138.5 23.1813,1138.5 Q21.6813,1138.5 20.4781,1137.9063 Q19.5094,1137.4375 18.8219,1136.4219 Q18.15,1135.4063 18.15,1134.2031 L18.15,1133.1094 Q18.15,1131.8594 18.7438,1130.7656 Q19.3531,1129.6719 20.4,1129.0938 Q21.4625,1128.5 22.65,1128.5 Q23.3688,1128.5 23.9938,1128.75 Q24.6188,1129 25.15,1129.5 Z " fill="#000000"/><text fill="#000000" font-family="sans-serif" font-size="12" lengthAdjust="spacing" textLength="70" x="37.15" y="1137.9102">ShipPosition</text><line style="stroke:#A80036;stroke-width:1.5;" x1="9.15" x2="109.15" y1="1149" y2="1149"/><line style="stroke:#A80036;stroke-width:1.5;" x1="9.15" x2="109.15" y1="1157" y2="1157"/><text fill="#000000" font-family="sans-serif" font-size="11" lengthAdjust="spacing" textLength="67" x="14.15" y="1172.4189">+getLatitude()</text><text fill="#000000" font-family="sans-serif" font-size="11" lengthAdjust="spacing" textLength="76" x="14.15" y="1186.2549">+getLongitude()</text><text fill="#000000" font-family="sans-serif" font-size="11" lengthAdjust="spacing" textLength="76" x="14.15" y="1200.0908">+getBaseTime()</text><text fill="#000000" font-family="sans-serif" font-size="11" lengthAdjust="spacing" textLength="48" x="14.15" y="1213.9268">+getSog()</text><text fill="#000000" font-family="sans-serif" font-size="11" lengthAdjust="spacing" textLength="48" x="14.15" y="1227.7627">+getCog()</text><!--MD5=[004e005a2edf96352d0772cab412880f]
class PositionsBST--><rect codeLine="35" fill="#FEFECE" filter="url(#f1ibufw1hgo1cn)" height="200.1953" id="PositionsBST" style="stroke:#A80036;stroke-width:1.5;" width="120" x="124.15" y="856"/><ellipse cx="145" cy="872" fill="#ADD1B2" rx="11" ry="11" style="stroke:#A80036;stroke-width:1.0;"/><path d="M147,868.5 Q147.2031,868 147.4375,867.75 Q147.6719,867.5 147.9375,867.5 Q148.4063,867.5 148.7031,867.7813 Q149,868.0625 149,868.7188 L149,870.2813 Q149,870.9375 148.7188,871.2188 Q148.4375,871.5 148,871.5 Q147.6094,871.5 147.3594,871.3281 Q147.1094,871.1563 147,870.7031 Q146.9531,870.3906 146.7813,870.2188 Q146.4688,869.8906 145.9063,869.7031 Q145.3438,869.5 144.7813,869.5 Q144.0781,869.5 143.4844,869.7813 Q142.9063,870.0625 142.4531,870.6875 Q142,871.3125 142,872.1719 L142,873.0938 Q142,874.125 142.8438,874.8125 Q143.6875,875.5 145.1875,875.5 Q146.0781,875.5 146.7031,875.2969 Q147.0625,875.1875 147.4688,874.8281 Q147.7344,874.625 147.875,874.5625 Q148.0156,874.5 148.1875,874.5 Q148.5156,874.5 148.75,874.7656 Q149,875.0156 149,875.375 Q149,875.7188 148.6563,876.125 Q148.1563,876.7188 147.3594,877.0469 Q146.3125,877.5 145.0313,877.5 Q143.5313,877.5 142.3281,876.9063 Q141.3594,876.4375 140.6719,875.4219 Q140,874.4063 140,873.2031 L140,872.1094 Q140,870.8594 140.5938,869.7656 Q141.2031,868.6719 142.25,868.0938 Q143.3125,867.5 144.5,867.5 Q145.2188,867.5 145.8438,867.75 Q146.4688,868 147,868.5 Z " fill="#000000"/><text fill="#000000" font-family="sans-serif" font-size="12" lengthAdjust="spacing" textLength="75" x="160.3" y="876.9102">PositionsBST</text><line style="stroke:#A80036;stroke-width:1.5;" x1="125.15" x2="243.15" y1="888" y2="888"/><line style="stroke:#A80036;stroke-width:1.5;" x1="125.15" x2="243.15" y1="896" y2="896"/><text fill="#000000" font-family="sans-serif" font-size="11" lengthAdjust="spacing" textLength="74" x="130.15" y="911.4189">+getStartDate()</text><text fill="#000000" font-family="sans-serif" font-size="11" lengthAdjust="spacing" textLength="69" x="130.15" y="925.2549">+getEndDate()</text><text fill="#000000" font-family="sans-serif" font-size="11" lengthAdjust="spacing" textLength="68" x="130.15" y="939.0908">+getMaxSog()</text><text fill="#000000" font-family="sans-serif" font-size="11" lengthAdjust="spacing" textLength="74" x="130.15" y="952.9268">+getMeanSog()</text><text fill="#000000" font-family="sans-serif" font-size="11" lengthAdjust="spacing" textLength="74" x="130.15" y="966.7627">+getMeanCog()</text><text fill="#000000" font-family="sans-serif" font-size="11" lengthAdjust="spacing" textLength="99" x="130.15" y="980.5986">+getDepartLatitude()</text><text fill="#000000" font-family="sans-serif" font-size="11" lengthAdjust="spacing" textLength="108" x="130.15" y="994.4346">+getDepartLongitude()</text><text fill="#000000" font-family="sans-serif" font-size="11" lengthAdjust="spacing" textLength="99" x="130.15" y="1008.2705">+getArrivalLatitude()</text><text fill="#000000" font-family="sans-serif" font-size="11" lengthAdjust="spacing" textLength="108" x="130.15" y="1022.1064">+getArrivalLongitude()</text><text fill="#000000" font-family="sans-serif" font-size="11" lengthAdjust="spacing" textLength="101" x="130.15" y="1035.9424">+getTravelDistance()</text><text fill="#000000" font-family="sans-serif" font-size="11" lengthAdjust="spacing" textLength="95" x="130.15" y="1049.7783">+getDeltaDistance()</text><!--MD5=[cc1f51a30facb0482ef9075e429344f3]
class MovementSummaryController--><rect codeLine="50" fill="#FEFECE" filter="url(#f1ibufw1hgo1cn)" height="61.8359" id="MovementSummaryController" style="stroke:#A80036;stroke-width:1.5;" width="195" x="117.65" y="7"/><ellipse cx="132.65" cy="23" fill="#ADD1B2" rx="11" ry="11" style="stroke:#A80036;stroke-width:1.0;"/><path d="M134.65,19.5 Q134.8531,19 135.0875,18.75 Q135.3219,18.5 135.5875,18.5 Q136.0563,18.5 136.3531,18.7813 Q136.65,19.0625 136.65,19.7188 L136.65,21.2813 Q136.65,21.9375 136.3688,22.2188 Q136.0875,22.5 135.65,22.5 Q135.2594,22.5 135.0094,22.3281 Q134.7594,22.1563 134.65,21.7031 Q134.6031,21.3906 134.4313,21.2188 Q134.1188,20.8906 133.5563,20.7031 Q132.9938,20.5 132.4313,20.5 Q131.7281,20.5 131.1344,20.7813 Q130.5563,21.0625 130.1031,21.6875 Q129.65,22.3125 129.65,23.1719 L129.65,24.0938 Q129.65,25.125 130.4938,25.8125 Q131.3375,26.5 132.8375,26.5 Q133.7281,26.5 134.3531,26.2969 Q134.7125,26.1875 135.1188,25.8281 Q135.3844,25.625 135.525,25.5625 Q135.6656,25.5 135.8375,25.5 Q136.1656,25.5 136.4,25.7656 Q136.65,26.0156 136.65,26.375 Q136.65,26.7188 136.3063,27.125 Q135.8063,27.7188 135.0094,28.0469 Q133.9625,28.5 132.6813,28.5 Q131.1813,28.5 129.9781,27.9063 Q129.0094,27.4375 128.3219,26.4219 Q127.65,25.4063 127.65,24.2031 L127.65,23.1094 Q127.65,21.8594 128.2438,20.7656 Q128.8531,19.6719 129.9,19.0938 Q130.9625,18.5 132.15,18.5 Q132.8688,18.5 133.4938,18.75 Q134.1188,19 134.65,19.5 Z " fill="#000000"/><text fill="#000000" font-family="sans-serif" font-size="12" lengthAdjust="spacing" textLength="163" x="146.65" y="27.9102">MovementSummaryController</text><line style="stroke:#A80036;stroke-width:1.5;" x1="118.65" x2="311.65" y1="39" y2="39"/><line style="stroke:#A80036;stroke-width:1.5;" x1="118.65" x2="311.65" y1="47" y2="47"/><text fill="#000000" font-family="sans-serif" font-size="11" lengthAdjust="spacing" textLength="169" x="123.65" y="62.4189">+getShipMovementSummary(MMSI)</text><!--MD5=[238769064e7448fcd22bd18bbb28f97c]
class MovementSummaryDto--><rect codeLine="54" fill="#FEFECE" filter="url(#f1ibufw1hgo1cn)" height="214.0313" id="MovementSummaryDto" style="stroke:#A80036;stroke-width:1.5;" width="160" x="268.15" y="147"/><ellipse cx="283.15" cy="163" fill="#ADD1B2" rx="11" ry="11" style="stroke:#A80036;stroke-width:1.0;"/><path d="M285.15,159.5 Q285.3531,159 285.5875,158.75 Q285.8219,158.5 286.0875,158.5 Q286.5563,158.5 286.8531,158.7813 Q287.15,159.0625 287.15,159.7188 L287.15,161.2813 Q287.15,161.9375 286.8688,162.2188 Q286.5875,162.5 286.15,162.5 Q285.7594,162.5 285.5094,162.3281 Q285.2594,162.1563 285.15,161.7031 Q285.1031,161.3906 284.9313,161.2188 Q284.6188,160.8906 284.0563,160.7031 Q283.4938,160.5 282.9313,160.5 Q282.2281,160.5 281.6344,160.7813 Q281.0563,161.0625 280.6031,161.6875 Q280.15,162.3125 280.15,163.1719 L280.15,164.0938 Q280.15,165.125 280.9938,165.8125 Q281.8375,166.5 283.3375,166.5 Q284.2281,166.5 284.8531,166.2969 Q285.2125,166.1875 285.6188,165.8281 Q285.8844,165.625 286.025,165.5625 Q286.1656,165.5 286.3375,165.5 Q286.6656,165.5 286.9,165.7656 Q287.15,166.0156 287.15,166.375 Q287.15,166.7188 286.8063,167.125 Q286.3063,167.7188 285.5094,168.0469 Q284.4625,168.5 283.1813,168.5 Q281.6813,168.5 280.4781,167.9063 Q279.5094,167.4375 278.8219,166.4219 Q278.15,165.4063 278.15,164.2031 L278.15,163.1094 Q278.15,161.8594 278.7438,160.7656 Q279.3531,159.6719 280.4,159.0938 Q281.4625,158.5 282.65,158.5 Q283.3688,158.5 283.9938,158.75 Q284.6188,159 285.15,159.5 Z " fill="#000000"/><text fill="#000000" font-family="sans-serif" font-size="12" lengthAdjust="spacing" textLength="128" x="297.15" y="167.9102">MovementSummaryDto</text><line style="stroke:#A80036;stroke-width:1.5;" x1="269.15" x2="427.15" y1="179" y2="179"/><text fill="#000000" font-family="sans-serif" font-size="11" lengthAdjust="spacing" textLength="26" x="274.15" y="194.4189">name</text><text fill="#000000" font-family="sans-serif" font-size="11" lengthAdjust="spacing" textLength="44" x="274.15" y="208.2549">startDate</text><text fill="#000000" font-family="sans-serif" font-size="11" lengthAdjust="spacing" textLength="40" x="274.15" y="222.0908">endDate</text><text fill="#000000" font-family="sans-serif" font-size="11" lengthAdjust="spacing" textLength="39" x="274.15" y="235.9268">maxSog</text><text fill="#000000" font-family="sans-serif" font-size="11" lengthAdjust="spacing" textLength="45" x="274.15" y="249.7627">meanSog</text><text fill="#000000" font-family="sans-serif" font-size="11" lengthAdjust="spacing" textLength="45" x="274.15" y="263.5986">meanCog</text><text fill="#000000" font-family="sans-serif" font-size="11" lengthAdjust="spacing" textLength="69" x="274.15" y="277.4346">departLatitude</text><text fill="#000000" font-family="sans-serif" font-size="11" lengthAdjust="spacing" textLength="78" x="274.15" y="291.2705">departLongitude</text><text fill="#000000" font-family="sans-serif" font-size="11" lengthAdjust="spacing" textLength="68" x="274.15" y="305.1064">arrivalLatitude</text><text fill="#000000" font-family="sans-serif" font-size="11" lengthAdjust="spacing" textLength="77" x="274.15" y="318.9424">arrivalLongitude</text><text fill="#000000" font-family="sans-serif" font-size="11" lengthAdjust="spacing" textLength="59" x="274.15" y="332.7783">travelledDist</text><text fill="#000000" font-family="sans-serif" font-size="11" lengthAdjust="spacing" textLength="41" x="274.15" y="346.6143">deltaDist</text><line style="stroke:#A80036;stroke-width:1.5;" x1="269.15" x2="427.15" y1="353.0313" y2="353.0313"/><!--MD5=[2ad440eb4c268cd15176507b05b692d1]
link MovementSummaryController to Company--><path codeLine="69" d="M201.6,69.21 C183.98,108.48 153.28,176.92 134.72,218.29 " fill="none" id="MovementSummaryController-to-Company" style="stroke:#A80036;stroke-width:1.0;stroke-dasharray:7.0,7.0;"/><polygon fill="#A80036" points="132.63,222.95,139.9539,216.3651,134.67,218.3851,132.65,213.1012,132.63,222.95" style="stroke:#A80036;stroke-width:1.0;"/><!--MD5=[a5a36ec968898c99b4e7270e48bb1d81]
link MovementSummaryController to ShipStore--><path codeLine="70" d="M215.15,69.24 C215.15,146.49 215.15,350.85 215.15,433.53 " fill="none" id="MovementSummaryController-to-ShipStore" style="stroke:#A80036;stroke-width:1.0;stroke-dasharray:7.0,7.0;"/><polygon fill="#A80036" points="215.15,438.8,219.15,429.8,215.15,433.8,211.15,429.8,215.15,438.8" style="stroke:#A80036;stroke-width:1.0;"/><!--MD5=[1960f9291725dd5f137d6c3422a790cc]
link MovementSummaryController to MovementSummaryDto--><path codeLine="71" d="M233.92,69.21 C246.67,89.72 264.36,118.18 282.01,146.59 " fill="none" id="MovementSummaryController-MovementSummaryDto" style="stroke:#A80036;stroke-width:1.0;"/><polygon fill="#000000" points="269.7892,112.4225,267.511,103.1888,262.5187,106.2914,269.7892,112.4225" style="stroke:#000000;stroke-width:1.0;"/><text fill="#000000" font-family="sans-serif" font-size="13" lengthAdjust="spacing" textLength="43" x="276.15" y="113.4951">creates</text><!--MD5=[37a14a5de6d6fd738aee271300f4b5c8]
link Company to Ship--><path codeLine="72" d="M103.67,285.22 C71.89,351.51 6,513.94 52.15,641 C59.76,661.95 74.03,681.56 88.56,697.64 " fill="none" id="Company-to-Ship" style="stroke:#A80036;stroke-width:1.0;"/><polygon fill="#A80036" points="92.25,701.65,89.0892,692.3221,88.8604,697.9743,83.2082,697.7455,92.25,701.65" style="stroke:#A80036;stroke-width:1.0;"/><text fill="#000000" font-family="sans-serif" font-size="13" lengthAdjust="spacing" textLength="37" x="38.15" y="545.4951">knows</text><text fill="#000000" font-family="sans-serif" font-size="13" lengthAdjust="spacing" textLength="7" x="93.0519" y="306.2406">1</text><text fill="#000000" font-family="sans-serif" font-size="13" lengthAdjust="spacing" textLength="5" x="79.6188" y="691.2371">*</text><!--MD5=[6b4a94d80660e97c6833bde801bd4c89]
link Company to ShipStore--><path codeLine="73" d="M118.61,285.06 C119.3,317.62 124.18,370.12 146.15,409 C152.48,420.2 161.71,430.31 171.37,438.91 " fill="none" id="Company-ShipStore" style="stroke:#A80036;stroke-width:1.0;"/><polygon fill="#000000" points="152.7719,404.9054,152.6178,395.3961,147.0578,397.3028,152.7719,404.9054" style="stroke:#000000;stroke-width:1.0;"/><text fill="#000000" font-family="sans-serif" font-size="13" lengthAdjust="spacing" textLength="28" x="160.15" y="405.4951">uses</text><text fill="#000000" font-family="sans-serif" font-size="13" lengthAdjust="spacing" textLength="7" x="110.8146" y="306.2958">1</text><text fill="#000000" font-family="sans-serif" font-size="13" lengthAdjust="spacing" textLength="7" x="154.0275" y="427.9106">1</text><!--MD5=[0392011a95c4539f981148bd1b78ee80]
link ShipStore to ShipsBSTCallSign--><path codeLine="74" d="M235.34,501.28 C250.68,524.29 271.68,555.79 287.01,578.79 " fill="none" id="ShipStore-ShipsBSTCallSign" style="stroke:#A80036;stroke-width:1.0;"/><polygon fill="#000000" points="274.9234,544.3361,272.3517,535.1799,267.4609,538.4402,274.9234,544.3361" style="stroke:#000000;stroke-width:1.0;"/><text fill="#000000" font-family="sans-serif" font-size="13" lengthAdjust="spacing" textLength="28" x="281.15" y="545.4951">uses</text><text fill="#000000" font-family="sans-serif" font-size="13" lengthAdjust="spacing" textLength="7" x="231.5215" y="522.312">1</text><text fill="#000000" font-family="sans-serif" font-size="13" lengthAdjust="spacing" textLength="7" x="275.1343" y="568.2512">1</text><!--MD5=[c2acce4d7c8ab8c40d74533e9dec3e3c]
link ShipStore to ShipsBST--><path codeLine="75" d="M197.15,501.28 C183.48,524.29 164.76,555.79 151.1,578.79 " fill="none" id="ShipStore-ShipsBST" style="stroke:#A80036;stroke-width:1.0;"/><polygon fill="#000000" points="181.5961,544.4744,188.7428,538.1993,183.6895,535.197,181.5961,544.4744" style="stroke:#000000;stroke-width:1.0;"/><text fill="#000000" font-family="sans-serif" font-size="13" lengthAdjust="spacing" textLength="28" x="193.15" y="545.4951">uses</text><text fill="#000000" font-family="sans-serif" font-size="13" lengthAdjust="spacing" textLength="7" x="186.0516" y="522.312">1</text><text fill="#000000" font-family="sans-serif" font-size="13" lengthAdjust="spacing" textLength="7" x="147.0803" y="568.2512">1</text><!--MD5=[7a77035afec3903902857ccfcdd47cc1]
link ShipStore to ShipsBSTImo--><path codeLine="76" d="M263.38,496.79 C307.28,520.28 372.06,554.93 418,579.5 " fill="none" id="ShipStore-ShipsBSTImo" style="stroke:#A80036;stroke-width:1.0;"/><polygon fill="#000000" points="368.5588,542.5342,361.9694,535.6763,359.1969,540.8593,368.5588,542.5342" style="stroke:#000000;stroke-width:1.0;"/><text fill="#000000" font-family="sans-serif" font-size="13" lengthAdjust="spacing" textLength="28" x="373.15" y="545.4951">uses</text><text fill="#000000" font-family="sans-serif" font-size="13" lengthAdjust="spacing" textLength="7" x="271.3012" y="497.2018">1</text><text fill="#000000" font-family="sans-serif" font-size="13" lengthAdjust="spacing" textLength="7" x="403.1189" y="571.8563">1</text><!--MD5=[b457ea32acbd230d0e22037aaab2ac98]
link ShipsBST to Ship--><path codeLine="77" d="M133.38,641.01 C133.51,657.63 133.68,678.55 133.82,696.79 " fill="none" id="ShipsBST-to-Ship" style="stroke:#A80036;stroke-width:1.0;stroke-dasharray:7.0,7.0;"/><polygon fill="#A80036" points="133.86,701.85,137.7827,692.816,133.8171,696.8502,129.783,692.8846,133.86,701.85" style="stroke:#A80036;stroke-width:1.0;"/><!--MD5=[dd17fb222bdf6a9c535c11495c7c3619]
link ShipsBSTImo to Ship--><path codeLine="78" d="M417.83,633.98 C411.88,636.38 405.9,638.76 400.15,641 C326.7,669.61 241.04,700.78 187.19,720.11 " fill="none" id="ShipsBSTImo-to-Ship" style="stroke:#A80036;stroke-width:1.0;stroke-dasharray:7.0,7.0;"/><polygon fill="#A80036" points="182.4,721.83,192.2213,722.5662,187.1081,720.1465,189.5277,715.0333,182.4,721.83" style="stroke:#A80036;stroke-width:1.0;"/><!--MD5=[f20b9417a46d21f71d320e71eeec7f90]
link ShipsBSTCallSign to Ship--><path codeLine="79" d="M266.59,641.01 C242.7,658.69 212.22,681.23 186.53,700.24 " fill="none" id="ShipsBSTCallSign-to-Ship" style="stroke:#A80036;stroke-width:1.0;stroke-dasharray:7.0,7.0;"/><polygon fill="#A80036" points="182.45,703.26,192.0673,701.1368,186.4738,700.2921,187.3186,694.6986,182.45,703.26" style="stroke:#A80036;stroke-width:1.0;"/><!--MD5=[f56e222e1748568825f030a9b791275e]
link Ship to ShipPosition--><path codeLine="80" d="M100.53,778.13 C83.66,799.3 64.97,827.29 56.15,856 C29.16,943.88 38.49,1051.94 48.35,1116.91 " fill="none" id="Ship-ShipPosition" style="stroke:#A80036;stroke-width:1.0;"/><polygon fill="#000000" points="60.3889,961.1175,64.6705,952.6252,58.8611,951.7305,60.3889,961.1175" style="stroke:#000000;stroke-width:1.0;"/><text fill="#000000" font-family="sans-serif" font-size="13" lengthAdjust="spacing" textLength="35" x="70.15" y="961.4951">sends</text><text fill="#000000" font-family="sans-serif" font-size="13" lengthAdjust="spacing" textLength="7" x="87.614" y="799.0312">1</text><text fill="#000000" font-family="sans-serif" font-size="13" lengthAdjust="spacing" textLength="5" x="41.7291" y="1106.2999">*</text><!--MD5=[bd16fc4b2a08274ec71edc6d573c9239]
link Ship to PositionsBST--><path codeLine="81" d="M142.86,778.28 C147.9,799.83 154.49,828.07 160.93,855.64 " fill="none" id="Ship-PositionsBST" style="stroke:#A80036;stroke-width:1.0;"/><polygon fill="#000000" points="160.2873,822.0447,161.0918,812.5682,155.368,813.9052,160.2873,822.0447" style="stroke:#000000;stroke-width:1.0;"/><text fill="#000000" font-family="sans-serif" font-size="13" lengthAdjust="spacing" textLength="28" x="168.15" y="822.4951">uses</text><text fill="#000000" font-family="sans-serif" font-size="13" lengthAdjust="spacing" textLength="7" x="136.6903" y="799.2052">1</text><text fill="#000000" font-family="sans-serif" font-size="13" lengthAdjust="spacing" textLength="7" x="151.9678" y="845.1832">1</text><!--MD5=[34b80baad36b2d2bd6b6893c22d217b3]
link PositionsBST to ShipPosition--><path codeLine="82" d="M127.14,1056.2 C116.16,1075.31 104.95,1094.81 94.88,1112.33 " fill="none" id="PositionsBST-to-ShipPosition" style="stroke:#A80036;stroke-width:1.0;stroke-dasharray:7.0,7.0;"/><polygon fill="#A80036" points="92.35,1116.74,100.315,1110.947,94.8507,1112.4103,93.3874,1106.9459,92.35,1116.74" style="stroke:#A80036;stroke-width:1.0;"/><!--MD5=[e18dbd49a52e60917b88bf3b4a72eceb]
link ShipsBST to BST--><path codeLine="83" d="M157.55,641.01 C170.85,658.23 187.03,680.6 199.15,702 C239.29,772.85 273.87,861.56 292.49,912.9 " fill="none" id="ShipsBST-to-BST" style="stroke:#A80036;stroke-width:1.0;"/><polygon fill="none" points="299.12,910.66,299.25,931.85,285.94,915.37,299.12,910.66" style="stroke:#A80036;stroke-width:1.0;"/><!--MD5=[0abc6ae50c94f218df3534f80cea96bd]
link ShipsBSTImo to BST--><path codeLine="84" d="M458.56,641.23 C428.76,702.99 360.85,843.72 327.04,913.79 " fill="none" id="ShipsBSTImo-to-BST" style="stroke:#A80036;stroke-width:1.0;"/><polygon fill="none" points="333.28,916.97,318.28,931.94,320.67,910.88,333.28,916.97" style="stroke:#A80036;stroke-width:1.0;"/><!--MD5=[a3204288f96958ede1c73db2e0f8f4fe]
link ShipsBSTCallSign to BST--><path codeLine="85" d="M307.15,641.23 C307.15,702.33 307.15,840.71 307.15,911.51 " fill="none" id="ShipsBSTCallSign-to-BST" style="stroke:#A80036;stroke-width:1.0;"/><polygon fill="none" points="314.15,911.94,307.15,931.94,300.15,911.94,314.15,911.94" style="stroke:#A80036;stroke-width:1.0;"/><!--MD5=[1188dce5d03092776280b0cb741a6d56]
link PositionsBST to BST--><path codeLine="86" d="M244.21,956 C249.28,956 254.35,956 259.42,956 " fill="none" id="PositionsBST-to-BST" style="stroke:#A80036;stroke-width:1.0;"/><polygon fill="none" points="259.61,949,279.61,956,259.61,963,259.61,949" style="stroke:#A80036;stroke-width:1.0;"/><!--MD5=[3e09a0fb0a87edc9be8af8f9e2247512]
@startuml
skinparam classAttributeIconSize 0

class Company{
    +getShipBst()
}
class BST{}

class Ship {
    +getName()
    +getMovements()
}

class ShipsBST{
    +findShipByMmsi(MMSI)
}

class ShipsBSTImo{
    +findShipByImo(imo)
}
class ShipsBSTCallSign{
     +findShipByCallsign(callsign)
 }

class ShipStore{
    getShipMmsiBst()
}
class ShipPosition{
    +getLatitude()
    +getLongitude()
    +getBaseTime()
    +getSog()
    +getCog()
}

class PositionsBST {
    +getStartDate()
    +getEndDate()
    +getMaxSog()
    +getMeanSog()
    +getMeanCog()
    +getDepartLatitude()
    +getDepartLongitude()
    +getArrivalLatitude()
    +getArrivalLongitude()
    +getTravelDistance()
    +getDeltaDistance()
}


class MovementSummaryController {
+getShipMovementSummary(MMSI)
}

class MovementSummaryDto{
    name
    startDate
    endDate
    maxSog
    meanSog
    meanCog
    departLatitude
    departLongitude
    arrivalLatitude
    arrivalLongitude
    travelledDist
    deltaDist
}

MovementSummaryController ..> Company
MovementSummaryController ..> ShipStore
MovementSummaryController - - MovementSummaryDto: creates >
Company "1" - -> "*" Ship : knows
Company "1" - - "1" ShipStore : uses >
ShipStore "1" - - "1" ShipsBSTCallSign : uses >
ShipStore "1" - - "1" ShipsBST : uses >
ShipStore "1" - - "1" ShipsBSTImo : uses >
ShipsBST ..> Ship
ShipsBSTImo ..> Ship
ShipsBSTCallSign ..> Ship
Ship "1" - - "*" ShipPosition : sends >
Ship "1" - - "1" PositionsBST : uses >
PositionsBST ..> ShipPosition
ShipsBST -|> BST
ShipsBSTImo -|> BST
ShipsBSTCallSign -|> BST
PositionsBST -|> BST

@enduml

PlantUML version 1.2021.11(Sat Oct 02 14:26:11 BST 2021)
(GPL source distribution)
Java Runtime: OpenJDK Runtime Environment
JVM: OpenJDK 64-Bit Server VM
Default Encoding: Cp1252
Language: pt
Country: PT
--></g></svg>