<?xml version="1.0" encoding="UTF-8" standalone="no"?><svg xmlns="http://www.w3.org/2000/svg" xmlns:xlink="http://www.w3.org/1999/xlink" contentScriptType="application/ecmascript" contentStyleType="text/css" height="377px" preserveAspectRatio="none" style="width:350px;height:377px;background:#FFFFFF;" version="1.1" viewBox="0 0 350 377" width="350px" zoomAndPan="magnify"><defs><filter height="300%" id="f16bbepq1m8cvr" width="300%" x="-1" y="-1"><feGaussianBlur result="blurOut" stdDeviation="2.0"/><feColorMatrix in="blurOut" result="blurOut2" type="matrix" values="0 0 0 0 0 0 0 0 0 0 0 0 0 0 0 0 0 0 .4 0"/><feOffset dx="4.0" dy="4.0" in="blurOut2" result="blurOut3"/><feBlend in="SourceGraphic" in2="blurOut3" mode="normal"/></filter></defs><g><rect fill="#FFFFFF" filter="url(#f16bbepq1m8cvr)" height="174.1094" style="stroke:#A80036;stroke-width:1.0;" width="10" x="43.5" y="99.6094"/><rect fill="#FFFFFF" filter="url(#f16bbepq1m8cvr)" height="160.7578" style="stroke:#A80036;stroke-width:1.0;" width="10" x="301.5" y="121.9609"/><rect fill="#FFFFFF" filter="url(#f16bbepq1m8cvr)" height="100.0547" style="stroke:#A80036;stroke-width:1.0;" width="10" x="306.5" y="182.6641"/><line style="stroke:#A80036;stroke-width:1.0;stroke-dasharray:5.0,5.0;" x1="48" x2="48" y1="89.6094" y2="291.7188"/><line style="stroke:#A80036;stroke-width:1.0;stroke-dasharray:5.0,5.0;" x1="306.5" x2="306.5" y1="89.6094" y2="291.7188"/><text fill="#000000" font-family="sans-serif" font-size="14" lengthAdjust="spacing" textLength="81" x="5" y="86.5332">Ship Captain</text><ellipse cx="48.5" cy="15" fill="#FEFECE" filter="url(#f16bbepq1m8cvr)" rx="8" ry="8" style="stroke:#A80036;stroke-width:2.0;"/><path d="M48.5,23 L48.5,50 M35.5,31 L61.5,31 M48.5,50 L35.5,65 M48.5,50 L61.5,65 " fill="none" filter="url(#f16bbepq1m8cvr)" style="stroke:#A80036;stroke-width:2.0;"/><text fill="#000000" font-family="sans-serif" font-size="14" lengthAdjust="spacing" textLength="81" x="5" y="305.252">Ship Captain</text><ellipse cx="48.5" cy="318.3281" fill="#FEFECE" filter="url(#f16bbepq1m8cvr)" rx="8" ry="8" style="stroke:#A80036;stroke-width:2.0;"/><path d="M48.5,326.3281 L48.5,353.3281 M35.5,334.3281 L61.5,334.3281 M48.5,353.3281 L35.5,368.3281 M48.5,353.3281 L61.5,368.3281 " fill="none" filter="url(#f16bbepq1m8cvr)" style="stroke:#A80036;stroke-width:2.0;"/><rect fill="#FEFECE" filter="url(#f16bbepq1m8cvr)" height="31.6094" style="stroke:#A80036;stroke-width:1.5;" width="64" x="272.5" y="53"/><text fill="#000000" font-family="sans-serif" font-size="14" lengthAdjust="spacing" textLength="50" x="279.5" y="74.5332">:System</text><rect fill="#FEFECE" filter="url(#f16bbepq1m8cvr)" height="31.6094" style="stroke:#A80036;stroke-width:1.5;" width="64" x="272.5" y="290.7188"/><text fill="#000000" font-family="sans-serif" font-size="14" lengthAdjust="spacing" textLength="50" x="279.5" y="312.252">:System</text><rect fill="#FFFFFF" filter="url(#f16bbepq1m8cvr)" height="174.1094" style="stroke:#A80036;stroke-width:1.0;" width="10" x="43.5" y="99.6094"/><rect fill="#FFFFFF" filter="url(#f16bbepq1m8cvr)" height="160.7578" style="stroke:#A80036;stroke-width:1.0;" width="10" x="301.5" y="121.9609"/><rect fill="#FFFFFF" filter="url(#f16bbepq1m8cvr)" height="100.0547" style="stroke:#A80036;stroke-width:1.0;" width="10" x="306.5" y="182.6641"/><polygon fill="#A80036" points="289.5,117.9609,299.5,121.9609,289.5,125.9609,293.5,121.9609" style="stroke:#A80036;stroke-width:1.0;"/><line style="stroke:#A80036;stroke-width:1.0;" x1="53.5" x2="295.5" y1="121.9609" y2="121.9609"/><text fill="#000000" font-family="sans-serif" font-size="13" font-weight="bold" lengthAdjust="spacing" textLength="7" x="60.5" y="117.1045">1</text><text fill="#000000" font-family="sans-serif" font-size="13" lengthAdjust="spacing" textLength="218" x="71.5" y="117.1045">asks to get how much the vessel sink</text><polygon fill="#A80036" points="64.5,148.3125,54.5,152.3125,64.5,156.3125,60.5,152.3125" style="stroke:#A80036;stroke-width:1.0;"/><line style="stroke:#A80036;stroke-width:1.0;stroke-dasharray:2.0,2.0;" x1="58.5" x2="300.5" y1="152.3125" y2="152.3125"/><text fill="#000000" font-family="sans-serif" font-size="13" font-weight="bold" lengthAdjust="spacing" textLength="7" x="70.5" y="147.4561">2</text><text fill="#000000" font-family="sans-serif" font-size="13" lengthAdjust="spacing" textLength="107" x="81.5" y="147.4561">requests ship data</text><polygon fill="#A80036" points="294.5,178.6641,304.5,182.6641,294.5,186.6641,298.5,182.6641" style="stroke:#A80036;stroke-width:1.0;"/><line style="stroke:#A80036;stroke-width:1.0;" x1="53.5" x2="300.5" y1="182.6641" y2="182.6641"/><text fill="#000000" font-family="sans-serif" font-size="13" font-weight="bold" lengthAdjust="spacing" textLength="7" x="60.5" y="177.8076">3</text><text fill="#000000" font-family="sans-serif" font-size="13" lengthAdjust="spacing" textLength="89" x="71.5" y="177.8076">types ship data</text><polygon fill="#A80036" points="64.5,209.0156,54.5,213.0156,64.5,217.0156,60.5,213.0156" style="stroke:#A80036;stroke-width:1.0;"/><line style="stroke:#A80036;stroke-width:1.0;stroke-dasharray:2.0,2.0;" x1="58.5" x2="305.5" y1="213.0156" y2="213.0156"/><text fill="#000000" font-family="sans-serif" font-size="13" font-weight="bold" lengthAdjust="spacing" textLength="7" x="70.5" y="208.1592">4</text><text fill="#000000" font-family="sans-serif" font-size="13" lengthAdjust="spacing" textLength="157" x="81.5" y="208.1592">requests num of containers</text><polygon fill="#A80036" points="294.5,239.3672,304.5,243.3672,294.5,247.3672,298.5,243.3672" style="stroke:#A80036;stroke-width:1.0;"/><line style="stroke:#A80036;stroke-width:1.0;" x1="53.5" x2="300.5" y1="243.3672" y2="243.3672"/><text fill="#000000" font-family="sans-serif" font-size="13" font-weight="bold" lengthAdjust="spacing" textLength="7" x="60.5" y="238.5107">5</text><text fill="#000000" font-family="sans-serif" font-size="13" lengthAdjust="spacing" textLength="139" x="71.5" y="238.5107">types num of containers</text><polygon fill="#A80036" points="59.5,269.7188,49.5,273.7188,59.5,277.7188,55.5,273.7188" style="stroke:#A80036;stroke-width:1.0;"/><line style="stroke:#A80036;stroke-width:1.0;stroke-dasharray:2.0,2.0;" x1="53.5" x2="305.5" y1="273.7188" y2="273.7188"/><text fill="#000000" font-family="sans-serif" font-size="13" font-weight="bold" lengthAdjust="spacing" textLength="7" x="65.5" y="268.8623">6</text><text fill="#000000" font-family="sans-serif" font-size="13" lengthAdjust="spacing" textLength="140" x="76.5" y="268.8623">returns successfully info</text><!--MD5=[18b1c812c2ff8b93ba31dd2f12f8536c]
@startuml
autonumber
actor "Ship Captain" as PM

activate PM
PM -> ":System" : asks to get how much the vessel sink

activate ":System"
":System" - -> PM : requests ship data


PM -> ":System" : types ship data

activate ":System"
":System" - -> PM : requests num of containers


PM -> ":System" : types num of containers


":System" - -> PM : returns successfully info




deactivate PM
@enduml

PlantUML version 1.2021.11(Sat Oct 02 14:26:11 BST 2021)
(GPL source distribution)
Java Runtime: OpenJDK Runtime Environment
JVM: OpenJDK 64-Bit Server VM
Default Encoding: Cp1252
Language: pt
Country: PT
--></g></svg>