<?xml version="1.0" encoding="UTF-8" standalone="no"?><svg xmlns="http://www.w3.org/2000/svg" xmlns:xlink="http://www.w3.org/1999/xlink" contentScriptType="application/ecmascript" contentStyleType="text/css" height="513px" preserveAspectRatio="none" style="width:346px;height:513px;background:#FFFFFF;" version="1.1" viewBox="0 0 346 513" width="346px" zoomAndPan="magnify"><defs><filter height="300%" id="fjf3dc6y18yjm" width="300%" x="-1" y="-1"><feGaussianBlur result="blurOut" stdDeviation="2.0"/><feColorMatrix in="blurOut" result="blurOut2" type="matrix" values="0 0 0 0 0 0 0 0 0 0 0 0 0 0 0 0 0 0 .4 0"/><feOffset dx="4.0" dy="4.0" in="blurOut2" result="blurOut3"/><feBlend in="SourceGraphic" in2="blurOut3" mode="normal"/></filter></defs><g><!--MD5=[7b6ab9a9e0f4fdb6d8a433cdc6c54cc7]
class GetVesselSinkController--><rect codeLine="3" fill="#FEFECE" filter="url(#fjf3dc6y18yjm)" height="61.8359" id="GetVesselSinkController" style="stroke:#A80036;stroke-width:1.5;" width="211" x="121" y="7"/><ellipse cx="155.8" cy="23" fill="#ADD1B2" rx="11" ry="11" style="stroke:#A80036;stroke-width:1.0;"/><path d="M157.8,19.5 Q158.0031,19 158.2375,18.75 Q158.4719,18.5 158.7375,18.5 Q159.2063,18.5 159.5031,18.7813 Q159.8,19.0625 159.8,19.7188 L159.8,21.2813 Q159.8,21.9375 159.5188,22.2188 Q159.2375,22.5 158.8,22.5 Q158.4094,22.5 158.1594,22.3281 Q157.9094,22.1563 157.8,21.7031 Q157.7531,21.3906 157.5813,21.2188 Q157.2688,20.8906 156.7063,20.7031 Q156.1438,20.5 155.5813,20.5 Q154.8781,20.5 154.2844,20.7813 Q153.7063,21.0625 153.2531,21.6875 Q152.8,22.3125 152.8,23.1719 L152.8,24.0938 Q152.8,25.125 153.6438,25.8125 Q154.4875,26.5 155.9875,26.5 Q156.8781,26.5 157.5031,26.2969 Q157.8625,26.1875 158.2688,25.8281 Q158.5344,25.625 158.675,25.5625 Q158.8156,25.5 158.9875,25.5 Q159.3156,25.5 159.55,25.7656 Q159.8,26.0156 159.8,26.375 Q159.8,26.7188 159.4563,27.125 Q158.9563,27.7188 158.1594,28.0469 Q157.1125,28.5 155.8313,28.5 Q154.3313,28.5 153.1281,27.9063 Q152.1594,27.4375 151.4719,26.4219 Q150.8,25.4063 150.8,24.2031 L150.8,23.1094 Q150.8,21.8594 151.3938,20.7656 Q152.0031,19.6719 153.05,19.0938 Q154.1125,18.5 155.3,18.5 Q156.0188,18.5 156.6438,18.75 Q157.2688,19 157.8,19.5 Z " fill="#000000"/><text fill="#000000" font-family="sans-serif" font-size="12" lengthAdjust="spacing" textLength="135" x="174.2" y="27.9102">GetVesselSinkController</text><line style="stroke:#A80036;stroke-width:1.5;" x1="122" x2="331" y1="39" y2="39"/><line style="stroke:#A80036;stroke-width:1.5;" x1="122" x2="331" y1="47" y2="47"/><text fill="#000000" font-family="sans-serif" font-size="11" lengthAdjust="spacing" textLength="199" x="127" y="62.4189">+getUnLadenCenterOfMassOfShip(mmsi)</text><!--MD5=[02e4b9b7573f1156f41e60aa5b4e25a4]
class Company--><rect codeLine="7" fill="#FEFECE" filter="url(#fjf3dc6y18yjm)" height="48" id="Company" style="stroke:#A80036;stroke-width:1.5;" width="85" x="88" y="130"/><ellipse cx="103" cy="146" fill="#ADD1B2" rx="11" ry="11" style="stroke:#A80036;stroke-width:1.0;"/><path d="M105,142.5 Q105.2031,142 105.4375,141.75 Q105.6719,141.5 105.9375,141.5 Q106.4063,141.5 106.7031,141.7813 Q107,142.0625 107,142.7188 L107,144.2813 Q107,144.9375 106.7188,145.2188 Q106.4375,145.5 106,145.5 Q105.6094,145.5 105.3594,145.3281 Q105.1094,145.1563 105,144.7031 Q104.9531,144.3906 104.7813,144.2188 Q104.4688,143.8906 103.9063,143.7031 Q103.3438,143.5 102.7813,143.5 Q102.0781,143.5 101.4844,143.7813 Q100.9063,144.0625 100.4531,144.6875 Q100,145.3125 100,146.1719 L100,147.0938 Q100,148.125 100.8438,148.8125 Q101.6875,149.5 103.1875,149.5 Q104.0781,149.5 104.7031,149.2969 Q105.0625,149.1875 105.4688,148.8281 Q105.7344,148.625 105.875,148.5625 Q106.0156,148.5 106.1875,148.5 Q106.5156,148.5 106.75,148.7656 Q107,149.0156 107,149.375 Q107,149.7188 106.6563,150.125 Q106.1563,150.7188 105.3594,151.0469 Q104.3125,151.5 103.0313,151.5 Q101.5313,151.5 100.3281,150.9063 Q99.3594,150.4375 98.6719,149.4219 Q98,148.4063 98,147.2031 L98,146.1094 Q98,144.8594 98.5938,143.7656 Q99.2031,142.6719 100.25,142.0938 Q101.3125,141.5 102.5,141.5 Q103.2188,141.5 103.8438,141.75 Q104.4688,142 105,142.5 Z " fill="#000000"/><text fill="#000000" font-family="sans-serif" font-size="12" lengthAdjust="spacing" textLength="53" x="117" y="150.9102">Company</text><line style="stroke:#A80036;stroke-width:1.5;" x1="89" x2="172" y1="162" y2="162"/><line style="stroke:#A80036;stroke-width:1.5;" x1="89" x2="172" y1="170" y2="170"/><!--MD5=[0dc7f2ddb409b58bcf52b12238c25399]
class Ship--><rect codeLine="10" fill="#FEFECE" filter="url(#fjf3dc6y18yjm)" height="89.5078" id="Ship" style="stroke:#A80036;stroke-width:1.5;" width="247" x="7" y="256"/><ellipse cx="113.75" cy="272" fill="#ADD1B2" rx="11" ry="11" style="stroke:#A80036;stroke-width:1.0;"/><path d="M115.75,268.5 Q115.9531,268 116.1875,267.75 Q116.4219,267.5 116.6875,267.5 Q117.1563,267.5 117.4531,267.7813 Q117.75,268.0625 117.75,268.7188 L117.75,270.2813 Q117.75,270.9375 117.4688,271.2188 Q117.1875,271.5 116.75,271.5 Q116.3594,271.5 116.1094,271.3281 Q115.8594,271.1563 115.75,270.7031 Q115.7031,270.3906 115.5313,270.2188 Q115.2188,269.8906 114.6563,269.7031 Q114.0938,269.5 113.5313,269.5 Q112.8281,269.5 112.2344,269.7813 Q111.6563,270.0625 111.2031,270.6875 Q110.75,271.3125 110.75,272.1719 L110.75,273.0938 Q110.75,274.125 111.5938,274.8125 Q112.4375,275.5 113.9375,275.5 Q114.8281,275.5 115.4531,275.2969 Q115.8125,275.1875 116.2188,274.8281 Q116.4844,274.625 116.625,274.5625 Q116.7656,274.5 116.9375,274.5 Q117.2656,274.5 117.5,274.7656 Q117.75,275.0156 117.75,275.375 Q117.75,275.7188 117.4063,276.125 Q116.9063,276.7188 116.1094,277.0469 Q115.0625,277.5 113.7813,277.5 Q112.2813,277.5 111.0781,276.9063 Q110.1094,276.4375 109.4219,275.4219 Q108.75,274.4063 108.75,273.2031 L108.75,272.1094 Q108.75,270.8594 109.3438,269.7656 Q109.9531,268.6719 111,268.0938 Q112.0625,267.5 113.25,267.5 Q113.9688,267.5 114.5938,267.75 Q115.2188,268 115.75,268.5 Z " fill="#000000"/><text fill="#000000" font-family="sans-serif" font-size="12" lengthAdjust="spacing" textLength="25" x="134.25" y="276.9102">Ship</text><line style="stroke:#A80036;stroke-width:1.5;" x1="8" x2="253" y1="288" y2="288"/><line style="stroke:#A80036;stroke-width:1.5;" x1="8" x2="253" y1="296" y2="296"/><text fill="#000000" font-family="sans-serif" font-size="11" lengthAdjust="spacing" textLength="164" x="13" y="311.4189">+totalMassPlaced(numContainers)</text><text fill="#000000" font-family="sans-serif" font-size="11" lengthAdjust="spacing" textLength="145" x="13" y="325.2549">+getPressure(numContainers)</text><text fill="#000000" font-family="sans-serif" font-size="11" lengthAdjust="spacing" textLength="235" x="13" y="339.0908">+getDiffHeightAboveWaterLevel(numContainers)</text><!--MD5=[ef7c79de33a8df0acce34aecd8d239d2]
class Mass--><rect codeLine="16" fill="#FEFECE" filter="url(#fjf3dc6y18yjm)" height="75.6719" id="Mass" style="stroke:#A80036;stroke-width:1.5;" width="62" x="187.5" y="424"/><ellipse cx="202.5" cy="440" fill="#ADD1B2" rx="11" ry="11" style="stroke:#A80036;stroke-width:1.0;"/><path d="M204.5,436.5 Q204.7031,436 204.9375,435.75 Q205.1719,435.5 205.4375,435.5 Q205.9063,435.5 206.2031,435.7813 Q206.5,436.0625 206.5,436.7188 L206.5,438.2813 Q206.5,438.9375 206.2188,439.2188 Q205.9375,439.5 205.5,439.5 Q205.1094,439.5 204.8594,439.3281 Q204.6094,439.1563 204.5,438.7031 Q204.4531,438.3906 204.2813,438.2188 Q203.9688,437.8906 203.4063,437.7031 Q202.8438,437.5 202.2813,437.5 Q201.5781,437.5 200.9844,437.7813 Q200.4063,438.0625 199.9531,438.6875 Q199.5,439.3125 199.5,440.1719 L199.5,441.0938 Q199.5,442.125 200.3438,442.8125 Q201.1875,443.5 202.6875,443.5 Q203.5781,443.5 204.2031,443.2969 Q204.5625,443.1875 204.9688,442.8281 Q205.2344,442.625 205.375,442.5625 Q205.5156,442.5 205.6875,442.5 Q206.0156,442.5 206.25,442.7656 Q206.5,443.0156 206.5,443.375 Q206.5,443.7188 206.1563,444.125 Q205.6563,444.7188 204.8594,445.0469 Q203.8125,445.5 202.5313,445.5 Q201.0313,445.5 199.8281,444.9063 Q198.8594,444.4375 198.1719,443.4219 Q197.5,442.4063 197.5,441.2031 L197.5,440.1094 Q197.5,438.8594 198.0938,437.7656 Q198.7031,436.6719 199.75,436.0938 Q200.8125,435.5 202,435.5 Q202.7188,435.5 203.3438,435.75 Q203.9688,436 204.5,436.5 Z " fill="#000000"/><text fill="#000000" font-family="sans-serif" font-size="12" lengthAdjust="spacing" textLength="30" x="216.5" y="444.9102">Mass</text><line style="stroke:#A80036;stroke-width:1.5;" x1="188.5" x2="248.5" y1="456" y2="456"/><line style="stroke:#A80036;stroke-width:1.5;" x1="188.5" x2="248.5" y1="464" y2="464"/><text fill="#000000" font-family="sans-serif" font-size="11" lengthAdjust="spacing" textLength="36" x="193.5" y="479.4189">+getX()</text><text fill="#000000" font-family="sans-serif" font-size="11" lengthAdjust="spacing" textLength="37" x="193.5" y="493.2549">+getY()</text><!--MD5=[c3951d47e6b75583fa410d654ae48b05]
link GetVesselSinkController to Company--><path codeLine="21" d="M201.03,69.25 C186.28,86.76 167.86,108.63 153.55,125.63 " fill="none" id="GetVesselSinkController-to-Company" style="stroke:#A80036;stroke-width:1.0;stroke-dasharray:7.0,7.0;"/><polygon fill="#A80036" points="150,129.84,158.8598,125.5384,153.2233,126.0177,152.7441,120.3811,150,129.84" style="stroke:#A80036;stroke-width:1.0;"/><!--MD5=[74134894a86418ca5af1c9d1fee860df]
link GetVesselSinkController to Ship--><path codeLine="22" d="M223.26,69.32 C218.37,107.31 207.06,173.77 183.5,226 C179.61,234.63 174.63,243.27 169.3,251.45 " fill="none" id="GetVesselSinkController-to-Ship" style="stroke:#A80036;stroke-width:1.0;stroke-dasharray:7.0,7.0;"/><polygon fill="#A80036" points="166.3,255.94,174.6205,250.6703,169.0735,251.7797,167.9641,246.2327,166.3,255.94" style="stroke:#A80036;stroke-width:1.0;"/><!--MD5=[2346ddec71e6a80a92829f286d740d79]
link GetVesselSinkController to Mass--><path codeLine="23" d="M238.15,69.32 C257.83,124.71 293.49,245.76 271.5,346 C265.89,371.56 254.04,398.21 242.97,419.42 " fill="none" id="GetVesselSinkController-to-Mass" style="stroke:#A80036;stroke-width:1.0;stroke-dasharray:7.0,7.0;"/><polygon fill="#A80036" points="240.62,423.86,248.3725,417.7855,242.964,419.4435,241.3061,414.0351,240.62,423.86" style="stroke:#A80036;stroke-width:1.0;"/><!--MD5=[37a14a5de6d6fd738aee271300f4b5c8]
link Company to Ship--><path codeLine="24" d="M130.5,178.3 C130.5,199.19 130.5,230.41 130.5,256 " fill="none" id="Company-Ship" style="stroke:#A80036;stroke-width:1.0;"/><polygon fill="#000000" points="135.5,222.1758,138.4389,213.1307,132.5611,213.1307,135.5,222.1758" style="stroke:#000000;stroke-width:1.0;"/><text fill="#000000" font-family="sans-serif" font-size="13" lengthAdjust="spacing" textLength="30" x="144.5" y="222.4951">owns</text><text fill="#000000" font-family="sans-serif" font-size="13" lengthAdjust="spacing" textLength="7" x="122.6906" y="199.3051">1</text><text fill="#000000" font-family="sans-serif" font-size="13" lengthAdjust="spacing" textLength="20" x="108.9063" y="245.1155">1..*</text><!--MD5=[30426b127282942d2eb39f81d28d7a9c]
link Ship to Mass--><path codeLine="25" d="M155.01,346.29 C168.54,370.73 185.15,400.74 197.98,423.93 " fill="none" id="Ship-Mass" style="stroke:#A80036;stroke-width:1.0;"/><polygon fill="#000000" points="187.9212,389.5505,186.1126,380.2135,180.9698,383.0597,187.9212,389.5505" style="stroke:#000000;stroke-width:1.0;"/><text fill="#000000" font-family="sans-serif" font-size="13" lengthAdjust="spacing" textLength="21" x="194.5" y="390.4951">has</text><text fill="#000000" font-family="sans-serif" font-size="13" lengthAdjust="spacing" textLength="7" x="150.8332" y="367.0027">1</text><text fill="#000000" font-family="sans-serif" font-size="13" lengthAdjust="spacing" textLength="20" x="172.5436" y="413.2794">1..*</text><!--MD5=[dfa147c43e3c48f1c00d7c4b23ec08e3]
@startuml
skinparam classAttributeIconSize 0

class GetVesselSinkController{
    +getUnLadenCenterOfMassOfShip(mmsi)
}

class Company {}


class Ship {
    +totalMassPlaced(numContainers)
    +getPressure(numContainers)
    +getDiffHeightAboveWaterLevel(numContainers)
}

class Mass {
    +getX()
    +getY()
}

GetVesselSinkController ..> Company
GetVesselSinkController ..> Ship
GetVesselSinkController ..> Mass
Company "1" - - "1..*" Ship : owns >
Ship "1" - - "1..*" Mass : has >
@enduml

PlantUML version 1.2021.11(Sat Oct 02 14:26:11 BST 2021)
(GPL source distribution)
Java Runtime: OpenJDK Runtime Environment
JVM: OpenJDK 64-Bit Server VM
Default Encoding: Cp1252
Language: pt
Country: PT
--></g></svg>