<?xml version="1.0" encoding="UTF-8" standalone="no"?><svg xmlns="http://www.w3.org/2000/svg" xmlns:xlink="http://www.w3.org/1999/xlink" contentScriptType="application/ecmascript" contentStyleType="text/css" height="373px" preserveAspectRatio="none" style="width:341px;height:373px;background:#FFFFFF;" version="1.1" viewBox="0 0 341 373" width="341px" zoomAndPan="magnify"><defs><filter height="300%" id="f14103dv9vlqyi" width="300%" x="-1" y="-1"><feGaussianBlur result="blurOut" stdDeviation="2.0"/><feColorMatrix in="blurOut" result="blurOut2" type="matrix" values="0 0 0 0 0 0 0 0 0 0 0 0 0 0 0 0 0 0 .4 0"/><feOffset dx="4.0" dy="4.0" in="blurOut2" result="blurOut3"/><feBlend in="SourceGraphic" in2="blurOut3" mode="normal"/></filter></defs><g><!--MD5=[74a7a301c5cdc51204787c88dc6a8af6]
class GetContainerRouteController--><rect codeLine="4" fill="#FEFECE" filter="url(#f14103dv9vlqyi)" height="61.8359" id="GetContainerRouteController" style="stroke:#A80036;stroke-width:1.5;" width="247" x="34.5" y="7"/><ellipse cx="74.25" cy="23" fill="#ADD1B2" rx="11" ry="11" style="stroke:#A80036;stroke-width:1.0;"/><path d="M76.25,19.5 Q76.4531,19 76.6875,18.75 Q76.9219,18.5 77.1875,18.5 Q77.6563,18.5 77.9531,18.7813 Q78.25,19.0625 78.25,19.7188 L78.25,21.2813 Q78.25,21.9375 77.9688,22.2188 Q77.6875,22.5 77.25,22.5 Q76.8594,22.5 76.6094,22.3281 Q76.3594,22.1563 76.25,21.7031 Q76.2031,21.3906 76.0313,21.2188 Q75.7188,20.8906 75.1563,20.7031 Q74.5938,20.5 74.0313,20.5 Q73.3281,20.5 72.7344,20.7813 Q72.1563,21.0625 71.7031,21.6875 Q71.25,22.3125 71.25,23.1719 L71.25,24.0938 Q71.25,25.125 72.0938,25.8125 Q72.9375,26.5 74.4375,26.5 Q75.3281,26.5 75.9531,26.2969 Q76.3125,26.1875 76.7188,25.8281 Q76.9844,25.625 77.125,25.5625 Q77.2656,25.5 77.4375,25.5 Q77.7656,25.5 78,25.7656 Q78.25,26.0156 78.25,26.375 Q78.25,26.7188 77.9063,27.125 Q77.4063,27.7188 76.6094,28.0469 Q75.5625,28.5 74.2813,28.5 Q72.7813,28.5 71.5781,27.9063 Q70.6094,27.4375 69.9219,26.4219 Q69.25,25.4063 69.25,24.2031 L69.25,23.1094 Q69.25,21.8594 69.8438,20.7656 Q70.4531,19.6719 71.5,19.0938 Q72.5625,18.5 73.75,18.5 Q74.4688,18.5 75.0938,18.75 Q75.7188,19 76.25,19.5 Z " fill="#000000"/><text fill="#000000" font-family="sans-serif" font-size="12" lengthAdjust="spacing" textLength="160" x="93.75" y="27.9102">GetContainerRouteController</text><line style="stroke:#A80036;stroke-width:1.5;" x1="35.5" x2="280.5" y1="39" y2="39"/><line style="stroke:#A80036;stroke-width:1.5;" x1="35.5" x2="280.5" y1="47" y2="47"/><text fill="#000000" font-family="sans-serif" font-size="11" lengthAdjust="spacing" textLength="235" x="40.5" y="62.4189">+getContainerPath(containerID, registrationCode)</text><!--MD5=[4ee160e2b0da8c0b9852f7d72000a482]
class RouteStoreDB--><rect codeLine="8" fill="#FEFECE" filter="url(#f14103dv9vlqyi)" height="75.6719" id="RouteStoreDB" style="stroke:#A80036;stroke-width:1.5;" width="320" x="7" y="284"/><ellipse cx="123.25" cy="300" fill="#ADD1B2" rx="11" ry="11" style="stroke:#A80036;stroke-width:1.0;"/><path d="M125.25,296.5 Q125.4531,296 125.6875,295.75 Q125.9219,295.5 126.1875,295.5 Q126.6563,295.5 126.9531,295.7813 Q127.25,296.0625 127.25,296.7188 L127.25,298.2813 Q127.25,298.9375 126.9688,299.2188 Q126.6875,299.5 126.25,299.5 Q125.8594,299.5 125.6094,299.3281 Q125.3594,299.1563 125.25,298.7031 Q125.2031,298.3906 125.0313,298.2188 Q124.7188,297.8906 124.1563,297.7031 Q123.5938,297.5 123.0313,297.5 Q122.3281,297.5 121.7344,297.7813 Q121.1563,298.0625 120.7031,298.6875 Q120.25,299.3125 120.25,300.1719 L120.25,301.0938 Q120.25,302.125 121.0938,302.8125 Q121.9375,303.5 123.4375,303.5 Q124.3281,303.5 124.9531,303.2969 Q125.3125,303.1875 125.7188,302.8281 Q125.9844,302.625 126.125,302.5625 Q126.2656,302.5 126.4375,302.5 Q126.7656,302.5 127,302.7656 Q127.25,303.0156 127.25,303.375 Q127.25,303.7188 126.9063,304.125 Q126.4063,304.7188 125.6094,305.0469 Q124.5625,305.5 123.2813,305.5 Q121.7813,305.5 120.5781,304.9063 Q119.6094,304.4375 118.9219,303.4219 Q118.25,302.4063 118.25,301.2031 L118.25,300.1094 Q118.25,298.8594 118.8438,297.7656 Q119.4531,296.6719 120.5,296.0938 Q121.5625,295.5 122.75,295.5 Q123.4688,295.5 124.0938,295.75 Q124.7188,296 125.25,296.5 Z " fill="#000000"/><text fill="#000000" font-family="sans-serif" font-size="12" lengthAdjust="spacing" textLength="79" x="143.75" y="304.9102">RouteStoreDB</text><line style="stroke:#A80036;stroke-width:1.5;" x1="8" x2="326" y1="316" y2="316"/><line style="stroke:#A80036;stroke-width:1.5;" x1="8" x2="326" y1="324" y2="324"/><text fill="#000000" font-family="sans-serif" font-size="11" lengthAdjust="spacing" textLength="308" x="13" y="339.4189">+getRouteId(databaseConnection, containerId, registrationCode)</text><text fill="#000000" font-family="sans-serif" font-size="11" lengthAdjust="spacing" textLength="234" x="13" y="353.2549">+getContainerPath(databaseConnection, routeId)</text><!--MD5=[02e4b9b7573f1156f41e60aa5b4e25a4]
class Company--><rect codeLine="13" fill="#FEFECE" filter="url(#f14103dv9vlqyi)" height="75.6719" id="Company" style="stroke:#A80036;stroke-width:1.5;" width="109" x="191.5" y="130"/><ellipse cx="217.3" cy="146" fill="#ADD1B2" rx="11" ry="11" style="stroke:#A80036;stroke-width:1.0;"/><path d="M219.3,142.5 Q219.5031,142 219.7375,141.75 Q219.9719,141.5 220.2375,141.5 Q220.7063,141.5 221.0031,141.7813 Q221.3,142.0625 221.3,142.7188 L221.3,144.2813 Q221.3,144.9375 221.0188,145.2188 Q220.7375,145.5 220.3,145.5 Q219.9094,145.5 219.6594,145.3281 Q219.4094,145.1563 219.3,144.7031 Q219.2531,144.3906 219.0813,144.2188 Q218.7688,143.8906 218.2063,143.7031 Q217.6438,143.5 217.0813,143.5 Q216.3781,143.5 215.7844,143.7813 Q215.2063,144.0625 214.7531,144.6875 Q214.3,145.3125 214.3,146.1719 L214.3,147.0938 Q214.3,148.125 215.1438,148.8125 Q215.9875,149.5 217.4875,149.5 Q218.3781,149.5 219.0031,149.2969 Q219.3625,149.1875 219.7688,148.8281 Q220.0344,148.625 220.175,148.5625 Q220.3156,148.5 220.4875,148.5 Q220.8156,148.5 221.05,148.7656 Q221.3,149.0156 221.3,149.375 Q221.3,149.7188 220.9563,150.125 Q220.4563,150.7188 219.6594,151.0469 Q218.6125,151.5 217.3313,151.5 Q215.8313,151.5 214.6281,150.9063 Q213.6594,150.4375 212.9719,149.4219 Q212.3,148.4063 212.3,147.2031 L212.3,146.1094 Q212.3,144.8594 212.8938,143.7656 Q213.5031,142.6719 214.55,142.0938 Q215.6125,141.5 216.8,141.5 Q217.5188,141.5 218.1438,141.75 Q218.7688,142 219.3,142.5 Z " fill="#000000"/><text fill="#000000" font-family="sans-serif" font-size="12" lengthAdjust="spacing" textLength="53" x="233.7" y="150.9102">Company</text><line style="stroke:#A80036;stroke-width:1.5;" x1="192.5" x2="299.5" y1="162" y2="162"/><text fill="#000000" font-family="sans-serif" font-size="11" lengthAdjust="spacing" textLength="59" x="197.5" y="177.4189">-designation</text><line style="stroke:#A80036;stroke-width:1.5;" x1="192.5" x2="299.5" y1="183.8359" y2="183.8359"/><text fill="#000000" font-family="sans-serif" font-size="11" lengthAdjust="spacing" textLength="97" x="197.5" y="199.2549">+getRouteStoreDB()</text><!--MD5=[6e1931044fe82095150c3723de0e9491]
link GetContainerRouteController to Company--><path codeLine="18" d="M178.63,69.01 C190.25,85.91 204.93,107.26 217.62,125.72 " fill="none" id="GetContainerRouteController-to-Company" style="stroke:#A80036;stroke-width:1.0;stroke-dasharray:7.0,7.0;"/><polygon fill="#A80036" points="220.46,129.85,218.6346,120.1718,217.6177,125.7365,212.053,124.7195,220.46,129.85" style="stroke:#A80036;stroke-width:1.0;"/><!--MD5=[8d2fa0cbf46110e2cf561565937af71c]
link GetContainerRouteController to RouteStoreDB--><path codeLine="19" d="M158.96,69.18 C160.57,119.66 163.82,221.33 165.65,278.85 " fill="none" id="GetContainerRouteController-to-RouteStoreDB" style="stroke:#A80036;stroke-width:1.0;stroke-dasharray:7.0,7.0;"/><polygon fill="#A80036" points="165.82,283.93,169.5353,274.8088,165.6629,278.9325,161.5393,275.0601,165.82,283.93" style="stroke:#A80036;stroke-width:1.0;"/><!--MD5=[936732924c73d3e30d9102f60c833754]
link Company to RouteStoreDB--><path codeLine="20" d="M226.67,206.18 C214.39,229.83 198.54,260.32 186.26,283.94 " fill="none" id="Company-RouteStoreDB" style="stroke:#A80036;stroke-width:1.0;"/><polygon fill="#000000" points="211.6944,249.6125,218.4731,242.9417,213.2575,240.2312,211.6944,249.6125" style="stroke:#000000;stroke-width:1.0;"/><text fill="#000000" font-family="sans-serif" font-size="13" lengthAdjust="spacing" textLength="28" x="223" y="250.4951">uses</text><text fill="#000000" font-family="sans-serif" font-size="13" lengthAdjust="spacing" textLength="7" x="216.0315" y="227.0892">1</text><text fill="#000000" font-family="sans-serif" font-size="13" lengthAdjust="spacing" textLength="7" x="182.1658" y="273.0055">1</text><!--MD5=[64bc93cde802810d4c6a86ae283529b2]
@startuml

skinparam classAttributeIconSize 0

class GetContainerRouteController{
    +getContainerPath(containerID, registrationCode)
}

class RouteStoreDB {
    +getRouteId(databaseConnection, containerId, registrationCode)
    +getContainerPath(databaseConnection, routeId)
}

class Company {
    -designation
    +getRouteStoreDB()
}

GetContainerRouteController ..> Company
GetContainerRouteController ..> RouteStoreDB
Company "1" - - "1" RouteStoreDB : uses >

@enduml

PlantUML version 1.2021.11(Sat Oct 02 14:26:11 BST 2021)
(GPL source distribution)
Java Runtime: OpenJDK Runtime Environment
JVM: OpenJDK 64-Bit Server VM
Default Encoding: Cp1252
Language: pt
Country: PT
--></g></svg>