<?xml version="1.0" encoding="UTF-8" standalone="no"?><svg xmlns="http://www.w3.org/2000/svg" xmlns:xlink="http://www.w3.org/1999/xlink" contentScriptType="application/ecmascript" contentStyleType="text/css" height="207px" preserveAspectRatio="none" style="width:156px;height:207px;background:#FFFFFF;" version="1.1" viewBox="0 0 156 207" width="156px" zoomAndPan="magnify"><defs><filter height="300%" id="f1jf4cqvoxlhbo" width="300%" x="-1" y="-1"><feGaussianBlur result="blurOut" stdDeviation="1.2"/><feColorMatrix in="blurOut" result="blurOut2" type="matrix" values="0 0 0 0 0 0 0 0 0 0 0 0 0 0 0 0 0 0 .4 0"/><feOffset dx="2.4" dy="2.4" in="blurOut2" result="blurOut3"/><feBlend in="SourceGraphic" in2="blurOut3" mode="normal"/></filter></defs><g><!--MD5=[455bf548bcf4f5ba5d99ae9b6bed86b0]
class FindAvailableShipsController--><rect codeLine="3" fill="#FEFECE" filter="url(#f1jf4cqvoxlhbo)" height="37.1016" id="FindAvailableShipsController" style="stroke:#A80036;stroke-width:0.8999999999999999;" width="114.6" x="33.3" y="4.2"/><ellipse cx="42.3" cy="13.8" fill="#ADD1B2" rx="6.6" ry="6.6" style="stroke:#A80036;stroke-width:0.6;"/><path d="M43.5,11.7 Q43.6219,11.4 43.7625,11.25 Q43.9031,11.1 44.0625,11.1 Q44.3438,11.1 44.5219,11.2687 Q44.7,11.4375 44.7,11.8312 L44.7,12.7687 Q44.7,13.1625 44.5313,13.3312 Q44.3625,13.5 44.1,13.5 Q43.8656,13.5 43.7156,13.3969 Q43.5656,13.2938 43.5,13.0219 Q43.4719,12.8344 43.3688,12.7313 Q43.1813,12.5344 42.8438,12.4219 Q42.5063,12.3 42.1687,12.3 Q41.7469,12.3 41.3906,12.4688 Q41.0437,12.6375 40.7719,13.0125 Q40.5,13.3875 40.5,13.9031 L40.5,14.4562 Q40.5,15.075 41.0063,15.4875 Q41.5125,15.9 42.4125,15.9 Q42.9469,15.9 43.3219,15.7781 Q43.5375,15.7125 43.7813,15.4969 Q43.9406,15.375 44.025,15.3375 Q44.1094,15.3 44.2125,15.3 Q44.4094,15.3 44.55,15.4594 Q44.7,15.6094 44.7,15.825 Q44.7,16.0313 44.4938,16.275 Q44.1938,16.6312 43.7156,16.8281 Q43.0875,17.1 42.3188,17.1 Q41.4187,17.1 40.6969,16.7438 Q40.1156,16.4625 39.7031,15.8531 Q39.3,15.2437 39.3,14.5219 L39.3,13.8656 Q39.3,13.1156 39.6563,12.4594 Q40.0219,11.8031 40.65,11.4562 Q41.2875,11.1 42,11.1 Q42.4313,11.1 42.8063,11.25 Q43.1813,11.4 43.5,11.7 Z " fill="#000000"/><text fill="#000000" font-family="sans-serif" font-size="7.2" lengthAdjust="spacing" textLength="95.4" x="50.7" y="16.7461">FindAvailableShipsController</text><line style="stroke:#A80036;stroke-width:0.8999999999999999;" x1="33.9" x2="147.3" y1="23.4" y2="23.4"/><line style="stroke:#A80036;stroke-width:0.8999999999999999;" x1="33.9" x2="147.3" y1="28.2" y2="28.2"/><text fill="#000000" font-family="sans-serif" font-size="6.6" lengthAdjust="spacing" textLength="96" x="36.9" y="37.4514">+getNextMondayAvailableShips()</text><!--MD5=[02e4b9b7573f1156f41e60aa5b4e25a4]
class Company--><rect codeLine="7" fill="#FEFECE" filter="url(#f1jf4cqvoxlhbo)" height="37.1016" id="Company" style="stroke:#A80036;stroke-width:0.8999999999999999;" width="72" x="4.2" y="78"/><ellipse cx="22.65" cy="87.6" fill="#ADD1B2" rx="6.6" ry="6.6" style="stroke:#A80036;stroke-width:0.6;"/><path d="M23.85,85.5 Q23.9719,85.2 24.1125,85.05 Q24.2531,84.9 24.4125,84.9 Q24.6937,84.9 24.8719,85.0688 Q25.05,85.2375 25.05,85.6313 L25.05,86.5688 Q25.05,86.9625 24.8812,87.1313 Q24.7125,87.3 24.45,87.3 Q24.2156,87.3 24.0656,87.1969 Q23.9156,87.0938 23.85,86.8219 Q23.8219,86.6344 23.7188,86.5313 Q23.5313,86.3344 23.1937,86.2219 Q22.8563,86.1 22.5188,86.1 Q22.0969,86.1 21.7406,86.2688 Q21.3938,86.4375 21.1219,86.8125 Q20.85,87.1875 20.85,87.7031 L20.85,88.2563 Q20.85,88.875 21.3563,89.2875 Q21.8625,89.7 22.7625,89.7 Q23.2969,89.7 23.6719,89.5781 Q23.8875,89.5125 24.1312,89.2969 Q24.2906,89.175 24.375,89.1375 Q24.4594,89.1 24.5625,89.1 Q24.7594,89.1 24.9,89.2594 Q25.05,89.4094 25.05,89.625 Q25.05,89.8313 24.8438,90.075 Q24.5438,90.4312 24.0656,90.6281 Q23.4375,90.9 22.6688,90.9 Q21.7688,90.9 21.0469,90.5438 Q20.4656,90.2625 20.0531,89.6531 Q19.65,89.0438 19.65,88.3219 L19.65,87.6656 Q19.65,86.9156 20.0062,86.2594 Q20.3719,85.6031 21,85.2563 Q21.6375,84.9 22.35,84.9 Q22.7813,84.9 23.1563,85.05 Q23.5313,85.2 23.85,85.5 Z " fill="#000000"/><text fill="#000000" font-family="sans-serif" font-size="7.2" lengthAdjust="spacing" textLength="31.8" x="33.15" y="90.5461">Company</text><line style="stroke:#A80036;stroke-width:0.8999999999999999;" x1="4.8" x2="75.6" y1="97.2" y2="97.2"/><line style="stroke:#A80036;stroke-width:0.8999999999999999;" x1="4.8" x2="75.6" y1="102" y2="102"/><text fill="#000000" font-family="sans-serif" font-size="6.6" lengthAdjust="spacing" textLength="64.8" x="7.8" y="111.2514">+getShipTripStoreDB()</text><!--MD5=[8d7ca94d2ddad896fa1b7a151fdd57c4]
class ShipTripStoreDB--><rect codeLine="11" fill="#FEFECE" filter="url(#f1jf4cqvoxlhbo)" height="37.1016" id="ShipTripStoreDB" style="stroke:#A80036;stroke-width:0.8999999999999999;" width="103.2" x="22.8" y="162"/><ellipse cx="44.76" cy="171.6" fill="#ADD1B2" rx="6.6" ry="6.6" style="stroke:#A80036;stroke-width:0.6;"/><path d="M45.96,169.5 Q46.0819,169.2 46.2225,169.05 Q46.3631,168.9 46.5225,168.9 Q46.8037,168.9 46.9819,169.0688 Q47.16,169.2375 47.16,169.6313 L47.16,170.5688 Q47.16,170.9625 46.9912,171.1313 Q46.8225,171.3 46.56,171.3 Q46.3256,171.3 46.1756,171.1969 Q46.0256,171.0938 45.96,170.8219 Q45.9319,170.6344 45.8287,170.5313 Q45.6412,170.3344 45.3037,170.2219 Q44.9662,170.1 44.6288,170.1 Q44.2069,170.1 43.8506,170.2687 Q43.5038,170.4375 43.2319,170.8125 Q42.96,171.1875 42.96,171.7031 L42.96,172.2563 Q42.96,172.875 43.4662,173.2875 Q43.9725,173.7 44.8725,173.7 Q45.4069,173.7 45.7819,173.5781 Q45.9975,173.5125 46.2412,173.2969 Q46.4006,173.175 46.485,173.1375 Q46.5694,173.1 46.6725,173.1 Q46.8694,173.1 47.01,173.2594 Q47.16,173.4094 47.16,173.625 Q47.16,173.8312 46.9537,174.075 Q46.6537,174.4313 46.1756,174.6281 Q45.5475,174.9 44.7787,174.9 Q43.8788,174.9 43.1569,174.5438 Q42.5756,174.2625 42.1631,173.6531 Q41.76,173.0438 41.76,172.3219 L41.76,171.6656 Q41.76,170.9156 42.1162,170.2594 Q42.4819,169.6031 43.11,169.2563 Q43.7475,168.9 44.46,168.9 Q44.8912,168.9 45.2662,169.05 Q45.6412,169.2 45.96,169.5 Z " fill="#000000"/><text fill="#000000" font-family="sans-serif" font-size="7.2" lengthAdjust="spacing" textLength="55.2" x="56.04" y="174.5461">ShipTripStoreDB</text><line style="stroke:#A80036;stroke-width:0.8999999999999999;" x1="23.4" x2="125.4" y1="181.2" y2="181.2"/><line style="stroke:#A80036;stroke-width:0.8999999999999999;" x1="23.4" x2="125.4" y1="186" y2="186"/><text fill="#000000" font-family="sans-serif" font-size="6.6" lengthAdjust="spacing" textLength="96" x="26.4" y="195.2514">+getNextMondayAvailableShips()</text><!--MD5=[d18db7c1ae67b53ee10d2dd1a07cf5ed]
link FindAvailableShipsController to Company--><path codeLine="15" d="M78.012,41.532 C70.914,51.756 62.022,64.566 54.642,75.192 " fill="none" id="FindAvailableShipsController-to-Company" style="stroke:#A80036;stroke-width:0.6;stroke-dasharray:7.0,7.0;"/><polygon fill="#A80036" points="52.8,77.844,57.8564,74.7858,54.5152,75.3827,53.9183,72.0415,52.8,77.844" style="stroke:#A80036;stroke-width:0.6;"/><!--MD5=[6a93cacbe770dc52bc7f4dcee98e51bb]
link FindAvailableShipsController to ShipTripStoreDB--><path codeLine="16" d="M92.736,41.412 C95.058,65.196 97.506,108.246 90,144 C88.944,149.022 87.162,154.212 85.164,159.024 " fill="none" id="FindAvailableShipsController-to-ShipTripStoreDB" style="stroke:#A80036;stroke-width:0.6;stroke-dasharray:7.0,7.0;"/><polygon fill="#A80036" points="83.898,161.97,88.2356,157.9569,85.0829,159.2139,83.8259,156.0611,83.898,161.97" style="stroke:#A80036;stroke-width:0.6;"/><!--MD5=[8a472e17fa1b8e6b82718bab5653081a]
link Company to ShipTripStoreDB--><path codeLine="17" d="M47.706,115.368 C53.406,129.174 61.212,148.074 66.912,161.874 " fill="none" id="Company-ShipTripStoreDB" style="stroke:#A80036;stroke-width:0.6;"/><polygon fill="#000000" points="63.5451,141.4783,63.1034,135.7891,59.8437,137.1353,63.5451,141.4783" style="stroke:#000000;stroke-width:0.6;"/><text fill="#000000" font-family="sans-serif" font-size="7.8" lengthAdjust="spacing" textLength="16.8" x="67.8" y="141.8971">uses</text><text fill="#000000" font-family="sans-serif" font-size="7.8" lengthAdjust="spacing" textLength="4.2" x="44.5365" y="127.9872">1</text><text fill="#000000" font-family="sans-serif" font-size="7.8" lengthAdjust="spacing" textLength="4.2" x="60.7345" y="155.5507">1</text><!--MD5=[1babfe32902f60cc3f72df895a080725]
@startuml
skinparam classAttributeIconSize 0

class FindAvailableShipsController{
    +getNextMondayAvailableShips()
}

class Company {
    +getShipTripStoreDB()
}

class ShipTripStoreDB {
    +getNextMondayAvailableShips()
}

FindAvailableShipsController ..> Company
FindAvailableShipsController ..> ShipTripStoreDB
Company "1" - - "1" ShipTripStoreDB : uses >

@enduml

PlantUML version 1.2021.11(Sat Oct 02 14:26:11 BST 2021)
(GPL source distribution)
Java Runtime: OpenJDK Runtime Environment
JVM: OpenJDK 64-Bit Server VM
Default Encoding: Cp1252
Language: pt
Country: PT
--></g></svg>