<?xml version="1.0" encoding="UTF-8" standalone="no"?><svg xmlns="http://www.w3.org/2000/svg" xmlns:xlink="http://www.w3.org/1999/xlink" contentScriptType="application/ecmascript" contentStyleType="text/css" height="559px" preserveAspectRatio="none" style="width:268px;height:559px;background:#FFFFFF;" version="1.1" viewBox="0 0 268 559" width="268px" zoomAndPan="magnify"><defs><filter height="300%" id="fss4x0m2wio3f" width="300%" x="-1" y="-1"><feGaussianBlur result="blurOut" stdDeviation="2.0"/><feColorMatrix in="blurOut" result="blurOut2" type="matrix" values="0 0 0 0 0 0 0 0 0 0 0 0 0 0 0 0 0 0 .4 0"/><feOffset dx="4.0" dy="4.0" in="blurOut2" result="blurOut3"/><feBlend in="SourceGraphic" in2="blurOut3" mode="normal"/></filter></defs><g><!--MD5=[ddaf6f62b0bc30921877ec9fb9463c9f]
class TrafficManager--><rect codeLine="6" fill="#FEFECE" filter="url(#fss4x0m2wio3f)" height="53.8359" id="TrafficManager" style="stroke:#A80036;stroke-width:1.5;" width="113" x="75.5" y="7"/><ellipse cx="90.5" cy="23" fill="#ADD1B2" rx="11" ry="11" style="stroke:#A80036;stroke-width:1.0;"/><path d="M92.5,19.5 Q92.7031,19 92.9375,18.75 Q93.1719,18.5 93.4375,18.5 Q93.9063,18.5 94.2031,18.7813 Q94.5,19.0625 94.5,19.7188 L94.5,21.2813 Q94.5,21.9375 94.2188,22.2188 Q93.9375,22.5 93.5,22.5 Q93.1094,22.5 92.8594,22.3281 Q92.6094,22.1563 92.5,21.7031 Q92.4531,21.3906 92.2813,21.2188 Q91.9688,20.8906 91.4063,20.7031 Q90.8438,20.5 90.2813,20.5 Q89.5781,20.5 88.9844,20.7813 Q88.4063,21.0625 87.9531,21.6875 Q87.5,22.3125 87.5,23.1719 L87.5,24.0938 Q87.5,25.125 88.3438,25.8125 Q89.1875,26.5 90.6875,26.5 Q91.5781,26.5 92.2031,26.2969 Q92.5625,26.1875 92.9688,25.8281 Q93.2344,25.625 93.375,25.5625 Q93.5156,25.5 93.6875,25.5 Q94.0156,25.5 94.25,25.7656 Q94.5,26.0156 94.5,26.375 Q94.5,26.7188 94.1563,27.125 Q93.6563,27.7188 92.8594,28.0469 Q91.8125,28.5 90.5313,28.5 Q89.0313,28.5 87.8281,27.9063 Q86.8594,27.4375 86.1719,26.4219 Q85.5,25.4063 85.5,24.2031 L85.5,23.1094 Q85.5,21.8594 86.0938,20.7656 Q86.7031,19.6719 87.75,19.0938 Q88.8125,18.5 90,18.5 Q90.7188,18.5 91.3438,18.75 Q91.9688,19 92.5,19.5 Z " fill="#000000"/><text fill="#000000" font-family="sans-serif" font-size="12" lengthAdjust="spacing" textLength="81" x="104.5" y="27.9102">TrafficManager</text><line style="stroke:#A80036;stroke-width:1.5;" x1="76.5" x2="187.5" y1="39" y2="39"/><text fill="#000000" font-family="sans-serif" font-size="11" lengthAdjust="spacing" textLength="30" x="81.5" y="54.4189">-name</text><!--MD5=[0dc7f2ddb409b58bcf52b12238c25399]
class Ship--><rect codeLine="10" fill="#FEFECE" filter="url(#fss4x0m2wio3f)" height="178.3594" id="Ship" style="stroke:#A80036;stroke-width:1.5;" width="93" x="85.5" y="139"/><ellipse cx="116.7" cy="155" fill="#ADD1B2" rx="11" ry="11" style="stroke:#A80036;stroke-width:1.0;"/><path d="M118.7,151.5 Q118.9031,151 119.1375,150.75 Q119.3719,150.5 119.6375,150.5 Q120.1063,150.5 120.4031,150.7813 Q120.7,151.0625 120.7,151.7188 L120.7,153.2813 Q120.7,153.9375 120.4188,154.2188 Q120.1375,154.5 119.7,154.5 Q119.3094,154.5 119.0594,154.3281 Q118.8094,154.1563 118.7,153.7031 Q118.6531,153.3906 118.4813,153.2188 Q118.1688,152.8906 117.6063,152.7031 Q117.0438,152.5 116.4813,152.5 Q115.7781,152.5 115.1844,152.7813 Q114.6063,153.0625 114.1531,153.6875 Q113.7,154.3125 113.7,155.1719 L113.7,156.0938 Q113.7,157.125 114.5438,157.8125 Q115.3875,158.5 116.8875,158.5 Q117.7781,158.5 118.4031,158.2969 Q118.7625,158.1875 119.1688,157.8281 Q119.4344,157.625 119.575,157.5625 Q119.7156,157.5 119.8875,157.5 Q120.2156,157.5 120.45,157.7656 Q120.7,158.0156 120.7,158.375 Q120.7,158.7188 120.3563,159.125 Q119.8563,159.7188 119.0594,160.0469 Q118.0125,160.5 116.7313,160.5 Q115.2313,160.5 114.0281,159.9063 Q113.0594,159.4375 112.3719,158.4219 Q111.7,157.4063 111.7,156.2031 L111.7,155.1094 Q111.7,153.8594 112.2938,152.7656 Q112.9031,151.6719 113.95,151.0938 Q115.0125,150.5 116.2,150.5 Q116.9188,150.5 117.5438,150.75 Q118.1688,151 118.7,151.5 Z " fill="#000000"/><text fill="#000000" font-family="sans-serif" font-size="12" lengthAdjust="spacing" textLength="25" x="134.3" y="159.9102">Ship</text><line style="stroke:#A80036;stroke-width:1.5;" x1="86.5" x2="177.5" y1="171" y2="171"/><text fill="#000000" font-family="sans-serif" font-size="11" lengthAdjust="spacing" textLength="53" x="91.5" y="186.4189">-mmsiCode</text><text fill="#000000" font-family="sans-serif" font-size="11" lengthAdjust="spacing" textLength="51" x="91.5" y="200.2549">-shipName</text><text fill="#000000" font-family="sans-serif" font-size="11" lengthAdjust="spacing" textLength="45" x="91.5" y="214.0908">-imoCode</text><text fill="#000000" font-family="sans-serif" font-size="11" lengthAdjust="spacing" textLength="68" x="91.5" y="227.9268">-vesselTypeId</text><text fill="#000000" font-family="sans-serif" font-size="11" lengthAdjust="spacing" textLength="49" x="91.5" y="241.7627">-callSignId</text><text fill="#000000" font-family="sans-serif" font-size="11" lengthAdjust="spacing" textLength="32" x="91.5" y="255.5986">-cargo</text><text fill="#000000" font-family="sans-serif" font-size="11" lengthAdjust="spacing" textLength="27" x="91.5" y="269.4346">-draft</text><text fill="#000000" font-family="sans-serif" font-size="11" lengthAdjust="spacing" textLength="33" x="91.5" y="283.2705">-length</text><text fill="#000000" font-family="sans-serif" font-size="11" lengthAdjust="spacing" textLength="31" x="91.5" y="297.1064">-width</text><text fill="#000000" font-family="sans-serif" font-size="11" lengthAdjust="spacing" textLength="81" x="91.5" y="310.9424">-currentCapacity</text><!--MD5=[cd383c058592010a1996452fddaad790]
class ShipTrip--><rect codeLine="23" fill="#FEFECE" filter="url(#fss4x0m2wio3f)" height="95.3438" id="ShipTrip" style="stroke:#A80036;stroke-width:1.5;" width="110" x="7" y="423"/><ellipse cx="36.4" cy="439" fill="#ADD1B2" rx="11" ry="11" style="stroke:#A80036;stroke-width:1.0;"/><path d="M38.4,435.5 Q38.6031,435 38.8375,434.75 Q39.0719,434.5 39.3375,434.5 Q39.8063,434.5 40.1031,434.7813 Q40.4,435.0625 40.4,435.7188 L40.4,437.2813 Q40.4,437.9375 40.1188,438.2188 Q39.8375,438.5 39.4,438.5 Q39.0094,438.5 38.7594,438.3281 Q38.5094,438.1563 38.4,437.7031 Q38.3531,437.3906 38.1813,437.2188 Q37.8688,436.8906 37.3063,436.7031 Q36.7438,436.5 36.1813,436.5 Q35.4781,436.5 34.8844,436.7813 Q34.3063,437.0625 33.8531,437.6875 Q33.4,438.3125 33.4,439.1719 L33.4,440.0938 Q33.4,441.125 34.2438,441.8125 Q35.0875,442.5 36.5875,442.5 Q37.4781,442.5 38.1031,442.2969 Q38.4625,442.1875 38.8688,441.8281 Q39.1344,441.625 39.275,441.5625 Q39.4156,441.5 39.5875,441.5 Q39.9156,441.5 40.15,441.7656 Q40.4,442.0156 40.4,442.375 Q40.4,442.7188 40.0563,443.125 Q39.5563,443.7188 38.7594,444.0469 Q37.7125,444.5 36.4313,444.5 Q34.9313,444.5 33.7281,443.9063 Q32.7594,443.4375 32.0719,442.4219 Q31.4,441.4063 31.4,440.2031 L31.4,439.1094 Q31.4,437.8594 31.9938,436.7656 Q32.6031,435.6719 33.65,435.0938 Q34.7125,434.5 35.9,434.5 Q36.6188,434.5 37.2438,434.75 Q37.8688,435 38.4,435.5 Z " fill="#000000"/><text fill="#000000" font-family="sans-serif" font-size="12" lengthAdjust="spacing" textLength="46" x="53.6" y="443.9102">ShipTrip</text><line style="stroke:#A80036;stroke-width:1.5;" x1="8" x2="116" y1="455" y2="455"/><text fill="#000000" font-family="sans-serif" font-size="11" lengthAdjust="spacing" textLength="95" x="13" y="470.4189">est_departure_date</text><text fill="#000000" font-family="sans-serif" font-size="11" lengthAdjust="spacing" textLength="78" x="13" y="484.2549">est_arrival_date</text><text fill="#000000" font-family="sans-serif" font-size="11" lengthAdjust="spacing" textLength="98" x="13" y="498.0908">real_departure_date</text><text fill="#000000" font-family="sans-serif" font-size="11" lengthAdjust="spacing" textLength="81" x="13" y="511.9268">real_arrival_date</text><!--MD5=[1c0c3765e68dc4575d559b566278b914]
class ShipPosition--><rect codeLine="35" fill="#FEFECE" filter="url(#fss4x0m2wio3f)" height="150.6875" id="ShipPosition" style="stroke:#A80036;stroke-width:1.5;" width="102" x="152" y="395"/><ellipse cx="167" cy="411" fill="#ADD1B2" rx="11" ry="11" style="stroke:#A80036;stroke-width:1.0;"/><path d="M169,407.5 Q169.2031,407 169.4375,406.75 Q169.6719,406.5 169.9375,406.5 Q170.4063,406.5 170.7031,406.7813 Q171,407.0625 171,407.7188 L171,409.2813 Q171,409.9375 170.7188,410.2188 Q170.4375,410.5 170,410.5 Q169.6094,410.5 169.3594,410.3281 Q169.1094,410.1563 169,409.7031 Q168.9531,409.3906 168.7813,409.2188 Q168.4688,408.8906 167.9063,408.7031 Q167.3438,408.5 166.7813,408.5 Q166.0781,408.5 165.4844,408.7813 Q164.9063,409.0625 164.4531,409.6875 Q164,410.3125 164,411.1719 L164,412.0938 Q164,413.125 164.8438,413.8125 Q165.6875,414.5 167.1875,414.5 Q168.0781,414.5 168.7031,414.2969 Q169.0625,414.1875 169.4688,413.8281 Q169.7344,413.625 169.875,413.5625 Q170.0156,413.5 170.1875,413.5 Q170.5156,413.5 170.75,413.7656 Q171,414.0156 171,414.375 Q171,414.7188 170.6563,415.125 Q170.1563,415.7188 169.3594,416.0469 Q168.3125,416.5 167.0313,416.5 Q165.5313,416.5 164.3281,415.9063 Q163.3594,415.4375 162.6719,414.4219 Q162,413.4063 162,412.2031 L162,411.1094 Q162,409.8594 162.5938,408.7656 Q163.2031,407.6719 164.25,407.0938 Q165.3125,406.5 166.5,406.5 Q167.2188,406.5 167.8438,406.75 Q168.4688,407 169,407.5 Z " fill="#000000"/><text fill="#000000" font-family="sans-serif" font-size="12" lengthAdjust="spacing" textLength="70" x="181" y="415.9102">ShipPosition</text><line style="stroke:#A80036;stroke-width:1.5;" x1="153" x2="253" y1="427" y2="427"/><text fill="#000000" font-family="sans-serif" font-size="11" lengthAdjust="spacing" textLength="72" x="158" y="442.4189">-baseDateTime</text><text fill="#000000" font-family="sans-serif" font-size="11" lengthAdjust="spacing" textLength="38" x="158" y="456.2549">-latitude</text><text fill="#000000" font-family="sans-serif" font-size="11" lengthAdjust="spacing" textLength="47" x="158" y="470.0908">-longitude</text><text fill="#000000" font-family="sans-serif" font-size="11" lengthAdjust="spacing" textLength="22" x="158" y="483.9268">-sog</text><text fill="#000000" font-family="sans-serif" font-size="11" lengthAdjust="spacing" textLength="22" x="158" y="497.7627">-cog</text><text fill="#000000" font-family="sans-serif" font-size="11" lengthAdjust="spacing" textLength="42" x="158" y="511.5986">-heading</text><text fill="#000000" font-family="sans-serif" font-size="11" lengthAdjust="spacing" textLength="41" x="158" y="525.4346">-position</text><text fill="#000000" font-family="sans-serif" font-size="11" lengthAdjust="spacing" textLength="59" x="158" y="539.2705">-transceiver</text><!--MD5=[40e2b5717560220ad35e84810a8f1b44]
link TrafficManager to Ship--><path codeLine="46" d="M132,61.29 C132,81.53 132,110.72 132,138.99 " fill="none" id="TrafficManager-Ship" style="stroke:#A80036;stroke-width:1.0;"/><polygon fill="#000000" points="137,105.1758,139.9389,96.1307,134.0611,96.1307,137,105.1758" style="stroke:#000000;stroke-width:1.0;"/><text fill="#000000" font-family="sans-serif" font-size="13" lengthAdjust="spacing" textLength="52" x="146" y="105.4951">analyses</text><text fill="#000000" font-family="sans-serif" font-size="13" lengthAdjust="spacing" textLength="7" x="124.2781" y="82.1169">1</text><text fill="#000000" font-family="sans-serif" font-size="13" lengthAdjust="spacing" textLength="20" x="111.1406" y="128.148">1..*</text><!--MD5=[64222e8dc32db9269c070a2ba1692d85]
link Ship to ShipTrip--><path codeLine="47" d="M106.33,317.19 C95.91,352.98 84.31,392.86 75.58,422.84 " fill="none" id="Ship-ShipTrip" style="stroke:#A80036;stroke-width:1.0;"/><polygon fill="#000000" points="100.6027,360.9766,105.9523,353.1132,100.3086,351.4706,100.6027,360.9766" style="stroke:#000000;stroke-width:1.0;"/><text fill="#000000" font-family="sans-serif" font-size="13" lengthAdjust="spacing" textLength="28" x="111" y="361.4951">does</text><text fill="#000000" font-family="sans-serif" font-size="13" lengthAdjust="spacing" textLength="7" x="96.9144" y="338.7333">1</text><text fill="#000000" font-family="sans-serif" font-size="13" lengthAdjust="spacing" textLength="5" x="72.2074" y="412.1606">*</text><!--MD5=[f56e222e1748568825f030a9b791275e]
link Ship to ShipPosition--><path codeLine="48" d="M158.03,317.19 C165.55,342.66 173.69,370.2 180.94,394.77 " fill="none" id="Ship-ShipPosition" style="stroke:#A80036;stroke-width:1.0;"/><polygon fill="#000000" points="177.4161,360.9711,177.673,351.464,172.0358,353.1287,177.4161,360.9711" style="stroke:#000000;stroke-width:1.0;"/><text fill="#000000" font-family="sans-serif" font-size="13" lengthAdjust="spacing" textLength="21" x="185" y="361.4951">has</text><text fill="#000000" font-family="sans-serif" font-size="13" lengthAdjust="spacing" textLength="7" x="152.8958" y="338.7333">1</text><text fill="#000000" font-family="sans-serif" font-size="13" lengthAdjust="spacing" textLength="20" x="157.7841" y="384.0556">1..*</text><!--MD5=[42f071d2c53408f5eff895fc8dfa1e37]
@startuml

skinparam classAttributeIconSize 0
hide empty methods
hide empty attributes

class TrafficManager{
    -name
}

class Ship {
    -mmsiCode
    -shipName
    -imoCode
    -vesselTypeId
    -callSignId
    -cargo
    -draft
    -length
    -width
    -currentCapacity
}

class ShipTrip{
    /'FK mmsi
    FK start_location_id
    FK destination_location_id
    FK loading_cargo_id
    FK unloading_cargo_id'/
    est_departure_date
    est_arrival_date
    real_departure_date
    real_arrival_date
}

class ShipPosition {
    -baseDateTime
    -latitude
    -longitude
    -sog
    -cog
    -heading
    -position
    -transceiver
}

TrafficManager "1" - - "1..*" Ship : analyses >
Ship "1" - - "*" ShipTrip : does >
Ship "1" - - "1..*" ShipPosition : has >




@enduml

@startuml

skinparam classAttributeIconSize 0
hide empty methods
hide empty attributes

class TrafficManager{
    -name
}

class Ship {
    -mmsiCode
    -shipName
    -imoCode
    -vesselTypeId
    -callSignId
    -cargo
    -draft
    -length
    -width
    -currentCapacity
}

class ShipTrip{
    est_departure_date
    est_arrival_date
    real_departure_date
    real_arrival_date
}

class ShipPosition {
    -baseDateTime
    -latitude
    -longitude
    -sog
    -cog
    -heading
    -position
    -transceiver
}

TrafficManager "1" - - "1..*" Ship : analyses >
Ship "1" - - "*" ShipTrip : does >
Ship "1" - - "1..*" ShipPosition : has >




@enduml

PlantUML version 1.2021.11(Sat Oct 02 14:26:11 BST 2021)
(GPL source distribution)
Java Runtime: OpenJDK Runtime Environment
JVM: OpenJDK 64-Bit Server VM
Default Encoding: Cp1252
Language: pt
Country: PT
--></g></svg>