<?xml version="1.0" encoding="UTF-8" standalone="no"?><svg xmlns="http://www.w3.org/2000/svg" xmlns:xlink="http://www.w3.org/1999/xlink" contentScriptType="application/ecmascript" contentStyleType="text/css" height="885px" preserveAspectRatio="none" style="width:539px;height:885px;background:#FFFFFF;" version="1.1" viewBox="0 0 539 885" width="539px" zoomAndPan="magnify"><defs><filter height="300%" id="f10h0ab7hudu8z" width="300%" x="-1" y="-1"><feGaussianBlur result="blurOut" stdDeviation="2.0"/><feColorMatrix in="blurOut" result="blurOut2" type="matrix" values="0 0 0 0 0 0 0 0 0 0 0 0 0 0 0 0 0 0 .4 0"/><feOffset dx="4.0" dy="4.0" in="blurOut2" result="blurOut3"/><feBlend in="SourceGraphic" in2="blurOut3" mode="normal"/></filter></defs><g><!--MD5=[02e4b9b7573f1156f41e60aa5b4e25a4]
class Company--><rect codeLine="3" fill="#FEFECE" filter="url(#f10h0ab7hudu8z)" height="61.8359" id="Company" style="stroke:#A80036;stroke-width:1.5;" width="88" x="67.5" y="144"/><ellipse cx="83.85" cy="160" fill="#ADD1B2" rx="11" ry="11" style="stroke:#A80036;stroke-width:1.0;"/><path d="M85.85,156.5 Q86.0531,156 86.2875,155.75 Q86.5219,155.5 86.7875,155.5 Q87.2563,155.5 87.5531,155.7813 Q87.85,156.0625 87.85,156.7188 L87.85,158.2813 Q87.85,158.9375 87.5688,159.2188 Q87.2875,159.5 86.85,159.5 Q86.4594,159.5 86.2094,159.3281 Q85.9594,159.1563 85.85,158.7031 Q85.8031,158.3906 85.6313,158.2188 Q85.3188,157.8906 84.7563,157.7031 Q84.1938,157.5 83.6313,157.5 Q82.9281,157.5 82.3344,157.7813 Q81.7563,158.0625 81.3031,158.6875 Q80.85,159.3125 80.85,160.1719 L80.85,161.0938 Q80.85,162.125 81.6938,162.8125 Q82.5375,163.5 84.0375,163.5 Q84.9281,163.5 85.5531,163.2969 Q85.9125,163.1875 86.3188,162.8281 Q86.5844,162.625 86.725,162.5625 Q86.8656,162.5 87.0375,162.5 Q87.3656,162.5 87.6,162.7656 Q87.85,163.0156 87.85,163.375 Q87.85,163.7188 87.5063,164.125 Q87.0063,164.7188 86.2094,165.0469 Q85.1625,165.5 83.8813,165.5 Q82.3813,165.5 81.1781,164.9063 Q80.2094,164.4375 79.5219,163.4219 Q78.85,162.4063 78.85,161.2031 L78.85,160.1094 Q78.85,158.8594 79.4438,157.7656 Q80.0531,156.6719 81.1,156.0938 Q82.1625,155.5 83.35,155.5 Q84.0688,155.5 84.6938,155.75 Q85.3188,156 85.85,156.5 Z " fill="#000000"/><text fill="#000000" font-family="sans-serif" font-size="12" lengthAdjust="spacing" textLength="53" x="98.15" y="164.9102">Company</text><line style="stroke:#A80036;stroke-width:1.5;" x1="68.5" x2="154.5" y1="176" y2="176"/><line style="stroke:#A80036;stroke-width:1.5;" x1="68.5" x2="154.5" y1="184" y2="184"/><text fill="#000000" font-family="sans-serif" font-size="11" lengthAdjust="spacing" textLength="76" x="73.5" y="199.4189">+getShipStore()</text><!--MD5=[b4a9ab6cffd58937cfea07eb2954e1bd]
class BST--><rect codeLine="6" fill="#FEFECE" filter="url(#f10h0ab7hudu8z)" height="48" id="BST" style="stroke:#A80036;stroke-width:1.5;" width="55" x="275" y="694"/><ellipse cx="290" cy="710" fill="#ADD1B2" rx="11" ry="11" style="stroke:#A80036;stroke-width:1.0;"/><path d="M292,706.5 Q292.2031,706 292.4375,705.75 Q292.6719,705.5 292.9375,705.5 Q293.4063,705.5 293.7031,705.7813 Q294,706.0625 294,706.7188 L294,708.2813 Q294,708.9375 293.7188,709.2188 Q293.4375,709.5 293,709.5 Q292.6094,709.5 292.3594,709.3281 Q292.1094,709.1563 292,708.7031 Q291.9531,708.3906 291.7813,708.2188 Q291.4688,707.8906 290.9063,707.7031 Q290.3438,707.5 289.7813,707.5 Q289.0781,707.5 288.4844,707.7813 Q287.9063,708.0625 287.4531,708.6875 Q287,709.3125 287,710.1719 L287,711.0938 Q287,712.125 287.8438,712.8125 Q288.6875,713.5 290.1875,713.5 Q291.0781,713.5 291.7031,713.2969 Q292.0625,713.1875 292.4688,712.8281 Q292.7344,712.625 292.875,712.5625 Q293.0156,712.5 293.1875,712.5 Q293.5156,712.5 293.75,712.7656 Q294,713.0156 294,713.375 Q294,713.7188 293.6563,714.125 Q293.1563,714.7188 292.3594,715.0469 Q291.3125,715.5 290.0313,715.5 Q288.5313,715.5 287.3281,714.9063 Q286.3594,714.4375 285.6719,713.4219 Q285,712.4063 285,711.2031 L285,710.1094 Q285,708.8594 285.5938,707.7656 Q286.2031,706.6719 287.25,706.0938 Q288.3125,705.5 289.5,705.5 Q290.2188,705.5 290.8438,705.75 Q291.4688,706 292,706.5 Z " fill="#000000"/><text fill="#000000" font-family="sans-serif" font-size="12" lengthAdjust="spacing" textLength="23" x="304" y="714.9102">BST</text><line style="stroke:#A80036;stroke-width:1.5;" x1="276" x2="329" y1="726" y2="726"/><line style="stroke:#A80036;stroke-width:1.5;" x1="276" x2="329" y1="734" y2="734"/><!--MD5=[4308a223f203dbd64353ded297da1c90]
class ShipsStore--><rect codeLine="8" fill="#FEFECE" filter="url(#f10h0ab7hudu8z)" height="61.8359" id="ShipsStore" style="stroke:#A80036;stroke-width:1.5;" width="171" x="123" y="284"/><ellipse cx="173.75" cy="300" fill="#ADD1B2" rx="11" ry="11" style="stroke:#A80036;stroke-width:1.0;"/><path d="M175.75,296.5 Q175.9531,296 176.1875,295.75 Q176.4219,295.5 176.6875,295.5 Q177.1563,295.5 177.4531,295.7813 Q177.75,296.0625 177.75,296.7188 L177.75,298.2813 Q177.75,298.9375 177.4688,299.2188 Q177.1875,299.5 176.75,299.5 Q176.3594,299.5 176.1094,299.3281 Q175.8594,299.1563 175.75,298.7031 Q175.7031,298.3906 175.5313,298.2188 Q175.2188,297.8906 174.6563,297.7031 Q174.0938,297.5 173.5313,297.5 Q172.8281,297.5 172.2344,297.7813 Q171.6563,298.0625 171.2031,298.6875 Q170.75,299.3125 170.75,300.1719 L170.75,301.0938 Q170.75,302.125 171.5938,302.8125 Q172.4375,303.5 173.9375,303.5 Q174.8281,303.5 175.4531,303.2969 Q175.8125,303.1875 176.2188,302.8281 Q176.4844,302.625 176.625,302.5625 Q176.7656,302.5 176.9375,302.5 Q177.2656,302.5 177.5,302.7656 Q177.75,303.0156 177.75,303.375 Q177.75,303.7188 177.4063,304.125 Q176.9063,304.7188 176.1094,305.0469 Q175.0625,305.5 173.7813,305.5 Q172.2813,305.5 171.0781,304.9063 Q170.1094,304.4375 169.4219,303.4219 Q168.75,302.4063 168.75,301.2031 L168.75,300.1094 Q168.75,298.8594 169.3438,297.7656 Q169.9531,296.6719 171,296.0938 Q172.0625,295.5 173.25,295.5 Q173.9688,295.5 174.5938,295.75 Q175.2188,296 175.75,296.5 Z " fill="#000000"/><text fill="#000000" font-family="sans-serif" font-size="12" lengthAdjust="spacing" textLength="61" x="194.25" y="304.9102">ShipsStore</text><line style="stroke:#A80036;stroke-width:1.5;" x1="124" x2="293" y1="316" y2="316"/><line style="stroke:#A80036;stroke-width:1.5;" x1="124" x2="293" y1="324" y2="324"/><text fill="#000000" font-family="sans-serif" font-size="11" lengthAdjust="spacing" textLength="159" x="129" y="339.4189">+Ship findShipByAnyCode(code)</text><!--MD5=[0dc7f2ddb409b58bcf52b12238c25399]
class Ship--><rect codeLine="11" fill="#FEFECE" filter="url(#f10h0ab7hudu8z)" height="61.8359" id="Ship" style="stroke:#A80036;stroke-width:1.5;" width="57" x="114" y="547"/><ellipse cx="129" cy="563" fill="#ADD1B2" rx="11" ry="11" style="stroke:#A80036;stroke-width:1.0;"/><path d="M131,559.5 Q131.2031,559 131.4375,558.75 Q131.6719,558.5 131.9375,558.5 Q132.4063,558.5 132.7031,558.7813 Q133,559.0625 133,559.7188 L133,561.2813 Q133,561.9375 132.7188,562.2188 Q132.4375,562.5 132,562.5 Q131.6094,562.5 131.3594,562.3281 Q131.1094,562.1563 131,561.7031 Q130.9531,561.3906 130.7813,561.2188 Q130.4688,560.8906 129.9063,560.7031 Q129.3438,560.5 128.7813,560.5 Q128.0781,560.5 127.4844,560.7813 Q126.9063,561.0625 126.4531,561.6875 Q126,562.3125 126,563.1719 L126,564.0938 Q126,565.125 126.8438,565.8125 Q127.6875,566.5 129.1875,566.5 Q130.0781,566.5 130.7031,566.2969 Q131.0625,566.1875 131.4688,565.8281 Q131.7344,565.625 131.875,565.5625 Q132.0156,565.5 132.1875,565.5 Q132.5156,565.5 132.75,565.7656 Q133,566.0156 133,566.375 Q133,566.7188 132.6563,567.125 Q132.1563,567.7188 131.3594,568.0469 Q130.3125,568.5 129.0313,568.5 Q127.5313,568.5 126.3281,567.9063 Q125.3594,567.4375 124.6719,566.4219 Q124,565.4063 124,564.2031 L124,563.1094 Q124,561.8594 124.5938,560.7656 Q125.2031,559.6719 126.25,559.0938 Q127.3125,558.5 128.5,558.5 Q129.2188,558.5 129.8438,558.75 Q130.4688,559 131,559.5 Z " fill="#000000"/><text fill="#000000" font-family="sans-serif" font-size="12" lengthAdjust="spacing" textLength="25" x="143" y="567.9102">Ship</text><line style="stroke:#A80036;stroke-width:1.5;" x1="115" x2="170" y1="579" y2="579"/><text fill="#000000" font-family="sans-serif" font-size="11" lengthAdjust="spacing" textLength="40" x="120" y="594.4189">+getters</text><line style="stroke:#A80036;stroke-width:1.5;" x1="115" x2="170" y1="600.8359" y2="600.8359"/><!--MD5=[43adf079e4aaffd3a283c2c0454b404c]
class ShipsBST--><rect codeLine="15" fill="#FEFECE" filter="url(#f10h0ab7hudu8z)" height="61.8359" id="ShipsBST" style="stroke:#A80036;stroke-width:1.5;" width="127" x="398" y="424"/><ellipse cx="431" cy="440" fill="#ADD1B2" rx="11" ry="11" style="stroke:#A80036;stroke-width:1.0;"/><path d="M433,436.5 Q433.2031,436 433.4375,435.75 Q433.6719,435.5 433.9375,435.5 Q434.4063,435.5 434.7031,435.7813 Q435,436.0625 435,436.7188 L435,438.2813 Q435,438.9375 434.7188,439.2188 Q434.4375,439.5 434,439.5 Q433.6094,439.5 433.3594,439.3281 Q433.1094,439.1563 433,438.7031 Q432.9531,438.3906 432.7813,438.2188 Q432.4688,437.8906 431.9063,437.7031 Q431.3438,437.5 430.7813,437.5 Q430.0781,437.5 429.4844,437.7813 Q428.9063,438.0625 428.4531,438.6875 Q428,439.3125 428,440.1719 L428,441.0938 Q428,442.125 428.8438,442.8125 Q429.6875,443.5 431.1875,443.5 Q432.0781,443.5 432.7031,443.2969 Q433.0625,443.1875 433.4688,442.8281 Q433.7344,442.625 433.875,442.5625 Q434.0156,442.5 434.1875,442.5 Q434.5156,442.5 434.75,442.7656 Q435,443.0156 435,443.375 Q435,443.7188 434.6563,444.125 Q434.1563,444.7188 433.3594,445.0469 Q432.3125,445.5 431.0313,445.5 Q429.5313,445.5 428.3281,444.9063 Q427.3594,444.4375 426.6719,443.4219 Q426,442.4063 426,441.2031 L426,440.1094 Q426,438.8594 426.5938,437.7656 Q427.2031,436.6719 428.25,436.0938 Q429.3125,435.5 430.5,435.5 Q431.2188,435.5 431.8438,435.75 Q432.4688,436 433,436.5 Z " fill="#000000"/><text fill="#000000" font-family="sans-serif" font-size="12" lengthAdjust="spacing" textLength="55" x="449" y="444.9102">ShipsBST</text><line style="stroke:#A80036;stroke-width:1.5;" x1="399" x2="524" y1="456" y2="456"/><line style="stroke:#A80036;stroke-width:1.5;" x1="399" x2="524" y1="464" y2="464"/><text fill="#000000" font-family="sans-serif" font-size="11" lengthAdjust="spacing" textLength="115" x="404" y="479.4189">+findShipByMmsi(MMSI)</text><!--MD5=[161eb210b6023c573fce756084aec649]
class ShipsBSTImo--><rect codeLine="19" fill="#FEFECE" filter="url(#f10h0ab7hudu8z)" height="61.8359" id="ShipsBSTImo" style="stroke:#A80036;stroke-width:1.5;" width="110" x="252.5" y="424"/><ellipse cx="268.4" cy="440" fill="#ADD1B2" rx="11" ry="11" style="stroke:#A80036;stroke-width:1.0;"/><path d="M270.4,436.5 Q270.6031,436 270.8375,435.75 Q271.0719,435.5 271.3375,435.5 Q271.8063,435.5 272.1031,435.7813 Q272.4,436.0625 272.4,436.7188 L272.4,438.2813 Q272.4,438.9375 272.1188,439.2188 Q271.8375,439.5 271.4,439.5 Q271.0094,439.5 270.7594,439.3281 Q270.5094,439.1563 270.4,438.7031 Q270.3531,438.3906 270.1813,438.2188 Q269.8688,437.8906 269.3063,437.7031 Q268.7438,437.5 268.1813,437.5 Q267.4781,437.5 266.8844,437.7813 Q266.3063,438.0625 265.8531,438.6875 Q265.4,439.3125 265.4,440.1719 L265.4,441.0938 Q265.4,442.125 266.2438,442.8125 Q267.0875,443.5 268.5875,443.5 Q269.4781,443.5 270.1031,443.2969 Q270.4625,443.1875 270.8688,442.8281 Q271.1344,442.625 271.275,442.5625 Q271.4156,442.5 271.5875,442.5 Q271.9156,442.5 272.15,442.7656 Q272.4,443.0156 272.4,443.375 Q272.4,443.7188 272.0563,444.125 Q271.5563,444.7188 270.7594,445.0469 Q269.7125,445.5 268.4313,445.5 Q266.9313,445.5 265.7281,444.9063 Q264.7594,444.4375 264.0719,443.4219 Q263.4,442.4063 263.4,441.2031 L263.4,440.1094 Q263.4,438.8594 263.9938,437.7656 Q264.6031,436.6719 265.65,436.0938 Q266.7125,435.5 267.9,435.5 Q268.6188,435.5 269.2438,435.75 Q269.8688,436 270.4,436.5 Z " fill="#000000"/><text fill="#000000" font-family="sans-serif" font-size="12" lengthAdjust="spacing" textLength="76" x="282.6" y="444.9102">ShipsBSTImo</text><line style="stroke:#A80036;stroke-width:1.5;" x1="253.5" x2="361.5" y1="456" y2="456"/><line style="stroke:#A80036;stroke-width:1.5;" x1="253.5" x2="361.5" y1="464" y2="464"/><text fill="#000000" font-family="sans-serif" font-size="11" lengthAdjust="spacing" textLength="98" x="258.5" y="479.4189">+findShipByImo(imo)</text><!--MD5=[c18b351740c5329e2353b0d734c891ce]
class ShipsBSTCallSign--><rect codeLine="22" fill="#FEFECE" filter="url(#f10h0ab7hudu8z)" height="61.8359" id="ShipsBSTCallSign" style="stroke:#A80036;stroke-width:1.5;" width="151" x="66" y="424"/><ellipse cx="88.65" cy="440" fill="#ADD1B2" rx="11" ry="11" style="stroke:#A80036;stroke-width:1.0;"/><path d="M90.65,436.5 Q90.8531,436 91.0875,435.75 Q91.3219,435.5 91.5875,435.5 Q92.0563,435.5 92.3531,435.7813 Q92.65,436.0625 92.65,436.7188 L92.65,438.2813 Q92.65,438.9375 92.3688,439.2188 Q92.0875,439.5 91.65,439.5 Q91.2594,439.5 91.0094,439.3281 Q90.7594,439.1563 90.65,438.7031 Q90.6031,438.3906 90.4313,438.2188 Q90.1188,437.8906 89.5563,437.7031 Q88.9938,437.5 88.4313,437.5 Q87.7281,437.5 87.1344,437.7813 Q86.5563,438.0625 86.1031,438.6875 Q85.65,439.3125 85.65,440.1719 L85.65,441.0938 Q85.65,442.125 86.4938,442.8125 Q87.3375,443.5 88.8375,443.5 Q89.7281,443.5 90.3531,443.2969 Q90.7125,443.1875 91.1188,442.8281 Q91.3844,442.625 91.525,442.5625 Q91.6656,442.5 91.8375,442.5 Q92.1656,442.5 92.4,442.7656 Q92.65,443.0156 92.65,443.375 Q92.65,443.7188 92.3063,444.125 Q91.8063,444.7188 91.0094,445.0469 Q89.9625,445.5 88.6813,445.5 Q87.1813,445.5 85.9781,444.9063 Q85.0094,444.4375 84.3219,443.4219 Q83.65,442.4063 83.65,441.2031 L83.65,440.1094 Q83.65,438.8594 84.2438,437.7656 Q84.8531,436.6719 85.9,436.0938 Q86.9625,435.5 88.15,435.5 Q88.8688,435.5 89.4938,435.75 Q90.1188,436 90.65,436.5 Z " fill="#000000"/><text fill="#000000" font-family="sans-serif" font-size="12" lengthAdjust="spacing" textLength="102" x="104.35" y="444.9102">ShipsBSTCallSign</text><line style="stroke:#A80036;stroke-width:1.5;" x1="67" x2="216" y1="456" y2="456"/><line style="stroke:#A80036;stroke-width:1.5;" x1="67" x2="216" y1="464" y2="464"/><text fill="#000000" font-family="sans-serif" font-size="11" lengthAdjust="spacing" textLength="139" x="72" y="479.4189">+findShipByCallsign(callsign)</text><!--MD5=[1c0c3765e68dc4575d559b566278b914]
class ShipPosition--><rect codeLine="26" fill="#FEFECE" filter="url(#f10h0ab7hudu8z)" height="61.8359" id="ShipPosition" style="stroke:#A80036;stroke-width:1.5;" width="102" x="71.5" y="810"/><ellipse cx="86.5" cy="826" fill="#ADD1B2" rx="11" ry="11" style="stroke:#A80036;stroke-width:1.0;"/><path d="M88.5,822.5 Q88.7031,822 88.9375,821.75 Q89.1719,821.5 89.4375,821.5 Q89.9063,821.5 90.2031,821.7813 Q90.5,822.0625 90.5,822.7188 L90.5,824.2813 Q90.5,824.9375 90.2188,825.2188 Q89.9375,825.5 89.5,825.5 Q89.1094,825.5 88.8594,825.3281 Q88.6094,825.1563 88.5,824.7031 Q88.4531,824.3906 88.2813,824.2188 Q87.9688,823.8906 87.4063,823.7031 Q86.8438,823.5 86.2813,823.5 Q85.5781,823.5 84.9844,823.7813 Q84.4063,824.0625 83.9531,824.6875 Q83.5,825.3125 83.5,826.1719 L83.5,827.0938 Q83.5,828.125 84.3438,828.8125 Q85.1875,829.5 86.6875,829.5 Q87.5781,829.5 88.2031,829.2969 Q88.5625,829.1875 88.9688,828.8281 Q89.2344,828.625 89.375,828.5625 Q89.5156,828.5 89.6875,828.5 Q90.0156,828.5 90.25,828.7656 Q90.5,829.0156 90.5,829.375 Q90.5,829.7188 90.1563,830.125 Q89.6563,830.7188 88.8594,831.0469 Q87.8125,831.5 86.5313,831.5 Q85.0313,831.5 83.8281,830.9063 Q82.8594,830.4375 82.1719,829.4219 Q81.5,828.4063 81.5,827.2031 L81.5,826.1094 Q81.5,824.8594 82.0938,823.7656 Q82.7031,822.6719 83.75,822.0938 Q84.8125,821.5 86,821.5 Q86.7188,821.5 87.3438,821.75 Q87.9688,822 88.5,822.5 Z " fill="#000000"/><text fill="#000000" font-family="sans-serif" font-size="12" lengthAdjust="spacing" textLength="70" x="100.5" y="830.9102">ShipPosition</text><line style="stroke:#A80036;stroke-width:1.5;" x1="72.5" x2="172.5" y1="842" y2="842"/><line style="stroke:#A80036;stroke-width:1.5;" x1="72.5" x2="172.5" y1="850" y2="850"/><text fill="#000000" font-family="sans-serif" font-size="11" lengthAdjust="spacing" textLength="51" x="77.5" y="865.4189">+toString()</text><!--MD5=[004e005a2edf96352d0772cab412880f]
class PositionsBST--><rect codeLine="30" fill="#FEFECE" filter="url(#f10h0ab7hudu8z)" height="61.8359" id="PositionsBST" style="stroke:#A80036;stroke-width:1.5;" width="107" x="7" y="687"/><ellipse cx="22" cy="703" fill="#ADD1B2" rx="11" ry="11" style="stroke:#A80036;stroke-width:1.0;"/><path d="M24,699.5 Q24.2031,699 24.4375,698.75 Q24.6719,698.5 24.9375,698.5 Q25.4063,698.5 25.7031,698.7813 Q26,699.0625 26,699.7188 L26,701.2813 Q26,701.9375 25.7188,702.2188 Q25.4375,702.5 25,702.5 Q24.6094,702.5 24.3594,702.3281 Q24.1094,702.1563 24,701.7031 Q23.9531,701.3906 23.7813,701.2188 Q23.4688,700.8906 22.9063,700.7031 Q22.3438,700.5 21.7813,700.5 Q21.0781,700.5 20.4844,700.7813 Q19.9063,701.0625 19.4531,701.6875 Q19,702.3125 19,703.1719 L19,704.0938 Q19,705.125 19.8438,705.8125 Q20.6875,706.5 22.1875,706.5 Q23.0781,706.5 23.7031,706.2969 Q24.0625,706.1875 24.4688,705.8281 Q24.7344,705.625 24.875,705.5625 Q25.0156,705.5 25.1875,705.5 Q25.5156,705.5 25.75,705.7656 Q26,706.0156 26,706.375 Q26,706.7188 25.6563,707.125 Q25.1563,707.7188 24.3594,708.0469 Q23.3125,708.5 22.0313,708.5 Q20.5313,708.5 19.3281,707.9063 Q18.3594,707.4375 17.6719,706.4219 Q17,705.4063 17,704.2031 L17,703.1094 Q17,701.8594 17.5938,700.7656 Q18.2031,699.6719 19.25,699.0938 Q20.3125,698.5 21.5,698.5 Q22.2188,698.5 22.8438,698.75 Q23.4688,699 24,699.5 Z " fill="#000000"/><text fill="#000000" font-family="sans-serif" font-size="12" lengthAdjust="spacing" textLength="75" x="36" y="707.9102">PositionsBST</text><line style="stroke:#A80036;stroke-width:1.5;" x1="8" x2="113" y1="719" y2="719"/><line style="stroke:#A80036;stroke-width:1.5;" x1="8" x2="113" y1="727" y2="727"/><text fill="#000000" font-family="sans-serif" font-size="11" lengthAdjust="spacing" textLength="51" x="13" y="742.4189">+toString()</text><!--MD5=[fc74649a38517bf81632f34af07d45f2]
class searchShipController--><rect codeLine="35" fill="#FEFECE" filter="url(#f10h0ab7hudu8z)" height="75.6719" id="searchShipController" style="stroke:#A80036;stroke-width:1.5;" width="169" x="75" y="7"/><ellipse cx="99" cy="23" fill="#ADD1B2" rx="11" ry="11" style="stroke:#A80036;stroke-width:1.0;"/><path d="M101,19.5 Q101.2031,19 101.4375,18.75 Q101.6719,18.5 101.9375,18.5 Q102.4063,18.5 102.7031,18.7813 Q103,19.0625 103,19.7188 L103,21.2813 Q103,21.9375 102.7188,22.2188 Q102.4375,22.5 102,22.5 Q101.6094,22.5 101.3594,22.3281 Q101.1094,22.1563 101,21.7031 Q100.9531,21.3906 100.7813,21.2188 Q100.4688,20.8906 99.9063,20.7031 Q99.3438,20.5 98.7813,20.5 Q98.0781,20.5 97.4844,20.7813 Q96.9063,21.0625 96.4531,21.6875 Q96,22.3125 96,23.1719 L96,24.0938 Q96,25.125 96.8438,25.8125 Q97.6875,26.5 99.1875,26.5 Q100.0781,26.5 100.7031,26.2969 Q101.0625,26.1875 101.4688,25.8281 Q101.7344,25.625 101.875,25.5625 Q102.0156,25.5 102.1875,25.5 Q102.5156,25.5 102.75,25.7656 Q103,26.0156 103,26.375 Q103,26.7188 102.6563,27.125 Q102.1563,27.7188 101.3594,28.0469 Q100.3125,28.5 99.0313,28.5 Q97.5313,28.5 96.3281,27.9063 Q95.3594,27.4375 94.6719,26.4219 Q94,25.4063 94,24.2031 L94,23.1094 Q94,21.8594 94.5938,20.7656 Q95.2031,19.6719 96.25,19.0938 Q97.3125,18.5 98.5,18.5 Q99.2188,18.5 99.8438,18.75 Q100.4688,19 101,19.5 Z " fill="#000000"/><text fill="#000000" font-family="sans-serif" font-size="12" lengthAdjust="spacing" textLength="117" x="115" y="27.9102">searchShipController</text><line style="stroke:#A80036;stroke-width:1.5;" x1="76" x2="243" y1="39" y2="39"/><line style="stroke:#A80036;stroke-width:1.5;" x1="76" x2="243" y1="47" y2="47"/><text fill="#000000" font-family="sans-serif" font-size="11" lengthAdjust="spacing" textLength="157" x="81" y="62.4189">+String getShipInfoByAnyCode()</text><text fill="#000000" font-family="sans-serif" font-size="11" lengthAdjust="spacing" textLength="137" x="81" y="76.2549">+String shipDetailsToString()</text><!--MD5=[0c74b562fa286403f0202718f897e702]
link searchShipController to Company--><path codeLine="41" d="M145.62,83.02 C138.99,100.71 131.09,121.75 124.57,139.14 " fill="none" id="searchShipController-to-Company" style="stroke:#A80036;stroke-width:1.0;stroke-dasharray:7.0,7.0;"/><polygon fill="#A80036" points="122.77,143.95,129.6825,136.9345,124.5303,139.2701,122.1947,134.118,122.77,143.95" style="stroke:#A80036;stroke-width:1.0;"/><!--MD5=[26b9f9d69124e17b36c97a46368c2bb1]
link searchShipController to ShipsStore--><path codeLine="42" d="M166.31,83.26 C175.77,134.99 192.76,227.9 202.03,278.61 " fill="none" id="searchShipController-to-ShipsStore" style="stroke:#A80036;stroke-width:1.0;stroke-dasharray:7.0,7.0;"/><polygon fill="#A80036" points="202.96,283.68,205.2733,274.1067,202.0593,278.7618,197.4041,275.5478,202.96,283.68" style="stroke:#A80036;stroke-width:1.0;"/><!--MD5=[37a14a5de6d6fd738aee271300f4b5c8]
link Company to Ship--><path codeLine="43" d="M93.94,206.23 C63.37,263.08 7.36,388.91 48.5,486 C60.88,515.21 87.74,539.64 109.59,555.81 " fill="none" id="Company-to-Ship" style="stroke:#A80036;stroke-width:1.0;"/><polygon fill="#A80036" points="113.88,558.93,108.9433,550.4077,109.8326,555.9942,104.2461,556.8835,113.88,558.93" style="stroke:#A80036;stroke-width:1.0;"/><text fill="#000000" font-family="sans-serif" font-size="13" lengthAdjust="spacing" textLength="37" x="37.5" y="390.4951">knows</text><text fill="#000000" font-family="sans-serif" font-size="13" lengthAdjust="spacing" textLength="7" x="82.9254" y="227.2525">1</text><text fill="#000000" font-family="sans-serif" font-size="13" lengthAdjust="spacing" textLength="5" x="100.9055" y="549.5545">*</text><!--MD5=[44e7f9b9c37d60f601e8cdfcd1094fad]
link Company to ShipsStore--><path codeLine="44" d="M118.45,206.21 C122.88,221.42 129.67,239.63 139.5,254 C146.94,264.88 156.81,275.01 166.75,283.73 " fill="none" id="Company-ShipsStore" style="stroke:#A80036;stroke-width:1.0;"/><polygon fill="#000000" points="147.1441,249.4195,144.8553,240.1884,139.8665,243.2967,147.1441,249.4195" style="stroke:#000000;stroke-width:1.0;"/><text fill="#000000" font-family="sans-serif" font-size="13" lengthAdjust="spacing" textLength="28" x="153.5" y="250.4951">uses</text><text fill="#000000" font-family="sans-serif" font-size="13" lengthAdjust="spacing" textLength="7" x="112.1077" y="227.2287">1</text><text fill="#000000" font-family="sans-serif" font-size="13" lengthAdjust="spacing" textLength="7" x="150.4172" y="273.1789">1</text><!--MD5=[af9d0b2e81c337ab0f966317898ccd3e]
link ShipsStore to ShipsBSTCallSign--><path codeLine="45" d="M193.8,346.28 C182.63,369.29 167.33,400.79 156.17,423.79 " fill="none" id="ShipsStore-ShipsBSTCallSign" style="stroke:#A80036;stroke-width:1.0;"/><polygon fill="#000000" points="182.3163,389.6737,188.9105,382.8204,183.6228,380.2533,182.3163,389.6737" style="stroke:#000000;stroke-width:1.0;"/><text fill="#000000" font-family="sans-serif" font-size="13" lengthAdjust="spacing" textLength="28" x="193.5" y="390.4951">uses</text><text fill="#000000" font-family="sans-serif" font-size="13" lengthAdjust="spacing" textLength="7" x="183.3306" y="367.312">1</text><text fill="#000000" font-family="sans-serif" font-size="13" lengthAdjust="spacing" textLength="7" x="151.4738" y="413.2512">1</text><!--MD5=[35dfb0066db7f7f10e2c637a799521a8]
link ShipsStore to ShipsBST--><path codeLine="46" d="M263.71,346.11 C306.02,369.19 364.13,400.89 406.41,423.95 " fill="none" id="ShipsStore-ShipsBST" style="stroke:#A80036;stroke-width:1.0;"/><polygon fill="#000000" points="358.8894,387.5701,352.3562,380.6587,349.5415,385.8188,358.8894,387.5701" style="stroke:#000000;stroke-width:1.0;"/><text fill="#000000" font-family="sans-serif" font-size="13" lengthAdjust="spacing" textLength="28" x="363.5" y="390.4951">uses</text><text fill="#000000" font-family="sans-serif" font-size="13" lengthAdjust="spacing" textLength="7" x="266.8904" y="367.3557">1</text><text fill="#000000" font-family="sans-serif" font-size="13" lengthAdjust="spacing" textLength="7" x="386.5934" y="412.9593">1</text><!--MD5=[494ad59de8ea1e8718922807a84ca283]
link ShipsStore to ShipsBSTImo--><path codeLine="47" d="M230.23,346.28 C246.73,369.29 269.33,400.79 285.82,423.79 " fill="none" id="ShipsStore-ShipsBSTImo" style="stroke:#A80036;stroke-width:1.0;"/><polygon fill="#000000" points="271.414,389.2388,268.5307,380.1759,263.7543,383.6015,271.414,389.2388" style="stroke:#000000;stroke-width:1.0;"/><text fill="#000000" font-family="sans-serif" font-size="13" lengthAdjust="spacing" textLength="28" x="277.5" y="390.4951">uses</text><text fill="#000000" font-family="sans-serif" font-size="13" lengthAdjust="spacing" textLength="7" x="226.7051" y="367.312">1</text><text fill="#000000" font-family="sans-serif" font-size="13" lengthAdjust="spacing" textLength="7" x="273.6266" y="413.2512">1</text><!--MD5=[b457ea32acbd230d0e22037aaab2ac98]
link ShipsBST to Ship--><path codeLine="48" d="M397.71,480.2 C330.96,505.52 228.7,544.3 176.19,564.22 " fill="none" id="ShipsBST-to-Ship" style="stroke:#A80036;stroke-width:1.0;stroke-dasharray:7.0,7.0;"/><polygon fill="#A80036" points="171.27,566.09,181.1035,566.639,175.9452,564.3172,178.267,559.1588,171.27,566.09" style="stroke:#A80036;stroke-width:1.0;"/><!--MD5=[dd17fb222bdf6a9c535c11495c7c3619]
link ShipsBSTImo to Ship--><path codeLine="49" d="M266.29,486.22 C238.11,506.89 201.27,533.9 175.13,553.07 " fill="none" id="ShipsBSTImo-to-Ship" style="stroke:#A80036;stroke-width:1.0;stroke-dasharray:7.0,7.0;"/><polygon fill="#A80036" points="171.03,556.08,180.6521,553.9789,175.0607,553.1213,175.9182,547.5299,171.03,556.08" style="stroke:#A80036;stroke-width:1.0;"/><!--MD5=[f20b9417a46d21f71d320e71eeec7f90]
link ShipsBSTCallSign to Ship--><path codeLine="50" d="M141.75,486.22 C141.89,502.97 142.06,523.89 142.21,541.42 " fill="none" id="ShipsBSTCallSign-to-Ship" style="stroke:#A80036;stroke-width:1.0;stroke-dasharray:7.0,7.0;"/><polygon fill="#A80036" points="142.25,546.74,146.1727,537.706,142.2071,541.7402,138.173,537.7746,142.25,546.74" style="stroke:#A80036;stroke-width:1.0;"/><!--MD5=[f56e222e1748568825f030a9b791275e]
link Ship to ShipPosition--><path codeLine="51" d="M151.59,609.25 C154.02,618.69 156.29,629.2 157.5,639 C165.01,699.99 146.26,770.64 133.4,809.83 " fill="none" id="Ship-ShipPosition" style="stroke:#A80036;stroke-width:1.0;"/><polygon fill="#000000" points="164.0484,723.1553,167.7923,714.4127,161.9384,713.8818,164.0484,723.1553" style="stroke:#000000;stroke-width:1.0;"/><text fill="#000000" font-family="sans-serif" font-size="13" lengthAdjust="spacing" textLength="35" x="173.5" y="723.4951">sends</text><text fill="#000000" font-family="sans-serif" font-size="13" lengthAdjust="spacing" textLength="7" x="145.6556" y="630.2763">1</text><text fill="#000000" font-family="sans-serif" font-size="13" lengthAdjust="spacing" textLength="5" x="130.1325" y="799.2995">*</text><!--MD5=[bd16fc4b2a08274ec71edc6d573c9239]
link Ship to PositionsBST--><path codeLine="52" d="M124.5,609.28 C110.83,632.29 92.11,663.79 78.45,686.79 " fill="none" id="Ship-PositionsBST" style="stroke:#A80036;stroke-width:1.0;"/><polygon fill="#000000" points="108.9461,652.4744,116.0928,646.1993,111.0395,643.197,108.9461,652.4744" style="stroke:#000000;stroke-width:1.0;"/><text fill="#000000" font-family="sans-serif" font-size="13" lengthAdjust="spacing" textLength="28" x="120.5" y="653.4951">uses</text><text fill="#000000" font-family="sans-serif" font-size="13" lengthAdjust="spacing" textLength="7" x="113.4016" y="630.312">1</text><text fill="#000000" font-family="sans-serif" font-size="13" lengthAdjust="spacing" textLength="7" x="74.4303" y="676.2512">1</text><!--MD5=[34b80baad36b2d2bd6b6893c22d217b3]
link PositionsBST to ShipPosition--><path codeLine="53" d="M75.99,749.22 C84.64,766.11 95.47,787.25 104.5,804.87 " fill="none" id="PositionsBST-to-ShipPosition" style="stroke:#A80036;stroke-width:1.0;stroke-dasharray:7.0,7.0;"/><polygon fill="#A80036" points="107,809.74,106.4646,799.9057,104.7239,805.2881,99.3416,803.5474,107,809.74" style="stroke:#A80036;stroke-width:1.0;"/><!--MD5=[e18dbd49a52e60917b88bf3b4a72eceb]
link ShipsBST to BST--><path codeLine="54" d="M443.11,486.19 C414.43,533.27 359.05,624.18 327.01,676.76 " fill="none" id="ShipsBST-to-BST" style="stroke:#A80036;stroke-width:1.0;"/><polygon fill="none" points="332.93,680.5,316.55,693.94,320.98,673.22,332.93,680.5" style="stroke:#A80036;stroke-width:1.0;"/><!--MD5=[0abc6ae50c94f218df3534f80cea96bd]
link ShipsBSTImo to BST--><path codeLine="55" d="M306.92,486.19 C306.04,532.34 304.35,620.61 303.33,673.61 " fill="none" id="ShipsBSTImo-to-BST" style="stroke:#A80036;stroke-width:1.0;"/><polygon fill="none" points="310.32,674.08,302.94,693.94,296.33,673.81,310.32,674.08" style="stroke:#A80036;stroke-width:1.0;"/><!--MD5=[a3204288f96958ede1c73db2e0f8f4fe]
link ShipsBSTCallSign to BST--><path codeLine="56" d="M160.13,486.19 C189.16,533.27 245.24,624.18 277.68,676.76 " fill="none" id="ShipsBSTCallSign-to-BST" style="stroke:#A80036;stroke-width:1.0;"/><polygon fill="none" points="283.73,673.24,288.27,693.94,271.82,680.59,283.73,673.24" style="stroke:#A80036;stroke-width:1.0;"/><!--MD5=[1188dce5d03092776280b0cb741a6d56]
link PositionsBST to BST--><path codeLine="57" d="M93.17,686.94 C111.1,672.04 134.62,655.78 159,648 C186.94,639.08 197.62,637.47 225,648 C241.96,654.53 257.52,666.67 270.18,679.04 " fill="none" id="PositionsBST-to-BST" style="stroke:#A80036;stroke-width:1.0;"/><polygon fill="none" points="275.51,674.49,284.08,693.87,265.29,684.06,275.51,674.49" style="stroke:#A80036;stroke-width:1.0;"/><!--MD5=[4f7bf8c751d538275de6694d5271aa5f]
@startuml
skinparam classAttributeIconSize 0

class Company{
    +getShipStore()
}
class BST{}

class ShipsStore{
    +Ship findShipByAnyCode(code)
}
class Ship {
    +getters
}

class ShipsBST{
    +findShipByMmsi(MMSI)
}

class ShipsBSTImo{
    +findShipByImo(imo)
}
class ShipsBSTCallSign{
     +findShipByCallsign(callsign)
 }

class ShipPosition{
    +toString()
}

class PositionsBST {
    +toString()
}


class searchShipController {
    +String getShipInfoByAnyCode()
    +String shipDetailsToString()
}


searchShipController ..> Company
searchShipController ..> ShipsStore
Company "1" - -> "*" Ship : knows
Company "1" - - "1" ShipsStore : uses >
ShipsStore "1" - - "1" ShipsBSTCallSign : uses >
ShipsStore "1" - - "1" ShipsBST : uses >
ShipsStore "1" - - "1" ShipsBSTImo : uses >
ShipsBST ..> Ship
ShipsBSTImo ..> Ship
ShipsBSTCallSign ..> Ship
Ship "1" - - "*" ShipPosition : sends >
Ship "1" - - "1" PositionsBST : uses >
PositionsBST ..> ShipPosition
ShipsBST -|> BST
ShipsBSTImo -|> BST
ShipsBSTCallSign -|> BST
PositionsBST -|> BST

@enduml

PlantUML version 1.2021.11(Sat Oct 02 14:26:11 BST 2021)
(GPL source distribution)
Java Runtime: OpenJDK Runtime Environment
JVM: OpenJDK 64-Bit Server VM
Default Encoding: Cp1252
Language: pt
Country: PT
--></g></svg>