<?xml version="1.0" encoding="UTF-8" standalone="no"?><svg xmlns="http://www.w3.org/2000/svg" xmlns:xlink="http://www.w3.org/1999/xlink" contentScriptType="application/ecmascript" contentStyleType="text/css" height="447px" preserveAspectRatio="none" style="width:266px;height:447px;background:#FFFFFF;" version="1.1" viewBox="0 0 266 447" width="266px" zoomAndPan="magnify"><defs><filter height="300%" id="f69f3v416ru63" width="300%" x="-1" y="-1"><feGaussianBlur result="blurOut" stdDeviation="2.0"/><feColorMatrix in="blurOut" result="blurOut2" type="matrix" values="0 0 0 0 0 0 0 0 0 0 0 0 0 0 0 0 0 0 .4 0"/><feOffset dx="4.0" dy="4.0" in="blurOut2" result="blurOut3"/><feBlend in="SourceGraphic" in2="blurOut3" mode="normal"/></filter></defs><g><!--MD5=[ddaf6f62b0bc30921877ec9fb9463c9f]
class TrafficManager--><rect codeLine="4" fill="#FEFECE" filter="url(#f69f3v416ru63)" height="60.8047" id="TrafficManager" style="stroke:#A80036;stroke-width:1.5;" width="121" x="7" y="7"/><ellipse cx="22" cy="23" fill="#ADD1B2" rx="11" ry="11" style="stroke:#A80036;stroke-width:1.0;"/><path d="M24.4688,28.875 Q23.8906,29.1875 23.25,29.3438 Q22.6094,29.5 21.9063,29.5 Q19.4063,29.5 18.0781,27.8281 Q16.7656,26.1563 16.7656,23 Q16.7656,19.8438 18.0781,18.1719 Q19.4063,16.5 21.9063,16.5 Q22.6094,16.5 23.25,16.6563 Q23.9063,16.8125 24.4688,17.125 L24.4688,19.9219 Q23.8438,19.3594 23.25,19.0938 Q22.6563,18.8125 22.0313,18.8125 Q20.6875,18.8125 20,19.875 Q19.3125,20.9375 19.3125,23 Q19.3125,25.0781 20,26.1406 Q20.6875,27.1875 22.0313,27.1875 Q22.6563,27.1875 23.25,26.9219 Q23.8438,26.6563 24.4688,26.0781 L24.4688,28.875 Z " fill="#000000"/><text fill="#000000" font-family="sans-serif" font-size="12" lengthAdjust="spacing" textLength="89" x="36" y="27.1543">TrafficManager</text><line style="stroke:#A80036;stroke-width:1.5;" x1="8" x2="127" y1="39" y2="39"/><text fill="#000000" font-family="sans-serif" font-size="11" lengthAdjust="spacing" textLength="36" x="13" y="53.2104">-name</text><line style="stroke:#A80036;stroke-width:1.5;" x1="8" x2="127" y1="59.8047" y2="59.8047"/><!--MD5=[02e4b9b7573f1156f41e60aa5b4e25a4]
class Company--><rect codeLine="8" fill="#FEFECE" filter="url(#f69f3v416ru63)" height="48" id="Company" style="stroke:#A80036;stroke-width:1.5;" width="89" x="163" y="13.5"/><ellipse cx="178" cy="29.5" fill="#ADD1B2" rx="11" ry="11" style="stroke:#A80036;stroke-width:1.0;"/><path d="M180.4688,35.375 Q179.8906,35.6875 179.25,35.8438 Q178.6094,36 177.9063,36 Q175.4063,36 174.0781,34.3281 Q172.7656,32.6563 172.7656,29.5 Q172.7656,26.3438 174.0781,24.6719 Q175.4063,23 177.9063,23 Q178.6094,23 179.25,23.1563 Q179.9063,23.3125 180.4688,23.625 L180.4688,26.4219 Q179.8438,25.8594 179.25,25.5938 Q178.6563,25.3125 178.0313,25.3125 Q176.6875,25.3125 176,26.375 Q175.3125,27.4375 175.3125,29.5 Q175.3125,31.5781 176,32.6406 Q176.6875,33.6875 178.0313,33.6875 Q178.6563,33.6875 179.25,33.4219 Q179.8438,33.1563 180.4688,32.5781 L180.4688,35.375 Z " fill="#000000"/><text fill="#000000" font-family="sans-serif" font-size="12" lengthAdjust="spacing" textLength="57" x="192" y="33.6543">Company</text><line style="stroke:#A80036;stroke-width:1.5;" x1="164" x2="251" y1="45.5" y2="45.5"/><line style="stroke:#A80036;stroke-width:1.5;" x1="164" x2="251" y1="53.5" y2="53.5"/><!--MD5=[0dc7f2ddb409b58bcf52b12238c25399]
class Ship--><rect codeLine="10" fill="#FEFECE" filter="url(#f69f3v416ru63)" height="163.2422" id="Ship" style="stroke:#A80036;stroke-width:1.5;" width="90" x="92.5" y="145"/><ellipse cx="121.45" cy="161" fill="#ADD1B2" rx="11" ry="11" style="stroke:#A80036;stroke-width:1.0;"/><path d="M123.9188,166.875 Q123.3406,167.1875 122.7,167.3438 Q122.0594,167.5 121.3563,167.5 Q118.8563,167.5 117.5281,165.8281 Q116.2156,164.1563 116.2156,161 Q116.2156,157.8438 117.5281,156.1719 Q118.8563,154.5 121.3563,154.5 Q122.0594,154.5 122.7,154.6563 Q123.3563,154.8125 123.9188,155.125 L123.9188,157.9219 Q123.2938,157.3594 122.7,157.0938 Q122.1063,156.8125 121.4813,156.8125 Q120.1375,156.8125 119.45,157.875 Q118.7625,158.9375 118.7625,161 Q118.7625,163.0781 119.45,164.1406 Q120.1375,165.1875 121.4813,165.1875 Q122.1063,165.1875 122.7,164.9219 Q123.2938,164.6563 123.9188,164.0781 L123.9188,166.875 Z " fill="#000000"/><text fill="#000000" font-family="sans-serif" font-size="12" lengthAdjust="spacing" textLength="27" x="138.55" y="165.1543">Ship</text><line style="stroke:#A80036;stroke-width:1.5;" x1="93.5" x2="181.5" y1="177" y2="177"/><text fill="#000000" font-family="sans-serif" font-size="11" lengthAdjust="spacing" textLength="75" x="98.5" y="191.2104">-mmmsiCode</text><text fill="#000000" font-family="sans-serif" font-size="11" lengthAdjust="spacing" textLength="54" x="98.5" y="204.0151">-imoCode</text><text fill="#000000" font-family="sans-serif" font-size="11" lengthAdjust="spacing" textLength="78" x="98.5" y="216.8198">-vesselTypeId</text><text fill="#000000" font-family="sans-serif" font-size="11" lengthAdjust="spacing" textLength="57" x="98.5" y="229.6245">-callSignId</text><text fill="#000000" font-family="sans-serif" font-size="11" lengthAdjust="spacing" textLength="60" x="98.5" y="242.4292">-shipName</text><text fill="#000000" font-family="sans-serif" font-size="11" lengthAdjust="spacing" textLength="42" x="98.5" y="255.2339">-Length</text><text fill="#000000" font-family="sans-serif" font-size="11" lengthAdjust="spacing" textLength="36" x="98.5" y="268.0386">-Width</text><text fill="#000000" font-family="sans-serif" font-size="11" lengthAdjust="spacing" textLength="78" x="98.5" y="280.8433">-maxCapacity</text><text fill="#000000" font-family="sans-serif" font-size="11" lengthAdjust="spacing" textLength="31" x="98.5" y="293.6479">-draft</text><line style="stroke:#A80036;stroke-width:1.5;" x1="93.5" x2="181.5" y1="300.2422" y2="300.2422"/><!--MD5=[1c0c3765e68dc4575d559b566278b914]
class ShipPosition--><rect fill="#FEFECE" filter="url(#f69f3v416ru63)" height="48" id="ShipPosition" style="stroke:#A80036;stroke-width:1.5;" width="105" x="85" y="385"/><ellipse cx="100" cy="401" fill="#ADD1B2" rx="11" ry="11" style="stroke:#A80036;stroke-width:1.0;"/><path d="M102.4688,406.875 Q101.8906,407.1875 101.25,407.3438 Q100.6094,407.5 99.9063,407.5 Q97.4063,407.5 96.0781,405.8281 Q94.7656,404.1563 94.7656,401 Q94.7656,397.8438 96.0781,396.1719 Q97.4063,394.5 99.9063,394.5 Q100.6094,394.5 101.25,394.6563 Q101.9063,394.8125 102.4688,395.125 L102.4688,397.9219 Q101.8438,397.3594 101.25,397.0938 Q100.6563,396.8125 100.0313,396.8125 Q98.6875,396.8125 98,397.875 Q97.3125,398.9375 97.3125,401 Q97.3125,403.0781 98,404.1406 Q98.6875,405.1875 100.0313,405.1875 Q100.6563,405.1875 101.25,404.9219 Q101.8438,404.6563 102.4688,404.0781 L102.4688,406.875 Z " fill="#000000"/><text fill="#000000" font-family="sans-serif" font-size="12" lengthAdjust="spacing" textLength="73" x="114" y="405.1543">ShipPosition</text><line style="stroke:#A80036;stroke-width:1.5;" x1="86" x2="189" y1="417" y2="417"/><line style="stroke:#A80036;stroke-width:1.5;" x1="86" x2="189" y1="425" y2="425"/><!--MD5=[37a14a5de6d6fd738aee271300f4b5c8]
link Company to Ship--><path codeLine="22" d="M198.78,61.81 C190.93,82.76 178.94,114.79 167.64,144.98 " fill="none" id="Company-Ship" style="stroke:#A80036;stroke-width:1.0;"/><polygon fill="#000000" points="187.7468,111.249,193.6707,103.8087,188.166,101.7476,187.7468,111.249" style="stroke:#000000;stroke-width:1.0;"/><text fill="#000000" font-family="sans-serif" font-size="13" lengthAdjust="spacing" textLength="34" x="198.5" y="111.0669">owns</text><text fill="#000000" font-family="sans-serif" font-size="13" lengthAdjust="spacing" textLength="8" x="187.6795" y="81.6468">1</text><text fill="#000000" font-family="sans-serif" font-size="13" lengthAdjust="spacing" textLength="23" x="146.3584" y="133.8353">1..*</text><!--MD5=[40e2b5717560220ad35e84810a8f1b44]
link TrafficManager to Ship--><path codeLine="23" d="M78.59,68.13 C86.34,88.83 97.08,117.53 107.28,144.76 " fill="none" id="TrafficManager-Ship" style="stroke:#A80036;stroke-width:1.0;"/><polygon fill="#000000" points="101.2531,111.249,100.834,101.7477,95.3293,103.8086,101.2531,111.249" style="stroke:#000000;stroke-width:1.0;"/><text fill="#000000" font-family="sans-serif" font-size="13" lengthAdjust="spacing" textLength="58" x="108.5" y="111.0669">analyses</text><text fill="#000000" font-family="sans-serif" font-size="13" lengthAdjust="spacing" textLength="8" x="72.0523" y="88.095">1</text><text fill="#000000" font-family="sans-serif" font-size="13" lengthAdjust="spacing" textLength="23" x="80.5643" y="133.8741">1..*</text><!--MD5=[f56e222e1748568825f030a9b791275e]
link Ship to ShipPosition--><path codeLine="24" d="M137.5,308.25 C137.5,336.22 137.5,365.42 137.5,384.95 " fill="none" id="Ship-ShipPosition" style="stroke:#A80036;stroke-width:1.0;"/><polygon fill="#000000" points="142.5,351.5664,145.4389,342.5213,139.5611,342.5213,142.5,351.5664" style="stroke:#000000;stroke-width:1.0;"/><text fill="#000000" font-family="sans-serif" font-size="13" lengthAdjust="spacing" textLength="23" x="151.5" y="351.0669">has</text><text fill="#000000" font-family="sans-serif" font-size="13" lengthAdjust="spacing" textLength="8" x="129.1438" y="328.2609">1</text><text fill="#000000" font-family="sans-serif" font-size="13" lengthAdjust="spacing" textLength="23" x="111.5531" y="373.9492">1..*</text><!--MD5=[f74011c5ed0a149a73256772f5f7c926]
@startuml
'https://plantuml.com/class-diagram
skinparam classAttributeIconSize 0

class TrafficManager{
    -name
}

class Company{}

class Ship {
    -mmmsiCode /'MMSI - 1'/
    -imoCode /'IMO - 9'/
    -vesselTypeId
    -callSignId /'CallSign - 10'/
    -shipName /'VesselName - 8'/
    - Length /'Length - 12'/
    -Width /'Width - 13'/
    -maxCapacity /'Cargo - 15'/
    -draft /'Draft - 14'/
}

Company "1" - - "1..*" Ship : owns >
TrafficManager "1" - - "1..*" Ship : analyses >
Ship "1" - - "1..*" ShipPosition: has >
@enduml

@startuml
skinparam classAttributeIconSize 0

class TrafficManager{
    -name
}

class Company{}

class Ship {
    -mmmsiCode 
    -imoCode 
    -vesselTypeId
    -callSignId 
    -shipName 
    - Length 
    -Width 
    -maxCapacity 
    -draft 
}

Company "1" - - "1..*" Ship : owns >
TrafficManager "1" - - "1..*" Ship : analyses >
Ship "1" - - "1..*" ShipPosition: has >
@enduml

PlantUML version 1.2021.11(Sat Oct 02 14:26:11 WEST 2021)
(GPL source distribution)
Java Runtime: OpenJDK Runtime Environment
JVM: OpenJDK 64-Bit Server VM
Default Encoding: UTF-8
Language: en
Country: US
--></g></svg>