<?xml version="1.0" encoding="UTF-8" standalone="no"?><svg xmlns="http://www.w3.org/2000/svg" xmlns:xlink="http://www.w3.org/1999/xlink" contentScriptType="application/ecmascript" contentStyleType="text/css" height="589.6px" preserveAspectRatio="none" style="width:603px;height:589px;background:#FFFFFF;" version="1.1" viewBox="0 0 603 589" width="603.2px" zoomAndPan="magnify"><defs><filter height="300%" id="f1kgy4dno4jycb" width="300%" x="-1" y="-1"><feGaussianBlur result="blurOut" stdDeviation="1.6000000000000003"/><feColorMatrix in="blurOut" result="blurOut2" type="matrix" values="0 0 0 0 0 0 0 0 0 0 0 0 0 0 0 0 0 0 .4 0"/><feOffset dx="3.2000000000000006" dy="3.2000000000000006" in="blurOut2" result="blurOut3"/><feBlend in="SourceGraphic" in2="blurOut3" mode="normal"/></filter></defs><g><!--MD5=[187ccc8030f0f5b4620e42336e46a3c3]
class ColorMapController--><rect codeLine="4" fill="#FEFECE" filter="url(#f1kgy4dno4jycb)" height="49.4688" id="ColorMapController" style="stroke:#A80036;stroke-width:1.2000000000000002;" width="111.2" x="244.4" y="5.6"/><ellipse cx="256.4" cy="18.4" fill="#ADD1B2" rx="8.8" ry="8.8" style="stroke:#A80036;stroke-width:0.8000000000000002;"/><path d="M258,15.6 Q258.1625,15.2 258.35,15 Q258.5375,14.8 258.75,14.8 Q259.125,14.8 259.3625,15.025 Q259.6,15.25 259.6,15.775 L259.6,17.025 Q259.6,17.55 259.375,17.775 Q259.15,18 258.8,18 Q258.4875,18 258.2875,17.8625 Q258.0875,17.725 258,17.3625 Q257.9625,17.1125 257.825,16.975 Q257.575,16.7125 257.125,16.5625 Q256.675,16.4 256.225,16.4 Q255.6625,16.4 255.1875,16.625 Q254.725,16.85 254.3625,17.35 Q254,17.85 254,18.5375 L254,19.275 Q254,20.1 254.675,20.65 Q255.35,21.2 256.55,21.2 Q257.2625,21.2 257.7625,21.0375 Q258.05,20.95 258.375,20.6625 Q258.5875,20.5 258.7,20.45 Q258.8125,20.4 258.95,20.4 Q259.2125,20.4 259.4,20.6125 Q259.6,20.8125 259.6,21.1 Q259.6,21.375 259.325,21.7 Q258.925,22.175 258.2875,22.4375 Q257.45,22.8 256.425,22.8 Q255.225,22.8 254.2625,22.325 Q253.4875,21.95 252.9375,21.1375 Q252.4,20.325 252.4,19.3625 L252.4,18.4875 Q252.4,17.4875 252.875,16.6125 Q253.3625,15.7375 254.2,15.275 Q255.05,14.8 256,14.8 Q256.575,14.8 257.075,15 Q257.575,15.2 258,15.6 Z " fill="#000000"/><text fill="#000000" font-family="sans-serif" font-size="9.6" lengthAdjust="spacing" textLength="85.6" x="267.6" y="22.3281">ColorMapController</text><line style="stroke:#A80036;stroke-width:1.2000000000000002;" x1="245.2" x2="354.8" y1="31.2" y2="31.2"/><line style="stroke:#A80036;stroke-width:1.2000000000000002;" x1="245.2" x2="354.8" y1="37.6" y2="37.6"/><text fill="#000000" font-family="sans-serif" font-size="8.8" lengthAdjust="spacing" textLength="46.4" x="249.2" y="49.9352">+colorMap()</text><!--MD5=[02e4b9b7573f1156f41e60aa5b4e25a4]
class Company--><rect codeLine="8" fill="#FEFECE" filter="url(#f1kgy4dno4jycb)" height="60.5375" id="Company" style="stroke:#A80036;stroke-width:1.2000000000000002;" width="92" x="298.8" y="104"/><ellipse cx="321.6" cy="116.8" fill="#ADD1B2" rx="8.8" ry="8.8" style="stroke:#A80036;stroke-width:0.8000000000000002;"/><path d="M323.2,114 Q323.3625,113.6 323.55,113.4 Q323.7375,113.2 323.95,113.2 Q324.325,113.2 324.5625,113.425 Q324.8,113.65 324.8,114.175 L324.8,115.425 Q324.8,115.95 324.575,116.175 Q324.35,116.4 324,116.4 Q323.6875,116.4 323.4875,116.2625 Q323.2875,116.125 323.2,115.7625 Q323.1625,115.5125 323.025,115.375 Q322.775,115.1125 322.325,114.9625 Q321.875,114.8 321.425,114.8 Q320.8625,114.8 320.3875,115.025 Q319.925,115.25 319.5625,115.75 Q319.2,116.25 319.2,116.9375 L319.2,117.675 Q319.2,118.5 319.875,119.05 Q320.55,119.6 321.75,119.6 Q322.4625,119.6 322.9625,119.4375 Q323.25,119.35 323.575,119.0625 Q323.7875,118.9 323.9,118.85 Q324.0125,118.8 324.15,118.8 Q324.4125,118.8 324.6,119.0125 Q324.8,119.2125 324.8,119.5 Q324.8,119.775 324.525,120.1 Q324.125,120.575 323.4875,120.8375 Q322.65,121.2 321.625,121.2 Q320.425,121.2 319.4625,120.725 Q318.6875,120.35 318.1375,119.5375 Q317.6,118.725 317.6,117.7625 L317.6,116.8875 Q317.6,115.8875 318.075,115.0125 Q318.5625,114.1375 319.4,113.675 Q320.25,113.2 321.2,113.2 Q321.775,113.2 322.275,113.4 Q322.775,113.6 323.2,114 Z " fill="#000000"/><text fill="#000000" font-family="sans-serif" font-size="9.6" lengthAdjust="spacing" textLength="42.4" x="335.2" y="120.7281">Company</text><line style="stroke:#A80036;stroke-width:1.2000000000000002;" x1="299.6" x2="390" y1="129.6" y2="129.6"/><text fill="#000000" font-family="sans-serif" font-size="8.8" lengthAdjust="spacing" textLength="47.2" x="303.6" y="141.9352">-designation</text><line style="stroke:#A80036;stroke-width:1.2000000000000002;" x1="299.6" x2="390" y1="147.0688" y2="147.0688"/><text fill="#000000" font-family="sans-serif" font-size="8.8" lengthAdjust="spacing" textLength="82.4" x="303.6" y="159.4039">+getFreightNetwork()</text><!--MD5=[074ba6ad47b234bd73d65012320c1634]
class FreightNetwork--><rect codeLine="13" fill="#FEFECE" filter="url(#f1kgy4dno4jycb)" height="71.6063" id="FreightNetwork" style="stroke:#A80036;stroke-width:1.2000000000000002;" width="148" x="242.8" y="227.2"/><ellipse cx="280.2" cy="240" fill="#ADD1B2" rx="8.8" ry="8.8" style="stroke:#A80036;stroke-width:0.8000000000000002;"/><path d="M281.8,237.2 Q281.9625,236.8 282.15,236.6 Q282.3375,236.4 282.55,236.4 Q282.925,236.4 283.1625,236.625 Q283.4,236.85 283.4,237.375 L283.4,238.625 Q283.4,239.15 283.175,239.375 Q282.95,239.6 282.6,239.6 Q282.2875,239.6 282.0875,239.4625 Q281.8875,239.325 281.8,238.9625 Q281.7625,238.7125 281.625,238.575 Q281.375,238.3125 280.925,238.1625 Q280.475,238 280.025,238 Q279.4625,238 278.9875,238.225 Q278.525,238.45 278.1625,238.95 Q277.8,239.45 277.8,240.1375 L277.8,240.875 Q277.8,241.7 278.475,242.25 Q279.15,242.8 280.35,242.8 Q281.0625,242.8 281.5625,242.6375 Q281.85,242.55 282.175,242.2625 Q282.3875,242.1 282.5,242.05 Q282.6125,242 282.75,242 Q283.0125,242 283.2,242.2125 Q283.4,242.4125 283.4,242.7 Q283.4,242.975 283.125,243.3 Q282.725,243.775 282.0875,244.0375 Q281.25,244.4 280.225,244.4 Q279.025,244.4 278.0625,243.925 Q277.2875,243.55 276.7375,242.7375 Q276.2,241.925 276.2,240.9625 L276.2,240.0875 Q276.2,239.0875 276.675,238.2125 Q277.1625,237.3375 278,236.875 Q278.85,236.4 279.8,236.4 Q280.375,236.4 280.875,236.6 Q281.375,236.8 281.8,237.2 Z " fill="#000000"/><text fill="#000000" font-family="sans-serif" font-size="9.6" lengthAdjust="spacing" textLength="66.4" x="296.6" y="243.9281">FreightNetwork</text><line style="stroke:#A80036;stroke-width:1.2000000000000002;" x1="243.6" x2="390" y1="252.8" y2="252.8"/><line style="stroke:#A80036;stroke-width:1.2000000000000002;" x1="243.6" x2="390" y1="259.2" y2="259.2"/><text fill="#000000" font-family="sans-serif" font-size="8.8" lengthAdjust="spacing" textLength="99.2" x="247.6" y="271.5352">+getOrderedCapitalsList()</text><text fill="#000000" font-family="sans-serif" font-size="8.8" lengthAdjust="spacing" textLength="138.4" x="247.6" y="282.6039">+fillCapitalsToColor(capitalsToColor)</text><text fill="#000000" font-family="sans-serif" font-size="8.8" lengthAdjust="spacing" textLength="46.4" x="247.6" y="293.6727">+colorMap()</text><!--MD5=[4f1f3706c1a355a8488e154afcaed5df]
class Location--><rect codeLine="19" fill="#FEFECE" filter="url(#f1kgy4dno4jycb)" height="71.6063" id="Location" style="stroke:#A80036;stroke-width:1.2000000000000002;" width="64" x="337.6" y="361.6"/><ellipse cx="349.96" cy="374.4" fill="#A9DCDF" rx="8.8" ry="8.8" style="stroke:#A80036;stroke-width:0.8000000000000002;"/><path d="M351.36,375.6 L348.7225,375.6 L348.3725,376.4 L348.3725,376.4 L348.7475,376.4 L349.16,376.9 L349.16,377.2 L349.16,377.5 L348.7475,378 L348.3725,378 L346.86,378 L346.3725,378 L345.96,377.5 L345.96,377.2 L345.96,376.9 L346.3725,376.4 L346.86,376.4 L348.71,371.6 L348.01,371.6 L347.1725,371.6 L346.76,371.1 L346.76,370.8 L346.76,370.5 L347.1725,370 L348.01,370 L350.9475,370 L353.0975,376.4 L353.5475,376.4 L353.5475,376.4 L353.96,376.9 L353.96,377.2 L353.96,377.5 L353.5475,378 L353.0975,378 L351.585,378 L351.1725,378 L350.76,377.5 L350.76,377.2 L350.76,376.9 L351.1725,376.4 L351.585,376.4 L351.585,376.4 L351.36,375.6 Z M350.9225,374 L349.96,371.1375 L349.135,374 L350.9225,374 Z " fill="#000000"/><text fill="#000000" font-family="sans-serif" font-size="9.6" font-style="italic" lengthAdjust="spacing" textLength="37.6" x="361.24" y="378.3281">Location</text><line style="stroke:#A80036;stroke-width:1.2000000000000002;" x1="338.4" x2="400.8" y1="387.2" y2="387.2"/><text fill="#000000" font-family="sans-serif" font-size="8.8" lengthAdjust="spacing" textLength="30.4" x="342.4" y="399.5352">-latitude</text><text fill="#000000" font-family="sans-serif" font-size="8.8" lengthAdjust="spacing" textLength="37.6" x="342.4" y="410.6039">-longitude</text><text fill="#000000" font-family="sans-serif" font-size="8.8" lengthAdjust="spacing" textLength="54.4" x="342.4" y="421.6727">-countryName</text><line style="stroke:#A80036;stroke-width:1.2000000000000002;" x1="338.4" x2="400.8" y1="426.8063" y2="426.8063"/><!--MD5=[a0bfe97ac0a38e6e74cc1c7c7b744b71]
class Port--><rect codeLine="25" fill="#FEFECE" filter="url(#f1kgy4dno4jycb)" height="82.675" id="Port" style="stroke:#A80036;stroke-width:1.2000000000000002;" width="73.6" x="212" y="496"/><ellipse cx="237.68" cy="508.8" fill="#ADD1B2" rx="8.8" ry="8.8" style="stroke:#A80036;stroke-width:0.8000000000000002;"/><path d="M239.28,506 Q239.4425,505.6 239.63,505.4 Q239.8175,505.2 240.03,505.2 Q240.405,505.2 240.6425,505.425 Q240.88,505.65 240.88,506.175 L240.88,507.425 Q240.88,507.95 240.655,508.175 Q240.43,508.4 240.08,508.4 Q239.7675,508.4 239.5675,508.2625 Q239.3675,508.125 239.28,507.7625 Q239.2425,507.5125 239.105,507.375 Q238.855,507.1125 238.405,506.9625 Q237.955,506.8 237.505,506.8 Q236.9425,506.8 236.4675,507.025 Q236.005,507.25 235.6425,507.75 Q235.28,508.25 235.28,508.9375 L235.28,509.675 Q235.28,510.5 235.955,511.05 Q236.63,511.6 237.83,511.6 Q238.5425,511.6 239.0425,511.4375 Q239.33,511.35 239.655,511.0625 Q239.8675,510.9 239.98,510.85 Q240.0925,510.8 240.23,510.8 Q240.4925,510.8 240.68,511.0125 Q240.88,511.2125 240.88,511.5 Q240.88,511.775 240.605,512.1 Q240.205,512.575 239.5675,512.8375 Q238.73,513.2 237.705,513.2 Q236.505,513.2 235.5425,512.725 Q234.7675,512.35 234.2175,511.5375 Q233.68,510.725 233.68,509.7625 L233.68,508.8875 Q233.68,507.8875 234.155,507.0125 Q234.6425,506.1375 235.48,505.675 Q236.33,505.2 237.28,505.2 Q237.855,505.2 238.355,505.4 Q238.855,505.6 239.28,506 Z " fill="#000000"/><text fill="#000000" font-family="sans-serif" font-size="9.6" lengthAdjust="spacing" textLength="17.6" x="251.92" y="512.7281">Port</text><line style="stroke:#A80036;stroke-width:1.2000000000000002;" x1="212.8" x2="284.8" y1="521.6" y2="521.6"/><text fill="#000000" font-family="sans-serif" font-size="8.8" lengthAdjust="spacing" textLength="51.2" x="216.8" y="533.9352">-identification</text><text fill="#000000" font-family="sans-serif" font-size="8.8" lengthAdjust="spacing" textLength="24" x="216.8" y="545.0039">-name</text><text fill="#000000" font-family="sans-serif" font-size="8.8" lengthAdjust="spacing" textLength="38.4" x="216.8" y="556.0727">-continent</text><text fill="#000000" font-family="sans-serif" font-size="8.8" lengthAdjust="spacing" textLength="64" x="216.8" y="567.1414">-toPortsDistance</text><line style="stroke:#A80036;stroke-width:1.2000000000000002;" x1="212.8" x2="284.8" y1="572.275" y2="572.275"/><!--MD5=[ea8f20dfdca176213da526d9b557babf]
class Capital--><rect codeLine="32" fill="#FEFECE" filter="url(#f1kgy4dno4jycb)" height="49.4688" id="Capital" style="stroke:#A80036;stroke-width:1.2000000000000002;" width="56.8" x="462" y="512.4"/><ellipse cx="474" cy="525.2" fill="#ADD1B2" rx="8.8" ry="8.8" style="stroke:#A80036;stroke-width:0.8000000000000002;"/><path d="M475.6,522.4 Q475.7625,522 475.95,521.8 Q476.1375,521.6 476.35,521.6 Q476.725,521.6 476.9625,521.825 Q477.2,522.05 477.2,522.575 L477.2,523.825 Q477.2,524.35 476.975,524.575 Q476.75,524.8 476.4,524.8 Q476.0875,524.8 475.8875,524.6625 Q475.6875,524.525 475.6,524.1625 Q475.5625,523.9125 475.425,523.775 Q475.175,523.5125 474.725,523.3625 Q474.275,523.2 473.825,523.2 Q473.2625,523.2 472.7875,523.425 Q472.325,523.65 471.9625,524.15 Q471.6,524.65 471.6,525.3375 L471.6,526.075 Q471.6,526.9 472.275,527.45 Q472.95,528 474.15,528 Q474.8625,528 475.3625,527.8375 Q475.65,527.75 475.975,527.4625 Q476.1875,527.3 476.3,527.25 Q476.4125,527.2 476.55,527.2 Q476.8125,527.2 477,527.4125 Q477.2,527.6125 477.2,527.9 Q477.2,528.175 476.925,528.5 Q476.525,528.975 475.8875,529.2375 Q475.05,529.6 474.025,529.6 Q472.825,529.6 471.8625,529.125 Q471.0875,528.75 470.5375,527.9375 Q470,527.125 470,526.1625 L470,525.2875 Q470,524.2875 470.475,523.4125 Q470.9625,522.5375 471.8,522.075 Q472.65,521.6 473.6,521.6 Q474.175,521.6 474.675,521.8 Q475.175,522 475.6,522.4 Z " fill="#000000"/><text fill="#000000" font-family="sans-serif" font-size="9.6" lengthAdjust="spacing" textLength="31.2" x="485.2" y="529.1281">Capital</text><line style="stroke:#A80036;stroke-width:1.2000000000000002;" x1="462.8" x2="518" y1="538" y2="538"/><text fill="#000000" font-family="sans-serif" font-size="8.8" lengthAdjust="spacing" textLength="24" x="466.8" y="550.3352">-name</text><line style="stroke:#A80036;stroke-width:1.2000000000000002;" x1="462.8" x2="518" y1="555.4688" y2="555.4688"/><!--MD5=[deb4e1f6eb1e3c1256fdb830f96abfbb]
class Country--><rect codeLine="36" fill="#FEFECE" filter="url(#f1kgy4dno4jycb)" height="71.6063" id="Country" style="stroke:#A80036;stroke-width:1.2000000000000002;" width="59.2" x="532.8" y="361.6"/><ellipse cx="544.8" cy="374.4" fill="#ADD1B2" rx="8.8" ry="8.8" style="stroke:#A80036;stroke-width:0.8000000000000002;"/><path d="M546.4,371.6 Q546.5625,371.2 546.75,371 Q546.9375,370.8 547.15,370.8 Q547.525,370.8 547.7625,371.025 Q548,371.25 548,371.775 L548,373.025 Q548,373.55 547.775,373.775 Q547.55,374 547.2,374 Q546.8875,374 546.6875,373.8625 Q546.4875,373.725 546.4,373.3625 Q546.3625,373.1125 546.225,372.975 Q545.975,372.7125 545.525,372.5625 Q545.075,372.4 544.625,372.4 Q544.0625,372.4 543.5875,372.625 Q543.125,372.85 542.7625,373.35 Q542.4,373.85 542.4,374.5375 L542.4,375.275 Q542.4,376.1 543.075,376.65 Q543.75,377.2 544.95,377.2 Q545.6625,377.2 546.1625,377.0375 Q546.45,376.95 546.775,376.6625 Q546.9875,376.5 547.1,376.45 Q547.2125,376.4 547.35,376.4 Q547.6125,376.4 547.8,376.6125 Q548,376.8125 548,377.1 Q548,377.375 547.725,377.7 Q547.325,378.175 546.6875,378.4375 Q545.85,378.8 544.825,378.8 Q543.625,378.8 542.6625,378.325 Q541.8875,377.95 541.3375,377.1375 Q540.8,376.325 540.8,375.3625 L540.8,374.4875 Q540.8,373.4875 541.275,372.6125 Q541.7625,371.7375 542.6,371.275 Q543.45,370.8 544.4,370.8 Q544.975,370.8 545.475,371 Q545.975,371.2 546.4,371.6 Z " fill="#000000"/><text fill="#000000" font-family="sans-serif" font-size="9.6" lengthAdjust="spacing" textLength="33.6" x="556" y="378.3281">Country</text><line style="stroke:#A80036;stroke-width:1.2000000000000002;" x1="533.6" x2="591.2" y1="387.2" y2="387.2"/><text fill="#000000" font-family="sans-serif" font-size="8.8" lengthAdjust="spacing" textLength="38.4" x="537.6" y="399.5352">-continent</text><text fill="#000000" font-family="sans-serif" font-size="8.8" lengthAdjust="spacing" textLength="24" x="537.6" y="410.6039">-name</text><text fill="#000000" font-family="sans-serif" font-size="8.8" lengthAdjust="spacing" textLength="33.6" x="537.6" y="421.6727">-borders</text><line style="stroke:#A80036;stroke-width:1.2000000000000002;" x1="533.6" x2="591.2" y1="426.8063" y2="426.8063"/><!--MD5=[b7b072196a724e538165319251b4d539]
class MatrixGraph--><rect codeLine="42" fill="#FEFECE" filter="url(#f1kgy4dno4jycb)" height="38.4" id="MatrixGraph" style="stroke:#A80036;stroke-width:1.2000000000000002;" width="77.6" x="185.2" y="378.4"/><ellipse cx="197.2" cy="391.2" fill="#ADD1B2" rx="8.8" ry="8.8" style="stroke:#A80036;stroke-width:0.8000000000000002;"/><path d="M198.8,388.4 Q198.9625,388 199.15,387.8 Q199.3375,387.6 199.55,387.6 Q199.925,387.6 200.1625,387.825 Q200.4,388.05 200.4,388.575 L200.4,389.825 Q200.4,390.35 200.175,390.575 Q199.95,390.8 199.6,390.8 Q199.2875,390.8 199.0875,390.6625 Q198.8875,390.525 198.8,390.1625 Q198.7625,389.9125 198.625,389.775 Q198.375,389.5125 197.925,389.3625 Q197.475,389.2 197.025,389.2 Q196.4625,389.2 195.9875,389.425 Q195.525,389.65 195.1625,390.15 Q194.8,390.65 194.8,391.3375 L194.8,392.075 Q194.8,392.9 195.475,393.45 Q196.15,394 197.35,394 Q198.0625,394 198.5625,393.8375 Q198.85,393.75 199.175,393.4625 Q199.3875,393.3 199.5,393.25 Q199.6125,393.2 199.75,393.2 Q200.0125,393.2 200.2,393.4125 Q200.4,393.6125 200.4,393.9 Q200.4,394.175 200.125,394.5 Q199.725,394.975 199.0875,395.2375 Q198.25,395.6 197.225,395.6 Q196.025,395.6 195.0625,395.125 Q194.2875,394.75 193.7375,393.9375 Q193.2,393.125 193.2,392.1625 L193.2,391.2875 Q193.2,390.2875 193.675,389.4125 Q194.1625,388.5375 195,388.075 Q195.85,387.6 196.8,387.6 Q197.375,387.6 197.875,387.8 Q198.375,388 198.8,388.4 Z " fill="#000000"/><text fill="#000000" font-family="sans-serif" font-size="9.6" lengthAdjust="spacing" textLength="52" x="208.4" y="395.1281">MatrixGraph</text><line style="stroke:#A80036;stroke-width:1.2000000000000002;" x1="186" x2="262" y1="404" y2="404"/><line style="stroke:#A80036;stroke-width:1.2000000000000002;" x1="186" x2="262" y1="410.4" y2="410.4"/><!--MD5=[ef63e85e32976ed6c3ca2a05ce10893d]
class CommonGraph--><rect codeLine="44" fill="#FEFECE" filter="url(#f1kgy4dno4jycb)" height="38.4" id="CommonGraph" style="stroke:#A80036;stroke-width:1.2000000000000002;" width="94.4" x="5.6" y="378.4"/><ellipse cx="17.6" cy="391.2" fill="#A9DCDF" rx="8.8" ry="8.8" style="stroke:#A80036;stroke-width:0.8000000000000002;"/><path d="M19,392.4 L16.3625,392.4 L16.0125,393.2 L16.0125,393.2 L16.3875,393.2 L16.8,393.7 L16.8,394 L16.8,394.3 L16.3875,394.8 L16.0125,394.8 L14.5,394.8 L14.0125,394.8 L13.6,394.3 L13.6,394 L13.6,393.7 L14.0125,393.2 L14.5,393.2 L16.35,388.4 L15.65,388.4 L14.8125,388.4 L14.4,387.9 L14.4,387.6 L14.4,387.3 L14.8125,386.8 L15.65,386.8 L18.5875,386.8 L20.7375,393.2 L21.1875,393.2 L21.1875,393.2 L21.6,393.7 L21.6,394 L21.6,394.3 L21.1875,394.8 L20.7375,394.8 L19.225,394.8 L18.8125,394.8 L18.4,394.3 L18.4,394 L18.4,393.7 L18.8125,393.2 L19.225,393.2 L19.225,393.2 L19,392.4 Z M18.5625,390.8 L17.6,387.9375 L16.775,390.8 L18.5625,390.8 Z " fill="#000000"/><text fill="#000000" font-family="sans-serif" font-size="9.6" font-style="italic" lengthAdjust="spacing" textLength="68.8" x="28.8" y="395.1281">CommonGraph</text><line style="stroke:#A80036;stroke-width:1.2000000000000002;" x1="6.4" x2="99.2" y1="404" y2="404"/><line style="stroke:#A80036;stroke-width:1.2000000000000002;" x1="6.4" x2="99.2" y1="410.4" y2="410.4"/><!--MD5=[706e73df52f3df32f52be1ce9adb217e]
class Graph--><rect codeLine="46" fill="#FEFECE" filter="url(#f1kgy4dno4jycb)" height="44.95" id="Graph" style="stroke:#A80036;stroke-width:1.2000000000000002;" width="71.2" x="17.2" y="514.8"/><ellipse cx="29.2" cy="530.875" fill="#B4A7E5" rx="8.8" ry="8.8" style="stroke:#A80036;stroke-width:0.8000000000000002;"/><path d="M30,528.475 L30,533.275 L31.6,533.275 L31.9875,533.275 L32.4,533.775 L32.4,534.075 L32.4,534.375 L31.9875,534.875 L31.6,534.875 L26.8,534.875 L26.4125,534.875 L26,534.375 L26,534.075 L26,533.775 L26.4125,533.275 L26.8,533.275 L28.4,533.275 L28.4,528.475 L26.8,528.475 L26.4125,528.475 L26,527.975 L26,527.675 L26,527.375 L26.4125,526.875 L26.8,526.875 L31.6,526.875 L31.9875,526.875 L32.4,527.375 L32.4,527.675 L32.4,527.975 L31.9875,528.475 L31.6,528.475 L30,528.475 Z " fill="#000000"/><text fill="#000000" font-family="sans-serif" font-size="9.6" font-style="italic" lengthAdjust="spacing" textLength="48.8" x="38.8" y="528.7656">«interface»</text><text fill="#000000" font-family="sans-serif" font-size="9.6" font-style="italic" lengthAdjust="spacing" textLength="27.2" x="49.6" y="540.8406">Graph</text><line style="stroke:#A80036;stroke-width:1.2000000000000002;" x1="18" x2="87.6" y1="546.95" y2="546.95"/><line style="stroke:#A80036;stroke-width:1.2000000000000002;" x1="18" x2="87.6" y1="553.35" y2="553.35"/><!--MD5=[28378cbcee576952c3e42177ab692a6d]
link ColorMapController to Company--><path codeLine="48" d="M310.504,55.208 C316.368,68.616 323.768,85.52 330.192,100.2 " fill="none" id="ColorMapController-to-Company" style="stroke:#A80036;stroke-width:0.8000000000000002;stroke-dasharray:7.0,7.0;"/><polygon fill="#A80036" points="331.8,103.88,331.8342,96.001,330.1913,100.2177,325.9746,98.5748,331.8,103.88" style="stroke:#A80036;stroke-width:0.8000000000000002;"/><!--MD5=[e359b474b5bea3d5e0a05d5f38acf6c5]
link Company to FreightNetwork--><path codeLine="49" d="M338.232,165.024 C334.144,183.6 328.864,207.592 324.568,227.12 " fill="none" id="Company-FreightNetwork" style="stroke:#A80036;stroke-width:0.8000000000000002;"/><polygon fill="#000000" points="335.1404,200.0472,338.9917,193.4854,334.3992,192.4749,335.1404,200.0472" style="stroke:#000000;stroke-width:0.8000000000000002;"/><text fill="#000000" font-family="sans-serif" font-size="10.4" lengthAdjust="spacing" textLength="29.6" x="343.2" y="200.3961">knows</text><text fill="#000000" font-family="sans-serif" font-size="10.4" lengthAdjust="spacing" textLength="5.6" x="331.139" y="181.7641">1</text><text fill="#000000" font-family="sans-serif" font-size="10.4" lengthAdjust="spacing" textLength="5.6" x="319.7598" y="218.3996">1</text><!--MD5=[699bf718bad7577ae286b510ed8e9218]
link ColorMapController to FreightNetwork--><path codeLine="50" d="M293.672,55.272 C290.296,69.36 286.496,87.56 284.8,104 C282.024,130.88 280.536,138.12 284.8,164.8 C287.952,184.528 294.472,205.68 300.808,223.232 " fill="none" id="ColorMapController-to-FreightNetwork" style="stroke:#A80036;stroke-width:0.8000000000000002;stroke-dasharray:7.0,7.0;"/><polygon fill="#A80036" points="302.248,227.152,302.7871,219.2914,300.8774,223.3942,296.7746,221.4844,302.248,227.152" style="stroke:#A80036;stroke-width:0.8000000000000002;"/><!--MD5=[e37e8e3161027a4df85a8c5d819b551a]
reverse link Location to Port--><path codeLine="51" d="M327.768,446.192 C313.6,462.376 297.92,480.288 284.288,495.856 " fill="none" id="Location-backto-Port" style="stroke:#A80036;stroke-width:0.8000000000000002;"/><polygon fill="none" points="323.736,442.288,338.488,433.936,332.168,449.664,323.736,442.288" style="stroke:#A80036;stroke-width:0.8000000000000002;"/><!--MD5=[656cf771635bff60a827e8d62d536357]
reverse link Location to Capital--><path codeLine="52" d="M411.496,446.256 C431,468.544 453.36,494.088 469.288,512.28 " fill="none" id="Location-backto-Capital" style="stroke:#A80036;stroke-width:0.8000000000000002;"/><polygon fill="none" points="407.032,449.664,400.712,433.936,415.464,442.288,407.032,449.664" style="stroke:#A80036;stroke-width:0.8000000000000002;"/><!--MD5=[bd392566c8a46ea25d805713a18e8e2e]
link FreightNetwork to Location--><path codeLine="53" d="M330.808,299.24 C338.448,318.448 347.872,342.16 355.52,361.4 " fill="none" id="FreightNetwork-Location" style="stroke:#A80036;stroke-width:0.8000000000000002;"/><polygon fill="#000000" points="349.4777,334.2577,348.9893,326.6649,344.6197,328.4021,349.4777,334.2577" style="stroke:#000000;stroke-width:0.8000000000000002;"/><text fill="#000000" font-family="sans-serif" font-size="10.4" lengthAdjust="spacing" textLength="8" x="355.2" y="334.7961">of</text><text fill="#000000" font-family="sans-serif" font-size="10.4" lengthAdjust="spacing" textLength="4" x="328.4966" y="316.0517">*</text><text fill="#000000" font-family="sans-serif" font-size="10.4" lengthAdjust="spacing" textLength="16" x="336.139" y="352.9246">1..*</text><!--MD5=[8c736de57a0b67374907421adbe5e17c]
link Country to Capital--><path codeLine="54" d="M543.856,433.936 C531.024,458.536 514.288,490.616 502.984,512.28 " fill="none" id="Country-Capital" style="stroke:#A80036;stroke-width:0.8000000000000002;"/><polygon fill="#000000" points="532.5498,468.487,537.9813,463.159,533.8123,460.984,532.5498,468.487" style="stroke:#000000;stroke-width:0.8000000000000002;"/><text fill="#000000" font-family="sans-serif" font-size="10.4" lengthAdjust="spacing" textLength="16.8" x="541.6" y="469.1961">has</text><text fill="#000000" font-family="sans-serif" font-size="10.4" lengthAdjust="spacing" textLength="5.6" x="535.3879" y="450.5201">1</text><text fill="#000000" font-family="sans-serif" font-size="10.4" lengthAdjust="spacing" textLength="5.6" x="499.402" y="503.8589">1</text><!--MD5=[cb484d98b05c96fc0a7b0f57795eae75]
link FreightNetwork to MatrixGraph--><path codeLine="55" d="M292.176,299.24 C275.424,323.208 253.776,354.192 239.416,374.736 " fill="none" id="FreightNetwork-to-MatrixGraph" style="stroke:#A80036;stroke-width:0.8000000000000002;stroke-dasharray:7.0,7.0;"/><polygon fill="#A80036" points="237,378.192,243.7514,374.1302,239.2946,374.9156,238.5092,370.4588,237,378.192" style="stroke:#A80036;stroke-width:0.8000000000000002;"/><!--MD5=[e9051ba8ebbd537393a9a6534acec112]
reverse link CommonGraph to MatrixGraph--><path codeLine="56" d="M116.512,397.6 C139.376,397.6 162.232,397.6 185.096,397.6 " fill="none" id="CommonGraph-backto-MatrixGraph" style="stroke:#A80036;stroke-width:0.8000000000000002;"/><polygon fill="none" points="116.28,403.2,100.28,397.6,116.28,392,116.28,403.2" style="stroke:#A80036;stroke-width:0.8000000000000002;"/><!--MD5=[73cb6a84480518af2d88af90c1d954ca]
link CommonGraph to Graph--><path codeLine="57" d="M52.8,417.008 C52.8,441.104 52.8,483.216 52.8,510.448 " fill="none" id="CommonGraph-to-Graph" style="stroke:#A80036;stroke-width:0.8000000000000002;"/><polygon fill="#A80036" points="52.8,514.68,56,507.48,52.8,510.68,49.6,507.48,52.8,514.68" style="stroke:#A80036;stroke-width:0.8000000000000002;"/><!--MD5=[a0aa0b72068d288f57cd5e5a42a1805a]
link ColorMapController to Location--><path codeLine="58" d="M354.296,55.296 C373.896,66.984 393.864,83.096 404.8,104 C447.864,186.352 412.168,299.128 387.744,357.776 " fill="none" id="ColorMapController-to-Location" style="stroke:#A80036;stroke-width:0.8000000000000002;stroke-dasharray:7.0,7.0;"/><polygon fill="#A80036" points="386.152,361.56,391.8952,356.166,387.7042,357.8735,385.9968,353.6824,386.152,361.56" style="stroke:#A80036;stroke-width:0.8000000000000002;"/><!--MD5=[bd8d886f8f1c3c2f3fd55002f20ced7f]
link ColorMapController to Capital--><path codeLine="59" d="M355.84,37.472 C412.024,47.256 490.4,71.952 490.4,133.6 C490.4,133.6 490.4,133.6 490.4,398.4 C490.4,436.264 490.4,479.976 490.4,507.88 " fill="none" id="ColorMapController-to-Capital" style="stroke:#A80036;stroke-width:0.8000000000000002;stroke-dasharray:7.0,7.0;"/><polygon fill="#A80036" points="490.4,512.216,493.6,505.016,490.4,508.216,487.2,505.016,490.4,512.216" style="stroke:#A80036;stroke-width:0.8000000000000002;"/><!--MD5=[febafda13ee82908e13b9cfd1866a292]
link ColorMapController to Port--><path codeLine="60" d="M244.216,43.28 C198.88,56.76 142.4,83.592 142.4,133.6 C142.4,133.6 142.4,133.6 142.4,398.4 C142.4,443.496 178.48,482.864 208.616,507.888 " fill="none" id="ColorMapController-to-Port" style="stroke:#A80036;stroke-width:0.8000000000000002;stroke-dasharray:7.0,7.0;"/><polygon fill="#A80036" points="211.888,510.568,208.3461,503.5299,208.7937,508.0332,204.2904,508.4808,211.888,510.568" style="stroke:#A80036;stroke-width:0.8000000000000002;"/><!--MD5=[cfd9002b37db395ae3cf11b75c29271a]
link ColorMapController to MatrixGraph--><path codeLine="61" d="M290.624,55.328 C287.696,62.952 284.48,71.416 281.6,79.2 C257.368,144.696 241.68,158.56 228.8,227.2 C219.08,279.016 220.6,341.272 222.4,374.048 " fill="none" id="ColorMapController-to-MatrixGraph" style="stroke:#A80036;stroke-width:0.8000000000000002;stroke-dasharray:7.0,7.0;"/><polygon fill="#A80036" points="222.648,378.28,225.432,370.9092,222.4198,374.2865,219.0425,371.2743,222.648,378.28" style="stroke:#A80036;stroke-width:0.8000000000000002;"/><!--MD5=[67f3a73c1174c09eed4a76a3fb4544b5]
@startuml

skinparam classAttributeIconSize 0

class ColorMapController {
    +colorMap()
}

class Company {
    -designation
    +getFreightNetwork()
}

class FreightNetwork {
    +getOrderedCapitalsList()
    +fillCapitalsToColor(capitalsToColor)
    +colorMap()
}

abstract class Location{
    -latitude
    -longitude
    -countryName
}

class Port {
    -identification
    -name
    -continent
    -toPortsDistance
}

class Capital {
    -name
}

class Country {
    -continent
    -name
    -borders
}

class MatrixGraph {}

abstract class CommonGraph {}

interface Graph <<interface>> {}

ColorMapController ..> Company
Company "1" - - "1" FreightNetwork : knows >
ColorMapController ..> FreightNetwork
Location <|- - Port
Location <|- - Capital
FreightNetwork "*" - - "1..*" Location : of >
Country "1" - - "1" Capital : has >
FreightNetwork ..> MatrixGraph
CommonGraph <|- MatrixGraph
CommonGraph - -> Graph
ColorMapController ..> Location
ColorMapController ..> Capital
ColorMapController ..> Port
ColorMapController ..> MatrixGraph


@enduml

PlantUML version 1.2021.11(Sat Oct 02 14:26:11 BST 2021)
(GPL source distribution)
Java Runtime: OpenJDK Runtime Environment
JVM: OpenJDK 64-Bit Server VM
Default Encoding: Cp1252
Language: pt
Country: PT
--></g></svg>