<?xml version="1.0" encoding="UTF-8" standalone="no"?><svg xmlns="http://www.w3.org/2000/svg" xmlns:xlink="http://www.w3.org/1999/xlink" contentScriptType="application/ecmascript" contentStyleType="text/css" height="790px" preserveAspectRatio="none" style="width:1135px;height:790px;background:#FFFFFF;" version="1.1" viewBox="0 0 1135 790" width="1135px" zoomAndPan="magnify"><defs><filter height="300%" id="fpo5ik3wbuwxb" width="300%" x="-1" y="-1"><feGaussianBlur result="blurOut" stdDeviation="2.0"/><feColorMatrix in="blurOut" result="blurOut2" type="matrix" values="0 0 0 0 0 0 0 0 0 0 0 0 0 0 0 0 0 0 .4 0"/><feOffset dx="4.0" dy="4.0" in="blurOut2" result="blurOut3"/><feBlend in="SourceGraphic" in2="blurOut3" mode="normal"/></filter></defs><g><!--MD5=[974473823045a8c177f55f5ab2912b22]
class CreateFreightNetworkController--><rect codeLine="4" fill="#FEFECE" filter="url(#fpo5ik3wbuwxb)" height="60.8047" id="CreateFreightNetworkController" style="stroke:#A80036;stroke-width:1.5;" width="222" x="555.5" y="7"/><ellipse cx="570.5" cy="23" fill="#ADD1B2" rx="11" ry="11" style="stroke:#A80036;stroke-width:1.0;"/><path d="M572.9688,28.875 Q572.3906,29.1875 571.75,29.3438 Q571.1094,29.5 570.4063,29.5 Q567.9063,29.5 566.5781,27.8281 Q565.2656,26.1563 565.2656,23 Q565.2656,19.8438 566.5781,18.1719 Q567.9063,16.5 570.4063,16.5 Q571.1094,16.5 571.75,16.6563 Q572.4063,16.8125 572.9688,17.125 L572.9688,19.9219 Q572.3438,19.3594 571.75,19.0938 Q571.1563,18.8125 570.5313,18.8125 Q569.1875,18.8125 568.5,19.875 Q567.8125,20.9375 567.8125,23 Q567.8125,25.0781 568.5,26.1406 Q569.1875,27.1875 570.5313,27.1875 Q571.1563,27.1875 571.75,26.9219 Q572.3438,26.6563 572.9688,26.0781 L572.9688,28.875 Z " fill="#000000"/><text fill="#000000" font-family="sans-serif" font-size="12" lengthAdjust="spacing" textLength="190" x="584.5" y="27.1543">CreateFreightNetworkController</text><line style="stroke:#A80036;stroke-width:1.5;" x1="556.5" x2="776.5" y1="39" y2="39"/><line style="stroke:#A80036;stroke-width:1.5;" x1="556.5" x2="776.5" y1="47" y2="47"/><text fill="#000000" font-family="sans-serif" font-size="11" lengthAdjust="spacing" textLength="182" x="561.5" y="61.2104">+createFreightNetworkFromDb()</text><!--MD5=[7938f5e46616f5944df90ef4f897cf15]
class PortStoreDb--><rect codeLine="8" fill="#FEFECE" filter="url(#fpo5ik3wbuwxb)" height="73.6094" id="PortStoreDb" style="stroke:#A80036;stroke-width:1.5;" width="121" x="251" y="286"/><ellipse cx="273.2" cy="302" fill="#ADD1B2" rx="11" ry="11" style="stroke:#A80036;stroke-width:1.0;"/><path d="M275.6688,307.875 Q275.0906,308.1875 274.45,308.3438 Q273.8094,308.5 273.1063,308.5 Q270.6063,308.5 269.2781,306.8281 Q267.9656,305.1563 267.9656,302 Q267.9656,298.8438 269.2781,297.1719 Q270.6063,295.5 273.1063,295.5 Q273.8094,295.5 274.45,295.6563 Q275.1063,295.8125 275.6688,296.125 L275.6688,298.9219 Q275.0438,298.3594 274.45,298.0938 Q273.8563,297.8125 273.2313,297.8125 Q271.8875,297.8125 271.2,298.875 Q270.5125,299.9375 270.5125,302 Q270.5125,304.0781 271.2,305.1406 Q271.8875,306.1875 273.2313,306.1875 Q273.8563,306.1875 274.45,305.9219 Q275.0438,305.6563 275.6688,305.0781 L275.6688,307.875 Z " fill="#000000"/><text fill="#000000" font-family="sans-serif" font-size="12" lengthAdjust="spacing" textLength="73" x="288.8" y="306.1543">PortStoreDb</text><line style="stroke:#A80036;stroke-width:1.5;" x1="252" x2="371" y1="318" y2="318"/><line style="stroke:#A80036;stroke-width:1.5;" x1="252" x2="371" y1="326" y2="326"/><text fill="#000000" font-family="sans-serif" font-size="11" lengthAdjust="spacing" textLength="109" x="257" y="340.2104">+getExistentPorts()</text><text fill="#000000" font-family="sans-serif" font-size="11" lengthAdjust="spacing" textLength="83" x="257" y="353.0151">+getSeaDists()</text><!--MD5=[81451fd56f4102ec3d58902ae891091c]
class CountryStoreDb--><rect codeLine="13" fill="#FEFECE" filter="url(#fpo5ik3wbuwxb)" height="86.4141" id="CountryStoreDb" style="stroke:#A80036;stroke-width:1.5;" width="137" x="824" y="280"/><ellipse cx="842.6" cy="296" fill="#ADD1B2" rx="11" ry="11" style="stroke:#A80036;stroke-width:1.0;"/><path d="M845.0688,301.875 Q844.4906,302.1875 843.85,302.3438 Q843.2094,302.5 842.5063,302.5 Q840.0063,302.5 838.6781,300.8281 Q837.3656,299.1563 837.3656,296 Q837.3656,292.8438 838.6781,291.1719 Q840.0063,289.5 842.5063,289.5 Q843.2094,289.5 843.85,289.6563 Q844.5063,289.8125 845.0688,290.125 L845.0688,292.9219 Q844.4438,292.3594 843.85,292.0938 Q843.2563,291.8125 842.6313,291.8125 Q841.2875,291.8125 840.6,292.875 Q839.9125,293.9375 839.9125,296 Q839.9125,298.0781 840.6,299.1406 Q841.2875,300.1875 842.6313,300.1875 Q843.2563,300.1875 843.85,299.9219 Q844.4438,299.6563 845.0688,299.0781 L845.0688,301.875 Z " fill="#000000"/><text fill="#000000" font-family="sans-serif" font-size="12" lengthAdjust="spacing" textLength="97" x="857.4" y="300.1543">CountryStoreDb</text><line style="stroke:#A80036;stroke-width:1.5;" x1="825" x2="960" y1="312" y2="312"/><line style="stroke:#A80036;stroke-width:1.5;" x1="825" x2="960" y1="320" y2="320"/><text fill="#000000" font-family="sans-serif" font-size="11" lengthAdjust="spacing" textLength="125" x="830" y="334.2104">+getExistentCapitals()</text><text fill="#000000" font-family="sans-serif" font-size="11" lengthAdjust="spacing" textLength="89" x="830" y="347.0151">+getCountries()</text><text fill="#000000" font-family="sans-serif" font-size="11" lengthAdjust="spacing" textLength="80" x="830" y="359.8198">+getBorders()</text><!--MD5=[f70d2b281f9eefc1b49373c49159755a]
class PortStore--><rect codeLine="19" fill="#FEFECE" filter="url(#fpo5ik3wbuwxb)" height="73.6094" id="PortStore" style="stroke:#A80036;stroke-width:1.5;" width="95" x="996" y="286"/><ellipse cx="1014.15" cy="302" fill="#ADD1B2" rx="11" ry="11" style="stroke:#A80036;stroke-width:1.0;"/><path d="M1016.6188,307.875 Q1016.0406,308.1875 1015.4,308.3438 Q1014.7594,308.5 1014.0563,308.5 Q1011.5563,308.5 1010.2281,306.8281 Q1008.9156,305.1563 1008.9156,302 Q1008.9156,298.8438 1010.2281,297.1719 Q1011.5563,295.5 1014.0563,295.5 Q1014.7594,295.5 1015.4,295.6563 Q1016.0563,295.8125 1016.6188,296.125 L1016.6188,298.9219 Q1015.9938,298.3594 1015.4,298.0938 Q1014.8063,297.8125 1014.1813,297.8125 Q1012.8375,297.8125 1012.15,298.875 Q1011.4625,299.9375 1011.4625,302 Q1011.4625,304.0781 1012.15,305.1406 Q1012.8375,306.1875 1014.1813,306.1875 Q1014.8063,306.1875 1015.4,305.9219 Q1015.9938,305.6563 1016.6188,305.0781 L1016.6188,307.875 Z " fill="#000000"/><text fill="#000000" font-family="sans-serif" font-size="12" lengthAdjust="spacing" textLength="56" x="1028.85" y="306.1543">PortStore</text><line style="stroke:#A80036;stroke-width:1.5;" x1="997" x2="1090" y1="318" y2="318"/><line style="stroke:#A80036;stroke-width:1.5;" x1="997" x2="1090" y1="326" y2="326"/><text fill="#000000" font-family="sans-serif" font-size="11" lengthAdjust="spacing" textLength="64" x="1002" y="340.2104">+getPorts()</text><text fill="#000000" font-family="sans-serif" font-size="11" lengthAdjust="spacing" textLength="83" x="1002" y="353.0151">+getPortById()</text><!--MD5=[1fa23e875f7ea39406cc4f0fd95e1dab]
class CountryStore--><rect codeLine="24" fill="#FEFECE" filter="url(#fpo5ik3wbuwxb)" height="86.4141" id="CountryStore" style="stroke:#A80036;stroke-width:1.5;" width="137" x="7" y="280"/><ellipse cx="33.25" cy="296" fill="#ADD1B2" rx="11" ry="11" style="stroke:#A80036;stroke-width:1.0;"/><path d="M35.7188,301.875 Q35.1406,302.1875 34.5,302.3438 Q33.8594,302.5 33.1563,302.5 Q30.6563,302.5 29.3281,300.8281 Q28.0156,299.1563 28.0156,296 Q28.0156,292.8438 29.3281,291.1719 Q30.6563,289.5 33.1563,289.5 Q33.8594,289.5 34.5,289.6563 Q35.1563,289.8125 35.7188,290.125 L35.7188,292.9219 Q35.0938,292.3594 34.5,292.0938 Q33.9063,291.8125 33.2813,291.8125 Q31.9375,291.8125 31.25,292.875 Q30.5625,293.9375 30.5625,296 Q30.5625,298.0781 31.25,299.1406 Q31.9375,300.1875 33.2813,300.1875 Q33.9063,300.1875 34.5,299.9219 Q35.0938,299.6563 35.7188,299.0781 L35.7188,301.875 Z " fill="#000000"/><text fill="#000000" font-family="sans-serif" font-size="12" lengthAdjust="spacing" textLength="80" x="49.75" y="300.1543">CountryStore</text><line style="stroke:#A80036;stroke-width:1.5;" x1="8" x2="143" y1="312" y2="312"/><line style="stroke:#A80036;stroke-width:1.5;" x1="8" x2="143" y1="320" y2="320"/><text fill="#000000" font-family="sans-serif" font-size="11" lengthAdjust="spacing" textLength="125" x="13" y="334.2104">+getExistentCapitals()</text><text fill="#000000" font-family="sans-serif" font-size="11" lengthAdjust="spacing" textLength="89" x="13" y="347.0151">+getCountries()</text><text fill="#000000" font-family="sans-serif" font-size="11" lengthAdjust="spacing" textLength="80" x="13" y="359.8198">+getBorders()</text><!--MD5=[02e4b9b7573f1156f41e60aa5b4e25a4]
class Company--><rect codeLine="30" fill="#FEFECE" filter="url(#fpo5ik3wbuwxb)" height="73.6094" id="Company" style="stroke:#A80036;stroke-width:1.5;" width="139" x="488" y="129"/><ellipse cx="525.5" cy="145" fill="#ADD1B2" rx="11" ry="11" style="stroke:#A80036;stroke-width:1.0;"/><path d="M527.9688,150.875 Q527.3906,151.1875 526.75,151.3438 Q526.1094,151.5 525.4063,151.5 Q522.9063,151.5 521.5781,149.8281 Q520.2656,148.1563 520.2656,145 Q520.2656,141.8438 521.5781,140.1719 Q522.9063,138.5 525.4063,138.5 Q526.1094,138.5 526.75,138.6563 Q527.4063,138.8125 527.9688,139.125 L527.9688,141.9219 Q527.3438,141.3594 526.75,141.0938 Q526.1563,140.8125 525.5313,140.8125 Q524.1875,140.8125 523.5,141.875 Q522.8125,142.9375 522.8125,145 Q522.8125,147.0781 523.5,148.1406 Q524.1875,149.1875 525.5313,149.1875 Q526.1563,149.1875 526.75,148.9219 Q527.3438,148.6563 527.9688,148.0781 L527.9688,150.875 Z " fill="#000000"/><text fill="#000000" font-family="sans-serif" font-size="12" lengthAdjust="spacing" textLength="57" x="544.5" y="149.1543">Company</text><line style="stroke:#A80036;stroke-width:1.5;" x1="489" x2="626" y1="161" y2="161"/><text fill="#000000" font-family="sans-serif" font-size="11" lengthAdjust="spacing" textLength="69" x="494" y="175.2104">-designation</text><line style="stroke:#A80036;stroke-width:1.5;" x1="489" x2="626" y1="181.8047" y2="181.8047"/><text fill="#000000" font-family="sans-serif" font-size="11" lengthAdjust="spacing" textLength="127" x="494" y="196.0151">+getShipTripStoreDB()</text><!--MD5=[ea8f20dfdca176213da526d9b557babf]
class Capital--><rect codeLine="35" fill="#FEFECE" filter="url(#fpo5ik3wbuwxb)" height="48" id="Capital" style="stroke:#A80036;stroke-width:1.5;" width="73" x="355" y="568"/><ellipse cx="370" cy="584" fill="#ADD1B2" rx="11" ry="11" style="stroke:#A80036;stroke-width:1.0;"/><path d="M372.4688,589.875 Q371.8906,590.1875 371.25,590.3438 Q370.6094,590.5 369.9063,590.5 Q367.4063,590.5 366.0781,588.8281 Q364.7656,587.1563 364.7656,584 Q364.7656,580.8438 366.0781,579.1719 Q367.4063,577.5 369.9063,577.5 Q370.6094,577.5 371.25,577.6563 Q371.9063,577.8125 372.4688,578.125 L372.4688,580.9219 Q371.8438,580.3594 371.25,580.0938 Q370.6563,579.8125 370.0313,579.8125 Q368.6875,579.8125 368,580.875 Q367.3125,581.9375 367.3125,584 Q367.3125,586.0781 368,587.1406 Q368.6875,588.1875 370.0313,588.1875 Q370.6563,588.1875 371.25,587.9219 Q371.8438,587.6563 372.4688,587.0781 L372.4688,589.875 Z " fill="#000000"/><text fill="#000000" font-family="sans-serif" font-size="12" lengthAdjust="spacing" textLength="41" x="384" y="588.1543">Capital</text><line style="stroke:#A80036;stroke-width:1.5;" x1="356" x2="427" y1="600" y2="600"/><line style="stroke:#A80036;stroke-width:1.5;" x1="356" x2="427" y1="608" y2="608"/><!--MD5=[deb4e1f6eb1e3c1256fdb830f96abfbb]
class Country--><rect codeLine="38" fill="#FEFECE" filter="url(#fpo5ik3wbuwxb)" height="48" id="Country" style="stroke:#A80036;stroke-width:1.5;" width="80" x="298.5" y="443"/><ellipse cx="313.5" cy="459" fill="#ADD1B2" rx="11" ry="11" style="stroke:#A80036;stroke-width:1.0;"/><path d="M315.9688,464.875 Q315.3906,465.1875 314.75,465.3438 Q314.1094,465.5 313.4063,465.5 Q310.9063,465.5 309.5781,463.8281 Q308.2656,462.1563 308.2656,459 Q308.2656,455.8438 309.5781,454.1719 Q310.9063,452.5 313.4063,452.5 Q314.1094,452.5 314.75,452.6563 Q315.4063,452.8125 315.9688,453.125 L315.9688,455.9219 Q315.3438,455.3594 314.75,455.0938 Q314.1563,454.8125 313.5313,454.8125 Q312.1875,454.8125 311.5,455.875 Q310.8125,456.9375 310.8125,459 Q310.8125,461.0781 311.5,462.1406 Q312.1875,463.1875 313.5313,463.1875 Q314.1563,463.1875 314.75,462.9219 Q315.3438,462.6563 315.9688,462.0781 L315.9688,464.875 Z " fill="#000000"/><text fill="#000000" font-family="sans-serif" font-size="12" lengthAdjust="spacing" textLength="48" x="327.5" y="463.1543">Country</text><line style="stroke:#A80036;stroke-width:1.5;" x1="299.5" x2="377.5" y1="475" y2="475"/><line style="stroke:#A80036;stroke-width:1.5;" x1="299.5" x2="377.5" y1="483" y2="483"/><!--MD5=[a0bfe97ac0a38e6e74cc1c7c7b744b71]
class Port--><rect codeLine="40" fill="#FEFECE" filter="url(#fpo5ik3wbuwxb)" height="48" id="Port" style="stroke:#A80036;stroke-width:1.5;" width="56" x="845.5" y="443"/><ellipse cx="860.5" cy="459" fill="#ADD1B2" rx="11" ry="11" style="stroke:#A80036;stroke-width:1.0;"/><path d="M862.9688,464.875 Q862.3906,465.1875 861.75,465.3438 Q861.1094,465.5 860.4063,465.5 Q857.9063,465.5 856.5781,463.8281 Q855.2656,462.1563 855.2656,459 Q855.2656,455.8438 856.5781,454.1719 Q857.9063,452.5 860.4063,452.5 Q861.1094,452.5 861.75,452.6563 Q862.4063,452.8125 862.9688,453.125 L862.9688,455.9219 Q862.3438,455.3594 861.75,455.0938 Q861.1563,454.8125 860.5313,454.8125 Q859.1875,454.8125 858.5,455.875 Q857.8125,456.9375 857.8125,459 Q857.8125,461.0781 858.5,462.1406 Q859.1875,463.1875 860.5313,463.1875 Q861.1563,463.1875 861.75,462.9219 Q862.3438,462.6563 862.9688,462.0781 L862.9688,464.875 Z " fill="#000000"/><text fill="#000000" font-family="sans-serif" font-size="12" lengthAdjust="spacing" textLength="24" x="874.5" y="463.1543">Port</text><line style="stroke:#A80036;stroke-width:1.5;" x1="846.5" x2="900.5" y1="475" y2="475"/><line style="stroke:#A80036;stroke-width:1.5;" x1="846.5" x2="900.5" y1="483" y2="483"/><!--MD5=[4f1f3706c1a355a8488e154afcaed5df]
class Location--><rect codeLine="42" fill="#FEFECE" filter="url(#fpo5ik3wbuwxb)" height="99.2188" id="Location" style="stroke:#A80036;stroke-width:1.5;" width="83" x="492" y="677"/><ellipse cx="507" cy="693" fill="#A9DCDF" rx="11" ry="11" style="stroke:#A80036;stroke-width:1.0;"/><path d="M507.1094,688.2969 L505.9531,693.625 L508.2813,693.625 L507.1094,688.2969 Z M505.625,685.75 L508.6094,685.75 L511.9688,698.75 L509.5156,698.75 L508.75,695.75 L505.4688,695.75 L504.7188,698.75 L502.2813,698.75 L505.625,685.75 Z " fill="#000000"/><text fill="#000000" font-family="sans-serif" font-size="12" font-style="italic" lengthAdjust="spacing" textLength="51" x="521" y="697.1543">Location</text><line style="stroke:#A80036;stroke-width:1.5;" x1="493" x2="574" y1="709" y2="709"/><text fill="#000000" font-family="sans-serif" font-size="11" lengthAdjust="spacing" textLength="42" x="498" y="723.2104">latitude</text><text fill="#000000" font-family="sans-serif" font-size="11" lengthAdjust="spacing" textLength="52" x="498" y="736.0151">longitude</text><text fill="#000000" font-family="sans-serif" font-size="11" lengthAdjust="spacing" textLength="43" x="498" y="748.8198">country</text><text fill="#000000" font-family="sans-serif" font-size="11" lengthAdjust="spacing" textLength="32" x="498" y="761.6245">name</text><line style="stroke:#A80036;stroke-width:1.5;" x1="493" x2="574" y1="768.2188" y2="768.2188"/><!--MD5=[06fafc26abc593aa29359fb87d7ac476]
class FreightNerwork--><rect codeLine="49" fill="#FEFECE" filter="url(#fpo5ik3wbuwxb)" height="48" id="FreightNerwork" style="stroke:#A80036;stroke-width:1.5;" width="125" x="548" y="299"/><ellipse cx="563" cy="315" fill="#ADD1B2" rx="11" ry="11" style="stroke:#A80036;stroke-width:1.0;"/><path d="M565.4688,320.875 Q564.8906,321.1875 564.25,321.3438 Q563.6094,321.5 562.9063,321.5 Q560.4063,321.5 559.0781,319.8281 Q557.7656,318.1563 557.7656,315 Q557.7656,311.8438 559.0781,310.1719 Q560.4063,308.5 562.9063,308.5 Q563.6094,308.5 564.25,308.6563 Q564.9063,308.8125 565.4688,309.125 L565.4688,311.9219 Q564.8438,311.3594 564.25,311.0938 Q563.6563,310.8125 563.0313,310.8125 Q561.6875,310.8125 561,311.875 Q560.3125,312.9375 560.3125,315 Q560.3125,317.0781 561,318.1406 Q561.6875,319.1875 563.0313,319.1875 Q563.6563,319.1875 564.25,318.9219 Q564.8438,318.6563 565.4688,318.0781 L565.4688,320.875 Z " fill="#000000"/><text fill="#000000" font-family="sans-serif" font-size="12" lengthAdjust="spacing" textLength="93" x="577" y="319.1543">FreightNerwork</text><line style="stroke:#A80036;stroke-width:1.5;" x1="549" x2="672" y1="331" y2="331"/><line style="stroke:#A80036;stroke-width:1.5;" x1="549" x2="672" y1="339" y2="339"/><!--MD5=[b7b072196a724e538165319251b4d539]
class MatrixGraph--><rect codeLine="51" fill="#FEFECE" filter="url(#fpo5ik3wbuwxb)" height="48" id="MatrixGraph" style="stroke:#A80036;stroke-width:1.5;" width="106" x="591.5" y="443"/><ellipse cx="606.5" cy="459" fill="#ADD1B2" rx="11" ry="11" style="stroke:#A80036;stroke-width:1.0;"/><path d="M608.9688,464.875 Q608.3906,465.1875 607.75,465.3438 Q607.1094,465.5 606.4063,465.5 Q603.9063,465.5 602.5781,463.8281 Q601.2656,462.1563 601.2656,459 Q601.2656,455.8438 602.5781,454.1719 Q603.9063,452.5 606.4063,452.5 Q607.1094,452.5 607.75,452.6563 Q608.4063,452.8125 608.9688,453.125 L608.9688,455.9219 Q608.3438,455.3594 607.75,455.0938 Q607.1563,454.8125 606.5313,454.8125 Q605.1875,454.8125 604.5,455.875 Q603.8125,456.9375 603.8125,459 Q603.8125,461.0781 604.5,462.1406 Q605.1875,463.1875 606.5313,463.1875 Q607.1563,463.1875 607.75,462.9219 Q608.3438,462.6563 608.9688,462.0781 L608.9688,464.875 Z " fill="#000000"/><text fill="#000000" font-family="sans-serif" font-size="12" lengthAdjust="spacing" textLength="74" x="620.5" y="463.1543">MatrixGraph</text><line style="stroke:#A80036;stroke-width:1.5;" x1="592.5" x2="696.5" y1="475" y2="475"/><line style="stroke:#A80036;stroke-width:1.5;" x1="592.5" x2="696.5" y1="483" y2="483"/><!--MD5=[ef63e85e32976ed6c3ca2a05ce10893d]
class CommonGraph--><rect codeLine="53" fill="#FEFECE" filter="url(#fpo5ik3wbuwxb)" height="48" id="CommonGraph" style="stroke:#A80036;stroke-width:1.5;" width="123" x="587" y="568"/><ellipse cx="602" cy="584" fill="#A9DCDF" rx="11" ry="11" style="stroke:#A80036;stroke-width:1.0;"/><path d="M602.1094,579.2969 L600.9531,584.625 L603.2813,584.625 L602.1094,579.2969 Z M600.625,576.75 L603.6094,576.75 L606.9688,589.75 L604.5156,589.75 L603.75,586.75 L600.4688,586.75 L599.7188,589.75 L597.2813,589.75 L600.625,576.75 Z " fill="#000000"/><text fill="#000000" font-family="sans-serif" font-size="12" font-style="italic" lengthAdjust="spacing" textLength="91" x="616" y="588.1543">CommonGraph</text><line style="stroke:#A80036;stroke-width:1.5;" x1="588" x2="709" y1="600" y2="600"/><line style="stroke:#A80036;stroke-width:1.5;" x1="588" x2="709" y1="608" y2="608"/><!--MD5=[b10ac0057826d99e32d382b760b607c3]
link MatrixGraph to CommonGraph--><path codeLine="55" d="M645.25,491.14 C645.91,511.49 646.88,541.19 647.59,562.91 " fill="none" id="MatrixGraph-to-CommonGraph" style="stroke:#A80036;stroke-width:1.0;stroke-dasharray:7.0,7.0;"/><polygon fill="#A80036" points="647.75,567.97,651.4393,558.8382,647.5787,562.9729,643.444,559.1123,647.75,567.97" style="stroke:#A80036;stroke-width:1.0;"/><!--MD5=[9690259f475181d16b30037972309cbd]
link FreightNerwork to MatrixGraph--><path codeLine="56" d="M616.04,347.13 C621.97,371.89 631.37,411.17 637.73,437.74 " fill="none" id="FreightNerwork-to-MatrixGraph" style="stroke:#A80036;stroke-width:1.0;stroke-dasharray:7.0,7.0;"/><polygon fill="#A80036" points="638.96,442.88,640.7654,433.198,637.8013,438.0161,632.9832,435.052,638.96,442.88" style="stroke:#A80036;stroke-width:1.0;"/><!--MD5=[eac470bfa660ad28952afcf1ef158513]
link Capital to Location--><path codeLine="57" d="M416.23,616.08 C436,634.52 464.23,660.86 488.04,683.08 " fill="none" id="Capital-to-Location" style="stroke:#A80036;stroke-width:1.0;stroke-dasharray:7.0,7.0;"/><polygon fill="#A80036" points="491.82,686.61,487.971,677.5444,488.1652,683.1979,482.5117,683.3921,491.82,686.61" style="stroke:#A80036;stroke-width:1.0;"/><!--MD5=[8d70ee99540c41b6b173287b4c5b2064]
link Port to Location--><path codeLine="58" d="M854.42,491.02 C828.04,521.92 777.95,577.4 727.5,616 C680.71,651.79 620.93,683.75 580.17,703.77 " fill="none" id="Port-to-Location" style="stroke:#A80036;stroke-width:1.0;stroke-dasharray:7.0,7.0;"/><polygon fill="#A80036" points="575.3,706.16,585.1418,705.7883,579.7892,703.9583,581.6191,698.6056,575.3,706.16" style="stroke:#A80036;stroke-width:1.0;"/><!--MD5=[f04de9d4c066040755c4788048ff1168]
link CreateFreightNetworkController to Company--><path codeLine="59" d="M640.94,68.16 C626.44,85 608.07,106.31 592.27,124.65 " fill="none" id="CreateFreightNetworkController-to-Company" style="stroke:#A80036;stroke-width:1.0;stroke-dasharray:7.0,7.0;"/><polygon fill="#A80036" points="588.73,128.76,597.632,124.5464,591.991,124.9698,591.5677,119.3288,588.73,128.76" style="stroke:#A80036;stroke-width:1.0;"/><!--MD5=[fa62321c8143bba039d4625b38290ded]
link CreateFreightNetworkController to PortStoreDb--><path codeLine="60" d="M555.28,61.69 C465.62,86.99 345.7,137.36 290.5,233 C282.16,247.45 284.21,265.05 289.52,280.76 " fill="none" id="CreateFreightNetworkController-to-PortStoreDb" style="stroke:#A80036;stroke-width:1.0;stroke-dasharray:7.0,7.0;"/><polygon fill="#A80036" points="291.27,285.57,291.9439,275.7442,289.5567,280.8727,284.4282,278.4855,291.27,285.57" style="stroke:#A80036;stroke-width:1.0;"/><!--MD5=[34af92b4c224c2fccc9fd07ec6543df6]
link Company to PortStoreDb--><path codeLine="61" d="M487.95,192.28 C462.04,203.1 433,216.96 408.5,233 C385.75,247.9 363.19,268.18 345.56,285.61 " fill="none" id="Company-PortStoreDb" style="stroke:#A80036;stroke-width:1.0;"/><polygon fill="#000000" points="409.3182,244.3074,418.4942,241.8069,415.272,236.8909,409.3182,244.3074" style="stroke:#000000;stroke-width:1.0;"/><text fill="#000000" font-family="sans-serif" font-size="13" lengthAdjust="spacing" textLength="30" x="422.5" y="246.0669">uses</text><text fill="#000000" font-family="sans-serif" font-size="13" lengthAdjust="spacing" textLength="8" x="471.9055" y="208.0702">1</text><text fill="#000000" font-family="sans-serif" font-size="13" lengthAdjust="spacing" textLength="8" x="342.7266" y="275.0064">1</text><!--MD5=[5703ab9196ad04a988a862194e9a13d2]
link CreateFreightNetworkController to CountryStoreDb--><path codeLine="62" d="M706.82,68.11 C751.44,102.89 822.6,164.58 864.5,233 C872.26,245.67 878.06,260.69 882.3,274.75 " fill="none" id="CreateFreightNetworkController-to-CountryStoreDb" style="stroke:#A80036;stroke-width:1.0;stroke-dasharray:7.0,7.0;"/><polygon fill="#A80036" points="883.79,279.87,885.11,270.11,882.39,275.07,877.43,272.35,883.79,279.87" style="stroke:#A80036;stroke-width:1.0;"/><!--MD5=[552075ebdefd94f7e8d521bd2f9483fe]
link Company to CountryStoreDb--><path codeLine="63" d="M627.29,202.98 C657.03,217.97 692.25,235.28 724.5,250 C756.04,264.39 764.62,266.39 796.5,280 C805.37,283.79 814.68,287.81 823.87,291.8 " fill="none" id="Company-CountryStoreDb" style="stroke:#A80036;stroke-width:1.0;"/><polygon fill="#000000" points="734.0565,243.6251,727.0238,237.2226,724.6036,242.5791,734.0565,243.6251" style="stroke:#000000;stroke-width:1.0;"/><text fill="#000000" font-family="sans-serif" font-size="13" lengthAdjust="spacing" textLength="30" x="738.5" y="246.0669">uses</text><text fill="#000000" font-family="sans-serif" font-size="13" lengthAdjust="spacing" textLength="8" x="630.5977" y="222.7369">1</text><text fill="#000000" font-family="sans-serif" font-size="13" lengthAdjust="spacing" textLength="8" x="807.9261" y="284.6187">1</text><!--MD5=[1c7ef3eed46208412625467f91f87f69]
link CreateFreightNetworkController to PortStore--><path codeLine="64" d="M731.4,68.05 C764.12,84.17 803.7,105.6 836.5,129 C901.4,175.31 967.19,240.46 1006.67,281.95 " fill="none" id="CreateFreightNetworkController-to-PortStore" style="stroke:#A80036;stroke-width:1.0;stroke-dasharray:7.0,7.0;"/><polygon fill="#A80036" points="1010.41,285.89,1007.117,276.608,1006.9685,282.2629,1001.3136,282.1144,1010.41,285.89" style="stroke:#A80036;stroke-width:1.0;"/><!--MD5=[5a03d6507d51d9583d52cfaf8d4720dd]
link Company to PortStore--><path codeLine="65" d="M627.18,178.8 C712.55,194.8 860.4,227.55 978.5,280 C984.27,282.56 990.11,285.6 995.81,288.85 " fill="none" id="Company-PortStore" style="stroke:#A80036;stroke-width:1.0;"/><polygon fill="#000000" points="910.2911,242.9967,902.4647,237.5931,900.7832,243.2254,910.2911,242.9967" style="stroke:#000000;stroke-width:1.0;"/><text fill="#000000" font-family="sans-serif" font-size="13" lengthAdjust="spacing" textLength="30" x="914.5" y="246.0669">uses</text><text fill="#000000" font-family="sans-serif" font-size="13" lengthAdjust="spacing" textLength="8" x="634.7783" y="176.4404">1</text><text fill="#000000" font-family="sans-serif" font-size="13" lengthAdjust="spacing" textLength="8" x="979.895" y="279.5793">1</text><!--MD5=[d22f2e5308374d5a92db7fb7a6eea1f8]
link CreateFreightNetworkController to CountryStore--><path codeLine="66" d="M555.26,39.23 C428.18,42.2 230.22,54.03 171.5,98 C115.07,140.26 91.43,222.4 81.8,274.61 " fill="none" id="CreateFreightNetworkController-to-CountryStore" style="stroke:#A80036;stroke-width:1.0;stroke-dasharray:7.0,7.0;"/><polygon fill="#A80036" points="80.91,279.56,86.4388,271.4094,81.7944,274.6388,78.565,269.9944,80.91,279.56" style="stroke:#A80036;stroke-width:1.0;"/><!--MD5=[3e62267ed92cd658fcc6f008fe587857]
link Company to CountryStore--><path codeLine="67" d="M487.81,186.51 C443.23,199.22 384.27,216.45 332.5,233 C268.3,253.52 195.78,278.83 144.19,297.21 " fill="none" id="Company-CountryStore" style="stroke:#A80036;stroke-width:1.0;"/><polygon fill="#000000" points="332.7409,243.0996,342.2514,243.1234,340.449,237.5287,332.7409,243.0996" style="stroke:#000000;stroke-width:1.0;"/><text fill="#000000" font-family="sans-serif" font-size="13" lengthAdjust="spacing" textLength="30" x="346.5" y="246.0669">uses</text><text fill="#000000" font-family="sans-serif" font-size="13" lengthAdjust="spacing" textLength="8" x="472.2107" y="184.9455">1</text><text fill="#000000" font-family="sans-serif" font-size="13" lengthAdjust="spacing" textLength="8" x="152.1405" y="290.6204">1</text><!--MD5=[8c736de57a0b67374907421adbe5e17c]
link Country to Capital--><path codeLine="68" d="M348.47,491.14 C357.94,513.13 372.12,546.01 381.58,567.97 " fill="none" id="Country-Capital" style="stroke:#A80036;stroke-width:1.0;"/><polygon fill="#000000" points="375.4788,534.1582,374.5981,524.6885,369.2001,527.0147,375.4788,534.1582" style="stroke:#000000;stroke-width:1.0;"/><text fill="#000000" font-family="sans-serif" font-size="13" lengthAdjust="spacing" textLength="23" x="382.5" y="534.0669">has</text><text fill="#000000" font-family="sans-serif" font-size="13" lengthAdjust="spacing" textLength="8" x="341.9252" y="510.9353">1</text><text fill="#000000" font-family="sans-serif" font-size="13" lengthAdjust="spacing" textLength="8" x="370.013" y="556.9743">1</text><!--MD5=[ead99fbec181cfa621fa20bb5fed5a39]
link CreateFreightNetworkController to Country--><path codeLine="69" d="M555.28,41.8 C477.34,49.5 374.93,71.09 304.5,129 C219.56,198.83 190.19,264.93 233.5,366 C246.62,396.62 274.24,422.31 297.86,439.98 " fill="none" id="CreateFreightNetworkController-to-Country" style="stroke:#A80036;stroke-width:1.0;stroke-dasharray:7.0,7.0;"/><polygon fill="#A80036" points="301.91,442.96,297.0218,434.4099,297.8793,440.0013,292.2879,440.8589,301.91,442.96" style="stroke:#A80036;stroke-width:1.0;"/><!--MD5=[7e4b9b801a20d2798d1a084e38f66014]
link CreateFreightNetworkController to Port--><path codeLine="70" d="M777.62,61.52 C886.63,90.96 1045.39,154.03 1108.5,280 C1125.62,314.17 1128.52,333.44 1108.5,366 C1065.29,436.25 960.82,457.21 906.91,463.41 " fill="none" id="CreateFreightNetworkController-to-Port" style="stroke:#A80036;stroke-width:1.0;stroke-dasharray:7.0,7.0;"/><polygon fill="#A80036" points="901.86,463.97,911.2495,466.9428,906.8289,463.4131,910.3585,458.9925,901.86,463.97" style="stroke:#A80036;stroke-width:1.0;"/><!--MD5=[f967797988c016cbdc52ea2558741842]
link CountryStore to Country--><path codeLine="71" d="M86.17,366.25 C92.42,383.03 102.03,401.14 116.5,413 C168.75,455.83 249.87,465.12 298.24,466.55 " fill="none" id="CountryStore-Country" style="stroke:#A80036;stroke-width:1.0;"/><polygon fill="#000000" points="126.02,406.7042,119.0998,400.1802,116.5867,405.4937,126.02,406.7042" style="stroke:#000000;stroke-width:1.0;"/><text fill="#000000" font-family="sans-serif" font-size="13" lengthAdjust="spacing" textLength="40" x="130.5" y="409.0669">stores</text><text fill="#000000" font-family="sans-serif" font-size="13" lengthAdjust="spacing" textLength="8" x="79.233" y="386.3828">1</text><text fill="#000000" font-family="sans-serif" font-size="13" lengthAdjust="spacing" textLength="23" x="267.6378" y="462.459">1..*</text><!--MD5=[c8440d88291d09ff9b1204d56899ac6f]
link PortStore to Port--><path codeLine="72" d="M1000.16,360.2 C968.98,386.25 927.85,420.6 901.05,442.98 " fill="none" id="PortStore-Port" style="stroke:#A80036;stroke-width:1.0;"/><polygon fill="#000000" points="953.6625,407.7716,962.4886,404.229,958.7206,399.7177,953.6625,407.7716" style="stroke:#000000;stroke-width:1.0;"/><text fill="#000000" font-family="sans-serif" font-size="13" lengthAdjust="spacing" textLength="40" x="966.5" y="409.0669">stores</text><text fill="#000000" font-family="sans-serif" font-size="13" lengthAdjust="spacing" textLength="8" x="984.3193" y="379.7137">1</text><text fill="#000000" font-family="sans-serif" font-size="13" lengthAdjust="spacing" textLength="23" x="882.1628" y="431.9869">1..*</text><!--MD5=[5fd98a8c03cc0e5a408f548eb1c0ace8]
link Company to Port--><path codeLine="73" d="M627.38,180.43 C660.01,190.01 696.97,206.15 721.5,233 C763.13,278.58 728.34,313.93 761.5,366 C783.2,400.08 819.68,429.55 845.09,447.5 " fill="none" id="Company-Port" style="stroke:#A80036;stroke-width:1.0;"/><polygon fill="#000000" points="769.6592,326.9419,766.2221,318.0741,761.6662,321.788,769.6592,326.9419" style="stroke:#000000;stroke-width:1.0;"/><text fill="#000000" font-family="sans-serif" font-size="13" lengthAdjust="spacing" textLength="30" x="775.5" y="327.5669">uses</text><text fill="#000000" font-family="sans-serif" font-size="13" lengthAdjust="spacing" textLength="8" x="634.9989" y="194.7854">1</text><text fill="#000000" font-family="sans-serif" font-size="13" lengthAdjust="spacing" textLength="23" x="814.4822" y="439.4327">1..*</text><!--MD5=[da7744a491085abf6337b551ad49e0b8]
link Company to Country--><path codeLine="74" d="M524.37,203.16 C505.02,224.86 480.55,253.35 460.5,280 C418.13,336.32 374.17,406.87 352.42,442.74 " fill="none" id="Company-Country" style="stroke:#A80036;stroke-width:1.0;"/><polygon fill="#000000" points="462.5846,327.1285,470.2462,321.4938,465.471,318.0665,462.5846,327.1285" style="stroke:#000000;stroke-width:1.0;"/><text fill="#000000" font-family="sans-serif" font-size="13" lengthAdjust="spacing" textLength="55" x="474.5" y="327.5669">works in</text><text fill="#000000" font-family="sans-serif" font-size="13" lengthAdjust="spacing" textLength="8" x="510.2203" y="222.6671">1</text><text fill="#000000" font-family="sans-serif" font-size="13" lengthAdjust="spacing" textLength="23" x="330.0099" y="432.0816">1..*</text><!--MD5=[dcee5e80e60e809b62ad9f739f5a6bce]
link FreightNerwork to Location--><path codeLine="75" d="M601.99,347.4 C593.65,371.18 581.09,409.23 573.5,443 C555.81,521.7 544.44,614.58 538.51,671.76 " fill="none" id="FreightNerwork-to-Location" style="stroke:#A80036;stroke-width:1.0;stroke-dasharray:7.0,7.0;"/><polygon fill="#A80036" points="537.99,676.83,542.8949,668.2894,538.5045,671.8565,534.9373,667.4662,537.99,676.83" style="stroke:#A80036;stroke-width:1.0;"/><!--MD5=[eab2f19d57e1be3db1ef5aa37991eccc]
link CreateFreightNetworkController to FreightNerwork--><path codeLine="76" d="M673.59,68.32 C682.13,110.29 692.75,188.53 670.5,250 C664.38,266.92 652.35,282.65 640.66,295.07 " fill="none" id="CreateFreightNetworkController-to-FreightNerwork" style="stroke:#A80036;stroke-width:1.0;stroke-dasharray:7.0,7.0;"/><polygon fill="#A80036" points="637.05,298.81,646.1766,295.1079,640.5207,295.2108,640.4178,289.5549,637.05,298.81" style="stroke:#A80036;stroke-width:1.0;"/><!--MD5=[06fd69c7d39f6c19e2cf04a4859f116b]
link Company to FreightNerwork--><path codeLine="77" d="M543.19,203.01 C539.34,217.93 537.67,235.18 543.5,250 C551,269.07 566.19,286.08 580.21,298.77 " fill="none" id="Company-FreightNerwork" style="stroke:#A80036;stroke-width:1.0;"/><polygon fill="#000000" points="550.3029,246.23,549.7826,236.7337,544.3002,238.8532,550.3029,246.23" style="stroke:#000000;stroke-width:1.0;"/><text fill="#000000" font-family="sans-serif" font-size="13" lengthAdjust="spacing" textLength="23" x="557.5" y="246.0669">has</text><text fill="#000000" font-family="sans-serif" font-size="13" lengthAdjust="spacing" textLength="8" x="532.043" y="222.772">1</text><text fill="#000000" font-family="sans-serif" font-size="13" lengthAdjust="spacing" textLength="8" x="563.8518" y="288.1189">1</text><!--MD5=[869c1d1ce39a2309d7ab0f33bfd6edac]
@startuml

skinparam classAttributeIconSize 0

class CreateFreightNetworkController{
    +createFreightNetworkFromDb()
}

class PortStoreDb{
    +getExistentPorts()
    +getSeaDists()
}

class CountryStoreDb{
    +getExistentCapitals()
    +getCountries()
    +getBorders()
}

class PortStore{
    +getPorts()
    +getPortById()
}

class CountryStore{
    +getExistentCapitals()
    +getCountries()
    +getBorders()
}

class Company {
    -designation
    +getShipTripStoreDB()
}

class Capital{
}

class Country{}

class Port{}

abstract class Location{
    latitude
    longitude
    country
    name
}

class FreightNerwork{}

class MatrixGraph{}

abstract class CommonGraph{}

MatrixGraph ..> CommonGraph
FreightNerwork ..> MatrixGraph
Capital ..> Location
Port ..> Location
CreateFreightNetworkController ..> Company
CreateFreightNetworkController ..> PortStoreDb
Company "1" - - "1" PortStoreDb : uses >
CreateFreightNetworkController ..> CountryStoreDb
Company "1" - - "1" CountryStoreDb : uses >
CreateFreightNetworkController ..> PortStore
Company "1" - - "1" PortStore : uses >
CreateFreightNetworkController ..> CountryStore
Company "1" - - "1" CountryStore : uses >
Country "1" - - "1" Capital : has >
CreateFreightNetworkController ..> Country
CreateFreightNetworkController ..> Port
CountryStore "1" - - "1..*" Country: stores >
PortStore "1" - - "1..*" Port: stores >
Company "1" - - "1..*" Port: uses >
Company "1" - - "1..*" Country: works in >
FreightNerwork ..> Location
CreateFreightNetworkController ..> FreightNerwork
Company "1" - - "1" FreightNerwork : has >

@enduml

PlantUML version 1.2021.11(Sat Oct 02 14:26:11 WEST 2021)
(GPL source distribution)
Java Runtime: OpenJDK Runtime Environment
JVM: OpenJDK 64-Bit Server VM
Default Encoding: UTF-8
Language: en
Country: US
--></g></svg>