<?xml version="1.0" encoding="UTF-8" standalone="no"?><svg xmlns="http://www.w3.org/2000/svg" xmlns:xlink="http://www.w3.org/1999/xlink" contentScriptType="application/ecmascript" contentStyleType="text/css" height="470px" preserveAspectRatio="none" style="width:573px;height:470px;background:#FFFFFF;" version="1.1" viewBox="0 0 573 470" width="573px" zoomAndPan="magnify"><defs><filter height="300%" id="fkhpue02e9cd5" width="300%" x="-1" y="-1"><feGaussianBlur result="blurOut" stdDeviation="2.0"/><feColorMatrix in="blurOut" result="blurOut2" type="matrix" values="0 0 0 0 0 0 0 0 0 0 0 0 0 0 0 0 0 0 .4 0"/><feOffset dx="4.0" dy="4.0" in="blurOut2" result="blurOut3"/><feBlend in="SourceGraphic" in2="blurOut3" mode="normal"/></filter></defs><g><rect fill="#FFFFFF" filter="url(#fkhpue02e9cd5)" height="267.1641" style="stroke:#A80036;stroke-width:1.0;" width="10" x="66" y="99.6094"/><rect fill="#FFFFFF" filter="url(#fkhpue02e9cd5)" height="30.3516" style="stroke:#A80036;stroke-width:1.0;" width="10" x="510" y="121.9609"/><rect fill="#FFFFFF" filter="url(#fkhpue02e9cd5)" height="30.3516" style="stroke:#A80036;stroke-width:1.0;" width="10" x="510" y="182.6641"/><rect fill="#FFFFFF" filter="url(#fkhpue02e9cd5)" height="55.7031" style="stroke:#A80036;stroke-width:1.0;" width="10" x="510" y="243.3672"/><rect fill="#FFFFFF" filter="url(#fkhpue02e9cd5)" height="37.3516" style="stroke:#A80036;stroke-width:1.0;" width="10" x="510" y="329.4219"/><rect fill="#FFFFFF" filter="url(#fkhpue02e9cd5)" height="79.0547" style="stroke:#000000;stroke-width:2.0;" width="549" x="10" y="258.3672"/><line style="stroke:#A80036;stroke-width:1.0;stroke-dasharray:5.0,5.0;" x1="71" x2="71" y1="89.6094" y2="384.7734"/><line style="stroke:#A80036;stroke-width:1.0;stroke-dasharray:5.0,5.0;" x1="515" x2="515" y1="89.6094" y2="384.7734"/><text fill="#000000" font-family="sans-serif" font-size="14" lengthAdjust="spacing" textLength="96" x="20" y="86.5332">TrafficManager</text><ellipse cx="71" cy="15" fill="#FEFECE" filter="url(#fkhpue02e9cd5)" rx="8" ry="8" style="stroke:#A80036;stroke-width:2.0;"/><path d="M71,23 L71,50 M58,31 L84,31 M71,50 L58,65 M71,50 L84,65 " fill="none" filter="url(#fkhpue02e9cd5)" style="stroke:#A80036;stroke-width:2.0;"/><text fill="#000000" font-family="sans-serif" font-size="14" lengthAdjust="spacing" textLength="96" x="20" y="398.3066">TrafficManager</text><ellipse cx="71" cy="411.3828" fill="#FEFECE" filter="url(#fkhpue02e9cd5)" rx="8" ry="8" style="stroke:#A80036;stroke-width:2.0;"/><path d="M71,419.3828 L71,446.3828 M58,427.3828 L84,427.3828 M71,446.3828 L58,461.3828 M71,446.3828 L84,461.3828 " fill="none" filter="url(#fkhpue02e9cd5)" style="stroke:#A80036;stroke-width:2.0;"/><rect fill="#FEFECE" filter="url(#fkhpue02e9cd5)" height="31.6094" style="stroke:#A80036;stroke-width:1.5;" width="64" x="481" y="53"/><text fill="#000000" font-family="sans-serif" font-size="14" lengthAdjust="spacing" textLength="50" x="488" y="74.5332">:System</text><rect fill="#FEFECE" filter="url(#fkhpue02e9cd5)" height="31.6094" style="stroke:#A80036;stroke-width:1.5;" width="64" x="481" y="383.7734"/><text fill="#000000" font-family="sans-serif" font-size="14" lengthAdjust="spacing" textLength="50" x="488" y="405.3066">:System</text><rect fill="#FFFFFF" filter="url(#fkhpue02e9cd5)" height="267.1641" style="stroke:#A80036;stroke-width:1.0;" width="10" x="66" y="99.6094"/><rect fill="#FFFFFF" filter="url(#fkhpue02e9cd5)" height="30.3516" style="stroke:#A80036;stroke-width:1.0;" width="10" x="510" y="121.9609"/><rect fill="#FFFFFF" filter="url(#fkhpue02e9cd5)" height="30.3516" style="stroke:#A80036;stroke-width:1.0;" width="10" x="510" y="182.6641"/><rect fill="#FFFFFF" filter="url(#fkhpue02e9cd5)" height="55.7031" style="stroke:#A80036;stroke-width:1.0;" width="10" x="510" y="243.3672"/><rect fill="#FFFFFF" filter="url(#fkhpue02e9cd5)" height="37.3516" style="stroke:#A80036;stroke-width:1.0;" width="10" x="510" y="329.4219"/><polygon fill="#A80036" points="498,117.9609,508,121.9609,498,125.9609,502,121.9609" style="stroke:#A80036;stroke-width:1.0;"/><line style="stroke:#A80036;stroke-width:1.0;" x1="76" x2="504" y1="121.9609" y2="121.9609"/><text fill="#000000" font-family="sans-serif" font-size="13" font-weight="bold" lengthAdjust="spacing" textLength="7" x="83" y="117.1045">1</text><text fill="#000000" font-family="sans-serif" font-size="13" lengthAdjust="spacing" textLength="404" x="94" y="117.1045">asks to obtain the positional messages temporally organized of a ship</text><polygon fill="#A80036" points="87,148.3125,77,152.3125,87,156.3125,83,152.3125" style="stroke:#A80036;stroke-width:1.0;"/><line style="stroke:#A80036;stroke-width:1.0;stroke-dasharray:2.0,2.0;" x1="81" x2="514" y1="152.3125" y2="152.3125"/><text fill="#000000" font-family="sans-serif" font-size="13" font-weight="bold" lengthAdjust="spacing" textLength="7" x="93" y="147.4561">2</text><text fill="#000000" font-family="sans-serif" font-size="13" lengthAdjust="spacing" textLength="179" x="104" y="147.4561">requests the ship's MMSI code</text><polygon fill="#A80036" points="498,178.6641,508,182.6641,498,186.6641,502,182.6641" style="stroke:#A80036;stroke-width:1.0;"/><line style="stroke:#A80036;stroke-width:1.0;" x1="76" x2="504" y1="182.6641" y2="182.6641"/><text fill="#000000" font-family="sans-serif" font-size="13" font-weight="bold" lengthAdjust="spacing" textLength="7" x="83" y="177.8076">3</text><text fill="#000000" font-family="sans-serif" font-size="13" lengthAdjust="spacing" textLength="124" x="94" y="177.8076">types the MMSI code</text><polygon fill="#A80036" points="87,209.0156,77,213.0156,87,217.0156,83,213.0156" style="stroke:#A80036;stroke-width:1.0;"/><line style="stroke:#A80036;stroke-width:1.0;stroke-dasharray:2.0,2.0;" x1="81" x2="514" y1="213.0156" y2="213.0156"/><text fill="#000000" font-family="sans-serif" font-size="13" font-weight="bold" lengthAdjust="spacing" textLength="7" x="93" y="208.1592">4</text><text fill="#000000" font-family="sans-serif" font-size="13" lengthAdjust="spacing" textLength="235" x="104" y="208.1592">requests initial date of the ship's position</text><polygon fill="#A80036" points="498,239.3672,508,243.3672,498,247.3672,502,243.3672" style="stroke:#A80036;stroke-width:1.0;"/><line style="stroke:#A80036;stroke-width:1.0;" x1="76" x2="504" y1="243.3672" y2="243.3672"/><text fill="#000000" font-family="sans-serif" font-size="13" font-weight="bold" lengthAdjust="spacing" textLength="7" x="83" y="238.5107">5</text><text fill="#000000" font-family="sans-serif" font-size="13" lengthAdjust="spacing" textLength="95" x="94" y="238.5107">types initial date</text><path d="M10,258.3672 L71,258.3672 L71,266.3672 L61,276.3672 L10,276.3672 L10,258.3672 " fill="#EEEEEE" style="stroke:#000000;stroke-width:1.0;"/><rect fill="none" height="79.0547" style="stroke:#000000;stroke-width:2.0;" width="549" x="10" y="258.3672"/><text fill="#000000" font-family="sans-serif" font-size="13" font-weight="bold" lengthAdjust="spacing" textLength="16" x="25" y="272.8623">alt</text><text fill="#000000" font-family="sans-serif" font-size="11" font-weight="bold" lengthAdjust="spacing" textLength="179" x="86" y="271.7861">[the user wants data in a period]</text><polygon fill="#A80036" points="87,295.0703,77,299.0703,87,303.0703,83,299.0703" style="stroke:#A80036;stroke-width:1.0;"/><line style="stroke:#A80036;stroke-width:1.0;stroke-dasharray:2.0,2.0;" x1="81" x2="514" y1="299.0703" y2="299.0703"/><text fill="#000000" font-family="sans-serif" font-size="13" font-weight="bold" lengthAdjust="spacing" textLength="7" x="93" y="294.2139">6</text><text fill="#000000" font-family="sans-serif" font-size="13" lengthAdjust="spacing" textLength="228" x="104" y="294.2139">requests final date of the ship's position</text><polygon fill="#A80036" points="498,325.4219,508,329.4219,498,333.4219,502,329.4219" style="stroke:#A80036;stroke-width:1.0;"/><line style="stroke:#A80036;stroke-width:1.0;" x1="76" x2="504" y1="329.4219" y2="329.4219"/><text fill="#000000" font-family="sans-serif" font-size="13" font-weight="bold" lengthAdjust="spacing" textLength="7" x="83" y="324.5654">7</text><text fill="#000000" font-family="sans-serif" font-size="13" lengthAdjust="spacing" textLength="110" x="94" y="324.5654">types the final date</text><polygon fill="#A80036" points="82,362.7734,72,366.7734,82,370.7734,78,366.7734" style="stroke:#A80036;stroke-width:1.0;"/><line style="stroke:#A80036;stroke-width:1.0;stroke-dasharray:2.0,2.0;" x1="76" x2="514" y1="366.7734" y2="366.7734"/><text fill="#000000" font-family="sans-serif" font-size="13" font-weight="bold" lengthAdjust="spacing" textLength="7" x="88" y="361.917">8</text><text fill="#000000" font-family="sans-serif" font-size="13" lengthAdjust="spacing" textLength="208" x="99" y="361.917">displays ship's positional messages</text><!--MD5=[845578caac06ada41daf95408800e1af]
@startuml

autonumber
actor TrafficManager as TM

activate TM
TM -> ":System" : asks to obtain the positional messages temporally organized of a ship
activate ":System"
":System" - -> TM : requests the ship's MMSI code
deactivate ":System"
TM -> ":System" : types the MMSI code
activate ":System"
":System" - -> TM : requests initial date of the ship's position
deactivate ":System"
TM -> ":System" : types initial date
activate ":System"
alt the user wants data in a period
":System" - -> TM : requests final date of the ship's position
deactivate ":System"
TM -> ":System" : types the final date
activate ":System"
end
":System" - -> TM : displays ship's positional messages
deactivate ":System"

deactivate TM

@enduml

PlantUML version 1.2021.11(Sat Oct 02 14:26:11 BST 2021)
(GPL source distribution)
Java Runtime: OpenJDK Runtime Environment
JVM: OpenJDK 64-Bit Server VM
Default Encoding: Cp1252
Language: pt
Country: PT
--></g></svg>