<?xml version="1.0" encoding="UTF-8" standalone="no"?><svg xmlns="http://www.w3.org/2000/svg" xmlns:xlink="http://www.w3.org/1999/xlink" contentScriptType="application/ecmascript" contentStyleType="text/css" height="316px" preserveAspectRatio="none" style="width:501px;height:316px;background:#FFFFFF;" version="1.1" viewBox="0 0 501 316" width="501px" zoomAndPan="magnify"><defs><filter height="300%" id="f1p638ojiy1k5t" width="300%" x="-1" y="-1"><feGaussianBlur result="blurOut" stdDeviation="2.0"/><feColorMatrix in="blurOut" result="blurOut2" type="matrix" values="0 0 0 0 0 0 0 0 0 0 0 0 0 0 0 0 0 0 .4 0"/><feOffset dx="4.0" dy="4.0" in="blurOut2" result="blurOut3"/><feBlend in="SourceGraphic" in2="blurOut3" mode="normal"/></filter></defs><g><rect fill="#FFFFFF" filter="url(#f1p638ojiy1k5t)" height="113.4063" style="stroke:#A80036;stroke-width:1.0;" width="10" x="51" y="99.6094"/><rect fill="#FFFFFF" filter="url(#f1p638ojiy1k5t)" height="91.0547" style="stroke:#A80036;stroke-width:1.0;" width="10" x="452" y="121.9609"/><line style="stroke:#A80036;stroke-width:1.0;stroke-dasharray:5.0,5.0;" x1="56" x2="56" y1="89.6094" y2="231.0156"/><line style="stroke:#A80036;stroke-width:1.0;stroke-dasharray:5.0,5.0;" x1="457" x2="457" y1="89.6094" y2="231.0156"/><text fill="#000000" font-family="sans-serif" font-size="14" lengthAdjust="spacing" textLength="96" x="5" y="86.5332">TrafficManager</text><ellipse cx="56" cy="15" fill="#FEFECE" filter="url(#f1p638ojiy1k5t)" rx="8" ry="8" style="stroke:#A80036;stroke-width:2.0;"/><path d="M56,23 L56,50 M43,31 L69,31 M56,50 L43,65 M56,50 L69,65 " fill="none" filter="url(#f1p638ojiy1k5t)" style="stroke:#A80036;stroke-width:2.0;"/><text fill="#000000" font-family="sans-serif" font-size="14" lengthAdjust="spacing" textLength="96" x="5" y="244.5488">TrafficManager</text><ellipse cx="56" cy="257.625" fill="#FEFECE" filter="url(#f1p638ojiy1k5t)" rx="8" ry="8" style="stroke:#A80036;stroke-width:2.0;"/><path d="M56,265.625 L56,292.625 M43,273.625 L69,273.625 M56,292.625 L43,307.625 M56,292.625 L69,307.625 " fill="none" filter="url(#f1p638ojiy1k5t)" style="stroke:#A80036;stroke-width:2.0;"/><rect fill="#FEFECE" filter="url(#f1p638ojiy1k5t)" height="31.6094" style="stroke:#A80036;stroke-width:1.5;" width="64" x="423" y="53"/><text fill="#000000" font-family="sans-serif" font-size="14" lengthAdjust="spacing" textLength="50" x="430" y="74.5332">:System</text><rect fill="#FEFECE" filter="url(#f1p638ojiy1k5t)" height="31.6094" style="stroke:#A80036;stroke-width:1.5;" width="64" x="423" y="230.0156"/><text fill="#000000" font-family="sans-serif" font-size="14" lengthAdjust="spacing" textLength="50" x="430" y="251.5488">:System</text><rect fill="#FFFFFF" filter="url(#f1p638ojiy1k5t)" height="113.4063" style="stroke:#A80036;stroke-width:1.0;" width="10" x="51" y="99.6094"/><rect fill="#FFFFFF" filter="url(#f1p638ojiy1k5t)" height="91.0547" style="stroke:#A80036;stroke-width:1.0;" width="10" x="452" y="121.9609"/><polygon fill="#A80036" points="440,117.9609,450,121.9609,440,125.9609,444,121.9609" style="stroke:#A80036;stroke-width:1.0;"/><line style="stroke:#A80036;stroke-width:1.0;" x1="61" x2="446" y1="121.9609" y2="121.9609"/><text fill="#000000" font-family="sans-serif" font-size="13" font-weight="bold" lengthAdjust="spacing" textLength="7" x="68" y="117.1045">1</text><text fill="#000000" font-family="sans-serif" font-size="13" lengthAdjust="spacing" textLength="361" x="79" y="117.1045">asks for the shortest path between two locals (city and/or port)</text><polygon fill="#A80036" points="72,148.3125,62,152.3125,72,156.3125,68,152.3125" style="stroke:#A80036;stroke-width:1.0;"/><line style="stroke:#A80036;stroke-width:1.0;stroke-dasharray:2.0,2.0;" x1="66" x2="451" y1="152.3125" y2="152.3125"/><text fill="#000000" font-family="sans-serif" font-size="13" font-weight="bold" lengthAdjust="spacing" textLength="7" x="78" y="147.4561">2</text><text fill="#000000" font-family="sans-serif" font-size="13" lengthAdjust="spacing" textLength="180" x="89" y="147.4561">asks for data(i.e.,beg,end,path)</text><polygon fill="#A80036" points="440,178.6641,450,182.6641,440,186.6641,444,182.6641" style="stroke:#A80036;stroke-width:1.0;"/><line style="stroke:#A80036;stroke-width:1.0;" x1="61" x2="446" y1="182.6641" y2="182.6641"/><text fill="#000000" font-family="sans-serif" font-size="13" font-weight="bold" lengthAdjust="spacing" textLength="7" x="68" y="177.8076">3</text><text fill="#000000" font-family="sans-serif" font-size="13" lengthAdjust="spacing" textLength="114" x="79" y="177.8076">inserts needed data</text><polygon fill="#A80036" points="67,209.0156,57,213.0156,67,217.0156,63,213.0156" style="stroke:#A80036;stroke-width:1.0;"/><line style="stroke:#A80036;stroke-width:1.0;stroke-dasharray:2.0,2.0;" x1="61" x2="456" y1="213.0156" y2="213.0156"/><text fill="#000000" font-family="sans-serif" font-size="13" font-weight="bold" lengthAdjust="spacing" textLength="7" x="73" y="208.1592">4</text><text fill="#000000" font-family="sans-serif" font-size="13" lengthAdjust="spacing" textLength="142" x="84" y="208.1592">returns the shortest path</text><!--MD5=[f155f9a96ad2f1e511de77ddc0354642]
@startuml
autonumber
actor TrafficManager as C

activate C
C -> ":System" : asks for the shortest path between two locals (city and/or port)
activate ":System"
":System" - -> C : asks for data(i.e.,beg,end,path)
C-> ":System" : inserts needed data
":System" - -> C : returns the shortest path
deactivate ":System"

deactivate C
@enduml

PlantUML version 1.2021.11(Sat Oct 02 14:26:11 BST 2021)
(GPL source distribution)
Java Runtime: OpenJDK Runtime Environment
JVM: OpenJDK 64-Bit Server VM
Default Encoding: Cp1252
Language: pt
Country: PT
--></g></svg>