<?xml version="1.0" encoding="UTF-8" standalone="no"?><svg xmlns="http://www.w3.org/2000/svg" xmlns:xlink="http://www.w3.org/1999/xlink" contentScriptType="application/ecmascript" contentStyleType="text/css" height="705px" preserveAspectRatio="none" style="width:431px;height:705px;background:#FFFFFF;" version="1.1" viewBox="0 0 431 705" width="431px" zoomAndPan="magnify"><defs><filter height="300%" id="fw7tn1aa3kerw" width="300%" x="-1" y="-1"><feGaussianBlur result="blurOut" stdDeviation="2.0"/><feColorMatrix in="blurOut" result="blurOut2" type="matrix" values="0 0 0 0 0 0 0 0 0 0 0 0 0 0 0 0 0 0 .4 0"/><feOffset dx="4.0" dy="4.0" in="blurOut2" result="blurOut3"/><feBlend in="SourceGraphic" in2="blurOut3" mode="normal"/></filter></defs><g><!--MD5=[9b4d6350505f0ccf5a42f8153c75860f]
class ShortestPathController--><rect codeLine="4" fill="#FEFECE" filter="url(#fw7tn1aa3kerw)" height="103.3438" id="ShortestPathController" style="stroke:#A80036;stroke-width:1.5;" width="197" x="171.5" y="7"/><ellipse cx="204.5" cy="23" fill="#ADD1B2" rx="11" ry="11" style="stroke:#A80036;stroke-width:1.0;"/><path d="M206.5,19.5 Q206.7031,19 206.9375,18.75 Q207.1719,18.5 207.4375,18.5 Q207.9063,18.5 208.2031,18.7813 Q208.5,19.0625 208.5,19.7188 L208.5,21.2813 Q208.5,21.9375 208.2188,22.2188 Q207.9375,22.5 207.5,22.5 Q207.1094,22.5 206.8594,22.3281 Q206.6094,22.1563 206.5,21.7031 Q206.4531,21.3906 206.2813,21.2188 Q205.9688,20.8906 205.4063,20.7031 Q204.8438,20.5 204.2813,20.5 Q203.5781,20.5 202.9844,20.7813 Q202.4063,21.0625 201.9531,21.6875 Q201.5,22.3125 201.5,23.1719 L201.5,24.0938 Q201.5,25.125 202.3438,25.8125 Q203.1875,26.5 204.6875,26.5 Q205.5781,26.5 206.2031,26.2969 Q206.5625,26.1875 206.9688,25.8281 Q207.2344,25.625 207.375,25.5625 Q207.5156,25.5 207.6875,25.5 Q208.0156,25.5 208.25,25.7656 Q208.5,26.0156 208.5,26.375 Q208.5,26.7188 208.1563,27.125 Q207.6563,27.7188 206.8594,28.0469 Q205.8125,28.5 204.5313,28.5 Q203.0313,28.5 201.8281,27.9063 Q200.8594,27.4375 200.1719,26.4219 Q199.5,25.4063 199.5,24.2031 L199.5,23.1094 Q199.5,21.8594 200.0938,20.7656 Q200.7031,19.6719 201.75,19.0938 Q202.8125,18.5 204,18.5 Q204.7188,18.5 205.3438,18.75 Q205.9688,19 206.5,19.5 Z " fill="#000000"/><text fill="#000000" font-family="sans-serif" font-size="12" lengthAdjust="spacing" textLength="125" x="222.5" y="27.9102">ShortestPathController</text><line style="stroke:#A80036;stroke-width:1.5;" x1="172.5" x2="367.5" y1="39" y2="39"/><line style="stroke:#A80036;stroke-width:1.5;" x1="172.5" x2="367.5" y1="47" y2="47"/><text fill="#000000" font-family="sans-serif" font-size="11" lengthAdjust="spacing" textLength="154" x="177.5" y="62.4189">+getShortestPath(beg,end,path)</text><text fill="#000000" font-family="sans-serif" font-size="11" lengthAdjust="spacing" textLength="154" x="177.5" y="76.2549">+getShortestLandPath(beg,end)</text><text fill="#000000" font-family="sans-serif" font-size="11" lengthAdjust="spacing" textLength="169" x="177.5" y="90.0908">+getShortestMaritimePath(beg,end)</text><text fill="#000000" font-family="sans-serif" font-size="11" lengthAdjust="spacing" textLength="185" x="177.5" y="103.9268">+getShortestLandOrSeaPath(beg,end)</text><!--MD5=[02e4b9b7573f1156f41e60aa5b4e25a4]
class Company--><rect codeLine="11" fill="#FEFECE" filter="url(#fw7tn1aa3kerw)" height="75.6719" id="Company" style="stroke:#A80036;stroke-width:1.5;" width="115" x="212.5" y="171"/><ellipse cx="241" cy="187" fill="#ADD1B2" rx="11" ry="11" style="stroke:#A80036;stroke-width:1.0;"/><path d="M243,183.5 Q243.2031,183 243.4375,182.75 Q243.6719,182.5 243.9375,182.5 Q244.4063,182.5 244.7031,182.7813 Q245,183.0625 245,183.7188 L245,185.2813 Q245,185.9375 244.7188,186.2188 Q244.4375,186.5 244,186.5 Q243.6094,186.5 243.3594,186.3281 Q243.1094,186.1563 243,185.7031 Q242.9531,185.3906 242.7813,185.2188 Q242.4688,184.8906 241.9063,184.7031 Q241.3438,184.5 240.7813,184.5 Q240.0781,184.5 239.4844,184.7813 Q238.9063,185.0625 238.4531,185.6875 Q238,186.3125 238,187.1719 L238,188.0938 Q238,189.125 238.8438,189.8125 Q239.6875,190.5 241.1875,190.5 Q242.0781,190.5 242.7031,190.2969 Q243.0625,190.1875 243.4688,189.8281 Q243.7344,189.625 243.875,189.5625 Q244.0156,189.5 244.1875,189.5 Q244.5156,189.5 244.75,189.7656 Q245,190.0156 245,190.375 Q245,190.7188 244.6563,191.125 Q244.1563,191.7188 243.3594,192.0469 Q242.3125,192.5 241.0313,192.5 Q239.5313,192.5 238.3281,191.9063 Q237.3594,191.4375 236.6719,190.4219 Q236,189.4063 236,188.2031 L236,187.1094 Q236,185.8594 236.5938,184.7656 Q237.2031,183.6719 238.25,183.0938 Q239.3125,182.5 240.5,182.5 Q241.2188,182.5 241.8438,182.75 Q242.4688,183 243,183.5 Z " fill="#000000"/><text fill="#000000" font-family="sans-serif" font-size="12" lengthAdjust="spacing" textLength="53" x="258" y="191.9102">Company</text><line style="stroke:#A80036;stroke-width:1.5;" x1="213.5" x2="326.5" y1="203" y2="203"/><text fill="#000000" font-family="sans-serif" font-size="11" lengthAdjust="spacing" textLength="59" x="218.5" y="218.4189">-designation</text><line style="stroke:#A80036;stroke-width:1.5;" x1="213.5" x2="326.5" y1="224.8359" y2="224.8359"/><text fill="#000000" font-family="sans-serif" font-size="11" lengthAdjust="spacing" textLength="103" x="218.5" y="240.2549">+getFreightNetwork()</text><!--MD5=[074ba6ad47b234bd73d65012320c1634]
class FreightNetwork--><rect codeLine="16" fill="#FEFECE" filter="url(#fw7tn1aa3kerw)" height="61.8359" id="FreightNetwork" style="stroke:#A80036;stroke-width:1.5;" width="160" x="190" y="325"/><ellipse cx="225.25" cy="341" fill="#ADD1B2" rx="11" ry="11" style="stroke:#A80036;stroke-width:1.0;"/><path d="M227.25,337.5 Q227.4531,337 227.6875,336.75 Q227.9219,336.5 228.1875,336.5 Q228.6563,336.5 228.9531,336.7813 Q229.25,337.0625 229.25,337.7188 L229.25,339.2813 Q229.25,339.9375 228.9688,340.2188 Q228.6875,340.5 228.25,340.5 Q227.8594,340.5 227.6094,340.3281 Q227.3594,340.1563 227.25,339.7031 Q227.2031,339.3906 227.0313,339.2188 Q226.7188,338.8906 226.1563,338.7031 Q225.5938,338.5 225.0313,338.5 Q224.3281,338.5 223.7344,338.7813 Q223.1563,339.0625 222.7031,339.6875 Q222.25,340.3125 222.25,341.1719 L222.25,342.0938 Q222.25,343.125 223.0938,343.8125 Q223.9375,344.5 225.4375,344.5 Q226.3281,344.5 226.9531,344.2969 Q227.3125,344.1875 227.7188,343.8281 Q227.9844,343.625 228.125,343.5625 Q228.2656,343.5 228.4375,343.5 Q228.7656,343.5 229,343.7656 Q229.25,344.0156 229.25,344.375 Q229.25,344.7188 228.9063,345.125 Q228.4063,345.7188 227.6094,346.0469 Q226.5625,346.5 225.2813,346.5 Q223.7813,346.5 222.5781,345.9063 Q221.6094,345.4375 220.9219,344.4219 Q220.25,343.4063 220.25,342.2031 L220.25,341.1094 Q220.25,339.8594 220.8438,338.7656 Q221.4531,337.6719 222.5,337.0938 Q223.5625,336.5 224.75,336.5 Q225.4688,336.5 226.0938,336.75 Q226.7188,337 227.25,337.5 Z " fill="#000000"/><text fill="#000000" font-family="sans-serif" font-size="12" lengthAdjust="spacing" textLength="83" x="243.75" y="345.9102">FreightNetwork</text><line style="stroke:#A80036;stroke-width:1.5;" x1="191" x2="349" y1="357" y2="357"/><line style="stroke:#A80036;stroke-width:1.5;" x1="191" x2="349" y1="365" y2="365"/><text fill="#000000" font-family="sans-serif" font-size="11" lengthAdjust="spacing" textLength="148" x="196" y="380.4189">+getShortestPath(net,beg,end)</text><!--MD5=[4f1f3706c1a355a8488e154afcaed5df]
class Location--><rect codeLine="20" fill="#FEFECE" filter="url(#fw7tn1aa3kerw)" height="75.6719" id="Location" style="stroke:#A80036;stroke-width:1.5;" width="79" x="292.5" y="465"/><ellipse cx="307.5" cy="481" fill="#A9DCDF" rx="11" ry="11" style="stroke:#A80036;stroke-width:1.0;"/><path d="M309.25,482.5 L305.9531,482.5 L305.5156,483.5 L305.5156,483.5 L305.9844,483.5 L306.5,484.125 L306.5,484.5 L306.5,484.875 L305.9844,485.5 L305.5156,485.5 L303.625,485.5 L303.0156,485.5 L302.5,484.875 L302.5,484.5 L302.5,484.125 L303.0156,483.5 L303.625,483.5 L305.9375,477.5 L305.0625,477.5 L304.0156,477.5 L303.5,476.875 L303.5,476.5 L303.5,476.125 L304.0156,475.5 L305.0625,475.5 L308.7344,475.5 L311.4219,483.5 L311.9844,483.5 L311.9844,483.5 L312.5,484.125 L312.5,484.5 L312.5,484.875 L311.9844,485.5 L311.4219,485.5 L309.5313,485.5 L309.0156,485.5 L308.5,484.875 L308.5,484.5 L308.5,484.125 L309.0156,483.5 L309.5313,483.5 L309.5313,483.5 L309.25,482.5 Z M308.7031,480.5 L307.5,476.9219 L306.4688,480.5 L308.7031,480.5 Z " fill="#000000"/><text fill="#000000" font-family="sans-serif" font-size="12" font-style="italic" lengthAdjust="spacing" textLength="47" x="321.5" y="485.9102">Location</text><line style="stroke:#A80036;stroke-width:1.5;" x1="293.5" x2="370.5" y1="497" y2="497"/><text fill="#000000" font-family="sans-serif" font-size="11" lengthAdjust="spacing" textLength="38" x="298.5" y="512.4189">-latitude</text><text fill="#000000" font-family="sans-serif" font-size="11" lengthAdjust="spacing" textLength="47" x="298.5" y="526.2549">-longitude</text><line style="stroke:#A80036;stroke-width:1.5;" x1="293.5" x2="370.5" y1="532.6719" y2="532.6719"/><!--MD5=[a0bfe97ac0a38e6e74cc1c7c7b744b71]
class Port--><rect codeLine="25" fill="#FEFECE" filter="url(#fw7tn1aa3kerw)" height="89.5078" id="Port" style="stroke:#A80036;stroke-width:1.5;" width="59" x="252.5" y="602"/><ellipse cx="269.75" cy="618" fill="#ADD1B2" rx="11" ry="11" style="stroke:#A80036;stroke-width:1.0;"/><path d="M271.75,614.5 Q271.9531,614 272.1875,613.75 Q272.4219,613.5 272.6875,613.5 Q273.1563,613.5 273.4531,613.7813 Q273.75,614.0625 273.75,614.7188 L273.75,616.2813 Q273.75,616.9375 273.4688,617.2188 Q273.1875,617.5 272.75,617.5 Q272.3594,617.5 272.1094,617.3281 Q271.8594,617.1563 271.75,616.7031 Q271.7031,616.3906 271.5313,616.2188 Q271.2188,615.8906 270.6563,615.7031 Q270.0938,615.5 269.5313,615.5 Q268.8281,615.5 268.2344,615.7813 Q267.6563,616.0625 267.2031,616.6875 Q266.75,617.3125 266.75,618.1719 L266.75,619.0938 Q266.75,620.125 267.5938,620.8125 Q268.4375,621.5 269.9375,621.5 Q270.8281,621.5 271.4531,621.2969 Q271.8125,621.1875 272.2188,620.8281 Q272.4844,620.625 272.625,620.5625 Q272.7656,620.5 272.9375,620.5 Q273.2656,620.5 273.5,620.7656 Q273.75,621.0156 273.75,621.375 Q273.75,621.7188 273.4063,622.125 Q272.9063,622.7188 272.1094,623.0469 Q271.0625,623.5 269.7813,623.5 Q268.2813,623.5 267.0781,622.9063 Q266.1094,622.4375 265.4219,621.4219 Q264.75,620.4063 264.75,619.2031 L264.75,618.1094 Q264.75,616.8594 265.3438,615.7656 Q265.9531,614.6719 267,614.0938 Q268.0625,613.5 269.25,613.5 Q269.9688,613.5 270.5938,613.75 Q271.2188,614 271.75,614.5 Z " fill="#000000"/><text fill="#000000" font-family="sans-serif" font-size="12" lengthAdjust="spacing" textLength="22" x="284.25" y="622.9102">Port</text><line style="stroke:#A80036;stroke-width:1.5;" x1="253.5" x2="310.5" y1="634" y2="634"/><text fill="#000000" font-family="sans-serif" font-size="11" lengthAdjust="spacing" textLength="30" x="258.5" y="649.4189">-name</text><text fill="#000000" font-family="sans-serif" font-size="11" lengthAdjust="spacing" textLength="38" x="258.5" y="663.2549">-latitude</text><text fill="#000000" font-family="sans-serif" font-size="11" lengthAdjust="spacing" textLength="47" x="258.5" y="677.0908">-longitude</text><line style="stroke:#A80036;stroke-width:1.5;" x1="253.5" x2="310.5" y1="683.5078" y2="683.5078"/><!--MD5=[ea8f20dfdca176213da526d9b557babf]
class Capital--><rect codeLine="31" fill="#FEFECE" filter="url(#fw7tn1aa3kerw)" height="89.5078" id="Capital" style="stroke:#A80036;stroke-width:1.5;" width="71" x="346.5" y="602"/><ellipse cx="361.5" cy="618" fill="#ADD1B2" rx="11" ry="11" style="stroke:#A80036;stroke-width:1.0;"/><path d="M363.5,614.5 Q363.7031,614 363.9375,613.75 Q364.1719,613.5 364.4375,613.5 Q364.9063,613.5 365.2031,613.7813 Q365.5,614.0625 365.5,614.7188 L365.5,616.2813 Q365.5,616.9375 365.2188,617.2188 Q364.9375,617.5 364.5,617.5 Q364.1094,617.5 363.8594,617.3281 Q363.6094,617.1563 363.5,616.7031 Q363.4531,616.3906 363.2813,616.2188 Q362.9688,615.8906 362.4063,615.7031 Q361.8438,615.5 361.2813,615.5 Q360.5781,615.5 359.9844,615.7813 Q359.4063,616.0625 358.9531,616.6875 Q358.5,617.3125 358.5,618.1719 L358.5,619.0938 Q358.5,620.125 359.3438,620.8125 Q360.1875,621.5 361.6875,621.5 Q362.5781,621.5 363.2031,621.2969 Q363.5625,621.1875 363.9688,620.8281 Q364.2344,620.625 364.375,620.5625 Q364.5156,620.5 364.6875,620.5 Q365.0156,620.5 365.25,620.7656 Q365.5,621.0156 365.5,621.375 Q365.5,621.7188 365.1563,622.125 Q364.6563,622.7188 363.8594,623.0469 Q362.8125,623.5 361.5313,623.5 Q360.0313,623.5 358.8281,622.9063 Q357.8594,622.4375 357.1719,621.4219 Q356.5,620.4063 356.5,619.2031 L356.5,618.1094 Q356.5,616.8594 357.0938,615.7656 Q357.7031,614.6719 358.75,614.0938 Q359.8125,613.5 361,613.5 Q361.7188,613.5 362.3438,613.75 Q362.9688,614 363.5,614.5 Z " fill="#000000"/><text fill="#000000" font-family="sans-serif" font-size="12" lengthAdjust="spacing" textLength="39" x="375.5" y="622.9102">Capital</text><line style="stroke:#A80036;stroke-width:1.5;" x1="347.5" x2="416.5" y1="634" y2="634"/><text fill="#000000" font-family="sans-serif" font-size="11" lengthAdjust="spacing" textLength="30" x="352.5" y="649.4189">-name</text><text fill="#000000" font-family="sans-serif" font-size="11" lengthAdjust="spacing" textLength="38" x="352.5" y="663.2549">-latitude</text><text fill="#000000" font-family="sans-serif" font-size="11" lengthAdjust="spacing" textLength="47" x="352.5" y="677.0908">-longitude</text><line style="stroke:#A80036;stroke-width:1.5;" x1="347.5" x2="416.5" y1="683.5078" y2="683.5078"/><!--MD5=[b7b072196a724e538165319251b4d539]
class MatrixGraph--><rect codeLine="37" fill="#FEFECE" filter="url(#fw7tn1aa3kerw)" height="48" id="MatrixGraph" style="stroke:#A80036;stroke-width:1.5;" width="97" x="160.5" y="479"/><ellipse cx="175.5" cy="495" fill="#ADD1B2" rx="11" ry="11" style="stroke:#A80036;stroke-width:1.0;"/><path d="M177.5,491.5 Q177.7031,491 177.9375,490.75 Q178.1719,490.5 178.4375,490.5 Q178.9063,490.5 179.2031,490.7813 Q179.5,491.0625 179.5,491.7188 L179.5,493.2813 Q179.5,493.9375 179.2188,494.2188 Q178.9375,494.5 178.5,494.5 Q178.1094,494.5 177.8594,494.3281 Q177.6094,494.1563 177.5,493.7031 Q177.4531,493.3906 177.2813,493.2188 Q176.9688,492.8906 176.4063,492.7031 Q175.8438,492.5 175.2813,492.5 Q174.5781,492.5 173.9844,492.7813 Q173.4063,493.0625 172.9531,493.6875 Q172.5,494.3125 172.5,495.1719 L172.5,496.0938 Q172.5,497.125 173.3438,497.8125 Q174.1875,498.5 175.6875,498.5 Q176.5781,498.5 177.2031,498.2969 Q177.5625,498.1875 177.9688,497.8281 Q178.2344,497.625 178.375,497.5625 Q178.5156,497.5 178.6875,497.5 Q179.0156,497.5 179.25,497.7656 Q179.5,498.0156 179.5,498.375 Q179.5,498.7188 179.1563,499.125 Q178.6563,499.7188 177.8594,500.0469 Q176.8125,500.5 175.5313,500.5 Q174.0313,500.5 172.8281,499.9063 Q171.8594,499.4375 171.1719,498.4219 Q170.5,497.4063 170.5,496.2031 L170.5,495.1094 Q170.5,493.8594 171.0938,492.7656 Q171.7031,491.6719 172.75,491.0938 Q173.8125,490.5 175,490.5 Q175.7188,490.5 176.3438,490.75 Q176.9688,491 177.5,491.5 Z " fill="#000000"/><text fill="#000000" font-family="sans-serif" font-size="12" lengthAdjust="spacing" textLength="65" x="189.5" y="499.9102">MatrixGraph</text><line style="stroke:#A80036;stroke-width:1.5;" x1="161.5" x2="256.5" y1="511" y2="511"/><line style="stroke:#A80036;stroke-width:1.5;" x1="161.5" x2="256.5" y1="519" y2="519"/><!--MD5=[ef63e85e32976ed6c3ca2a05ce10893d]
class CommonGraph--><rect codeLine="39" fill="#FEFECE" filter="url(#fw7tn1aa3kerw)" height="48" id="CommonGraph" style="stroke:#A80036;stroke-width:1.5;" width="118" x="7" y="479"/><ellipse cx="22" cy="495" fill="#A9DCDF" rx="11" ry="11" style="stroke:#A80036;stroke-width:1.0;"/><path d="M23.75,496.5 L20.4531,496.5 L20.0156,497.5 L20.0156,497.5 L20.4844,497.5 L21,498.125 L21,498.5 L21,498.875 L20.4844,499.5 L20.0156,499.5 L18.125,499.5 L17.5156,499.5 L17,498.875 L17,498.5 L17,498.125 L17.5156,497.5 L18.125,497.5 L20.4375,491.5 L19.5625,491.5 L18.5156,491.5 L18,490.875 L18,490.5 L18,490.125 L18.5156,489.5 L19.5625,489.5 L23.2344,489.5 L25.9219,497.5 L26.4844,497.5 L26.4844,497.5 L27,498.125 L27,498.5 L27,498.875 L26.4844,499.5 L25.9219,499.5 L24.0313,499.5 L23.5156,499.5 L23,498.875 L23,498.5 L23,498.125 L23.5156,497.5 L24.0313,497.5 L24.0313,497.5 L23.75,496.5 Z M23.2031,494.5 L22,490.9219 L20.9688,494.5 L23.2031,494.5 Z " fill="#000000"/><text fill="#000000" font-family="sans-serif" font-size="12" font-style="italic" lengthAdjust="spacing" textLength="86" x="36" y="499.9102">CommonGraph</text><line style="stroke:#A80036;stroke-width:1.5;" x1="8" x2="124" y1="511" y2="511"/><line style="stroke:#A80036;stroke-width:1.5;" x1="8" x2="124" y1="519" y2="519"/><!--MD5=[706e73df52f3df32f52be1ce9adb217e]
class Graph--><rect codeLine="41" fill="#FEFECE" filter="url(#fw7tn1aa3kerw)" height="56.1875" id="Graph" style="stroke:#A80036;stroke-width:1.5;" width="89" x="21.5" y="619"/><ellipse cx="36.5" cy="639.0938" fill="#B4A7E5" rx="11" ry="11" style="stroke:#A80036;stroke-width:1.0;"/><path d="M37.5,636.0938 L37.5,642.0938 L39.5,642.0938 L39.9844,642.0938 L40.5,642.7188 L40.5,643.0938 L40.5,643.4688 L39.9844,644.0938 L39.5,644.0938 L33.5,644.0938 L33.0156,644.0938 L32.5,643.4688 L32.5,643.0938 L32.5,642.7188 L33.0156,642.0938 L33.5,642.0938 L35.5,642.0938 L35.5,636.0938 L33.5,636.0938 L33.0156,636.0938 L32.5,635.4688 L32.5,635.0938 L32.5,634.7188 L33.0156,634.0938 L33.5,634.0938 L39.5,634.0938 L39.9844,634.0938 L40.5,634.7188 L40.5,635.0938 L40.5,635.4688 L39.9844,636.0938 L39.5,636.0938 L37.5,636.0938 Z " fill="#000000"/><text fill="#000000" font-family="sans-serif" font-size="12" font-style="italic" lengthAdjust="spacing" textLength="61" x="48.5" y="636.457">«interface»</text><text fill="#000000" font-family="sans-serif" font-size="12" font-style="italic" lengthAdjust="spacing" textLength="34" x="62" y="651.5508">Graph</text><line style="stroke:#A80036;stroke-width:1.5;" x1="22.5" x2="109.5" y1="659.1875" y2="659.1875"/><line style="stroke:#A80036;stroke-width:1.5;" x1="22.5" x2="109.5" y1="667.1875" y2="667.1875"/><!--MD5=[4580d9fe07e36d54de3df101f6c0e966]
link ShortestPathController to Company--><path codeLine="43" d="M270,110.19 C270,128.16 270,148.18 270,165.41 " fill="none" id="ShortestPathController-to-Company" style="stroke:#A80036;stroke-width:1.0;stroke-dasharray:7.0,7.0;"/><polygon fill="#A80036" points="270,170.66,274,161.66,270,165.66,266,161.66,270,170.66" style="stroke:#A80036;stroke-width:1.0;"/><!--MD5=[e359b474b5bea3d5e0a05d5f38acf6c5]
link Company to FreightNetwork--><path codeLine="44" d="M270,247.34 C270,271.34 270,302.12 270,324.62 " fill="none" id="Company-FreightNetwork" style="stroke:#A80036;stroke-width:1.0;"/><polygon fill="#000000" points="275,291.1758,277.9389,282.1307,272.0611,282.1307,275,291.1758" style="stroke:#000000;stroke-width:1.0;"/><text fill="#000000" font-family="sans-serif" font-size="13" lengthAdjust="spacing" textLength="37" x="284" y="291.4951">knows</text><text fill="#000000" font-family="sans-serif" font-size="13" lengthAdjust="spacing" textLength="7" x="262.4422" y="268.2747">1</text><text fill="#000000" font-family="sans-serif" font-size="13" lengthAdjust="spacing" textLength="7" x="262.2781" y="314.0462">1</text><!--MD5=[e37e8e3161027a4df85a8c5d819b551a]
reverse link Location to Port--><path codeLine="45" d="M312.06,560.63 C307.23,574.36 302.13,588.83 297.54,601.88 " fill="none" id="Location-backto-Port" style="stroke:#A80036;stroke-width:1.0;"/><polygon fill="none" points="305.62,557.85,318.86,541.31,318.82,562.5,305.62,557.85" style="stroke:#A80036;stroke-width:1.0;"/><!--MD5=[656cf771635bff60a827e8d62d536357]
reverse link Location to Capital--><path codeLine="46" d="M351.94,560.63 C356.77,574.36 361.87,588.83 366.46,601.88 " fill="none" id="Location-backto-Capital" style="stroke:#A80036;stroke-width:1.0;"/><polygon fill="none" points="345.18,562.5,345.14,541.31,358.38,557.85,345.18,562.5" style="stroke:#A80036;stroke-width:1.0;"/><!--MD5=[bd392566c8a46ea25d805713a18e8e2e]
link FreightNetwork to Location--><path codeLine="47" d="M282.85,387.04 C292.49,409.61 305.76,440.64 316.08,464.78 " fill="none" id="FreightNetwork-Location" style="stroke:#A80036;stroke-width:1.0;"/><polygon fill="#000000" points="308.9652,430.7734,308.1125,421.3011,302.7077,423.6114,308.9652,430.7734" style="stroke:#000000;stroke-width:1.0;"/><text fill="#000000" font-family="sans-serif" font-size="13" lengthAdjust="spacing" textLength="10" x="316" y="431.4951">of</text><text fill="#000000" font-family="sans-serif" font-size="13" lengthAdjust="spacing" textLength="7" x="277.6908" y="408.2719">1</text><text fill="#000000" font-family="sans-serif" font-size="13" lengthAdjust="spacing" textLength="20" x="291.463" y="454.1027">1..*</text><!--MD5=[cb484d98b05c96fc0a7b0f57795eae75]
link FreightNetwork to MatrixGraph--><path codeLine="48" d="M257.36,387.04 C246.63,412.55 231.34,448.89 220.85,473.84 " fill="none" id="FreightNetwork-to-MatrixGraph" style="stroke:#A80036;stroke-width:1.0;stroke-dasharray:7.0,7.0;"/><polygon fill="#A80036" points="218.81,478.67,225.9713,471.9086,220.7381,474.0567,218.59,468.8236,218.81,478.67" style="stroke:#A80036;stroke-width:1.0;"/><!--MD5=[e9051ba8ebbd537393a9a6534acec112]
reverse link CommonGraph to MatrixGraph--><path codeLine="49" d="M145.46,503 C150.38,503 155.31,503 160.23,503 " fill="none" id="CommonGraph-backto-MatrixGraph" style="stroke:#A80036;stroke-width:1.0;"/><polygon fill="none" points="145.21,510,125.21,503,145.21,496,145.21,510" style="stroke:#A80036;stroke-width:1.0;"/><!--MD5=[73cb6a84480518af2d88af90c1d954ca]
link CommonGraph to Graph--><path codeLine="50" d="M66,527.13 C66,550.71 66,587.47 66,613.86 " fill="none" id="CommonGraph-to-Graph" style="stroke:#A80036;stroke-width:1.0;"/><polygon fill="#A80036" points="66,619,70,610,66,614,62,610,66,619" style="stroke:#A80036;stroke-width:1.0;"/><!--MD5=[44ec93b03eb77446675d0baf183948ec]
@startuml

skinparam classAttributeIconSize 0

class ShortestPathController {
    +getShortestPath(beg,end,path)
    +getShortestLandPath(beg,end)
    +getShortestMaritimePath(beg,end)
    +getShortestLandOrSeaPath(beg,end)
}

class Company {
    -designation
    +getFreightNetwork()
}

class FreightNetwork {
    +getShortestPath(net,beg,end)
}

abstract class Location{
    -latitude
    -longitude
}

class Port {
    -name
    -latitude
    -longitude
}

class Capital{
    -name
    -latitude
    -longitude
}

class MatrixGraph {}

abstract class CommonGraph {}

interface Graph <<interface>> {}

ShortestPathController ..> Company
Company "1" - - "1" FreightNetwork : knows >
Location <|- - Port
Location <|- - Capital
FreightNetwork "1" - - "1..*" Location : of >
FreightNetwork ..> MatrixGraph
CommonGraph <|- MatrixGraph
CommonGraph - -> Graph

@enduml

PlantUML version 1.2021.11(Sat Oct 02 14:26:11 BST 2021)
(GPL source distribution)
Java Runtime: OpenJDK Runtime Environment
JVM: OpenJDK 64-Bit Server VM
Default Encoding: Cp1252
Language: pt
Country: PT
--></g></svg>