<?xml version="1.0" encoding="UTF-8" standalone="no"?><svg xmlns="http://www.w3.org/2000/svg" xmlns:xlink="http://www.w3.org/1999/xlink" contentScriptType="application/ecmascript" contentStyleType="text/css" height="810px" preserveAspectRatio="none" style="width:1131px;height:810px;background:#FFFFFF;" version="1.1" viewBox="0 0 1131 810" width="1131px" zoomAndPan="magnify"><defs><filter height="300%" id="f15lrki9kfpcy5" width="300%" x="-1" y="-1"><feGaussianBlur result="blurOut" stdDeviation="1.2"/><feColorMatrix in="blurOut" result="blurOut2" type="matrix" values="0 0 0 0 0 0 0 0 0 0 0 0 0 0 0 0 0 0 .4 0"/><feOffset dx="2.4" dy="2.4" in="blurOut2" result="blurOut3"/><feBlend in="SourceGraphic" in2="blurOut3" mode="normal"/></filter></defs><g><!--MD5=[02e4b9b7573f1156f41e60aa5b4e25a4]
class Company--><rect codeLine="7" fill="#FEFECE" filter="url(#f15lrki9kfpcy5)" height="32.3016" id="Company" style="stroke:#A80036;stroke-width:0.8999999999999999;" width="51" x="21.9" y="380.0139"/><ellipse cx="30.9" cy="389.6139" fill="#ADD1B2" rx="6.6" ry="6.6" style="stroke:#A80036;stroke-width:0.6;"/><path d="M32.1,387.5139 Q32.2219,387.2139 32.3625,387.0639 Q32.5031,386.9139 32.6625,386.9139 Q32.9438,386.9139 33.1219,387.0826 Q33.3,387.2514 33.3,387.6451 L33.3,388.5826 Q33.3,388.9764 33.1313,389.1451 Q32.9625,389.3139 32.7,389.3139 Q32.4656,389.3139 32.3156,389.2107 Q32.1656,389.1076 32.1,388.8357 Q32.0719,388.6482 31.9688,388.5451 Q31.7813,388.3482 31.4437,388.2357 Q31.1063,388.1139 30.7687,388.1139 Q30.3469,388.1139 29.9906,388.2826 Q29.6437,388.4514 29.3719,388.8264 Q29.1,389.2014 29.1,389.717 L29.1,390.2701 Q29.1,390.8889 29.6063,391.3014 Q30.1125,391.7139 31.0125,391.7139 Q31.5469,391.7139 31.9219,391.592 Q32.1375,391.5264 32.3813,391.3107 Q32.5406,391.1889 32.625,391.1514 Q32.7094,391.1139 32.8125,391.1139 Q33.0094,391.1139 33.15,391.2732 Q33.3,391.4232 33.3,391.6389 Q33.3,391.8451 33.0938,392.0889 Q32.7937,392.4451 32.3156,392.642 Q31.6875,392.9139 30.9188,392.9139 Q30.0187,392.9139 29.2969,392.5576 Q28.7156,392.2764 28.3031,391.667 Q27.9,391.0576 27.9,390.3357 L27.9,389.6795 Q27.9,388.9295 28.2562,388.2732 Q28.6219,387.617 29.25,387.2701 Q29.8875,386.9139 30.6,386.9139 Q31.0313,386.9139 31.4063,387.0639 Q31.7813,387.2139 32.1,387.5139 Z " fill="#000000"/><text fill="#000000" font-family="sans-serif" font-size="7.2" lengthAdjust="spacing" textLength="31.8" x="39.3" y="392.56">Company</text><line style="stroke:#A80036;stroke-width:0.8999999999999999;" x1="22.5" x2="72.3" y1="399.2139" y2="399.2139"/><text fill="#000000" font-family="sans-serif" font-size="6.6" lengthAdjust="spacing" textLength="35.4" x="25.5" y="408.4652">-designation</text><!--MD5=[e9a58730c562b34349daa605d1ed6662]
class Container--><rect codeLine="11" fill="#FEFECE" filter="url(#f15lrki9kfpcy5)" height="65.5078" id="Container" style="stroke:#A80036;stroke-width:0.8999999999999999;" width="51.6" x="440.4" y="94.1139"/><ellipse cx="449.4" cy="103.7139" fill="#ADD1B2" rx="6.6" ry="6.6" style="stroke:#A80036;stroke-width:0.6;"/><path d="M450.6,101.6139 Q450.7219,101.3139 450.8625,101.1639 Q451.0031,101.0139 451.1625,101.0139 Q451.4437,101.0139 451.6219,101.1826 Q451.8,101.3514 451.8,101.7451 L451.8,102.6826 Q451.8,103.0764 451.6312,103.2451 Q451.4625,103.4139 451.2,103.4139 Q450.9656,103.4139 450.8156,103.3107 Q450.6656,103.2076 450.6,102.9357 Q450.5719,102.7482 450.4688,102.6451 Q450.2813,102.4482 449.9437,102.3357 Q449.6063,102.2139 449.2688,102.2139 Q448.8469,102.2139 448.4906,102.3826 Q448.1438,102.5514 447.8719,102.9264 Q447.6,103.3014 447.6,103.817 L447.6,104.3701 Q447.6,104.9889 448.1063,105.4014 Q448.6125,105.8139 449.5125,105.8139 Q450.0469,105.8139 450.4219,105.692 Q450.6375,105.6264 450.8812,105.4107 Q451.0406,105.2889 451.125,105.2514 Q451.2094,105.2139 451.3125,105.2139 Q451.5094,105.2139 451.65,105.3732 Q451.8,105.5232 451.8,105.7389 Q451.8,105.9451 451.5938,106.1889 Q451.2938,106.5451 450.8156,106.742 Q450.1875,107.0139 449.4188,107.0139 Q448.5188,107.0139 447.7969,106.6576 Q447.2156,106.3764 446.8031,105.767 Q446.4,105.1576 446.4,104.4357 L446.4,103.7795 Q446.4,103.0295 446.7562,102.3732 Q447.1219,101.717 447.75,101.3701 Q448.3875,101.0139 449.1,101.0139 Q449.5313,101.0139 449.9063,101.1639 Q450.2813,101.3139 450.6,101.6139 Z " fill="#000000"/><text fill="#000000" font-family="sans-serif" font-size="7.2" lengthAdjust="spacing" textLength="32.4" x="457.8" y="106.66">Container</text><line style="stroke:#A80036;stroke-width:0.8999999999999999;" x1="441" x2="491.4" y1="113.3139" y2="113.3139"/><text fill="#000000" font-family="sans-serif" font-size="6.6" lengthAdjust="spacing" textLength="34.2" x="444" y="122.5652">-containerId</text><text fill="#000000" font-family="sans-serif" font-size="6.6" lengthAdjust="spacing" textLength="25.2" x="444" y="130.8668">-payload</text><text fill="#000000" font-family="sans-serif" font-size="6.6" lengthAdjust="spacing" textLength="13.8" x="444" y="139.1684">-tare</text><text fill="#000000" font-family="sans-serif" font-size="6.6" lengthAdjust="spacing" textLength="19.2" x="444" y="147.4699">-gross</text><text fill="#000000" font-family="sans-serif" font-size="6.6" lengthAdjust="spacing" textLength="25.8" x="444" y="155.7715">-isoCode</text><!--MD5=[ed6624c6556d5e7b1bd23032162d20b7]
class Client--><rect codeLine="24" fill="#FEFECE" filter="url(#f15lrki9kfpcy5)" height="19.2" id="Client" style="stroke:#A80036;stroke-width:0.8999999999999999;" width="38.4" x="291.9" y="141.8139"/><ellipse cx="300.9" cy="151.4139" fill="#ADD1B2" rx="6.6" ry="6.6" style="stroke:#A80036;stroke-width:0.6;"/><path d="M302.1,149.3139 Q302.2219,149.0139 302.3625,148.8639 Q302.5031,148.7139 302.6625,148.7139 Q302.9437,148.7139 303.1219,148.8826 Q303.3,149.0514 303.3,149.4451 L303.3,150.3826 Q303.3,150.7764 303.1312,150.9451 Q302.9625,151.1139 302.7,151.1139 Q302.4656,151.1139 302.3156,151.0107 Q302.1656,150.9076 302.1,150.6357 Q302.0719,150.4482 301.9688,150.3451 Q301.7813,150.1482 301.4437,150.0357 Q301.1063,149.9139 300.7688,149.9139 Q300.3469,149.9139 299.9906,150.0826 Q299.6438,150.2514 299.3719,150.6264 Q299.1,151.0014 299.1,151.517 L299.1,152.0701 Q299.1,152.6889 299.6063,153.1014 Q300.1125,153.5139 301.0125,153.5139 Q301.5469,153.5139 301.9219,153.392 Q302.1375,153.3264 302.3812,153.1107 Q302.5406,152.9889 302.625,152.9514 Q302.7094,152.9139 302.8125,152.9139 Q303.0094,152.9139 303.15,153.0732 Q303.3,153.2232 303.3,153.4389 Q303.3,153.6451 303.0938,153.8889 Q302.7938,154.2451 302.3156,154.442 Q301.6875,154.7139 300.9188,154.7139 Q300.0188,154.7139 299.2969,154.3576 Q298.7156,154.0764 298.3031,153.467 Q297.9,152.8576 297.9,152.1357 L297.9,151.4795 Q297.9,150.7295 298.2562,150.0732 Q298.6219,149.417 299.25,149.0701 Q299.8875,148.7139 300.6,148.7139 Q301.0313,148.7139 301.4063,148.8639 Q301.7813,149.0139 302.1,149.3139 Z " fill="#000000"/><text fill="#000000" font-family="sans-serif" font-size="7.2" lengthAdjust="spacing" textLength="19.2" x="309.3" y="154.36">Client</text><!--MD5=[ddaf6f62b0bc30921877ec9fb9463c9f]
class TrafficManager--><rect codeLine="28" fill="#FEFECE" filter="url(#f15lrki9kfpcy5)" height="19.2" id="TrafficManager" style="stroke:#A80036;stroke-width:0.8999999999999999;" width="67.8" x="13.5" y="555.2139"/><ellipse cx="22.5" cy="564.8139" fill="#ADD1B2" rx="6.6" ry="6.6" style="stroke:#A80036;stroke-width:0.6;"/><path d="M23.7,562.7139 Q23.8219,562.4139 23.9625,562.2639 Q24.1031,562.1139 24.2625,562.1139 Q24.5438,562.1139 24.7219,562.2826 Q24.9,562.4514 24.9,562.8451 L24.9,563.7826 Q24.9,564.1764 24.7313,564.3451 Q24.5625,564.5139 24.3,564.5139 Q24.0656,564.5139 23.9156,564.4107 Q23.7656,564.3076 23.7,564.0357 Q23.6719,563.8482 23.5687,563.7451 Q23.3812,563.5482 23.0438,563.4357 Q22.7063,563.3139 22.3688,563.3139 Q21.9469,563.3139 21.5906,563.4826 Q21.2438,563.6514 20.9719,564.0264 Q20.7,564.4014 20.7,564.917 L20.7,565.4701 Q20.7,566.0889 21.2063,566.5014 Q21.7125,566.9139 22.6125,566.9139 Q23.1469,566.9139 23.5219,566.792 Q23.7375,566.7264 23.9813,566.5107 Q24.1406,566.3889 24.225,566.3514 Q24.3094,566.3139 24.4125,566.3139 Q24.6094,566.3139 24.75,566.4732 Q24.9,566.6232 24.9,566.8389 Q24.9,567.0451 24.6937,567.2889 Q24.3938,567.6451 23.9156,567.842 Q23.2875,568.1139 22.5188,568.1139 Q21.6188,568.1139 20.8969,567.7576 Q20.3156,567.4764 19.9031,566.867 Q19.5,566.2576 19.5,565.5357 L19.5,564.8795 Q19.5,564.1295 19.8563,563.4732 Q20.2219,562.817 20.85,562.4701 Q21.4875,562.1139 22.2,562.1139 Q22.6312,562.1139 23.0062,562.2639 Q23.3812,562.4139 23.7,562.7139 Z " fill="#000000"/><text fill="#000000" font-family="sans-serif" font-size="7.2" lengthAdjust="spacing" textLength="48.6" x="30.9" y="567.76">TrafficManager</text><!--MD5=[5e1deb958606d83ef5f4988eb2b8f966]
class WarehouseManager--><rect codeLine="34" fill="#FEFECE" filter="url(#f15lrki9kfpcy5)" height="19.2" id="WarehouseManager" style="stroke:#A80036;stroke-width:0.8999999999999999;" width="86.4" x="4.2" y="771.8139"/><ellipse cx="13.2" cy="781.4139" fill="#ADD1B2" rx="6.6" ry="6.6" style="stroke:#A80036;stroke-width:0.6;"/><path d="M14.4,779.3139 Q14.5219,779.0139 14.6625,778.8639 Q14.8031,778.7139 14.9625,778.7139 Q15.2437,778.7139 15.4219,778.8826 Q15.6,779.0514 15.6,779.4451 L15.6,780.3826 Q15.6,780.7764 15.4312,780.9451 Q15.2625,781.1139 15,781.1139 Q14.7656,781.1139 14.6156,781.0107 Q14.4656,780.9076 14.4,780.6357 Q14.3719,780.4482 14.2687,780.3451 Q14.0812,780.1482 13.7438,780.0357 Q13.4063,779.9139 13.0688,779.9139 Q12.6469,779.9139 12.2906,780.0826 Q11.9438,780.2514 11.6719,780.6264 Q11.4,781.0014 11.4,781.517 L11.4,782.0701 Q11.4,782.6889 11.9063,783.1014 Q12.4125,783.5139 13.3125,783.5139 Q13.8469,783.5139 14.2219,783.392 Q14.4375,783.3264 14.6812,783.1107 Q14.8406,782.9889 14.925,782.9514 Q15.0094,782.9139 15.1125,782.9139 Q15.3094,782.9139 15.45,783.0732 Q15.6,783.2232 15.6,783.4389 Q15.6,783.6451 15.3937,783.8889 Q15.0938,784.2451 14.6156,784.442 Q13.9875,784.7139 13.2188,784.7139 Q12.3188,784.7139 11.5969,784.3576 Q11.0156,784.0764 10.6031,783.467 Q10.2,782.8576 10.2,782.1357 L10.2,781.4795 Q10.2,780.7295 10.5563,780.0732 Q10.9219,779.417 11.55,779.0701 Q12.1875,778.7139 12.9,778.7139 Q13.3312,778.7139 13.7062,778.8639 Q14.0812,779.0139 14.4,779.3139 Z " fill="#000000"/><text fill="#000000" font-family="sans-serif" font-size="7.2" lengthAdjust="spacing" textLength="67.2" x="21.6" y="784.36">WarehouseManager</text><!--MD5=[99d8f1361a72f685c413d1fd21efef1c]
class PortManager--><rect codeLine="38" fill="#FEFECE" filter="url(#f15lrki9kfpcy5)" height="19.2" id="PortManager" style="stroke:#A80036;stroke-width:0.8999999999999999;" width="61.2" x="16.8" y="717.2139"/><ellipse cx="25.8" cy="726.8139" fill="#ADD1B2" rx="6.6" ry="6.6" style="stroke:#A80036;stroke-width:0.6;"/><path d="M27,724.7139 Q27.1219,724.4139 27.2625,724.2639 Q27.4031,724.1139 27.5625,724.1139 Q27.8438,724.1139 28.0219,724.2826 Q28.2,724.4514 28.2,724.8451 L28.2,725.7826 Q28.2,726.1764 28.0313,726.3451 Q27.8625,726.5139 27.6,726.5139 Q27.3656,726.5139 27.2156,726.4107 Q27.0656,726.3076 27,726.0357 Q26.9719,725.8482 26.8688,725.7451 Q26.6813,725.5482 26.3438,725.4357 Q26.0062,725.3139 25.6688,725.3139 Q25.2469,725.3139 24.8906,725.4826 Q24.5438,725.6514 24.2719,726.0264 Q24,726.4014 24,726.917 L24,727.4701 Q24,728.0889 24.5062,728.5014 Q25.0125,728.9139 25.9125,728.9139 Q26.4469,728.9139 26.8219,728.792 Q27.0375,728.7264 27.2813,728.5107 Q27.4406,728.3889 27.525,728.3514 Q27.6094,728.3139 27.7125,728.3139 Q27.9094,728.3139 28.05,728.4732 Q28.2,728.6232 28.2,728.8389 Q28.2,729.0451 27.9938,729.2889 Q27.6937,729.6451 27.2156,729.842 Q26.5875,730.1139 25.8187,730.1139 Q24.9188,730.1139 24.1969,729.7576 Q23.6156,729.4764 23.2031,728.867 Q22.8,728.2576 22.8,727.5357 L22.8,726.8795 Q22.8,726.1295 23.1563,725.4732 Q23.5219,724.817 24.15,724.4701 Q24.7875,724.1139 25.5,724.1139 Q25.9313,724.1139 26.3063,724.2639 Q26.6813,724.4139 27,724.7139 Z " fill="#000000"/><text fill="#000000" font-family="sans-serif" font-size="7.2" lengthAdjust="spacing" textLength="42" x="34.2" y="729.76">PortManager</text><!--MD5=[76562047389981627aea27c31a97aff5]
class CargoManifest--><rect codeLine="47" fill="#FEFECE" filter="url(#f15lrki9kfpcy5)" height="32.3016" id="CargoManifest" style="stroke:#A80036;stroke-width:0.8999999999999999;" width="67.2" x="601.2" y="213.8139"/><ellipse cx="610.2" cy="223.4139" fill="#ADD1B2" rx="6.6" ry="6.6" style="stroke:#A80036;stroke-width:0.6;"/><path d="M611.4,221.3139 Q611.5219,221.0139 611.6625,220.8639 Q611.8031,220.7139 611.9625,220.7139 Q612.2438,220.7139 612.4219,220.8826 Q612.6,221.0514 612.6,221.4451 L612.6,222.3826 Q612.6,222.7764 612.4313,222.9451 Q612.2625,223.1139 612,223.1139 Q611.7656,223.1139 611.6156,223.0107 Q611.4656,222.9076 611.4,222.6357 Q611.3719,222.4482 611.2688,222.3451 Q611.0813,222.1482 610.7438,222.0357 Q610.4063,221.9139 610.0688,221.9139 Q609.6469,221.9139 609.2906,222.0826 Q608.9438,222.2514 608.6719,222.6264 Q608.4,223.0014 608.4,223.517 L608.4,224.0701 Q608.4,224.6889 608.9063,225.1014 Q609.4125,225.5139 610.3125,225.5139 Q610.8469,225.5139 611.2219,225.392 Q611.4375,225.3264 611.6813,225.1107 Q611.8406,224.9889 611.925,224.9514 Q612.0094,224.9139 612.1125,224.9139 Q612.3094,224.9139 612.45,225.0732 Q612.6,225.2232 612.6,225.4389 Q612.6,225.6451 612.3938,225.8889 Q612.0938,226.2451 611.6156,226.442 Q610.9875,226.7139 610.2188,226.7139 Q609.3188,226.7139 608.5969,226.3576 Q608.0156,226.0764 607.6031,225.467 Q607.2,224.8576 607.2,224.1357 L607.2,223.4795 Q607.2,222.7295 607.5563,222.0732 Q607.9219,221.417 608.55,221.0701 Q609.1875,220.7139 609.9,220.7139 Q610.3313,220.7139 610.7063,220.8639 Q611.0813,221.0139 611.4,221.3139 Z " fill="#000000"/><text fill="#000000" font-family="sans-serif" font-size="7.2" lengthAdjust="spacing" textLength="48" x="618.6" y="226.36">CargoManifest</text><line style="stroke:#A80036;stroke-width:0.8999999999999999;" x1="601.8" x2="667.8" y1="233.0139" y2="233.0139"/><text fill="#000000" font-family="sans-serif" font-size="6.6" lengthAdjust="spacing" textLength="48.6" x="604.8" y="242.2652">-cargoManifestId</text><!--MD5=[0dc7f2ddb409b58bcf52b12238c25399]
class Ship--><rect codeLine="52" fill="#FEFECE" filter="url(#f15lrki9kfpcy5)" height="65.5078" id="Ship" style="stroke:#A80036;stroke-width:0.8999999999999999;" width="43.8" x="168" y="363.5139"/><ellipse cx="181.32" cy="373.1139" fill="#ADD1B2" rx="6.6" ry="6.6" style="stroke:#A80036;stroke-width:0.6;"/><path d="M182.52,371.0139 Q182.6419,370.7139 182.7825,370.5639 Q182.9231,370.4139 183.0825,370.4139 Q183.3637,370.4139 183.5419,370.5826 Q183.72,370.7514 183.72,371.1451 L183.72,372.0826 Q183.72,372.4764 183.5512,372.6451 Q183.3825,372.8139 183.12,372.8139 Q182.8856,372.8139 182.7356,372.7107 Q182.5856,372.6076 182.52,372.3357 Q182.4919,372.1482 182.3888,372.0451 Q182.2013,371.8482 181.8637,371.7357 Q181.5262,371.6139 181.1888,371.6139 Q180.7669,371.6139 180.4106,371.7826 Q180.0638,371.9514 179.7919,372.3264 Q179.52,372.7014 179.52,373.217 L179.52,373.7701 Q179.52,374.3889 180.0262,374.8014 Q180.5325,375.2139 181.4325,375.2139 Q181.9669,375.2139 182.3419,375.092 Q182.5575,375.0264 182.8012,374.8107 Q182.9606,374.6889 183.045,374.6514 Q183.1294,374.6139 183.2325,374.6139 Q183.4294,374.6139 183.57,374.7732 Q183.72,374.9232 183.72,375.1389 Q183.72,375.3451 183.5138,375.5889 Q183.2137,375.9451 182.7356,376.142 Q182.1075,376.4139 181.3387,376.4139 Q180.4388,376.4139 179.7169,376.0576 Q179.1356,375.7764 178.7231,375.167 Q178.32,374.5576 178.32,373.8357 L178.32,373.1795 Q178.32,372.4295 178.6762,371.7732 Q179.0419,371.117 179.67,370.7701 Q180.3075,370.4139 181.02,370.4139 Q181.4513,370.4139 181.8263,370.5639 Q182.2013,370.7139 182.52,371.0139 Z " fill="#000000"/><text fill="#000000" font-family="sans-serif" font-size="7.2" lengthAdjust="spacing" textLength="15" x="190.68" y="376.06">Ship</text><line style="stroke:#A80036;stroke-width:0.8999999999999999;" x1="168.6" x2="211.2" y1="382.7139" y2="382.7139"/><text fill="#000000" font-family="sans-serif" font-size="6.6" lengthAdjust="spacing" textLength="36.6" x="171.6" y="391.9652">-mmmsiCode</text><text fill="#000000" font-family="sans-serif" font-size="6.6" lengthAdjust="spacing" textLength="30.6" x="171.6" y="400.2668">-shipName</text><text fill="#000000" font-family="sans-serif" font-size="6.6" lengthAdjust="spacing" textLength="27" x="171.6" y="408.5684">-imoCode</text><text fill="#000000" font-family="sans-serif" font-size="6.6" lengthAdjust="spacing" textLength="29.4" x="171.6" y="416.8699">-callSignId</text><text fill="#000000" font-family="sans-serif" font-size="6.6" lengthAdjust="spacing" textLength="16.2" x="171.6" y="425.1715">-draft</text><!--MD5=[c3595080bead4b0218f76e921c99c6ce]
class PositionInVehicle--><rect codeLine="61" fill="#FEFECE" filter="url(#f15lrki9kfpcy5)" height="48.9047" id="PositionInVehicle" style="stroke:#A80036;stroke-width:0.8999999999999999;" width="93.6" x="752.4" y="147.8139"/><ellipse cx="769.23" cy="157.4139" fill="#ADD1B2" rx="6.6" ry="6.6" style="stroke:#A80036;stroke-width:0.6;"/><path d="M770.43,155.3139 Q770.5519,155.0139 770.6925,154.8639 Q770.8331,154.7139 770.9925,154.7139 Q771.2738,154.7139 771.4519,154.8826 Q771.63,155.0514 771.63,155.4451 L771.63,156.3826 Q771.63,156.7764 771.4613,156.9451 Q771.2925,157.1139 771.03,157.1139 Q770.7956,157.1139 770.6456,157.0107 Q770.4956,156.9076 770.43,156.6357 Q770.4019,156.4482 770.2987,156.3451 Q770.1112,156.1482 769.7738,156.0357 Q769.4363,155.9139 769.0988,155.9139 Q768.6769,155.9139 768.3206,156.0826 Q767.9738,156.2514 767.7019,156.6264 Q767.43,157.0014 767.43,157.517 L767.43,158.0701 Q767.43,158.6889 767.9363,159.1014 Q768.4425,159.5139 769.3425,159.5139 Q769.8769,159.5139 770.2519,159.392 Q770.4675,159.3264 770.7113,159.1107 Q770.8706,158.9889 770.955,158.9514 Q771.0394,158.9139 771.1425,158.9139 Q771.3394,158.9139 771.48,159.0732 Q771.63,159.2232 771.63,159.4389 Q771.63,159.6451 771.4237,159.8889 Q771.1238,160.2451 770.6456,160.442 Q770.0175,160.7139 769.2488,160.7139 Q768.3488,160.7139 767.6269,160.3576 Q767.0456,160.0764 766.6331,159.467 Q766.23,158.8576 766.23,158.1357 L766.23,157.4795 Q766.23,156.7295 766.5863,156.0732 Q766.9519,155.417 767.58,155.0701 Q768.2175,154.7139 768.93,154.7139 Q769.3612,154.7139 769.7362,154.8639 Q770.1112,155.0139 770.43,155.3139 Z " fill="#000000"/><text fill="#000000" font-family="sans-serif" font-size="7.2" lengthAdjust="spacing" textLength="57" x="779.37" y="160.36">PositionInVehicle</text><line style="stroke:#A80036;stroke-width:0.8999999999999999;" x1="753" x2="845.4" y1="167.0139" y2="167.0139"/><text fill="#000000" font-family="sans-serif" font-size="6.6" lengthAdjust="spacing" textLength="85.8" x="756" y="176.2652">-containerPositionInVehiculeX</text><text fill="#000000" font-family="sans-serif" font-size="6.6" lengthAdjust="spacing" textLength="86.4" x="756" y="184.5668">-containerPositionInVehiculeY</text><text fill="#000000" font-family="sans-serif" font-size="6.6" lengthAdjust="spacing" textLength="85.8" x="756" y="192.8684">-containerPositionInVehiculeZ</text><!--MD5=[cf9c7d7c3da40397ddde4f51b7097da6]
class VesselType--><rect codeLine="67" fill="#FEFECE" filter="url(#f15lrki9kfpcy5)" height="57.2063" id="VesselType" style="stroke:#A80036;stroke-width:0.8999999999999999;" width="57.6" x="282.3" y="288.5139"/><ellipse cx="291.3" cy="298.1139" fill="#ADD1B2" rx="6.6" ry="6.6" style="stroke:#A80036;stroke-width:0.6;"/><path d="M292.5,296.0139 Q292.6219,295.7139 292.7625,295.5639 Q292.9031,295.4139 293.0625,295.4139 Q293.3438,295.4139 293.5219,295.5826 Q293.7,295.7514 293.7,296.1451 L293.7,297.0826 Q293.7,297.4764 293.5313,297.6451 Q293.3625,297.8139 293.1,297.8139 Q292.8656,297.8139 292.7156,297.7107 Q292.5656,297.6076 292.5,297.3357 Q292.4719,297.1482 292.3688,297.0451 Q292.1813,296.8482 291.8438,296.7357 Q291.5062,296.6139 291.1688,296.6139 Q290.7469,296.6139 290.3906,296.7826 Q290.0438,296.9514 289.7719,297.3264 Q289.5,297.7014 289.5,298.217 L289.5,298.7701 Q289.5,299.3889 290.0062,299.8014 Q290.5125,300.2139 291.4125,300.2139 Q291.9469,300.2139 292.3219,300.092 Q292.5375,300.0264 292.7813,299.8107 Q292.9406,299.6889 293.025,299.6514 Q293.1094,299.6139 293.2125,299.6139 Q293.4094,299.6139 293.55,299.7732 Q293.7,299.9232 293.7,300.1389 Q293.7,300.3451 293.4938,300.5889 Q293.1937,300.9451 292.7156,301.142 Q292.0875,301.4139 291.3187,301.4139 Q290.4188,301.4139 289.6969,301.0576 Q289.1156,300.7764 288.7031,300.167 Q288.3,299.5576 288.3,298.8357 L288.3,298.1795 Q288.3,297.4295 288.6563,296.7732 Q289.0219,296.117 289.65,295.7701 Q290.2875,295.4139 291,295.4139 Q291.4313,295.4139 291.8063,295.5639 Q292.1813,295.7139 292.5,296.0139 Z " fill="#000000"/><text fill="#000000" font-family="sans-serif" font-size="7.2" lengthAdjust="spacing" textLength="38.4" x="299.7" y="301.06">VesselType</text><line style="stroke:#A80036;stroke-width:0.8999999999999999;" x1="282.9" x2="339.3" y1="307.7139" y2="307.7139"/><text fill="#000000" font-family="sans-serif" font-size="6.6" lengthAdjust="spacing" textLength="40.8" x="285.9" y="316.9652">-vesselTypeId</text><text fill="#000000" font-family="sans-serif" font-size="6.6" lengthAdjust="spacing" textLength="19.8" x="285.9" y="325.2668">-length</text><text fill="#000000" font-family="sans-serif" font-size="6.6" lengthAdjust="spacing" textLength="18.6" x="285.9" y="333.5684">-width</text><text fill="#000000" font-family="sans-serif" font-size="6.6" lengthAdjust="spacing" textLength="39.6" x="285.9" y="341.8699">-maxCapacity</text><!--MD5=[1c0c3765e68dc4575d559b566278b914]
class ShipPosition--><rect codeLine="74" fill="#FEFECE" filter="url(#f15lrki9kfpcy5)" height="90.4125" id="ShipPosition" style="stroke:#A80036;stroke-width:0.8999999999999999;" width="61.2" x="280.5" y="471.5139"/><ellipse cx="289.5" cy="481.1139" fill="#ADD1B2" rx="6.6" ry="6.6" style="stroke:#A80036;stroke-width:0.6;"/><path d="M290.7,479.0139 Q290.8219,478.7139 290.9625,478.5639 Q291.1031,478.4139 291.2625,478.4139 Q291.5438,478.4139 291.7219,478.5826 Q291.9,478.7514 291.9,479.1451 L291.9,480.0826 Q291.9,480.4764 291.7313,480.6451 Q291.5625,480.8139 291.3,480.8139 Q291.0656,480.8139 290.9156,480.7107 Q290.7656,480.6076 290.7,480.3357 Q290.6719,480.1482 290.5687,480.0451 Q290.3812,479.8482 290.0438,479.7357 Q289.7063,479.6139 289.3688,479.6139 Q288.9469,479.6139 288.5906,479.7826 Q288.2438,479.9514 287.9719,480.3264 Q287.7,480.7014 287.7,481.217 L287.7,481.7701 Q287.7,482.3889 288.2063,482.8014 Q288.7125,483.2139 289.6125,483.2139 Q290.1469,483.2139 290.5219,483.092 Q290.7375,483.0264 290.9813,482.8107 Q291.1406,482.6889 291.225,482.6514 Q291.3094,482.6139 291.4125,482.6139 Q291.6094,482.6139 291.75,482.7732 Q291.9,482.9232 291.9,483.1389 Q291.9,483.3451 291.6937,483.5889 Q291.3938,483.9451 290.9156,484.142 Q290.2875,484.4139 289.5188,484.4139 Q288.6188,484.4139 287.8969,484.0576 Q287.3156,483.7764 286.9031,483.167 Q286.5,482.5576 286.5,481.8357 L286.5,481.1795 Q286.5,480.4295 286.8563,479.7732 Q287.2219,479.117 287.85,478.7701 Q288.4875,478.4139 289.2,478.4139 Q289.6312,478.4139 290.0062,478.5639 Q290.3812,478.7139 290.7,479.0139 Z " fill="#000000"/><text fill="#000000" font-family="sans-serif" font-size="7.2" lengthAdjust="spacing" textLength="42" x="297.9" y="484.06">ShipPosition</text><line style="stroke:#A80036;stroke-width:0.8999999999999999;" x1="281.1" x2="341.1" y1="490.7139" y2="490.7139"/><text fill="#000000" font-family="sans-serif" font-size="6.6" lengthAdjust="spacing" textLength="43.2" x="284.1" y="499.9652">-baseDateTime</text><text fill="#000000" font-family="sans-serif" font-size="6.6" lengthAdjust="spacing" textLength="22.8" x="284.1" y="508.2668">-latitude</text><text fill="#000000" font-family="sans-serif" font-size="6.6" lengthAdjust="spacing" textLength="28.2" x="284.1" y="516.5684">-longitude</text><text fill="#000000" font-family="sans-serif" font-size="6.6" lengthAdjust="spacing" textLength="13.2" x="284.1" y="524.8699">-sog</text><text fill="#000000" font-family="sans-serif" font-size="6.6" lengthAdjust="spacing" textLength="13.2" x="284.1" y="533.1715">-cog</text><text fill="#000000" font-family="sans-serif" font-size="6.6" lengthAdjust="spacing" textLength="25.2" x="284.1" y="541.473">-heading</text><text fill="#000000" font-family="sans-serif" font-size="6.6" lengthAdjust="spacing" textLength="24.6" x="284.1" y="549.7746">-position</text><text fill="#000000" font-family="sans-serif" font-size="6.6" lengthAdjust="spacing" textLength="35.4" x="284.1" y="558.0762">-transceiver</text><!--MD5=[a0bfe97ac0a38e6e74cc1c7c7b744b71]
class Port--><rect codeLine="86" fill="#FEFECE" filter="url(#f15lrki9kfpcy5)" height="40.6031" id="Port" style="stroke:#A80036;stroke-width:0.8999999999999999;" width="45.6" x="776.4" y="267.8139"/><ellipse cx="791.34" cy="277.4139" fill="#ADD1B2" rx="6.6" ry="6.6" style="stroke:#A80036;stroke-width:0.6;"/><path d="M792.54,275.3139 Q792.6619,275.0139 792.8025,274.8639 Q792.9431,274.7139 793.1025,274.7139 Q793.3838,274.7139 793.5619,274.8826 Q793.74,275.0514 793.74,275.4451 L793.74,276.3826 Q793.74,276.7764 793.5713,276.9451 Q793.4025,277.1139 793.14,277.1139 Q792.9056,277.1139 792.7556,277.0107 Q792.6056,276.9076 792.54,276.6357 Q792.5119,276.4482 792.4088,276.3451 Q792.2213,276.1482 791.8838,276.0357 Q791.5463,275.9139 791.2088,275.9139 Q790.7869,275.9139 790.4306,276.0826 Q790.0838,276.2514 789.8119,276.6264 Q789.54,277.0014 789.54,277.517 L789.54,278.0701 Q789.54,278.6889 790.0463,279.1014 Q790.5525,279.5139 791.4525,279.5139 Q791.9869,279.5139 792.3619,279.392 Q792.5775,279.3264 792.8213,279.1107 Q792.9806,278.9889 793.065,278.9514 Q793.1494,278.9139 793.2525,278.9139 Q793.4494,278.9139 793.59,279.0732 Q793.74,279.2232 793.74,279.4389 Q793.74,279.6451 793.5338,279.8889 Q793.2338,280.2451 792.7556,280.442 Q792.1275,280.7139 791.3588,280.7139 Q790.4588,280.7139 789.7369,280.3576 Q789.1556,280.0764 788.7431,279.467 Q788.34,278.8576 788.34,278.1357 L788.34,277.4795 Q788.34,276.7295 788.6963,276.0732 Q789.0619,275.417 789.69,275.0701 Q790.3275,274.7139 791.04,274.7139 Q791.4713,274.7139 791.8463,274.8639 Q792.2213,275.0139 792.54,275.3139 Z " fill="#000000"/><text fill="#000000" font-family="sans-serif" font-size="7.2" lengthAdjust="spacing" textLength="13.2" x="801.06" y="280.36">Port</text><line style="stroke:#A80036;stroke-width:0.8999999999999999;" x1="777" x2="821.4" y1="287.0139" y2="287.0139"/><text fill="#000000" font-family="sans-serif" font-size="6.6" lengthAdjust="spacing" textLength="38.4" x="780" y="296.2652">-identification</text><text fill="#000000" font-family="sans-serif" font-size="6.6" lengthAdjust="spacing" textLength="18" x="780" y="304.5668">-name</text><!--MD5=[c5149b4909ffd2688ff51a939867f774]
class Warehouse--><rect codeLine="91" fill="#FEFECE" filter="url(#f15lrki9kfpcy5)" height="40.6031" id="Warehouse" style="stroke:#A80036;stroke-width:0.8999999999999999;" width="57.6" x="770.4" y="556.4139"/><ellipse cx="779.4" cy="566.0139" fill="#ADD1B2" rx="6.6" ry="6.6" style="stroke:#A80036;stroke-width:0.6;"/><path d="M780.6,563.9139 Q780.7219,563.6139 780.8625,563.4639 Q781.0031,563.3139 781.1625,563.3139 Q781.4438,563.3139 781.6219,563.4826 Q781.8,563.6514 781.8,564.0451 L781.8,564.9826 Q781.8,565.3764 781.6313,565.5451 Q781.4625,565.7139 781.2,565.7139 Q780.9656,565.7139 780.8156,565.6107 Q780.6656,565.5076 780.6,565.2357 Q780.5719,565.0482 780.4688,564.9451 Q780.2813,564.7482 779.9438,564.6357 Q779.6062,564.5139 779.2688,564.5139 Q778.8469,564.5139 778.4906,564.6826 Q778.1438,564.8514 777.8719,565.2264 Q777.6,565.6014 777.6,566.117 L777.6,566.6701 Q777.6,567.2889 778.1062,567.7014 Q778.6125,568.1139 779.5125,568.1139 Q780.0469,568.1139 780.4219,567.992 Q780.6375,567.9264 780.8813,567.7107 Q781.0406,567.5889 781.125,567.5514 Q781.2094,567.5139 781.3125,567.5139 Q781.5094,567.5139 781.65,567.6732 Q781.8,567.8232 781.8,568.0389 Q781.8,568.2451 781.5938,568.4889 Q781.2937,568.8451 780.8156,569.042 Q780.1875,569.3139 779.4187,569.3139 Q778.5188,569.3139 777.7969,568.9576 Q777.2156,568.6764 776.8031,568.067 Q776.4,567.4576 776.4,566.7357 L776.4,566.0795 Q776.4,565.3295 776.7563,564.6732 Q777.1219,564.017 777.75,563.6701 Q778.3875,563.3139 779.1,563.3139 Q779.5313,563.3139 779.9063,563.4639 Q780.2813,563.6139 780.6,563.9139 Z " fill="#000000"/><text fill="#000000" font-family="sans-serif" font-size="7.2" lengthAdjust="spacing" textLength="38.4" x="787.8" y="568.96">Warehouse</text><line style="stroke:#A80036;stroke-width:0.8999999999999999;" x1="771" x2="827.4" y1="575.6139" y2="575.6139"/><text fill="#000000" font-family="sans-serif" font-size="6.6" lengthAdjust="spacing" textLength="38.4" x="774" y="584.8652">-identification</text><text fill="#000000" font-family="sans-serif" font-size="6.6" lengthAdjust="spacing" textLength="18" x="774" y="593.1668">-name</text><!--MD5=[deb4e1f6eb1e3c1256fdb830f96abfbb]
class Country--><rect codeLine="96" fill="#FEFECE" filter="url(#f15lrki9kfpcy5)" height="40.6031" id="Country" style="stroke:#A80036;stroke-width:0.8999999999999999;" width="65.4" x="1057.2" y="425.0139"/><ellipse cx="1075.65" cy="434.6139" fill="#ADD1B2" rx="6.6" ry="6.6" style="stroke:#A80036;stroke-width:0.6;"/><path d="M1076.85,432.5139 Q1076.9719,432.2139 1077.1125,432.0639 Q1077.2531,431.9139 1077.4125,431.9139 Q1077.6938,431.9139 1077.8719,432.0826 Q1078.05,432.2514 1078.05,432.6451 L1078.05,433.5826 Q1078.05,433.9764 1077.8813,434.1451 Q1077.7125,434.3139 1077.45,434.3139 Q1077.2156,434.3139 1077.0656,434.2107 Q1076.9156,434.1076 1076.85,433.8357 Q1076.8219,433.6482 1076.7188,433.5451 Q1076.5313,433.3482 1076.1938,433.2357 Q1075.8563,433.1139 1075.5188,433.1139 Q1075.0969,433.1139 1074.7406,433.2826 Q1074.3938,433.4514 1074.1219,433.8264 Q1073.85,434.2014 1073.85,434.717 L1073.85,435.2701 Q1073.85,435.8889 1074.3563,436.3014 Q1074.8625,436.7139 1075.7625,436.7139 Q1076.2969,436.7139 1076.6719,436.592 Q1076.8875,436.5264 1077.1313,436.3107 Q1077.2906,436.1889 1077.375,436.1514 Q1077.4594,436.1139 1077.5625,436.1139 Q1077.7594,436.1139 1077.9,436.2732 Q1078.05,436.4232 1078.05,436.6389 Q1078.05,436.8451 1077.8438,437.0889 Q1077.5438,437.4451 1077.0656,437.642 Q1076.4375,437.9139 1075.6688,437.9139 Q1074.7688,437.9139 1074.0469,437.5576 Q1073.4656,437.2764 1073.0531,436.667 Q1072.65,436.0576 1072.65,435.3357 L1072.65,434.6795 Q1072.65,433.9295 1073.0063,433.2732 Q1073.3719,432.617 1074,432.2701 Q1074.6375,431.9139 1075.35,431.9139 Q1075.7813,431.9139 1076.1563,432.0639 Q1076.5313,432.2139 1076.85,432.5139 Z " fill="#000000"/><text fill="#000000" font-family="sans-serif" font-size="7.2" lengthAdjust="spacing" textLength="25.2" x="1086.15" y="437.56">Country</text><line style="stroke:#A80036;stroke-width:0.8999999999999999;" x1="1057.8" x2="1122" y1="444.2139" y2="444.2139"/><text fill="#000000" font-family="sans-serif" font-size="6.6" lengthAdjust="spacing" textLength="58.2" x="1060.8" y="453.4652">-countryDesignation</text><text fill="#000000" font-family="sans-serif" font-size="6.6" lengthAdjust="spacing" textLength="28.8" x="1060.8" y="461.7668">-continent</text><!--MD5=[9febfb2ff9adfe183e01ff702b9c1c02]
class PlaceLocation--><rect codeLine="101" fill="#FEFECE" filter="url(#f15lrki9kfpcy5)" height="40.6031" id="PlaceLocation" style="stroke:#A80036;stroke-width:0.8999999999999999;" width="66" x="933.6" y="425.0139"/><ellipse cx="942.6" cy="434.6139" fill="#ADD1B2" rx="6.6" ry="6.6" style="stroke:#A80036;stroke-width:0.6;"/><path d="M943.8,432.5139 Q943.9219,432.2139 944.0625,432.0639 Q944.2031,431.9139 944.3625,431.9139 Q944.6438,431.9139 944.8219,432.0826 Q945,432.2514 945,432.6451 L945,433.5826 Q945,433.9764 944.8313,434.1451 Q944.6625,434.3139 944.4,434.3139 Q944.1656,434.3139 944.0156,434.2107 Q943.8656,434.1076 943.8,433.8357 Q943.7719,433.6482 943.6687,433.5451 Q943.4812,433.3482 943.1438,433.2357 Q942.8063,433.1139 942.4688,433.1139 Q942.0469,433.1139 941.6906,433.2826 Q941.3438,433.4514 941.0719,433.8264 Q940.8,434.2014 940.8,434.717 L940.8,435.2701 Q940.8,435.8889 941.3063,436.3014 Q941.8125,436.7139 942.7125,436.7139 Q943.2469,436.7139 943.6219,436.592 Q943.8375,436.5264 944.0813,436.3107 Q944.2406,436.1889 944.325,436.1514 Q944.4094,436.1139 944.5125,436.1139 Q944.7094,436.1139 944.85,436.2732 Q945,436.4232 945,436.6389 Q945,436.8451 944.7937,437.0889 Q944.4938,437.4451 944.0156,437.642 Q943.3875,437.9139 942.6188,437.9139 Q941.7188,437.9139 940.9969,437.5576 Q940.4156,437.2764 940.0031,436.667 Q939.6,436.0576 939.6,435.3357 L939.6,434.6795 Q939.6,433.9295 939.9563,433.2732 Q940.3219,432.617 940.95,432.2701 Q941.5875,431.9139 942.3,431.9139 Q942.7312,431.9139 943.1062,432.0639 Q943.4812,432.2139 943.8,432.5139 Z " fill="#000000"/><text fill="#000000" font-family="sans-serif" font-size="7.2" lengthAdjust="spacing" textLength="46.8" x="951" y="437.56">PlaceLocation</text><line style="stroke:#A80036;stroke-width:0.8999999999999999;" x1="934.2" x2="999" y1="444.2139" y2="444.2139"/><text fill="#000000" font-family="sans-serif" font-size="6.6" lengthAdjust="spacing" textLength="47.4" x="937.2" y="453.4652">-locationLatitude</text><text fill="#000000" font-family="sans-serif" font-size="6.6" lengthAdjust="spacing" textLength="52.8" x="937.2" y="461.7668">-locationLongitude</text><!--MD5=[236b5af2ac259ce183175d6cd13df6a1]
class EnergyPower--><rect codeLine="106" fill="#FEFECE" filter="url(#f15lrki9kfpcy5)" height="40.6031" id="EnergyPower" style="stroke:#A80036;stroke-width:0.8999999999999999;" width="75" x="273.6" y="366.8139"/><ellipse cx="288" cy="376.4139" fill="#ADD1B2" rx="6.6" ry="6.6" style="stroke:#A80036;stroke-width:0.6;"/><path d="M289.2,374.3139 Q289.3219,374.0139 289.4625,373.8639 Q289.6031,373.7139 289.7625,373.7139 Q290.0438,373.7139 290.2219,373.8826 Q290.4,374.0514 290.4,374.4451 L290.4,375.3826 Q290.4,375.7764 290.2313,375.9451 Q290.0625,376.1139 289.8,376.1139 Q289.5656,376.1139 289.4156,376.0107 Q289.2656,375.9076 289.2,375.6357 Q289.1719,375.4482 289.0687,375.3451 Q288.8812,375.1482 288.5438,375.0357 Q288.2063,374.9139 287.8688,374.9139 Q287.4469,374.9139 287.0906,375.0826 Q286.7438,375.2514 286.4719,375.6264 Q286.2,376.0014 286.2,376.517 L286.2,377.0701 Q286.2,377.6889 286.7063,378.1014 Q287.2125,378.5139 288.1125,378.5139 Q288.6469,378.5139 289.0219,378.392 Q289.2375,378.3264 289.4813,378.1107 Q289.6406,377.9889 289.725,377.9514 Q289.8094,377.9139 289.9125,377.9139 Q290.1094,377.9139 290.25,378.0732 Q290.4,378.2232 290.4,378.4389 Q290.4,378.6451 290.1937,378.8889 Q289.8938,379.2451 289.4156,379.442 Q288.7875,379.7139 288.0188,379.7139 Q287.1188,379.7139 286.3969,379.3576 Q285.8156,379.0764 285.4031,378.467 Q285,377.8576 285,377.1357 L285,376.4795 Q285,375.7295 285.3563,375.0732 Q285.7219,374.417 286.35,374.0701 Q286.9875,373.7139 287.7,373.7139 Q288.1312,373.7139 288.5062,373.8639 Q288.8812,374.0139 289.2,374.3139 Z " fill="#000000"/><text fill="#000000" font-family="sans-serif" font-size="7.2" lengthAdjust="spacing" textLength="43.8" x="297.6" y="379.36">EnergyPower</text><line style="stroke:#A80036;stroke-width:0.8999999999999999;" x1="274.2" x2="348" y1="386.0139" y2="386.0139"/><text fill="#000000" font-family="sans-serif" font-size="6.6" lengthAdjust="spacing" textLength="67.8" x="277.2" y="395.2652">-numEnergyGenerators</text><text fill="#000000" font-family="sans-serif" font-size="6.6" lengthAdjust="spacing" textLength="53.4" x="277.2" y="403.5668">-generatorsPower</text><!--MD5=[f2ba7f6ab60af8dd0d3e354f91729b14]
class Truck--><rect codeLine="111" fill="#FEFECE" filter="url(#f15lrki9kfpcy5)" height="40.6031" id="Truck" style="stroke:#A80036;stroke-width:0.8999999999999999;" width="37.2" x="171.3" y="79.4139"/><ellipse cx="180.3" cy="89.0139" fill="#ADD1B2" rx="6.6" ry="6.6" style="stroke:#A80036;stroke-width:0.6;"/><path d="M181.5,86.9139 Q181.6219,86.6139 181.7625,86.4639 Q181.9031,86.3139 182.0625,86.3139 Q182.3438,86.3139 182.5219,86.4826 Q182.7,86.6514 182.7,87.0451 L182.7,87.9826 Q182.7,88.3764 182.5313,88.5451 Q182.3625,88.7139 182.1,88.7139 Q181.8656,88.7139 181.7156,88.6107 Q181.5656,88.5076 181.5,88.2357 Q181.4719,88.0482 181.3688,87.9451 Q181.1813,87.7482 180.8438,87.6357 Q180.5063,87.5139 180.1688,87.5139 Q179.7469,87.5139 179.3906,87.6826 Q179.0438,87.8514 178.7719,88.2264 Q178.5,88.6014 178.5,89.117 L178.5,89.6701 Q178.5,90.2889 179.0063,90.7014 Q179.5125,91.1139 180.4125,91.1139 Q180.9469,91.1139 181.3219,90.992 Q181.5375,90.9264 181.7813,90.7107 Q181.9406,90.5889 182.025,90.5514 Q182.1094,90.5139 182.2125,90.5139 Q182.4094,90.5139 182.55,90.6732 Q182.7,90.8232 182.7,91.0389 Q182.7,91.2451 182.4938,91.4889 Q182.1938,91.8451 181.7156,92.042 Q181.0875,92.3139 180.3188,92.3139 Q179.4188,92.3139 178.6969,91.9576 Q178.1156,91.6764 177.7031,91.067 Q177.3,90.4576 177.3,89.7357 L177.3,89.0795 Q177.3,88.3295 177.6563,87.6732 Q178.0219,87.017 178.65,86.6701 Q179.2875,86.3139 180,86.3139 Q180.4313,86.3139 180.8063,86.4639 Q181.1813,86.6139 181.5,86.9139 Z " fill="#000000"/><text fill="#000000" font-family="sans-serif" font-size="7.2" lengthAdjust="spacing" textLength="18" x="188.7" y="91.96">Truck</text><line style="stroke:#A80036;stroke-width:0.8999999999999999;" x1="171.9" x2="207.9" y1="98.6139" y2="98.6139"/><text fill="#000000" font-family="sans-serif" font-size="6.6" lengthAdjust="spacing" textLength="21.6" x="174.9" y="107.8652">-truckId</text><text fill="#000000" font-family="sans-serif" font-size="6.6" lengthAdjust="spacing" textLength="18" x="174.9" y="116.1668">-name</text><!--MD5=[fc92a9f5bb5fae84dd7fa4034e6b4444]
class Route--><rect codeLine="116" fill="#FEFECE" filter="url(#f15lrki9kfpcy5)" height="32.3016" id="Route" style="stroke:#A80036;stroke-width:0.8999999999999999;" width="39" x="291.6" y="234.8139"/><ellipse cx="300.6" cy="244.4139" fill="#ADD1B2" rx="6.6" ry="6.6" style="stroke:#A80036;stroke-width:0.6;"/><path d="M301.8,242.3139 Q301.9219,242.0139 302.0625,241.8639 Q302.2031,241.7139 302.3625,241.7139 Q302.6438,241.7139 302.8219,241.8826 Q303,242.0514 303,242.4451 L303,243.3826 Q303,243.7764 302.8313,243.9451 Q302.6625,244.1139 302.4,244.1139 Q302.1656,244.1139 302.0156,244.0107 Q301.8656,243.9076 301.8,243.6357 Q301.7719,243.4482 301.6688,243.3451 Q301.4813,243.1482 301.1438,243.0357 Q300.8063,242.9139 300.4688,242.9139 Q300.0469,242.9139 299.6906,243.0826 Q299.3438,243.2514 299.0719,243.6264 Q298.8,244.0014 298.8,244.517 L298.8,245.0701 Q298.8,245.6889 299.3063,246.1014 Q299.8125,246.5139 300.7125,246.5139 Q301.2469,246.5139 301.6219,246.392 Q301.8375,246.3264 302.0813,246.1107 Q302.2406,245.9889 302.325,245.9514 Q302.4094,245.9139 302.5125,245.9139 Q302.7094,245.9139 302.85,246.0732 Q303,246.2232 303,246.4389 Q303,246.6451 302.7938,246.8889 Q302.4938,247.2451 302.0156,247.442 Q301.3875,247.7139 300.6188,247.7139 Q299.7188,247.7139 298.9969,247.3576 Q298.4156,247.0764 298.0031,246.467 Q297.6,245.8576 297.6,245.1357 L297.6,244.4795 Q297.6,243.7295 297.9563,243.0732 Q298.3219,242.417 298.95,242.0701 Q299.5875,241.7139 300.3,241.7139 Q300.7313,241.7139 301.1063,241.8639 Q301.4813,242.0139 301.8,242.3139 Z " fill="#000000"/><text fill="#000000" font-family="sans-serif" font-size="7.2" lengthAdjust="spacing" textLength="19.8" x="309" y="247.36">Route</text><line style="stroke:#A80036;stroke-width:0.8999999999999999;" x1="292.2" x2="330" y1="254.0139" y2="254.0139"/><text fill="#000000" font-family="sans-serif" font-size="6.6" lengthAdjust="spacing" textLength="25.8" x="295.2" y="263.2652">-route_id</text><!--MD5=[f73a60b75ec7157bd3f57c9b4918fddb]
class TruckTrip--><rect codeLine="120" fill="#FEFECE" filter="url(#f15lrki9kfpcy5)" height="107.0156" id="TruckTrip" style="stroke:#A80036;stroke-width:0.8999999999999999;" width="72" x="430.2" y="300.8139"/><ellipse cx="449.19" cy="310.4139" fill="#ADD1B2" rx="6.6" ry="6.6" style="stroke:#A80036;stroke-width:0.6;"/><path d="M450.39,308.3139 Q450.5119,308.0139 450.6525,307.8639 Q450.7931,307.7139 450.9525,307.7139 Q451.2338,307.7139 451.4119,307.8826 Q451.59,308.0514 451.59,308.4451 L451.59,309.3826 Q451.59,309.7764 451.4213,309.9451 Q451.2525,310.1139 450.99,310.1139 Q450.7556,310.1139 450.6056,310.0107 Q450.4556,309.9076 450.39,309.6357 Q450.3619,309.4482 450.2587,309.3451 Q450.0712,309.1482 449.7338,309.0357 Q449.3962,308.9139 449.0588,308.9139 Q448.6369,308.9139 448.2806,309.0826 Q447.9338,309.2514 447.6619,309.6264 Q447.39,310.0014 447.39,310.517 L447.39,311.0701 Q447.39,311.6889 447.8962,312.1014 Q448.4025,312.5139 449.3025,312.5139 Q449.8369,312.5139 450.2119,312.392 Q450.4275,312.3264 450.6713,312.1107 Q450.8306,311.9889 450.915,311.9514 Q450.9994,311.9139 451.1025,311.9139 Q451.2994,311.9139 451.44,312.0732 Q451.59,312.2232 451.59,312.4389 Q451.59,312.6451 451.3837,312.8889 Q451.0837,313.2451 450.6056,313.442 Q449.9775,313.7139 449.2087,313.7139 Q448.3088,313.7139 447.5869,313.3576 Q447.0056,313.0764 446.5931,312.467 Q446.19,311.8576 446.19,311.1357 L446.19,310.4795 Q446.19,309.7295 446.5463,309.0732 Q446.9119,308.417 447.54,308.0701 Q448.1775,307.7139 448.89,307.7139 Q449.3212,307.7139 449.6962,307.8639 Q450.0712,308.0139 450.39,308.3139 Z " fill="#000000"/><text fill="#000000" font-family="sans-serif" font-size="7.2" lengthAdjust="spacing" textLength="30.6" x="459.81" y="313.36">TruckTrip</text><line style="stroke:#A80036;stroke-width:0.8999999999999999;" x1="430.8" x2="501.6" y1="320.0139" y2="320.0139"/><text fill="#000000" font-family="sans-serif" font-size="6.6" lengthAdjust="spacing" textLength="25.8" x="433.8" y="329.2652">-route_id</text><text fill="#000000" font-family="sans-serif" font-size="6.6" lengthAdjust="spacing" textLength="25.2" x="433.8" y="337.5668">-truck_Id</text><text fill="#000000" font-family="sans-serif" font-size="6.6" lengthAdjust="spacing" textLength="64.8" x="433.8" y="345.8684">-departure_location_id</text><text fill="#000000" font-family="sans-serif" font-size="6.6" lengthAdjust="spacing" textLength="54.6" x="433.8" y="354.1699">-arrival_location_id</text><text fill="#000000" font-family="sans-serif" font-size="6.6" lengthAdjust="spacing" textLength="51.6" x="433.8" y="362.4715">-loading_cargo_id</text><text fill="#000000" font-family="sans-serif" font-size="6.6" lengthAdjust="spacing" textLength="58.8" x="433.8" y="370.773">-unloading_cargo_id</text><text fill="#000000" font-family="sans-serif" font-size="6.6" lengthAdjust="spacing" textLength="59.4" x="433.8" y="379.0746">-est_departure_date</text><text fill="#000000" font-family="sans-serif" font-size="6.6" lengthAdjust="spacing" textLength="49.2" x="433.8" y="387.3762">-est_arrival_date</text><text fill="#000000" font-family="sans-serif" font-size="6.6" lengthAdjust="spacing" textLength="61.2" x="433.8" y="395.6777">-real_departure_date</text><text fill="#000000" font-family="sans-serif" font-size="6.6" lengthAdjust="spacing" textLength="51" x="433.8" y="403.9793">-real_arrival_date</text><!--MD5=[f8e092794d52bf9a252466252ae7bd1c]
class System--><rect codeLine="136" fill="#FEFECE" filter="url(#f15lrki9kfpcy5)" height="19.2" id="System" style="stroke:#A80036;stroke-width:0.8999999999999999;" width="43.8" x="289.2" y="626.0139"/><ellipse cx="298.2" cy="635.6139" fill="#ADD1B2" rx="6.6" ry="6.6" style="stroke:#A80036;stroke-width:0.6;"/><path d="M299.4,633.5139 Q299.5219,633.2139 299.6625,633.0639 Q299.8031,632.9139 299.9625,632.9139 Q300.2438,632.9139 300.4219,633.0826 Q300.6,633.2514 300.6,633.6451 L300.6,634.5826 Q300.6,634.9764 300.4313,635.1451 Q300.2625,635.3139 300,635.3139 Q299.7656,635.3139 299.6156,635.2107 Q299.4656,635.1076 299.4,634.8357 Q299.3719,634.6482 299.2688,634.5451 Q299.0813,634.3482 298.7438,634.2357 Q298.4063,634.1139 298.0687,634.1139 Q297.6469,634.1139 297.2906,634.2826 Q296.9437,634.4514 296.6719,634.8264 Q296.4,635.2014 296.4,635.717 L296.4,636.2701 Q296.4,636.8889 296.9063,637.3014 Q297.4125,637.7139 298.3125,637.7139 Q298.8469,637.7139 299.2219,637.592 Q299.4375,637.5264 299.6813,637.3107 Q299.8406,637.1889 299.925,637.1514 Q300.0094,637.1139 300.1125,637.1139 Q300.3094,637.1139 300.45,637.2732 Q300.6,637.4232 300.6,637.6389 Q300.6,637.8451 300.3938,638.0889 Q300.0938,638.4451 299.6156,638.642 Q298.9875,638.9139 298.2188,638.9139 Q297.3187,638.9139 296.5969,638.5576 Q296.0156,638.2764 295.6031,637.667 Q295.2,637.0576 295.2,636.3357 L295.2,635.6795 Q295.2,634.9295 295.5563,634.2732 Q295.9219,633.617 296.55,633.2701 Q297.1875,632.9139 297.9,632.9139 Q298.3313,632.9139 298.7063,633.0639 Q299.0813,633.2139 299.4,633.5139 Z " fill="#000000"/><text fill="#000000" font-family="sans-serif" font-size="7.2" lengthAdjust="spacing" textLength="24.6" x="306.6" y="638.56">System</text><!--MD5=[cd383c058592010a1996452fddaad790]
class ShipTrip--><rect codeLine="139" fill="#FEFECE" filter="url(#f15lrki9kfpcy5)" height="98.7141" id="ShipTrip" style="stroke:#A80036;stroke-width:0.8999999999999999;" width="72" x="430.2" y="180.5139"/><ellipse cx="450.54" cy="190.1139" fill="#ADD1B2" rx="6.6" ry="6.6" style="stroke:#A80036;stroke-width:0.6;"/><path d="M451.74,188.0139 Q451.8619,187.7139 452.0025,187.5639 Q452.1431,187.4139 452.3025,187.4139 Q452.5837,187.4139 452.7619,187.5826 Q452.94,187.7514 452.94,188.1451 L452.94,189.0826 Q452.94,189.4764 452.7712,189.6451 Q452.6025,189.8139 452.34,189.8139 Q452.1056,189.8139 451.9556,189.7107 Q451.8056,189.6076 451.74,189.3357 Q451.7119,189.1482 451.6088,189.0451 Q451.4213,188.8482 451.0837,188.7357 Q450.7463,188.6139 450.4088,188.6139 Q449.9869,188.6139 449.6306,188.7826 Q449.2838,188.9514 449.0119,189.3264 Q448.74,189.7014 448.74,190.217 L448.74,190.7701 Q448.74,191.3889 449.2463,191.8014 Q449.7525,192.2139 450.6525,192.2139 Q451.1869,192.2139 451.5619,192.092 Q451.7775,192.0264 452.0212,191.8107 Q452.1806,191.6889 452.265,191.6514 Q452.3494,191.6139 452.4525,191.6139 Q452.6494,191.6139 452.79,191.7732 Q452.94,191.9232 452.94,192.1389 Q452.94,192.3451 452.7338,192.5889 Q452.4338,192.9451 451.9556,193.142 Q451.3275,193.4139 450.5588,193.4139 Q449.6588,193.4139 448.9369,193.0576 Q448.3556,192.7764 447.9431,192.167 Q447.54,191.5576 447.54,190.8357 L447.54,190.1795 Q447.54,189.4295 447.8962,188.7732 Q448.2619,188.117 448.89,187.7701 Q449.5275,187.4139 450.24,187.4139 Q450.6713,187.4139 451.0463,187.5639 Q451.4213,187.7139 451.74,188.0139 Z " fill="#000000"/><text fill="#000000" font-family="sans-serif" font-size="7.2" lengthAdjust="spacing" textLength="27.6" x="461.46" y="193.06">ShipTrip</text><line style="stroke:#A80036;stroke-width:0.8999999999999999;" x1="430.8" x2="501.6" y1="199.7139" y2="199.7139"/><text fill="#000000" font-family="sans-serif" font-size="6.6" lengthAdjust="spacing" textLength="28.8" x="433.8" y="208.9652">-shipMmsi</text><text fill="#000000" font-family="sans-serif" font-size="6.6" lengthAdjust="spacing" textLength="64.8" x="433.8" y="217.2668">-departure_location_id</text><text fill="#000000" font-family="sans-serif" font-size="6.6" lengthAdjust="spacing" textLength="54.6" x="433.8" y="225.5684">-arrival_location_id</text><text fill="#000000" font-family="sans-serif" font-size="6.6" lengthAdjust="spacing" textLength="51.6" x="433.8" y="233.8699">-loading_cargo_id</text><text fill="#000000" font-family="sans-serif" font-size="6.6" lengthAdjust="spacing" textLength="58.8" x="433.8" y="242.1715">-unloading_cargo_id</text><text fill="#000000" font-family="sans-serif" font-size="6.6" lengthAdjust="spacing" textLength="59.4" x="433.8" y="250.473">-est_departure_date</text><text fill="#000000" font-family="sans-serif" font-size="6.6" lengthAdjust="spacing" textLength="49.2" x="433.8" y="258.7746">-est_arrival_date</text><text fill="#000000" font-family="sans-serif" font-size="6.6" lengthAdjust="spacing" textLength="61.2" x="433.8" y="267.0762">-real_departure_date</text><text fill="#000000" font-family="sans-serif" font-size="6.6" lengthAdjust="spacing" textLength="51" x="433.8" y="275.3777">-real_arrival_date</text><!--MD5=[3fd616f346a44cd59a91eb10b19e157c]
class User--><rect fill="#FEFECE" filter="url(#f15lrki9kfpcy5)" height="19.2" id="User" style="stroke:#A80036;stroke-width:0.8999999999999999;" width="35.4" x="172.2" y="717.8139"/><ellipse cx="181.2" cy="727.4139" fill="#ADD1B2" rx="6.6" ry="6.6" style="stroke:#A80036;stroke-width:0.6;"/><path d="M182.4,725.3139 Q182.5219,725.0139 182.6625,724.8639 Q182.8031,724.7139 182.9625,724.7139 Q183.2438,724.7139 183.4219,724.8826 Q183.6,725.0514 183.6,725.4451 L183.6,726.3826 Q183.6,726.7764 183.4313,726.9451 Q183.2625,727.1139 183,727.1139 Q182.7656,727.1139 182.6156,727.0107 Q182.4656,726.9076 182.4,726.6357 Q182.3719,726.4482 182.2687,726.3451 Q182.0812,726.1482 181.7438,726.0357 Q181.4063,725.9139 181.0688,725.9139 Q180.6469,725.9139 180.2906,726.0826 Q179.9438,726.2514 179.6719,726.6264 Q179.4,727.0014 179.4,727.517 L179.4,728.0701 Q179.4,728.6889 179.9063,729.1014 Q180.4125,729.5139 181.3125,729.5139 Q181.8469,729.5139 182.2219,729.392 Q182.4375,729.3264 182.6813,729.1107 Q182.8406,728.9889 182.925,728.9514 Q183.0094,728.9139 183.1125,728.9139 Q183.3094,728.9139 183.45,729.0732 Q183.6,729.2232 183.6,729.4389 Q183.6,729.6451 183.3937,729.8889 Q183.0938,730.2451 182.6156,730.442 Q181.9875,730.7139 181.2188,730.7139 Q180.3188,730.7139 179.5969,730.3576 Q179.0156,730.0764 178.6031,729.467 Q178.2,728.8576 178.2,728.1357 L178.2,727.4795 Q178.2,726.7295 178.5563,726.0732 Q178.9219,725.417 179.55,725.0701 Q180.1875,724.7139 180.9,724.7139 Q181.3312,724.7139 181.7062,724.8639 Q182.0812,725.0139 182.4,725.3139 Z " fill="#000000"/><text fill="#000000" font-family="sans-serif" font-size="7.2" lengthAdjust="spacing" textLength="16.2" x="189.6" y="730.36">User</text><!--MD5=[a2a194d3aa0c5b34ec916a16bebf9a1a]
link Company to System--><path codeLine="153" d="M51.306,412.5399 C57.804,441.0339 74.658,500.3679 108.6,537.8139 C159.15,593.5779 248.436,620.8839 289.164,630.9159 " fill="none" id="Company-System" style="stroke:#A80036;stroke-width:0.6;"/><polygon fill="#000000" points="184.3099,581.3482,181.5047,576.379,179.1196,578.9769,184.3099,581.3482" style="stroke:#000000;stroke-width:0.6;"/><text fill="#000000" font-family="sans-serif" font-size="7.8" lengthAdjust="spacing" textLength="12.6" x="187.5" y="582.5109">has</text><text fill="#000000" font-family="sans-serif" font-size="7.8" lengthAdjust="spacing" textLength="4.2" x="47.5011" y="425.2921">1</text><text fill="#000000" font-family="sans-serif" font-size="7.8" lengthAdjust="spacing" textLength="12" x="272.3625" y="639.0486">1..*</text><!--MD5=[4a0bbcdd6df460060db454e8e2c30a96]
link User to System--><path codeLine="154" d="M203.118,717.7659 C226.164,700.1319 274.818,662.9079 297.876,645.2739 " fill="none" id="User-System" style="stroke:#A80036;stroke-width:0.6;"/><polygon fill="#000000" points="235.1827,671.0965,229.8009,672.9935,231.9438,675.7946,235.1827,671.0965" style="stroke:#000000;stroke-width:0.6;"/><text fill="#000000" font-family="sans-serif" font-size="7.8" lengthAdjust="spacing" textLength="16.8" x="238.2" y="676.1109">uses</text><text fill="#000000" font-family="sans-serif" font-size="7.8" lengthAdjust="spacing" textLength="12" x="193.5992" y="711.3327">1..*</text><text fill="#000000" font-family="sans-serif" font-size="7.8" lengthAdjust="spacing" textLength="4.2" x="288.5999" y="658.1957">1</text><!--MD5=[d09fe284dff54f56f1e17acf5f33d2d7]
link TrafficManager to User--><path codeLine="156" d="M54.93,574.6059 C65.838,589.8519 87.924,620.0079 108.6,644.0139 C132.66,671.9499 163.56,702.5619 179.226,717.7539 " fill="none" id="TrafficManager-User" style="stroke:#A80036;stroke-width:0.6;"/><polygon fill="#000000" points="113.5669,640.9846,111.3402,635.7306,108.6773,638.0428,113.5669,640.9846" style="stroke:#000000;stroke-width:0.6;"/><text fill="#000000" font-family="sans-serif" font-size="7.8" lengthAdjust="spacing" textLength="32.4" x="117" y="641.9109">relates to</text><text fill="#000000" font-family="sans-serif" font-size="7.8" lengthAdjust="spacing" textLength="4.2" x="52.4608" y="587.3878">1</text><text fill="#000000" font-family="sans-serif" font-size="7.8" lengthAdjust="spacing" textLength="4.2" x="170.6349" y="711.3166">1</text><!--MD5=[eca22a17460c8f36ce6ba9a4df99eb35]
link WarehouseManager to User--><path codeLine="158" d="M90.606,773.9619 C109.356,769.7859 131.316,763.6419 150,755.0139 C160.14,750.3279 170.436,742.9839 177.942,737.0499 " fill="none" id="WarehouseManager-User" style="stroke:#A80036;stroke-width:0.6;"/><polygon fill="#000000" points="114.3633,748.5514,108.6779,749.0399,110.0509,752.2884,114.3633,748.5514" style="stroke:#000000;stroke-width:0.6;"/><text fill="#000000" font-family="sans-serif" font-size="7.8" lengthAdjust="spacing" textLength="32.4" x="117" y="752.9109">relates to</text><text fill="#000000" font-family="sans-serif" font-size="7.8" lengthAdjust="spacing" textLength="4.2" x="95.2782" y="781.7963">1</text><text fill="#000000" font-family="sans-serif" font-size="7.8" lengthAdjust="spacing" textLength="4.2" x="169.0853" y="749.9638">1</text><!--MD5=[f6e70140202ab1101eb6b424775e2f43]
link PortManager to User--><path codeLine="160" d="M78.168,734.0739 C98.496,738.0099 125.898,741.4659 150,738.2139 C157.362,737.2179 165.3,735.2259 172.098,733.2159 " fill="none" id="PortManager-User" style="stroke:#A80036;stroke-width:0.6;"/><polygon fill="#000000" points="114.5999,732.8919,109.1569,731.1782,109.1892,734.7048,114.5999,732.8919" style="stroke:#000000;stroke-width:0.6;"/><text fill="#000000" font-family="sans-serif" font-size="7.8" lengthAdjust="spacing" textLength="32.4" x="117" y="736.1109">relates to</text><text fill="#000000" font-family="sans-serif" font-size="7.8" lengthAdjust="spacing" textLength="4.2" x="82.7901" y="743.8817">1</text><text fill="#000000" font-family="sans-serif" font-size="7.8" lengthAdjust="spacing" textLength="4.2" x="163.2957" y="743.789">1</text><!--MD5=[a93f71c337684849482b0ec5675aa7db]
link CargoManifest to Container--><path codeLine="166" d="M600.978,216.6099 C577.518,206.4699 545.826,191.3919 520.2,174.2139 C510.522,167.7279 500.748,159.6099 492.258,151.9419 " fill="none" id="CargoManifest-Container" style="stroke:#A80036;stroke-width:0.6;"/><text fill="#000000" font-family="sans-serif" font-size="7.8" lengthAdjust="spacing" textLength="4.2" x="592.1755" y="223.6244">1</text><text fill="#000000" font-family="sans-serif" font-size="7.8" lengthAdjust="spacing" textLength="12" x="496.7662" y="164.2548">1..*</text><!--MD5=[f0bdc6c669370d32d41c923ef98b5140]
link Container to CargoManifest--><path codeLine="202" d="M492.192,133.9719 C516.87,141.6939 554.7,155.6019 583.2,175.4139 C598.428,186.0039 612.558,201.7959 622.062,213.6819 " fill="none" id="Container-CargoManifest" style="stroke:#A80036;stroke-width:0.6;"/><polygon fill="#000000" points="525.7568,141.0886,522.0539,136.7469,520.2091,139.7526,525.7568,141.0886" style="stroke:#000000;stroke-width:0.6;"/><text fill="#000000" font-family="sans-serif" font-size="7.8" lengthAdjust="spacing" textLength="54" x="528.6" y="142.7109">associated with</text><text fill="#000000" font-family="sans-serif" font-size="7.8" lengthAdjust="spacing" textLength="12" x="496.8908" y="143.8328">1..*</text><text fill="#000000" font-family="sans-serif" font-size="7.8" lengthAdjust="spacing" textLength="12" x="605.7288" y="207.3279">2..*</text><!--MD5=[e7fb3209ec5b0b32ba37b91769d7f861]
link CargoManifest to PositionInVehicle--><path codeLine="167" d="M668.424,218.3559 C692.55,209.8419 725.58,198.1839 752.328,188.7459 " fill="none" id="CargoManifest-PositionInVehicle" style="stroke:#A80036;stroke-width:0.6;"/><polygon fill="#000000" points="697.029,190.121,691.3245,190.2642,692.4981,193.5899,697.029,190.121" style="stroke:#000000;stroke-width:0.6;"/><text fill="#000000" font-family="sans-serif" font-size="7.8" lengthAdjust="spacing" textLength="29.4" x="699.6" y="194.3109">contains</text><text fill="#000000" font-family="sans-serif" font-size="7.8" lengthAdjust="spacing" textLength="4.2" x="673.2244" y="225.5522">1</text><text fill="#000000" font-family="sans-serif" font-size="7.8" lengthAdjust="spacing" textLength="12" x="735.6191" y="198.7476">1..*</text><!--MD5=[49c8bb1e2883d5513f9c89ff6f39a0c0]
link Container to PositionInVehicle--><path codeLine="170" d="M492.09,126.0459 C515.724,125.6379 551.958,125.7879 583.2,129.2139 C642.156,135.6819 708.96,150.2319 752.334,160.6599 " fill="none" id="Container-PositionInVehicle" style="stroke:#A80036;stroke-width:0.6;"/><polygon fill="#000000" points="629.9738,127.3149,624.8266,124.8514,624.3616,128.3473,629.9738,127.3149" style="stroke:#000000;stroke-width:0.6;"/><text fill="#000000" font-family="sans-serif" font-size="7.8" lengthAdjust="spacing" textLength="12.6" x="632.4" y="130.1109">has</text><text fill="#000000" font-family="sans-serif" font-size="7.8" lengthAdjust="spacing" textLength="4.2" x="496.7258" y="123.6293">1</text><text fill="#000000" font-family="sans-serif" font-size="7.8" lengthAdjust="spacing" textLength="4.2" x="743.4669" y="168.1183">1</text><!--MD5=[c324832c0212842eac80843bc02aaded]
link Ship to VesselType--><path codeLine="171" d="M212.004,386.8419 C225.03,380.7999 241.758,372.3699 255.6,363.2139 C264.642,357.2379 273.876,349.9839 282.132,343.0179 " fill="none" id="Ship-VesselType" style="stroke:#A80036;stroke-width:0.6;"/><polygon fill="#000000" points="236.5441,356.3295,231.0073,357.7102,232.8763,360.7009,236.5441,356.3295" style="stroke:#000000;stroke-width:0.6;"/><text fill="#000000" font-family="sans-serif" font-size="7.8" lengthAdjust="spacing" textLength="14.4" x="239.4" y="361.1109">is of</text><text fill="#000000" font-family="sans-serif" font-size="7.8" lengthAdjust="spacing" textLength="3" x="216.651" y="394.049">*</text><text fill="#000000" font-family="sans-serif" font-size="7.8" lengthAdjust="spacing" textLength="4.2" x="273.3689" y="355.6396">1</text><!--MD5=[f56e222e1748568825f030a9b791275e]
link Ship to ShipPosition--><path codeLine="172" d="M204.72,428.9199 C211.182,441.3939 219.66,455.1579 229.8,465.8139 C244.194,480.9399 263.97,493.5339 280.344,502.4199 " fill="none" id="Ship-ShipPosition" style="stroke:#A80036;stroke-width:0.6;"/><polygon fill="#000000" points="237.0513,462.6102,234.3885,457.5633,231.9306,460.0923,237.0513,462.6102" style="stroke:#000000;stroke-width:0.6;"/><text fill="#000000" font-family="sans-serif" font-size="7.8" lengthAdjust="spacing" textLength="12.6" x="240.3" y="463.7109">has</text><text fill="#000000" font-family="sans-serif" font-size="7.8" lengthAdjust="spacing" textLength="4.2" x="202.1497" y="441.829">1</text><text fill="#000000" font-family="sans-serif" font-size="7.8" lengthAdjust="spacing" textLength="12" x="263.6346" y="509.3132">1..*</text><!--MD5=[591625470abc4a5f324d9b49d40e13b3]
link Warehouse to PlaceLocation--><path codeLine="173" d="M825.768,556.2819 C856.902,531.6699 908.766,490.6599 939.942,466.0179 " fill="none" id="Warehouse-PlaceLocation" style="stroke:#A80036;stroke-width:0.6;"/><polygon fill="#000000" points="869.3534,480.2588,864.0025,482.2413,866.1897,485.0078,869.3534,480.2588" style="stroke:#000000;stroke-width:0.6;"/><text fill="#000000" font-family="sans-serif" font-size="7.8" lengthAdjust="spacing" textLength="42.6" x="872.4" y="485.3109">is located at</text><text fill="#000000" font-family="sans-serif" font-size="7.8" lengthAdjust="spacing" textLength="4.2" x="826.3851" y="549.8318">1</text><text fill="#000000" font-family="sans-serif" font-size="7.8" lengthAdjust="spacing" textLength="4.2" x="930.7992" y="478.5163">1</text><!--MD5=[32131463044e3955b9920caf90450011]
link Port to PlaceLocation--><path codeLine="174" d="M821.526,308.7639 C853.38,338.8899 912.414,394.7259 944.268,424.8579 " fill="none" id="Port-PlaceLocation" style="stroke:#A80036;stroke-width:0.6;"/><polygon fill="#000000" points="869.1795,349.7808,866.4484,344.7705,864.025,347.3327,869.1795,349.7808" style="stroke:#000000;stroke-width:0.6;"/><text fill="#000000" font-family="sans-serif" font-size="7.8" lengthAdjust="spacing" textLength="42.6" x="872.4" y="350.9109">is located at</text><text fill="#000000" font-family="sans-serif" font-size="7.8" lengthAdjust="spacing" textLength="4.2" x="820.8023" y="321.253">1</text><text fill="#000000" font-family="sans-serif" font-size="7.8" lengthAdjust="spacing" textLength="4.2" x="935.4106" y="418.5603">1</text><!--MD5=[3d04185e7085eaaeba7ebd93b9963be0]
link PlaceLocation to Country--><path codeLine="175" d="M999.762,445.4139 C1017.492,445.4139 1039.356,445.4139 1057.044,445.4139 " fill="none" id="PlaceLocation-Country" style="stroke:#A80036;stroke-width:0.6;"/><polygon fill="#000000" points="1023.6,440.1193,1018.1729,438.356,1018.1729,441.8827,1023.6,440.1193" style="stroke:#000000;stroke-width:0.6;"/><text fill="#000000" font-family="sans-serif" font-size="7.8" lengthAdjust="spacing" textLength="12.6" x="1026" y="443.3109">in a</text><text fill="#000000" font-family="sans-serif" font-size="7.8" lengthAdjust="spacing" textLength="3" x="1004.4197" y="454.1833">*</text><text fill="#000000" font-family="sans-serif" font-size="7.8" lengthAdjust="spacing" textLength="4.2" x="1048.1468" y="454.1833">1</text><!--MD5=[ba54223a31981c52d18c1dd571f5520c]
link Ship to Container--><path codeLine="176" d="M203.034,363.4539 C205.98,355.5399 209.058,347.0979 211.8,339.2139 C220.362,314.6019 217.914,306.6039 229.8,283.4139 C244.764,254.2239 248.556,245.1939 273.6,224.0139 C287.49,212.2659 391.362,162.1419 440.274,138.8259 " fill="none" id="Ship-Container" style="stroke:#A80036;stroke-width:0.6;"/><polygon fill="#000000" points="294.3784,177.6567,289.2252,180.1076,291.65,182.6685,294.3784,177.6567" style="stroke:#000000;stroke-width:0.6;"/><text fill="#000000" font-family="sans-serif" font-size="7.8" lengthAdjust="spacing" textLength="34.8" x="297.6" y="182.9109">transports</text><text fill="#000000" font-family="sans-serif" font-size="7.8" lengthAdjust="spacing" textLength="4.2" x="200.3167" y="356.9107">1</text><text fill="#000000" font-family="sans-serif" font-size="7.8" lengthAdjust="spacing" textLength="3" x="432.5602" y="149.8214">*</text><!--MD5=[062871d5623378d71d4c490cb56733bb]
link Truck to Container--><path codeLine="177" d="M208.626,101.2899 C246.48,104.4099 336.684,112.0779 412.2,120.2139 C421.392,121.2039 431.466,122.4159 440.358,123.5319 " fill="none" id="Truck-Container" style="stroke:#A80036;stroke-width:0.6;"/><polygon fill="#000000" points="295.1863,102.606,289.9525,100.3322,289.6156,103.8427,295.1863,102.606" style="stroke:#000000;stroke-width:0.6;"/><text fill="#000000" font-family="sans-serif" font-size="7.8" lengthAdjust="spacing" textLength="34.8" x="297.6" y="105.5109">transports</text><text fill="#000000" font-family="sans-serif" font-size="7.8" lengthAdjust="spacing" textLength="3" x="213.3033" y="110.8854">*</text><text fill="#000000" font-family="sans-serif" font-size="7.8" lengthAdjust="spacing" textLength="4.2" x="431.3555" y="120.6487">1</text><!--MD5=[1455ab4c2639af2370608c1bbf2a9850]
link Ship to CargoManifest--><path codeLine="180" d="M211.854,404.5119 C264.294,423.4899 402.378,464.9379 502.2,417.8139 C575.358,383.2779 615.492,285.4239 628.974,246.3879 " fill="none" id="Ship-CargoManifest" style="stroke:#A80036;stroke-width:0.6;"/><text fill="#000000" font-family="sans-serif" font-size="7.8" lengthAdjust="spacing" textLength="4.2" x="216.5896" y="415.1978">1</text><text fill="#000000" font-family="sans-serif" font-size="7.8" lengthAdjust="spacing" textLength="3" x="624.463" y="258.884">*</text><!--MD5=[fbdfc46126a12876c1c014194abedede]
link Truck to CargoManifest--><path codeLine="181" d="M208.5,93.8859 C215.124,91.9659 222.732,90.0639 229.8,89.0139 C349.572,71.2119 385.068,52.9059 502.2,83.6139 C542.16,94.0899 554.64,99.3639 583.2,129.2139 C606.99,154.0839 622.134,192.2319 629.298,213.7599 " fill="none" id="Truck-CargoManifest" style="stroke:#A80036;stroke-width:0.6;"/><!--MD5=[37a14a5de6d6fd738aee271300f4b5c8]
link Company to Ship--><path codeLine="189" d="M72.936,396.2139 C99.876,396.2139 142.35,396.2139 167.844,396.2139 " fill="none" id="Company-Ship" style="stroke:#A80036;stroke-width:0.6;"/><polygon fill="#000000" points="114.9,390.9193,109.4729,389.156,109.4729,392.6827,114.9,390.9193" style="stroke:#000000;stroke-width:0.6;"/><text fill="#000000" font-family="sans-serif" font-size="7.8" lengthAdjust="spacing" textLength="31.8" x="117.3" y="394.1109">manages</text><text fill="#000000" font-family="sans-serif" font-size="7.8" lengthAdjust="spacing" textLength="4.2" x="77.6859" y="405.1625">1</text><text fill="#000000" font-family="sans-serif" font-size="7.8" lengthAdjust="spacing" textLength="12" x="151.1972" y="405.1145">1..*</text><!--MD5=[9d91f1df0c90718d85872c4ac6e523ca]
link Company to VesselType--><path codeLine="190" d="M73.026,380.9679 C107.058,361.2159 170.484,327.8319 229.8,315.2139 C246.936,311.5719 266.574,311.9139 282.192,313.2219 " fill="none" id="Company-VesselType" style="stroke:#A80036;stroke-width:0.6;"/><polygon fill="#000000" points="182.254,314.395,176.5477,314.3896,177.6344,317.7447,182.254,314.395" style="stroke:#000000;stroke-width:0.6;"/><text fill="#000000" font-family="sans-serif" font-size="7.8" lengthAdjust="spacing" textLength="18" x="184.8" y="318.5109">owns</text><text fill="#000000" font-family="sans-serif" font-size="7.8" lengthAdjust="spacing" textLength="4.2" x="77.6181" y="387.3604">1</text><text fill="#000000" font-family="sans-serif" font-size="7.8" lengthAdjust="spacing" textLength="12" x="265.5012" y="321.4547">1..*</text><!--MD5=[5fd98a8c03cc0e5a408f548eb1c0ace8]
link Company to Port--><path codeLine="191" d="M50.364,379.8159 C61.338,306.7779 110.178,14.6139 189.3,14.6139 C189.3,14.6139 189.3,14.6139 552.3,14.6139 C661.872,14.6139 666.444,94.8579 734.4,180.8139 C746.256,195.8079 772.152,240.9519 787.182,267.6999 " fill="none" id="Company-Port" style="stroke:#A80036;stroke-width:0.6;"/><polygon fill="#000000" points="372.5659,8.868,366.9353,7.9411,367.4658,11.4277,372.5659,8.868" style="stroke:#000000;stroke-width:0.6;"/><text fill="#000000" font-family="sans-serif" font-size="7.8" lengthAdjust="spacing" textLength="36.6" x="375" y="12.5109">works with</text><text fill="#000000" font-family="sans-serif" font-size="7.8" lengthAdjust="spacing" textLength="4.2" x="46.3638" y="373.4467">1</text><text fill="#000000" font-family="sans-serif" font-size="7.8" lengthAdjust="spacing" textLength="12" x="771.6347" y="261.2534">1..*</text><!--MD5=[acda98ef2513d819683ba761a9c77b11]
link Company to Warehouse--><path codeLine="192" d="M54.084,412.5099 C62.952,434.1999 81.39,472.4619 108.6,495.2139 C146.358,526.7919 167.622,513.7119 211.8,535.4139 C240.576,549.5499 243.636,561.2139 273.6,572.6139 C322.284,591.1419 336.708,594.2139 388.8,594.2139 C388.8,594.2139 388.8,594.2139 635.4,594.2139 C682.986,594.2139 737.934,586.8099 770.394,581.6619 " fill="none" id="Company-Warehouse" style="stroke:#A80036;stroke-width:0.6;"/><polygon fill="#000000" points="384.5197,589.0088,379.6432,586.0454,378.8327,589.4777,384.5197,589.0088" style="stroke:#000000;stroke-width:0.6;"/><text fill="#000000" font-family="sans-serif" font-size="7.8" lengthAdjust="spacing" textLength="12.6" x="387" y="591.5109">has</text><text fill="#000000" font-family="sans-serif" font-size="7.8" lengthAdjust="spacing" textLength="4.2" x="56.0055" y="425.2555">1</text><text fill="#000000" font-family="sans-serif" font-size="7.8" lengthAdjust="spacing" textLength="12" x="753.4994" y="591.1444">1..*</text><!--MD5=[f500e957add76349bf6e8f151138488d]
link Client to Container--><path codeLine="193" d="M330.42,148.4199 C357.972,144.0159 409.524,135.7779 440.388,130.8459 " fill="none" id="Client-Container" style="stroke:#A80036;stroke-width:0.6;"/><polygon fill="#000000" points="381.5624,130.0459,375.9251,129.1611,376.4816,132.6436,381.5624,130.0459" style="stroke:#000000;stroke-width:0.6;"/><text fill="#000000" font-family="sans-serif" font-size="7.8" lengthAdjust="spacing" textLength="18.6" x="384" y="133.7109">ships</text><text fill="#000000" font-family="sans-serif" font-size="7.8" lengthAdjust="spacing" textLength="4.2" x="335.1056" y="156.9351">1</text><text fill="#000000" font-family="sans-serif" font-size="7.8" lengthAdjust="spacing" textLength="12" x="423.5168" y="140.3032">1..*</text><!--MD5=[0e32c7758dbd9763ef36bc86a30fd8c6]
link TrafficManager to ShipPosition--><path codeLine="194" d="M81.51,558.6879 C133.068,549.2559 231.036,531.3459 280.434,522.3099 " fill="none" id="TrafficManager-ShipPosition" style="stroke:#A80036;stroke-width:0.6;"/><polygon fill="#000000" points="177.5511,528.9797,171.8953,528.2214,172.5298,531.6905,177.5511,528.9797" style="stroke:#000000;stroke-width:0.6;"/><text fill="#000000" font-family="sans-serif" font-size="7.8" lengthAdjust="spacing" textLength="27.6" x="180" y="532.7109">controls</text><text fill="#000000" font-family="sans-serif" font-size="7.8" lengthAdjust="spacing" textLength="4.2" x="86.1494" y="566.6286">1</text><text fill="#000000" font-family="sans-serif" font-size="7.8" lengthAdjust="spacing" textLength="3" x="272.7096" y="531.9484">*</text><!--MD5=[40e2b5717560220ad35e84810a8f1b44]
link TrafficManager to Ship--><path codeLine="195" d="M56.208,555.0219 C77.676,529.4019 136.032,459.7719 167.874,421.7799 " fill="none" id="TrafficManager-Ship" style="stroke:#A80036;stroke-width:0.6;"/><polygon fill="#000000" points="116.827,438.42,111.9896,441.4469,114.6925,443.7122,116.827,438.42" style="stroke:#000000;stroke-width:0.6;"/><text fill="#000000" font-family="sans-serif" font-size="7.8" lengthAdjust="spacing" textLength="25.8" x="120.3" y="443.9109">imports</text><text fill="#000000" font-family="sans-serif" font-size="7.8" lengthAdjust="spacing" textLength="4.2" x="54.23" y="548.7203">1</text><text fill="#000000" font-family="sans-serif" font-size="7.8" lengthAdjust="spacing" textLength="12" x="151.2322" y="434.9148">1..*</text><!--MD5=[641af49703b38e745c9a3976df66996b]
link WarehouseManager to Warehouse--><path codeLine="196" d="M83.418,791.0679 C111.822,797.9559 152.82,806.0139 189.3,806.0139 C189.3,806.0139 189.3,806.0139 635.4,806.0139 C737.37,806.0139 781.56,653.6139 794.394,597.3579 " fill="none" id="WarehouseManager-Warehouse" style="stroke:#A80036;stroke-width:0.6;"/><polygon fill="#000000" points="374.8945,799.9307,369.1948,799.656,370.1218,803.0587,374.8945,799.9307" style="stroke:#000000;stroke-width:0.6;"/><text fill="#000000" font-family="sans-serif" font-size="7.8" lengthAdjust="spacing" textLength="31.8" x="377.4" y="803.9109">manages</text><text fill="#000000" font-family="sans-serif" font-size="7.8" lengthAdjust="spacing" textLength="4.2" x="90.4533" y="803.9878">1</text><text fill="#000000" font-family="sans-serif" font-size="7.8" lengthAdjust="spacing" textLength="12" x="780.5367" y="609.846">1..*</text><!--MD5=[9eb8cece74e91f217f5849e8308bf70d]
link PortManager to Port--><path codeLine="197" d="M60.474,717.2079 C72.228,708.6759 90.654,696.6099 108.6,690.2139 C210.09,654.0339 248.736,696.4659 348.6,656.0139 C548.028,575.2239 727.464,373.8159 781.83,308.7999 " fill="none" id="PortManager-Port" style="stroke:#A80036;stroke-width:0.6;"/><polygon fill="#000000" points="374.6106,620.4413,369.0192,621.5806,370.7567,624.6496,374.6106,620.4413" style="stroke:#000000;stroke-width:0.6;"/><text fill="#000000" font-family="sans-serif" font-size="7.8" lengthAdjust="spacing" textLength="31.8" x="377.4" y="625.1109">manages</text><text fill="#000000" font-family="sans-serif" font-size="7.8" lengthAdjust="spacing" textLength="4.2" x="60.0463" y="710.7891">1</text><text fill="#000000" font-family="sans-serif" font-size="7.8" lengthAdjust="spacing" textLength="12" x="765.8133" y="321.2952">1..*</text><!--MD5=[2f53b54d736e45d912a2707458432c0e]
link Ship to EnergyPower--><path codeLine="199" d="M211.908,397.3719 C217.716,397.6359 223.998,397.8819 229.8,398.0139 C241.266,398.2779 244.188,399.1239 255.6,398.0139 C261.402,397.4499 267.498,396.5559 273.432,395.5179 " fill="none" id="Ship-EnergyPower" style="stroke:#A80036;stroke-width:0.6;"/><polygon fill="#000000" points="237.8986,392.629,232.4209,391.0299,232.5272,394.555,237.8986,392.629" style="stroke:#000000;stroke-width:0.6;"/><text fill="#000000" font-family="sans-serif" font-size="7.8" lengthAdjust="spacing" textLength="12.6" x="240.3" y="395.9109">has</text><text fill="#000000" font-family="sans-serif" font-size="7.8" lengthAdjust="spacing" textLength="4.2" x="216.6543" y="403.7796">1</text><text fill="#000000" font-family="sans-serif" font-size="7.8" lengthAdjust="spacing" textLength="4.2" x="264.6338" y="405.1537">1</text><!--MD5=[fe56967d49e095412a54b704daffd5d9]
link ShipTrip to CargoManifest--><path codeLine="206" d="M502.302,230.0139 C531.48,230.0139 572.508,230.0139 601.026,230.0139 " fill="none" id="ShipTrip-CargoManifest" style="stroke:#A80036;stroke-width:0.6;"/><polygon fill="#000000" points="537,224.7193,531.5729,222.956,531.5729,226.4827,537,224.7193" style="stroke:#000000;stroke-width:0.6;"/><text fill="#000000" font-family="sans-serif" font-size="7.8" lengthAdjust="spacing" textLength="32.4" x="539.4" y="227.9109">relates to</text><text fill="#000000" font-family="sans-serif" font-size="7.8" lengthAdjust="spacing" textLength="4.2" x="506.9579" y="238.7262">1</text><text fill="#000000" font-family="sans-serif" font-size="7.8" lengthAdjust="spacing" textLength="4.2" x="592.2296" y="238.7458">2</text><!--MD5=[47296211a5450e6030aae792427ae68d]
link CargoManifest to Port--><path codeLine="209" d="M668.424,241.7919 C700.56,253.2519 748.494,270.3459 776.346,280.2759 " fill="none" id="CargoManifest-Port" style="stroke:#A80036;stroke-width:0.6;"/><polygon fill="#000000" points="692.2257,244.927,687.7062,241.4432,686.5217,244.7651,692.2257,244.927" style="stroke:#000000;stroke-width:0.6;"/><text fill="#000000" font-family="sans-serif" font-size="7.8" lengthAdjust="spacing" textLength="39" x="694.8" y="247.1109">delivered at</text><text fill="#000000" font-family="sans-serif" font-size="7.8" lengthAdjust="spacing" textLength="12" x="673.2532" y="251.9282">1..*</text><text fill="#000000" font-family="sans-serif" font-size="7.8" lengthAdjust="spacing" textLength="13.2" x="758.4518" y="287.9053">0..1</text><!--MD5=[1007fce2994c0804f23855fbfd3e6bbd]
link CargoManifest to Warehouse--><path codeLine="210" d="M643.05,246.2739 C669.834,303.1899 759.33,493.3659 788.97,556.3539 " fill="none" id="CargoManifest-Warehouse" style="stroke:#A80036;stroke-width:0.6;"/><polygon fill="#000000" points="690.6774,339.6338,689.9621,333.9725,686.7711,335.4741,690.6774,339.6338" style="stroke:#000000;stroke-width:0.6;"/><text fill="#000000" font-family="sans-serif" font-size="7.8" lengthAdjust="spacing" textLength="39" x="694.8" y="340.1109">delivered at</text><text fill="#000000" font-family="sans-serif" font-size="7.8" lengthAdjust="spacing" textLength="3" x="641.5266" y="259.0117">*</text><text fill="#000000" font-family="sans-serif" font-size="7.8" lengthAdjust="spacing" textLength="13.2" x="772.4566" y="549.918">0..1</text><!--MD5=[bd668f20969913e971975f69d50ab766]
link Ship to Route--><path codeLine="211" d="M209.454,363.4599 C224.85,338.4459 248.124,303.9759 273.6,278.0139 C278.94,272.5719 285.462,267.4179 291.528,263.0979 " fill="none" id="Ship-Route" style="stroke:#A80036;stroke-width:0.6;"/><polygon fill="#000000" points="234.6992,291.397,229.8985,294.4818,232.6286,296.7144,234.6992,291.397" style="stroke:#000000;stroke-width:0.6;"/><text fill="#000000" font-family="sans-serif" font-size="7.8" lengthAdjust="spacing" textLength="16.8" x="238.2" y="296.9109">does</text><text fill="#000000" font-family="sans-serif" font-size="7.8" lengthAdjust="spacing" textLength="4.2" x="207.5994" y="356.9175">1</text><text fill="#000000" font-family="sans-serif" font-size="7.8" lengthAdjust="spacing" textLength="3" x="283.9185" y="274.9222">*</text><!--MD5=[ded2ff2f2e128334a9175b15f74cae8c]
link Route to ShipTrip--><path codeLine="212" d="M330.726,248.4159 C355.458,245.0439 399.132,239.0859 430.074,234.8619 " fill="none" id="Route-ShipTrip" style="stroke:#A80036;stroke-width:0.6;"/><polygon fill="#000000" points="376.1725,232.1138,370.5569,231.1002,371.0336,234.5946,376.1725,232.1138" style="stroke:#000000;stroke-width:0.6;"/><text fill="#000000" font-family="sans-serif" font-size="7.8" lengthAdjust="spacing" textLength="29.4" x="378.6" y="235.7109">contains</text><text fill="#000000" font-family="sans-serif" font-size="7.8" lengthAdjust="spacing" textLength="4.2" x="335.4786" y="257.0285">1</text><text fill="#000000" font-family="sans-serif" font-size="7.8" lengthAdjust="spacing" textLength="12" x="413.4665" y="244.0414">1..*</text><!--MD5=[56260c13595321035dca77dc75bae3c2]
link Truck to Route--><path codeLine="213" d="M202.668,120.2379 C217.776,144.8079 245.058,186.7359 273.6,218.6139 C279,224.6499 285.48,230.6619 291.486,235.8459 " fill="none" id="Truck-Route" style="stroke:#A80036;stroke-width:0.6;"/><polygon fill="#000000" points="234.6277,159.8983,232.7197,154.5204,229.923,156.669,234.6277,159.8983" style="stroke:#000000;stroke-width:0.6;"/><text fill="#000000" font-family="sans-serif" font-size="7.8" lengthAdjust="spacing" textLength="16.8" x="238.2" y="160.7109">does</text><text fill="#000000" font-family="sans-serif" font-size="7.8" lengthAdjust="spacing" textLength="4.2" x="200.3682" y="132.8643">1</text><text fill="#000000" font-family="sans-serif" font-size="7.8" lengthAdjust="spacing" textLength="3" x="283.8673" y="241.7088">*</text><!--MD5=[5c8f7f71a7c38ff75f12b58bd2cf4c13]
link Route to TruckTrip--><path codeLine="214" d="M330.726,263.7699 C355.458,280.3539 399.132,309.6399 430.074,330.3939 " fill="none" id="Route-TruckTrip" style="stroke:#A80036;stroke-width:0.6;"/><polygon fill="#000000" points="375.6916,286.9902,372.1664,282.503,370.2021,285.4321,375.6916,286.9902" style="stroke:#000000;stroke-width:0.6;"/><text fill="#000000" font-family="sans-serif" font-size="7.8" lengthAdjust="spacing" textLength="29.4" x="378.6" y="288.5109">contains</text><text fill="#000000" font-family="sans-serif" font-size="7.8" lengthAdjust="spacing" textLength="4.2" x="335.4786" y="275.7412">1</text><text fill="#000000" font-family="sans-serif" font-size="7.8" lengthAdjust="spacing" textLength="3" x="422.4883" y="336.1726">*</text><!--MD5=[896731a16f9957de4c0f9ccc51c43389]
link TruckTrip to CargoManifest--><path codeLine="215" d="M502.302,327.8739 C535.602,303.1659 584.352,266.9979 612.312,246.2559 " fill="none" id="TruckTrip-CargoManifest" style="stroke:#A80036;stroke-width:0.6;"/><polygon fill="#000000" points="536.4093,263.1318,531.0001,264.9493,533.1015,267.7816,536.4093,263.1318" style="stroke:#000000;stroke-width:0.6;"/><text fill="#000000" font-family="sans-serif" font-size="7.8" lengthAdjust="spacing" textLength="32.4" x="539.4" y="268.1109">relates to</text><text fill="#000000" font-family="sans-serif" font-size="7.8" lengthAdjust="spacing" textLength="4.2" x="506.9579" y="333.3455">1</text><text fill="#000000" font-family="sans-serif" font-size="7.8" lengthAdjust="spacing" textLength="4.2" x="602.7334" y="258.9897">2</text><!--MD5=[73a26acdbe6809fd6927f686d2053e68]
@startuml

skinparam classAttributeIconSize 0
hide empty methods
hide empty attributes
left to right direction

class Company {
    -designation
}

class Container {
   -containerId
   -payload
   -tare
   -gross
   -isoCode
   /'-isRefrigerated'/
   /'-temperatureKept' - ESTE TALVEZ ADEQUA-SE'/
}

/' Roles '/
/'class Employee {}'/

class Client {}

/'class FleetManager {}'/

class TrafficManager {}



/'class WarehouseStaff {}'/

class WarehouseManager {}

/'class PortStaff {}'/

class PortManager {}

/'class ShipCaptain {}

class ShipChiefElecEngineer {}

class TruckDriver {}'/
/' End Roles '/

class CargoManifest {
    -cargoManifestId
    /'-typeOfTransport'/
}

class Ship {
    -mmmsiCode
    -shipName
    -imoCode
    -callSignId
    -draft
}


class PositionInVehicle {
    -containerPositionInVehiculeX
    -containerPositionInVehiculeY
    -containerPositionInVehiculeZ
}

class VesselType {
    -vesselTypeId
    -length
    -width
    -maxCapacity
}

class ShipPosition {
    -baseDateTime
    -latitude
    -longitude
    -sog
    -cog
    -heading
    -position
    -transceiver
}

/'CONFIRM'/
class Port {
    -identification
    -name
}

class Warehouse {
    -identification
    -name
}

class Country {
    -countryDesignation
    -continent
}

class PlaceLocation {
    -locationLatitude
    -locationLongitude
}

class EnergyPower{
    -numEnergyGenerators
    -generatorsPower
}

class Truck {
    -truckId
    -name
}

class Route {
    -route_id
}

class TruckTrip{
    -route_id
    -truck_Id
    /'has attribute phase?'/
    -departure_location_id
    -arrival_location_id
    -loading_cargo_id
    -unloading_cargo_id
    -est_departure_date
    -est_arrival_date
    -real_departure_date
    -real_arrival_date
}

/'Classes not in the Data Model'/
/'class Quote {}'/
class System {}
/'End of Classes not in the Data Model'/

class ShipTrip{
    -shipMmsi
    /'has attribute phase?'/
    -departure_location_id
    -arrival_location_id
    -loading_cargo_id
    -unloading_cargo_id
    -est_departure_date
    -est_arrival_date
    -real_departure_date
    -real_arrival_date
}


Company "1" - "1..*" System : has >
User "1..*" - - "1" System : uses >
/'FleetManager "1" - - "1" Employee : is of >'/
TrafficManager "1" - - "1" User : relates to >
/'WarehouseStaff "1" - - "1" Employee : is of >'/
WarehouseManager "1" - - "1" User : relates to >
/'PortStaff "1" - - "1" Employee : is of >'/
PortManager "1" - - "1" User : relates to >
/'ShipCaptain "1" - - "1" Employee : is of >'/
/'ShipChiefElecEngineer "1" - - "1" Employee : is of >'/
/'TruckDriver "1" - - "1" Employee : is of >'/

/'Relations that lack multiplicity'/
CargoManifest "1" - - "1..*" Container /'as this relation exists, CargoManifest already has Container gross weight'/
CargoManifest "1" - - "1..*" PositionInVehicle : contains >
/'End of relations that lack multiplicity'/

Container "1" - - "1" PositionInVehicle : has >
Ship "*" - - "1" VesselType : is of >
Ship "1" - - "1..*" ShipPosition : has >
Warehouse "1" - - "1" PlaceLocation : is located at >
Port "1" - - "1" PlaceLocation : is located at >
PlaceLocation "*" - - "1" Country : in a >
Ship "1" - - "*" Container : transports >
Truck "*" - - "1" Container : transports >

/'Relations that is in the Data Model but to be evaluated'/
Ship "1" - - "*" CargoManifest
Truck - - CargoManifest /' lacks multiplicity '/
/'PortsAndWareHouse "1" - - "*" CargoManifest : delivered at <'/
/'End of Relatiosn that is in the Data Model but to be evaluated'/

/'Relations not in the Data Model'/
/'Ship "1" - - "*" Message : sends >'/
/'USCoastGuard "1" - - "*" Message : receives >'/
/'Client "1" - - "1..*" Quote : wants >'/
Company "1" - - "1..*" Ship : manages >
Company "1" - - "1..*" VesselType : owns >
Company "1" - - "1..*" Port : works with >
Company "1" - - "1..*" Warehouse : has >
Client "1" - - "1..*" Container : ships >
TrafficManager "1" - - "*" ShipPosition : controls >
TrafficManager "1" - - "1..*" Ship : imports >
WarehouseManager "1" - - "1..*" Warehouse : manages >
PortManager "1" - - "1..*" Port : manages >

Ship "1" - - "1" EnergyPower : has >

/'US204'/
Container "1..*"- - "2..*" CargoManifest : associated with >
/'CargoManifest - - Port : delivered at >'/
/'Ship "1" - - "*" ShipTrip : does >'/
/'ShipTrip "*" - - "1" Port : to >'/
ShipTrip "1" - - "2" CargoManifest : relates to >

/'US305'/
CargoManifest "1..*" - - "0..1" Port : delivered at >
CargoManifest "*" - - "0..1" Warehouse : delivered at >
Ship "1" - - "*" Route : does >
Route "1" - - "1..*" ShipTrip : contains >
Truck "1" - - "*" Route : does >
Route "1" - - "*" TruckTrip : contains >
TruckTrip "1" - - "2" CargoManifest : relates to >






/'RELAES EM FALTA - DVIDAS
Company - - Quote?
'/


/' DVIDAS
- Containers can be transported by land or sea - representar?
- checkDigit - Container, para que serve?
- isRefrigerated vai ser um mtodo logo no se representa certo?
- estado do Cargo Manifest

- Ship sends Message - a Message contm info posicionamento, como representar?



- NO ESQUECER DE VER SLIDES ESOFT , USER E ROLE!

'/



@enduml

@startuml

skinparam classAttributeIconSize 0
hide empty methods
hide empty attributes
left to right direction

class Company {
    -designation
}

class Container {
   -containerId
   -payload
   -tare
   -gross
   -isoCode
}


class Client {}


class TrafficManager {}




class WarehouseManager {}


class PortManager {}


class CargoManifest {
    -cargoManifestId
}

class Ship {
    -mmmsiCode
    -shipName
    -imoCode
    -callSignId
    -draft
}


class PositionInVehicle {
    -containerPositionInVehiculeX
    -containerPositionInVehiculeY
    -containerPositionInVehiculeZ
}

class VesselType {
    -vesselTypeId
    -length
    -width
    -maxCapacity
}

class ShipPosition {
    -baseDateTime
    -latitude
    -longitude
    -sog
    -cog
    -heading
    -position
    -transceiver
}

class Port {
    -identification
    -name
}

class Warehouse {
    -identification
    -name
}

class Country {
    -countryDesignation
    -continent
}

class PlaceLocation {
    -locationLatitude
    -locationLongitude
}

class EnergyPower{
    -numEnergyGenerators
    -generatorsPower
}

class Truck {
    -truckId
    -name
}

class Route {
    -route_id
}

class TruckTrip{
    -route_id
    -truck_Id
    -departure_location_id
    -arrival_location_id
    -loading_cargo_id
    -unloading_cargo_id
    -est_departure_date
    -est_arrival_date
    -real_departure_date
    -real_arrival_date
}

class System {}

class ShipTrip{
    -shipMmsi
    -departure_location_id
    -arrival_location_id
    -loading_cargo_id
    -unloading_cargo_id
    -est_departure_date
    -est_arrival_date
    -real_departure_date
    -real_arrival_date
}


Company "1" - "1..*" System : has >
User "1..*" - - "1" System : uses >
TrafficManager "1" - - "1" User : relates to >
WarehouseManager "1" - - "1" User : relates to >
PortManager "1" - - "1" User : relates to >

CargoManifest "1" - - "1..*" Container 
CargoManifest "1" - - "1..*" PositionInVehicle : contains >

Container "1" - - "1" PositionInVehicle : has >
Ship "*" - - "1" VesselType : is of >
Ship "1" - - "1..*" ShipPosition : has >
Warehouse "1" - - "1" PlaceLocation : is located at >
Port "1" - - "1" PlaceLocation : is located at >
PlaceLocation "*" - - "1" Country : in a >
Ship "1" - - "*" Container : transports >
Truck "*" - - "1" Container : transports >

Ship "1" - - "*" CargoManifest
Truck - - CargoManifest 

Company "1" - - "1..*" Ship : manages >
Company "1" - - "1..*" VesselType : owns >
Company "1" - - "1..*" Port : works with >
Company "1" - - "1..*" Warehouse : has >
Client "1" - - "1..*" Container : ships >
TrafficManager "1" - - "*" ShipPosition : controls >
TrafficManager "1" - - "1..*" Ship : imports >
WarehouseManager "1" - - "1..*" Warehouse : manages >
PortManager "1" - - "1..*" Port : manages >

Ship "1" - - "1" EnergyPower : has >

Container "1..*"- - "2..*" CargoManifest : associated with >
ShipTrip "1" - - "2" CargoManifest : relates to >

CargoManifest "1..*" - - "0..1" Port : delivered at >
CargoManifest "*" - - "0..1" Warehouse : delivered at >
Ship "1" - - "*" Route : does >
Route "1" - - "1..*" ShipTrip : contains >
Truck "1" - - "*" Route : does >
Route "1" - - "*" TruckTrip : contains >
TruckTrip "1" - - "2" CargoManifest : relates to >











@enduml

PlantUML version 1.2021.11(Sat Oct 02 14:26:11 BST 2021)
(GPL source distribution)
Java Runtime: OpenJDK Runtime Environment
JVM: OpenJDK 64-Bit Server VM
Default Encoding: Cp1252
Language: pt
Country: PT
--></g></svg>