<?xml version="1.0" encoding="UTF-8" standalone="no"?><svg xmlns="http://www.w3.org/2000/svg" xmlns:xlink="http://www.w3.org/1999/xlink" contentScriptType="application/ecmascript" contentStyleType="text/css" height="788px" preserveAspectRatio="none" style="width:315px;height:788px;background:#FFFFFF;" version="1.1" viewBox="0 0 315 788" width="315px" zoomAndPan="magnify"><defs><filter height="300%" id="fcl0f0rz0r4tz" width="300%" x="-1" y="-1"><feGaussianBlur result="blurOut" stdDeviation="2.0"/><feColorMatrix in="blurOut" result="blurOut2" type="matrix" values="0 0 0 0 0 0 0 0 0 0 0 0 0 0 0 0 0 0 .4 0"/><feOffset dx="4.0" dy="4.0" in="blurOut2" result="blurOut3"/><feBlend in="SourceGraphic" in2="blurOut3" mode="normal"/></filter></defs><g><!--MD5=[99d8f1361a72f685c413d1fd21efef1c]
class PortManager--><rect codeLine="6" fill="#FEFECE" filter="url(#fcl0f0rz0r4tz)" height="53.8359" id="PortManager" style="stroke:#A80036;stroke-width:1.5;" width="102" x="7" y="117"/><ellipse cx="22" cy="133" fill="#ADD1B2" rx="11" ry="11" style="stroke:#A80036;stroke-width:1.0;"/><path d="M24,129.5 Q24.2031,129 24.4375,128.75 Q24.6719,128.5 24.9375,128.5 Q25.4063,128.5 25.7031,128.7813 Q26,129.0625 26,129.7188 L26,131.2813 Q26,131.9375 25.7188,132.2188 Q25.4375,132.5 25,132.5 Q24.6094,132.5 24.3594,132.3281 Q24.1094,132.1563 24,131.7031 Q23.9531,131.3906 23.7813,131.2188 Q23.4688,130.8906 22.9063,130.7031 Q22.3438,130.5 21.7813,130.5 Q21.0781,130.5 20.4844,130.7813 Q19.9063,131.0625 19.4531,131.6875 Q19,132.3125 19,133.1719 L19,134.0938 Q19,135.125 19.8438,135.8125 Q20.6875,136.5 22.1875,136.5 Q23.0781,136.5 23.7031,136.2969 Q24.0625,136.1875 24.4688,135.8281 Q24.7344,135.625 24.875,135.5625 Q25.0156,135.5 25.1875,135.5 Q25.5156,135.5 25.75,135.7656 Q26,136.0156 26,136.375 Q26,136.7188 25.6563,137.125 Q25.1563,137.7188 24.3594,138.0469 Q23.3125,138.5 22.0313,138.5 Q20.5313,138.5 19.3281,137.9063 Q18.3594,137.4375 17.6719,136.4219 Q17,135.4063 17,134.2031 L17,133.1094 Q17,131.8594 17.5938,130.7656 Q18.2031,129.6719 19.25,129.0938 Q20.3125,128.5 21.5,128.5 Q22.2188,128.5 22.8438,128.75 Q23.4688,129 24,129.5 Z " fill="#000000"/><text fill="#000000" font-family="sans-serif" font-size="12" lengthAdjust="spacing" textLength="70" x="36" y="137.9102">PortManager</text><line style="stroke:#A80036;stroke-width:1.5;" x1="8" x2="108" y1="149" y2="149"/><text fill="#000000" font-family="sans-serif" font-size="11" lengthAdjust="spacing" textLength="30" x="13" y="164.4189">-name</text><!--MD5=[02e4b9b7573f1156f41e60aa5b4e25a4]
class Company--><rect codeLine="10" fill="#FEFECE" filter="url(#fcl0f0rz0r4tz)" height="32" id="Company" style="stroke:#A80036;stroke-width:1.5;" width="85" x="132.5" y="7"/><ellipse cx="147.5" cy="23" fill="#ADD1B2" rx="11" ry="11" style="stroke:#A80036;stroke-width:1.0;"/><path d="M149.5,19.5 Q149.7031,19 149.9375,18.75 Q150.1719,18.5 150.4375,18.5 Q150.9063,18.5 151.2031,18.7813 Q151.5,19.0625 151.5,19.7188 L151.5,21.2813 Q151.5,21.9375 151.2188,22.2188 Q150.9375,22.5 150.5,22.5 Q150.1094,22.5 149.8594,22.3281 Q149.6094,22.1563 149.5,21.7031 Q149.4531,21.3906 149.2813,21.2188 Q148.9688,20.8906 148.4063,20.7031 Q147.8438,20.5 147.2813,20.5 Q146.5781,20.5 145.9844,20.7813 Q145.4063,21.0625 144.9531,21.6875 Q144.5,22.3125 144.5,23.1719 L144.5,24.0938 Q144.5,25.125 145.3438,25.8125 Q146.1875,26.5 147.6875,26.5 Q148.5781,26.5 149.2031,26.2969 Q149.5625,26.1875 149.9688,25.8281 Q150.2344,25.625 150.375,25.5625 Q150.5156,25.5 150.6875,25.5 Q151.0156,25.5 151.25,25.7656 Q151.5,26.0156 151.5,26.375 Q151.5,26.7188 151.1563,27.125 Q150.6563,27.7188 149.8594,28.0469 Q148.8125,28.5 147.5313,28.5 Q146.0313,28.5 144.8281,27.9063 Q143.8594,27.4375 143.1719,26.4219 Q142.5,25.4063 142.5,24.2031 L142.5,23.1094 Q142.5,21.8594 143.0938,20.7656 Q143.7031,19.6719 144.75,19.0938 Q145.8125,18.5 147,18.5 Q147.7188,18.5 148.3438,18.75 Q148.9688,19 149.5,19.5 Z " fill="#000000"/><text fill="#000000" font-family="sans-serif" font-size="12" lengthAdjust="spacing" textLength="53" x="161.5" y="27.9102">Company</text><!--MD5=[76562047389981627aea27c31a97aff5]
class CargoManifest--><rect codeLine="12" fill="#FEFECE" filter="url(#fcl0f0rz0r4tz)" height="53.8359" id="CargoManifest" style="stroke:#A80036;stroke-width:1.5;" width="112" x="58" y="512.5"/><ellipse cx="73" cy="528.5" fill="#ADD1B2" rx="11" ry="11" style="stroke:#A80036;stroke-width:1.0;"/><path d="M75,525 Q75.2031,524.5 75.4375,524.25 Q75.6719,524 75.9375,524 Q76.4063,524 76.7031,524.2813 Q77,524.5625 77,525.2188 L77,526.7813 Q77,527.4375 76.7188,527.7188 Q76.4375,528 76,528 Q75.6094,528 75.3594,527.8281 Q75.1094,527.6563 75,527.2031 Q74.9531,526.8906 74.7813,526.7188 Q74.4688,526.3906 73.9063,526.2031 Q73.3438,526 72.7813,526 Q72.0781,526 71.4844,526.2813 Q70.9063,526.5625 70.4531,527.1875 Q70,527.8125 70,528.6719 L70,529.5938 Q70,530.625 70.8438,531.3125 Q71.6875,532 73.1875,532 Q74.0781,532 74.7031,531.7969 Q75.0625,531.6875 75.4688,531.3281 Q75.7344,531.125 75.875,531.0625 Q76.0156,531 76.1875,531 Q76.5156,531 76.75,531.2656 Q77,531.5156 77,531.875 Q77,532.2188 76.6563,532.625 Q76.1563,533.2188 75.3594,533.5469 Q74.3125,534 73.0313,534 Q71.5313,534 70.3281,533.4063 Q69.3594,532.9375 68.6719,531.9219 Q68,530.9063 68,529.7031 L68,528.6094 Q68,527.3594 68.5938,526.2656 Q69.2031,525.1719 70.25,524.5938 Q71.3125,524 72.5,524 Q73.2188,524 73.8438,524.25 Q74.4688,524.5 75,525 Z " fill="#000000"/><text fill="#000000" font-family="sans-serif" font-size="12" lengthAdjust="spacing" textLength="80" x="87" y="533.4102">CargoManifest</text><line style="stroke:#A80036;stroke-width:1.5;" x1="59" x2="169" y1="544.5" y2="544.5"/><text fill="#000000" font-family="sans-serif" font-size="11" lengthAdjust="spacing" textLength="81" x="64" y="559.9189">-cargoManifestId</text><!--MD5=[e9a58730c562b34349daa605d1ed6662]
class Container--><rect codeLine="16" fill="#FEFECE" filter="url(#fcl0f0rz0r4tz)" height="109.1797" id="Container" style="stroke:#A80036;stroke-width:1.5;" width="86" x="141" y="665"/><ellipse cx="156" cy="681" fill="#ADD1B2" rx="11" ry="11" style="stroke:#A80036;stroke-width:1.0;"/><path d="M158,677.5 Q158.2031,677 158.4375,676.75 Q158.6719,676.5 158.9375,676.5 Q159.4063,676.5 159.7031,676.7813 Q160,677.0625 160,677.7188 L160,679.2813 Q160,679.9375 159.7188,680.2188 Q159.4375,680.5 159,680.5 Q158.6094,680.5 158.3594,680.3281 Q158.1094,680.1563 158,679.7031 Q157.9531,679.3906 157.7813,679.2188 Q157.4688,678.8906 156.9063,678.7031 Q156.3438,678.5 155.7813,678.5 Q155.0781,678.5 154.4844,678.7813 Q153.9063,679.0625 153.4531,679.6875 Q153,680.3125 153,681.1719 L153,682.0938 Q153,683.125 153.8438,683.8125 Q154.6875,684.5 156.1875,684.5 Q157.0781,684.5 157.7031,684.2969 Q158.0625,684.1875 158.4688,683.8281 Q158.7344,683.625 158.875,683.5625 Q159.0156,683.5 159.1875,683.5 Q159.5156,683.5 159.75,683.7656 Q160,684.0156 160,684.375 Q160,684.7188 159.6563,685.125 Q159.1563,685.7188 158.3594,686.0469 Q157.3125,686.5 156.0313,686.5 Q154.5313,686.5 153.3281,685.9063 Q152.3594,685.4375 151.6719,684.4219 Q151,683.4063 151,682.2031 L151,681.1094 Q151,679.8594 151.5938,678.7656 Q152.2031,677.6719 153.25,677.0938 Q154.3125,676.5 155.5,676.5 Q156.2188,676.5 156.8438,676.75 Q157.4688,677 158,677.5 Z " fill="#000000"/><text fill="#000000" font-family="sans-serif" font-size="12" lengthAdjust="spacing" textLength="54" x="170" y="685.9102">Container</text><line style="stroke:#A80036;stroke-width:1.5;" x1="142" x2="226" y1="697" y2="697"/><text fill="#000000" font-family="sans-serif" font-size="11" lengthAdjust="spacing" textLength="57" x="147" y="712.4189">-containerId</text><text fill="#000000" font-family="sans-serif" font-size="11" lengthAdjust="spacing" textLength="42" x="147" y="726.2549">-payload</text><text fill="#000000" font-family="sans-serif" font-size="11" lengthAdjust="spacing" textLength="23" x="147" y="740.0908">-tare</text><text fill="#000000" font-family="sans-serif" font-size="11" lengthAdjust="spacing" textLength="32" x="147" y="753.9268">-gross</text><text fill="#000000" font-family="sans-serif" font-size="11" lengthAdjust="spacing" textLength="43" x="147" y="767.7627">-isoCode</text><!--MD5=[f73a60b75ec7157bd3f57c9b4918fddb]
class TruckTrip--><rect codeLine="24" fill="#FEFECE" filter="url(#fcl0f0rz0r4tz)" height="164.5234" id="TruckTrip" style="stroke:#A80036;stroke-width:1.5;" width="120" x="54" y="249"/><ellipse cx="85.65" cy="265" fill="#ADD1B2" rx="11" ry="11" style="stroke:#A80036;stroke-width:1.0;"/><path d="M87.65,261.5 Q87.8531,261 88.0875,260.75 Q88.3219,260.5 88.5875,260.5 Q89.0563,260.5 89.3531,260.7813 Q89.65,261.0625 89.65,261.7188 L89.65,263.2813 Q89.65,263.9375 89.3688,264.2188 Q89.0875,264.5 88.65,264.5 Q88.2594,264.5 88.0094,264.3281 Q87.7594,264.1563 87.65,263.7031 Q87.6031,263.3906 87.4313,263.2188 Q87.1188,262.8906 86.5563,262.7031 Q85.9938,262.5 85.4313,262.5 Q84.7281,262.5 84.1344,262.7813 Q83.5563,263.0625 83.1031,263.6875 Q82.65,264.3125 82.65,265.1719 L82.65,266.0938 Q82.65,267.125 83.4938,267.8125 Q84.3375,268.5 85.8375,268.5 Q86.7281,268.5 87.3531,268.2969 Q87.7125,268.1875 88.1188,267.8281 Q88.3844,267.625 88.525,267.5625 Q88.6656,267.5 88.8375,267.5 Q89.1656,267.5 89.4,267.7656 Q89.65,268.0156 89.65,268.375 Q89.65,268.7188 89.3063,269.125 Q88.8063,269.7188 88.0094,270.0469 Q86.9625,270.5 85.6813,270.5 Q84.1813,270.5 82.9781,269.9063 Q82.0094,269.4375 81.3219,268.4219 Q80.65,267.4063 80.65,266.2031 L80.65,265.1094 Q80.65,263.8594 81.2438,262.7656 Q81.8531,261.6719 82.9,261.0938 Q83.9625,260.5 85.15,260.5 Q85.8688,260.5 86.4938,260.75 Q87.1188,261 87.65,261.5 Z " fill="#000000"/><text fill="#000000" font-family="sans-serif" font-size="12" lengthAdjust="spacing" textLength="51" x="103.35" y="269.9102">TruckTrip</text><line style="stroke:#A80036;stroke-width:1.5;" x1="55" x2="173" y1="281" y2="281"/><text fill="#000000" font-family="sans-serif" font-size="11" lengthAdjust="spacing" textLength="37" x="60" y="296.4189">-truckID</text><text fill="#000000" font-family="sans-serif" font-size="11" lengthAdjust="spacing" textLength="108" x="60" y="310.2549">-departure_location_id</text><text fill="#000000" font-family="sans-serif" font-size="11" lengthAdjust="spacing" textLength="91" x="60" y="324.0908">-arrival_location_id</text><text fill="#000000" font-family="sans-serif" font-size="11" lengthAdjust="spacing" textLength="86" x="60" y="337.9268">-loading_cargo_id</text><text fill="#000000" font-family="sans-serif" font-size="11" lengthAdjust="spacing" textLength="98" x="60" y="351.7627">-unloading_cargo_id</text><text fill="#000000" font-family="sans-serif" font-size="11" lengthAdjust="spacing" textLength="99" x="60" y="365.5986">-est_departure_date</text><text fill="#000000" font-family="sans-serif" font-size="11" lengthAdjust="spacing" textLength="82" x="60" y="379.4346">-est_arrival_date</text><text fill="#000000" font-family="sans-serif" font-size="11" lengthAdjust="spacing" textLength="102" x="60" y="393.2705">-real_departure_date</text><text fill="#000000" font-family="sans-serif" font-size="11" lengthAdjust="spacing" textLength="85" x="60" y="407.1064">-real_arrival_date</text><!--MD5=[f2ba7f6ab60af8dd0d3e354f91729b14]
class Truck--><rect codeLine="36" fill="#FEFECE" filter="url(#fcl0f0rz0r4tz)" height="53.8359" id="Truck" style="stroke:#A80036;stroke-width:1.5;" width="62" x="144" y="117"/><ellipse cx="159" cy="133" fill="#ADD1B2" rx="11" ry="11" style="stroke:#A80036;stroke-width:1.0;"/><path d="M161,129.5 Q161.2031,129 161.4375,128.75 Q161.6719,128.5 161.9375,128.5 Q162.4063,128.5 162.7031,128.7813 Q163,129.0625 163,129.7188 L163,131.2813 Q163,131.9375 162.7188,132.2188 Q162.4375,132.5 162,132.5 Q161.6094,132.5 161.3594,132.3281 Q161.1094,132.1563 161,131.7031 Q160.9531,131.3906 160.7813,131.2188 Q160.4688,130.8906 159.9063,130.7031 Q159.3438,130.5 158.7813,130.5 Q158.0781,130.5 157.4844,130.7813 Q156.9063,131.0625 156.4531,131.6875 Q156,132.3125 156,133.1719 L156,134.0938 Q156,135.125 156.8438,135.8125 Q157.6875,136.5 159.1875,136.5 Q160.0781,136.5 160.7031,136.2969 Q161.0625,136.1875 161.4688,135.8281 Q161.7344,135.625 161.875,135.5625 Q162.0156,135.5 162.1875,135.5 Q162.5156,135.5 162.75,135.7656 Q163,136.0156 163,136.375 Q163,136.7188 162.6563,137.125 Q162.1563,137.7188 161.3594,138.0469 Q160.3125,138.5 159.0313,138.5 Q157.5313,138.5 156.3281,137.9063 Q155.3594,137.4375 154.6719,136.4219 Q154,135.4063 154,134.2031 L154,133.1094 Q154,131.8594 154.5938,130.7656 Q155.2031,129.6719 156.25,129.0938 Q157.3125,128.5 158.5,128.5 Q159.2188,128.5 159.8438,128.75 Q160.4688,129 161,129.5 Z " fill="#000000"/><text fill="#000000" font-family="sans-serif" font-size="12" lengthAdjust="spacing" textLength="30" x="173" y="137.9102">Truck</text><line style="stroke:#A80036;stroke-width:1.5;" x1="145" x2="205" y1="149" y2="149"/><text fill="#000000" font-family="sans-serif" font-size="11" lengthAdjust="spacing" textLength="37" x="150" y="164.4189">-truckID</text><!--MD5=[c5149b4909ffd2688ff51a939867f774]
class Warehouse--><rect codeLine="40" fill="#FEFECE" filter="url(#fcl0f0rz0r4tz)" height="95.3438" id="Warehouse" style="stroke:#A80036;stroke-width:1.5;" width="96" x="205" y="492"/><ellipse cx="220" cy="508" fill="#ADD1B2" rx="11" ry="11" style="stroke:#A80036;stroke-width:1.0;"/><path d="M222,504.5 Q222.2031,504 222.4375,503.75 Q222.6719,503.5 222.9375,503.5 Q223.4063,503.5 223.7031,503.7813 Q224,504.0625 224,504.7188 L224,506.2813 Q224,506.9375 223.7188,507.2188 Q223.4375,507.5 223,507.5 Q222.6094,507.5 222.3594,507.3281 Q222.1094,507.1563 222,506.7031 Q221.9531,506.3906 221.7813,506.2188 Q221.4688,505.8906 220.9063,505.7031 Q220.3438,505.5 219.7813,505.5 Q219.0781,505.5 218.4844,505.7813 Q217.9063,506.0625 217.4531,506.6875 Q217,507.3125 217,508.1719 L217,509.0938 Q217,510.125 217.8438,510.8125 Q218.6875,511.5 220.1875,511.5 Q221.0781,511.5 221.7031,511.2969 Q222.0625,511.1875 222.4688,510.8281 Q222.7344,510.625 222.875,510.5625 Q223.0156,510.5 223.1875,510.5 Q223.5156,510.5 223.75,510.7656 Q224,511.0156 224,511.375 Q224,511.7188 223.6563,512.125 Q223.1563,512.7188 222.3594,513.0469 Q221.3125,513.5 220.0313,513.5 Q218.5313,513.5 217.3281,512.9063 Q216.3594,512.4375 215.6719,511.4219 Q215,510.4063 215,509.2031 L215,508.1094 Q215,506.8594 215.5938,505.7656 Q216.2031,504.6719 217.25,504.0938 Q218.3125,503.5 219.5,503.5 Q220.2188,503.5 220.8438,503.75 Q221.4688,504 222,504.5 Z " fill="#000000"/><text fill="#000000" font-family="sans-serif" font-size="12" lengthAdjust="spacing" textLength="64" x="234" y="512.9102">Warehouse</text><line style="stroke:#A80036;stroke-width:1.5;" x1="206" x2="300" y1="524" y2="524"/><text fill="#000000" font-family="sans-serif" font-size="11" lengthAdjust="spacing" textLength="69" x="211" y="539.4189">-warehouseID</text><text fill="#000000" font-family="sans-serif" font-size="11" lengthAdjust="spacing" textLength="30" x="211" y="553.2549">-name</text><text fill="#000000" font-family="sans-serif" font-size="11" lengthAdjust="spacing" textLength="66" x="211" y="567.0908">-maxCapacity</text><text fill="#000000" font-family="sans-serif" font-size="11" lengthAdjust="spacing" textLength="50" x="211" y="580.9268">-locationID</text><!--MD5=[8bca0a2e1c8a9278470b929f0e8c4669]
link PortManager to TruckTrip--><path codeLine="47" d="M56.05,171.04 C55.63,185.38 56.2,203.39 60,219 C62.42,228.93 65.8,239.01 69.7,248.84 " fill="none" id="PortManager-TruckTrip" style="stroke:#A80036;stroke-width:1.0;"/><polygon fill="#000000" points="65.8641,215.1006,67.1957,205.6837,61.4063,206.6994,65.8641,215.1006" style="stroke:#000000;stroke-width:1.0;"/><text fill="#000000" font-family="sans-serif" font-size="13" lengthAdjust="spacing" textLength="52" x="74" y="215.4951">analyses</text><text fill="#000000" font-family="sans-serif" font-size="13" lengthAdjust="spacing" textLength="7" x="47.8578" y="192.2565">1</text><text fill="#000000" font-family="sans-serif" font-size="13" lengthAdjust="spacing" textLength="20" x="44.6942" y="238.0156">1..*</text><!--MD5=[710b10ea314ec23c5eb602bd01bfa9d5]
link Company to Truck--><path codeLine="48" d="M175,39.07 C175,58.58 175,92.91 175,116.75 " fill="none" id="Company-Truck" style="stroke:#A80036;stroke-width:1.0;"/><polygon fill="#000000" points="180,83.1758,182.9389,74.1307,177.0611,74.1307,180,83.1758" style="stroke:#000000;stroke-width:1.0;"/><text fill="#000000" font-family="sans-serif" font-size="13" lengthAdjust="spacing" textLength="30" x="189" y="83.4951">owns</text><text fill="#000000" font-family="sans-serif" font-size="13" lengthAdjust="spacing" textLength="7" x="166.8406" y="60.5965">1</text><text fill="#000000" font-family="sans-serif" font-size="13" lengthAdjust="spacing" textLength="20" x="152.6875" y="106.1532">1..*</text><!--MD5=[0996a08baf02e11c94caeb995ff89664]
link Truck to TruckTrip--><path codeLine="49" d="M166.39,171.18 C159.72,191.46 150.11,220.7 140.93,248.61 " fill="none" id="Truck-TruckTrip" style="stroke:#A80036;stroke-width:1.0;"/><polygon fill="#000000" points="158.4382,214.9256,164.0554,207.2511,158.4717,205.4151,158.4382,214.9256" style="stroke:#000000;stroke-width:1.0;"/><text fill="#000000" font-family="sans-serif" font-size="13" lengthAdjust="spacing" textLength="30" x="169" y="215.4951">owns</text><text fill="#000000" font-family="sans-serif" font-size="13" lengthAdjust="spacing" textLength="7" x="156.7409" y="192.4271">1</text><text fill="#000000" font-family="sans-serif" font-size="13" lengthAdjust="spacing" textLength="20" x="122.4378" y="238.0471">1..*</text><!--MD5=[a93f71c337684849482b0ec5675aa7db]
link CargoManifest to Container--><path codeLine="50" d="M121.19,566.51 C126.75,585.68 135,612.27 144,635 C147.85,644.71 152.32,654.88 156.85,664.64 " fill="none" id="CargoManifest-Container" style="stroke:#A80036;stroke-width:1.0;"/><polygon fill="#000000" points="150.7077,630.8751,150.3806,621.3702,144.8562,623.3777,150.7077,630.8751" style="stroke:#000000;stroke-width:1.0;"/><text fill="#000000" font-family="sans-serif" font-size="13" lengthAdjust="spacing" textLength="49" x="158" y="631.4951">contains</text><text fill="#000000" font-family="sans-serif" font-size="13" lengthAdjust="spacing" textLength="20" x="100.5753" y="587.72">1..*</text><text fill="#000000" font-family="sans-serif" font-size="13" lengthAdjust="spacing" textLength="20" x="132.0902" y="654.0922">1..*</text><!--MD5=[896731a16f9957de4c0f9ccc51c43389]
link TruckTrip to CargoManifest--><path codeLine="51" d="M114,414.21 C114,449.26 114,487.75 114,512.47 " fill="none" id="TruckTrip-CargoManifest" style="stroke:#A80036;stroke-width:1.0;"/><polygon fill="#000000" points="119,458.1758,121.9389,449.1307,116.0611,449.1307,119,458.1758" style="stroke:#000000;stroke-width:1.0;"/><text fill="#000000" font-family="sans-serif" font-size="13" lengthAdjust="spacing" textLength="49" x="128" y="458.4951">contains</text><text fill="#000000" font-family="sans-serif" font-size="13" lengthAdjust="spacing" textLength="7" x="106.7211" y="434.9666">1</text><text fill="#000000" font-family="sans-serif" font-size="13" lengthAdjust="spacing" textLength="22" x="89.3188" y="501.4894">1..2</text><!--MD5=[dcfbf1993903403fab05fd4b6d52af89]
link Warehouse to Container--><path codeLine="52" d="M234.87,587.27 C225.65,611.06 214.39,640.1 204.81,664.8 " fill="none" id="Warehouse-Container" style="stroke:#A80036;stroke-width:1.0;"/><text fill="#000000" font-family="sans-serif" font-size="13" lengthAdjust="spacing" textLength="21" x="223" y="631.4951">has</text><text fill="#000000" font-family="sans-serif" font-size="13" lengthAdjust="spacing" textLength="5" x="226.84" y="608.9569">*</text><text fill="#000000" font-family="sans-serif" font-size="13" lengthAdjust="spacing" textLength="5" x="202.156" y="654.2727">*</text><!--MD5=[028a511e892dcba0dd533db99d5dd90d]
@startuml
'https://plantuml.com/class-diagram
hide empty methods
hide empty attributes
skinparam classAttributeIconSize 0

class PortManager{
    -name
}

class Company{}

class CargoManifest{
    -cargoManifestId
}

class Container{
    -containerId
    -payload
    -tare
    -gross
    -isoCode
}

class TruckTrip{
    -truckID
    -departure_location_id
    -arrival_location_id
    -loading_cargo_id
    -unloading_cargo_id
    -est_departure_date
    -est_arrival_date
    -real_departure_date
    -real_arrival_date
}

class Truck {
    -truckID
}

class Warehouse{
    -warehouseID
    -name
    -maxCapacity
    -locationID
}

PortManager "1" - - "1..*" TruckTrip : analyses >
Company "1" - - "1..*" Truck : owns >
Truck "1" - - "1..*" TruckTrip : owns >
CargoManifest "1..*" - - "1..*" Container : contains >
TruckTrip "1" - - "1..2" CargoManifest : contains >
Warehouse "*" - - "*" Container : has

@enduml

@startuml
hide empty methods
hide empty attributes
skinparam classAttributeIconSize 0

class PortManager{
    -name
}

class Company{}

class CargoManifest{
    -cargoManifestId
}

class Container{
    -containerId
    -payload
    -tare
    -gross
    -isoCode
}

class TruckTrip{
    -truckID
    -departure_location_id
    -arrival_location_id
    -loading_cargo_id
    -unloading_cargo_id
    -est_departure_date
    -est_arrival_date
    -real_departure_date
    -real_arrival_date
}

class Truck {
    -truckID
}

class Warehouse{
    -warehouseID
    -name
    -maxCapacity
    -locationID
}

PortManager "1" - - "1..*" TruckTrip : analyses >
Company "1" - - "1..*" Truck : owns >
Truck "1" - - "1..*" TruckTrip : owns >
CargoManifest "1..*" - - "1..*" Container : contains >
TruckTrip "1" - - "1..2" CargoManifest : contains >
Warehouse "*" - - "*" Container : has

@enduml

PlantUML version 1.2021.11(Sat Oct 02 14:26:11 BST 2021)
(GPL source distribution)
Java Runtime: OpenJDK Runtime Environment
JVM: OpenJDK 64-Bit Server VM
Default Encoding: Cp1252
Language: pt
Country: PT
--></g></svg>